G04 #@! TF.GenerationSoftware,KiCad,Pcbnew,5.0.2-bee76a0~70~ubuntu16.04.1*
G04 #@! TF.CreationDate,2020-01-20T17:48:56-08:00*
G04 #@! TF.ProjectId,clock,636c6f63-6b2e-46b6-9963-61645f706362,rev?*
G04 #@! TF.SameCoordinates,Original*
G04 #@! TF.FileFunction,Legend,Bot*
G04 #@! TF.FilePolarity,Positive*
%FSLAX46Y46*%
G04 Gerber Fmt 4.6, Leading zero omitted, Abs format (unit mm)*
G04 Created by KiCad (PCBNEW 5.0.2-bee76a0~70~ubuntu16.04.1) date Mon 20 Jan 2020 17:48:56 PST*
%MOMM*%
%LPD*%
G01*
G04 APERTURE LIST*
%ADD10C,0.150000*%
%ADD11C,0.120000*%
G04 APERTURE END LIST*
D10*
G04 #@! TO.C,U3*
X90575400Y-95691000D02*
X90575400Y-101666000D01*
X96100400Y-97266000D02*
X96100400Y-101666000D01*
D11*
G04 #@! TO.C,C1*
X60777622Y-82371000D02*
X61294778Y-82371000D01*
X60777622Y-80951000D02*
X61294778Y-80951000D01*
G04 #@! TO.C,C2*
X75944800Y-77442322D02*
X75944800Y-77959478D01*
X74524800Y-77442322D02*
X74524800Y-77959478D01*
G04 #@! TO.C,C3*
X75970200Y-82399878D02*
X75970200Y-81882722D01*
X74550200Y-82399878D02*
X74550200Y-81882722D01*
G04 #@! TO.C,D1*
X65794200Y-77349400D02*
X65794200Y-77149400D01*
X65794200Y-77149400D02*
X71594200Y-77149400D01*
X65794200Y-82149400D02*
X65794200Y-82349400D01*
X65794200Y-82349400D02*
X70394200Y-82349400D01*
X70394200Y-82349400D02*
X70394200Y-82149400D01*
X65794200Y-78249400D02*
X65794200Y-81249400D01*
X70394200Y-81249400D02*
X70394200Y-78249400D01*
G04 #@! TO.C,D2*
X61983100Y-79065000D02*
X59298100Y-79065000D01*
X59298100Y-79065000D02*
X59298100Y-77145000D01*
X59298100Y-77145000D02*
X61983100Y-77145000D01*
G04 #@! TO.C,D75*
X58541800Y-78581300D02*
X58541800Y-81266300D01*
X56621800Y-78581300D02*
X58541800Y-78581300D01*
X56621800Y-81266300D02*
X56621800Y-78581300D01*
G04 #@! TO.C,U7*
X79495800Y-77671200D02*
X78295800Y-77671200D01*
X78295800Y-77671200D02*
X78295800Y-80371200D01*
X83095800Y-81671200D02*
X83095800Y-77671200D01*
X83095800Y-77671200D02*
X81895800Y-77671200D01*
G04 #@! TO.C,R4*
X40428721Y-117396800D02*
X40754279Y-117396800D01*
X40428721Y-118416800D02*
X40754279Y-118416800D01*
G04 #@! TO.C,R5*
X47083521Y-123522200D02*
X47409079Y-123522200D01*
X47083521Y-122502200D02*
X47409079Y-122502200D01*
G04 #@! TO.C,R6*
X53738321Y-127607600D02*
X54063879Y-127607600D01*
X53738321Y-128627600D02*
X54063879Y-128627600D01*
G04 #@! TO.C,R7*
X60266121Y-132662200D02*
X60591679Y-132662200D01*
X60266121Y-133682200D02*
X60591679Y-133682200D01*
G04 #@! TO.C,R8*
X74589421Y-110462600D02*
X74914979Y-110462600D01*
X74589421Y-111482600D02*
X74914979Y-111482600D01*
G04 #@! TO.C,R9*
X47083521Y-117396800D02*
X47409079Y-117396800D01*
X47083521Y-118416800D02*
X47409079Y-118416800D01*
G04 #@! TO.C,R10*
X53763721Y-122502200D02*
X54089279Y-122502200D01*
X53763721Y-123522200D02*
X54089279Y-123522200D01*
G04 #@! TO.C,R11*
X60418521Y-127607600D02*
X60744079Y-127607600D01*
X60418521Y-128627600D02*
X60744079Y-128627600D01*
G04 #@! TO.C,R12*
X66920921Y-133733000D02*
X67246479Y-133733000D01*
X66920921Y-132713000D02*
X67246479Y-132713000D01*
G04 #@! TO.C,R13*
X82795921Y-111457200D02*
X83121479Y-111457200D01*
X82795921Y-110437200D02*
X83121479Y-110437200D01*
G04 #@! TO.C,R14*
X53763721Y-118416800D02*
X54089279Y-118416800D01*
X53763721Y-117396800D02*
X54089279Y-117396800D01*
G04 #@! TO.C,R15*
X60418521Y-123522200D02*
X60744079Y-123522200D01*
X60418521Y-122502200D02*
X60744079Y-122502200D01*
G04 #@! TO.C,R16*
X67098721Y-127582200D02*
X67424279Y-127582200D01*
X67098721Y-128602200D02*
X67424279Y-128602200D01*
G04 #@! TO.C,R17*
X73725821Y-132662200D02*
X74051379Y-132662200D01*
X73725821Y-133682200D02*
X74051379Y-133682200D01*
G04 #@! TO.C,R18*
X91127121Y-110386400D02*
X91452679Y-110386400D01*
X91127121Y-111406400D02*
X91452679Y-111406400D01*
G04 #@! TO.C,R19*
X60443921Y-118416800D02*
X60769479Y-118416800D01*
X60443921Y-117396800D02*
X60769479Y-117396800D01*
G04 #@! TO.C,R20*
X67073321Y-122476800D02*
X67398879Y-122476800D01*
X67073321Y-123496800D02*
X67398879Y-123496800D01*
G04 #@! TO.C,R21*
X73804321Y-127582200D02*
X74129879Y-127582200D01*
X73804321Y-128602200D02*
X74129879Y-128602200D01*
G04 #@! TO.C,R22*
X80509921Y-133733000D02*
X80835479Y-133733000D01*
X80509921Y-132713000D02*
X80835479Y-132713000D01*
G04 #@! TO.C,R23*
X99509121Y-110335600D02*
X99834679Y-110335600D01*
X99509121Y-111355600D02*
X99834679Y-111355600D01*
G04 #@! TO.C,R24*
X67073321Y-117371400D02*
X67398879Y-117371400D01*
X67073321Y-118391400D02*
X67398879Y-118391400D01*
G04 #@! TO.C,R25*
X73751221Y-123496800D02*
X74076779Y-123496800D01*
X73751221Y-122476800D02*
X74076779Y-122476800D01*
G04 #@! TO.C,R26*
X80382921Y-127531400D02*
X80708479Y-127531400D01*
X80382921Y-128551400D02*
X80708479Y-128551400D01*
G04 #@! TO.C,R27*
X87190121Y-132687600D02*
X87515679Y-132687600D01*
X87190121Y-133707600D02*
X87515679Y-133707600D01*
G04 #@! TO.C,R28*
X107814921Y-110335600D02*
X108140479Y-110335600D01*
X107814921Y-111355600D02*
X108140479Y-111355600D01*
G04 #@! TO.C,R29*
X73753521Y-117396800D02*
X74079079Y-117396800D01*
X73753521Y-118416800D02*
X74079079Y-118416800D01*
G04 #@! TO.C,R30*
X80408321Y-122527600D02*
X80733879Y-122527600D01*
X80408321Y-123547600D02*
X80733879Y-123547600D01*
G04 #@! TO.C,R31*
X87113921Y-128627600D02*
X87439479Y-128627600D01*
X87113921Y-127607600D02*
X87439479Y-127607600D01*
G04 #@! TO.C,R32*
X93667121Y-133707600D02*
X93992679Y-133707600D01*
X93667121Y-132687600D02*
X93992679Y-132687600D01*
G04 #@! TO.C,R33*
X116349321Y-111279400D02*
X116674879Y-111279400D01*
X116349321Y-110259400D02*
X116674879Y-110259400D01*
G04 #@! TO.C,R34*
X80433721Y-118391400D02*
X80759279Y-118391400D01*
X80433721Y-117371400D02*
X80759279Y-117371400D01*
G04 #@! TO.C,R35*
X87113921Y-123471400D02*
X87439479Y-123471400D01*
X87113921Y-122451400D02*
X87439479Y-122451400D01*
G04 #@! TO.C,R36*
X93743321Y-127556800D02*
X94068879Y-127556800D01*
X93743321Y-128576800D02*
X94068879Y-128576800D01*
G04 #@! TO.C,R37*
X100321921Y-132662200D02*
X100647479Y-132662200D01*
X100321921Y-133682200D02*
X100647479Y-133682200D01*
G04 #@! TO.C,R38*
X124525821Y-110107000D02*
X124851379Y-110107000D01*
X124525821Y-111127000D02*
X124851379Y-111127000D01*
G04 #@! TO.C,R39*
X87113921Y-118416800D02*
X87439479Y-118416800D01*
X87113921Y-117396800D02*
X87439479Y-117396800D01*
G04 #@! TO.C,R40*
X93768721Y-123522200D02*
X94094279Y-123522200D01*
X93768721Y-122502200D02*
X94094279Y-122502200D01*
G04 #@! TO.C,R41*
X100448921Y-128627600D02*
X100774479Y-128627600D01*
X100448921Y-127607600D02*
X100774479Y-127607600D01*
G04 #@! TO.C,R42*
X107078321Y-133707600D02*
X107403879Y-133707600D01*
X107078321Y-132687600D02*
X107403879Y-132687600D01*
G04 #@! TO.C,R43*
X132884721Y-111228600D02*
X133210279Y-111228600D01*
X132884721Y-110208600D02*
X133210279Y-110208600D01*
G04 #@! TO.C,R44*
X93743321Y-117396800D02*
X94068879Y-117396800D01*
X93743321Y-118416800D02*
X94068879Y-118416800D01*
G04 #@! TO.C,R45*
X100423521Y-123522200D02*
X100749079Y-123522200D01*
X100423521Y-122502200D02*
X100749079Y-122502200D01*
G04 #@! TO.C,R46*
X107129121Y-128576800D02*
X107454679Y-128576800D01*
X107129121Y-127556800D02*
X107454679Y-127556800D01*
G04 #@! TO.C,R47*
X113860121Y-132713000D02*
X114185679Y-132713000D01*
X113860121Y-133733000D02*
X114185679Y-133733000D01*
G04 #@! TO.C,R48*
X100398121Y-118442200D02*
X100723679Y-118442200D01*
X100398121Y-117422200D02*
X100723679Y-117422200D01*
G04 #@! TO.C,R49*
X107078321Y-122476800D02*
X107403879Y-122476800D01*
X107078321Y-123496800D02*
X107403879Y-123496800D01*
G04 #@! TO.C,R50*
X113758521Y-127607600D02*
X114084079Y-127607600D01*
X113758521Y-128627600D02*
X114084079Y-128627600D01*
G04 #@! TO.C,R51*
X120362521Y-133707600D02*
X120688079Y-133707600D01*
X120362521Y-132687600D02*
X120688079Y-132687600D01*
G04 #@! TO.C,R52*
X107078321Y-117371400D02*
X107403879Y-117371400D01*
X107078321Y-118391400D02*
X107403879Y-118391400D01*
G04 #@! TO.C,R53*
X113758521Y-123471400D02*
X114084079Y-123471400D01*
X113758521Y-122451400D02*
X114084079Y-122451400D01*
G04 #@! TO.C,R54*
X120413321Y-128576800D02*
X120738879Y-128576800D01*
X120413321Y-127556800D02*
X120738879Y-127556800D01*
G04 #@! TO.C,R55*
X127042721Y-132687600D02*
X127368279Y-132687600D01*
X127042721Y-133707600D02*
X127368279Y-133707600D01*
G04 #@! TO.C,R56*
X113758521Y-118391400D02*
X114084079Y-118391400D01*
X113758521Y-117371400D02*
X114084079Y-117371400D01*
G04 #@! TO.C,R57*
X120438721Y-122502200D02*
X120764279Y-122502200D01*
X120438721Y-123522200D02*
X120764279Y-123522200D01*
G04 #@! TO.C,R58*
X127144321Y-127556800D02*
X127469879Y-127556800D01*
X127144321Y-128576800D02*
X127469879Y-128576800D01*
G04 #@! TO.C,R59*
X133822221Y-133682200D02*
X134147779Y-133682200D01*
X133822221Y-132662200D02*
X134147779Y-132662200D01*
G04 #@! TO.C,R60*
X120438721Y-117396800D02*
X120764279Y-117396800D01*
X120438721Y-118416800D02*
X120764279Y-118416800D01*
G04 #@! TO.C,R61*
X127091221Y-123496800D02*
X127416779Y-123496800D01*
X127091221Y-122476800D02*
X127416779Y-122476800D01*
G04 #@! TO.C,R62*
X133773721Y-128602200D02*
X134099279Y-128602200D01*
X133773721Y-127582200D02*
X134099279Y-127582200D01*
G04 #@! TO.C,R63*
X41216121Y-110437200D02*
X41541679Y-110437200D01*
X41216121Y-111457200D02*
X41541679Y-111457200D01*
G04 #@! TO.C,R64*
X127118921Y-118340600D02*
X127444479Y-118340600D01*
X127118921Y-117320600D02*
X127444479Y-117320600D01*
G04 #@! TO.C,R65*
X133748321Y-122476800D02*
X134073879Y-122476800D01*
X133748321Y-123496800D02*
X134073879Y-123496800D01*
G04 #@! TO.C,R66*
X40454121Y-133707600D02*
X40779679Y-133707600D01*
X40454121Y-132687600D02*
X40779679Y-132687600D01*
G04 #@! TO.C,R67*
X49420321Y-111457200D02*
X49745879Y-111457200D01*
X49420321Y-110437200D02*
X49745879Y-110437200D01*
G04 #@! TO.C,R68*
X133720621Y-117346000D02*
X134046179Y-117346000D01*
X133720621Y-118366000D02*
X134046179Y-118366000D01*
G04 #@! TO.C,R69*
X40428721Y-128602200D02*
X40754279Y-128602200D01*
X40428721Y-127582200D02*
X40754279Y-127582200D01*
G04 #@! TO.C,R70*
X47108921Y-133733000D02*
X47434479Y-133733000D01*
X47108921Y-132713000D02*
X47434479Y-132713000D01*
G04 #@! TO.C,R71*
X57802321Y-111457200D02*
X58127879Y-111457200D01*
X57802321Y-110437200D02*
X58127879Y-110437200D01*
G04 #@! TO.C,R72*
X40401021Y-123496800D02*
X40726579Y-123496800D01*
X40401021Y-122476800D02*
X40726579Y-122476800D01*
G04 #@! TO.C,R73*
X47108921Y-127607600D02*
X47434479Y-127607600D01*
X47108921Y-128627600D02*
X47434479Y-128627600D01*
G04 #@! TO.C,R74*
X53662121Y-133682200D02*
X53987679Y-133682200D01*
X53662121Y-132662200D02*
X53987679Y-132662200D01*
G04 #@! TO.C,R75*
X66133521Y-110437200D02*
X66459079Y-110437200D01*
X66133521Y-111457200D02*
X66459079Y-111457200D01*
G04 #@! TO.C,J1*
X136686600Y-84877600D02*
X136686600Y-87537600D01*
X123926600Y-84877600D02*
X136686600Y-84877600D01*
X123926600Y-87537600D02*
X136686600Y-87537600D01*
X123926600Y-84877600D02*
X123926600Y-87537600D01*
X122656600Y-84877600D02*
X121326600Y-84877600D01*
X121326600Y-84877600D02*
X121326600Y-86207600D01*
D10*
G04 #@! TO.C,U2*
X82409800Y-97189800D02*
X82409800Y-101589800D01*
X76884800Y-95614800D02*
X76884800Y-101589800D01*
G04 #@! TO.C,U9*
X61973800Y-101692200D02*
X61973800Y-97292200D01*
X67498800Y-103267200D02*
X67498800Y-97292200D01*
G04 #@! TO.C,U10*
X110136600Y-97342200D02*
X110136600Y-101742200D01*
X104611600Y-95767200D02*
X104611600Y-101742200D01*
G04 #@! TO.C,U3*
X89277780Y-98704095D02*
X90087304Y-98704095D01*
X90182542Y-98751714D01*
X90230161Y-98799333D01*
X90277780Y-98894571D01*
X90277780Y-99085047D01*
X90230161Y-99180285D01*
X90182542Y-99227904D01*
X90087304Y-99275523D01*
X89277780Y-99275523D01*
X89277780Y-99656476D02*
X89277780Y-100275523D01*
X89658733Y-99942190D01*
X89658733Y-100085047D01*
X89706352Y-100180285D01*
X89753971Y-100227904D01*
X89849209Y-100275523D01*
X90087304Y-100275523D01*
X90182542Y-100227904D01*
X90230161Y-100180285D01*
X90277780Y-100085047D01*
X90277780Y-99799333D01*
X90230161Y-99704095D01*
X90182542Y-99656476D01*
G04 #@! TO.C,C1*
X61202866Y-83668142D02*
X61250485Y-83715761D01*
X61393342Y-83763380D01*
X61488580Y-83763380D01*
X61631438Y-83715761D01*
X61726676Y-83620523D01*
X61774295Y-83525285D01*
X61821914Y-83334809D01*
X61821914Y-83191952D01*
X61774295Y-83001476D01*
X61726676Y-82906238D01*
X61631438Y-82811000D01*
X61488580Y-82763380D01*
X61393342Y-82763380D01*
X61250485Y-82811000D01*
X61202866Y-82858619D01*
X60250485Y-83763380D02*
X60821914Y-83763380D01*
X60536200Y-83763380D02*
X60536200Y-82763380D01*
X60631438Y-82906238D01*
X60726676Y-83001476D01*
X60821914Y-83049095D01*
G04 #@! TO.C,C2*
X73941942Y-77534233D02*
X73989561Y-77486614D01*
X74037180Y-77343757D01*
X74037180Y-77248519D01*
X73989561Y-77105661D01*
X73894323Y-77010423D01*
X73799085Y-76962804D01*
X73608609Y-76915185D01*
X73465752Y-76915185D01*
X73275276Y-76962804D01*
X73180038Y-77010423D01*
X73084800Y-77105661D01*
X73037180Y-77248519D01*
X73037180Y-77343757D01*
X73084800Y-77486614D01*
X73132419Y-77534233D01*
X73132419Y-77915185D02*
X73084800Y-77962804D01*
X73037180Y-78058042D01*
X73037180Y-78296138D01*
X73084800Y-78391376D01*
X73132419Y-78438995D01*
X73227657Y-78486614D01*
X73322895Y-78486614D01*
X73465752Y-78438995D01*
X74037180Y-77867566D01*
X74037180Y-78486614D01*
G04 #@! TO.C,C3*
X77267342Y-81974633D02*
X77314961Y-81927014D01*
X77362580Y-81784157D01*
X77362580Y-81688919D01*
X77314961Y-81546061D01*
X77219723Y-81450823D01*
X77124485Y-81403204D01*
X76934009Y-81355585D01*
X76791152Y-81355585D01*
X76600676Y-81403204D01*
X76505438Y-81450823D01*
X76410200Y-81546061D01*
X76362580Y-81688919D01*
X76362580Y-81784157D01*
X76410200Y-81927014D01*
X76457819Y-81974633D01*
X76362580Y-82307966D02*
X76362580Y-82927014D01*
X76743533Y-82593680D01*
X76743533Y-82736538D01*
X76791152Y-82831776D01*
X76838771Y-82879395D01*
X76934009Y-82927014D01*
X77172104Y-82927014D01*
X77267342Y-82879395D01*
X77314961Y-82831776D01*
X77362580Y-82736538D01*
X77362580Y-82450823D01*
X77314961Y-82355585D01*
X77267342Y-82307966D01*
G04 #@! TO.C,D1*
X68832295Y-76501780D02*
X68832295Y-75501780D01*
X68594200Y-75501780D01*
X68451342Y-75549400D01*
X68356104Y-75644638D01*
X68308485Y-75739876D01*
X68260866Y-75930352D01*
X68260866Y-76073209D01*
X68308485Y-76263685D01*
X68356104Y-76358923D01*
X68451342Y-76454161D01*
X68594200Y-76501780D01*
X68832295Y-76501780D01*
X67308485Y-76501780D02*
X67879914Y-76501780D01*
X67594200Y-76501780D02*
X67594200Y-75501780D01*
X67689438Y-75644638D01*
X67784676Y-75739876D01*
X67879914Y-75787495D01*
G04 #@! TO.C,D2*
X61721195Y-80207380D02*
X61721195Y-79207380D01*
X61483100Y-79207380D01*
X61340242Y-79255000D01*
X61245004Y-79350238D01*
X61197385Y-79445476D01*
X61149766Y-79635952D01*
X61149766Y-79778809D01*
X61197385Y-79969285D01*
X61245004Y-80064523D01*
X61340242Y-80159761D01*
X61483100Y-80207380D01*
X61721195Y-80207380D01*
X60768814Y-79302619D02*
X60721195Y-79255000D01*
X60625957Y-79207380D01*
X60387861Y-79207380D01*
X60292623Y-79255000D01*
X60245004Y-79302619D01*
X60197385Y-79397857D01*
X60197385Y-79493095D01*
X60245004Y-79635952D01*
X60816433Y-80207380D01*
X60197385Y-80207380D01*
G04 #@! TO.C,D75*
X56384180Y-79052014D02*
X55384180Y-79052014D01*
X55384180Y-79290109D01*
X55431800Y-79432966D01*
X55527038Y-79528204D01*
X55622276Y-79575823D01*
X55812752Y-79623442D01*
X55955609Y-79623442D01*
X56146085Y-79575823D01*
X56241323Y-79528204D01*
X56336561Y-79432966D01*
X56384180Y-79290109D01*
X56384180Y-79052014D01*
X55384180Y-79956776D02*
X55384180Y-80623442D01*
X56384180Y-80194871D01*
X55384180Y-81480585D02*
X55384180Y-81004395D01*
X55860371Y-80956776D01*
X55812752Y-81004395D01*
X55765133Y-81099633D01*
X55765133Y-81337728D01*
X55812752Y-81432966D01*
X55860371Y-81480585D01*
X55955609Y-81528204D01*
X56193704Y-81528204D01*
X56288942Y-81480585D01*
X56336561Y-81432966D01*
X56384180Y-81337728D01*
X56384180Y-81099633D01*
X56336561Y-81004395D01*
X56288942Y-80956776D01*
G04 #@! TO.C,U7*
X83348180Y-78239295D02*
X84157704Y-78239295D01*
X84252942Y-78286914D01*
X84300561Y-78334533D01*
X84348180Y-78429771D01*
X84348180Y-78620247D01*
X84300561Y-78715485D01*
X84252942Y-78763104D01*
X84157704Y-78810723D01*
X83348180Y-78810723D01*
X83348180Y-79191676D02*
X83348180Y-79858342D01*
X84348180Y-79429771D01*
G04 #@! TO.C,D3*
X41379095Y-113628780D02*
X41379095Y-112628780D01*
X41141000Y-112628780D01*
X40998142Y-112676400D01*
X40902904Y-112771638D01*
X40855285Y-112866876D01*
X40807666Y-113057352D01*
X40807666Y-113200209D01*
X40855285Y-113390685D01*
X40902904Y-113485923D01*
X40998142Y-113581161D01*
X41141000Y-113628780D01*
X41379095Y-113628780D01*
X40474333Y-112628780D02*
X39855285Y-112628780D01*
X40188619Y-113009733D01*
X40045761Y-113009733D01*
X39950523Y-113057352D01*
X39902904Y-113104971D01*
X39855285Y-113200209D01*
X39855285Y-113438304D01*
X39902904Y-113533542D01*
X39950523Y-113581161D01*
X40045761Y-113628780D01*
X40331476Y-113628780D01*
X40426714Y-113581161D01*
X40474333Y-113533542D01*
G04 #@! TO.C,D4*
X48031895Y-118632580D02*
X48031895Y-117632580D01*
X47793800Y-117632580D01*
X47650942Y-117680200D01*
X47555704Y-117775438D01*
X47508085Y-117870676D01*
X47460466Y-118061152D01*
X47460466Y-118204009D01*
X47508085Y-118394485D01*
X47555704Y-118489723D01*
X47650942Y-118584961D01*
X47793800Y-118632580D01*
X48031895Y-118632580D01*
X46603323Y-117965914D02*
X46603323Y-118632580D01*
X46841419Y-117584961D02*
X47079514Y-118299247D01*
X46460466Y-118299247D01*
G04 #@! TO.C,D5*
X54508895Y-123839580D02*
X54508895Y-122839580D01*
X54270800Y-122839580D01*
X54127942Y-122887200D01*
X54032704Y-122982438D01*
X53985085Y-123077676D01*
X53937466Y-123268152D01*
X53937466Y-123411009D01*
X53985085Y-123601485D01*
X54032704Y-123696723D01*
X54127942Y-123791961D01*
X54270800Y-123839580D01*
X54508895Y-123839580D01*
X53032704Y-122839580D02*
X53508895Y-122839580D01*
X53556514Y-123315771D01*
X53508895Y-123268152D01*
X53413657Y-123220533D01*
X53175561Y-123220533D01*
X53080323Y-123268152D01*
X53032704Y-123315771D01*
X52985085Y-123411009D01*
X52985085Y-123649104D01*
X53032704Y-123744342D01*
X53080323Y-123791961D01*
X53175561Y-123839580D01*
X53413657Y-123839580D01*
X53508895Y-123791961D01*
X53556514Y-123744342D01*
G04 #@! TO.C,D6*
X61317095Y-128868780D02*
X61317095Y-127868780D01*
X61079000Y-127868780D01*
X60936142Y-127916400D01*
X60840904Y-128011638D01*
X60793285Y-128106876D01*
X60745666Y-128297352D01*
X60745666Y-128440209D01*
X60793285Y-128630685D01*
X60840904Y-128725923D01*
X60936142Y-128821161D01*
X61079000Y-128868780D01*
X61317095Y-128868780D01*
X59888523Y-127868780D02*
X60079000Y-127868780D01*
X60174238Y-127916400D01*
X60221857Y-127964019D01*
X60317095Y-128106876D01*
X60364714Y-128297352D01*
X60364714Y-128678304D01*
X60317095Y-128773542D01*
X60269476Y-128821161D01*
X60174238Y-128868780D01*
X59983761Y-128868780D01*
X59888523Y-128821161D01*
X59840904Y-128773542D01*
X59793285Y-128678304D01*
X59793285Y-128440209D01*
X59840904Y-128344971D01*
X59888523Y-128297352D01*
X59983761Y-128249733D01*
X60174238Y-128249733D01*
X60269476Y-128297352D01*
X60317095Y-128344971D01*
X60364714Y-128440209D01*
G04 #@! TO.C,D7*
X75567495Y-106389780D02*
X75567495Y-105389780D01*
X75329400Y-105389780D01*
X75186542Y-105437400D01*
X75091304Y-105532638D01*
X75043685Y-105627876D01*
X74996066Y-105818352D01*
X74996066Y-105961209D01*
X75043685Y-106151685D01*
X75091304Y-106246923D01*
X75186542Y-106342161D01*
X75329400Y-106389780D01*
X75567495Y-106389780D01*
X74662733Y-105389780D02*
X73996066Y-105389780D01*
X74424638Y-106389780D01*
G04 #@! TO.C,D8*
X48008495Y-113552580D02*
X48008495Y-112552580D01*
X47770400Y-112552580D01*
X47627542Y-112600200D01*
X47532304Y-112695438D01*
X47484685Y-112790676D01*
X47437066Y-112981152D01*
X47437066Y-113124009D01*
X47484685Y-113314485D01*
X47532304Y-113409723D01*
X47627542Y-113504961D01*
X47770400Y-113552580D01*
X48008495Y-113552580D01*
X46865638Y-112981152D02*
X46960876Y-112933533D01*
X47008495Y-112885914D01*
X47056114Y-112790676D01*
X47056114Y-112743057D01*
X47008495Y-112647819D01*
X46960876Y-112600200D01*
X46865638Y-112552580D01*
X46675161Y-112552580D01*
X46579923Y-112600200D01*
X46532304Y-112647819D01*
X46484685Y-112743057D01*
X46484685Y-112790676D01*
X46532304Y-112885914D01*
X46579923Y-112933533D01*
X46675161Y-112981152D01*
X46865638Y-112981152D01*
X46960876Y-113028771D01*
X47008495Y-113076390D01*
X47056114Y-113171628D01*
X47056114Y-113362104D01*
X47008495Y-113457342D01*
X46960876Y-113504961D01*
X46865638Y-113552580D01*
X46675161Y-113552580D01*
X46579923Y-113504961D01*
X46532304Y-113457342D01*
X46484685Y-113362104D01*
X46484685Y-113171628D01*
X46532304Y-113076390D01*
X46579923Y-113028771D01*
X46675161Y-112981152D01*
G04 #@! TO.C,D9*
X54661295Y-118683380D02*
X54661295Y-117683380D01*
X54423200Y-117683380D01*
X54280342Y-117731000D01*
X54185104Y-117826238D01*
X54137485Y-117921476D01*
X54089866Y-118111952D01*
X54089866Y-118254809D01*
X54137485Y-118445285D01*
X54185104Y-118540523D01*
X54280342Y-118635761D01*
X54423200Y-118683380D01*
X54661295Y-118683380D01*
X53613676Y-118683380D02*
X53423200Y-118683380D01*
X53327961Y-118635761D01*
X53280342Y-118588142D01*
X53185104Y-118445285D01*
X53137485Y-118254809D01*
X53137485Y-117873857D01*
X53185104Y-117778619D01*
X53232723Y-117731000D01*
X53327961Y-117683380D01*
X53518438Y-117683380D01*
X53613676Y-117731000D01*
X53661295Y-117778619D01*
X53708914Y-117873857D01*
X53708914Y-118111952D01*
X53661295Y-118207190D01*
X53613676Y-118254809D01*
X53518438Y-118302428D01*
X53327961Y-118302428D01*
X53232723Y-118254809D01*
X53185104Y-118207190D01*
X53137485Y-118111952D01*
G04 #@! TO.C,D10*
X61817685Y-123941180D02*
X61817685Y-122941180D01*
X61579590Y-122941180D01*
X61436733Y-122988800D01*
X61341495Y-123084038D01*
X61293876Y-123179276D01*
X61246257Y-123369752D01*
X61246257Y-123512609D01*
X61293876Y-123703085D01*
X61341495Y-123798323D01*
X61436733Y-123893561D01*
X61579590Y-123941180D01*
X61817685Y-123941180D01*
X60293876Y-123941180D02*
X60865304Y-123941180D01*
X60579590Y-123941180D02*
X60579590Y-122941180D01*
X60674828Y-123084038D01*
X60770066Y-123179276D01*
X60865304Y-123226895D01*
X59674828Y-122941180D02*
X59579590Y-122941180D01*
X59484352Y-122988800D01*
X59436733Y-123036419D01*
X59389114Y-123131657D01*
X59341495Y-123322133D01*
X59341495Y-123560228D01*
X59389114Y-123750704D01*
X59436733Y-123845942D01*
X59484352Y-123893561D01*
X59579590Y-123941180D01*
X59674828Y-123941180D01*
X59770066Y-123893561D01*
X59817685Y-123845942D01*
X59865304Y-123750704D01*
X59912923Y-123560228D01*
X59912923Y-123322133D01*
X59865304Y-123131657D01*
X59817685Y-123036419D01*
X59770066Y-122988800D01*
X59674828Y-122941180D01*
G04 #@! TO.C,D11*
X68448085Y-128944980D02*
X68448085Y-127944980D01*
X68209990Y-127944980D01*
X68067133Y-127992600D01*
X67971895Y-128087838D01*
X67924276Y-128183076D01*
X67876657Y-128373552D01*
X67876657Y-128516409D01*
X67924276Y-128706885D01*
X67971895Y-128802123D01*
X68067133Y-128897361D01*
X68209990Y-128944980D01*
X68448085Y-128944980D01*
X66924276Y-128944980D02*
X67495704Y-128944980D01*
X67209990Y-128944980D02*
X67209990Y-127944980D01*
X67305228Y-128087838D01*
X67400466Y-128183076D01*
X67495704Y-128230695D01*
X65971895Y-128944980D02*
X66543323Y-128944980D01*
X66257609Y-128944980D02*
X66257609Y-127944980D01*
X66352847Y-128087838D01*
X66448085Y-128183076D01*
X66543323Y-128230695D01*
G04 #@! TO.C,D12*
X84272285Y-106440580D02*
X84272285Y-105440580D01*
X84034190Y-105440580D01*
X83891333Y-105488200D01*
X83796095Y-105583438D01*
X83748476Y-105678676D01*
X83700857Y-105869152D01*
X83700857Y-106012009D01*
X83748476Y-106202485D01*
X83796095Y-106297723D01*
X83891333Y-106392961D01*
X84034190Y-106440580D01*
X84272285Y-106440580D01*
X82748476Y-106440580D02*
X83319904Y-106440580D01*
X83034190Y-106440580D02*
X83034190Y-105440580D01*
X83129428Y-105583438D01*
X83224666Y-105678676D01*
X83319904Y-105726295D01*
X82367523Y-105535819D02*
X82319904Y-105488200D01*
X82224666Y-105440580D01*
X81986571Y-105440580D01*
X81891333Y-105488200D01*
X81843714Y-105535819D01*
X81796095Y-105631057D01*
X81796095Y-105726295D01*
X81843714Y-105869152D01*
X82415142Y-106440580D01*
X81796095Y-106440580D01*
G04 #@! TO.C,D13*
X55162885Y-113679580D02*
X55162885Y-112679580D01*
X54924790Y-112679580D01*
X54781933Y-112727200D01*
X54686695Y-112822438D01*
X54639076Y-112917676D01*
X54591457Y-113108152D01*
X54591457Y-113251009D01*
X54639076Y-113441485D01*
X54686695Y-113536723D01*
X54781933Y-113631961D01*
X54924790Y-113679580D01*
X55162885Y-113679580D01*
X53639076Y-113679580D02*
X54210504Y-113679580D01*
X53924790Y-113679580D02*
X53924790Y-112679580D01*
X54020028Y-112822438D01*
X54115266Y-112917676D01*
X54210504Y-112965295D01*
X53305742Y-112679580D02*
X52686695Y-112679580D01*
X53020028Y-113060533D01*
X52877171Y-113060533D01*
X52781933Y-113108152D01*
X52734314Y-113155771D01*
X52686695Y-113251009D01*
X52686695Y-113489104D01*
X52734314Y-113584342D01*
X52781933Y-113631961D01*
X52877171Y-113679580D01*
X53162885Y-113679580D01*
X53258123Y-113631961D01*
X53305742Y-113584342D01*
G04 #@! TO.C,D14*
X61817685Y-118784980D02*
X61817685Y-117784980D01*
X61579590Y-117784980D01*
X61436733Y-117832600D01*
X61341495Y-117927838D01*
X61293876Y-118023076D01*
X61246257Y-118213552D01*
X61246257Y-118356409D01*
X61293876Y-118546885D01*
X61341495Y-118642123D01*
X61436733Y-118737361D01*
X61579590Y-118784980D01*
X61817685Y-118784980D01*
X60293876Y-118784980D02*
X60865304Y-118784980D01*
X60579590Y-118784980D02*
X60579590Y-117784980D01*
X60674828Y-117927838D01*
X60770066Y-118023076D01*
X60865304Y-118070695D01*
X59436733Y-118118314D02*
X59436733Y-118784980D01*
X59674828Y-117737361D02*
X59912923Y-118451647D01*
X59293876Y-118451647D01*
G04 #@! TO.C,D15*
X68498885Y-123763380D02*
X68498885Y-122763380D01*
X68260790Y-122763380D01*
X68117933Y-122811000D01*
X68022695Y-122906238D01*
X67975076Y-123001476D01*
X67927457Y-123191952D01*
X67927457Y-123334809D01*
X67975076Y-123525285D01*
X68022695Y-123620523D01*
X68117933Y-123715761D01*
X68260790Y-123763380D01*
X68498885Y-123763380D01*
X66975076Y-123763380D02*
X67546504Y-123763380D01*
X67260790Y-123763380D02*
X67260790Y-122763380D01*
X67356028Y-122906238D01*
X67451266Y-123001476D01*
X67546504Y-123049095D01*
X66070314Y-122763380D02*
X66546504Y-122763380D01*
X66594123Y-123239571D01*
X66546504Y-123191952D01*
X66451266Y-123144333D01*
X66213171Y-123144333D01*
X66117933Y-123191952D01*
X66070314Y-123239571D01*
X66022695Y-123334809D01*
X66022695Y-123572904D01*
X66070314Y-123668142D01*
X66117933Y-123715761D01*
X66213171Y-123763380D01*
X66451266Y-123763380D01*
X66546504Y-123715761D01*
X66594123Y-123668142D01*
G04 #@! TO.C,D16*
X75178085Y-128843380D02*
X75178085Y-127843380D01*
X74939990Y-127843380D01*
X74797133Y-127891000D01*
X74701895Y-127986238D01*
X74654276Y-128081476D01*
X74606657Y-128271952D01*
X74606657Y-128414809D01*
X74654276Y-128605285D01*
X74701895Y-128700523D01*
X74797133Y-128795761D01*
X74939990Y-128843380D01*
X75178085Y-128843380D01*
X73654276Y-128843380D02*
X74225704Y-128843380D01*
X73939990Y-128843380D02*
X73939990Y-127843380D01*
X74035228Y-127986238D01*
X74130466Y-128081476D01*
X74225704Y-128129095D01*
X72797133Y-127843380D02*
X72987609Y-127843380D01*
X73082847Y-127891000D01*
X73130466Y-127938619D01*
X73225704Y-128081476D01*
X73273323Y-128271952D01*
X73273323Y-128652904D01*
X73225704Y-128748142D01*
X73178085Y-128795761D01*
X73082847Y-128843380D01*
X72892371Y-128843380D01*
X72797133Y-128795761D01*
X72749514Y-128748142D01*
X72701895Y-128652904D01*
X72701895Y-128414809D01*
X72749514Y-128319571D01*
X72797133Y-128271952D01*
X72892371Y-128224333D01*
X73082847Y-128224333D01*
X73178085Y-128271952D01*
X73225704Y-128319571D01*
X73273323Y-128414809D01*
G04 #@! TO.C,D17*
X92655285Y-106364380D02*
X92655285Y-105364380D01*
X92417190Y-105364380D01*
X92274333Y-105412000D01*
X92179095Y-105507238D01*
X92131476Y-105602476D01*
X92083857Y-105792952D01*
X92083857Y-105935809D01*
X92131476Y-106126285D01*
X92179095Y-106221523D01*
X92274333Y-106316761D01*
X92417190Y-106364380D01*
X92655285Y-106364380D01*
X91131476Y-106364380D02*
X91702904Y-106364380D01*
X91417190Y-106364380D02*
X91417190Y-105364380D01*
X91512428Y-105507238D01*
X91607666Y-105602476D01*
X91702904Y-105650095D01*
X90798142Y-105364380D02*
X90131476Y-105364380D01*
X90560047Y-106364380D01*
G04 #@! TO.C,D18*
X61819685Y-113654180D02*
X61819685Y-112654180D01*
X61581590Y-112654180D01*
X61438733Y-112701800D01*
X61343495Y-112797038D01*
X61295876Y-112892276D01*
X61248257Y-113082752D01*
X61248257Y-113225609D01*
X61295876Y-113416085D01*
X61343495Y-113511323D01*
X61438733Y-113606561D01*
X61581590Y-113654180D01*
X61819685Y-113654180D01*
X60295876Y-113654180D02*
X60867304Y-113654180D01*
X60581590Y-113654180D02*
X60581590Y-112654180D01*
X60676828Y-112797038D01*
X60772066Y-112892276D01*
X60867304Y-112939895D01*
X59724447Y-113082752D02*
X59819685Y-113035133D01*
X59867304Y-112987514D01*
X59914923Y-112892276D01*
X59914923Y-112844657D01*
X59867304Y-112749419D01*
X59819685Y-112701800D01*
X59724447Y-112654180D01*
X59533971Y-112654180D01*
X59438733Y-112701800D01*
X59391114Y-112749419D01*
X59343495Y-112844657D01*
X59343495Y-112892276D01*
X59391114Y-112987514D01*
X59438733Y-113035133D01*
X59533971Y-113082752D01*
X59724447Y-113082752D01*
X59819685Y-113130371D01*
X59867304Y-113177990D01*
X59914923Y-113273228D01*
X59914923Y-113463704D01*
X59867304Y-113558942D01*
X59819685Y-113606561D01*
X59724447Y-113654180D01*
X59533971Y-113654180D01*
X59438733Y-113606561D01*
X59391114Y-113558942D01*
X59343495Y-113463704D01*
X59343495Y-113273228D01*
X59391114Y-113177990D01*
X59438733Y-113130371D01*
X59533971Y-113082752D01*
G04 #@! TO.C,D19*
X68472485Y-118759580D02*
X68472485Y-117759580D01*
X68234390Y-117759580D01*
X68091533Y-117807200D01*
X67996295Y-117902438D01*
X67948676Y-117997676D01*
X67901057Y-118188152D01*
X67901057Y-118331009D01*
X67948676Y-118521485D01*
X67996295Y-118616723D01*
X68091533Y-118711961D01*
X68234390Y-118759580D01*
X68472485Y-118759580D01*
X66948676Y-118759580D02*
X67520104Y-118759580D01*
X67234390Y-118759580D02*
X67234390Y-117759580D01*
X67329628Y-117902438D01*
X67424866Y-117997676D01*
X67520104Y-118045295D01*
X66472485Y-118759580D02*
X66282009Y-118759580D01*
X66186771Y-118711961D01*
X66139152Y-118664342D01*
X66043914Y-118521485D01*
X65996295Y-118331009D01*
X65996295Y-117950057D01*
X66043914Y-117854819D01*
X66091533Y-117807200D01*
X66186771Y-117759580D01*
X66377247Y-117759580D01*
X66472485Y-117807200D01*
X66520104Y-117854819D01*
X66567723Y-117950057D01*
X66567723Y-118188152D01*
X66520104Y-118283390D01*
X66472485Y-118331009D01*
X66377247Y-118378628D01*
X66186771Y-118378628D01*
X66091533Y-118331009D01*
X66043914Y-118283390D01*
X65996295Y-118188152D01*
G04 #@! TO.C,D20*
X75179085Y-123763380D02*
X75179085Y-122763380D01*
X74940990Y-122763380D01*
X74798133Y-122811000D01*
X74702895Y-122906238D01*
X74655276Y-123001476D01*
X74607657Y-123191952D01*
X74607657Y-123334809D01*
X74655276Y-123525285D01*
X74702895Y-123620523D01*
X74798133Y-123715761D01*
X74940990Y-123763380D01*
X75179085Y-123763380D01*
X74226704Y-122858619D02*
X74179085Y-122811000D01*
X74083847Y-122763380D01*
X73845752Y-122763380D01*
X73750514Y-122811000D01*
X73702895Y-122858619D01*
X73655276Y-122953857D01*
X73655276Y-123049095D01*
X73702895Y-123191952D01*
X74274323Y-123763380D01*
X73655276Y-123763380D01*
X73036228Y-122763380D02*
X72940990Y-122763380D01*
X72845752Y-122811000D01*
X72798133Y-122858619D01*
X72750514Y-122953857D01*
X72702895Y-123144333D01*
X72702895Y-123382428D01*
X72750514Y-123572904D01*
X72798133Y-123668142D01*
X72845752Y-123715761D01*
X72940990Y-123763380D01*
X73036228Y-123763380D01*
X73131466Y-123715761D01*
X73179085Y-123668142D01*
X73226704Y-123572904D01*
X73274323Y-123382428D01*
X73274323Y-123144333D01*
X73226704Y-122953857D01*
X73179085Y-122858619D01*
X73131466Y-122811000D01*
X73036228Y-122763380D01*
G04 #@! TO.C,D21*
X81833885Y-128919580D02*
X81833885Y-127919580D01*
X81595790Y-127919580D01*
X81452933Y-127967200D01*
X81357695Y-128062438D01*
X81310076Y-128157676D01*
X81262457Y-128348152D01*
X81262457Y-128491009D01*
X81310076Y-128681485D01*
X81357695Y-128776723D01*
X81452933Y-128871961D01*
X81595790Y-128919580D01*
X81833885Y-128919580D01*
X80881504Y-128014819D02*
X80833885Y-127967200D01*
X80738647Y-127919580D01*
X80500552Y-127919580D01*
X80405314Y-127967200D01*
X80357695Y-128014819D01*
X80310076Y-128110057D01*
X80310076Y-128205295D01*
X80357695Y-128348152D01*
X80929123Y-128919580D01*
X80310076Y-128919580D01*
X79357695Y-128919580D02*
X79929123Y-128919580D01*
X79643409Y-128919580D02*
X79643409Y-127919580D01*
X79738647Y-128062438D01*
X79833885Y-128157676D01*
X79929123Y-128205295D01*
G04 #@! TO.C,D22*
X100934885Y-106389780D02*
X100934885Y-105389780D01*
X100696790Y-105389780D01*
X100553933Y-105437400D01*
X100458695Y-105532638D01*
X100411076Y-105627876D01*
X100363457Y-105818352D01*
X100363457Y-105961209D01*
X100411076Y-106151685D01*
X100458695Y-106246923D01*
X100553933Y-106342161D01*
X100696790Y-106389780D01*
X100934885Y-106389780D01*
X99982504Y-105485019D02*
X99934885Y-105437400D01*
X99839647Y-105389780D01*
X99601552Y-105389780D01*
X99506314Y-105437400D01*
X99458695Y-105485019D01*
X99411076Y-105580257D01*
X99411076Y-105675495D01*
X99458695Y-105818352D01*
X100030123Y-106389780D01*
X99411076Y-106389780D01*
X99030123Y-105485019D02*
X98982504Y-105437400D01*
X98887266Y-105389780D01*
X98649171Y-105389780D01*
X98553933Y-105437400D01*
X98506314Y-105485019D01*
X98458695Y-105580257D01*
X98458695Y-105675495D01*
X98506314Y-105818352D01*
X99077742Y-106389780D01*
X98458695Y-106389780D01*
G04 #@! TO.C,D23*
X68472485Y-113603380D02*
X68472485Y-112603380D01*
X68234390Y-112603380D01*
X68091533Y-112651000D01*
X67996295Y-112746238D01*
X67948676Y-112841476D01*
X67901057Y-113031952D01*
X67901057Y-113174809D01*
X67948676Y-113365285D01*
X67996295Y-113460523D01*
X68091533Y-113555761D01*
X68234390Y-113603380D01*
X68472485Y-113603380D01*
X67520104Y-112698619D02*
X67472485Y-112651000D01*
X67377247Y-112603380D01*
X67139152Y-112603380D01*
X67043914Y-112651000D01*
X66996295Y-112698619D01*
X66948676Y-112793857D01*
X66948676Y-112889095D01*
X66996295Y-113031952D01*
X67567723Y-113603380D01*
X66948676Y-113603380D01*
X66615342Y-112603380D02*
X65996295Y-112603380D01*
X66329628Y-112984333D01*
X66186771Y-112984333D01*
X66091533Y-113031952D01*
X66043914Y-113079571D01*
X65996295Y-113174809D01*
X65996295Y-113412904D01*
X66043914Y-113508142D01*
X66091533Y-113555761D01*
X66186771Y-113603380D01*
X66472485Y-113603380D01*
X66567723Y-113555761D01*
X66615342Y-113508142D01*
G04 #@! TO.C,D24*
X75203485Y-118683380D02*
X75203485Y-117683380D01*
X74965390Y-117683380D01*
X74822533Y-117731000D01*
X74727295Y-117826238D01*
X74679676Y-117921476D01*
X74632057Y-118111952D01*
X74632057Y-118254809D01*
X74679676Y-118445285D01*
X74727295Y-118540523D01*
X74822533Y-118635761D01*
X74965390Y-118683380D01*
X75203485Y-118683380D01*
X74251104Y-117778619D02*
X74203485Y-117731000D01*
X74108247Y-117683380D01*
X73870152Y-117683380D01*
X73774914Y-117731000D01*
X73727295Y-117778619D01*
X73679676Y-117873857D01*
X73679676Y-117969095D01*
X73727295Y-118111952D01*
X74298723Y-118683380D01*
X73679676Y-118683380D01*
X72822533Y-118016714D02*
X72822533Y-118683380D01*
X73060628Y-117635761D02*
X73298723Y-118350047D01*
X72679676Y-118350047D01*
G04 #@! TO.C,D25*
X81832885Y-123788780D02*
X81832885Y-122788780D01*
X81594790Y-122788780D01*
X81451933Y-122836400D01*
X81356695Y-122931638D01*
X81309076Y-123026876D01*
X81261457Y-123217352D01*
X81261457Y-123360209D01*
X81309076Y-123550685D01*
X81356695Y-123645923D01*
X81451933Y-123741161D01*
X81594790Y-123788780D01*
X81832885Y-123788780D01*
X80880504Y-122884019D02*
X80832885Y-122836400D01*
X80737647Y-122788780D01*
X80499552Y-122788780D01*
X80404314Y-122836400D01*
X80356695Y-122884019D01*
X80309076Y-122979257D01*
X80309076Y-123074495D01*
X80356695Y-123217352D01*
X80928123Y-123788780D01*
X80309076Y-123788780D01*
X79404314Y-122788780D02*
X79880504Y-122788780D01*
X79928123Y-123264971D01*
X79880504Y-123217352D01*
X79785266Y-123169733D01*
X79547171Y-123169733D01*
X79451933Y-123217352D01*
X79404314Y-123264971D01*
X79356695Y-123360209D01*
X79356695Y-123598304D01*
X79404314Y-123693542D01*
X79451933Y-123741161D01*
X79547171Y-123788780D01*
X79785266Y-123788780D01*
X79880504Y-123741161D01*
X79928123Y-123693542D01*
G04 #@! TO.C,D26*
X88487685Y-128868780D02*
X88487685Y-127868780D01*
X88249590Y-127868780D01*
X88106733Y-127916400D01*
X88011495Y-128011638D01*
X87963876Y-128106876D01*
X87916257Y-128297352D01*
X87916257Y-128440209D01*
X87963876Y-128630685D01*
X88011495Y-128725923D01*
X88106733Y-128821161D01*
X88249590Y-128868780D01*
X88487685Y-128868780D01*
X87535304Y-127964019D02*
X87487685Y-127916400D01*
X87392447Y-127868780D01*
X87154352Y-127868780D01*
X87059114Y-127916400D01*
X87011495Y-127964019D01*
X86963876Y-128059257D01*
X86963876Y-128154495D01*
X87011495Y-128297352D01*
X87582923Y-128868780D01*
X86963876Y-128868780D01*
X86106733Y-127868780D02*
X86297209Y-127868780D01*
X86392447Y-127916400D01*
X86440066Y-127964019D01*
X86535304Y-128106876D01*
X86582923Y-128297352D01*
X86582923Y-128678304D01*
X86535304Y-128773542D01*
X86487685Y-128821161D01*
X86392447Y-128868780D01*
X86201971Y-128868780D01*
X86106733Y-128821161D01*
X86059114Y-128773542D01*
X86011495Y-128678304D01*
X86011495Y-128440209D01*
X86059114Y-128344971D01*
X86106733Y-128297352D01*
X86201971Y-128249733D01*
X86392447Y-128249733D01*
X86487685Y-128297352D01*
X86535304Y-128344971D01*
X86582923Y-128440209D01*
G04 #@! TO.C,D27*
X109343085Y-106415180D02*
X109343085Y-105415180D01*
X109104990Y-105415180D01*
X108962133Y-105462800D01*
X108866895Y-105558038D01*
X108819276Y-105653276D01*
X108771657Y-105843752D01*
X108771657Y-105986609D01*
X108819276Y-106177085D01*
X108866895Y-106272323D01*
X108962133Y-106367561D01*
X109104990Y-106415180D01*
X109343085Y-106415180D01*
X108390704Y-105510419D02*
X108343085Y-105462800D01*
X108247847Y-105415180D01*
X108009752Y-105415180D01*
X107914514Y-105462800D01*
X107866895Y-105510419D01*
X107819276Y-105605657D01*
X107819276Y-105700895D01*
X107866895Y-105843752D01*
X108438323Y-106415180D01*
X107819276Y-106415180D01*
X107485942Y-105415180D02*
X106819276Y-105415180D01*
X107247847Y-106415180D01*
G04 #@! TO.C,D28*
X75152685Y-113628780D02*
X75152685Y-112628780D01*
X74914590Y-112628780D01*
X74771733Y-112676400D01*
X74676495Y-112771638D01*
X74628876Y-112866876D01*
X74581257Y-113057352D01*
X74581257Y-113200209D01*
X74628876Y-113390685D01*
X74676495Y-113485923D01*
X74771733Y-113581161D01*
X74914590Y-113628780D01*
X75152685Y-113628780D01*
X74200304Y-112724019D02*
X74152685Y-112676400D01*
X74057447Y-112628780D01*
X73819352Y-112628780D01*
X73724114Y-112676400D01*
X73676495Y-112724019D01*
X73628876Y-112819257D01*
X73628876Y-112914495D01*
X73676495Y-113057352D01*
X74247923Y-113628780D01*
X73628876Y-113628780D01*
X73057447Y-113057352D02*
X73152685Y-113009733D01*
X73200304Y-112962114D01*
X73247923Y-112866876D01*
X73247923Y-112819257D01*
X73200304Y-112724019D01*
X73152685Y-112676400D01*
X73057447Y-112628780D01*
X72866971Y-112628780D01*
X72771733Y-112676400D01*
X72724114Y-112724019D01*
X72676495Y-112819257D01*
X72676495Y-112866876D01*
X72724114Y-112962114D01*
X72771733Y-113009733D01*
X72866971Y-113057352D01*
X73057447Y-113057352D01*
X73152685Y-113104971D01*
X73200304Y-113152590D01*
X73247923Y-113247828D01*
X73247923Y-113438304D01*
X73200304Y-113533542D01*
X73152685Y-113581161D01*
X73057447Y-113628780D01*
X72866971Y-113628780D01*
X72771733Y-113581161D01*
X72724114Y-113533542D01*
X72676495Y-113438304D01*
X72676495Y-113247828D01*
X72724114Y-113152590D01*
X72771733Y-113104971D01*
X72866971Y-113057352D01*
G04 #@! TO.C,D29*
X81909085Y-118657980D02*
X81909085Y-117657980D01*
X81670990Y-117657980D01*
X81528133Y-117705600D01*
X81432895Y-117800838D01*
X81385276Y-117896076D01*
X81337657Y-118086552D01*
X81337657Y-118229409D01*
X81385276Y-118419885D01*
X81432895Y-118515123D01*
X81528133Y-118610361D01*
X81670990Y-118657980D01*
X81909085Y-118657980D01*
X80956704Y-117753219D02*
X80909085Y-117705600D01*
X80813847Y-117657980D01*
X80575752Y-117657980D01*
X80480514Y-117705600D01*
X80432895Y-117753219D01*
X80385276Y-117848457D01*
X80385276Y-117943695D01*
X80432895Y-118086552D01*
X81004323Y-118657980D01*
X80385276Y-118657980D01*
X79909085Y-118657980D02*
X79718609Y-118657980D01*
X79623371Y-118610361D01*
X79575752Y-118562742D01*
X79480514Y-118419885D01*
X79432895Y-118229409D01*
X79432895Y-117848457D01*
X79480514Y-117753219D01*
X79528133Y-117705600D01*
X79623371Y-117657980D01*
X79813847Y-117657980D01*
X79909085Y-117705600D01*
X79956704Y-117753219D01*
X80004323Y-117848457D01*
X80004323Y-118086552D01*
X79956704Y-118181790D01*
X79909085Y-118229409D01*
X79813847Y-118277028D01*
X79623371Y-118277028D01*
X79528133Y-118229409D01*
X79480514Y-118181790D01*
X79432895Y-118086552D01*
G04 #@! TO.C,D30*
X88462285Y-123941180D02*
X88462285Y-122941180D01*
X88224190Y-122941180D01*
X88081333Y-122988800D01*
X87986095Y-123084038D01*
X87938476Y-123179276D01*
X87890857Y-123369752D01*
X87890857Y-123512609D01*
X87938476Y-123703085D01*
X87986095Y-123798323D01*
X88081333Y-123893561D01*
X88224190Y-123941180D01*
X88462285Y-123941180D01*
X87557523Y-122941180D02*
X86938476Y-122941180D01*
X87271809Y-123322133D01*
X87128952Y-123322133D01*
X87033714Y-123369752D01*
X86986095Y-123417371D01*
X86938476Y-123512609D01*
X86938476Y-123750704D01*
X86986095Y-123845942D01*
X87033714Y-123893561D01*
X87128952Y-123941180D01*
X87414666Y-123941180D01*
X87509904Y-123893561D01*
X87557523Y-123845942D01*
X86319428Y-122941180D02*
X86224190Y-122941180D01*
X86128952Y-122988800D01*
X86081333Y-123036419D01*
X86033714Y-123131657D01*
X85986095Y-123322133D01*
X85986095Y-123560228D01*
X86033714Y-123750704D01*
X86081333Y-123845942D01*
X86128952Y-123893561D01*
X86224190Y-123941180D01*
X86319428Y-123941180D01*
X86414666Y-123893561D01*
X86462285Y-123845942D01*
X86509904Y-123750704D01*
X86557523Y-123560228D01*
X86557523Y-123322133D01*
X86509904Y-123131657D01*
X86462285Y-123036419D01*
X86414666Y-122988800D01*
X86319428Y-122941180D01*
G04 #@! TO.C,D31*
X95066285Y-128868780D02*
X95066285Y-127868780D01*
X94828190Y-127868780D01*
X94685333Y-127916400D01*
X94590095Y-128011638D01*
X94542476Y-128106876D01*
X94494857Y-128297352D01*
X94494857Y-128440209D01*
X94542476Y-128630685D01*
X94590095Y-128725923D01*
X94685333Y-128821161D01*
X94828190Y-128868780D01*
X95066285Y-128868780D01*
X94161523Y-127868780D02*
X93542476Y-127868780D01*
X93875809Y-128249733D01*
X93732952Y-128249733D01*
X93637714Y-128297352D01*
X93590095Y-128344971D01*
X93542476Y-128440209D01*
X93542476Y-128678304D01*
X93590095Y-128773542D01*
X93637714Y-128821161D01*
X93732952Y-128868780D01*
X94018666Y-128868780D01*
X94113904Y-128821161D01*
X94161523Y-128773542D01*
X92590095Y-128868780D02*
X93161523Y-128868780D01*
X92875809Y-128868780D02*
X92875809Y-127868780D01*
X92971047Y-128011638D01*
X93066285Y-128106876D01*
X93161523Y-128154495D01*
G04 #@! TO.C,D32*
X117648885Y-106415180D02*
X117648885Y-105415180D01*
X117410790Y-105415180D01*
X117267933Y-105462800D01*
X117172695Y-105558038D01*
X117125076Y-105653276D01*
X117077457Y-105843752D01*
X117077457Y-105986609D01*
X117125076Y-106177085D01*
X117172695Y-106272323D01*
X117267933Y-106367561D01*
X117410790Y-106415180D01*
X117648885Y-106415180D01*
X116744123Y-105415180D02*
X116125076Y-105415180D01*
X116458409Y-105796133D01*
X116315552Y-105796133D01*
X116220314Y-105843752D01*
X116172695Y-105891371D01*
X116125076Y-105986609D01*
X116125076Y-106224704D01*
X116172695Y-106319942D01*
X116220314Y-106367561D01*
X116315552Y-106415180D01*
X116601266Y-106415180D01*
X116696504Y-106367561D01*
X116744123Y-106319942D01*
X115744123Y-105510419D02*
X115696504Y-105462800D01*
X115601266Y-105415180D01*
X115363171Y-105415180D01*
X115267933Y-105462800D01*
X115220314Y-105510419D01*
X115172695Y-105605657D01*
X115172695Y-105700895D01*
X115220314Y-105843752D01*
X115791742Y-106415180D01*
X115172695Y-106415180D01*
G04 #@! TO.C,D33*
X81832885Y-113628780D02*
X81832885Y-112628780D01*
X81594790Y-112628780D01*
X81451933Y-112676400D01*
X81356695Y-112771638D01*
X81309076Y-112866876D01*
X81261457Y-113057352D01*
X81261457Y-113200209D01*
X81309076Y-113390685D01*
X81356695Y-113485923D01*
X81451933Y-113581161D01*
X81594790Y-113628780D01*
X81832885Y-113628780D01*
X80928123Y-112628780D02*
X80309076Y-112628780D01*
X80642409Y-113009733D01*
X80499552Y-113009733D01*
X80404314Y-113057352D01*
X80356695Y-113104971D01*
X80309076Y-113200209D01*
X80309076Y-113438304D01*
X80356695Y-113533542D01*
X80404314Y-113581161D01*
X80499552Y-113628780D01*
X80785266Y-113628780D01*
X80880504Y-113581161D01*
X80928123Y-113533542D01*
X79975742Y-112628780D02*
X79356695Y-112628780D01*
X79690028Y-113009733D01*
X79547171Y-113009733D01*
X79451933Y-113057352D01*
X79404314Y-113104971D01*
X79356695Y-113200209D01*
X79356695Y-113438304D01*
X79404314Y-113533542D01*
X79451933Y-113581161D01*
X79547171Y-113628780D01*
X79832885Y-113628780D01*
X79928123Y-113581161D01*
X79975742Y-113533542D01*
G04 #@! TO.C,D34*
X88487685Y-118657980D02*
X88487685Y-117657980D01*
X88249590Y-117657980D01*
X88106733Y-117705600D01*
X88011495Y-117800838D01*
X87963876Y-117896076D01*
X87916257Y-118086552D01*
X87916257Y-118229409D01*
X87963876Y-118419885D01*
X88011495Y-118515123D01*
X88106733Y-118610361D01*
X88249590Y-118657980D01*
X88487685Y-118657980D01*
X87582923Y-117657980D02*
X86963876Y-117657980D01*
X87297209Y-118038933D01*
X87154352Y-118038933D01*
X87059114Y-118086552D01*
X87011495Y-118134171D01*
X86963876Y-118229409D01*
X86963876Y-118467504D01*
X87011495Y-118562742D01*
X87059114Y-118610361D01*
X87154352Y-118657980D01*
X87440066Y-118657980D01*
X87535304Y-118610361D01*
X87582923Y-118562742D01*
X86106733Y-117991314D02*
X86106733Y-118657980D01*
X86344828Y-117610361D02*
X86582923Y-118324647D01*
X85963876Y-118324647D01*
G04 #@! TO.C,D35*
X95142485Y-123814180D02*
X95142485Y-122814180D01*
X94904390Y-122814180D01*
X94761533Y-122861800D01*
X94666295Y-122957038D01*
X94618676Y-123052276D01*
X94571057Y-123242752D01*
X94571057Y-123385609D01*
X94618676Y-123576085D01*
X94666295Y-123671323D01*
X94761533Y-123766561D01*
X94904390Y-123814180D01*
X95142485Y-123814180D01*
X94237723Y-122814180D02*
X93618676Y-122814180D01*
X93952009Y-123195133D01*
X93809152Y-123195133D01*
X93713914Y-123242752D01*
X93666295Y-123290371D01*
X93618676Y-123385609D01*
X93618676Y-123623704D01*
X93666295Y-123718942D01*
X93713914Y-123766561D01*
X93809152Y-123814180D01*
X94094866Y-123814180D01*
X94190104Y-123766561D01*
X94237723Y-123718942D01*
X92713914Y-122814180D02*
X93190104Y-122814180D01*
X93237723Y-123290371D01*
X93190104Y-123242752D01*
X93094866Y-123195133D01*
X92856771Y-123195133D01*
X92761533Y-123242752D01*
X92713914Y-123290371D01*
X92666295Y-123385609D01*
X92666295Y-123623704D01*
X92713914Y-123718942D01*
X92761533Y-123766561D01*
X92856771Y-123814180D01*
X93094866Y-123814180D01*
X93190104Y-123766561D01*
X93237723Y-123718942D01*
G04 #@! TO.C,D36*
X101797285Y-128868780D02*
X101797285Y-127868780D01*
X101559190Y-127868780D01*
X101416333Y-127916400D01*
X101321095Y-128011638D01*
X101273476Y-128106876D01*
X101225857Y-128297352D01*
X101225857Y-128440209D01*
X101273476Y-128630685D01*
X101321095Y-128725923D01*
X101416333Y-128821161D01*
X101559190Y-128868780D01*
X101797285Y-128868780D01*
X100892523Y-127868780D02*
X100273476Y-127868780D01*
X100606809Y-128249733D01*
X100463952Y-128249733D01*
X100368714Y-128297352D01*
X100321095Y-128344971D01*
X100273476Y-128440209D01*
X100273476Y-128678304D01*
X100321095Y-128773542D01*
X100368714Y-128821161D01*
X100463952Y-128868780D01*
X100749666Y-128868780D01*
X100844904Y-128821161D01*
X100892523Y-128773542D01*
X99416333Y-127868780D02*
X99606809Y-127868780D01*
X99702047Y-127916400D01*
X99749666Y-127964019D01*
X99844904Y-128106876D01*
X99892523Y-128297352D01*
X99892523Y-128678304D01*
X99844904Y-128773542D01*
X99797285Y-128821161D01*
X99702047Y-128868780D01*
X99511571Y-128868780D01*
X99416333Y-128821161D01*
X99368714Y-128773542D01*
X99321095Y-128678304D01*
X99321095Y-128440209D01*
X99368714Y-128344971D01*
X99416333Y-128297352D01*
X99511571Y-128249733D01*
X99702047Y-128249733D01*
X99797285Y-128297352D01*
X99844904Y-128344971D01*
X99892523Y-128440209D01*
G04 #@! TO.C,D37*
X126054285Y-106389780D02*
X126054285Y-105389780D01*
X125816190Y-105389780D01*
X125673333Y-105437400D01*
X125578095Y-105532638D01*
X125530476Y-105627876D01*
X125482857Y-105818352D01*
X125482857Y-105961209D01*
X125530476Y-106151685D01*
X125578095Y-106246923D01*
X125673333Y-106342161D01*
X125816190Y-106389780D01*
X126054285Y-106389780D01*
X125149523Y-105389780D02*
X124530476Y-105389780D01*
X124863809Y-105770733D01*
X124720952Y-105770733D01*
X124625714Y-105818352D01*
X124578095Y-105865971D01*
X124530476Y-105961209D01*
X124530476Y-106199304D01*
X124578095Y-106294542D01*
X124625714Y-106342161D01*
X124720952Y-106389780D01*
X125006666Y-106389780D01*
X125101904Y-106342161D01*
X125149523Y-106294542D01*
X124197142Y-105389780D02*
X123530476Y-105389780D01*
X123959047Y-106389780D01*
G04 #@! TO.C,D38*
X88513085Y-113654180D02*
X88513085Y-112654180D01*
X88274990Y-112654180D01*
X88132133Y-112701800D01*
X88036895Y-112797038D01*
X87989276Y-112892276D01*
X87941657Y-113082752D01*
X87941657Y-113225609D01*
X87989276Y-113416085D01*
X88036895Y-113511323D01*
X88132133Y-113606561D01*
X88274990Y-113654180D01*
X88513085Y-113654180D01*
X87608323Y-112654180D02*
X86989276Y-112654180D01*
X87322609Y-113035133D01*
X87179752Y-113035133D01*
X87084514Y-113082752D01*
X87036895Y-113130371D01*
X86989276Y-113225609D01*
X86989276Y-113463704D01*
X87036895Y-113558942D01*
X87084514Y-113606561D01*
X87179752Y-113654180D01*
X87465466Y-113654180D01*
X87560704Y-113606561D01*
X87608323Y-113558942D01*
X86417847Y-113082752D02*
X86513085Y-113035133D01*
X86560704Y-112987514D01*
X86608323Y-112892276D01*
X86608323Y-112844657D01*
X86560704Y-112749419D01*
X86513085Y-112701800D01*
X86417847Y-112654180D01*
X86227371Y-112654180D01*
X86132133Y-112701800D01*
X86084514Y-112749419D01*
X86036895Y-112844657D01*
X86036895Y-112892276D01*
X86084514Y-112987514D01*
X86132133Y-113035133D01*
X86227371Y-113082752D01*
X86417847Y-113082752D01*
X86513085Y-113130371D01*
X86560704Y-113177990D01*
X86608323Y-113273228D01*
X86608323Y-113463704D01*
X86560704Y-113558942D01*
X86513085Y-113606561D01*
X86417847Y-113654180D01*
X86227371Y-113654180D01*
X86132133Y-113606561D01*
X86084514Y-113558942D01*
X86036895Y-113463704D01*
X86036895Y-113273228D01*
X86084514Y-113177990D01*
X86132133Y-113130371D01*
X86227371Y-113082752D01*
G04 #@! TO.C,D39*
X95295885Y-118683380D02*
X95295885Y-117683380D01*
X95057790Y-117683380D01*
X94914933Y-117731000D01*
X94819695Y-117826238D01*
X94772076Y-117921476D01*
X94724457Y-118111952D01*
X94724457Y-118254809D01*
X94772076Y-118445285D01*
X94819695Y-118540523D01*
X94914933Y-118635761D01*
X95057790Y-118683380D01*
X95295885Y-118683380D01*
X94391123Y-117683380D02*
X93772076Y-117683380D01*
X94105409Y-118064333D01*
X93962552Y-118064333D01*
X93867314Y-118111952D01*
X93819695Y-118159571D01*
X93772076Y-118254809D01*
X93772076Y-118492904D01*
X93819695Y-118588142D01*
X93867314Y-118635761D01*
X93962552Y-118683380D01*
X94248266Y-118683380D01*
X94343504Y-118635761D01*
X94391123Y-118588142D01*
X93295885Y-118683380D02*
X93105409Y-118683380D01*
X93010171Y-118635761D01*
X92962552Y-118588142D01*
X92867314Y-118445285D01*
X92819695Y-118254809D01*
X92819695Y-117873857D01*
X92867314Y-117778619D01*
X92914933Y-117731000D01*
X93010171Y-117683380D01*
X93200647Y-117683380D01*
X93295885Y-117731000D01*
X93343504Y-117778619D01*
X93391123Y-117873857D01*
X93391123Y-118111952D01*
X93343504Y-118207190D01*
X93295885Y-118254809D01*
X93200647Y-118302428D01*
X93010171Y-118302428D01*
X92914933Y-118254809D01*
X92867314Y-118207190D01*
X92819695Y-118111952D01*
G04 #@! TO.C,D40*
X101822685Y-123763380D02*
X101822685Y-122763380D01*
X101584590Y-122763380D01*
X101441733Y-122811000D01*
X101346495Y-122906238D01*
X101298876Y-123001476D01*
X101251257Y-123191952D01*
X101251257Y-123334809D01*
X101298876Y-123525285D01*
X101346495Y-123620523D01*
X101441733Y-123715761D01*
X101584590Y-123763380D01*
X101822685Y-123763380D01*
X100394114Y-123096714D02*
X100394114Y-123763380D01*
X100632209Y-122715761D02*
X100870304Y-123430047D01*
X100251257Y-123430047D01*
X99679828Y-122763380D02*
X99584590Y-122763380D01*
X99489352Y-122811000D01*
X99441733Y-122858619D01*
X99394114Y-122953857D01*
X99346495Y-123144333D01*
X99346495Y-123382428D01*
X99394114Y-123572904D01*
X99441733Y-123668142D01*
X99489352Y-123715761D01*
X99584590Y-123763380D01*
X99679828Y-123763380D01*
X99775066Y-123715761D01*
X99822685Y-123668142D01*
X99870304Y-123572904D01*
X99917923Y-123382428D01*
X99917923Y-123144333D01*
X99870304Y-122953857D01*
X99822685Y-122858619D01*
X99775066Y-122811000D01*
X99679828Y-122763380D01*
G04 #@! TO.C,D41*
X108477485Y-128894180D02*
X108477485Y-127894180D01*
X108239390Y-127894180D01*
X108096533Y-127941800D01*
X108001295Y-128037038D01*
X107953676Y-128132276D01*
X107906057Y-128322752D01*
X107906057Y-128465609D01*
X107953676Y-128656085D01*
X108001295Y-128751323D01*
X108096533Y-128846561D01*
X108239390Y-128894180D01*
X108477485Y-128894180D01*
X107048914Y-128227514D02*
X107048914Y-128894180D01*
X107287009Y-127846561D02*
X107525104Y-128560847D01*
X106906057Y-128560847D01*
X106001295Y-128894180D02*
X106572723Y-128894180D01*
X106287009Y-128894180D02*
X106287009Y-127894180D01*
X106382247Y-128037038D01*
X106477485Y-128132276D01*
X106572723Y-128179895D01*
G04 #@! TO.C,D42*
X134309285Y-106364380D02*
X134309285Y-105364380D01*
X134071190Y-105364380D01*
X133928333Y-105412000D01*
X133833095Y-105507238D01*
X133785476Y-105602476D01*
X133737857Y-105792952D01*
X133737857Y-105935809D01*
X133785476Y-106126285D01*
X133833095Y-106221523D01*
X133928333Y-106316761D01*
X134071190Y-106364380D01*
X134309285Y-106364380D01*
X132880714Y-105697714D02*
X132880714Y-106364380D01*
X133118809Y-105316761D02*
X133356904Y-106031047D01*
X132737857Y-106031047D01*
X132404523Y-105459619D02*
X132356904Y-105412000D01*
X132261666Y-105364380D01*
X132023571Y-105364380D01*
X131928333Y-105412000D01*
X131880714Y-105459619D01*
X131833095Y-105554857D01*
X131833095Y-105650095D01*
X131880714Y-105792952D01*
X132452142Y-106364380D01*
X131833095Y-106364380D01*
G04 #@! TO.C,D43*
X95193285Y-113577980D02*
X95193285Y-112577980D01*
X94955190Y-112577980D01*
X94812333Y-112625600D01*
X94717095Y-112720838D01*
X94669476Y-112816076D01*
X94621857Y-113006552D01*
X94621857Y-113149409D01*
X94669476Y-113339885D01*
X94717095Y-113435123D01*
X94812333Y-113530361D01*
X94955190Y-113577980D01*
X95193285Y-113577980D01*
X93764714Y-112911314D02*
X93764714Y-113577980D01*
X94002809Y-112530361D02*
X94240904Y-113244647D01*
X93621857Y-113244647D01*
X93336142Y-112577980D02*
X92717095Y-112577980D01*
X93050428Y-112958933D01*
X92907571Y-112958933D01*
X92812333Y-113006552D01*
X92764714Y-113054171D01*
X92717095Y-113149409D01*
X92717095Y-113387504D01*
X92764714Y-113482742D01*
X92812333Y-113530361D01*
X92907571Y-113577980D01*
X93193285Y-113577980D01*
X93288523Y-113530361D01*
X93336142Y-113482742D01*
G04 #@! TO.C,D44*
X101797285Y-118708780D02*
X101797285Y-117708780D01*
X101559190Y-117708780D01*
X101416333Y-117756400D01*
X101321095Y-117851638D01*
X101273476Y-117946876D01*
X101225857Y-118137352D01*
X101225857Y-118280209D01*
X101273476Y-118470685D01*
X101321095Y-118565923D01*
X101416333Y-118661161D01*
X101559190Y-118708780D01*
X101797285Y-118708780D01*
X100368714Y-118042114D02*
X100368714Y-118708780D01*
X100606809Y-117661161D02*
X100844904Y-118375447D01*
X100225857Y-118375447D01*
X99416333Y-118042114D02*
X99416333Y-118708780D01*
X99654428Y-117661161D02*
X99892523Y-118375447D01*
X99273476Y-118375447D01*
G04 #@! TO.C,D45*
X108502885Y-123839580D02*
X108502885Y-122839580D01*
X108264790Y-122839580D01*
X108121933Y-122887200D01*
X108026695Y-122982438D01*
X107979076Y-123077676D01*
X107931457Y-123268152D01*
X107931457Y-123411009D01*
X107979076Y-123601485D01*
X108026695Y-123696723D01*
X108121933Y-123791961D01*
X108264790Y-123839580D01*
X108502885Y-123839580D01*
X107074314Y-123172914D02*
X107074314Y-123839580D01*
X107312409Y-122791961D02*
X107550504Y-123506247D01*
X106931457Y-123506247D01*
X106074314Y-122839580D02*
X106550504Y-122839580D01*
X106598123Y-123315771D01*
X106550504Y-123268152D01*
X106455266Y-123220533D01*
X106217171Y-123220533D01*
X106121933Y-123268152D01*
X106074314Y-123315771D01*
X106026695Y-123411009D01*
X106026695Y-123649104D01*
X106074314Y-123744342D01*
X106121933Y-123791961D01*
X106217171Y-123839580D01*
X106455266Y-123839580D01*
X106550504Y-123791961D01*
X106598123Y-123744342D01*
G04 #@! TO.C,D46*
X115234885Y-128868780D02*
X115234885Y-127868780D01*
X114996790Y-127868780D01*
X114853933Y-127916400D01*
X114758695Y-128011638D01*
X114711076Y-128106876D01*
X114663457Y-128297352D01*
X114663457Y-128440209D01*
X114711076Y-128630685D01*
X114758695Y-128725923D01*
X114853933Y-128821161D01*
X114996790Y-128868780D01*
X115234885Y-128868780D01*
X113806314Y-128202114D02*
X113806314Y-128868780D01*
X114044409Y-127821161D02*
X114282504Y-128535447D01*
X113663457Y-128535447D01*
X112853933Y-127868780D02*
X113044409Y-127868780D01*
X113139647Y-127916400D01*
X113187266Y-127964019D01*
X113282504Y-128106876D01*
X113330123Y-128297352D01*
X113330123Y-128678304D01*
X113282504Y-128773542D01*
X113234885Y-128821161D01*
X113139647Y-128868780D01*
X112949171Y-128868780D01*
X112853933Y-128821161D01*
X112806314Y-128773542D01*
X112758695Y-128678304D01*
X112758695Y-128440209D01*
X112806314Y-128344971D01*
X112853933Y-128297352D01*
X112949171Y-128249733D01*
X113139647Y-128249733D01*
X113234885Y-128297352D01*
X113282504Y-128344971D01*
X113330123Y-128440209D01*
G04 #@! TO.C,D47*
X101797285Y-113679580D02*
X101797285Y-112679580D01*
X101559190Y-112679580D01*
X101416333Y-112727200D01*
X101321095Y-112822438D01*
X101273476Y-112917676D01*
X101225857Y-113108152D01*
X101225857Y-113251009D01*
X101273476Y-113441485D01*
X101321095Y-113536723D01*
X101416333Y-113631961D01*
X101559190Y-113679580D01*
X101797285Y-113679580D01*
X100368714Y-113012914D02*
X100368714Y-113679580D01*
X100606809Y-112631961D02*
X100844904Y-113346247D01*
X100225857Y-113346247D01*
X99940142Y-112679580D02*
X99273476Y-112679580D01*
X99702047Y-113679580D01*
G04 #@! TO.C,D48*
X108426685Y-118734180D02*
X108426685Y-117734180D01*
X108188590Y-117734180D01*
X108045733Y-117781800D01*
X107950495Y-117877038D01*
X107902876Y-117972276D01*
X107855257Y-118162752D01*
X107855257Y-118305609D01*
X107902876Y-118496085D01*
X107950495Y-118591323D01*
X108045733Y-118686561D01*
X108188590Y-118734180D01*
X108426685Y-118734180D01*
X106998114Y-118067514D02*
X106998114Y-118734180D01*
X107236209Y-117686561D02*
X107474304Y-118400847D01*
X106855257Y-118400847D01*
X106331447Y-118162752D02*
X106426685Y-118115133D01*
X106474304Y-118067514D01*
X106521923Y-117972276D01*
X106521923Y-117924657D01*
X106474304Y-117829419D01*
X106426685Y-117781800D01*
X106331447Y-117734180D01*
X106140971Y-117734180D01*
X106045733Y-117781800D01*
X105998114Y-117829419D01*
X105950495Y-117924657D01*
X105950495Y-117972276D01*
X105998114Y-118067514D01*
X106045733Y-118115133D01*
X106140971Y-118162752D01*
X106331447Y-118162752D01*
X106426685Y-118210371D01*
X106474304Y-118257990D01*
X106521923Y-118353228D01*
X106521923Y-118543704D01*
X106474304Y-118638942D01*
X106426685Y-118686561D01*
X106331447Y-118734180D01*
X106140971Y-118734180D01*
X106045733Y-118686561D01*
X105998114Y-118638942D01*
X105950495Y-118543704D01*
X105950495Y-118353228D01*
X105998114Y-118257990D01*
X106045733Y-118210371D01*
X106140971Y-118162752D01*
G04 #@! TO.C,D49*
X115208485Y-123864980D02*
X115208485Y-122864980D01*
X114970390Y-122864980D01*
X114827533Y-122912600D01*
X114732295Y-123007838D01*
X114684676Y-123103076D01*
X114637057Y-123293552D01*
X114637057Y-123436409D01*
X114684676Y-123626885D01*
X114732295Y-123722123D01*
X114827533Y-123817361D01*
X114970390Y-123864980D01*
X115208485Y-123864980D01*
X113779914Y-123198314D02*
X113779914Y-123864980D01*
X114018009Y-122817361D02*
X114256104Y-123531647D01*
X113637057Y-123531647D01*
X113208485Y-123864980D02*
X113018009Y-123864980D01*
X112922771Y-123817361D01*
X112875152Y-123769742D01*
X112779914Y-123626885D01*
X112732295Y-123436409D01*
X112732295Y-123055457D01*
X112779914Y-122960219D01*
X112827533Y-122912600D01*
X112922771Y-122864980D01*
X113113247Y-122864980D01*
X113208485Y-122912600D01*
X113256104Y-122960219D01*
X113303723Y-123055457D01*
X113303723Y-123293552D01*
X113256104Y-123388790D01*
X113208485Y-123436409D01*
X113113247Y-123484028D01*
X112922771Y-123484028D01*
X112827533Y-123436409D01*
X112779914Y-123388790D01*
X112732295Y-123293552D01*
G04 #@! TO.C,D50*
X121685485Y-128868780D02*
X121685485Y-127868780D01*
X121447390Y-127868780D01*
X121304533Y-127916400D01*
X121209295Y-128011638D01*
X121161676Y-128106876D01*
X121114057Y-128297352D01*
X121114057Y-128440209D01*
X121161676Y-128630685D01*
X121209295Y-128725923D01*
X121304533Y-128821161D01*
X121447390Y-128868780D01*
X121685485Y-128868780D01*
X120209295Y-127868780D02*
X120685485Y-127868780D01*
X120733104Y-128344971D01*
X120685485Y-128297352D01*
X120590247Y-128249733D01*
X120352152Y-128249733D01*
X120256914Y-128297352D01*
X120209295Y-128344971D01*
X120161676Y-128440209D01*
X120161676Y-128678304D01*
X120209295Y-128773542D01*
X120256914Y-128821161D01*
X120352152Y-128868780D01*
X120590247Y-128868780D01*
X120685485Y-128821161D01*
X120733104Y-128773542D01*
X119542628Y-127868780D02*
X119447390Y-127868780D01*
X119352152Y-127916400D01*
X119304533Y-127964019D01*
X119256914Y-128059257D01*
X119209295Y-128249733D01*
X119209295Y-128487828D01*
X119256914Y-128678304D01*
X119304533Y-128773542D01*
X119352152Y-128821161D01*
X119447390Y-128868780D01*
X119542628Y-128868780D01*
X119637866Y-128821161D01*
X119685485Y-128773542D01*
X119733104Y-128678304D01*
X119780723Y-128487828D01*
X119780723Y-128249733D01*
X119733104Y-128059257D01*
X119685485Y-127964019D01*
X119637866Y-127916400D01*
X119542628Y-127868780D01*
G04 #@! TO.C,D51*
X108452085Y-113628780D02*
X108452085Y-112628780D01*
X108213990Y-112628780D01*
X108071133Y-112676400D01*
X107975895Y-112771638D01*
X107928276Y-112866876D01*
X107880657Y-113057352D01*
X107880657Y-113200209D01*
X107928276Y-113390685D01*
X107975895Y-113485923D01*
X108071133Y-113581161D01*
X108213990Y-113628780D01*
X108452085Y-113628780D01*
X106975895Y-112628780D02*
X107452085Y-112628780D01*
X107499704Y-113104971D01*
X107452085Y-113057352D01*
X107356847Y-113009733D01*
X107118752Y-113009733D01*
X107023514Y-113057352D01*
X106975895Y-113104971D01*
X106928276Y-113200209D01*
X106928276Y-113438304D01*
X106975895Y-113533542D01*
X107023514Y-113581161D01*
X107118752Y-113628780D01*
X107356847Y-113628780D01*
X107452085Y-113581161D01*
X107499704Y-113533542D01*
X105975895Y-113628780D02*
X106547323Y-113628780D01*
X106261609Y-113628780D02*
X106261609Y-112628780D01*
X106356847Y-112771638D01*
X106452085Y-112866876D01*
X106547323Y-112914495D01*
G04 #@! TO.C,D52*
X115106885Y-118581780D02*
X115106885Y-117581780D01*
X114868790Y-117581780D01*
X114725933Y-117629400D01*
X114630695Y-117724638D01*
X114583076Y-117819876D01*
X114535457Y-118010352D01*
X114535457Y-118153209D01*
X114583076Y-118343685D01*
X114630695Y-118438923D01*
X114725933Y-118534161D01*
X114868790Y-118581780D01*
X115106885Y-118581780D01*
X113630695Y-117581780D02*
X114106885Y-117581780D01*
X114154504Y-118057971D01*
X114106885Y-118010352D01*
X114011647Y-117962733D01*
X113773552Y-117962733D01*
X113678314Y-118010352D01*
X113630695Y-118057971D01*
X113583076Y-118153209D01*
X113583076Y-118391304D01*
X113630695Y-118486542D01*
X113678314Y-118534161D01*
X113773552Y-118581780D01*
X114011647Y-118581780D01*
X114106885Y-118534161D01*
X114154504Y-118486542D01*
X113202123Y-117677019D02*
X113154504Y-117629400D01*
X113059266Y-117581780D01*
X112821171Y-117581780D01*
X112725933Y-117629400D01*
X112678314Y-117677019D01*
X112630695Y-117772257D01*
X112630695Y-117867495D01*
X112678314Y-118010352D01*
X113249742Y-118581780D01*
X112630695Y-118581780D01*
G04 #@! TO.C,D53*
X121889685Y-123788780D02*
X121889685Y-122788780D01*
X121651590Y-122788780D01*
X121508733Y-122836400D01*
X121413495Y-122931638D01*
X121365876Y-123026876D01*
X121318257Y-123217352D01*
X121318257Y-123360209D01*
X121365876Y-123550685D01*
X121413495Y-123645923D01*
X121508733Y-123741161D01*
X121651590Y-123788780D01*
X121889685Y-123788780D01*
X120413495Y-122788780D02*
X120889685Y-122788780D01*
X120937304Y-123264971D01*
X120889685Y-123217352D01*
X120794447Y-123169733D01*
X120556352Y-123169733D01*
X120461114Y-123217352D01*
X120413495Y-123264971D01*
X120365876Y-123360209D01*
X120365876Y-123598304D01*
X120413495Y-123693542D01*
X120461114Y-123741161D01*
X120556352Y-123788780D01*
X120794447Y-123788780D01*
X120889685Y-123741161D01*
X120937304Y-123693542D01*
X120032542Y-122788780D02*
X119413495Y-122788780D01*
X119746828Y-123169733D01*
X119603971Y-123169733D01*
X119508733Y-123217352D01*
X119461114Y-123264971D01*
X119413495Y-123360209D01*
X119413495Y-123598304D01*
X119461114Y-123693542D01*
X119508733Y-123741161D01*
X119603971Y-123788780D01*
X119889685Y-123788780D01*
X119984923Y-123741161D01*
X120032542Y-123693542D01*
G04 #@! TO.C,D54*
X128416485Y-128894180D02*
X128416485Y-127894180D01*
X128178390Y-127894180D01*
X128035533Y-127941800D01*
X127940295Y-128037038D01*
X127892676Y-128132276D01*
X127845057Y-128322752D01*
X127845057Y-128465609D01*
X127892676Y-128656085D01*
X127940295Y-128751323D01*
X128035533Y-128846561D01*
X128178390Y-128894180D01*
X128416485Y-128894180D01*
X126940295Y-127894180D02*
X127416485Y-127894180D01*
X127464104Y-128370371D01*
X127416485Y-128322752D01*
X127321247Y-128275133D01*
X127083152Y-128275133D01*
X126987914Y-128322752D01*
X126940295Y-128370371D01*
X126892676Y-128465609D01*
X126892676Y-128703704D01*
X126940295Y-128798942D01*
X126987914Y-128846561D01*
X127083152Y-128894180D01*
X127321247Y-128894180D01*
X127416485Y-128846561D01*
X127464104Y-128798942D01*
X126035533Y-128227514D02*
X126035533Y-128894180D01*
X126273628Y-127846561D02*
X126511723Y-128560847D01*
X125892676Y-128560847D01*
G04 #@! TO.C,D55*
X115157685Y-113628780D02*
X115157685Y-112628780D01*
X114919590Y-112628780D01*
X114776733Y-112676400D01*
X114681495Y-112771638D01*
X114633876Y-112866876D01*
X114586257Y-113057352D01*
X114586257Y-113200209D01*
X114633876Y-113390685D01*
X114681495Y-113485923D01*
X114776733Y-113581161D01*
X114919590Y-113628780D01*
X115157685Y-113628780D01*
X113681495Y-112628780D02*
X114157685Y-112628780D01*
X114205304Y-113104971D01*
X114157685Y-113057352D01*
X114062447Y-113009733D01*
X113824352Y-113009733D01*
X113729114Y-113057352D01*
X113681495Y-113104971D01*
X113633876Y-113200209D01*
X113633876Y-113438304D01*
X113681495Y-113533542D01*
X113729114Y-113581161D01*
X113824352Y-113628780D01*
X114062447Y-113628780D01*
X114157685Y-113581161D01*
X114205304Y-113533542D01*
X112729114Y-112628780D02*
X113205304Y-112628780D01*
X113252923Y-113104971D01*
X113205304Y-113057352D01*
X113110066Y-113009733D01*
X112871971Y-113009733D01*
X112776733Y-113057352D01*
X112729114Y-113104971D01*
X112681495Y-113200209D01*
X112681495Y-113438304D01*
X112729114Y-113533542D01*
X112776733Y-113581161D01*
X112871971Y-113628780D01*
X113110066Y-113628780D01*
X113205304Y-113581161D01*
X113252923Y-113533542D01*
G04 #@! TO.C,D56*
X121888685Y-118708780D02*
X121888685Y-117708780D01*
X121650590Y-117708780D01*
X121507733Y-117756400D01*
X121412495Y-117851638D01*
X121364876Y-117946876D01*
X121317257Y-118137352D01*
X121317257Y-118280209D01*
X121364876Y-118470685D01*
X121412495Y-118565923D01*
X121507733Y-118661161D01*
X121650590Y-118708780D01*
X121888685Y-118708780D01*
X120412495Y-117708780D02*
X120888685Y-117708780D01*
X120936304Y-118184971D01*
X120888685Y-118137352D01*
X120793447Y-118089733D01*
X120555352Y-118089733D01*
X120460114Y-118137352D01*
X120412495Y-118184971D01*
X120364876Y-118280209D01*
X120364876Y-118518304D01*
X120412495Y-118613542D01*
X120460114Y-118661161D01*
X120555352Y-118708780D01*
X120793447Y-118708780D01*
X120888685Y-118661161D01*
X120936304Y-118613542D01*
X119507733Y-117708780D02*
X119698209Y-117708780D01*
X119793447Y-117756400D01*
X119841066Y-117804019D01*
X119936304Y-117946876D01*
X119983923Y-118137352D01*
X119983923Y-118518304D01*
X119936304Y-118613542D01*
X119888685Y-118661161D01*
X119793447Y-118708780D01*
X119602971Y-118708780D01*
X119507733Y-118661161D01*
X119460114Y-118613542D01*
X119412495Y-118518304D01*
X119412495Y-118280209D01*
X119460114Y-118184971D01*
X119507733Y-118137352D01*
X119602971Y-118089733D01*
X119793447Y-118089733D01*
X119888685Y-118137352D01*
X119936304Y-118184971D01*
X119983923Y-118280209D01*
G04 #@! TO.C,D57*
X128341285Y-123788780D02*
X128341285Y-122788780D01*
X128103190Y-122788780D01*
X127960333Y-122836400D01*
X127865095Y-122931638D01*
X127817476Y-123026876D01*
X127769857Y-123217352D01*
X127769857Y-123360209D01*
X127817476Y-123550685D01*
X127865095Y-123645923D01*
X127960333Y-123741161D01*
X128103190Y-123788780D01*
X128341285Y-123788780D01*
X126865095Y-122788780D02*
X127341285Y-122788780D01*
X127388904Y-123264971D01*
X127341285Y-123217352D01*
X127246047Y-123169733D01*
X127007952Y-123169733D01*
X126912714Y-123217352D01*
X126865095Y-123264971D01*
X126817476Y-123360209D01*
X126817476Y-123598304D01*
X126865095Y-123693542D01*
X126912714Y-123741161D01*
X127007952Y-123788780D01*
X127246047Y-123788780D01*
X127341285Y-123741161D01*
X127388904Y-123693542D01*
X126484142Y-122788780D02*
X125817476Y-122788780D01*
X126246047Y-123788780D01*
G04 #@! TO.C,D58*
X135199285Y-128919580D02*
X135199285Y-127919580D01*
X134961190Y-127919580D01*
X134818333Y-127967200D01*
X134723095Y-128062438D01*
X134675476Y-128157676D01*
X134627857Y-128348152D01*
X134627857Y-128491009D01*
X134675476Y-128681485D01*
X134723095Y-128776723D01*
X134818333Y-128871961D01*
X134961190Y-128919580D01*
X135199285Y-128919580D01*
X133723095Y-127919580D02*
X134199285Y-127919580D01*
X134246904Y-128395771D01*
X134199285Y-128348152D01*
X134104047Y-128300533D01*
X133865952Y-128300533D01*
X133770714Y-128348152D01*
X133723095Y-128395771D01*
X133675476Y-128491009D01*
X133675476Y-128729104D01*
X133723095Y-128824342D01*
X133770714Y-128871961D01*
X133865952Y-128919580D01*
X134104047Y-128919580D01*
X134199285Y-128871961D01*
X134246904Y-128824342D01*
X133104047Y-128348152D02*
X133199285Y-128300533D01*
X133246904Y-128252914D01*
X133294523Y-128157676D01*
X133294523Y-128110057D01*
X133246904Y-128014819D01*
X133199285Y-127967200D01*
X133104047Y-127919580D01*
X132913571Y-127919580D01*
X132818333Y-127967200D01*
X132770714Y-128014819D01*
X132723095Y-128110057D01*
X132723095Y-128157676D01*
X132770714Y-128252914D01*
X132818333Y-128300533D01*
X132913571Y-128348152D01*
X133104047Y-128348152D01*
X133199285Y-128395771D01*
X133246904Y-128443390D01*
X133294523Y-128538628D01*
X133294523Y-128729104D01*
X133246904Y-128824342D01*
X133199285Y-128871961D01*
X133104047Y-128919580D01*
X132913571Y-128919580D01*
X132818333Y-128871961D01*
X132770714Y-128824342D01*
X132723095Y-128729104D01*
X132723095Y-128538628D01*
X132770714Y-128443390D01*
X132818333Y-128395771D01*
X132913571Y-128348152D01*
G04 #@! TO.C,D59*
X121914085Y-113679580D02*
X121914085Y-112679580D01*
X121675990Y-112679580D01*
X121533133Y-112727200D01*
X121437895Y-112822438D01*
X121390276Y-112917676D01*
X121342657Y-113108152D01*
X121342657Y-113251009D01*
X121390276Y-113441485D01*
X121437895Y-113536723D01*
X121533133Y-113631961D01*
X121675990Y-113679580D01*
X121914085Y-113679580D01*
X120437895Y-112679580D02*
X120914085Y-112679580D01*
X120961704Y-113155771D01*
X120914085Y-113108152D01*
X120818847Y-113060533D01*
X120580752Y-113060533D01*
X120485514Y-113108152D01*
X120437895Y-113155771D01*
X120390276Y-113251009D01*
X120390276Y-113489104D01*
X120437895Y-113584342D01*
X120485514Y-113631961D01*
X120580752Y-113679580D01*
X120818847Y-113679580D01*
X120914085Y-113631961D01*
X120961704Y-113584342D01*
X119914085Y-113679580D02*
X119723609Y-113679580D01*
X119628371Y-113631961D01*
X119580752Y-113584342D01*
X119485514Y-113441485D01*
X119437895Y-113251009D01*
X119437895Y-112870057D01*
X119485514Y-112774819D01*
X119533133Y-112727200D01*
X119628371Y-112679580D01*
X119818847Y-112679580D01*
X119914085Y-112727200D01*
X119961704Y-112774819D01*
X120009323Y-112870057D01*
X120009323Y-113108152D01*
X119961704Y-113203390D01*
X119914085Y-113251009D01*
X119818847Y-113298628D01*
X119628371Y-113298628D01*
X119533133Y-113251009D01*
X119485514Y-113203390D01*
X119437895Y-113108152D01*
G04 #@! TO.C,D60*
X128518085Y-118683380D02*
X128518085Y-117683380D01*
X128279990Y-117683380D01*
X128137133Y-117731000D01*
X128041895Y-117826238D01*
X127994276Y-117921476D01*
X127946657Y-118111952D01*
X127946657Y-118254809D01*
X127994276Y-118445285D01*
X128041895Y-118540523D01*
X128137133Y-118635761D01*
X128279990Y-118683380D01*
X128518085Y-118683380D01*
X127089514Y-117683380D02*
X127279990Y-117683380D01*
X127375228Y-117731000D01*
X127422847Y-117778619D01*
X127518085Y-117921476D01*
X127565704Y-118111952D01*
X127565704Y-118492904D01*
X127518085Y-118588142D01*
X127470466Y-118635761D01*
X127375228Y-118683380D01*
X127184752Y-118683380D01*
X127089514Y-118635761D01*
X127041895Y-118588142D01*
X126994276Y-118492904D01*
X126994276Y-118254809D01*
X127041895Y-118159571D01*
X127089514Y-118111952D01*
X127184752Y-118064333D01*
X127375228Y-118064333D01*
X127470466Y-118111952D01*
X127518085Y-118159571D01*
X127565704Y-118254809D01*
X126375228Y-117683380D02*
X126279990Y-117683380D01*
X126184752Y-117731000D01*
X126137133Y-117778619D01*
X126089514Y-117873857D01*
X126041895Y-118064333D01*
X126041895Y-118302428D01*
X126089514Y-118492904D01*
X126137133Y-118588142D01*
X126184752Y-118635761D01*
X126279990Y-118683380D01*
X126375228Y-118683380D01*
X126470466Y-118635761D01*
X126518085Y-118588142D01*
X126565704Y-118492904D01*
X126613323Y-118302428D01*
X126613323Y-118064333D01*
X126565704Y-117873857D01*
X126518085Y-117778619D01*
X126470466Y-117731000D01*
X126375228Y-117683380D01*
G04 #@! TO.C,D61*
X135122085Y-123890380D02*
X135122085Y-122890380D01*
X134883990Y-122890380D01*
X134741133Y-122938000D01*
X134645895Y-123033238D01*
X134598276Y-123128476D01*
X134550657Y-123318952D01*
X134550657Y-123461809D01*
X134598276Y-123652285D01*
X134645895Y-123747523D01*
X134741133Y-123842761D01*
X134883990Y-123890380D01*
X135122085Y-123890380D01*
X133693514Y-122890380D02*
X133883990Y-122890380D01*
X133979228Y-122938000D01*
X134026847Y-122985619D01*
X134122085Y-123128476D01*
X134169704Y-123318952D01*
X134169704Y-123699904D01*
X134122085Y-123795142D01*
X134074466Y-123842761D01*
X133979228Y-123890380D01*
X133788752Y-123890380D01*
X133693514Y-123842761D01*
X133645895Y-123795142D01*
X133598276Y-123699904D01*
X133598276Y-123461809D01*
X133645895Y-123366571D01*
X133693514Y-123318952D01*
X133788752Y-123271333D01*
X133979228Y-123271333D01*
X134074466Y-123318952D01*
X134122085Y-123366571D01*
X134169704Y-123461809D01*
X132645895Y-123890380D02*
X133217323Y-123890380D01*
X132931609Y-123890380D02*
X132931609Y-122890380D01*
X133026847Y-123033238D01*
X133122085Y-123128476D01*
X133217323Y-123176095D01*
G04 #@! TO.C,D62*
X42668085Y-106415180D02*
X42668085Y-105415180D01*
X42429990Y-105415180D01*
X42287133Y-105462800D01*
X42191895Y-105558038D01*
X42144276Y-105653276D01*
X42096657Y-105843752D01*
X42096657Y-105986609D01*
X42144276Y-106177085D01*
X42191895Y-106272323D01*
X42287133Y-106367561D01*
X42429990Y-106415180D01*
X42668085Y-106415180D01*
X41239514Y-105415180D02*
X41429990Y-105415180D01*
X41525228Y-105462800D01*
X41572847Y-105510419D01*
X41668085Y-105653276D01*
X41715704Y-105843752D01*
X41715704Y-106224704D01*
X41668085Y-106319942D01*
X41620466Y-106367561D01*
X41525228Y-106415180D01*
X41334752Y-106415180D01*
X41239514Y-106367561D01*
X41191895Y-106319942D01*
X41144276Y-106224704D01*
X41144276Y-105986609D01*
X41191895Y-105891371D01*
X41239514Y-105843752D01*
X41334752Y-105796133D01*
X41525228Y-105796133D01*
X41620466Y-105843752D01*
X41668085Y-105891371D01*
X41715704Y-105986609D01*
X40763323Y-105510419D02*
X40715704Y-105462800D01*
X40620466Y-105415180D01*
X40382371Y-105415180D01*
X40287133Y-105462800D01*
X40239514Y-105510419D01*
X40191895Y-105605657D01*
X40191895Y-105700895D01*
X40239514Y-105843752D01*
X40810942Y-106415180D01*
X40191895Y-106415180D01*
G04 #@! TO.C,D63*
X128467285Y-113603380D02*
X128467285Y-112603380D01*
X128229190Y-112603380D01*
X128086333Y-112651000D01*
X127991095Y-112746238D01*
X127943476Y-112841476D01*
X127895857Y-113031952D01*
X127895857Y-113174809D01*
X127943476Y-113365285D01*
X127991095Y-113460523D01*
X128086333Y-113555761D01*
X128229190Y-113603380D01*
X128467285Y-113603380D01*
X127038714Y-112603380D02*
X127229190Y-112603380D01*
X127324428Y-112651000D01*
X127372047Y-112698619D01*
X127467285Y-112841476D01*
X127514904Y-113031952D01*
X127514904Y-113412904D01*
X127467285Y-113508142D01*
X127419666Y-113555761D01*
X127324428Y-113603380D01*
X127133952Y-113603380D01*
X127038714Y-113555761D01*
X126991095Y-113508142D01*
X126943476Y-113412904D01*
X126943476Y-113174809D01*
X126991095Y-113079571D01*
X127038714Y-113031952D01*
X127133952Y-112984333D01*
X127324428Y-112984333D01*
X127419666Y-113031952D01*
X127467285Y-113079571D01*
X127514904Y-113174809D01*
X126610142Y-112603380D02*
X125991095Y-112603380D01*
X126324428Y-112984333D01*
X126181571Y-112984333D01*
X126086333Y-113031952D01*
X126038714Y-113079571D01*
X125991095Y-113174809D01*
X125991095Y-113412904D01*
X126038714Y-113508142D01*
X126086333Y-113555761D01*
X126181571Y-113603380D01*
X126467285Y-113603380D01*
X126562523Y-113555761D01*
X126610142Y-113508142D01*
G04 #@! TO.C,D64*
X135147485Y-118683380D02*
X135147485Y-117683380D01*
X134909390Y-117683380D01*
X134766533Y-117731000D01*
X134671295Y-117826238D01*
X134623676Y-117921476D01*
X134576057Y-118111952D01*
X134576057Y-118254809D01*
X134623676Y-118445285D01*
X134671295Y-118540523D01*
X134766533Y-118635761D01*
X134909390Y-118683380D01*
X135147485Y-118683380D01*
X133718914Y-117683380D02*
X133909390Y-117683380D01*
X134004628Y-117731000D01*
X134052247Y-117778619D01*
X134147485Y-117921476D01*
X134195104Y-118111952D01*
X134195104Y-118492904D01*
X134147485Y-118588142D01*
X134099866Y-118635761D01*
X134004628Y-118683380D01*
X133814152Y-118683380D01*
X133718914Y-118635761D01*
X133671295Y-118588142D01*
X133623676Y-118492904D01*
X133623676Y-118254809D01*
X133671295Y-118159571D01*
X133718914Y-118111952D01*
X133814152Y-118064333D01*
X134004628Y-118064333D01*
X134099866Y-118111952D01*
X134147485Y-118159571D01*
X134195104Y-118254809D01*
X132766533Y-118016714D02*
X132766533Y-118683380D01*
X133004628Y-117635761D02*
X133242723Y-118350047D01*
X132623676Y-118350047D01*
G04 #@! TO.C,D65*
X41803485Y-128995780D02*
X41803485Y-127995780D01*
X41565390Y-127995780D01*
X41422533Y-128043400D01*
X41327295Y-128138638D01*
X41279676Y-128233876D01*
X41232057Y-128424352D01*
X41232057Y-128567209D01*
X41279676Y-128757685D01*
X41327295Y-128852923D01*
X41422533Y-128948161D01*
X41565390Y-128995780D01*
X41803485Y-128995780D01*
X40374914Y-127995780D02*
X40565390Y-127995780D01*
X40660628Y-128043400D01*
X40708247Y-128091019D01*
X40803485Y-128233876D01*
X40851104Y-128424352D01*
X40851104Y-128805304D01*
X40803485Y-128900542D01*
X40755866Y-128948161D01*
X40660628Y-128995780D01*
X40470152Y-128995780D01*
X40374914Y-128948161D01*
X40327295Y-128900542D01*
X40279676Y-128805304D01*
X40279676Y-128567209D01*
X40327295Y-128471971D01*
X40374914Y-128424352D01*
X40470152Y-128376733D01*
X40660628Y-128376733D01*
X40755866Y-128424352D01*
X40803485Y-128471971D01*
X40851104Y-128567209D01*
X39374914Y-127995780D02*
X39851104Y-127995780D01*
X39898723Y-128471971D01*
X39851104Y-128424352D01*
X39755866Y-128376733D01*
X39517771Y-128376733D01*
X39422533Y-128424352D01*
X39374914Y-128471971D01*
X39327295Y-128567209D01*
X39327295Y-128805304D01*
X39374914Y-128900542D01*
X39422533Y-128948161D01*
X39517771Y-128995780D01*
X39755866Y-128995780D01*
X39851104Y-128948161D01*
X39898723Y-128900542D01*
G04 #@! TO.C,D66*
X50973885Y-106440580D02*
X50973885Y-105440580D01*
X50735790Y-105440580D01*
X50592933Y-105488200D01*
X50497695Y-105583438D01*
X50450076Y-105678676D01*
X50402457Y-105869152D01*
X50402457Y-106012009D01*
X50450076Y-106202485D01*
X50497695Y-106297723D01*
X50592933Y-106392961D01*
X50735790Y-106440580D01*
X50973885Y-106440580D01*
X49545314Y-105440580D02*
X49735790Y-105440580D01*
X49831028Y-105488200D01*
X49878647Y-105535819D01*
X49973885Y-105678676D01*
X50021504Y-105869152D01*
X50021504Y-106250104D01*
X49973885Y-106345342D01*
X49926266Y-106392961D01*
X49831028Y-106440580D01*
X49640552Y-106440580D01*
X49545314Y-106392961D01*
X49497695Y-106345342D01*
X49450076Y-106250104D01*
X49450076Y-106012009D01*
X49497695Y-105916771D01*
X49545314Y-105869152D01*
X49640552Y-105821533D01*
X49831028Y-105821533D01*
X49926266Y-105869152D01*
X49973885Y-105916771D01*
X50021504Y-106012009D01*
X48592933Y-105440580D02*
X48783409Y-105440580D01*
X48878647Y-105488200D01*
X48926266Y-105535819D01*
X49021504Y-105678676D01*
X49069123Y-105869152D01*
X49069123Y-106250104D01*
X49021504Y-106345342D01*
X48973885Y-106392961D01*
X48878647Y-106440580D01*
X48688171Y-106440580D01*
X48592933Y-106392961D01*
X48545314Y-106345342D01*
X48497695Y-106250104D01*
X48497695Y-106012009D01*
X48545314Y-105916771D01*
X48592933Y-105869152D01*
X48688171Y-105821533D01*
X48878647Y-105821533D01*
X48973885Y-105869152D01*
X49021504Y-105916771D01*
X49069123Y-106012009D01*
G04 #@! TO.C,D67*
X135147485Y-113603380D02*
X135147485Y-112603380D01*
X134909390Y-112603380D01*
X134766533Y-112651000D01*
X134671295Y-112746238D01*
X134623676Y-112841476D01*
X134576057Y-113031952D01*
X134576057Y-113174809D01*
X134623676Y-113365285D01*
X134671295Y-113460523D01*
X134766533Y-113555761D01*
X134909390Y-113603380D01*
X135147485Y-113603380D01*
X133718914Y-112603380D02*
X133909390Y-112603380D01*
X134004628Y-112651000D01*
X134052247Y-112698619D01*
X134147485Y-112841476D01*
X134195104Y-113031952D01*
X134195104Y-113412904D01*
X134147485Y-113508142D01*
X134099866Y-113555761D01*
X134004628Y-113603380D01*
X133814152Y-113603380D01*
X133718914Y-113555761D01*
X133671295Y-113508142D01*
X133623676Y-113412904D01*
X133623676Y-113174809D01*
X133671295Y-113079571D01*
X133718914Y-113031952D01*
X133814152Y-112984333D01*
X134004628Y-112984333D01*
X134099866Y-113031952D01*
X134147485Y-113079571D01*
X134195104Y-113174809D01*
X133290342Y-112603380D02*
X132623676Y-112603380D01*
X133052247Y-113603380D01*
G04 #@! TO.C,D68*
X41777085Y-123814180D02*
X41777085Y-122814180D01*
X41538990Y-122814180D01*
X41396133Y-122861800D01*
X41300895Y-122957038D01*
X41253276Y-123052276D01*
X41205657Y-123242752D01*
X41205657Y-123385609D01*
X41253276Y-123576085D01*
X41300895Y-123671323D01*
X41396133Y-123766561D01*
X41538990Y-123814180D01*
X41777085Y-123814180D01*
X40348514Y-122814180D02*
X40538990Y-122814180D01*
X40634228Y-122861800D01*
X40681847Y-122909419D01*
X40777085Y-123052276D01*
X40824704Y-123242752D01*
X40824704Y-123623704D01*
X40777085Y-123718942D01*
X40729466Y-123766561D01*
X40634228Y-123814180D01*
X40443752Y-123814180D01*
X40348514Y-123766561D01*
X40300895Y-123718942D01*
X40253276Y-123623704D01*
X40253276Y-123385609D01*
X40300895Y-123290371D01*
X40348514Y-123242752D01*
X40443752Y-123195133D01*
X40634228Y-123195133D01*
X40729466Y-123242752D01*
X40777085Y-123290371D01*
X40824704Y-123385609D01*
X39681847Y-123242752D02*
X39777085Y-123195133D01*
X39824704Y-123147514D01*
X39872323Y-123052276D01*
X39872323Y-123004657D01*
X39824704Y-122909419D01*
X39777085Y-122861800D01*
X39681847Y-122814180D01*
X39491371Y-122814180D01*
X39396133Y-122861800D01*
X39348514Y-122909419D01*
X39300895Y-123004657D01*
X39300895Y-123052276D01*
X39348514Y-123147514D01*
X39396133Y-123195133D01*
X39491371Y-123242752D01*
X39681847Y-123242752D01*
X39777085Y-123290371D01*
X39824704Y-123337990D01*
X39872323Y-123433228D01*
X39872323Y-123623704D01*
X39824704Y-123718942D01*
X39777085Y-123766561D01*
X39681847Y-123814180D01*
X39491371Y-123814180D01*
X39396133Y-123766561D01*
X39348514Y-123718942D01*
X39300895Y-123623704D01*
X39300895Y-123433228D01*
X39348514Y-123337990D01*
X39396133Y-123290371D01*
X39491371Y-123242752D01*
G04 #@! TO.C,D69*
X48432885Y-128944980D02*
X48432885Y-127944980D01*
X48194790Y-127944980D01*
X48051933Y-127992600D01*
X47956695Y-128087838D01*
X47909076Y-128183076D01*
X47861457Y-128373552D01*
X47861457Y-128516409D01*
X47909076Y-128706885D01*
X47956695Y-128802123D01*
X48051933Y-128897361D01*
X48194790Y-128944980D01*
X48432885Y-128944980D01*
X47004314Y-127944980D02*
X47194790Y-127944980D01*
X47290028Y-127992600D01*
X47337647Y-128040219D01*
X47432885Y-128183076D01*
X47480504Y-128373552D01*
X47480504Y-128754504D01*
X47432885Y-128849742D01*
X47385266Y-128897361D01*
X47290028Y-128944980D01*
X47099552Y-128944980D01*
X47004314Y-128897361D01*
X46956695Y-128849742D01*
X46909076Y-128754504D01*
X46909076Y-128516409D01*
X46956695Y-128421171D01*
X47004314Y-128373552D01*
X47099552Y-128325933D01*
X47290028Y-128325933D01*
X47385266Y-128373552D01*
X47432885Y-128421171D01*
X47480504Y-128516409D01*
X46432885Y-128944980D02*
X46242409Y-128944980D01*
X46147171Y-128897361D01*
X46099552Y-128849742D01*
X46004314Y-128706885D01*
X45956695Y-128516409D01*
X45956695Y-128135457D01*
X46004314Y-128040219D01*
X46051933Y-127992600D01*
X46147171Y-127944980D01*
X46337647Y-127944980D01*
X46432885Y-127992600D01*
X46480504Y-128040219D01*
X46528123Y-128135457D01*
X46528123Y-128373552D01*
X46480504Y-128468790D01*
X46432885Y-128516409D01*
X46337647Y-128564028D01*
X46147171Y-128564028D01*
X46051933Y-128516409D01*
X46004314Y-128468790D01*
X45956695Y-128373552D01*
G04 #@! TO.C,D70*
X59330485Y-106440580D02*
X59330485Y-105440580D01*
X59092390Y-105440580D01*
X58949533Y-105488200D01*
X58854295Y-105583438D01*
X58806676Y-105678676D01*
X58759057Y-105869152D01*
X58759057Y-106012009D01*
X58806676Y-106202485D01*
X58854295Y-106297723D01*
X58949533Y-106392961D01*
X59092390Y-106440580D01*
X59330485Y-106440580D01*
X58425723Y-105440580D02*
X57759057Y-105440580D01*
X58187628Y-106440580D01*
X57187628Y-105440580D02*
X57092390Y-105440580D01*
X56997152Y-105488200D01*
X56949533Y-105535819D01*
X56901914Y-105631057D01*
X56854295Y-105821533D01*
X56854295Y-106059628D01*
X56901914Y-106250104D01*
X56949533Y-106345342D01*
X56997152Y-106392961D01*
X57092390Y-106440580D01*
X57187628Y-106440580D01*
X57282866Y-106392961D01*
X57330485Y-106345342D01*
X57378104Y-106250104D01*
X57425723Y-106059628D01*
X57425723Y-105821533D01*
X57378104Y-105631057D01*
X57330485Y-105535819D01*
X57282866Y-105488200D01*
X57187628Y-105440580D01*
G04 #@! TO.C,D71*
X41802485Y-118708780D02*
X41802485Y-117708780D01*
X41564390Y-117708780D01*
X41421533Y-117756400D01*
X41326295Y-117851638D01*
X41278676Y-117946876D01*
X41231057Y-118137352D01*
X41231057Y-118280209D01*
X41278676Y-118470685D01*
X41326295Y-118565923D01*
X41421533Y-118661161D01*
X41564390Y-118708780D01*
X41802485Y-118708780D01*
X40897723Y-117708780D02*
X40231057Y-117708780D01*
X40659628Y-118708780D01*
X39326295Y-118708780D02*
X39897723Y-118708780D01*
X39612009Y-118708780D02*
X39612009Y-117708780D01*
X39707247Y-117851638D01*
X39802485Y-117946876D01*
X39897723Y-117994495D01*
G04 #@! TO.C,D72*
X48482685Y-123915780D02*
X48482685Y-122915780D01*
X48244590Y-122915780D01*
X48101733Y-122963400D01*
X48006495Y-123058638D01*
X47958876Y-123153876D01*
X47911257Y-123344352D01*
X47911257Y-123487209D01*
X47958876Y-123677685D01*
X48006495Y-123772923D01*
X48101733Y-123868161D01*
X48244590Y-123915780D01*
X48482685Y-123915780D01*
X47577923Y-122915780D02*
X46911257Y-122915780D01*
X47339828Y-123915780D01*
X46577923Y-123011019D02*
X46530304Y-122963400D01*
X46435066Y-122915780D01*
X46196971Y-122915780D01*
X46101733Y-122963400D01*
X46054114Y-123011019D01*
X46006495Y-123106257D01*
X46006495Y-123201495D01*
X46054114Y-123344352D01*
X46625542Y-123915780D01*
X46006495Y-123915780D01*
G04 #@! TO.C,D73*
X55214685Y-128843380D02*
X55214685Y-127843380D01*
X54976590Y-127843380D01*
X54833733Y-127891000D01*
X54738495Y-127986238D01*
X54690876Y-128081476D01*
X54643257Y-128271952D01*
X54643257Y-128414809D01*
X54690876Y-128605285D01*
X54738495Y-128700523D01*
X54833733Y-128795761D01*
X54976590Y-128843380D01*
X55214685Y-128843380D01*
X54309923Y-127843380D02*
X53643257Y-127843380D01*
X54071828Y-128843380D01*
X53357542Y-127843380D02*
X52738495Y-127843380D01*
X53071828Y-128224333D01*
X52928971Y-128224333D01*
X52833733Y-128271952D01*
X52786114Y-128319571D01*
X52738495Y-128414809D01*
X52738495Y-128652904D01*
X52786114Y-128748142D01*
X52833733Y-128795761D01*
X52928971Y-128843380D01*
X53214685Y-128843380D01*
X53309923Y-128795761D01*
X53357542Y-128748142D01*
G04 #@! TO.C,D74*
X67661685Y-106415180D02*
X67661685Y-105415180D01*
X67423590Y-105415180D01*
X67280733Y-105462800D01*
X67185495Y-105558038D01*
X67137876Y-105653276D01*
X67090257Y-105843752D01*
X67090257Y-105986609D01*
X67137876Y-106177085D01*
X67185495Y-106272323D01*
X67280733Y-106367561D01*
X67423590Y-106415180D01*
X67661685Y-106415180D01*
X66756923Y-105415180D02*
X66090257Y-105415180D01*
X66518828Y-106415180D01*
X65280733Y-105748514D02*
X65280733Y-106415180D01*
X65518828Y-105367561D02*
X65756923Y-106081847D01*
X65137876Y-106081847D01*
G04 #@! TO.C,R4*
X40758166Y-119789180D02*
X41091500Y-119312990D01*
X41329595Y-119789180D02*
X41329595Y-118789180D01*
X40948642Y-118789180D01*
X40853404Y-118836800D01*
X40805785Y-118884419D01*
X40758166Y-118979657D01*
X40758166Y-119122514D01*
X40805785Y-119217752D01*
X40853404Y-119265371D01*
X40948642Y-119312990D01*
X41329595Y-119312990D01*
X39901023Y-119122514D02*
X39901023Y-119789180D01*
X40139119Y-118741561D02*
X40377214Y-119455847D01*
X39758166Y-119455847D01*
G04 #@! TO.C,R5*
X47412966Y-124894580D02*
X47746300Y-124418390D01*
X47984395Y-124894580D02*
X47984395Y-123894580D01*
X47603442Y-123894580D01*
X47508204Y-123942200D01*
X47460585Y-123989819D01*
X47412966Y-124085057D01*
X47412966Y-124227914D01*
X47460585Y-124323152D01*
X47508204Y-124370771D01*
X47603442Y-124418390D01*
X47984395Y-124418390D01*
X46508204Y-123894580D02*
X46984395Y-123894580D01*
X47032014Y-124370771D01*
X46984395Y-124323152D01*
X46889157Y-124275533D01*
X46651061Y-124275533D01*
X46555823Y-124323152D01*
X46508204Y-124370771D01*
X46460585Y-124466009D01*
X46460585Y-124704104D01*
X46508204Y-124799342D01*
X46555823Y-124846961D01*
X46651061Y-124894580D01*
X46889157Y-124894580D01*
X46984395Y-124846961D01*
X47032014Y-124799342D01*
G04 #@! TO.C,R6*
X54067766Y-129999980D02*
X54401100Y-129523790D01*
X54639195Y-129999980D02*
X54639195Y-128999980D01*
X54258242Y-128999980D01*
X54163004Y-129047600D01*
X54115385Y-129095219D01*
X54067766Y-129190457D01*
X54067766Y-129333314D01*
X54115385Y-129428552D01*
X54163004Y-129476171D01*
X54258242Y-129523790D01*
X54639195Y-129523790D01*
X53210623Y-128999980D02*
X53401100Y-128999980D01*
X53496338Y-129047600D01*
X53543957Y-129095219D01*
X53639195Y-129238076D01*
X53686814Y-129428552D01*
X53686814Y-129809504D01*
X53639195Y-129904742D01*
X53591576Y-129952361D01*
X53496338Y-129999980D01*
X53305861Y-129999980D01*
X53210623Y-129952361D01*
X53163004Y-129904742D01*
X53115385Y-129809504D01*
X53115385Y-129571409D01*
X53163004Y-129476171D01*
X53210623Y-129428552D01*
X53305861Y-129380933D01*
X53496338Y-129380933D01*
X53591576Y-129428552D01*
X53639195Y-129476171D01*
X53686814Y-129571409D01*
G04 #@! TO.C,R7*
X60595566Y-135054580D02*
X60928900Y-134578390D01*
X61166995Y-135054580D02*
X61166995Y-134054580D01*
X60786042Y-134054580D01*
X60690804Y-134102200D01*
X60643185Y-134149819D01*
X60595566Y-134245057D01*
X60595566Y-134387914D01*
X60643185Y-134483152D01*
X60690804Y-134530771D01*
X60786042Y-134578390D01*
X61166995Y-134578390D01*
X60262233Y-134054580D02*
X59595566Y-134054580D01*
X60024138Y-135054580D01*
G04 #@! TO.C,R8*
X74918866Y-112854980D02*
X75252200Y-112378790D01*
X75490295Y-112854980D02*
X75490295Y-111854980D01*
X75109342Y-111854980D01*
X75014104Y-111902600D01*
X74966485Y-111950219D01*
X74918866Y-112045457D01*
X74918866Y-112188314D01*
X74966485Y-112283552D01*
X75014104Y-112331171D01*
X75109342Y-112378790D01*
X75490295Y-112378790D01*
X74347438Y-112283552D02*
X74442676Y-112235933D01*
X74490295Y-112188314D01*
X74537914Y-112093076D01*
X74537914Y-112045457D01*
X74490295Y-111950219D01*
X74442676Y-111902600D01*
X74347438Y-111854980D01*
X74156961Y-111854980D01*
X74061723Y-111902600D01*
X74014104Y-111950219D01*
X73966485Y-112045457D01*
X73966485Y-112093076D01*
X74014104Y-112188314D01*
X74061723Y-112235933D01*
X74156961Y-112283552D01*
X74347438Y-112283552D01*
X74442676Y-112331171D01*
X74490295Y-112378790D01*
X74537914Y-112474028D01*
X74537914Y-112664504D01*
X74490295Y-112759742D01*
X74442676Y-112807361D01*
X74347438Y-112854980D01*
X74156961Y-112854980D01*
X74061723Y-112807361D01*
X74014104Y-112759742D01*
X73966485Y-112664504D01*
X73966485Y-112474028D01*
X74014104Y-112378790D01*
X74061723Y-112331171D01*
X74156961Y-112283552D01*
G04 #@! TO.C,R9*
X47412966Y-119789180D02*
X47746300Y-119312990D01*
X47984395Y-119789180D02*
X47984395Y-118789180D01*
X47603442Y-118789180D01*
X47508204Y-118836800D01*
X47460585Y-118884419D01*
X47412966Y-118979657D01*
X47412966Y-119122514D01*
X47460585Y-119217752D01*
X47508204Y-119265371D01*
X47603442Y-119312990D01*
X47984395Y-119312990D01*
X46936776Y-119789180D02*
X46746300Y-119789180D01*
X46651061Y-119741561D01*
X46603442Y-119693942D01*
X46508204Y-119551085D01*
X46460585Y-119360609D01*
X46460585Y-118979657D01*
X46508204Y-118884419D01*
X46555823Y-118836800D01*
X46651061Y-118789180D01*
X46841538Y-118789180D01*
X46936776Y-118836800D01*
X46984395Y-118884419D01*
X47032014Y-118979657D01*
X47032014Y-119217752D01*
X46984395Y-119312990D01*
X46936776Y-119360609D01*
X46841538Y-119408228D01*
X46651061Y-119408228D01*
X46555823Y-119360609D01*
X46508204Y-119312990D01*
X46460585Y-119217752D01*
G04 #@! TO.C,R10*
X54569357Y-124894580D02*
X54902690Y-124418390D01*
X55140785Y-124894580D02*
X55140785Y-123894580D01*
X54759833Y-123894580D01*
X54664595Y-123942200D01*
X54616976Y-123989819D01*
X54569357Y-124085057D01*
X54569357Y-124227914D01*
X54616976Y-124323152D01*
X54664595Y-124370771D01*
X54759833Y-124418390D01*
X55140785Y-124418390D01*
X53616976Y-124894580D02*
X54188404Y-124894580D01*
X53902690Y-124894580D02*
X53902690Y-123894580D01*
X53997928Y-124037438D01*
X54093166Y-124132676D01*
X54188404Y-124180295D01*
X52997928Y-123894580D02*
X52902690Y-123894580D01*
X52807452Y-123942200D01*
X52759833Y-123989819D01*
X52712214Y-124085057D01*
X52664595Y-124275533D01*
X52664595Y-124513628D01*
X52712214Y-124704104D01*
X52759833Y-124799342D01*
X52807452Y-124846961D01*
X52902690Y-124894580D01*
X52997928Y-124894580D01*
X53093166Y-124846961D01*
X53140785Y-124799342D01*
X53188404Y-124704104D01*
X53236023Y-124513628D01*
X53236023Y-124275533D01*
X53188404Y-124085057D01*
X53140785Y-123989819D01*
X53093166Y-123942200D01*
X52997928Y-123894580D01*
G04 #@! TO.C,R11*
X61224157Y-129999980D02*
X61557490Y-129523790D01*
X61795585Y-129999980D02*
X61795585Y-128999980D01*
X61414633Y-128999980D01*
X61319395Y-129047600D01*
X61271776Y-129095219D01*
X61224157Y-129190457D01*
X61224157Y-129333314D01*
X61271776Y-129428552D01*
X61319395Y-129476171D01*
X61414633Y-129523790D01*
X61795585Y-129523790D01*
X60271776Y-129999980D02*
X60843204Y-129999980D01*
X60557490Y-129999980D02*
X60557490Y-128999980D01*
X60652728Y-129142838D01*
X60747966Y-129238076D01*
X60843204Y-129285695D01*
X59319395Y-129999980D02*
X59890823Y-129999980D01*
X59605109Y-129999980D02*
X59605109Y-128999980D01*
X59700347Y-129142838D01*
X59795585Y-129238076D01*
X59890823Y-129285695D01*
G04 #@! TO.C,R12*
X67726557Y-135105380D02*
X68059890Y-134629190D01*
X68297985Y-135105380D02*
X68297985Y-134105380D01*
X67917033Y-134105380D01*
X67821795Y-134153000D01*
X67774176Y-134200619D01*
X67726557Y-134295857D01*
X67726557Y-134438714D01*
X67774176Y-134533952D01*
X67821795Y-134581571D01*
X67917033Y-134629190D01*
X68297985Y-134629190D01*
X66774176Y-135105380D02*
X67345604Y-135105380D01*
X67059890Y-135105380D02*
X67059890Y-134105380D01*
X67155128Y-134248238D01*
X67250366Y-134343476D01*
X67345604Y-134391095D01*
X66393223Y-134200619D02*
X66345604Y-134153000D01*
X66250366Y-134105380D01*
X66012271Y-134105380D01*
X65917033Y-134153000D01*
X65869414Y-134200619D01*
X65821795Y-134295857D01*
X65821795Y-134391095D01*
X65869414Y-134533952D01*
X66440842Y-135105380D01*
X65821795Y-135105380D01*
G04 #@! TO.C,R13*
X83601557Y-112829580D02*
X83934890Y-112353390D01*
X84172985Y-112829580D02*
X84172985Y-111829580D01*
X83792033Y-111829580D01*
X83696795Y-111877200D01*
X83649176Y-111924819D01*
X83601557Y-112020057D01*
X83601557Y-112162914D01*
X83649176Y-112258152D01*
X83696795Y-112305771D01*
X83792033Y-112353390D01*
X84172985Y-112353390D01*
X82649176Y-112829580D02*
X83220604Y-112829580D01*
X82934890Y-112829580D02*
X82934890Y-111829580D01*
X83030128Y-111972438D01*
X83125366Y-112067676D01*
X83220604Y-112115295D01*
X82315842Y-111829580D02*
X81696795Y-111829580D01*
X82030128Y-112210533D01*
X81887271Y-112210533D01*
X81792033Y-112258152D01*
X81744414Y-112305771D01*
X81696795Y-112401009D01*
X81696795Y-112639104D01*
X81744414Y-112734342D01*
X81792033Y-112781961D01*
X81887271Y-112829580D01*
X82172985Y-112829580D01*
X82268223Y-112781961D01*
X82315842Y-112734342D01*
G04 #@! TO.C,R14*
X54569357Y-119789180D02*
X54902690Y-119312990D01*
X55140785Y-119789180D02*
X55140785Y-118789180D01*
X54759833Y-118789180D01*
X54664595Y-118836800D01*
X54616976Y-118884419D01*
X54569357Y-118979657D01*
X54569357Y-119122514D01*
X54616976Y-119217752D01*
X54664595Y-119265371D01*
X54759833Y-119312990D01*
X55140785Y-119312990D01*
X53616976Y-119789180D02*
X54188404Y-119789180D01*
X53902690Y-119789180D02*
X53902690Y-118789180D01*
X53997928Y-118932038D01*
X54093166Y-119027276D01*
X54188404Y-119074895D01*
X52759833Y-119122514D02*
X52759833Y-119789180D01*
X52997928Y-118741561D02*
X53236023Y-119455847D01*
X52616976Y-119455847D01*
G04 #@! TO.C,R15*
X61224157Y-124894580D02*
X61557490Y-124418390D01*
X61795585Y-124894580D02*
X61795585Y-123894580D01*
X61414633Y-123894580D01*
X61319395Y-123942200D01*
X61271776Y-123989819D01*
X61224157Y-124085057D01*
X61224157Y-124227914D01*
X61271776Y-124323152D01*
X61319395Y-124370771D01*
X61414633Y-124418390D01*
X61795585Y-124418390D01*
X60271776Y-124894580D02*
X60843204Y-124894580D01*
X60557490Y-124894580D02*
X60557490Y-123894580D01*
X60652728Y-124037438D01*
X60747966Y-124132676D01*
X60843204Y-124180295D01*
X59367014Y-123894580D02*
X59843204Y-123894580D01*
X59890823Y-124370771D01*
X59843204Y-124323152D01*
X59747966Y-124275533D01*
X59509871Y-124275533D01*
X59414633Y-124323152D01*
X59367014Y-124370771D01*
X59319395Y-124466009D01*
X59319395Y-124704104D01*
X59367014Y-124799342D01*
X59414633Y-124846961D01*
X59509871Y-124894580D01*
X59747966Y-124894580D01*
X59843204Y-124846961D01*
X59890823Y-124799342D01*
G04 #@! TO.C,R16*
X67904357Y-129974580D02*
X68237690Y-129498390D01*
X68475785Y-129974580D02*
X68475785Y-128974580D01*
X68094833Y-128974580D01*
X67999595Y-129022200D01*
X67951976Y-129069819D01*
X67904357Y-129165057D01*
X67904357Y-129307914D01*
X67951976Y-129403152D01*
X67999595Y-129450771D01*
X68094833Y-129498390D01*
X68475785Y-129498390D01*
X66951976Y-129974580D02*
X67523404Y-129974580D01*
X67237690Y-129974580D02*
X67237690Y-128974580D01*
X67332928Y-129117438D01*
X67428166Y-129212676D01*
X67523404Y-129260295D01*
X66094833Y-128974580D02*
X66285309Y-128974580D01*
X66380547Y-129022200D01*
X66428166Y-129069819D01*
X66523404Y-129212676D01*
X66571023Y-129403152D01*
X66571023Y-129784104D01*
X66523404Y-129879342D01*
X66475785Y-129926961D01*
X66380547Y-129974580D01*
X66190071Y-129974580D01*
X66094833Y-129926961D01*
X66047214Y-129879342D01*
X65999595Y-129784104D01*
X65999595Y-129546009D01*
X66047214Y-129450771D01*
X66094833Y-129403152D01*
X66190071Y-129355533D01*
X66380547Y-129355533D01*
X66475785Y-129403152D01*
X66523404Y-129450771D01*
X66571023Y-129546009D01*
G04 #@! TO.C,R17*
X74531457Y-135054580D02*
X74864790Y-134578390D01*
X75102885Y-135054580D02*
X75102885Y-134054580D01*
X74721933Y-134054580D01*
X74626695Y-134102200D01*
X74579076Y-134149819D01*
X74531457Y-134245057D01*
X74531457Y-134387914D01*
X74579076Y-134483152D01*
X74626695Y-134530771D01*
X74721933Y-134578390D01*
X75102885Y-134578390D01*
X73579076Y-135054580D02*
X74150504Y-135054580D01*
X73864790Y-135054580D02*
X73864790Y-134054580D01*
X73960028Y-134197438D01*
X74055266Y-134292676D01*
X74150504Y-134340295D01*
X73245742Y-134054580D02*
X72579076Y-134054580D01*
X73007647Y-135054580D01*
G04 #@! TO.C,R18*
X91932757Y-112778780D02*
X92266090Y-112302590D01*
X92504185Y-112778780D02*
X92504185Y-111778780D01*
X92123233Y-111778780D01*
X92027995Y-111826400D01*
X91980376Y-111874019D01*
X91932757Y-111969257D01*
X91932757Y-112112114D01*
X91980376Y-112207352D01*
X92027995Y-112254971D01*
X92123233Y-112302590D01*
X92504185Y-112302590D01*
X90980376Y-112778780D02*
X91551804Y-112778780D01*
X91266090Y-112778780D02*
X91266090Y-111778780D01*
X91361328Y-111921638D01*
X91456566Y-112016876D01*
X91551804Y-112064495D01*
X90408947Y-112207352D02*
X90504185Y-112159733D01*
X90551804Y-112112114D01*
X90599423Y-112016876D01*
X90599423Y-111969257D01*
X90551804Y-111874019D01*
X90504185Y-111826400D01*
X90408947Y-111778780D01*
X90218471Y-111778780D01*
X90123233Y-111826400D01*
X90075614Y-111874019D01*
X90027995Y-111969257D01*
X90027995Y-112016876D01*
X90075614Y-112112114D01*
X90123233Y-112159733D01*
X90218471Y-112207352D01*
X90408947Y-112207352D01*
X90504185Y-112254971D01*
X90551804Y-112302590D01*
X90599423Y-112397828D01*
X90599423Y-112588304D01*
X90551804Y-112683542D01*
X90504185Y-112731161D01*
X90408947Y-112778780D01*
X90218471Y-112778780D01*
X90123233Y-112731161D01*
X90075614Y-112683542D01*
X90027995Y-112588304D01*
X90027995Y-112397828D01*
X90075614Y-112302590D01*
X90123233Y-112254971D01*
X90218471Y-112207352D01*
G04 #@! TO.C,R19*
X61249557Y-119789180D02*
X61582890Y-119312990D01*
X61820985Y-119789180D02*
X61820985Y-118789180D01*
X61440033Y-118789180D01*
X61344795Y-118836800D01*
X61297176Y-118884419D01*
X61249557Y-118979657D01*
X61249557Y-119122514D01*
X61297176Y-119217752D01*
X61344795Y-119265371D01*
X61440033Y-119312990D01*
X61820985Y-119312990D01*
X60297176Y-119789180D02*
X60868604Y-119789180D01*
X60582890Y-119789180D02*
X60582890Y-118789180D01*
X60678128Y-118932038D01*
X60773366Y-119027276D01*
X60868604Y-119074895D01*
X59820985Y-119789180D02*
X59630509Y-119789180D01*
X59535271Y-119741561D01*
X59487652Y-119693942D01*
X59392414Y-119551085D01*
X59344795Y-119360609D01*
X59344795Y-118979657D01*
X59392414Y-118884419D01*
X59440033Y-118836800D01*
X59535271Y-118789180D01*
X59725747Y-118789180D01*
X59820985Y-118836800D01*
X59868604Y-118884419D01*
X59916223Y-118979657D01*
X59916223Y-119217752D01*
X59868604Y-119312990D01*
X59820985Y-119360609D01*
X59725747Y-119408228D01*
X59535271Y-119408228D01*
X59440033Y-119360609D01*
X59392414Y-119312990D01*
X59344795Y-119217752D01*
G04 #@! TO.C,R20*
X67878957Y-124869180D02*
X68212290Y-124392990D01*
X68450385Y-124869180D02*
X68450385Y-123869180D01*
X68069433Y-123869180D01*
X67974195Y-123916800D01*
X67926576Y-123964419D01*
X67878957Y-124059657D01*
X67878957Y-124202514D01*
X67926576Y-124297752D01*
X67974195Y-124345371D01*
X68069433Y-124392990D01*
X68450385Y-124392990D01*
X67498004Y-123964419D02*
X67450385Y-123916800D01*
X67355147Y-123869180D01*
X67117052Y-123869180D01*
X67021814Y-123916800D01*
X66974195Y-123964419D01*
X66926576Y-124059657D01*
X66926576Y-124154895D01*
X66974195Y-124297752D01*
X67545623Y-124869180D01*
X66926576Y-124869180D01*
X66307528Y-123869180D02*
X66212290Y-123869180D01*
X66117052Y-123916800D01*
X66069433Y-123964419D01*
X66021814Y-124059657D01*
X65974195Y-124250133D01*
X65974195Y-124488228D01*
X66021814Y-124678704D01*
X66069433Y-124773942D01*
X66117052Y-124821561D01*
X66212290Y-124869180D01*
X66307528Y-124869180D01*
X66402766Y-124821561D01*
X66450385Y-124773942D01*
X66498004Y-124678704D01*
X66545623Y-124488228D01*
X66545623Y-124250133D01*
X66498004Y-124059657D01*
X66450385Y-123964419D01*
X66402766Y-123916800D01*
X66307528Y-123869180D01*
G04 #@! TO.C,R21*
X74609957Y-129974580D02*
X74943290Y-129498390D01*
X75181385Y-129974580D02*
X75181385Y-128974580D01*
X74800433Y-128974580D01*
X74705195Y-129022200D01*
X74657576Y-129069819D01*
X74609957Y-129165057D01*
X74609957Y-129307914D01*
X74657576Y-129403152D01*
X74705195Y-129450771D01*
X74800433Y-129498390D01*
X75181385Y-129498390D01*
X74229004Y-129069819D02*
X74181385Y-129022200D01*
X74086147Y-128974580D01*
X73848052Y-128974580D01*
X73752814Y-129022200D01*
X73705195Y-129069819D01*
X73657576Y-129165057D01*
X73657576Y-129260295D01*
X73705195Y-129403152D01*
X74276623Y-129974580D01*
X73657576Y-129974580D01*
X72705195Y-129974580D02*
X73276623Y-129974580D01*
X72990909Y-129974580D02*
X72990909Y-128974580D01*
X73086147Y-129117438D01*
X73181385Y-129212676D01*
X73276623Y-129260295D01*
G04 #@! TO.C,R22*
X81315557Y-135105380D02*
X81648890Y-134629190D01*
X81886985Y-135105380D02*
X81886985Y-134105380D01*
X81506033Y-134105380D01*
X81410795Y-134153000D01*
X81363176Y-134200619D01*
X81315557Y-134295857D01*
X81315557Y-134438714D01*
X81363176Y-134533952D01*
X81410795Y-134581571D01*
X81506033Y-134629190D01*
X81886985Y-134629190D01*
X80934604Y-134200619D02*
X80886985Y-134153000D01*
X80791747Y-134105380D01*
X80553652Y-134105380D01*
X80458414Y-134153000D01*
X80410795Y-134200619D01*
X80363176Y-134295857D01*
X80363176Y-134391095D01*
X80410795Y-134533952D01*
X80982223Y-135105380D01*
X80363176Y-135105380D01*
X79982223Y-134200619D02*
X79934604Y-134153000D01*
X79839366Y-134105380D01*
X79601271Y-134105380D01*
X79506033Y-134153000D01*
X79458414Y-134200619D01*
X79410795Y-134295857D01*
X79410795Y-134391095D01*
X79458414Y-134533952D01*
X80029842Y-135105380D01*
X79410795Y-135105380D01*
G04 #@! TO.C,R23*
X100314757Y-112727980D02*
X100648090Y-112251790D01*
X100886185Y-112727980D02*
X100886185Y-111727980D01*
X100505233Y-111727980D01*
X100409995Y-111775600D01*
X100362376Y-111823219D01*
X100314757Y-111918457D01*
X100314757Y-112061314D01*
X100362376Y-112156552D01*
X100409995Y-112204171D01*
X100505233Y-112251790D01*
X100886185Y-112251790D01*
X99933804Y-111823219D02*
X99886185Y-111775600D01*
X99790947Y-111727980D01*
X99552852Y-111727980D01*
X99457614Y-111775600D01*
X99409995Y-111823219D01*
X99362376Y-111918457D01*
X99362376Y-112013695D01*
X99409995Y-112156552D01*
X99981423Y-112727980D01*
X99362376Y-112727980D01*
X99029042Y-111727980D02*
X98409995Y-111727980D01*
X98743328Y-112108933D01*
X98600471Y-112108933D01*
X98505233Y-112156552D01*
X98457614Y-112204171D01*
X98409995Y-112299409D01*
X98409995Y-112537504D01*
X98457614Y-112632742D01*
X98505233Y-112680361D01*
X98600471Y-112727980D01*
X98886185Y-112727980D01*
X98981423Y-112680361D01*
X99029042Y-112632742D01*
G04 #@! TO.C,R24*
X67878957Y-119763780D02*
X68212290Y-119287590D01*
X68450385Y-119763780D02*
X68450385Y-118763780D01*
X68069433Y-118763780D01*
X67974195Y-118811400D01*
X67926576Y-118859019D01*
X67878957Y-118954257D01*
X67878957Y-119097114D01*
X67926576Y-119192352D01*
X67974195Y-119239971D01*
X68069433Y-119287590D01*
X68450385Y-119287590D01*
X67498004Y-118859019D02*
X67450385Y-118811400D01*
X67355147Y-118763780D01*
X67117052Y-118763780D01*
X67021814Y-118811400D01*
X66974195Y-118859019D01*
X66926576Y-118954257D01*
X66926576Y-119049495D01*
X66974195Y-119192352D01*
X67545623Y-119763780D01*
X66926576Y-119763780D01*
X66069433Y-119097114D02*
X66069433Y-119763780D01*
X66307528Y-118716161D02*
X66545623Y-119430447D01*
X65926576Y-119430447D01*
G04 #@! TO.C,R25*
X74556857Y-124869180D02*
X74890190Y-124392990D01*
X75128285Y-124869180D02*
X75128285Y-123869180D01*
X74747333Y-123869180D01*
X74652095Y-123916800D01*
X74604476Y-123964419D01*
X74556857Y-124059657D01*
X74556857Y-124202514D01*
X74604476Y-124297752D01*
X74652095Y-124345371D01*
X74747333Y-124392990D01*
X75128285Y-124392990D01*
X74175904Y-123964419D02*
X74128285Y-123916800D01*
X74033047Y-123869180D01*
X73794952Y-123869180D01*
X73699714Y-123916800D01*
X73652095Y-123964419D01*
X73604476Y-124059657D01*
X73604476Y-124154895D01*
X73652095Y-124297752D01*
X74223523Y-124869180D01*
X73604476Y-124869180D01*
X72699714Y-123869180D02*
X73175904Y-123869180D01*
X73223523Y-124345371D01*
X73175904Y-124297752D01*
X73080666Y-124250133D01*
X72842571Y-124250133D01*
X72747333Y-124297752D01*
X72699714Y-124345371D01*
X72652095Y-124440609D01*
X72652095Y-124678704D01*
X72699714Y-124773942D01*
X72747333Y-124821561D01*
X72842571Y-124869180D01*
X73080666Y-124869180D01*
X73175904Y-124821561D01*
X73223523Y-124773942D01*
G04 #@! TO.C,R26*
X81188557Y-129923780D02*
X81521890Y-129447590D01*
X81759985Y-129923780D02*
X81759985Y-128923780D01*
X81379033Y-128923780D01*
X81283795Y-128971400D01*
X81236176Y-129019019D01*
X81188557Y-129114257D01*
X81188557Y-129257114D01*
X81236176Y-129352352D01*
X81283795Y-129399971D01*
X81379033Y-129447590D01*
X81759985Y-129447590D01*
X80807604Y-129019019D02*
X80759985Y-128971400D01*
X80664747Y-128923780D01*
X80426652Y-128923780D01*
X80331414Y-128971400D01*
X80283795Y-129019019D01*
X80236176Y-129114257D01*
X80236176Y-129209495D01*
X80283795Y-129352352D01*
X80855223Y-129923780D01*
X80236176Y-129923780D01*
X79379033Y-128923780D02*
X79569509Y-128923780D01*
X79664747Y-128971400D01*
X79712366Y-129019019D01*
X79807604Y-129161876D01*
X79855223Y-129352352D01*
X79855223Y-129733304D01*
X79807604Y-129828542D01*
X79759985Y-129876161D01*
X79664747Y-129923780D01*
X79474271Y-129923780D01*
X79379033Y-129876161D01*
X79331414Y-129828542D01*
X79283795Y-129733304D01*
X79283795Y-129495209D01*
X79331414Y-129399971D01*
X79379033Y-129352352D01*
X79474271Y-129304733D01*
X79664747Y-129304733D01*
X79759985Y-129352352D01*
X79807604Y-129399971D01*
X79855223Y-129495209D01*
G04 #@! TO.C,R27*
X87995757Y-135079980D02*
X88329090Y-134603790D01*
X88567185Y-135079980D02*
X88567185Y-134079980D01*
X88186233Y-134079980D01*
X88090995Y-134127600D01*
X88043376Y-134175219D01*
X87995757Y-134270457D01*
X87995757Y-134413314D01*
X88043376Y-134508552D01*
X88090995Y-134556171D01*
X88186233Y-134603790D01*
X88567185Y-134603790D01*
X87614804Y-134175219D02*
X87567185Y-134127600D01*
X87471947Y-134079980D01*
X87233852Y-134079980D01*
X87138614Y-134127600D01*
X87090995Y-134175219D01*
X87043376Y-134270457D01*
X87043376Y-134365695D01*
X87090995Y-134508552D01*
X87662423Y-135079980D01*
X87043376Y-135079980D01*
X86710042Y-134079980D02*
X86043376Y-134079980D01*
X86471947Y-135079980D01*
G04 #@! TO.C,R28*
X108620557Y-112727980D02*
X108953890Y-112251790D01*
X109191985Y-112727980D02*
X109191985Y-111727980D01*
X108811033Y-111727980D01*
X108715795Y-111775600D01*
X108668176Y-111823219D01*
X108620557Y-111918457D01*
X108620557Y-112061314D01*
X108668176Y-112156552D01*
X108715795Y-112204171D01*
X108811033Y-112251790D01*
X109191985Y-112251790D01*
X108239604Y-111823219D02*
X108191985Y-111775600D01*
X108096747Y-111727980D01*
X107858652Y-111727980D01*
X107763414Y-111775600D01*
X107715795Y-111823219D01*
X107668176Y-111918457D01*
X107668176Y-112013695D01*
X107715795Y-112156552D01*
X108287223Y-112727980D01*
X107668176Y-112727980D01*
X107096747Y-112156552D02*
X107191985Y-112108933D01*
X107239604Y-112061314D01*
X107287223Y-111966076D01*
X107287223Y-111918457D01*
X107239604Y-111823219D01*
X107191985Y-111775600D01*
X107096747Y-111727980D01*
X106906271Y-111727980D01*
X106811033Y-111775600D01*
X106763414Y-111823219D01*
X106715795Y-111918457D01*
X106715795Y-111966076D01*
X106763414Y-112061314D01*
X106811033Y-112108933D01*
X106906271Y-112156552D01*
X107096747Y-112156552D01*
X107191985Y-112204171D01*
X107239604Y-112251790D01*
X107287223Y-112347028D01*
X107287223Y-112537504D01*
X107239604Y-112632742D01*
X107191985Y-112680361D01*
X107096747Y-112727980D01*
X106906271Y-112727980D01*
X106811033Y-112680361D01*
X106763414Y-112632742D01*
X106715795Y-112537504D01*
X106715795Y-112347028D01*
X106763414Y-112251790D01*
X106811033Y-112204171D01*
X106906271Y-112156552D01*
G04 #@! TO.C,R29*
X74559157Y-119789180D02*
X74892490Y-119312990D01*
X75130585Y-119789180D02*
X75130585Y-118789180D01*
X74749633Y-118789180D01*
X74654395Y-118836800D01*
X74606776Y-118884419D01*
X74559157Y-118979657D01*
X74559157Y-119122514D01*
X74606776Y-119217752D01*
X74654395Y-119265371D01*
X74749633Y-119312990D01*
X75130585Y-119312990D01*
X74178204Y-118884419D02*
X74130585Y-118836800D01*
X74035347Y-118789180D01*
X73797252Y-118789180D01*
X73702014Y-118836800D01*
X73654395Y-118884419D01*
X73606776Y-118979657D01*
X73606776Y-119074895D01*
X73654395Y-119217752D01*
X74225823Y-119789180D01*
X73606776Y-119789180D01*
X73130585Y-119789180D02*
X72940109Y-119789180D01*
X72844871Y-119741561D01*
X72797252Y-119693942D01*
X72702014Y-119551085D01*
X72654395Y-119360609D01*
X72654395Y-118979657D01*
X72702014Y-118884419D01*
X72749633Y-118836800D01*
X72844871Y-118789180D01*
X73035347Y-118789180D01*
X73130585Y-118836800D01*
X73178204Y-118884419D01*
X73225823Y-118979657D01*
X73225823Y-119217752D01*
X73178204Y-119312990D01*
X73130585Y-119360609D01*
X73035347Y-119408228D01*
X72844871Y-119408228D01*
X72749633Y-119360609D01*
X72702014Y-119312990D01*
X72654395Y-119217752D01*
G04 #@! TO.C,R30*
X81213957Y-124919980D02*
X81547290Y-124443790D01*
X81785385Y-124919980D02*
X81785385Y-123919980D01*
X81404433Y-123919980D01*
X81309195Y-123967600D01*
X81261576Y-124015219D01*
X81213957Y-124110457D01*
X81213957Y-124253314D01*
X81261576Y-124348552D01*
X81309195Y-124396171D01*
X81404433Y-124443790D01*
X81785385Y-124443790D01*
X80880623Y-123919980D02*
X80261576Y-123919980D01*
X80594909Y-124300933D01*
X80452052Y-124300933D01*
X80356814Y-124348552D01*
X80309195Y-124396171D01*
X80261576Y-124491409D01*
X80261576Y-124729504D01*
X80309195Y-124824742D01*
X80356814Y-124872361D01*
X80452052Y-124919980D01*
X80737766Y-124919980D01*
X80833004Y-124872361D01*
X80880623Y-124824742D01*
X79642528Y-123919980D02*
X79547290Y-123919980D01*
X79452052Y-123967600D01*
X79404433Y-124015219D01*
X79356814Y-124110457D01*
X79309195Y-124300933D01*
X79309195Y-124539028D01*
X79356814Y-124729504D01*
X79404433Y-124824742D01*
X79452052Y-124872361D01*
X79547290Y-124919980D01*
X79642528Y-124919980D01*
X79737766Y-124872361D01*
X79785385Y-124824742D01*
X79833004Y-124729504D01*
X79880623Y-124539028D01*
X79880623Y-124300933D01*
X79833004Y-124110457D01*
X79785385Y-124015219D01*
X79737766Y-123967600D01*
X79642528Y-123919980D01*
G04 #@! TO.C,R31*
X87919557Y-129999980D02*
X88252890Y-129523790D01*
X88490985Y-129999980D02*
X88490985Y-128999980D01*
X88110033Y-128999980D01*
X88014795Y-129047600D01*
X87967176Y-129095219D01*
X87919557Y-129190457D01*
X87919557Y-129333314D01*
X87967176Y-129428552D01*
X88014795Y-129476171D01*
X88110033Y-129523790D01*
X88490985Y-129523790D01*
X87586223Y-128999980D02*
X86967176Y-128999980D01*
X87300509Y-129380933D01*
X87157652Y-129380933D01*
X87062414Y-129428552D01*
X87014795Y-129476171D01*
X86967176Y-129571409D01*
X86967176Y-129809504D01*
X87014795Y-129904742D01*
X87062414Y-129952361D01*
X87157652Y-129999980D01*
X87443366Y-129999980D01*
X87538604Y-129952361D01*
X87586223Y-129904742D01*
X86014795Y-129999980D02*
X86586223Y-129999980D01*
X86300509Y-129999980D02*
X86300509Y-128999980D01*
X86395747Y-129142838D01*
X86490985Y-129238076D01*
X86586223Y-129285695D01*
G04 #@! TO.C,R32*
X94472757Y-135079980D02*
X94806090Y-134603790D01*
X95044185Y-135079980D02*
X95044185Y-134079980D01*
X94663233Y-134079980D01*
X94567995Y-134127600D01*
X94520376Y-134175219D01*
X94472757Y-134270457D01*
X94472757Y-134413314D01*
X94520376Y-134508552D01*
X94567995Y-134556171D01*
X94663233Y-134603790D01*
X95044185Y-134603790D01*
X94139423Y-134079980D02*
X93520376Y-134079980D01*
X93853709Y-134460933D01*
X93710852Y-134460933D01*
X93615614Y-134508552D01*
X93567995Y-134556171D01*
X93520376Y-134651409D01*
X93520376Y-134889504D01*
X93567995Y-134984742D01*
X93615614Y-135032361D01*
X93710852Y-135079980D01*
X93996566Y-135079980D01*
X94091804Y-135032361D01*
X94139423Y-134984742D01*
X93139423Y-134175219D02*
X93091804Y-134127600D01*
X92996566Y-134079980D01*
X92758471Y-134079980D01*
X92663233Y-134127600D01*
X92615614Y-134175219D01*
X92567995Y-134270457D01*
X92567995Y-134365695D01*
X92615614Y-134508552D01*
X93187042Y-135079980D01*
X92567995Y-135079980D01*
G04 #@! TO.C,R33*
X117154957Y-112651780D02*
X117488290Y-112175590D01*
X117726385Y-112651780D02*
X117726385Y-111651780D01*
X117345433Y-111651780D01*
X117250195Y-111699400D01*
X117202576Y-111747019D01*
X117154957Y-111842257D01*
X117154957Y-111985114D01*
X117202576Y-112080352D01*
X117250195Y-112127971D01*
X117345433Y-112175590D01*
X117726385Y-112175590D01*
X116821623Y-111651780D02*
X116202576Y-111651780D01*
X116535909Y-112032733D01*
X116393052Y-112032733D01*
X116297814Y-112080352D01*
X116250195Y-112127971D01*
X116202576Y-112223209D01*
X116202576Y-112461304D01*
X116250195Y-112556542D01*
X116297814Y-112604161D01*
X116393052Y-112651780D01*
X116678766Y-112651780D01*
X116774004Y-112604161D01*
X116821623Y-112556542D01*
X115869242Y-111651780D02*
X115250195Y-111651780D01*
X115583528Y-112032733D01*
X115440671Y-112032733D01*
X115345433Y-112080352D01*
X115297814Y-112127971D01*
X115250195Y-112223209D01*
X115250195Y-112461304D01*
X115297814Y-112556542D01*
X115345433Y-112604161D01*
X115440671Y-112651780D01*
X115726385Y-112651780D01*
X115821623Y-112604161D01*
X115869242Y-112556542D01*
G04 #@! TO.C,R34*
X81239357Y-119763780D02*
X81572690Y-119287590D01*
X81810785Y-119763780D02*
X81810785Y-118763780D01*
X81429833Y-118763780D01*
X81334595Y-118811400D01*
X81286976Y-118859019D01*
X81239357Y-118954257D01*
X81239357Y-119097114D01*
X81286976Y-119192352D01*
X81334595Y-119239971D01*
X81429833Y-119287590D01*
X81810785Y-119287590D01*
X80906023Y-118763780D02*
X80286976Y-118763780D01*
X80620309Y-119144733D01*
X80477452Y-119144733D01*
X80382214Y-119192352D01*
X80334595Y-119239971D01*
X80286976Y-119335209D01*
X80286976Y-119573304D01*
X80334595Y-119668542D01*
X80382214Y-119716161D01*
X80477452Y-119763780D01*
X80763166Y-119763780D01*
X80858404Y-119716161D01*
X80906023Y-119668542D01*
X79429833Y-119097114D02*
X79429833Y-119763780D01*
X79667928Y-118716161D02*
X79906023Y-119430447D01*
X79286976Y-119430447D01*
G04 #@! TO.C,R35*
X87919557Y-124843780D02*
X88252890Y-124367590D01*
X88490985Y-124843780D02*
X88490985Y-123843780D01*
X88110033Y-123843780D01*
X88014795Y-123891400D01*
X87967176Y-123939019D01*
X87919557Y-124034257D01*
X87919557Y-124177114D01*
X87967176Y-124272352D01*
X88014795Y-124319971D01*
X88110033Y-124367590D01*
X88490985Y-124367590D01*
X87586223Y-123843780D02*
X86967176Y-123843780D01*
X87300509Y-124224733D01*
X87157652Y-124224733D01*
X87062414Y-124272352D01*
X87014795Y-124319971D01*
X86967176Y-124415209D01*
X86967176Y-124653304D01*
X87014795Y-124748542D01*
X87062414Y-124796161D01*
X87157652Y-124843780D01*
X87443366Y-124843780D01*
X87538604Y-124796161D01*
X87586223Y-124748542D01*
X86062414Y-123843780D02*
X86538604Y-123843780D01*
X86586223Y-124319971D01*
X86538604Y-124272352D01*
X86443366Y-124224733D01*
X86205271Y-124224733D01*
X86110033Y-124272352D01*
X86062414Y-124319971D01*
X86014795Y-124415209D01*
X86014795Y-124653304D01*
X86062414Y-124748542D01*
X86110033Y-124796161D01*
X86205271Y-124843780D01*
X86443366Y-124843780D01*
X86538604Y-124796161D01*
X86586223Y-124748542D01*
G04 #@! TO.C,R36*
X94548957Y-129949180D02*
X94882290Y-129472990D01*
X95120385Y-129949180D02*
X95120385Y-128949180D01*
X94739433Y-128949180D01*
X94644195Y-128996800D01*
X94596576Y-129044419D01*
X94548957Y-129139657D01*
X94548957Y-129282514D01*
X94596576Y-129377752D01*
X94644195Y-129425371D01*
X94739433Y-129472990D01*
X95120385Y-129472990D01*
X94215623Y-128949180D02*
X93596576Y-128949180D01*
X93929909Y-129330133D01*
X93787052Y-129330133D01*
X93691814Y-129377752D01*
X93644195Y-129425371D01*
X93596576Y-129520609D01*
X93596576Y-129758704D01*
X93644195Y-129853942D01*
X93691814Y-129901561D01*
X93787052Y-129949180D01*
X94072766Y-129949180D01*
X94168004Y-129901561D01*
X94215623Y-129853942D01*
X92739433Y-128949180D02*
X92929909Y-128949180D01*
X93025147Y-128996800D01*
X93072766Y-129044419D01*
X93168004Y-129187276D01*
X93215623Y-129377752D01*
X93215623Y-129758704D01*
X93168004Y-129853942D01*
X93120385Y-129901561D01*
X93025147Y-129949180D01*
X92834671Y-129949180D01*
X92739433Y-129901561D01*
X92691814Y-129853942D01*
X92644195Y-129758704D01*
X92644195Y-129520609D01*
X92691814Y-129425371D01*
X92739433Y-129377752D01*
X92834671Y-129330133D01*
X93025147Y-129330133D01*
X93120385Y-129377752D01*
X93168004Y-129425371D01*
X93215623Y-129520609D01*
G04 #@! TO.C,R37*
X101127557Y-135054580D02*
X101460890Y-134578390D01*
X101698985Y-135054580D02*
X101698985Y-134054580D01*
X101318033Y-134054580D01*
X101222795Y-134102200D01*
X101175176Y-134149819D01*
X101127557Y-134245057D01*
X101127557Y-134387914D01*
X101175176Y-134483152D01*
X101222795Y-134530771D01*
X101318033Y-134578390D01*
X101698985Y-134578390D01*
X100794223Y-134054580D02*
X100175176Y-134054580D01*
X100508509Y-134435533D01*
X100365652Y-134435533D01*
X100270414Y-134483152D01*
X100222795Y-134530771D01*
X100175176Y-134626009D01*
X100175176Y-134864104D01*
X100222795Y-134959342D01*
X100270414Y-135006961D01*
X100365652Y-135054580D01*
X100651366Y-135054580D01*
X100746604Y-135006961D01*
X100794223Y-134959342D01*
X99841842Y-134054580D02*
X99175176Y-134054580D01*
X99603747Y-135054580D01*
G04 #@! TO.C,R38*
X125331457Y-112499380D02*
X125664790Y-112023190D01*
X125902885Y-112499380D02*
X125902885Y-111499380D01*
X125521933Y-111499380D01*
X125426695Y-111547000D01*
X125379076Y-111594619D01*
X125331457Y-111689857D01*
X125331457Y-111832714D01*
X125379076Y-111927952D01*
X125426695Y-111975571D01*
X125521933Y-112023190D01*
X125902885Y-112023190D01*
X124998123Y-111499380D02*
X124379076Y-111499380D01*
X124712409Y-111880333D01*
X124569552Y-111880333D01*
X124474314Y-111927952D01*
X124426695Y-111975571D01*
X124379076Y-112070809D01*
X124379076Y-112308904D01*
X124426695Y-112404142D01*
X124474314Y-112451761D01*
X124569552Y-112499380D01*
X124855266Y-112499380D01*
X124950504Y-112451761D01*
X124998123Y-112404142D01*
X123807647Y-111927952D02*
X123902885Y-111880333D01*
X123950504Y-111832714D01*
X123998123Y-111737476D01*
X123998123Y-111689857D01*
X123950504Y-111594619D01*
X123902885Y-111547000D01*
X123807647Y-111499380D01*
X123617171Y-111499380D01*
X123521933Y-111547000D01*
X123474314Y-111594619D01*
X123426695Y-111689857D01*
X123426695Y-111737476D01*
X123474314Y-111832714D01*
X123521933Y-111880333D01*
X123617171Y-111927952D01*
X123807647Y-111927952D01*
X123902885Y-111975571D01*
X123950504Y-112023190D01*
X123998123Y-112118428D01*
X123998123Y-112308904D01*
X123950504Y-112404142D01*
X123902885Y-112451761D01*
X123807647Y-112499380D01*
X123617171Y-112499380D01*
X123521933Y-112451761D01*
X123474314Y-112404142D01*
X123426695Y-112308904D01*
X123426695Y-112118428D01*
X123474314Y-112023190D01*
X123521933Y-111975571D01*
X123617171Y-111927952D01*
G04 #@! TO.C,R39*
X87919557Y-119789180D02*
X88252890Y-119312990D01*
X88490985Y-119789180D02*
X88490985Y-118789180D01*
X88110033Y-118789180D01*
X88014795Y-118836800D01*
X87967176Y-118884419D01*
X87919557Y-118979657D01*
X87919557Y-119122514D01*
X87967176Y-119217752D01*
X88014795Y-119265371D01*
X88110033Y-119312990D01*
X88490985Y-119312990D01*
X87586223Y-118789180D02*
X86967176Y-118789180D01*
X87300509Y-119170133D01*
X87157652Y-119170133D01*
X87062414Y-119217752D01*
X87014795Y-119265371D01*
X86967176Y-119360609D01*
X86967176Y-119598704D01*
X87014795Y-119693942D01*
X87062414Y-119741561D01*
X87157652Y-119789180D01*
X87443366Y-119789180D01*
X87538604Y-119741561D01*
X87586223Y-119693942D01*
X86490985Y-119789180D02*
X86300509Y-119789180D01*
X86205271Y-119741561D01*
X86157652Y-119693942D01*
X86062414Y-119551085D01*
X86014795Y-119360609D01*
X86014795Y-118979657D01*
X86062414Y-118884419D01*
X86110033Y-118836800D01*
X86205271Y-118789180D01*
X86395747Y-118789180D01*
X86490985Y-118836800D01*
X86538604Y-118884419D01*
X86586223Y-118979657D01*
X86586223Y-119217752D01*
X86538604Y-119312990D01*
X86490985Y-119360609D01*
X86395747Y-119408228D01*
X86205271Y-119408228D01*
X86110033Y-119360609D01*
X86062414Y-119312990D01*
X86014795Y-119217752D01*
G04 #@! TO.C,R40*
X94574357Y-124894580D02*
X94907690Y-124418390D01*
X95145785Y-124894580D02*
X95145785Y-123894580D01*
X94764833Y-123894580D01*
X94669595Y-123942200D01*
X94621976Y-123989819D01*
X94574357Y-124085057D01*
X94574357Y-124227914D01*
X94621976Y-124323152D01*
X94669595Y-124370771D01*
X94764833Y-124418390D01*
X95145785Y-124418390D01*
X93717214Y-124227914D02*
X93717214Y-124894580D01*
X93955309Y-123846961D02*
X94193404Y-124561247D01*
X93574357Y-124561247D01*
X93002928Y-123894580D02*
X92907690Y-123894580D01*
X92812452Y-123942200D01*
X92764833Y-123989819D01*
X92717214Y-124085057D01*
X92669595Y-124275533D01*
X92669595Y-124513628D01*
X92717214Y-124704104D01*
X92764833Y-124799342D01*
X92812452Y-124846961D01*
X92907690Y-124894580D01*
X93002928Y-124894580D01*
X93098166Y-124846961D01*
X93145785Y-124799342D01*
X93193404Y-124704104D01*
X93241023Y-124513628D01*
X93241023Y-124275533D01*
X93193404Y-124085057D01*
X93145785Y-123989819D01*
X93098166Y-123942200D01*
X93002928Y-123894580D01*
G04 #@! TO.C,R41*
X101254557Y-129999980D02*
X101587890Y-129523790D01*
X101825985Y-129999980D02*
X101825985Y-128999980D01*
X101445033Y-128999980D01*
X101349795Y-129047600D01*
X101302176Y-129095219D01*
X101254557Y-129190457D01*
X101254557Y-129333314D01*
X101302176Y-129428552D01*
X101349795Y-129476171D01*
X101445033Y-129523790D01*
X101825985Y-129523790D01*
X100397414Y-129333314D02*
X100397414Y-129999980D01*
X100635509Y-128952361D02*
X100873604Y-129666647D01*
X100254557Y-129666647D01*
X99349795Y-129999980D02*
X99921223Y-129999980D01*
X99635509Y-129999980D02*
X99635509Y-128999980D01*
X99730747Y-129142838D01*
X99825985Y-129238076D01*
X99921223Y-129285695D01*
G04 #@! TO.C,R42*
X107883957Y-135079980D02*
X108217290Y-134603790D01*
X108455385Y-135079980D02*
X108455385Y-134079980D01*
X108074433Y-134079980D01*
X107979195Y-134127600D01*
X107931576Y-134175219D01*
X107883957Y-134270457D01*
X107883957Y-134413314D01*
X107931576Y-134508552D01*
X107979195Y-134556171D01*
X108074433Y-134603790D01*
X108455385Y-134603790D01*
X107026814Y-134413314D02*
X107026814Y-135079980D01*
X107264909Y-134032361D02*
X107503004Y-134746647D01*
X106883957Y-134746647D01*
X106550623Y-134175219D02*
X106503004Y-134127600D01*
X106407766Y-134079980D01*
X106169671Y-134079980D01*
X106074433Y-134127600D01*
X106026814Y-134175219D01*
X105979195Y-134270457D01*
X105979195Y-134365695D01*
X106026814Y-134508552D01*
X106598242Y-135079980D01*
X105979195Y-135079980D01*
G04 #@! TO.C,R43*
X133690357Y-112600980D02*
X134023690Y-112124790D01*
X134261785Y-112600980D02*
X134261785Y-111600980D01*
X133880833Y-111600980D01*
X133785595Y-111648600D01*
X133737976Y-111696219D01*
X133690357Y-111791457D01*
X133690357Y-111934314D01*
X133737976Y-112029552D01*
X133785595Y-112077171D01*
X133880833Y-112124790D01*
X134261785Y-112124790D01*
X132833214Y-111934314D02*
X132833214Y-112600980D01*
X133071309Y-111553361D02*
X133309404Y-112267647D01*
X132690357Y-112267647D01*
X132404642Y-111600980D02*
X131785595Y-111600980D01*
X132118928Y-111981933D01*
X131976071Y-111981933D01*
X131880833Y-112029552D01*
X131833214Y-112077171D01*
X131785595Y-112172409D01*
X131785595Y-112410504D01*
X131833214Y-112505742D01*
X131880833Y-112553361D01*
X131976071Y-112600980D01*
X132261785Y-112600980D01*
X132357023Y-112553361D01*
X132404642Y-112505742D01*
G04 #@! TO.C,R44*
X94548957Y-119789180D02*
X94882290Y-119312990D01*
X95120385Y-119789180D02*
X95120385Y-118789180D01*
X94739433Y-118789180D01*
X94644195Y-118836800D01*
X94596576Y-118884419D01*
X94548957Y-118979657D01*
X94548957Y-119122514D01*
X94596576Y-119217752D01*
X94644195Y-119265371D01*
X94739433Y-119312990D01*
X95120385Y-119312990D01*
X93691814Y-119122514D02*
X93691814Y-119789180D01*
X93929909Y-118741561D02*
X94168004Y-119455847D01*
X93548957Y-119455847D01*
X92739433Y-119122514D02*
X92739433Y-119789180D01*
X92977528Y-118741561D02*
X93215623Y-119455847D01*
X92596576Y-119455847D01*
G04 #@! TO.C,R45*
X101229157Y-124894580D02*
X101562490Y-124418390D01*
X101800585Y-124894580D02*
X101800585Y-123894580D01*
X101419633Y-123894580D01*
X101324395Y-123942200D01*
X101276776Y-123989819D01*
X101229157Y-124085057D01*
X101229157Y-124227914D01*
X101276776Y-124323152D01*
X101324395Y-124370771D01*
X101419633Y-124418390D01*
X101800585Y-124418390D01*
X100372014Y-124227914D02*
X100372014Y-124894580D01*
X100610109Y-123846961D02*
X100848204Y-124561247D01*
X100229157Y-124561247D01*
X99372014Y-123894580D02*
X99848204Y-123894580D01*
X99895823Y-124370771D01*
X99848204Y-124323152D01*
X99752966Y-124275533D01*
X99514871Y-124275533D01*
X99419633Y-124323152D01*
X99372014Y-124370771D01*
X99324395Y-124466009D01*
X99324395Y-124704104D01*
X99372014Y-124799342D01*
X99419633Y-124846961D01*
X99514871Y-124894580D01*
X99752966Y-124894580D01*
X99848204Y-124846961D01*
X99895823Y-124799342D01*
G04 #@! TO.C,R46*
X107934757Y-129949180D02*
X108268090Y-129472990D01*
X108506185Y-129949180D02*
X108506185Y-128949180D01*
X108125233Y-128949180D01*
X108029995Y-128996800D01*
X107982376Y-129044419D01*
X107934757Y-129139657D01*
X107934757Y-129282514D01*
X107982376Y-129377752D01*
X108029995Y-129425371D01*
X108125233Y-129472990D01*
X108506185Y-129472990D01*
X107077614Y-129282514D02*
X107077614Y-129949180D01*
X107315709Y-128901561D02*
X107553804Y-129615847D01*
X106934757Y-129615847D01*
X106125233Y-128949180D02*
X106315709Y-128949180D01*
X106410947Y-128996800D01*
X106458566Y-129044419D01*
X106553804Y-129187276D01*
X106601423Y-129377752D01*
X106601423Y-129758704D01*
X106553804Y-129853942D01*
X106506185Y-129901561D01*
X106410947Y-129949180D01*
X106220471Y-129949180D01*
X106125233Y-129901561D01*
X106077614Y-129853942D01*
X106029995Y-129758704D01*
X106029995Y-129520609D01*
X106077614Y-129425371D01*
X106125233Y-129377752D01*
X106220471Y-129330133D01*
X106410947Y-129330133D01*
X106506185Y-129377752D01*
X106553804Y-129425371D01*
X106601423Y-129520609D01*
G04 #@! TO.C,R47*
X114665757Y-135105380D02*
X114999090Y-134629190D01*
X115237185Y-135105380D02*
X115237185Y-134105380D01*
X114856233Y-134105380D01*
X114760995Y-134153000D01*
X114713376Y-134200619D01*
X114665757Y-134295857D01*
X114665757Y-134438714D01*
X114713376Y-134533952D01*
X114760995Y-134581571D01*
X114856233Y-134629190D01*
X115237185Y-134629190D01*
X113808614Y-134438714D02*
X113808614Y-135105380D01*
X114046709Y-134057761D02*
X114284804Y-134772047D01*
X113665757Y-134772047D01*
X113380042Y-134105380D02*
X112713376Y-134105380D01*
X113141947Y-135105380D01*
G04 #@! TO.C,R48*
X101203757Y-119814580D02*
X101537090Y-119338390D01*
X101775185Y-119814580D02*
X101775185Y-118814580D01*
X101394233Y-118814580D01*
X101298995Y-118862200D01*
X101251376Y-118909819D01*
X101203757Y-119005057D01*
X101203757Y-119147914D01*
X101251376Y-119243152D01*
X101298995Y-119290771D01*
X101394233Y-119338390D01*
X101775185Y-119338390D01*
X100346614Y-119147914D02*
X100346614Y-119814580D01*
X100584709Y-118766961D02*
X100822804Y-119481247D01*
X100203757Y-119481247D01*
X99679947Y-119243152D02*
X99775185Y-119195533D01*
X99822804Y-119147914D01*
X99870423Y-119052676D01*
X99870423Y-119005057D01*
X99822804Y-118909819D01*
X99775185Y-118862200D01*
X99679947Y-118814580D01*
X99489471Y-118814580D01*
X99394233Y-118862200D01*
X99346614Y-118909819D01*
X99298995Y-119005057D01*
X99298995Y-119052676D01*
X99346614Y-119147914D01*
X99394233Y-119195533D01*
X99489471Y-119243152D01*
X99679947Y-119243152D01*
X99775185Y-119290771D01*
X99822804Y-119338390D01*
X99870423Y-119433628D01*
X99870423Y-119624104D01*
X99822804Y-119719342D01*
X99775185Y-119766961D01*
X99679947Y-119814580D01*
X99489471Y-119814580D01*
X99394233Y-119766961D01*
X99346614Y-119719342D01*
X99298995Y-119624104D01*
X99298995Y-119433628D01*
X99346614Y-119338390D01*
X99394233Y-119290771D01*
X99489471Y-119243152D01*
G04 #@! TO.C,R49*
X107883957Y-124869180D02*
X108217290Y-124392990D01*
X108455385Y-124869180D02*
X108455385Y-123869180D01*
X108074433Y-123869180D01*
X107979195Y-123916800D01*
X107931576Y-123964419D01*
X107883957Y-124059657D01*
X107883957Y-124202514D01*
X107931576Y-124297752D01*
X107979195Y-124345371D01*
X108074433Y-124392990D01*
X108455385Y-124392990D01*
X107026814Y-124202514D02*
X107026814Y-124869180D01*
X107264909Y-123821561D02*
X107503004Y-124535847D01*
X106883957Y-124535847D01*
X106455385Y-124869180D02*
X106264909Y-124869180D01*
X106169671Y-124821561D01*
X106122052Y-124773942D01*
X106026814Y-124631085D01*
X105979195Y-124440609D01*
X105979195Y-124059657D01*
X106026814Y-123964419D01*
X106074433Y-123916800D01*
X106169671Y-123869180D01*
X106360147Y-123869180D01*
X106455385Y-123916800D01*
X106503004Y-123964419D01*
X106550623Y-124059657D01*
X106550623Y-124297752D01*
X106503004Y-124392990D01*
X106455385Y-124440609D01*
X106360147Y-124488228D01*
X106169671Y-124488228D01*
X106074433Y-124440609D01*
X106026814Y-124392990D01*
X105979195Y-124297752D01*
G04 #@! TO.C,R50*
X114564157Y-129999980D02*
X114897490Y-129523790D01*
X115135585Y-129999980D02*
X115135585Y-128999980D01*
X114754633Y-128999980D01*
X114659395Y-129047600D01*
X114611776Y-129095219D01*
X114564157Y-129190457D01*
X114564157Y-129333314D01*
X114611776Y-129428552D01*
X114659395Y-129476171D01*
X114754633Y-129523790D01*
X115135585Y-129523790D01*
X113659395Y-128999980D02*
X114135585Y-128999980D01*
X114183204Y-129476171D01*
X114135585Y-129428552D01*
X114040347Y-129380933D01*
X113802252Y-129380933D01*
X113707014Y-129428552D01*
X113659395Y-129476171D01*
X113611776Y-129571409D01*
X113611776Y-129809504D01*
X113659395Y-129904742D01*
X113707014Y-129952361D01*
X113802252Y-129999980D01*
X114040347Y-129999980D01*
X114135585Y-129952361D01*
X114183204Y-129904742D01*
X112992728Y-128999980D02*
X112897490Y-128999980D01*
X112802252Y-129047600D01*
X112754633Y-129095219D01*
X112707014Y-129190457D01*
X112659395Y-129380933D01*
X112659395Y-129619028D01*
X112707014Y-129809504D01*
X112754633Y-129904742D01*
X112802252Y-129952361D01*
X112897490Y-129999980D01*
X112992728Y-129999980D01*
X113087966Y-129952361D01*
X113135585Y-129904742D01*
X113183204Y-129809504D01*
X113230823Y-129619028D01*
X113230823Y-129380933D01*
X113183204Y-129190457D01*
X113135585Y-129095219D01*
X113087966Y-129047600D01*
X112992728Y-128999980D01*
G04 #@! TO.C,R51*
X121168157Y-135079980D02*
X121501490Y-134603790D01*
X121739585Y-135079980D02*
X121739585Y-134079980D01*
X121358633Y-134079980D01*
X121263395Y-134127600D01*
X121215776Y-134175219D01*
X121168157Y-134270457D01*
X121168157Y-134413314D01*
X121215776Y-134508552D01*
X121263395Y-134556171D01*
X121358633Y-134603790D01*
X121739585Y-134603790D01*
X120263395Y-134079980D02*
X120739585Y-134079980D01*
X120787204Y-134556171D01*
X120739585Y-134508552D01*
X120644347Y-134460933D01*
X120406252Y-134460933D01*
X120311014Y-134508552D01*
X120263395Y-134556171D01*
X120215776Y-134651409D01*
X120215776Y-134889504D01*
X120263395Y-134984742D01*
X120311014Y-135032361D01*
X120406252Y-135079980D01*
X120644347Y-135079980D01*
X120739585Y-135032361D01*
X120787204Y-134984742D01*
X119263395Y-135079980D02*
X119834823Y-135079980D01*
X119549109Y-135079980D02*
X119549109Y-134079980D01*
X119644347Y-134222838D01*
X119739585Y-134318076D01*
X119834823Y-134365695D01*
G04 #@! TO.C,R52*
X107883957Y-119763780D02*
X108217290Y-119287590D01*
X108455385Y-119763780D02*
X108455385Y-118763780D01*
X108074433Y-118763780D01*
X107979195Y-118811400D01*
X107931576Y-118859019D01*
X107883957Y-118954257D01*
X107883957Y-119097114D01*
X107931576Y-119192352D01*
X107979195Y-119239971D01*
X108074433Y-119287590D01*
X108455385Y-119287590D01*
X106979195Y-118763780D02*
X107455385Y-118763780D01*
X107503004Y-119239971D01*
X107455385Y-119192352D01*
X107360147Y-119144733D01*
X107122052Y-119144733D01*
X107026814Y-119192352D01*
X106979195Y-119239971D01*
X106931576Y-119335209D01*
X106931576Y-119573304D01*
X106979195Y-119668542D01*
X107026814Y-119716161D01*
X107122052Y-119763780D01*
X107360147Y-119763780D01*
X107455385Y-119716161D01*
X107503004Y-119668542D01*
X106550623Y-118859019D02*
X106503004Y-118811400D01*
X106407766Y-118763780D01*
X106169671Y-118763780D01*
X106074433Y-118811400D01*
X106026814Y-118859019D01*
X105979195Y-118954257D01*
X105979195Y-119049495D01*
X106026814Y-119192352D01*
X106598242Y-119763780D01*
X105979195Y-119763780D01*
G04 #@! TO.C,R53*
X114564157Y-124843780D02*
X114897490Y-124367590D01*
X115135585Y-124843780D02*
X115135585Y-123843780D01*
X114754633Y-123843780D01*
X114659395Y-123891400D01*
X114611776Y-123939019D01*
X114564157Y-124034257D01*
X114564157Y-124177114D01*
X114611776Y-124272352D01*
X114659395Y-124319971D01*
X114754633Y-124367590D01*
X115135585Y-124367590D01*
X113659395Y-123843780D02*
X114135585Y-123843780D01*
X114183204Y-124319971D01*
X114135585Y-124272352D01*
X114040347Y-124224733D01*
X113802252Y-124224733D01*
X113707014Y-124272352D01*
X113659395Y-124319971D01*
X113611776Y-124415209D01*
X113611776Y-124653304D01*
X113659395Y-124748542D01*
X113707014Y-124796161D01*
X113802252Y-124843780D01*
X114040347Y-124843780D01*
X114135585Y-124796161D01*
X114183204Y-124748542D01*
X113278442Y-123843780D02*
X112659395Y-123843780D01*
X112992728Y-124224733D01*
X112849871Y-124224733D01*
X112754633Y-124272352D01*
X112707014Y-124319971D01*
X112659395Y-124415209D01*
X112659395Y-124653304D01*
X112707014Y-124748542D01*
X112754633Y-124796161D01*
X112849871Y-124843780D01*
X113135585Y-124843780D01*
X113230823Y-124796161D01*
X113278442Y-124748542D01*
G04 #@! TO.C,R54*
X121218957Y-129949180D02*
X121552290Y-129472990D01*
X121790385Y-129949180D02*
X121790385Y-128949180D01*
X121409433Y-128949180D01*
X121314195Y-128996800D01*
X121266576Y-129044419D01*
X121218957Y-129139657D01*
X121218957Y-129282514D01*
X121266576Y-129377752D01*
X121314195Y-129425371D01*
X121409433Y-129472990D01*
X121790385Y-129472990D01*
X120314195Y-128949180D02*
X120790385Y-128949180D01*
X120838004Y-129425371D01*
X120790385Y-129377752D01*
X120695147Y-129330133D01*
X120457052Y-129330133D01*
X120361814Y-129377752D01*
X120314195Y-129425371D01*
X120266576Y-129520609D01*
X120266576Y-129758704D01*
X120314195Y-129853942D01*
X120361814Y-129901561D01*
X120457052Y-129949180D01*
X120695147Y-129949180D01*
X120790385Y-129901561D01*
X120838004Y-129853942D01*
X119409433Y-129282514D02*
X119409433Y-129949180D01*
X119647528Y-128901561D02*
X119885623Y-129615847D01*
X119266576Y-129615847D01*
G04 #@! TO.C,R55*
X127848357Y-135079980D02*
X128181690Y-134603790D01*
X128419785Y-135079980D02*
X128419785Y-134079980D01*
X128038833Y-134079980D01*
X127943595Y-134127600D01*
X127895976Y-134175219D01*
X127848357Y-134270457D01*
X127848357Y-134413314D01*
X127895976Y-134508552D01*
X127943595Y-134556171D01*
X128038833Y-134603790D01*
X128419785Y-134603790D01*
X126943595Y-134079980D02*
X127419785Y-134079980D01*
X127467404Y-134556171D01*
X127419785Y-134508552D01*
X127324547Y-134460933D01*
X127086452Y-134460933D01*
X126991214Y-134508552D01*
X126943595Y-134556171D01*
X126895976Y-134651409D01*
X126895976Y-134889504D01*
X126943595Y-134984742D01*
X126991214Y-135032361D01*
X127086452Y-135079980D01*
X127324547Y-135079980D01*
X127419785Y-135032361D01*
X127467404Y-134984742D01*
X125991214Y-134079980D02*
X126467404Y-134079980D01*
X126515023Y-134556171D01*
X126467404Y-134508552D01*
X126372166Y-134460933D01*
X126134071Y-134460933D01*
X126038833Y-134508552D01*
X125991214Y-134556171D01*
X125943595Y-134651409D01*
X125943595Y-134889504D01*
X125991214Y-134984742D01*
X126038833Y-135032361D01*
X126134071Y-135079980D01*
X126372166Y-135079980D01*
X126467404Y-135032361D01*
X126515023Y-134984742D01*
G04 #@! TO.C,R56*
X114564157Y-119763780D02*
X114897490Y-119287590D01*
X115135585Y-119763780D02*
X115135585Y-118763780D01*
X114754633Y-118763780D01*
X114659395Y-118811400D01*
X114611776Y-118859019D01*
X114564157Y-118954257D01*
X114564157Y-119097114D01*
X114611776Y-119192352D01*
X114659395Y-119239971D01*
X114754633Y-119287590D01*
X115135585Y-119287590D01*
X113659395Y-118763780D02*
X114135585Y-118763780D01*
X114183204Y-119239971D01*
X114135585Y-119192352D01*
X114040347Y-119144733D01*
X113802252Y-119144733D01*
X113707014Y-119192352D01*
X113659395Y-119239971D01*
X113611776Y-119335209D01*
X113611776Y-119573304D01*
X113659395Y-119668542D01*
X113707014Y-119716161D01*
X113802252Y-119763780D01*
X114040347Y-119763780D01*
X114135585Y-119716161D01*
X114183204Y-119668542D01*
X112754633Y-118763780D02*
X112945109Y-118763780D01*
X113040347Y-118811400D01*
X113087966Y-118859019D01*
X113183204Y-119001876D01*
X113230823Y-119192352D01*
X113230823Y-119573304D01*
X113183204Y-119668542D01*
X113135585Y-119716161D01*
X113040347Y-119763780D01*
X112849871Y-119763780D01*
X112754633Y-119716161D01*
X112707014Y-119668542D01*
X112659395Y-119573304D01*
X112659395Y-119335209D01*
X112707014Y-119239971D01*
X112754633Y-119192352D01*
X112849871Y-119144733D01*
X113040347Y-119144733D01*
X113135585Y-119192352D01*
X113183204Y-119239971D01*
X113230823Y-119335209D01*
G04 #@! TO.C,R57*
X121244357Y-124894580D02*
X121577690Y-124418390D01*
X121815785Y-124894580D02*
X121815785Y-123894580D01*
X121434833Y-123894580D01*
X121339595Y-123942200D01*
X121291976Y-123989819D01*
X121244357Y-124085057D01*
X121244357Y-124227914D01*
X121291976Y-124323152D01*
X121339595Y-124370771D01*
X121434833Y-124418390D01*
X121815785Y-124418390D01*
X120339595Y-123894580D02*
X120815785Y-123894580D01*
X120863404Y-124370771D01*
X120815785Y-124323152D01*
X120720547Y-124275533D01*
X120482452Y-124275533D01*
X120387214Y-124323152D01*
X120339595Y-124370771D01*
X120291976Y-124466009D01*
X120291976Y-124704104D01*
X120339595Y-124799342D01*
X120387214Y-124846961D01*
X120482452Y-124894580D01*
X120720547Y-124894580D01*
X120815785Y-124846961D01*
X120863404Y-124799342D01*
X119958642Y-123894580D02*
X119291976Y-123894580D01*
X119720547Y-124894580D01*
G04 #@! TO.C,R58*
X127949957Y-129949180D02*
X128283290Y-129472990D01*
X128521385Y-129949180D02*
X128521385Y-128949180D01*
X128140433Y-128949180D01*
X128045195Y-128996800D01*
X127997576Y-129044419D01*
X127949957Y-129139657D01*
X127949957Y-129282514D01*
X127997576Y-129377752D01*
X128045195Y-129425371D01*
X128140433Y-129472990D01*
X128521385Y-129472990D01*
X127045195Y-128949180D02*
X127521385Y-128949180D01*
X127569004Y-129425371D01*
X127521385Y-129377752D01*
X127426147Y-129330133D01*
X127188052Y-129330133D01*
X127092814Y-129377752D01*
X127045195Y-129425371D01*
X126997576Y-129520609D01*
X126997576Y-129758704D01*
X127045195Y-129853942D01*
X127092814Y-129901561D01*
X127188052Y-129949180D01*
X127426147Y-129949180D01*
X127521385Y-129901561D01*
X127569004Y-129853942D01*
X126426147Y-129377752D02*
X126521385Y-129330133D01*
X126569004Y-129282514D01*
X126616623Y-129187276D01*
X126616623Y-129139657D01*
X126569004Y-129044419D01*
X126521385Y-128996800D01*
X126426147Y-128949180D01*
X126235671Y-128949180D01*
X126140433Y-128996800D01*
X126092814Y-129044419D01*
X126045195Y-129139657D01*
X126045195Y-129187276D01*
X126092814Y-129282514D01*
X126140433Y-129330133D01*
X126235671Y-129377752D01*
X126426147Y-129377752D01*
X126521385Y-129425371D01*
X126569004Y-129472990D01*
X126616623Y-129568228D01*
X126616623Y-129758704D01*
X126569004Y-129853942D01*
X126521385Y-129901561D01*
X126426147Y-129949180D01*
X126235671Y-129949180D01*
X126140433Y-129901561D01*
X126092814Y-129853942D01*
X126045195Y-129758704D01*
X126045195Y-129568228D01*
X126092814Y-129472990D01*
X126140433Y-129425371D01*
X126235671Y-129377752D01*
G04 #@! TO.C,R59*
X134627857Y-135054580D02*
X134961190Y-134578390D01*
X135199285Y-135054580D02*
X135199285Y-134054580D01*
X134818333Y-134054580D01*
X134723095Y-134102200D01*
X134675476Y-134149819D01*
X134627857Y-134245057D01*
X134627857Y-134387914D01*
X134675476Y-134483152D01*
X134723095Y-134530771D01*
X134818333Y-134578390D01*
X135199285Y-134578390D01*
X133723095Y-134054580D02*
X134199285Y-134054580D01*
X134246904Y-134530771D01*
X134199285Y-134483152D01*
X134104047Y-134435533D01*
X133865952Y-134435533D01*
X133770714Y-134483152D01*
X133723095Y-134530771D01*
X133675476Y-134626009D01*
X133675476Y-134864104D01*
X133723095Y-134959342D01*
X133770714Y-135006961D01*
X133865952Y-135054580D01*
X134104047Y-135054580D01*
X134199285Y-135006961D01*
X134246904Y-134959342D01*
X133199285Y-135054580D02*
X133008809Y-135054580D01*
X132913571Y-135006961D01*
X132865952Y-134959342D01*
X132770714Y-134816485D01*
X132723095Y-134626009D01*
X132723095Y-134245057D01*
X132770714Y-134149819D01*
X132818333Y-134102200D01*
X132913571Y-134054580D01*
X133104047Y-134054580D01*
X133199285Y-134102200D01*
X133246904Y-134149819D01*
X133294523Y-134245057D01*
X133294523Y-134483152D01*
X133246904Y-134578390D01*
X133199285Y-134626009D01*
X133104047Y-134673628D01*
X132913571Y-134673628D01*
X132818333Y-134626009D01*
X132770714Y-134578390D01*
X132723095Y-134483152D01*
G04 #@! TO.C,R60*
X121244357Y-119789180D02*
X121577690Y-119312990D01*
X121815785Y-119789180D02*
X121815785Y-118789180D01*
X121434833Y-118789180D01*
X121339595Y-118836800D01*
X121291976Y-118884419D01*
X121244357Y-118979657D01*
X121244357Y-119122514D01*
X121291976Y-119217752D01*
X121339595Y-119265371D01*
X121434833Y-119312990D01*
X121815785Y-119312990D01*
X120387214Y-118789180D02*
X120577690Y-118789180D01*
X120672928Y-118836800D01*
X120720547Y-118884419D01*
X120815785Y-119027276D01*
X120863404Y-119217752D01*
X120863404Y-119598704D01*
X120815785Y-119693942D01*
X120768166Y-119741561D01*
X120672928Y-119789180D01*
X120482452Y-119789180D01*
X120387214Y-119741561D01*
X120339595Y-119693942D01*
X120291976Y-119598704D01*
X120291976Y-119360609D01*
X120339595Y-119265371D01*
X120387214Y-119217752D01*
X120482452Y-119170133D01*
X120672928Y-119170133D01*
X120768166Y-119217752D01*
X120815785Y-119265371D01*
X120863404Y-119360609D01*
X119672928Y-118789180D02*
X119577690Y-118789180D01*
X119482452Y-118836800D01*
X119434833Y-118884419D01*
X119387214Y-118979657D01*
X119339595Y-119170133D01*
X119339595Y-119408228D01*
X119387214Y-119598704D01*
X119434833Y-119693942D01*
X119482452Y-119741561D01*
X119577690Y-119789180D01*
X119672928Y-119789180D01*
X119768166Y-119741561D01*
X119815785Y-119693942D01*
X119863404Y-119598704D01*
X119911023Y-119408228D01*
X119911023Y-119170133D01*
X119863404Y-118979657D01*
X119815785Y-118884419D01*
X119768166Y-118836800D01*
X119672928Y-118789180D01*
G04 #@! TO.C,R61*
X127896857Y-124869180D02*
X128230190Y-124392990D01*
X128468285Y-124869180D02*
X128468285Y-123869180D01*
X128087333Y-123869180D01*
X127992095Y-123916800D01*
X127944476Y-123964419D01*
X127896857Y-124059657D01*
X127896857Y-124202514D01*
X127944476Y-124297752D01*
X127992095Y-124345371D01*
X128087333Y-124392990D01*
X128468285Y-124392990D01*
X127039714Y-123869180D02*
X127230190Y-123869180D01*
X127325428Y-123916800D01*
X127373047Y-123964419D01*
X127468285Y-124107276D01*
X127515904Y-124297752D01*
X127515904Y-124678704D01*
X127468285Y-124773942D01*
X127420666Y-124821561D01*
X127325428Y-124869180D01*
X127134952Y-124869180D01*
X127039714Y-124821561D01*
X126992095Y-124773942D01*
X126944476Y-124678704D01*
X126944476Y-124440609D01*
X126992095Y-124345371D01*
X127039714Y-124297752D01*
X127134952Y-124250133D01*
X127325428Y-124250133D01*
X127420666Y-124297752D01*
X127468285Y-124345371D01*
X127515904Y-124440609D01*
X125992095Y-124869180D02*
X126563523Y-124869180D01*
X126277809Y-124869180D02*
X126277809Y-123869180D01*
X126373047Y-124012038D01*
X126468285Y-124107276D01*
X126563523Y-124154895D01*
G04 #@! TO.C,R62*
X134579357Y-129974580D02*
X134912690Y-129498390D01*
X135150785Y-129974580D02*
X135150785Y-128974580D01*
X134769833Y-128974580D01*
X134674595Y-129022200D01*
X134626976Y-129069819D01*
X134579357Y-129165057D01*
X134579357Y-129307914D01*
X134626976Y-129403152D01*
X134674595Y-129450771D01*
X134769833Y-129498390D01*
X135150785Y-129498390D01*
X133722214Y-128974580D02*
X133912690Y-128974580D01*
X134007928Y-129022200D01*
X134055547Y-129069819D01*
X134150785Y-129212676D01*
X134198404Y-129403152D01*
X134198404Y-129784104D01*
X134150785Y-129879342D01*
X134103166Y-129926961D01*
X134007928Y-129974580D01*
X133817452Y-129974580D01*
X133722214Y-129926961D01*
X133674595Y-129879342D01*
X133626976Y-129784104D01*
X133626976Y-129546009D01*
X133674595Y-129450771D01*
X133722214Y-129403152D01*
X133817452Y-129355533D01*
X134007928Y-129355533D01*
X134103166Y-129403152D01*
X134150785Y-129450771D01*
X134198404Y-129546009D01*
X133246023Y-129069819D02*
X133198404Y-129022200D01*
X133103166Y-128974580D01*
X132865071Y-128974580D01*
X132769833Y-129022200D01*
X132722214Y-129069819D01*
X132674595Y-129165057D01*
X132674595Y-129260295D01*
X132722214Y-129403152D01*
X133293642Y-129974580D01*
X132674595Y-129974580D01*
G04 #@! TO.C,R63*
X42021757Y-112829580D02*
X42355090Y-112353390D01*
X42593185Y-112829580D02*
X42593185Y-111829580D01*
X42212233Y-111829580D01*
X42116995Y-111877200D01*
X42069376Y-111924819D01*
X42021757Y-112020057D01*
X42021757Y-112162914D01*
X42069376Y-112258152D01*
X42116995Y-112305771D01*
X42212233Y-112353390D01*
X42593185Y-112353390D01*
X41164614Y-111829580D02*
X41355090Y-111829580D01*
X41450328Y-111877200D01*
X41497947Y-111924819D01*
X41593185Y-112067676D01*
X41640804Y-112258152D01*
X41640804Y-112639104D01*
X41593185Y-112734342D01*
X41545566Y-112781961D01*
X41450328Y-112829580D01*
X41259852Y-112829580D01*
X41164614Y-112781961D01*
X41116995Y-112734342D01*
X41069376Y-112639104D01*
X41069376Y-112401009D01*
X41116995Y-112305771D01*
X41164614Y-112258152D01*
X41259852Y-112210533D01*
X41450328Y-112210533D01*
X41545566Y-112258152D01*
X41593185Y-112305771D01*
X41640804Y-112401009D01*
X40736042Y-111829580D02*
X40116995Y-111829580D01*
X40450328Y-112210533D01*
X40307471Y-112210533D01*
X40212233Y-112258152D01*
X40164614Y-112305771D01*
X40116995Y-112401009D01*
X40116995Y-112639104D01*
X40164614Y-112734342D01*
X40212233Y-112781961D01*
X40307471Y-112829580D01*
X40593185Y-112829580D01*
X40688423Y-112781961D01*
X40736042Y-112734342D01*
G04 #@! TO.C,R64*
X127924557Y-119712980D02*
X128257890Y-119236790D01*
X128495985Y-119712980D02*
X128495985Y-118712980D01*
X128115033Y-118712980D01*
X128019795Y-118760600D01*
X127972176Y-118808219D01*
X127924557Y-118903457D01*
X127924557Y-119046314D01*
X127972176Y-119141552D01*
X128019795Y-119189171D01*
X128115033Y-119236790D01*
X128495985Y-119236790D01*
X127067414Y-118712980D02*
X127257890Y-118712980D01*
X127353128Y-118760600D01*
X127400747Y-118808219D01*
X127495985Y-118951076D01*
X127543604Y-119141552D01*
X127543604Y-119522504D01*
X127495985Y-119617742D01*
X127448366Y-119665361D01*
X127353128Y-119712980D01*
X127162652Y-119712980D01*
X127067414Y-119665361D01*
X127019795Y-119617742D01*
X126972176Y-119522504D01*
X126972176Y-119284409D01*
X127019795Y-119189171D01*
X127067414Y-119141552D01*
X127162652Y-119093933D01*
X127353128Y-119093933D01*
X127448366Y-119141552D01*
X127495985Y-119189171D01*
X127543604Y-119284409D01*
X126115033Y-119046314D02*
X126115033Y-119712980D01*
X126353128Y-118665361D02*
X126591223Y-119379647D01*
X125972176Y-119379647D01*
G04 #@! TO.C,R65*
X134553957Y-124869180D02*
X134887290Y-124392990D01*
X135125385Y-124869180D02*
X135125385Y-123869180D01*
X134744433Y-123869180D01*
X134649195Y-123916800D01*
X134601576Y-123964419D01*
X134553957Y-124059657D01*
X134553957Y-124202514D01*
X134601576Y-124297752D01*
X134649195Y-124345371D01*
X134744433Y-124392990D01*
X135125385Y-124392990D01*
X133696814Y-123869180D02*
X133887290Y-123869180D01*
X133982528Y-123916800D01*
X134030147Y-123964419D01*
X134125385Y-124107276D01*
X134173004Y-124297752D01*
X134173004Y-124678704D01*
X134125385Y-124773942D01*
X134077766Y-124821561D01*
X133982528Y-124869180D01*
X133792052Y-124869180D01*
X133696814Y-124821561D01*
X133649195Y-124773942D01*
X133601576Y-124678704D01*
X133601576Y-124440609D01*
X133649195Y-124345371D01*
X133696814Y-124297752D01*
X133792052Y-124250133D01*
X133982528Y-124250133D01*
X134077766Y-124297752D01*
X134125385Y-124345371D01*
X134173004Y-124440609D01*
X132696814Y-123869180D02*
X133173004Y-123869180D01*
X133220623Y-124345371D01*
X133173004Y-124297752D01*
X133077766Y-124250133D01*
X132839671Y-124250133D01*
X132744433Y-124297752D01*
X132696814Y-124345371D01*
X132649195Y-124440609D01*
X132649195Y-124678704D01*
X132696814Y-124773942D01*
X132744433Y-124821561D01*
X132839671Y-124869180D01*
X133077766Y-124869180D01*
X133173004Y-124821561D01*
X133220623Y-124773942D01*
G04 #@! TO.C,R66*
X41259757Y-135079980D02*
X41593090Y-134603790D01*
X41831185Y-135079980D02*
X41831185Y-134079980D01*
X41450233Y-134079980D01*
X41354995Y-134127600D01*
X41307376Y-134175219D01*
X41259757Y-134270457D01*
X41259757Y-134413314D01*
X41307376Y-134508552D01*
X41354995Y-134556171D01*
X41450233Y-134603790D01*
X41831185Y-134603790D01*
X40402614Y-134079980D02*
X40593090Y-134079980D01*
X40688328Y-134127600D01*
X40735947Y-134175219D01*
X40831185Y-134318076D01*
X40878804Y-134508552D01*
X40878804Y-134889504D01*
X40831185Y-134984742D01*
X40783566Y-135032361D01*
X40688328Y-135079980D01*
X40497852Y-135079980D01*
X40402614Y-135032361D01*
X40354995Y-134984742D01*
X40307376Y-134889504D01*
X40307376Y-134651409D01*
X40354995Y-134556171D01*
X40402614Y-134508552D01*
X40497852Y-134460933D01*
X40688328Y-134460933D01*
X40783566Y-134508552D01*
X40831185Y-134556171D01*
X40878804Y-134651409D01*
X39450233Y-134079980D02*
X39640709Y-134079980D01*
X39735947Y-134127600D01*
X39783566Y-134175219D01*
X39878804Y-134318076D01*
X39926423Y-134508552D01*
X39926423Y-134889504D01*
X39878804Y-134984742D01*
X39831185Y-135032361D01*
X39735947Y-135079980D01*
X39545471Y-135079980D01*
X39450233Y-135032361D01*
X39402614Y-134984742D01*
X39354995Y-134889504D01*
X39354995Y-134651409D01*
X39402614Y-134556171D01*
X39450233Y-134508552D01*
X39545471Y-134460933D01*
X39735947Y-134460933D01*
X39831185Y-134508552D01*
X39878804Y-134556171D01*
X39926423Y-134651409D01*
G04 #@! TO.C,R67*
X50225957Y-112829580D02*
X50559290Y-112353390D01*
X50797385Y-112829580D02*
X50797385Y-111829580D01*
X50416433Y-111829580D01*
X50321195Y-111877200D01*
X50273576Y-111924819D01*
X50225957Y-112020057D01*
X50225957Y-112162914D01*
X50273576Y-112258152D01*
X50321195Y-112305771D01*
X50416433Y-112353390D01*
X50797385Y-112353390D01*
X49368814Y-111829580D02*
X49559290Y-111829580D01*
X49654528Y-111877200D01*
X49702147Y-111924819D01*
X49797385Y-112067676D01*
X49845004Y-112258152D01*
X49845004Y-112639104D01*
X49797385Y-112734342D01*
X49749766Y-112781961D01*
X49654528Y-112829580D01*
X49464052Y-112829580D01*
X49368814Y-112781961D01*
X49321195Y-112734342D01*
X49273576Y-112639104D01*
X49273576Y-112401009D01*
X49321195Y-112305771D01*
X49368814Y-112258152D01*
X49464052Y-112210533D01*
X49654528Y-112210533D01*
X49749766Y-112258152D01*
X49797385Y-112305771D01*
X49845004Y-112401009D01*
X48940242Y-111829580D02*
X48273576Y-111829580D01*
X48702147Y-112829580D01*
G04 #@! TO.C,R68*
X134526257Y-119738380D02*
X134859590Y-119262190D01*
X135097685Y-119738380D02*
X135097685Y-118738380D01*
X134716733Y-118738380D01*
X134621495Y-118786000D01*
X134573876Y-118833619D01*
X134526257Y-118928857D01*
X134526257Y-119071714D01*
X134573876Y-119166952D01*
X134621495Y-119214571D01*
X134716733Y-119262190D01*
X135097685Y-119262190D01*
X133669114Y-118738380D02*
X133859590Y-118738380D01*
X133954828Y-118786000D01*
X134002447Y-118833619D01*
X134097685Y-118976476D01*
X134145304Y-119166952D01*
X134145304Y-119547904D01*
X134097685Y-119643142D01*
X134050066Y-119690761D01*
X133954828Y-119738380D01*
X133764352Y-119738380D01*
X133669114Y-119690761D01*
X133621495Y-119643142D01*
X133573876Y-119547904D01*
X133573876Y-119309809D01*
X133621495Y-119214571D01*
X133669114Y-119166952D01*
X133764352Y-119119333D01*
X133954828Y-119119333D01*
X134050066Y-119166952D01*
X134097685Y-119214571D01*
X134145304Y-119309809D01*
X133002447Y-119166952D02*
X133097685Y-119119333D01*
X133145304Y-119071714D01*
X133192923Y-118976476D01*
X133192923Y-118928857D01*
X133145304Y-118833619D01*
X133097685Y-118786000D01*
X133002447Y-118738380D01*
X132811971Y-118738380D01*
X132716733Y-118786000D01*
X132669114Y-118833619D01*
X132621495Y-118928857D01*
X132621495Y-118976476D01*
X132669114Y-119071714D01*
X132716733Y-119119333D01*
X132811971Y-119166952D01*
X133002447Y-119166952D01*
X133097685Y-119214571D01*
X133145304Y-119262190D01*
X133192923Y-119357428D01*
X133192923Y-119547904D01*
X133145304Y-119643142D01*
X133097685Y-119690761D01*
X133002447Y-119738380D01*
X132811971Y-119738380D01*
X132716733Y-119690761D01*
X132669114Y-119643142D01*
X132621495Y-119547904D01*
X132621495Y-119357428D01*
X132669114Y-119262190D01*
X132716733Y-119214571D01*
X132811971Y-119166952D01*
G04 #@! TO.C,R69*
X41234357Y-129974580D02*
X41567690Y-129498390D01*
X41805785Y-129974580D02*
X41805785Y-128974580D01*
X41424833Y-128974580D01*
X41329595Y-129022200D01*
X41281976Y-129069819D01*
X41234357Y-129165057D01*
X41234357Y-129307914D01*
X41281976Y-129403152D01*
X41329595Y-129450771D01*
X41424833Y-129498390D01*
X41805785Y-129498390D01*
X40377214Y-128974580D02*
X40567690Y-128974580D01*
X40662928Y-129022200D01*
X40710547Y-129069819D01*
X40805785Y-129212676D01*
X40853404Y-129403152D01*
X40853404Y-129784104D01*
X40805785Y-129879342D01*
X40758166Y-129926961D01*
X40662928Y-129974580D01*
X40472452Y-129974580D01*
X40377214Y-129926961D01*
X40329595Y-129879342D01*
X40281976Y-129784104D01*
X40281976Y-129546009D01*
X40329595Y-129450771D01*
X40377214Y-129403152D01*
X40472452Y-129355533D01*
X40662928Y-129355533D01*
X40758166Y-129403152D01*
X40805785Y-129450771D01*
X40853404Y-129546009D01*
X39805785Y-129974580D02*
X39615309Y-129974580D01*
X39520071Y-129926961D01*
X39472452Y-129879342D01*
X39377214Y-129736485D01*
X39329595Y-129546009D01*
X39329595Y-129165057D01*
X39377214Y-129069819D01*
X39424833Y-129022200D01*
X39520071Y-128974580D01*
X39710547Y-128974580D01*
X39805785Y-129022200D01*
X39853404Y-129069819D01*
X39901023Y-129165057D01*
X39901023Y-129403152D01*
X39853404Y-129498390D01*
X39805785Y-129546009D01*
X39710547Y-129593628D01*
X39520071Y-129593628D01*
X39424833Y-129546009D01*
X39377214Y-129498390D01*
X39329595Y-129403152D01*
G04 #@! TO.C,R70*
X47914557Y-135105380D02*
X48247890Y-134629190D01*
X48485985Y-135105380D02*
X48485985Y-134105380D01*
X48105033Y-134105380D01*
X48009795Y-134153000D01*
X47962176Y-134200619D01*
X47914557Y-134295857D01*
X47914557Y-134438714D01*
X47962176Y-134533952D01*
X48009795Y-134581571D01*
X48105033Y-134629190D01*
X48485985Y-134629190D01*
X47581223Y-134105380D02*
X46914557Y-134105380D01*
X47343128Y-135105380D01*
X46343128Y-134105380D02*
X46247890Y-134105380D01*
X46152652Y-134153000D01*
X46105033Y-134200619D01*
X46057414Y-134295857D01*
X46009795Y-134486333D01*
X46009795Y-134724428D01*
X46057414Y-134914904D01*
X46105033Y-135010142D01*
X46152652Y-135057761D01*
X46247890Y-135105380D01*
X46343128Y-135105380D01*
X46438366Y-135057761D01*
X46485985Y-135010142D01*
X46533604Y-134914904D01*
X46581223Y-134724428D01*
X46581223Y-134486333D01*
X46533604Y-134295857D01*
X46485985Y-134200619D01*
X46438366Y-134153000D01*
X46343128Y-134105380D01*
G04 #@! TO.C,R71*
X58607957Y-112829580D02*
X58941290Y-112353390D01*
X59179385Y-112829580D02*
X59179385Y-111829580D01*
X58798433Y-111829580D01*
X58703195Y-111877200D01*
X58655576Y-111924819D01*
X58607957Y-112020057D01*
X58607957Y-112162914D01*
X58655576Y-112258152D01*
X58703195Y-112305771D01*
X58798433Y-112353390D01*
X59179385Y-112353390D01*
X58274623Y-111829580D02*
X57607957Y-111829580D01*
X58036528Y-112829580D01*
X56703195Y-112829580D02*
X57274623Y-112829580D01*
X56988909Y-112829580D02*
X56988909Y-111829580D01*
X57084147Y-111972438D01*
X57179385Y-112067676D01*
X57274623Y-112115295D01*
G04 #@! TO.C,R72*
X41206657Y-124869180D02*
X41539990Y-124392990D01*
X41778085Y-124869180D02*
X41778085Y-123869180D01*
X41397133Y-123869180D01*
X41301895Y-123916800D01*
X41254276Y-123964419D01*
X41206657Y-124059657D01*
X41206657Y-124202514D01*
X41254276Y-124297752D01*
X41301895Y-124345371D01*
X41397133Y-124392990D01*
X41778085Y-124392990D01*
X40873323Y-123869180D02*
X40206657Y-123869180D01*
X40635228Y-124869180D01*
X39873323Y-123964419D02*
X39825704Y-123916800D01*
X39730466Y-123869180D01*
X39492371Y-123869180D01*
X39397133Y-123916800D01*
X39349514Y-123964419D01*
X39301895Y-124059657D01*
X39301895Y-124154895D01*
X39349514Y-124297752D01*
X39920942Y-124869180D01*
X39301895Y-124869180D01*
G04 #@! TO.C,R73*
X47914557Y-129999980D02*
X48247890Y-129523790D01*
X48485985Y-129999980D02*
X48485985Y-128999980D01*
X48105033Y-128999980D01*
X48009795Y-129047600D01*
X47962176Y-129095219D01*
X47914557Y-129190457D01*
X47914557Y-129333314D01*
X47962176Y-129428552D01*
X48009795Y-129476171D01*
X48105033Y-129523790D01*
X48485985Y-129523790D01*
X47581223Y-128999980D02*
X46914557Y-128999980D01*
X47343128Y-129999980D01*
X46628842Y-128999980D02*
X46009795Y-128999980D01*
X46343128Y-129380933D01*
X46200271Y-129380933D01*
X46105033Y-129428552D01*
X46057414Y-129476171D01*
X46009795Y-129571409D01*
X46009795Y-129809504D01*
X46057414Y-129904742D01*
X46105033Y-129952361D01*
X46200271Y-129999980D01*
X46485985Y-129999980D01*
X46581223Y-129952361D01*
X46628842Y-129904742D01*
G04 #@! TO.C,R74*
X54467757Y-135054580D02*
X54801090Y-134578390D01*
X55039185Y-135054580D02*
X55039185Y-134054580D01*
X54658233Y-134054580D01*
X54562995Y-134102200D01*
X54515376Y-134149819D01*
X54467757Y-134245057D01*
X54467757Y-134387914D01*
X54515376Y-134483152D01*
X54562995Y-134530771D01*
X54658233Y-134578390D01*
X55039185Y-134578390D01*
X54134423Y-134054580D02*
X53467757Y-134054580D01*
X53896328Y-135054580D01*
X52658233Y-134387914D02*
X52658233Y-135054580D01*
X52896328Y-134006961D02*
X53134423Y-134721247D01*
X52515376Y-134721247D01*
G04 #@! TO.C,R75*
X66939157Y-112829580D02*
X67272490Y-112353390D01*
X67510585Y-112829580D02*
X67510585Y-111829580D01*
X67129633Y-111829580D01*
X67034395Y-111877200D01*
X66986776Y-111924819D01*
X66939157Y-112020057D01*
X66939157Y-112162914D01*
X66986776Y-112258152D01*
X67034395Y-112305771D01*
X67129633Y-112353390D01*
X67510585Y-112353390D01*
X66605823Y-111829580D02*
X65939157Y-111829580D01*
X66367728Y-112829580D01*
X65082014Y-111829580D02*
X65558204Y-111829580D01*
X65605823Y-112305771D01*
X65558204Y-112258152D01*
X65462966Y-112210533D01*
X65224871Y-112210533D01*
X65129633Y-112258152D01*
X65082014Y-112305771D01*
X65034395Y-112401009D01*
X65034395Y-112639104D01*
X65082014Y-112734342D01*
X65129633Y-112781961D01*
X65224871Y-112829580D01*
X65462966Y-112829580D01*
X65558204Y-112781961D01*
X65605823Y-112734342D01*
G04 #@! TO.C,J1*
X119778980Y-85874266D02*
X120493266Y-85874266D01*
X120636123Y-85826647D01*
X120731361Y-85731409D01*
X120778980Y-85588552D01*
X120778980Y-85493314D01*
X120778980Y-86874266D02*
X120778980Y-86302838D01*
X120778980Y-86588552D02*
X119778980Y-86588552D01*
X119921838Y-86493314D01*
X120017076Y-86398076D01*
X120064695Y-86302838D01*
G04 #@! TO.C,U2*
X75587180Y-98627895D02*
X76396704Y-98627895D01*
X76491942Y-98675514D01*
X76539561Y-98723133D01*
X76587180Y-98818371D01*
X76587180Y-99008847D01*
X76539561Y-99104085D01*
X76491942Y-99151704D01*
X76396704Y-99199323D01*
X75587180Y-99199323D01*
X75682419Y-99627895D02*
X75634800Y-99675514D01*
X75587180Y-99770752D01*
X75587180Y-100008847D01*
X75634800Y-100104085D01*
X75682419Y-100151704D01*
X75777657Y-100199323D01*
X75872895Y-100199323D01*
X76015752Y-100151704D01*
X76587180Y-99580276D01*
X76587180Y-100199323D01*
G04 #@! TO.C,U9*
X67701180Y-98730295D02*
X68510704Y-98730295D01*
X68605942Y-98777914D01*
X68653561Y-98825533D01*
X68701180Y-98920771D01*
X68701180Y-99111247D01*
X68653561Y-99206485D01*
X68605942Y-99254104D01*
X68510704Y-99301723D01*
X67701180Y-99301723D01*
X68701180Y-99825533D02*
X68701180Y-100016009D01*
X68653561Y-100111247D01*
X68605942Y-100158866D01*
X68463085Y-100254104D01*
X68272609Y-100301723D01*
X67891657Y-100301723D01*
X67796419Y-100254104D01*
X67748800Y-100206485D01*
X67701180Y-100111247D01*
X67701180Y-99920771D01*
X67748800Y-99825533D01*
X67796419Y-99777914D01*
X67891657Y-99730295D01*
X68129752Y-99730295D01*
X68224990Y-99777914D01*
X68272609Y-99825533D01*
X68320228Y-99920771D01*
X68320228Y-100111247D01*
X68272609Y-100206485D01*
X68224990Y-100254104D01*
X68129752Y-100301723D01*
G04 #@! TO.C,U10*
X103313980Y-98304104D02*
X104123504Y-98304104D01*
X104218742Y-98351723D01*
X104266361Y-98399342D01*
X104313980Y-98494580D01*
X104313980Y-98685057D01*
X104266361Y-98780295D01*
X104218742Y-98827914D01*
X104123504Y-98875533D01*
X103313980Y-98875533D01*
X104313980Y-99875533D02*
X104313980Y-99304104D01*
X104313980Y-99589819D02*
X103313980Y-99589819D01*
X103456838Y-99494580D01*
X103552076Y-99399342D01*
X103599695Y-99304104D01*
X103313980Y-100494580D02*
X103313980Y-100589819D01*
X103361600Y-100685057D01*
X103409219Y-100732676D01*
X103504457Y-100780295D01*
X103694933Y-100827914D01*
X103933028Y-100827914D01*
X104123504Y-100780295D01*
X104218742Y-100732676D01*
X104266361Y-100685057D01*
X104313980Y-100589819D01*
X104313980Y-100494580D01*
X104266361Y-100399342D01*
X104218742Y-100351723D01*
X104123504Y-100304104D01*
X103933028Y-100256485D01*
X103694933Y-100256485D01*
X103504457Y-100304104D01*
X103409219Y-100351723D01*
X103361600Y-100399342D01*
X103313980Y-100494580D01*
G04 #@! TD*
M02*
