M48
;DRILL file {KiCad 5.0.2-bee76a0~70~ubuntu16.04.1} date Mon 20 Jan 2020 17:48:06 PST
;FORMAT={-:-/ absolute / inch / decimal}
FMAT,2
INCH,TZ
T1C0.0157
T2C0.0276
T3C0.0300
T4C0.0394
T5C0.0598
%
G90
G05
T1
X1.4924Y-4.075
X1.4927Y-4.1174
X1.5101Y-4.387
X1.513Y-5.24
X1.517Y-5.042
X1.52Y-4.842
X1.524Y-4.642
X1.537Y-3.887
X1.5539Y-4.3401
X1.562Y-3.854
X1.562Y-4.028
X1.5646Y-4.418
X1.602Y-4.1663
X1.619Y-3.968
X1.6599Y-4.1692
X1.662Y-4.
X1.6789Y-3.821
X1.6789Y-3.888
X1.6795Y-4.8602
X1.6812Y-4.656
X1.6812Y-5.0624
X1.6846Y-5.2558
X1.6905Y-4.0659
X1.7024Y-4.1035
X1.7058Y-3.961
X1.7075Y-3.785
X1.736Y-3.73
X1.737Y-3.937
X1.7499Y-4.0534
X1.756Y-5.2174
X1.766Y-3.757
X1.766Y-3.9085
X1.7724Y-3.822
X1.775Y-5.046
X1.7866Y-4.641
X1.789Y-4.839
X1.7977Y-3.52
X1.8123Y-4.3956
X1.8139Y-3.8631
X1.8215Y-4.3563
X1.823Y-4.075
X1.8251Y-4.4339
X1.8252Y-4.1938
X1.859Y-5.192
X1.867Y-3.827
X1.873Y-3.937
X1.878Y-3.677
X1.8997Y-3.9081
X1.923Y-4.425
X1.9301Y-3.969
X1.964Y-3.4954
X1.976Y-3.584
X1.989Y-3.919
X1.995Y-5.197
X2.0014Y-3.4954
X2.0014Y-3.5446
X2.022Y-3.358
X2.024Y-5.047
X2.025Y-4.0275
X2.029Y-4.841
X2.048Y-4.641
X2.053Y-4.208
X2.0535Y-4.0761
X2.0598Y-3.3631
X2.075Y-3.92
X2.0825Y-3.9705
X2.101Y-3.509
X2.1055Y-3.8355
X2.106Y-3.893
X2.124Y-4.411
X2.136Y-3.719
X2.137Y-3.805
X2.1393Y-3.9116
X2.177Y-3.545
X2.1944Y-4.0765
X2.195Y-3.469
X2.198Y-4.208
X2.205Y-3.584
X2.2107Y-4.0288
X2.211Y-3.347
X2.211Y-3.406
X2.2121Y-3.892
X2.224Y-3.9525
X2.2434Y-3.692
X2.255Y-3.805
X2.255Y-3.8746
X2.258Y-5.202
X2.266Y-3.075
X2.2693Y-4.0272
X2.277Y-3.345
X2.2774Y-3.663
X2.2813Y-3.9637
X2.282Y-5.049
X2.286Y-3.468
X2.291Y-4.842
X2.2992Y-4.0945
X2.302Y-3.54
X2.302Y-4.641
X2.306Y-4.037
X2.3177Y-3.7746
X2.3305Y-3.5688
X2.342Y-3.977
X2.343Y-3.853
X2.35Y-3.603
X2.3532Y-3.8117
X2.3561Y-3.7243
X2.363Y-3.142
X2.363Y-3.3566
X2.368Y-4.1562
X2.3783Y-3.4073
X2.3804Y-3.7786
X2.3804Y-3.8634
X2.3926Y-3.994
X2.405Y-3.381
X2.409Y-4.3675
X2.4154Y-4.0955
X2.4172Y-3.6256
X2.4172Y-3.663
X2.418Y-3.9363
X2.4316Y-3.466
X2.438Y-3.861
X2.439Y-4.3363
X2.446Y-4.2786
X2.4552Y-3.9403
X2.4564Y-3.9916
X2.4583Y-4.2141
X2.4678Y-3.4912
X2.4716Y-3.605
X2.474Y-4.1325
X2.4893Y-4.4493
X2.4983Y-4.0856
X2.508Y-3.5434
X2.5087Y-3.9526
X2.509Y-3.605
X2.51Y-4.3545
X2.514Y-5.2024
X2.5187Y-4.4754
X2.5226Y-3.3726
X2.535Y-3.851
X2.5354Y-4.0904
X2.538Y-5.05
X2.542Y-3.284
X2.5433Y-4.5054
X2.5574Y-4.701
X2.558Y-3.7444
X2.558Y-4.84
X2.56Y-3.3726
X2.56Y-3.5016
X2.562Y-4.641
X2.5818Y-3.8784
X2.5876Y-3.5434
X2.591Y-4.1402
X2.609Y-4.309
X2.6102Y-3.8521
X2.611Y-3.9772
X2.615Y-3.3522
X2.627Y-3.508
X2.627Y-3.556
X2.637Y-3.607
X2.64Y-3.7477
X2.6468Y-4.154
X2.6533Y-3.8567
X2.668Y-3.95
X2.672Y-3.5365
X2.6784Y-4.0659
X2.688Y-3.6965
X2.7031Y-4.1402
X2.7057Y-4.21
X2.718Y-3.9804
X2.7182Y-3.8993
X2.72Y-3.6414
X2.72Y-3.819
X2.729Y-4.071
X2.737Y-4.427
X2.7474Y-3.67
X2.7474Y-3.7477
X2.7523Y-4.267
X2.7555Y-4.1025
X2.7562Y-3.8992
X2.77Y-4.1971
X2.774Y-3.574
X2.7745Y-4.429
X2.783Y-5.202
X2.788Y-3.4564
X2.7988Y-4.224
X2.801Y-3.3054
X2.805Y-5.0516
X2.8079Y-3.5986
X2.808Y-4.051
X2.8084Y-3.7841
X2.82Y-4.84
X2.826Y-4.642
X2.8273Y-4.155
X2.8325Y-3.435
X2.835Y-3.909
X2.846Y-4.433
X2.847Y-3.775
X2.8488Y-3.6956
X2.8545Y-4.1177
X2.8745Y-4.037
X2.8754Y-3.839
X2.889Y-3.197
X2.893Y-3.584
X2.8939Y-4.1185
X2.9Y-3.621
X2.902Y-3.9495
X2.914Y-3.3664
X2.9331Y-4.0406
X2.9438Y-3.9516
X2.9591Y-3.7543
X2.9654Y-3.5726
X2.9702Y-4.1124
X2.9735Y-3.9744
X2.979Y-3.838
X2.99Y-3.5
X2.9969Y-3.7179
X2.9984Y-3.678
X3.009Y-3.391
X3.015Y-4.3975
X3.0151Y-3.7673
X3.0188Y-3.6406
X3.0191Y-3.8559
X3.0309Y-4.183
X3.032Y-4.0844
X3.035Y-5.2024
X3.0435Y-4.4249
X3.05Y-4.9984
X3.0656Y-4.3635
X3.067Y-3.9071
X3.067Y-5.0516
X3.069Y-3.268
X3.073Y-3.5726
X3.074Y-4.897
X3.077Y-3.386
X3.0783Y-4.8247
X3.0821Y-4.4383
X3.0891Y-4.1173
X3.093Y-4.639
X3.1Y-3.734
X3.102Y-4.324
X3.105Y-4.3635
X3.106Y-3.3054
X3.124Y-3.8524
X3.1264Y-3.39
X3.1486Y-4.0916
X3.1757Y-4.4294
X3.178Y-3.267
X3.1991Y-3.5614
X3.201Y-3.9772
X3.2042Y-3.739
X3.2052Y-3.3956
X3.2199Y-3.851
X3.2345Y-3.5735
X3.245Y-4.0844
X3.256Y-3.024
X3.267Y-3.426
X3.267Y-3.592
X3.279Y-3.4644
X3.2809Y-3.8116
X3.281Y-4.4294
X3.285Y-3.9614
X3.2917Y-3.679
X3.292Y-3.3664
X3.305Y-5.2024
X3.306Y-4.0226
X3.3152Y-3.8486
X3.3177Y-4.4737
X3.3284Y-3.7332
X3.33Y-3.217
X3.3313Y-4.821
X3.334Y-5.0516
X3.336Y-4.51
X3.3409Y-3.6403
X3.346Y-3.9614
X3.3514Y-3.8638
X3.3534Y-3.7636
X3.355Y-4.641
X3.363Y-3.3849
X3.3666Y-4.8384
X3.381Y-3.506
X3.383Y-3.8006
X3.3873Y-4.1424
X3.3894Y-3.882
X3.3928Y-3.6878
X3.396Y-4.3784
X3.401Y-3.5674
X3.4239Y-3.75
X3.4247Y-4.1424
X3.426Y-3.46
X3.43Y-4.1919
X3.433Y-3.359
X3.441Y-3.668
X3.4418Y-4.3713
X3.4428Y-4.3307
X3.4492Y-4.41
X3.4606Y-3.7428
X3.4617Y-4.2937
X3.4621Y-4.1424
X3.474Y-3.9489
X3.4764Y-3.4341
X3.4826Y-4.1111
X3.4868Y-4.0382
X3.501Y-3.474
X3.5015Y-3.9228
X3.507Y-3.7656
X3.5116Y-4.4553
X3.5256Y-3.4446
X3.538Y-4.0276
X3.5404Y-3.6574
X3.5456Y-4.095
X3.547Y-3.919
X3.552Y-3.39
X3.552Y-3.769
X3.555Y-3.846
X3.557Y-4.147
X3.568Y-5.2024
X3.5733Y-4.4186
X3.5775Y-4.4577
X3.585Y-3.9194
X3.585Y-4.096
X3.596Y-5.052
X3.608Y-4.8384
X3.6138Y-3.387
X3.617Y-4.641
X3.6223Y-3.9062
X3.672Y-4.1104
X3.6853Y-3.9654
X3.7027Y-4.3806
X3.709Y-3.8654
X3.7265Y-4.229
X3.7384Y-4.0985
X3.7398Y-3.737
X3.7402Y-3.976
X3.7441Y-4.3796
X3.753Y-4.273
X3.7573Y-4.33
X3.7726Y-3.3867
X3.7754Y-4.456
X3.777Y-4.095
X3.7897Y-4.4927
X3.792Y-3.8141
X3.8004Y-3.6434
X3.8026Y-4.3868
X3.814Y-4.159
X3.818Y-5.2024
X3.824Y-4.021
X3.8242Y-4.5136
X3.8253Y-3.6949
X3.84Y-3.3633
X3.8468Y-4.3466
X3.848Y-3.7796
X3.849Y-4.123
X3.8502Y-4.4721
X3.852Y-3.4527
X3.852Y-3.502
X3.853Y-3.8524
X3.859Y-5.052
X3.8624Y-3.737
X3.8648Y-3.4176
X3.878Y-4.8384
X3.884Y-4.642
X3.885Y-3.6621
X3.901Y-3.3992
X3.9156Y-3.3201
X3.927Y-3.7497
X3.929Y-3.355
X3.94Y-4.449
X3.9401Y-4.158
X3.9647Y-3.5472
X3.968Y-3.386
X3.968Y-3.4485
X3.9732Y-4.1072
X3.98Y-3.867
X3.9854Y-4.0575
X3.9909Y-4.1402
X3.9913Y-3.7017
X4.0193Y-4.0959
X4.0235Y-3.6593
X4.026Y-3.7251
X4.03Y-4.148
X4.032Y-3.4086
X4.0359Y-4.1869
X4.037Y-4.38
X4.063Y-4.02
X4.0635Y-3.7979
X4.0638Y-3.0268
X4.0655Y-4.3522
X4.0827Y-5.2024
X4.0879Y-4.1714
X4.092Y-3.285
X4.092Y-3.956
X4.093Y-4.073
X4.0933Y-3.4307
X4.0941Y-4.381
X4.095Y-3.6297
X4.1Y-3.8434
X4.1187Y-4.236
X4.1207Y-4.2919
X4.123Y-5.052
X4.1319Y-4.3503
X4.132Y-4.8384
X4.135Y-4.0992
X4.14Y-4.641
X4.1638Y-4.4183
X4.165Y-4.205
X4.1734Y-4.3788
X4.19Y-3.9784
X4.241Y-4.1056
X4.292Y-3.8524
X4.293Y-3.4964
X4.293Y-4.0884
X4.295Y-3.3134
X4.314Y-4.4616
X4.343Y-5.2558
X4.347Y-5.025
X4.349Y-3.9882
X4.3521Y-5.1744
X4.353Y-4.911
X4.3537Y-3.8034
X4.3572Y-4.3772
X4.359Y-4.822
X4.3605Y-3.7083
X4.3614Y-3.668
X4.3676Y-3.5472
X4.372Y-4.506
X4.38Y-5.074
X4.381Y-4.642
X4.384Y-4.2336
X4.386Y-3.493
X4.3992Y-4.3694
X4.405Y-3.5252
X4.4092Y-4.4329
X4.4113Y-3.7672
X4.4131Y-4.1209
X4.4143Y-4.1583
X4.4147Y-3.8764
X4.4233Y-4.2404
X4.4275Y-4.398
X4.4288Y-4.2801
X4.4361Y-3.4353
X4.439Y-3.793
X4.4542Y-3.559
X4.4606Y-3.6848
X4.4664Y-4.099
X4.4729Y-3.4417
X4.487Y-5.19
X4.4923Y-3.8772
X4.499Y-4.4526
X4.5027Y-3.752
X4.5034Y-3.569
X4.5094Y-3.4328
X4.5121Y-4.36
X4.513Y-3.031
X4.5173Y-4.0816
X4.5182Y-4.1204
X4.525Y-4.4
X4.5401Y-3.5764
X4.5557Y-4.1177
X4.5628Y-4.4205
X4.5628Y-3.5426
X4.5936Y-3.5732
X4.5991Y-4.1622
X4.6016Y-4.4383
X4.606Y-5.2558
X4.62Y-5.028
X4.6242Y-3.9086
X4.636Y-3.8594
X4.636Y-4.903
X4.639Y-4.833
X4.6478Y-3.9882
X4.654Y-4.642
X4.6546Y-3.5886
X4.6546Y-3.626
X4.6664Y-3.6755
X4.674Y-5.2264
X4.6849Y-3.7534
X4.7061Y-3.8259
X4.708Y-4.392
X4.7223Y-3.7445
X4.7254Y-3.99
X4.726Y-4.082
X4.7369Y-4.4188
X4.7374Y-3.9044
X4.748Y-3.6738
X4.7517Y-4.0548
X4.752Y-4.1284
X4.7597Y-4.4508
X4.762Y-3.8554
X4.7672Y-3.8158
X4.7695Y-4.1795
X4.777Y-3.939
X4.786Y-3.761
X4.79Y-4.0564
X4.8016Y-3.974
X4.8085Y-4.1615
X4.815Y-4.345
X4.8262Y-4.0066
X4.8263Y-4.0664
X4.861Y-5.2558
X4.8697Y-4.0807
X4.875Y-5.131
X4.8895Y-4.866
X4.894Y-5.056
X4.909Y-4.451
X4.913Y-4.639
X4.929Y-5.2292
X4.934Y-4.839
X4.973Y-3.029
X5.0022Y-4.208
X5.0401Y-4.2111
X5.0647Y-4.2397
X5.084Y-3.489
X5.141Y-4.134
X5.153Y-5.058
X5.163Y-4.838
X5.172Y-4.451
X5.173Y-3.794
X5.1746Y-3.9643
X5.175Y-4.64
X5.2048Y-3.939
X5.207Y-3.826
X5.236Y-3.915
X5.239Y-3.856
X5.272Y-3.887
T2
X1.833Y-3.254
X2.133Y-3.254
X1.839Y-3.09
X2.139Y-3.09
T3
X4.421Y-4.566
X4.5509Y-4.566
X1.7961Y-4.563
X1.926Y-4.563
X3.372Y-4.567
X3.5019Y-4.567
X3.205Y-4.283
X3.335Y-4.283
X4.419Y-4.761
X4.5489Y-4.761
X4.686Y-4.966
X4.816Y-4.966
X1.5351Y-4.566
X1.665Y-4.566
X2.846Y-4.566
X2.9759Y-4.566
X3.895Y-4.766
X4.0249Y-4.766
X1.796Y-4.971
X1.9259Y-4.971
X5.208Y-4.765
X5.3379Y-4.765
X3.109Y-4.966
X3.2389Y-4.966
X3.371Y-4.764
X3.5009Y-4.764
X3.112Y-4.764
X3.2419Y-4.764
X4.5191Y-4.282
X4.649Y-4.282
X2.847Y-4.965
X2.977Y-4.965
X3.639Y-4.765
X3.769Y-4.765
X3.896Y-4.965
X4.0259Y-4.965
X4.678Y-5.166
X4.8079Y-5.166
X2.3211Y-4.567
X2.451Y-4.567
X4.159Y-4.968
X4.2889Y-4.968
X4.158Y-5.167
X4.2879Y-5.167
X3.895Y-4.568
X4.0249Y-4.568
X4.424Y-5.166
X4.554Y-5.166
X2.321Y-4.769
X2.4509Y-4.769
X1.532Y-4.967
X1.6619Y-4.967
X4.945Y-4.565
X5.0749Y-4.565
X4.686Y-4.766
X4.8159Y-4.766
X2.584Y-4.965
X2.714Y-4.965
X3.371Y-5.166
X3.5009Y-5.166
X5.21Y-5.168
X5.34Y-5.168
X3.109Y-5.168
X3.239Y-5.168
X1.533Y-4.766
X1.6629Y-4.766
X1.8941Y-4.283
X2.024Y-4.283
X2.8811Y-4.281
X3.011Y-4.281
X2.583Y-4.768
X2.7129Y-4.768
X2.058Y-4.765
X2.1879Y-4.765
X2.583Y-4.565
X2.7129Y-4.565
X4.947Y-4.765
X5.0769Y-4.765
X4.1921Y-4.282
X4.322Y-4.282
X4.156Y-4.767
X4.2859Y-4.767
X2.848Y-4.765
X2.9779Y-4.765
X3.63Y-5.166
X3.7599Y-5.166
X3.109Y-4.566
X3.2389Y-4.566
X3.635Y-4.564
X3.7649Y-4.564
X1.794Y-5.169
X1.924Y-5.169
X5.175Y-4.28
X5.3049Y-4.28
X3.895Y-5.166
X4.0249Y-5.166
X2.582Y-5.169
X2.712Y-5.169
X1.797Y-4.763
X1.9269Y-4.763
X2.5511Y-4.282
X2.681Y-4.282
X4.423Y-4.969
X4.5529Y-4.969
X2.32Y-5.166
X2.45Y-5.166
X4.943Y-5.167
X5.0729Y-5.167
X3.861Y-4.281
X3.991Y-4.281
X4.157Y-4.566
X4.2869Y-4.566
X5.208Y-4.565
X5.3379Y-4.565
X3.37Y-4.972
X3.4999Y-4.972
X2.847Y-5.165
X2.9769Y-5.165
X3.5351Y-4.28
X3.665Y-4.28
X2.059Y-4.568
X2.1889Y-4.568
X2.2231Y-4.283
X2.353Y-4.283
X1.5671Y-4.282
X1.697Y-4.282
X4.94Y-4.966
X5.07Y-4.966
X5.207Y-4.97
X5.3369Y-4.97
X1.533Y-5.171
X1.663Y-5.171
X2.052Y-4.968
X2.1819Y-4.968
X4.85Y-4.281
X4.9799Y-4.281
X2.321Y-4.972
X2.4509Y-4.972
X4.687Y-4.568
X4.8169Y-4.568
X2.061Y-5.165
X2.191Y-5.165
X3.633Y-4.967
X3.7629Y-4.967
T4
X4.829Y-3.394
X4.929Y-3.394
X5.029Y-3.394
X5.129Y-3.394
X5.229Y-3.394
X5.329Y-3.394
T5
X1.627Y-3.417
X1.627Y-3.617
T0
M30
