G04 #@! TF.GenerationSoftware,KiCad,Pcbnew,5.0.2-bee76a0~70~ubuntu16.04.1*
G04 #@! TF.CreationDate,2020-01-20T17:48:56-08:00*
G04 #@! TF.ProjectId,clock,636c6f63-6b2e-46b6-9963-61645f706362,rev?*
G04 #@! TF.SameCoordinates,Original*
G04 #@! TF.FileFunction,Legend,Top*
G04 #@! TF.FilePolarity,Positive*
%FSLAX46Y46*%
G04 Gerber Fmt 4.6, Leading zero omitted, Abs format (unit mm)*
G04 Created by KiCad (PCBNEW 5.0.2-bee76a0~70~ubuntu16.04.1) date Mon 20 Jan 2020 17:48:56 PST*
%MOMM*%
%LPD*%
G01*
G04 APERTURE LIST*
%ADD10C,0.300000*%
%ADD11C,0.150000*%
%ADD12C,0.120000*%
G04 APERTURE END LIST*
D10*
X117803800Y-86238542D02*
X118946657Y-86238542D01*
X119660942Y-85809971D02*
X120803800Y-86238542D01*
X119660942Y-86667114D01*
X96378971Y-83736571D02*
X96378971Y-82236571D01*
X96378971Y-82950857D02*
X97236114Y-82950857D01*
X97236114Y-83736571D02*
X97236114Y-82236571D01*
X99021828Y-82165142D02*
X97736114Y-84093714D01*
X99164685Y-81588000D02*
X100878971Y-81588000D01*
X99521828Y-83736571D02*
X99521828Y-82236571D01*
X100021828Y-83308000D01*
X100521828Y-82236571D01*
X100521828Y-83736571D01*
X120510371Y-82555542D02*
X121653228Y-82555542D01*
X108877171Y-82555542D02*
X110020028Y-82555542D01*
X109448600Y-83126971D02*
X109448600Y-81984114D01*
X65838485Y-109185971D02*
X65981342Y-109185971D01*
X66124200Y-109257400D01*
X66195628Y-109328828D01*
X66267057Y-109471685D01*
X66338485Y-109757400D01*
X66338485Y-110114542D01*
X66267057Y-110400257D01*
X66195628Y-110543114D01*
X66124200Y-110614542D01*
X65981342Y-110685971D01*
X65838485Y-110685971D01*
X65695628Y-110614542D01*
X65624200Y-110543114D01*
X65552771Y-110400257D01*
X65481342Y-110114542D01*
X65481342Y-109757400D01*
X65552771Y-109471685D01*
X65624200Y-109328828D01*
X65695628Y-109257400D01*
X65838485Y-109185971D01*
X67624200Y-109685971D02*
X67624200Y-110685971D01*
X67267057Y-109114542D02*
X66909914Y-110185971D01*
X67838485Y-110185971D01*
X49049085Y-109084371D02*
X49191942Y-109084371D01*
X49334800Y-109155800D01*
X49406228Y-109227228D01*
X49477657Y-109370085D01*
X49549085Y-109655800D01*
X49549085Y-110012942D01*
X49477657Y-110298657D01*
X49406228Y-110441514D01*
X49334800Y-110512942D01*
X49191942Y-110584371D01*
X49049085Y-110584371D01*
X48906228Y-110512942D01*
X48834800Y-110441514D01*
X48763371Y-110298657D01*
X48691942Y-110012942D01*
X48691942Y-109655800D01*
X48763371Y-109370085D01*
X48834800Y-109227228D01*
X48906228Y-109155800D01*
X49049085Y-109084371D01*
X50120514Y-109227228D02*
X50191942Y-109155800D01*
X50334800Y-109084371D01*
X50691942Y-109084371D01*
X50834800Y-109155800D01*
X50906228Y-109227228D01*
X50977657Y-109370085D01*
X50977657Y-109512942D01*
X50906228Y-109727228D01*
X50049085Y-110584371D01*
X50977657Y-110584371D01*
X107316685Y-109465371D02*
X107459542Y-109465371D01*
X107602400Y-109536800D01*
X107673828Y-109608228D01*
X107745257Y-109751085D01*
X107816685Y-110036800D01*
X107816685Y-110393942D01*
X107745257Y-110679657D01*
X107673828Y-110822514D01*
X107602400Y-110893942D01*
X107459542Y-110965371D01*
X107316685Y-110965371D01*
X107173828Y-110893942D01*
X107102400Y-110822514D01*
X107030971Y-110679657D01*
X106959542Y-110393942D01*
X106959542Y-110036800D01*
X107030971Y-109751085D01*
X107102400Y-109608228D01*
X107173828Y-109536800D01*
X107316685Y-109465371D01*
X108530971Y-110965371D02*
X108816685Y-110965371D01*
X108959542Y-110893942D01*
X109030971Y-110822514D01*
X109173828Y-110608228D01*
X109245257Y-110322514D01*
X109245257Y-109751085D01*
X109173828Y-109608228D01*
X109102400Y-109536800D01*
X108959542Y-109465371D01*
X108673828Y-109465371D01*
X108530971Y-109536800D01*
X108459542Y-109608228D01*
X108388114Y-109751085D01*
X108388114Y-110108228D01*
X108459542Y-110251085D01*
X108530971Y-110322514D01*
X108673828Y-110393942D01*
X108959542Y-110393942D01*
X109102400Y-110322514D01*
X109173828Y-110251085D01*
X109245257Y-110108228D01*
X40794085Y-109135171D02*
X40936942Y-109135171D01*
X41079800Y-109206600D01*
X41151228Y-109278028D01*
X41222657Y-109420885D01*
X41294085Y-109706600D01*
X41294085Y-110063742D01*
X41222657Y-110349457D01*
X41151228Y-110492314D01*
X41079800Y-110563742D01*
X40936942Y-110635171D01*
X40794085Y-110635171D01*
X40651228Y-110563742D01*
X40579800Y-110492314D01*
X40508371Y-110349457D01*
X40436942Y-110063742D01*
X40436942Y-109706600D01*
X40508371Y-109420885D01*
X40579800Y-109278028D01*
X40651228Y-109206600D01*
X40794085Y-109135171D01*
X42722657Y-110635171D02*
X41865514Y-110635171D01*
X42294085Y-110635171D02*
X42294085Y-109135171D01*
X42151228Y-109349457D01*
X42008371Y-109492314D01*
X41865514Y-109563742D01*
X133140485Y-111600371D02*
X132283342Y-111600371D01*
X132711914Y-111600371D02*
X132711914Y-110100371D01*
X132569057Y-110314657D01*
X132426200Y-110457514D01*
X132283342Y-110528942D01*
X133711914Y-110243228D02*
X133783342Y-110171800D01*
X133926200Y-110100371D01*
X134283342Y-110100371D01*
X134426200Y-110171800D01*
X134497628Y-110243228D01*
X134569057Y-110386085D01*
X134569057Y-110528942D01*
X134497628Y-110743228D01*
X133640485Y-111600371D01*
X134569057Y-111600371D01*
X99163285Y-109566971D02*
X99306142Y-109566971D01*
X99449000Y-109638400D01*
X99520428Y-109709828D01*
X99591857Y-109852685D01*
X99663285Y-110138400D01*
X99663285Y-110495542D01*
X99591857Y-110781257D01*
X99520428Y-110924114D01*
X99449000Y-110995542D01*
X99306142Y-111066971D01*
X99163285Y-111066971D01*
X99020428Y-110995542D01*
X98949000Y-110924114D01*
X98877571Y-110781257D01*
X98806142Y-110495542D01*
X98806142Y-110138400D01*
X98877571Y-109852685D01*
X98949000Y-109709828D01*
X99020428Y-109638400D01*
X99163285Y-109566971D01*
X100520428Y-110209828D02*
X100377571Y-110138400D01*
X100306142Y-110066971D01*
X100234714Y-109924114D01*
X100234714Y-109852685D01*
X100306142Y-109709828D01*
X100377571Y-109638400D01*
X100520428Y-109566971D01*
X100806142Y-109566971D01*
X100949000Y-109638400D01*
X101020428Y-109709828D01*
X101091857Y-109852685D01*
X101091857Y-109924114D01*
X101020428Y-110066971D01*
X100949000Y-110138400D01*
X100806142Y-110209828D01*
X100520428Y-110209828D01*
X100377571Y-110281257D01*
X100306142Y-110352685D01*
X100234714Y-110495542D01*
X100234714Y-110781257D01*
X100306142Y-110924114D01*
X100377571Y-110995542D01*
X100520428Y-111066971D01*
X100806142Y-111066971D01*
X100949000Y-110995542D01*
X101020428Y-110924114D01*
X101091857Y-110781257D01*
X101091857Y-110495542D01*
X101020428Y-110352685D01*
X100949000Y-110281257D01*
X100806142Y-110209828D01*
X124656885Y-111270171D02*
X123799742Y-111270171D01*
X124228314Y-111270171D02*
X124228314Y-109770171D01*
X124085457Y-109984457D01*
X123942600Y-110127314D01*
X123799742Y-110198742D01*
X126085457Y-111270171D02*
X125228314Y-111270171D01*
X125656885Y-111270171D02*
X125656885Y-109770171D01*
X125514028Y-109984457D01*
X125371171Y-110127314D01*
X125228314Y-110198742D01*
X116198685Y-111117771D02*
X115341542Y-111117771D01*
X115770114Y-111117771D02*
X115770114Y-109617771D01*
X115627257Y-109832057D01*
X115484400Y-109974914D01*
X115341542Y-110046342D01*
X117127257Y-109617771D02*
X117270114Y-109617771D01*
X117412971Y-109689200D01*
X117484400Y-109760628D01*
X117555828Y-109903485D01*
X117627257Y-110189200D01*
X117627257Y-110546342D01*
X117555828Y-110832057D01*
X117484400Y-110974914D01*
X117412971Y-111046342D01*
X117270114Y-111117771D01*
X117127257Y-111117771D01*
X116984400Y-111046342D01*
X116912971Y-110974914D01*
X116841542Y-110832057D01*
X116770114Y-110546342D01*
X116770114Y-110189200D01*
X116841542Y-109903485D01*
X116912971Y-109760628D01*
X116984400Y-109689200D01*
X117127257Y-109617771D01*
X90603485Y-109287571D02*
X90746342Y-109287571D01*
X90889200Y-109359000D01*
X90960628Y-109430428D01*
X91032057Y-109573285D01*
X91103485Y-109859000D01*
X91103485Y-110216142D01*
X91032057Y-110501857D01*
X90960628Y-110644714D01*
X90889200Y-110716142D01*
X90746342Y-110787571D01*
X90603485Y-110787571D01*
X90460628Y-110716142D01*
X90389200Y-110644714D01*
X90317771Y-110501857D01*
X90246342Y-110216142D01*
X90246342Y-109859000D01*
X90317771Y-109573285D01*
X90389200Y-109430428D01*
X90460628Y-109359000D01*
X90603485Y-109287571D01*
X91603485Y-109287571D02*
X92603485Y-109287571D01*
X91960628Y-110787571D01*
X57227885Y-109312971D02*
X57370742Y-109312971D01*
X57513600Y-109384400D01*
X57585028Y-109455828D01*
X57656457Y-109598685D01*
X57727885Y-109884400D01*
X57727885Y-110241542D01*
X57656457Y-110527257D01*
X57585028Y-110670114D01*
X57513600Y-110741542D01*
X57370742Y-110812971D01*
X57227885Y-110812971D01*
X57085028Y-110741542D01*
X57013600Y-110670114D01*
X56942171Y-110527257D01*
X56870742Y-110241542D01*
X56870742Y-109884400D01*
X56942171Y-109598685D01*
X57013600Y-109455828D01*
X57085028Y-109384400D01*
X57227885Y-109312971D01*
X58227885Y-109312971D02*
X59156457Y-109312971D01*
X58656457Y-109884400D01*
X58870742Y-109884400D01*
X59013600Y-109955828D01*
X59085028Y-110027257D01*
X59156457Y-110170114D01*
X59156457Y-110527257D01*
X59085028Y-110670114D01*
X59013600Y-110741542D01*
X58870742Y-110812971D01*
X58442171Y-110812971D01*
X58299314Y-110741542D01*
X58227885Y-110670114D01*
X82196085Y-109338371D02*
X82338942Y-109338371D01*
X82481800Y-109409800D01*
X82553228Y-109481228D01*
X82624657Y-109624085D01*
X82696085Y-109909800D01*
X82696085Y-110266942D01*
X82624657Y-110552657D01*
X82553228Y-110695514D01*
X82481800Y-110766942D01*
X82338942Y-110838371D01*
X82196085Y-110838371D01*
X82053228Y-110766942D01*
X81981800Y-110695514D01*
X81910371Y-110552657D01*
X81838942Y-110266942D01*
X81838942Y-109909800D01*
X81910371Y-109624085D01*
X81981800Y-109481228D01*
X82053228Y-109409800D01*
X82196085Y-109338371D01*
X83981800Y-109338371D02*
X83696085Y-109338371D01*
X83553228Y-109409800D01*
X83481800Y-109481228D01*
X83338942Y-109695514D01*
X83267514Y-109981228D01*
X83267514Y-110552657D01*
X83338942Y-110695514D01*
X83410371Y-110766942D01*
X83553228Y-110838371D01*
X83838942Y-110838371D01*
X83981800Y-110766942D01*
X84053228Y-110695514D01*
X84124657Y-110552657D01*
X84124657Y-110195514D01*
X84053228Y-110052657D01*
X83981800Y-109981228D01*
X83838942Y-109909800D01*
X83553228Y-109909800D01*
X83410371Y-109981228D01*
X83338942Y-110052657D01*
X83267514Y-110195514D01*
X74042685Y-109211371D02*
X74185542Y-109211371D01*
X74328400Y-109282800D01*
X74399828Y-109354228D01*
X74471257Y-109497085D01*
X74542685Y-109782800D01*
X74542685Y-110139942D01*
X74471257Y-110425657D01*
X74399828Y-110568514D01*
X74328400Y-110639942D01*
X74185542Y-110711371D01*
X74042685Y-110711371D01*
X73899828Y-110639942D01*
X73828400Y-110568514D01*
X73756971Y-110425657D01*
X73685542Y-110139942D01*
X73685542Y-109782800D01*
X73756971Y-109497085D01*
X73828400Y-109354228D01*
X73899828Y-109282800D01*
X74042685Y-109211371D01*
X75899828Y-109211371D02*
X75185542Y-109211371D01*
X75114114Y-109925657D01*
X75185542Y-109854228D01*
X75328400Y-109782800D01*
X75685542Y-109782800D01*
X75828400Y-109854228D01*
X75899828Y-109925657D01*
X75971257Y-110068514D01*
X75971257Y-110425657D01*
X75899828Y-110568514D01*
X75828400Y-110639942D01*
X75685542Y-110711371D01*
X75328400Y-110711371D01*
X75185542Y-110639942D01*
X75114114Y-110568514D01*
X100201457Y-132147571D02*
X99487171Y-132147571D01*
X99415742Y-132861857D01*
X99487171Y-132790428D01*
X99630028Y-132719000D01*
X99987171Y-132719000D01*
X100130028Y-132790428D01*
X100201457Y-132861857D01*
X100272885Y-133004714D01*
X100272885Y-133361857D01*
X100201457Y-133504714D01*
X100130028Y-133576142D01*
X99987171Y-133647571D01*
X99630028Y-133647571D01*
X99487171Y-133576142D01*
X99415742Y-133504714D01*
X101558600Y-132647571D02*
X101558600Y-133647571D01*
X101201457Y-132076142D02*
X100844314Y-133147571D01*
X101772885Y-133147571D01*
X126723828Y-127948571D02*
X126723828Y-128948571D01*
X126366685Y-127377142D02*
X126009542Y-128448571D01*
X126938114Y-128448571D01*
X127366685Y-127448571D02*
X128295257Y-127448571D01*
X127795257Y-128020000D01*
X128009542Y-128020000D01*
X128152400Y-128091428D01*
X128223828Y-128162857D01*
X128295257Y-128305714D01*
X128295257Y-128662857D01*
X128223828Y-128805714D01*
X128152400Y-128877142D01*
X128009542Y-128948571D01*
X127580971Y-128948571D01*
X127438114Y-128877142D01*
X127366685Y-128805714D01*
X60048828Y-132698371D02*
X60048828Y-133698371D01*
X59691685Y-132126942D02*
X59334542Y-133198371D01*
X60263114Y-133198371D01*
X61048828Y-132841228D02*
X60905971Y-132769800D01*
X60834542Y-132698371D01*
X60763114Y-132555514D01*
X60763114Y-132484085D01*
X60834542Y-132341228D01*
X60905971Y-132269800D01*
X61048828Y-132198371D01*
X61334542Y-132198371D01*
X61477400Y-132269800D01*
X61548828Y-132341228D01*
X61620257Y-132484085D01*
X61620257Y-132555514D01*
X61548828Y-132698371D01*
X61477400Y-132769800D01*
X61334542Y-132841228D01*
X61048828Y-132841228D01*
X60905971Y-132912657D01*
X60834542Y-132984085D01*
X60763114Y-133126942D01*
X60763114Y-133412657D01*
X60834542Y-133555514D01*
X60905971Y-133626942D01*
X61048828Y-133698371D01*
X61334542Y-133698371D01*
X61477400Y-133626942D01*
X61548828Y-133555514D01*
X61620257Y-133412657D01*
X61620257Y-133126942D01*
X61548828Y-132984085D01*
X61477400Y-132912657D01*
X61334542Y-132841228D01*
X86815657Y-132325371D02*
X86101371Y-132325371D01*
X86029942Y-133039657D01*
X86101371Y-132968228D01*
X86244228Y-132896800D01*
X86601371Y-132896800D01*
X86744228Y-132968228D01*
X86815657Y-133039657D01*
X86887085Y-133182514D01*
X86887085Y-133539657D01*
X86815657Y-133682514D01*
X86744228Y-133753942D01*
X86601371Y-133825371D01*
X86244228Y-133825371D01*
X86101371Y-133753942D01*
X86029942Y-133682514D01*
X87458514Y-132468228D02*
X87529942Y-132396800D01*
X87672800Y-132325371D01*
X88029942Y-132325371D01*
X88172800Y-132396800D01*
X88244228Y-132468228D01*
X88315657Y-132611085D01*
X88315657Y-132753942D01*
X88244228Y-132968228D01*
X87387085Y-133825371D01*
X88315657Y-133825371D01*
X73734657Y-132325371D02*
X73020371Y-132325371D01*
X72948942Y-133039657D01*
X73020371Y-132968228D01*
X73163228Y-132896800D01*
X73520371Y-132896800D01*
X73663228Y-132968228D01*
X73734657Y-133039657D01*
X73806085Y-133182514D01*
X73806085Y-133539657D01*
X73734657Y-133682514D01*
X73663228Y-133753942D01*
X73520371Y-133825371D01*
X73163228Y-133825371D01*
X73020371Y-133753942D01*
X72948942Y-133682514D01*
X74734657Y-132325371D02*
X74877514Y-132325371D01*
X75020371Y-132396800D01*
X75091800Y-132468228D01*
X75163228Y-132611085D01*
X75234657Y-132896800D01*
X75234657Y-133253942D01*
X75163228Y-133539657D01*
X75091800Y-133682514D01*
X75020371Y-133753942D01*
X74877514Y-133825371D01*
X74734657Y-133825371D01*
X74591800Y-133753942D01*
X74520371Y-133682514D01*
X74448942Y-133539657D01*
X74377514Y-133253942D01*
X74377514Y-132896800D01*
X74448942Y-132611085D01*
X74520371Y-132468228D01*
X74591800Y-132396800D01*
X74734657Y-132325371D01*
X66703628Y-132698371D02*
X66703628Y-133698371D01*
X66346485Y-132126942D02*
X65989342Y-133198371D01*
X66917914Y-133198371D01*
X67560771Y-133698371D02*
X67846485Y-133698371D01*
X67989342Y-133626942D01*
X68060771Y-133555514D01*
X68203628Y-133341228D01*
X68275057Y-133055514D01*
X68275057Y-132484085D01*
X68203628Y-132341228D01*
X68132200Y-132269800D01*
X67989342Y-132198371D01*
X67703628Y-132198371D01*
X67560771Y-132269800D01*
X67489342Y-132341228D01*
X67417914Y-132484085D01*
X67417914Y-132841228D01*
X67489342Y-132984085D01*
X67560771Y-133055514D01*
X67703628Y-133126942D01*
X67989342Y-133126942D01*
X68132200Y-133055514D01*
X68203628Y-132984085D01*
X68275057Y-132841228D01*
X120094428Y-127846971D02*
X120094428Y-128846971D01*
X119737285Y-127275542D02*
X119380142Y-128346971D01*
X120308714Y-128346971D01*
X120808714Y-127489828D02*
X120880142Y-127418400D01*
X121023000Y-127346971D01*
X121380142Y-127346971D01*
X121523000Y-127418400D01*
X121594428Y-127489828D01*
X121665857Y-127632685D01*
X121665857Y-127775542D01*
X121594428Y-127989828D01*
X120737285Y-128846971D01*
X121665857Y-128846971D01*
X93546657Y-132325371D02*
X92832371Y-132325371D01*
X92760942Y-133039657D01*
X92832371Y-132968228D01*
X92975228Y-132896800D01*
X93332371Y-132896800D01*
X93475228Y-132968228D01*
X93546657Y-133039657D01*
X93618085Y-133182514D01*
X93618085Y-133539657D01*
X93546657Y-133682514D01*
X93475228Y-133753942D01*
X93332371Y-133825371D01*
X92975228Y-133825371D01*
X92832371Y-133753942D01*
X92760942Y-133682514D01*
X94118085Y-132325371D02*
X95046657Y-132325371D01*
X94546657Y-132896800D01*
X94760942Y-132896800D01*
X94903800Y-132968228D01*
X94975228Y-133039657D01*
X95046657Y-133182514D01*
X95046657Y-133539657D01*
X94975228Y-133682514D01*
X94903800Y-133753942D01*
X94760942Y-133825371D01*
X94332371Y-133825371D01*
X94189514Y-133753942D01*
X94118085Y-133682514D01*
X46840828Y-132698371D02*
X46840828Y-133698371D01*
X46483685Y-132126942D02*
X46126542Y-133198371D01*
X47055114Y-133198371D01*
X48269400Y-132198371D02*
X47983685Y-132198371D01*
X47840828Y-132269800D01*
X47769400Y-132341228D01*
X47626542Y-132555514D01*
X47555114Y-132841228D01*
X47555114Y-133412657D01*
X47626542Y-133555514D01*
X47697971Y-133626942D01*
X47840828Y-133698371D01*
X48126542Y-133698371D01*
X48269400Y-133626942D01*
X48340828Y-133555514D01*
X48412257Y-133412657D01*
X48412257Y-133055514D01*
X48340828Y-132912657D01*
X48269400Y-132841228D01*
X48126542Y-132769800D01*
X47840828Y-132769800D01*
X47697971Y-132841228D01*
X47626542Y-132912657D01*
X47555114Y-133055514D01*
X53622628Y-132647571D02*
X53622628Y-133647571D01*
X53265485Y-132076142D02*
X52908342Y-133147571D01*
X53836914Y-133147571D01*
X54265485Y-132147571D02*
X55265485Y-132147571D01*
X54622628Y-133647571D01*
X80516457Y-132147571D02*
X79802171Y-132147571D01*
X79730742Y-132861857D01*
X79802171Y-132790428D01*
X79945028Y-132719000D01*
X80302171Y-132719000D01*
X80445028Y-132790428D01*
X80516457Y-132861857D01*
X80587885Y-133004714D01*
X80587885Y-133361857D01*
X80516457Y-133504714D01*
X80445028Y-133576142D01*
X80302171Y-133647571D01*
X79945028Y-133647571D01*
X79802171Y-133576142D01*
X79730742Y-133504714D01*
X82016457Y-133647571D02*
X81159314Y-133647571D01*
X81587885Y-133647571D02*
X81587885Y-132147571D01*
X81445028Y-132361857D01*
X81302171Y-132504714D01*
X81159314Y-132576142D01*
X113663457Y-132147571D02*
X112949171Y-132147571D01*
X112877742Y-132861857D01*
X112949171Y-132790428D01*
X113092028Y-132719000D01*
X113449171Y-132719000D01*
X113592028Y-132790428D01*
X113663457Y-132861857D01*
X113734885Y-133004714D01*
X113734885Y-133361857D01*
X113663457Y-133504714D01*
X113592028Y-133576142D01*
X113449171Y-133647571D01*
X113092028Y-133647571D01*
X112949171Y-133576142D01*
X112877742Y-133504714D01*
X115020600Y-132147571D02*
X114734885Y-132147571D01*
X114592028Y-132219000D01*
X114520600Y-132290428D01*
X114377742Y-132504714D01*
X114306314Y-132790428D01*
X114306314Y-133361857D01*
X114377742Y-133504714D01*
X114449171Y-133576142D01*
X114592028Y-133647571D01*
X114877742Y-133647571D01*
X115020600Y-133576142D01*
X115092028Y-133504714D01*
X115163457Y-133361857D01*
X115163457Y-133004714D01*
X115092028Y-132861857D01*
X115020600Y-132790428D01*
X114877742Y-132719000D01*
X114592028Y-132719000D01*
X114449171Y-132790428D01*
X114377742Y-132861857D01*
X114306314Y-133004714D01*
X120038857Y-132249171D02*
X119324571Y-132249171D01*
X119253142Y-132963457D01*
X119324571Y-132892028D01*
X119467428Y-132820600D01*
X119824571Y-132820600D01*
X119967428Y-132892028D01*
X120038857Y-132963457D01*
X120110285Y-133106314D01*
X120110285Y-133463457D01*
X120038857Y-133606314D01*
X119967428Y-133677742D01*
X119824571Y-133749171D01*
X119467428Y-133749171D01*
X119324571Y-133677742D01*
X119253142Y-133606314D01*
X120610285Y-132249171D02*
X121610285Y-132249171D01*
X120967428Y-133749171D01*
X133754857Y-132325371D02*
X133040571Y-132325371D01*
X132969142Y-133039657D01*
X133040571Y-132968228D01*
X133183428Y-132896800D01*
X133540571Y-132896800D01*
X133683428Y-132968228D01*
X133754857Y-133039657D01*
X133826285Y-133182514D01*
X133826285Y-133539657D01*
X133754857Y-133682514D01*
X133683428Y-133753942D01*
X133540571Y-133825371D01*
X133183428Y-133825371D01*
X133040571Y-133753942D01*
X132969142Y-133682514D01*
X134540571Y-133825371D02*
X134826285Y-133825371D01*
X134969142Y-133753942D01*
X135040571Y-133682514D01*
X135183428Y-133468228D01*
X135254857Y-133182514D01*
X135254857Y-132611085D01*
X135183428Y-132468228D01*
X135112000Y-132396800D01*
X134969142Y-132325371D01*
X134683428Y-132325371D01*
X134540571Y-132396800D01*
X134469142Y-132468228D01*
X134397714Y-132611085D01*
X134397714Y-132968228D01*
X134469142Y-133111085D01*
X134540571Y-133182514D01*
X134683428Y-133253942D01*
X134969142Y-133253942D01*
X135112000Y-133182514D01*
X135183428Y-133111085D01*
X135254857Y-132968228D01*
X40059028Y-132774571D02*
X40059028Y-133774571D01*
X39701885Y-132203142D02*
X39344742Y-133274571D01*
X40273314Y-133274571D01*
X41559028Y-132274571D02*
X40844742Y-132274571D01*
X40773314Y-132988857D01*
X40844742Y-132917428D01*
X40987600Y-132846000D01*
X41344742Y-132846000D01*
X41487600Y-132917428D01*
X41559028Y-132988857D01*
X41630457Y-133131714D01*
X41630457Y-133488857D01*
X41559028Y-133631714D01*
X41487600Y-133703142D01*
X41344742Y-133774571D01*
X40987600Y-133774571D01*
X40844742Y-133703142D01*
X40773314Y-133631714D01*
X126820657Y-132325371D02*
X126106371Y-132325371D01*
X126034942Y-133039657D01*
X126106371Y-132968228D01*
X126249228Y-132896800D01*
X126606371Y-132896800D01*
X126749228Y-132968228D01*
X126820657Y-133039657D01*
X126892085Y-133182514D01*
X126892085Y-133539657D01*
X126820657Y-133682514D01*
X126749228Y-133753942D01*
X126606371Y-133825371D01*
X126249228Y-133825371D01*
X126106371Y-133753942D01*
X126034942Y-133682514D01*
X127749228Y-132968228D02*
X127606371Y-132896800D01*
X127534942Y-132825371D01*
X127463514Y-132682514D01*
X127463514Y-132611085D01*
X127534942Y-132468228D01*
X127606371Y-132396800D01*
X127749228Y-132325371D01*
X128034942Y-132325371D01*
X128177800Y-132396800D01*
X128249228Y-132468228D01*
X128320657Y-132611085D01*
X128320657Y-132682514D01*
X128249228Y-132825371D01*
X128177800Y-132896800D01*
X128034942Y-132968228D01*
X127749228Y-132968228D01*
X127606371Y-133039657D01*
X127534942Y-133111085D01*
X127463514Y-133253942D01*
X127463514Y-133539657D01*
X127534942Y-133682514D01*
X127606371Y-133753942D01*
X127749228Y-133825371D01*
X128034942Y-133825371D01*
X128177800Y-133753942D01*
X128249228Y-133682514D01*
X128320657Y-133539657D01*
X128320657Y-133253942D01*
X128249228Y-133111085D01*
X128177800Y-133039657D01*
X128034942Y-132968228D01*
X113439628Y-127669171D02*
X113439628Y-128669171D01*
X113082485Y-127097742D02*
X112725342Y-128169171D01*
X113653914Y-128169171D01*
X115011057Y-128669171D02*
X114153914Y-128669171D01*
X114582485Y-128669171D02*
X114582485Y-127169171D01*
X114439628Y-127383457D01*
X114296771Y-127526314D01*
X114153914Y-127597742D01*
X106886428Y-127770771D02*
X106886428Y-128770771D01*
X106529285Y-127199342D02*
X106172142Y-128270771D01*
X107100714Y-128270771D01*
X107957857Y-127270771D02*
X108100714Y-127270771D01*
X108243571Y-127342200D01*
X108315000Y-127413628D01*
X108386428Y-127556485D01*
X108457857Y-127842200D01*
X108457857Y-128199342D01*
X108386428Y-128485057D01*
X108315000Y-128627914D01*
X108243571Y-128699342D01*
X108100714Y-128770771D01*
X107957857Y-128770771D01*
X107815000Y-128699342D01*
X107743571Y-128627914D01*
X107672142Y-128485057D01*
X107600714Y-128199342D01*
X107600714Y-127842200D01*
X107672142Y-127556485D01*
X107743571Y-127413628D01*
X107815000Y-127342200D01*
X107957857Y-127270771D01*
X133302428Y-127846971D02*
X133302428Y-128846971D01*
X132945285Y-127275542D02*
X132588142Y-128346971D01*
X133516714Y-128346971D01*
X134731000Y-127846971D02*
X134731000Y-128846971D01*
X134373857Y-127275542D02*
X134016714Y-128346971D01*
X134945285Y-128346971D01*
X106830857Y-132325371D02*
X106116571Y-132325371D01*
X106045142Y-133039657D01*
X106116571Y-132968228D01*
X106259428Y-132896800D01*
X106616571Y-132896800D01*
X106759428Y-132968228D01*
X106830857Y-133039657D01*
X106902285Y-133182514D01*
X106902285Y-133539657D01*
X106830857Y-133682514D01*
X106759428Y-133753942D01*
X106616571Y-133825371D01*
X106259428Y-133825371D01*
X106116571Y-133753942D01*
X106045142Y-133682514D01*
X108259428Y-132325371D02*
X107545142Y-132325371D01*
X107473714Y-133039657D01*
X107545142Y-132968228D01*
X107688000Y-132896800D01*
X108045142Y-132896800D01*
X108188000Y-132968228D01*
X108259428Y-133039657D01*
X108330857Y-133182514D01*
X108330857Y-133539657D01*
X108259428Y-133682514D01*
X108188000Y-133753942D01*
X108045142Y-133825371D01*
X107688000Y-133825371D01*
X107545142Y-133753942D01*
X107473714Y-133682514D01*
X99593542Y-122206628D02*
X99664971Y-122135200D01*
X99807828Y-122063771D01*
X100164971Y-122063771D01*
X100307828Y-122135200D01*
X100379257Y-122206628D01*
X100450685Y-122349485D01*
X100450685Y-122492342D01*
X100379257Y-122706628D01*
X99522114Y-123563771D01*
X100450685Y-123563771D01*
X101736400Y-122563771D02*
X101736400Y-123563771D01*
X101379257Y-121992342D02*
X101022114Y-123063771D01*
X101950685Y-123063771D01*
X86233142Y-122105028D02*
X86304571Y-122033600D01*
X86447428Y-121962171D01*
X86804571Y-121962171D01*
X86947428Y-122033600D01*
X87018857Y-122105028D01*
X87090285Y-122247885D01*
X87090285Y-122390742D01*
X87018857Y-122605028D01*
X86161714Y-123462171D01*
X87090285Y-123462171D01*
X87661714Y-122105028D02*
X87733142Y-122033600D01*
X87876000Y-121962171D01*
X88233142Y-121962171D01*
X88376000Y-122033600D01*
X88447428Y-122105028D01*
X88518857Y-122247885D01*
X88518857Y-122390742D01*
X88447428Y-122605028D01*
X87590285Y-123462171D01*
X88518857Y-123462171D01*
X72953714Y-127346971D02*
X73882285Y-127346971D01*
X73382285Y-127918400D01*
X73596571Y-127918400D01*
X73739428Y-127989828D01*
X73810857Y-128061257D01*
X73882285Y-128204114D01*
X73882285Y-128561257D01*
X73810857Y-128704114D01*
X73739428Y-128775542D01*
X73596571Y-128846971D01*
X73168000Y-128846971D01*
X73025142Y-128775542D01*
X72953714Y-128704114D01*
X75239428Y-127346971D02*
X74525142Y-127346971D01*
X74453714Y-128061257D01*
X74525142Y-127989828D01*
X74668000Y-127918400D01*
X75025142Y-127918400D01*
X75168000Y-127989828D01*
X75239428Y-128061257D01*
X75310857Y-128204114D01*
X75310857Y-128561257D01*
X75239428Y-128704114D01*
X75168000Y-128775542D01*
X75025142Y-128846971D01*
X74668000Y-128846971D01*
X74525142Y-128775542D01*
X74453714Y-128704114D01*
X132918342Y-122130428D02*
X132989771Y-122059000D01*
X133132628Y-121987571D01*
X133489771Y-121987571D01*
X133632628Y-122059000D01*
X133704057Y-122130428D01*
X133775485Y-122273285D01*
X133775485Y-122416142D01*
X133704057Y-122630428D01*
X132846914Y-123487571D01*
X133775485Y-123487571D01*
X134489771Y-123487571D02*
X134775485Y-123487571D01*
X134918342Y-123416142D01*
X134989771Y-123344714D01*
X135132628Y-123130428D01*
X135204057Y-122844714D01*
X135204057Y-122273285D01*
X135132628Y-122130428D01*
X135061200Y-122059000D01*
X134918342Y-121987571D01*
X134632628Y-121987571D01*
X134489771Y-122059000D01*
X134418342Y-122130428D01*
X134346914Y-122273285D01*
X134346914Y-122630428D01*
X134418342Y-122773285D01*
X134489771Y-122844714D01*
X134632628Y-122916142D01*
X134918342Y-122916142D01*
X135061200Y-122844714D01*
X135132628Y-122773285D01*
X135204057Y-122630428D01*
X79603742Y-122181228D02*
X79675171Y-122109800D01*
X79818028Y-122038371D01*
X80175171Y-122038371D01*
X80318028Y-122109800D01*
X80389457Y-122181228D01*
X80460885Y-122324085D01*
X80460885Y-122466942D01*
X80389457Y-122681228D01*
X79532314Y-123538371D01*
X80460885Y-123538371D01*
X81889457Y-123538371D02*
X81032314Y-123538371D01*
X81460885Y-123538371D02*
X81460885Y-122038371D01*
X81318028Y-122252657D01*
X81175171Y-122395514D01*
X81032314Y-122466942D01*
X52760714Y-127118371D02*
X53689285Y-127118371D01*
X53189285Y-127689800D01*
X53403571Y-127689800D01*
X53546428Y-127761228D01*
X53617857Y-127832657D01*
X53689285Y-127975514D01*
X53689285Y-128332657D01*
X53617857Y-128475514D01*
X53546428Y-128546942D01*
X53403571Y-128618371D01*
X52975000Y-128618371D01*
X52832142Y-128546942D01*
X52760714Y-128475514D01*
X54260714Y-127261228D02*
X54332142Y-127189800D01*
X54475000Y-127118371D01*
X54832142Y-127118371D01*
X54975000Y-127189800D01*
X55046428Y-127261228D01*
X55117857Y-127404085D01*
X55117857Y-127546942D01*
X55046428Y-127761228D01*
X54189285Y-128618371D01*
X55117857Y-128618371D01*
X126187342Y-122079628D02*
X126258771Y-122008200D01*
X126401628Y-121936771D01*
X126758771Y-121936771D01*
X126901628Y-122008200D01*
X126973057Y-122079628D01*
X127044485Y-122222485D01*
X127044485Y-122365342D01*
X126973057Y-122579628D01*
X126115914Y-123436771D01*
X127044485Y-123436771D01*
X127901628Y-122579628D02*
X127758771Y-122508200D01*
X127687342Y-122436771D01*
X127615914Y-122293914D01*
X127615914Y-122222485D01*
X127687342Y-122079628D01*
X127758771Y-122008200D01*
X127901628Y-121936771D01*
X128187342Y-121936771D01*
X128330200Y-122008200D01*
X128401628Y-122079628D01*
X128473057Y-122222485D01*
X128473057Y-122293914D01*
X128401628Y-122436771D01*
X128330200Y-122508200D01*
X128187342Y-122579628D01*
X127901628Y-122579628D01*
X127758771Y-122651057D01*
X127687342Y-122722485D01*
X127615914Y-122865342D01*
X127615914Y-123151057D01*
X127687342Y-123293914D01*
X127758771Y-123365342D01*
X127901628Y-123436771D01*
X128187342Y-123436771D01*
X128330200Y-123365342D01*
X128401628Y-123293914D01*
X128473057Y-123151057D01*
X128473057Y-122865342D01*
X128401628Y-122722485D01*
X128330200Y-122651057D01*
X128187342Y-122579628D01*
X46258314Y-127270771D02*
X47186885Y-127270771D01*
X46686885Y-127842200D01*
X46901171Y-127842200D01*
X47044028Y-127913628D01*
X47115457Y-127985057D01*
X47186885Y-128127914D01*
X47186885Y-128485057D01*
X47115457Y-128627914D01*
X47044028Y-128699342D01*
X46901171Y-128770771D01*
X46472600Y-128770771D01*
X46329742Y-128699342D01*
X46258314Y-128627914D01*
X48615457Y-128770771D02*
X47758314Y-128770771D01*
X48186885Y-128770771D02*
X48186885Y-127270771D01*
X48044028Y-127485057D01*
X47901171Y-127627914D01*
X47758314Y-127699342D01*
X99522114Y-127219971D02*
X100450685Y-127219971D01*
X99950685Y-127791400D01*
X100164971Y-127791400D01*
X100307828Y-127862828D01*
X100379257Y-127934257D01*
X100450685Y-128077114D01*
X100450685Y-128434257D01*
X100379257Y-128577114D01*
X100307828Y-128648542D01*
X100164971Y-128719971D01*
X99736400Y-128719971D01*
X99593542Y-128648542D01*
X99522114Y-128577114D01*
X101164971Y-128719971D02*
X101450685Y-128719971D01*
X101593542Y-128648542D01*
X101664971Y-128577114D01*
X101807828Y-128362828D01*
X101879257Y-128077114D01*
X101879257Y-127505685D01*
X101807828Y-127362828D01*
X101736400Y-127291400D01*
X101593542Y-127219971D01*
X101307828Y-127219971D01*
X101164971Y-127291400D01*
X101093542Y-127362828D01*
X101022114Y-127505685D01*
X101022114Y-127862828D01*
X101093542Y-128005685D01*
X101164971Y-128077114D01*
X101307828Y-128148542D01*
X101593542Y-128148542D01*
X101736400Y-128077114D01*
X101807828Y-128005685D01*
X101879257Y-127862828D01*
X39451114Y-127219971D02*
X40379685Y-127219971D01*
X39879685Y-127791400D01*
X40093971Y-127791400D01*
X40236828Y-127862828D01*
X40308257Y-127934257D01*
X40379685Y-128077114D01*
X40379685Y-128434257D01*
X40308257Y-128577114D01*
X40236828Y-128648542D01*
X40093971Y-128719971D01*
X39665400Y-128719971D01*
X39522542Y-128648542D01*
X39451114Y-128577114D01*
X41308257Y-127219971D02*
X41451114Y-127219971D01*
X41593971Y-127291400D01*
X41665400Y-127362828D01*
X41736828Y-127505685D01*
X41808257Y-127791400D01*
X41808257Y-128148542D01*
X41736828Y-128434257D01*
X41665400Y-128577114D01*
X41593971Y-128648542D01*
X41451114Y-128719971D01*
X41308257Y-128719971D01*
X41165400Y-128648542D01*
X41093971Y-128577114D01*
X41022542Y-128434257D01*
X40951114Y-128148542D01*
X40951114Y-127791400D01*
X41022542Y-127505685D01*
X41093971Y-127362828D01*
X41165400Y-127291400D01*
X41308257Y-127219971D01*
X86161714Y-127270771D02*
X87090285Y-127270771D01*
X86590285Y-127842200D01*
X86804571Y-127842200D01*
X86947428Y-127913628D01*
X87018857Y-127985057D01*
X87090285Y-128127914D01*
X87090285Y-128485057D01*
X87018857Y-128627914D01*
X86947428Y-128699342D01*
X86804571Y-128770771D01*
X86376000Y-128770771D01*
X86233142Y-128699342D01*
X86161714Y-128627914D01*
X87590285Y-127270771D02*
X88590285Y-127270771D01*
X87947428Y-128770771D01*
X119608742Y-122079628D02*
X119680171Y-122008200D01*
X119823028Y-121936771D01*
X120180171Y-121936771D01*
X120323028Y-122008200D01*
X120394457Y-122079628D01*
X120465885Y-122222485D01*
X120465885Y-122365342D01*
X120394457Y-122579628D01*
X119537314Y-123436771D01*
X120465885Y-123436771D01*
X120965885Y-121936771D02*
X121965885Y-121936771D01*
X121323028Y-123436771D01*
X59390114Y-127270771D02*
X60318685Y-127270771D01*
X59818685Y-127842200D01*
X60032971Y-127842200D01*
X60175828Y-127913628D01*
X60247257Y-127985057D01*
X60318685Y-128127914D01*
X60318685Y-128485057D01*
X60247257Y-128627914D01*
X60175828Y-128699342D01*
X60032971Y-128770771D01*
X59604400Y-128770771D01*
X59461542Y-128699342D01*
X59390114Y-128627914D01*
X60818685Y-127270771D02*
X61747257Y-127270771D01*
X61247257Y-127842200D01*
X61461542Y-127842200D01*
X61604400Y-127913628D01*
X61675828Y-127985057D01*
X61747257Y-128127914D01*
X61747257Y-128485057D01*
X61675828Y-128627914D01*
X61604400Y-128699342D01*
X61461542Y-128770771D01*
X61032971Y-128770771D01*
X60890114Y-128699342D01*
X60818685Y-128627914D01*
X92887942Y-122206628D02*
X92959371Y-122135200D01*
X93102228Y-122063771D01*
X93459371Y-122063771D01*
X93602228Y-122135200D01*
X93673657Y-122206628D01*
X93745085Y-122349485D01*
X93745085Y-122492342D01*
X93673657Y-122706628D01*
X92816514Y-123563771D01*
X93745085Y-123563771D01*
X94245085Y-122063771D02*
X95173657Y-122063771D01*
X94673657Y-122635200D01*
X94887942Y-122635200D01*
X95030800Y-122706628D01*
X95102228Y-122778057D01*
X95173657Y-122920914D01*
X95173657Y-123278057D01*
X95102228Y-123420914D01*
X95030800Y-123492342D01*
X94887942Y-123563771D01*
X94459371Y-123563771D01*
X94316514Y-123492342D01*
X94245085Y-123420914D01*
X72872742Y-122181228D02*
X72944171Y-122109800D01*
X73087028Y-122038371D01*
X73444171Y-122038371D01*
X73587028Y-122109800D01*
X73658457Y-122181228D01*
X73729885Y-122324085D01*
X73729885Y-122466942D01*
X73658457Y-122681228D01*
X72801314Y-123538371D01*
X73729885Y-123538371D01*
X74658457Y-122038371D02*
X74801314Y-122038371D01*
X74944171Y-122109800D01*
X75015600Y-122181228D01*
X75087028Y-122324085D01*
X75158457Y-122609800D01*
X75158457Y-122966942D01*
X75087028Y-123252657D01*
X75015600Y-123395514D01*
X74944171Y-123466942D01*
X74801314Y-123538371D01*
X74658457Y-123538371D01*
X74515600Y-123466942D01*
X74444171Y-123395514D01*
X74372742Y-123252657D01*
X74301314Y-122966942D01*
X74301314Y-122609800D01*
X74372742Y-122324085D01*
X74444171Y-122181228D01*
X74515600Y-122109800D01*
X74658457Y-122038371D01*
X112852342Y-122054228D02*
X112923771Y-121982800D01*
X113066628Y-121911371D01*
X113423771Y-121911371D01*
X113566628Y-121982800D01*
X113638057Y-122054228D01*
X113709485Y-122197085D01*
X113709485Y-122339942D01*
X113638057Y-122554228D01*
X112780914Y-123411371D01*
X113709485Y-123411371D01*
X114995200Y-121911371D02*
X114709485Y-121911371D01*
X114566628Y-121982800D01*
X114495200Y-122054228D01*
X114352342Y-122268514D01*
X114280914Y-122554228D01*
X114280914Y-123125657D01*
X114352342Y-123268514D01*
X114423771Y-123339942D01*
X114566628Y-123411371D01*
X114852342Y-123411371D01*
X114995200Y-123339942D01*
X115066628Y-123268514D01*
X115138057Y-123125657D01*
X115138057Y-122768514D01*
X115066628Y-122625657D01*
X114995200Y-122554228D01*
X114852342Y-122482800D01*
X114566628Y-122482800D01*
X114423771Y-122554228D01*
X114352342Y-122625657D01*
X114280914Y-122768514D01*
X79557714Y-127169171D02*
X80486285Y-127169171D01*
X79986285Y-127740600D01*
X80200571Y-127740600D01*
X80343428Y-127812028D01*
X80414857Y-127883457D01*
X80486285Y-128026314D01*
X80486285Y-128383457D01*
X80414857Y-128526314D01*
X80343428Y-128597742D01*
X80200571Y-128669171D01*
X79772000Y-128669171D01*
X79629142Y-128597742D01*
X79557714Y-128526314D01*
X81772000Y-127169171D02*
X81486285Y-127169171D01*
X81343428Y-127240600D01*
X81272000Y-127312028D01*
X81129142Y-127526314D01*
X81057714Y-127812028D01*
X81057714Y-128383457D01*
X81129142Y-128526314D01*
X81200571Y-128597742D01*
X81343428Y-128669171D01*
X81629142Y-128669171D01*
X81772000Y-128597742D01*
X81843428Y-128526314D01*
X81914857Y-128383457D01*
X81914857Y-128026314D01*
X81843428Y-127883457D01*
X81772000Y-127812028D01*
X81629142Y-127740600D01*
X81343428Y-127740600D01*
X81200571Y-127812028D01*
X81129142Y-127883457D01*
X81057714Y-128026314D01*
X92714914Y-127219971D02*
X93643485Y-127219971D01*
X93143485Y-127791400D01*
X93357771Y-127791400D01*
X93500628Y-127862828D01*
X93572057Y-127934257D01*
X93643485Y-128077114D01*
X93643485Y-128434257D01*
X93572057Y-128577114D01*
X93500628Y-128648542D01*
X93357771Y-128719971D01*
X92929200Y-128719971D01*
X92786342Y-128648542D01*
X92714914Y-128577114D01*
X94500628Y-127862828D02*
X94357771Y-127791400D01*
X94286342Y-127719971D01*
X94214914Y-127577114D01*
X94214914Y-127505685D01*
X94286342Y-127362828D01*
X94357771Y-127291400D01*
X94500628Y-127219971D01*
X94786342Y-127219971D01*
X94929200Y-127291400D01*
X95000628Y-127362828D01*
X95072057Y-127505685D01*
X95072057Y-127577114D01*
X95000628Y-127719971D01*
X94929200Y-127791400D01*
X94786342Y-127862828D01*
X94500628Y-127862828D01*
X94357771Y-127934257D01*
X94286342Y-128005685D01*
X94214914Y-128148542D01*
X94214914Y-128434257D01*
X94286342Y-128577114D01*
X94357771Y-128648542D01*
X94500628Y-128719971D01*
X94786342Y-128719971D01*
X94929200Y-128648542D01*
X95000628Y-128577114D01*
X95072057Y-128434257D01*
X95072057Y-128148542D01*
X95000628Y-128005685D01*
X94929200Y-127934257D01*
X94786342Y-127862828D01*
X66095714Y-127219971D02*
X67024285Y-127219971D01*
X66524285Y-127791400D01*
X66738571Y-127791400D01*
X66881428Y-127862828D01*
X66952857Y-127934257D01*
X67024285Y-128077114D01*
X67024285Y-128434257D01*
X66952857Y-128577114D01*
X66881428Y-128648542D01*
X66738571Y-128719971D01*
X66310000Y-128719971D01*
X66167142Y-128648542D01*
X66095714Y-128577114D01*
X68310000Y-127719971D02*
X68310000Y-128719971D01*
X67952857Y-127148542D02*
X67595714Y-128219971D01*
X68524285Y-128219971D01*
X106121342Y-122206628D02*
X106192771Y-122135200D01*
X106335628Y-122063771D01*
X106692771Y-122063771D01*
X106835628Y-122135200D01*
X106907057Y-122206628D01*
X106978485Y-122349485D01*
X106978485Y-122492342D01*
X106907057Y-122706628D01*
X106049914Y-123563771D01*
X106978485Y-123563771D01*
X108335628Y-122063771D02*
X107621342Y-122063771D01*
X107549914Y-122778057D01*
X107621342Y-122706628D01*
X107764200Y-122635200D01*
X108121342Y-122635200D01*
X108264200Y-122706628D01*
X108335628Y-122778057D01*
X108407057Y-122920914D01*
X108407057Y-123278057D01*
X108335628Y-123420914D01*
X108264200Y-123492342D01*
X108121342Y-123563771D01*
X107764200Y-123563771D01*
X107621342Y-123492342D01*
X107549914Y-123420914D01*
X67049685Y-123462171D02*
X66192542Y-123462171D01*
X66621114Y-123462171D02*
X66621114Y-121962171D01*
X66478257Y-122176457D01*
X66335400Y-122319314D01*
X66192542Y-122390742D01*
X67763971Y-123462171D02*
X68049685Y-123462171D01*
X68192542Y-123390742D01*
X68263971Y-123319314D01*
X68406828Y-123105028D01*
X68478257Y-122819314D01*
X68478257Y-122247885D01*
X68406828Y-122105028D01*
X68335400Y-122033600D01*
X68192542Y-121962171D01*
X67906828Y-121962171D01*
X67763971Y-122033600D01*
X67692542Y-122105028D01*
X67621114Y-122247885D01*
X67621114Y-122605028D01*
X67692542Y-122747885D01*
X67763971Y-122819314D01*
X67906828Y-122890742D01*
X68192542Y-122890742D01*
X68335400Y-122819314D01*
X68406828Y-122747885D01*
X68478257Y-122605028D01*
X60242485Y-123639971D02*
X59385342Y-123639971D01*
X59813914Y-123639971D02*
X59813914Y-122139971D01*
X59671057Y-122354257D01*
X59528200Y-122497114D01*
X59385342Y-122568542D01*
X61099628Y-122782828D02*
X60956771Y-122711400D01*
X60885342Y-122639971D01*
X60813914Y-122497114D01*
X60813914Y-122425685D01*
X60885342Y-122282828D01*
X60956771Y-122211400D01*
X61099628Y-122139971D01*
X61385342Y-122139971D01*
X61528200Y-122211400D01*
X61599628Y-122282828D01*
X61671057Y-122425685D01*
X61671057Y-122497114D01*
X61599628Y-122639971D01*
X61528200Y-122711400D01*
X61385342Y-122782828D01*
X61099628Y-122782828D01*
X60956771Y-122854257D01*
X60885342Y-122925685D01*
X60813914Y-123068542D01*
X60813914Y-123354257D01*
X60885342Y-123497114D01*
X60956771Y-123568542D01*
X61099628Y-123639971D01*
X61385342Y-123639971D01*
X61528200Y-123568542D01*
X61599628Y-123497114D01*
X61671057Y-123354257D01*
X61671057Y-123068542D01*
X61599628Y-122925685D01*
X61528200Y-122854257D01*
X61385342Y-122782828D01*
X126866685Y-118458371D02*
X126009542Y-118458371D01*
X126438114Y-118458371D02*
X126438114Y-116958371D01*
X126295257Y-117172657D01*
X126152400Y-117315514D01*
X126009542Y-117386942D01*
X127366685Y-116958371D02*
X128295257Y-116958371D01*
X127795257Y-117529800D01*
X128009542Y-117529800D01*
X128152400Y-117601228D01*
X128223828Y-117672657D01*
X128295257Y-117815514D01*
X128295257Y-118172657D01*
X128223828Y-118315514D01*
X128152400Y-118386942D01*
X128009542Y-118458371D01*
X127580971Y-118458371D01*
X127438114Y-118386942D01*
X127366685Y-118315514D01*
X113709485Y-118305971D02*
X112852342Y-118305971D01*
X113280914Y-118305971D02*
X113280914Y-116805971D01*
X113138057Y-117020257D01*
X112995200Y-117163114D01*
X112852342Y-117234542D01*
X115138057Y-118305971D02*
X114280914Y-118305971D01*
X114709485Y-118305971D02*
X114709485Y-116805971D01*
X114566628Y-117020257D01*
X114423771Y-117163114D01*
X114280914Y-117234542D01*
X106826085Y-118356771D02*
X105968942Y-118356771D01*
X106397514Y-118356771D02*
X106397514Y-116856771D01*
X106254657Y-117071057D01*
X106111800Y-117213914D01*
X105968942Y-117285342D01*
X107754657Y-116856771D02*
X107897514Y-116856771D01*
X108040371Y-116928200D01*
X108111800Y-116999628D01*
X108183228Y-117142485D01*
X108254657Y-117428200D01*
X108254657Y-117785342D01*
X108183228Y-118071057D01*
X108111800Y-118213914D01*
X108040371Y-118285342D01*
X107897514Y-118356771D01*
X107754657Y-118356771D01*
X107611800Y-118285342D01*
X107540371Y-118213914D01*
X107468942Y-118071057D01*
X107397514Y-117785342D01*
X107397514Y-117428200D01*
X107468942Y-117142485D01*
X107540371Y-116999628D01*
X107611800Y-116928200D01*
X107754657Y-116856771D01*
X53460685Y-123462171D02*
X52603542Y-123462171D01*
X53032114Y-123462171D02*
X53032114Y-121962171D01*
X52889257Y-122176457D01*
X52746400Y-122319314D01*
X52603542Y-122390742D01*
X53960685Y-121962171D02*
X54960685Y-121962171D01*
X54317828Y-123462171D01*
X46856685Y-123512971D02*
X45999542Y-123512971D01*
X46428114Y-123512971D02*
X46428114Y-122012971D01*
X46285257Y-122227257D01*
X46142400Y-122370114D01*
X45999542Y-122441542D01*
X48142400Y-122012971D02*
X47856685Y-122012971D01*
X47713828Y-122084400D01*
X47642400Y-122155828D01*
X47499542Y-122370114D01*
X47428114Y-122655828D01*
X47428114Y-123227257D01*
X47499542Y-123370114D01*
X47570971Y-123441542D01*
X47713828Y-123512971D01*
X47999542Y-123512971D01*
X48142400Y-123441542D01*
X48213828Y-123370114D01*
X48285257Y-123227257D01*
X48285257Y-122870114D01*
X48213828Y-122727257D01*
X48142400Y-122655828D01*
X47999542Y-122584400D01*
X47713828Y-122584400D01*
X47570971Y-122655828D01*
X47499542Y-122727257D01*
X47428114Y-122870114D01*
X120262685Y-118280571D02*
X119405542Y-118280571D01*
X119834114Y-118280571D02*
X119834114Y-116780571D01*
X119691257Y-116994857D01*
X119548400Y-117137714D01*
X119405542Y-117209142D01*
X120834114Y-116923428D02*
X120905542Y-116852000D01*
X121048400Y-116780571D01*
X121405542Y-116780571D01*
X121548400Y-116852000D01*
X121619828Y-116923428D01*
X121691257Y-117066285D01*
X121691257Y-117209142D01*
X121619828Y-117423428D01*
X120762685Y-118280571D01*
X121691257Y-118280571D01*
X99747485Y-116907571D02*
X99890342Y-116907571D01*
X100033200Y-116979000D01*
X100104628Y-117050428D01*
X100176057Y-117193285D01*
X100247485Y-117479000D01*
X100247485Y-117836142D01*
X100176057Y-118121857D01*
X100104628Y-118264714D01*
X100033200Y-118336142D01*
X99890342Y-118407571D01*
X99747485Y-118407571D01*
X99604628Y-118336142D01*
X99533200Y-118264714D01*
X99461771Y-118121857D01*
X99390342Y-117836142D01*
X99390342Y-117479000D01*
X99461771Y-117193285D01*
X99533200Y-117050428D01*
X99604628Y-116979000D01*
X99747485Y-116907571D01*
X100961771Y-118407571D02*
X101247485Y-118407571D01*
X101390342Y-118336142D01*
X101461771Y-118264714D01*
X101604628Y-118050428D01*
X101676057Y-117764714D01*
X101676057Y-117193285D01*
X101604628Y-117050428D01*
X101533200Y-116979000D01*
X101390342Y-116907571D01*
X101104628Y-116907571D01*
X100961771Y-116979000D01*
X100890342Y-117050428D01*
X100818914Y-117193285D01*
X100818914Y-117550428D01*
X100890342Y-117693285D01*
X100961771Y-117764714D01*
X101104628Y-117836142D01*
X101390342Y-117836142D01*
X101533200Y-117764714D01*
X101604628Y-117693285D01*
X101676057Y-117550428D01*
X40227285Y-123639971D02*
X39370142Y-123639971D01*
X39798714Y-123639971D02*
X39798714Y-122139971D01*
X39655857Y-122354257D01*
X39513000Y-122497114D01*
X39370142Y-122568542D01*
X41584428Y-122139971D02*
X40870142Y-122139971D01*
X40798714Y-122854257D01*
X40870142Y-122782828D01*
X41013000Y-122711400D01*
X41370142Y-122711400D01*
X41513000Y-122782828D01*
X41584428Y-122854257D01*
X41655857Y-122997114D01*
X41655857Y-123354257D01*
X41584428Y-123497114D01*
X41513000Y-123568542D01*
X41370142Y-123639971D01*
X41013000Y-123639971D01*
X40870142Y-123568542D01*
X40798714Y-123497114D01*
X133648485Y-118382171D02*
X132791342Y-118382171D01*
X133219914Y-118382171D02*
X133219914Y-116882171D01*
X133077057Y-117096457D01*
X132934200Y-117239314D01*
X132791342Y-117310742D01*
X134934200Y-117382171D02*
X134934200Y-118382171D01*
X134577057Y-116810742D02*
X134219914Y-117882171D01*
X135148485Y-117882171D01*
X93118085Y-116907571D02*
X93260942Y-116907571D01*
X93403800Y-116979000D01*
X93475228Y-117050428D01*
X93546657Y-117193285D01*
X93618085Y-117479000D01*
X93618085Y-117836142D01*
X93546657Y-118121857D01*
X93475228Y-118264714D01*
X93403800Y-118336142D01*
X93260942Y-118407571D01*
X93118085Y-118407571D01*
X92975228Y-118336142D01*
X92903800Y-118264714D01*
X92832371Y-118121857D01*
X92760942Y-117836142D01*
X92760942Y-117479000D01*
X92832371Y-117193285D01*
X92903800Y-117050428D01*
X92975228Y-116979000D01*
X93118085Y-116907571D01*
X94475228Y-117550428D02*
X94332371Y-117479000D01*
X94260942Y-117407571D01*
X94189514Y-117264714D01*
X94189514Y-117193285D01*
X94260942Y-117050428D01*
X94332371Y-116979000D01*
X94475228Y-116907571D01*
X94760942Y-116907571D01*
X94903800Y-116979000D01*
X94975228Y-117050428D01*
X95046657Y-117193285D01*
X95046657Y-117264714D01*
X94975228Y-117407571D01*
X94903800Y-117479000D01*
X94760942Y-117550428D01*
X94475228Y-117550428D01*
X94332371Y-117621857D01*
X94260942Y-117693285D01*
X94189514Y-117836142D01*
X94189514Y-118121857D01*
X94260942Y-118264714D01*
X94332371Y-118336142D01*
X94475228Y-118407571D01*
X94760942Y-118407571D01*
X94903800Y-118336142D01*
X94975228Y-118264714D01*
X95046657Y-118121857D01*
X95046657Y-117836142D01*
X94975228Y-117693285D01*
X94903800Y-117621857D01*
X94760942Y-117550428D01*
X86463285Y-116983771D02*
X86606142Y-116983771D01*
X86749000Y-117055200D01*
X86820428Y-117126628D01*
X86891857Y-117269485D01*
X86963285Y-117555200D01*
X86963285Y-117912342D01*
X86891857Y-118198057D01*
X86820428Y-118340914D01*
X86749000Y-118412342D01*
X86606142Y-118483771D01*
X86463285Y-118483771D01*
X86320428Y-118412342D01*
X86249000Y-118340914D01*
X86177571Y-118198057D01*
X86106142Y-117912342D01*
X86106142Y-117555200D01*
X86177571Y-117269485D01*
X86249000Y-117126628D01*
X86320428Y-117055200D01*
X86463285Y-116983771D01*
X87463285Y-116983771D02*
X88463285Y-116983771D01*
X87820428Y-118483771D01*
X79833885Y-116958371D02*
X79976742Y-116958371D01*
X80119600Y-117029800D01*
X80191028Y-117101228D01*
X80262457Y-117244085D01*
X80333885Y-117529800D01*
X80333885Y-117886942D01*
X80262457Y-118172657D01*
X80191028Y-118315514D01*
X80119600Y-118386942D01*
X79976742Y-118458371D01*
X79833885Y-118458371D01*
X79691028Y-118386942D01*
X79619600Y-118315514D01*
X79548171Y-118172657D01*
X79476742Y-117886942D01*
X79476742Y-117529800D01*
X79548171Y-117244085D01*
X79619600Y-117101228D01*
X79691028Y-117029800D01*
X79833885Y-116958371D01*
X81619600Y-116958371D02*
X81333885Y-116958371D01*
X81191028Y-117029800D01*
X81119600Y-117101228D01*
X80976742Y-117315514D01*
X80905314Y-117601228D01*
X80905314Y-118172657D01*
X80976742Y-118315514D01*
X81048171Y-118386942D01*
X81191028Y-118458371D01*
X81476742Y-118458371D01*
X81619600Y-118386942D01*
X81691028Y-118315514D01*
X81762457Y-118172657D01*
X81762457Y-117815514D01*
X81691028Y-117672657D01*
X81619600Y-117601228D01*
X81476742Y-117529800D01*
X81191028Y-117529800D01*
X81048171Y-117601228D01*
X80976742Y-117672657D01*
X80905314Y-117815514D01*
X73128285Y-117009171D02*
X73271142Y-117009171D01*
X73414000Y-117080600D01*
X73485428Y-117152028D01*
X73556857Y-117294885D01*
X73628285Y-117580600D01*
X73628285Y-117937742D01*
X73556857Y-118223457D01*
X73485428Y-118366314D01*
X73414000Y-118437742D01*
X73271142Y-118509171D01*
X73128285Y-118509171D01*
X72985428Y-118437742D01*
X72914000Y-118366314D01*
X72842571Y-118223457D01*
X72771142Y-117937742D01*
X72771142Y-117580600D01*
X72842571Y-117294885D01*
X72914000Y-117152028D01*
X72985428Y-117080600D01*
X73128285Y-117009171D01*
X74985428Y-117009171D02*
X74271142Y-117009171D01*
X74199714Y-117723457D01*
X74271142Y-117652028D01*
X74414000Y-117580600D01*
X74771142Y-117580600D01*
X74914000Y-117652028D01*
X74985428Y-117723457D01*
X75056857Y-117866314D01*
X75056857Y-118223457D01*
X74985428Y-118366314D01*
X74914000Y-118437742D01*
X74771142Y-118509171D01*
X74414000Y-118509171D01*
X74271142Y-118437742D01*
X74199714Y-118366314D01*
X66575085Y-116882171D02*
X66717942Y-116882171D01*
X66860800Y-116953600D01*
X66932228Y-117025028D01*
X67003657Y-117167885D01*
X67075085Y-117453600D01*
X67075085Y-117810742D01*
X67003657Y-118096457D01*
X66932228Y-118239314D01*
X66860800Y-118310742D01*
X66717942Y-118382171D01*
X66575085Y-118382171D01*
X66432228Y-118310742D01*
X66360800Y-118239314D01*
X66289371Y-118096457D01*
X66217942Y-117810742D01*
X66217942Y-117453600D01*
X66289371Y-117167885D01*
X66360800Y-117025028D01*
X66432228Y-116953600D01*
X66575085Y-116882171D01*
X68360800Y-117382171D02*
X68360800Y-118382171D01*
X68003657Y-116810742D02*
X67646514Y-117882171D01*
X68575085Y-117882171D01*
X59640885Y-116983771D02*
X59783742Y-116983771D01*
X59926600Y-117055200D01*
X59998028Y-117126628D01*
X60069457Y-117269485D01*
X60140885Y-117555200D01*
X60140885Y-117912342D01*
X60069457Y-118198057D01*
X59998028Y-118340914D01*
X59926600Y-118412342D01*
X59783742Y-118483771D01*
X59640885Y-118483771D01*
X59498028Y-118412342D01*
X59426600Y-118340914D01*
X59355171Y-118198057D01*
X59283742Y-117912342D01*
X59283742Y-117555200D01*
X59355171Y-117269485D01*
X59426600Y-117126628D01*
X59498028Y-117055200D01*
X59640885Y-116983771D01*
X60640885Y-116983771D02*
X61569457Y-116983771D01*
X61069457Y-117555200D01*
X61283742Y-117555200D01*
X61426600Y-117626628D01*
X61498028Y-117698057D01*
X61569457Y-117840914D01*
X61569457Y-118198057D01*
X61498028Y-118340914D01*
X61426600Y-118412342D01*
X61283742Y-118483771D01*
X60855171Y-118483771D01*
X60712314Y-118412342D01*
X60640885Y-118340914D01*
X53062285Y-116856771D02*
X53205142Y-116856771D01*
X53348000Y-116928200D01*
X53419428Y-116999628D01*
X53490857Y-117142485D01*
X53562285Y-117428200D01*
X53562285Y-117785342D01*
X53490857Y-118071057D01*
X53419428Y-118213914D01*
X53348000Y-118285342D01*
X53205142Y-118356771D01*
X53062285Y-118356771D01*
X52919428Y-118285342D01*
X52848000Y-118213914D01*
X52776571Y-118071057D01*
X52705142Y-117785342D01*
X52705142Y-117428200D01*
X52776571Y-117142485D01*
X52848000Y-116999628D01*
X52919428Y-116928200D01*
X53062285Y-116856771D01*
X54133714Y-116999628D02*
X54205142Y-116928200D01*
X54348000Y-116856771D01*
X54705142Y-116856771D01*
X54848000Y-116928200D01*
X54919428Y-116999628D01*
X54990857Y-117142485D01*
X54990857Y-117285342D01*
X54919428Y-117499628D01*
X54062285Y-118356771D01*
X54990857Y-118356771D01*
X46509085Y-116932971D02*
X46651942Y-116932971D01*
X46794800Y-117004400D01*
X46866228Y-117075828D01*
X46937657Y-117218685D01*
X47009085Y-117504400D01*
X47009085Y-117861542D01*
X46937657Y-118147257D01*
X46866228Y-118290114D01*
X46794800Y-118361542D01*
X46651942Y-118432971D01*
X46509085Y-118432971D01*
X46366228Y-118361542D01*
X46294800Y-118290114D01*
X46223371Y-118147257D01*
X46151942Y-117861542D01*
X46151942Y-117504400D01*
X46223371Y-117218685D01*
X46294800Y-117075828D01*
X46366228Y-117004400D01*
X46509085Y-116932971D01*
X48437657Y-118432971D02*
X47580514Y-118432971D01*
X48009085Y-118432971D02*
X48009085Y-116932971D01*
X47866228Y-117147257D01*
X47723371Y-117290114D01*
X47580514Y-117361542D01*
X39930485Y-116856771D02*
X40073342Y-116856771D01*
X40216200Y-116928200D01*
X40287628Y-116999628D01*
X40359057Y-117142485D01*
X40430485Y-117428200D01*
X40430485Y-117785342D01*
X40359057Y-118071057D01*
X40287628Y-118213914D01*
X40216200Y-118285342D01*
X40073342Y-118356771D01*
X39930485Y-118356771D01*
X39787628Y-118285342D01*
X39716200Y-118213914D01*
X39644771Y-118071057D01*
X39573342Y-117785342D01*
X39573342Y-117428200D01*
X39644771Y-117142485D01*
X39716200Y-116999628D01*
X39787628Y-116928200D01*
X39930485Y-116856771D01*
X41359057Y-116856771D02*
X41501914Y-116856771D01*
X41644771Y-116928200D01*
X41716200Y-116999628D01*
X41787628Y-117142485D01*
X41859057Y-117428200D01*
X41859057Y-117785342D01*
X41787628Y-118071057D01*
X41716200Y-118213914D01*
X41644771Y-118285342D01*
X41501914Y-118356771D01*
X41359057Y-118356771D01*
X41216200Y-118285342D01*
X41144771Y-118213914D01*
X41073342Y-118071057D01*
X41001914Y-117785342D01*
X41001914Y-117428200D01*
X41073342Y-117142485D01*
X41144771Y-116999628D01*
X41216200Y-116928200D01*
X41359057Y-116856771D01*
D11*
G04 #@! TO.C,U8*
X76961000Y-94250200D02*
X76961000Y-88275200D01*
X82486000Y-92675200D02*
X82486000Y-88275200D01*
G04 #@! TO.C,U1*
X61893200Y-93865200D02*
X61893200Y-87890200D01*
X67418200Y-92290200D02*
X67418200Y-87890200D01*
D12*
G04 #@! TO.C,R2*
X48448200Y-81731600D02*
X48448200Y-83571600D01*
X48448200Y-83571600D02*
X52288200Y-83571600D01*
X52288200Y-83571600D02*
X52288200Y-81731600D01*
X52288200Y-81731600D02*
X48448200Y-81731600D01*
X47498200Y-82651600D02*
X48448200Y-82651600D01*
X53238200Y-82651600D02*
X52288200Y-82651600D01*
G04 #@! TO.C,R3*
X53390600Y-78486000D02*
X52440600Y-78486000D01*
X47650600Y-78486000D02*
X48600600Y-78486000D01*
X52440600Y-77566000D02*
X48600600Y-77566000D01*
X52440600Y-79406000D02*
X52440600Y-77566000D01*
X48600600Y-79406000D02*
X52440600Y-79406000D01*
X48600600Y-77566000D02*
X48600600Y-79406000D01*
D11*
G04 #@! TO.C,U11*
X124619200Y-102315000D02*
X125194200Y-102315000D01*
X124619200Y-91965000D02*
X125294200Y-91965000D01*
X134969200Y-91965000D02*
X134294200Y-91965000D01*
X134969200Y-102315000D02*
X134294200Y-102315000D01*
X124619200Y-102315000D02*
X124619200Y-101640000D01*
X134969200Y-102315000D02*
X134969200Y-101640000D01*
X134969200Y-91965000D02*
X134969200Y-92640000D01*
X124619200Y-91965000D02*
X124619200Y-92640000D01*
X125194200Y-102315000D02*
X125194200Y-103590000D01*
D12*
G04 #@! TO.C,R1*
X122229378Y-90118000D02*
X121712222Y-90118000D01*
X122229378Y-88698000D02*
X121712222Y-88698000D01*
G04 #@! TO.C,C4*
X131008622Y-88698000D02*
X131525778Y-88698000D01*
X131008622Y-90118000D02*
X131525778Y-90118000D01*
G04 #@! TO.C,C5*
X126616722Y-90118000D02*
X127133878Y-90118000D01*
X126616722Y-88698000D02*
X127133878Y-88698000D01*
D11*
G04 #@! TO.C,U4*
X110172000Y-92674400D02*
X110172000Y-88274400D01*
X104647000Y-94249400D02*
X104647000Y-88274400D01*
G04 #@! TO.C,U5*
X90590800Y-94274800D02*
X90590800Y-88299800D01*
X96115800Y-92699800D02*
X96115800Y-88299800D01*
G04 #@! TO.C,U6*
X54693400Y-92141400D02*
X54693400Y-87741400D01*
X49168400Y-93716400D02*
X49168400Y-87741400D01*
D12*
G04 #@! TO.C,RN1*
X86683800Y-80714000D02*
X85883800Y-80714000D01*
X86683800Y-77274000D02*
X85883800Y-77274000D01*
G04 #@! TO.C,T1*
X38785800Y-94411800D02*
X38785800Y-84251800D01*
X37515800Y-94411800D02*
X45135800Y-94411800D01*
X45135800Y-94411800D02*
X45135800Y-84251800D01*
X45135800Y-84251800D02*
X37515800Y-84251800D01*
X37515800Y-84251800D02*
X37515800Y-94411800D01*
G04 #@! TO.C,U8*
D11*
X75663380Y-91237104D02*
X76472904Y-91237104D01*
X76568142Y-91189485D01*
X76615761Y-91141866D01*
X76663380Y-91046628D01*
X76663380Y-90856152D01*
X76615761Y-90760914D01*
X76568142Y-90713295D01*
X76472904Y-90665676D01*
X75663380Y-90665676D01*
X76091952Y-90046628D02*
X76044333Y-90141866D01*
X75996714Y-90189485D01*
X75901476Y-90237104D01*
X75853857Y-90237104D01*
X75758619Y-90189485D01*
X75711000Y-90141866D01*
X75663380Y-90046628D01*
X75663380Y-89856152D01*
X75711000Y-89760914D01*
X75758619Y-89713295D01*
X75853857Y-89665676D01*
X75901476Y-89665676D01*
X75996714Y-89713295D01*
X76044333Y-89760914D01*
X76091952Y-89856152D01*
X76091952Y-90046628D01*
X76139571Y-90141866D01*
X76187190Y-90189485D01*
X76282428Y-90237104D01*
X76472904Y-90237104D01*
X76568142Y-90189485D01*
X76615761Y-90141866D01*
X76663380Y-90046628D01*
X76663380Y-89856152D01*
X76615761Y-89760914D01*
X76568142Y-89713295D01*
X76472904Y-89665676D01*
X76282428Y-89665676D01*
X76187190Y-89713295D01*
X76139571Y-89760914D01*
X76091952Y-89856152D01*
G04 #@! TO.C,U1*
X60595580Y-90852104D02*
X61405104Y-90852104D01*
X61500342Y-90804485D01*
X61547961Y-90756866D01*
X61595580Y-90661628D01*
X61595580Y-90471152D01*
X61547961Y-90375914D01*
X61500342Y-90328295D01*
X61405104Y-90280676D01*
X60595580Y-90280676D01*
X61595580Y-89280676D02*
X61595580Y-89852104D01*
X61595580Y-89566390D02*
X60595580Y-89566390D01*
X60738438Y-89661628D01*
X60833676Y-89756866D01*
X60881295Y-89852104D01*
G04 #@! TO.C,R2*
X50201533Y-81183980D02*
X49868200Y-80707790D01*
X49630104Y-81183980D02*
X49630104Y-80183980D01*
X50011057Y-80183980D01*
X50106295Y-80231600D01*
X50153914Y-80279219D01*
X50201533Y-80374457D01*
X50201533Y-80517314D01*
X50153914Y-80612552D01*
X50106295Y-80660171D01*
X50011057Y-80707790D01*
X49630104Y-80707790D01*
X50582485Y-80279219D02*
X50630104Y-80231600D01*
X50725342Y-80183980D01*
X50963438Y-80183980D01*
X51058676Y-80231600D01*
X51106295Y-80279219D01*
X51153914Y-80374457D01*
X51153914Y-80469695D01*
X51106295Y-80612552D01*
X50534866Y-81183980D01*
X51153914Y-81183980D01*
G04 #@! TO.C,R3*
X50353933Y-77018380D02*
X50020600Y-76542190D01*
X49782504Y-77018380D02*
X49782504Y-76018380D01*
X50163457Y-76018380D01*
X50258695Y-76066000D01*
X50306314Y-76113619D01*
X50353933Y-76208857D01*
X50353933Y-76351714D01*
X50306314Y-76446952D01*
X50258695Y-76494571D01*
X50163457Y-76542190D01*
X49782504Y-76542190D01*
X50687266Y-76018380D02*
X51306314Y-76018380D01*
X50972980Y-76399333D01*
X51115838Y-76399333D01*
X51211076Y-76446952D01*
X51258695Y-76494571D01*
X51306314Y-76589809D01*
X51306314Y-76827904D01*
X51258695Y-76923142D01*
X51211076Y-76970761D01*
X51115838Y-77018380D01*
X50830123Y-77018380D01*
X50734885Y-76970761D01*
X50687266Y-76923142D01*
G04 #@! TO.C,U11*
X121796580Y-98378095D02*
X122606104Y-98378095D01*
X122701342Y-98330476D01*
X122748961Y-98282857D01*
X122796580Y-98187619D01*
X122796580Y-97997142D01*
X122748961Y-97901904D01*
X122701342Y-97854285D01*
X122606104Y-97806666D01*
X121796580Y-97806666D01*
X122796580Y-96806666D02*
X122796580Y-97378095D01*
X122796580Y-97092380D02*
X121796580Y-97092380D01*
X121939438Y-97187619D01*
X122034676Y-97282857D01*
X122082295Y-97378095D01*
X122796580Y-95854285D02*
X122796580Y-96425714D01*
X122796580Y-96140000D02*
X121796580Y-96140000D01*
X121939438Y-96235238D01*
X122034676Y-96330476D01*
X122082295Y-96425714D01*
G04 #@! TO.C,R1*
X121804133Y-91510380D02*
X121470800Y-91034190D01*
X121232704Y-91510380D02*
X121232704Y-90510380D01*
X121613657Y-90510380D01*
X121708895Y-90558000D01*
X121756514Y-90605619D01*
X121804133Y-90700857D01*
X121804133Y-90843714D01*
X121756514Y-90938952D01*
X121708895Y-90986571D01*
X121613657Y-91034190D01*
X121232704Y-91034190D01*
X122756514Y-91510380D02*
X122185085Y-91510380D01*
X122470800Y-91510380D02*
X122470800Y-90510380D01*
X122375561Y-90653238D01*
X122280323Y-90748476D01*
X122185085Y-90796095D01*
G04 #@! TO.C,C4*
X131100533Y-88115142D02*
X131052914Y-88162761D01*
X130910057Y-88210380D01*
X130814819Y-88210380D01*
X130671961Y-88162761D01*
X130576723Y-88067523D01*
X130529104Y-87972285D01*
X130481485Y-87781809D01*
X130481485Y-87638952D01*
X130529104Y-87448476D01*
X130576723Y-87353238D01*
X130671961Y-87258000D01*
X130814819Y-87210380D01*
X130910057Y-87210380D01*
X131052914Y-87258000D01*
X131100533Y-87305619D01*
X131957676Y-87543714D02*
X131957676Y-88210380D01*
X131719580Y-87162761D02*
X131481485Y-87877047D01*
X132100533Y-87877047D01*
G04 #@! TO.C,C5*
X126708633Y-88115142D02*
X126661014Y-88162761D01*
X126518157Y-88210380D01*
X126422919Y-88210380D01*
X126280061Y-88162761D01*
X126184823Y-88067523D01*
X126137204Y-87972285D01*
X126089585Y-87781809D01*
X126089585Y-87638952D01*
X126137204Y-87448476D01*
X126184823Y-87353238D01*
X126280061Y-87258000D01*
X126422919Y-87210380D01*
X126518157Y-87210380D01*
X126661014Y-87258000D01*
X126708633Y-87305619D01*
X127613395Y-87210380D02*
X127137204Y-87210380D01*
X127089585Y-87686571D01*
X127137204Y-87638952D01*
X127232442Y-87591333D01*
X127470538Y-87591333D01*
X127565776Y-87638952D01*
X127613395Y-87686571D01*
X127661014Y-87781809D01*
X127661014Y-88019904D01*
X127613395Y-88115142D01*
X127565776Y-88162761D01*
X127470538Y-88210380D01*
X127232442Y-88210380D01*
X127137204Y-88162761D01*
X127089585Y-88115142D01*
G04 #@! TO.C,U4*
X103349380Y-91236304D02*
X104158904Y-91236304D01*
X104254142Y-91188685D01*
X104301761Y-91141066D01*
X104349380Y-91045828D01*
X104349380Y-90855352D01*
X104301761Y-90760114D01*
X104254142Y-90712495D01*
X104158904Y-90664876D01*
X103349380Y-90664876D01*
X103682714Y-89760114D02*
X104349380Y-89760114D01*
X103301761Y-89998209D02*
X104016047Y-90236304D01*
X104016047Y-89617257D01*
G04 #@! TO.C,U5*
X89293180Y-91261704D02*
X90102704Y-91261704D01*
X90197942Y-91214085D01*
X90245561Y-91166466D01*
X90293180Y-91071228D01*
X90293180Y-90880752D01*
X90245561Y-90785514D01*
X90197942Y-90737895D01*
X90102704Y-90690276D01*
X89293180Y-90690276D01*
X89293180Y-89737895D02*
X89293180Y-90214085D01*
X89769371Y-90261704D01*
X89721752Y-90214085D01*
X89674133Y-90118847D01*
X89674133Y-89880752D01*
X89721752Y-89785514D01*
X89769371Y-89737895D01*
X89864609Y-89690276D01*
X90102704Y-89690276D01*
X90197942Y-89737895D01*
X90245561Y-89785514D01*
X90293180Y-89880752D01*
X90293180Y-90118847D01*
X90245561Y-90214085D01*
X90197942Y-90261704D01*
G04 #@! TO.C,U6*
X47870780Y-90703304D02*
X48680304Y-90703304D01*
X48775542Y-90655685D01*
X48823161Y-90608066D01*
X48870780Y-90512828D01*
X48870780Y-90322352D01*
X48823161Y-90227114D01*
X48775542Y-90179495D01*
X48680304Y-90131876D01*
X47870780Y-90131876D01*
X47870780Y-89227114D02*
X47870780Y-89417590D01*
X47918400Y-89512828D01*
X47966019Y-89560447D01*
X48108876Y-89655685D01*
X48299352Y-89703304D01*
X48680304Y-89703304D01*
X48775542Y-89655685D01*
X48823161Y-89608066D01*
X48870780Y-89512828D01*
X48870780Y-89322352D01*
X48823161Y-89227114D01*
X48775542Y-89179495D01*
X48680304Y-89131876D01*
X48442209Y-89131876D01*
X48346971Y-89179495D01*
X48299352Y-89227114D01*
X48251733Y-89322352D01*
X48251733Y-89512828D01*
X48299352Y-89608066D01*
X48346971Y-89655685D01*
X48442209Y-89703304D01*
G04 #@! TO.C,RN1*
X85593323Y-76846380D02*
X85259990Y-76370190D01*
X85021895Y-76846380D02*
X85021895Y-75846380D01*
X85402847Y-75846380D01*
X85498085Y-75894000D01*
X85545704Y-75941619D01*
X85593323Y-76036857D01*
X85593323Y-76179714D01*
X85545704Y-76274952D01*
X85498085Y-76322571D01*
X85402847Y-76370190D01*
X85021895Y-76370190D01*
X86021895Y-76846380D02*
X86021895Y-75846380D01*
X86593323Y-76846380D01*
X86593323Y-75846380D01*
X87593323Y-76846380D02*
X87021895Y-76846380D01*
X87307609Y-76846380D02*
X87307609Y-75846380D01*
X87212371Y-75989238D01*
X87117133Y-76084476D01*
X87021895Y-76132095D01*
G04 #@! TO.C,SW1*
X97091116Y-79144761D02*
X97233973Y-79192380D01*
X97472069Y-79192380D01*
X97567307Y-79144761D01*
X97614926Y-79097142D01*
X97662545Y-79001904D01*
X97662545Y-78906666D01*
X97614926Y-78811428D01*
X97567307Y-78763809D01*
X97472069Y-78716190D01*
X97281592Y-78668571D01*
X97186354Y-78620952D01*
X97138735Y-78573333D01*
X97091116Y-78478095D01*
X97091116Y-78382857D01*
X97138735Y-78287619D01*
X97186354Y-78240000D01*
X97281592Y-78192380D01*
X97519688Y-78192380D01*
X97662545Y-78240000D01*
X97995878Y-78192380D02*
X98233973Y-79192380D01*
X98424450Y-78478095D01*
X98614926Y-79192380D01*
X98853021Y-78192380D01*
X99757783Y-79192380D02*
X99186354Y-79192380D01*
X99472069Y-79192380D02*
X99472069Y-78192380D01*
X99376830Y-78335238D01*
X99281592Y-78430476D01*
X99186354Y-78478095D01*
G04 #@! TO.C,SW2*
X108242266Y-79220961D02*
X108385123Y-79268580D01*
X108623219Y-79268580D01*
X108718457Y-79220961D01*
X108766076Y-79173342D01*
X108813695Y-79078104D01*
X108813695Y-78982866D01*
X108766076Y-78887628D01*
X108718457Y-78840009D01*
X108623219Y-78792390D01*
X108432742Y-78744771D01*
X108337504Y-78697152D01*
X108289885Y-78649533D01*
X108242266Y-78554295D01*
X108242266Y-78459057D01*
X108289885Y-78363819D01*
X108337504Y-78316200D01*
X108432742Y-78268580D01*
X108670838Y-78268580D01*
X108813695Y-78316200D01*
X109147028Y-78268580D02*
X109385123Y-79268580D01*
X109575600Y-78554295D01*
X109766076Y-79268580D01*
X110004171Y-78268580D01*
X110337504Y-78363819D02*
X110385123Y-78316200D01*
X110480361Y-78268580D01*
X110718457Y-78268580D01*
X110813695Y-78316200D01*
X110861314Y-78363819D01*
X110908933Y-78459057D01*
X110908933Y-78554295D01*
X110861314Y-78697152D01*
X110289885Y-79268580D01*
X110908933Y-79268580D01*
G04 #@! TO.C,SW3*
X119824666Y-79144761D02*
X119967523Y-79192380D01*
X120205619Y-79192380D01*
X120300857Y-79144761D01*
X120348476Y-79097142D01*
X120396095Y-79001904D01*
X120396095Y-78906666D01*
X120348476Y-78811428D01*
X120300857Y-78763809D01*
X120205619Y-78716190D01*
X120015142Y-78668571D01*
X119919904Y-78620952D01*
X119872285Y-78573333D01*
X119824666Y-78478095D01*
X119824666Y-78382857D01*
X119872285Y-78287619D01*
X119919904Y-78240000D01*
X120015142Y-78192380D01*
X120253238Y-78192380D01*
X120396095Y-78240000D01*
X120729428Y-78192380D02*
X120967523Y-79192380D01*
X121158000Y-78478095D01*
X121348476Y-79192380D01*
X121586571Y-78192380D01*
X121872285Y-78192380D02*
X122491333Y-78192380D01*
X122158000Y-78573333D01*
X122300857Y-78573333D01*
X122396095Y-78620952D01*
X122443714Y-78668571D01*
X122491333Y-78763809D01*
X122491333Y-79001904D01*
X122443714Y-79097142D01*
X122396095Y-79144761D01*
X122300857Y-79192380D01*
X122015142Y-79192380D01*
X121919904Y-79144761D01*
X121872285Y-79097142D01*
G04 #@! TO.C,T1*
X45858180Y-90093704D02*
X45858180Y-89522276D01*
X46858180Y-89807990D02*
X45858180Y-89807990D01*
X46858180Y-88665133D02*
X46858180Y-89236561D01*
X46858180Y-88950847D02*
X45858180Y-88950847D01*
X46001038Y-89046085D01*
X46096276Y-89141323D01*
X46143895Y-89236561D01*
G04 #@! TD*
M02*
