G04 #@! TF.GenerationSoftware,KiCad,Pcbnew,5.0.2-bee76a0~70~ubuntu16.04.1*
G04 #@! TF.CreationDate,2020-01-20T17:48:56-08:00*
G04 #@! TF.ProjectId,clock,636c6f63-6b2e-46b6-9963-61645f706362,rev?*
G04 #@! TF.SameCoordinates,Original*
G04 #@! TF.FileFunction,Soldermask,Top*
G04 #@! TF.FilePolarity,Negative*
%FSLAX46Y46*%
G04 Gerber Fmt 4.6, Leading zero omitted, Abs format (unit mm)*
G04 Created by KiCad (PCBNEW 5.0.2-bee76a0~70~ubuntu16.04.1) date Mon 20 Jan 2020 17:48:56 PST*
%MOMM*%
%LPD*%
G01*
G04 APERTURE LIST*
%ADD10C,0.100000*%
G04 APERTURE END LIST*
D10*
G36*
X42775193Y-130537603D02*
X42839614Y-130557144D01*
X42898976Y-130588875D01*
X42951017Y-130631583D01*
X42993725Y-130683624D01*
X43025456Y-130742986D01*
X43044997Y-130807407D01*
X43052200Y-130880541D01*
X43052200Y-131806259D01*
X43044997Y-131879393D01*
X43025456Y-131943814D01*
X42993725Y-132003176D01*
X42951017Y-132055217D01*
X42898976Y-132097925D01*
X42839614Y-132129656D01*
X42775193Y-132149197D01*
X42702059Y-132156400D01*
X41776341Y-132156400D01*
X41703207Y-132149197D01*
X41638786Y-132129656D01*
X41579424Y-132097925D01*
X41527383Y-132055217D01*
X41484675Y-132003176D01*
X41452944Y-131943814D01*
X41433403Y-131879393D01*
X41426200Y-131806259D01*
X41426200Y-130880541D01*
X41433403Y-130807407D01*
X41452944Y-130742986D01*
X41484675Y-130683624D01*
X41527383Y-130631583D01*
X41579424Y-130588875D01*
X41638786Y-130557144D01*
X41703207Y-130537603D01*
X41776341Y-130530400D01*
X42702059Y-130530400D01*
X42775193Y-130537603D01*
X42775193Y-130537603D01*
G37*
G36*
X39475193Y-130537603D02*
X39539614Y-130557144D01*
X39598976Y-130588875D01*
X39651017Y-130631583D01*
X39693725Y-130683624D01*
X39725456Y-130742986D01*
X39744997Y-130807407D01*
X39752200Y-130880541D01*
X39752200Y-131806259D01*
X39744997Y-131879393D01*
X39725456Y-131943814D01*
X39693725Y-132003176D01*
X39651017Y-132055217D01*
X39598976Y-132097925D01*
X39539614Y-132129656D01*
X39475193Y-132149197D01*
X39402059Y-132156400D01*
X38476341Y-132156400D01*
X38403207Y-132149197D01*
X38338786Y-132129656D01*
X38279424Y-132097925D01*
X38227383Y-132055217D01*
X38184675Y-132003176D01*
X38152944Y-131943814D01*
X38133403Y-131879393D01*
X38126200Y-131806259D01*
X38126200Y-130880541D01*
X38133403Y-130807407D01*
X38152944Y-130742986D01*
X38184675Y-130683624D01*
X38227383Y-130631583D01*
X38279424Y-130588875D01*
X38338786Y-130557144D01*
X38403207Y-130537603D01*
X38476341Y-130530400D01*
X39402059Y-130530400D01*
X39475193Y-130537603D01*
X39475193Y-130537603D01*
G37*
G36*
X66119793Y-130486803D02*
X66184214Y-130506344D01*
X66243576Y-130538075D01*
X66295617Y-130580783D01*
X66338325Y-130632824D01*
X66370056Y-130692186D01*
X66389597Y-130756607D01*
X66396800Y-130829741D01*
X66396800Y-131755459D01*
X66389597Y-131828593D01*
X66370056Y-131893014D01*
X66338325Y-131952376D01*
X66295617Y-132004417D01*
X66243576Y-132047125D01*
X66184214Y-132078856D01*
X66119793Y-132098397D01*
X66046659Y-132105600D01*
X65120941Y-132105600D01*
X65047807Y-132098397D01*
X64983386Y-132078856D01*
X64924024Y-132047125D01*
X64871983Y-132004417D01*
X64829275Y-131952376D01*
X64797544Y-131893014D01*
X64778003Y-131828593D01*
X64770800Y-131755459D01*
X64770800Y-130829741D01*
X64778003Y-130756607D01*
X64797544Y-130692186D01*
X64829275Y-130632824D01*
X64871983Y-130580783D01*
X64924024Y-130538075D01*
X64983386Y-130506344D01*
X65047807Y-130486803D01*
X65120941Y-130479600D01*
X66046659Y-130479600D01*
X66119793Y-130486803D01*
X66119793Y-130486803D01*
G37*
G36*
X49404593Y-130486803D02*
X49469014Y-130506344D01*
X49528376Y-130538075D01*
X49580417Y-130580783D01*
X49623125Y-130632824D01*
X49654856Y-130692186D01*
X49674397Y-130756607D01*
X49681600Y-130829741D01*
X49681600Y-131755459D01*
X49674397Y-131828593D01*
X49654856Y-131893014D01*
X49623125Y-131952376D01*
X49580417Y-132004417D01*
X49528376Y-132047125D01*
X49469014Y-132078856D01*
X49404593Y-132098397D01*
X49331459Y-132105600D01*
X48405741Y-132105600D01*
X48332607Y-132098397D01*
X48268186Y-132078856D01*
X48208824Y-132047125D01*
X48156783Y-132004417D01*
X48114075Y-131952376D01*
X48082344Y-131893014D01*
X48062803Y-131828593D01*
X48055600Y-131755459D01*
X48055600Y-130829741D01*
X48062803Y-130756607D01*
X48082344Y-130692186D01*
X48114075Y-130632824D01*
X48156783Y-130580783D01*
X48208824Y-130538075D01*
X48268186Y-130506344D01*
X48332607Y-130486803D01*
X48405741Y-130479600D01*
X49331459Y-130479600D01*
X49404593Y-130486803D01*
X49404593Y-130486803D01*
G37*
G36*
X46104593Y-130486803D02*
X46169014Y-130506344D01*
X46228376Y-130538075D01*
X46280417Y-130580783D01*
X46323125Y-130632824D01*
X46354856Y-130692186D01*
X46374397Y-130756607D01*
X46381600Y-130829741D01*
X46381600Y-131755459D01*
X46374397Y-131828593D01*
X46354856Y-131893014D01*
X46323125Y-131952376D01*
X46280417Y-132004417D01*
X46228376Y-132047125D01*
X46169014Y-132078856D01*
X46104593Y-132098397D01*
X46031459Y-132105600D01*
X45105741Y-132105600D01*
X45032607Y-132098397D01*
X44968186Y-132078856D01*
X44908824Y-132047125D01*
X44856783Y-132004417D01*
X44814075Y-131952376D01*
X44782344Y-131893014D01*
X44762803Y-131828593D01*
X44755600Y-131755459D01*
X44755600Y-130829741D01*
X44762803Y-130756607D01*
X44782344Y-130692186D01*
X44814075Y-130632824D01*
X44856783Y-130580783D01*
X44908824Y-130538075D01*
X44968186Y-130506344D01*
X45032607Y-130486803D01*
X45105741Y-130479600D01*
X46031459Y-130479600D01*
X46104593Y-130486803D01*
X46104593Y-130486803D01*
G37*
G36*
X69419793Y-130486803D02*
X69484214Y-130506344D01*
X69543576Y-130538075D01*
X69595617Y-130580783D01*
X69638325Y-130632824D01*
X69670056Y-130692186D01*
X69689597Y-130756607D01*
X69696800Y-130829741D01*
X69696800Y-131755459D01*
X69689597Y-131828593D01*
X69670056Y-131893014D01*
X69638325Y-131952376D01*
X69595617Y-132004417D01*
X69543576Y-132047125D01*
X69484214Y-132078856D01*
X69419793Y-132098397D01*
X69346659Y-132105600D01*
X68420941Y-132105600D01*
X68347807Y-132098397D01*
X68283386Y-132078856D01*
X68224024Y-132047125D01*
X68171983Y-132004417D01*
X68129275Y-131952376D01*
X68097544Y-131893014D01*
X68078003Y-131828593D01*
X68070800Y-131755459D01*
X68070800Y-130829741D01*
X68078003Y-130756607D01*
X68097544Y-130692186D01*
X68129275Y-130632824D01*
X68171983Y-130580783D01*
X68224024Y-130538075D01*
X68283386Y-130506344D01*
X68347807Y-130486803D01*
X68420941Y-130479600D01*
X69346659Y-130479600D01*
X69419793Y-130486803D01*
X69419793Y-130486803D01*
G37*
G36*
X79505593Y-130461403D02*
X79570014Y-130480944D01*
X79629376Y-130512675D01*
X79681417Y-130555383D01*
X79724125Y-130607424D01*
X79755856Y-130666786D01*
X79775396Y-130731205D01*
X79782600Y-130804341D01*
X79782600Y-131730059D01*
X79775397Y-131803193D01*
X79755856Y-131867613D01*
X79724125Y-131926976D01*
X79681417Y-131979017D01*
X79629376Y-132021725D01*
X79570014Y-132053456D01*
X79505593Y-132072997D01*
X79432459Y-132080200D01*
X78506741Y-132080200D01*
X78433607Y-132072997D01*
X78369186Y-132053456D01*
X78309824Y-132021725D01*
X78257783Y-131979017D01*
X78215075Y-131926976D01*
X78183344Y-131867613D01*
X78163803Y-131803193D01*
X78156600Y-131730059D01*
X78156600Y-130804341D01*
X78163804Y-130731205D01*
X78183344Y-130666786D01*
X78215075Y-130607424D01*
X78257783Y-130555383D01*
X78309824Y-130512675D01*
X78369186Y-130480944D01*
X78433607Y-130461403D01*
X78506741Y-130454200D01*
X79432459Y-130454200D01*
X79505593Y-130461403D01*
X79505593Y-130461403D01*
G37*
G36*
X136170993Y-130461403D02*
X136235414Y-130480944D01*
X136294776Y-130512675D01*
X136346817Y-130555383D01*
X136389525Y-130607424D01*
X136421256Y-130666786D01*
X136440796Y-130731205D01*
X136448000Y-130804341D01*
X136448000Y-131730059D01*
X136440797Y-131803193D01*
X136421256Y-131867613D01*
X136389525Y-131926976D01*
X136346817Y-131979017D01*
X136294776Y-132021725D01*
X136235414Y-132053456D01*
X136170993Y-132072997D01*
X136097859Y-132080200D01*
X135172141Y-132080200D01*
X135099007Y-132072997D01*
X135034586Y-132053456D01*
X134975224Y-132021725D01*
X134923183Y-131979017D01*
X134880475Y-131926976D01*
X134848744Y-131867613D01*
X134829203Y-131803193D01*
X134822000Y-131730059D01*
X134822000Y-130804341D01*
X134829204Y-130731205D01*
X134848744Y-130666786D01*
X134880475Y-130607424D01*
X134923183Y-130555383D01*
X134975224Y-130512675D01*
X135034586Y-130480944D01*
X135099007Y-130461403D01*
X135172141Y-130454200D01*
X136097859Y-130454200D01*
X136170993Y-130461403D01*
X136170993Y-130461403D01*
G37*
G36*
X82805593Y-130461403D02*
X82870014Y-130480944D01*
X82929376Y-130512675D01*
X82981417Y-130555383D01*
X83024125Y-130607424D01*
X83055856Y-130666786D01*
X83075396Y-130731205D01*
X83082600Y-130804341D01*
X83082600Y-131730059D01*
X83075397Y-131803193D01*
X83055856Y-131867613D01*
X83024125Y-131926976D01*
X82981417Y-131979017D01*
X82929376Y-132021725D01*
X82870014Y-132053456D01*
X82805593Y-132072997D01*
X82732459Y-132080200D01*
X81806741Y-132080200D01*
X81733607Y-132072997D01*
X81669186Y-132053456D01*
X81609824Y-132021725D01*
X81557783Y-131979017D01*
X81515075Y-131926976D01*
X81483344Y-131867613D01*
X81463803Y-131803193D01*
X81456600Y-131730059D01*
X81456600Y-130804341D01*
X81463804Y-130731205D01*
X81483344Y-130666786D01*
X81515075Y-130607424D01*
X81557783Y-130555383D01*
X81609824Y-130512675D01*
X81669186Y-130480944D01*
X81733607Y-130461403D01*
X81806741Y-130454200D01*
X82732459Y-130454200D01*
X82805593Y-130461403D01*
X82805593Y-130461403D01*
G37*
G36*
X132870993Y-130461403D02*
X132935414Y-130480944D01*
X132994776Y-130512675D01*
X133046817Y-130555383D01*
X133089525Y-130607424D01*
X133121256Y-130666786D01*
X133140796Y-130731205D01*
X133148000Y-130804341D01*
X133148000Y-131730059D01*
X133140797Y-131803193D01*
X133121256Y-131867613D01*
X133089525Y-131926976D01*
X133046817Y-131979017D01*
X132994776Y-132021725D01*
X132935414Y-132053456D01*
X132870993Y-132072997D01*
X132797859Y-132080200D01*
X131872141Y-132080200D01*
X131799007Y-132072997D01*
X131734586Y-132053456D01*
X131675224Y-132021725D01*
X131623183Y-131979017D01*
X131580475Y-131926976D01*
X131548744Y-131867613D01*
X131529203Y-131803193D01*
X131522000Y-131730059D01*
X131522000Y-130804341D01*
X131529204Y-130731205D01*
X131548744Y-130666786D01*
X131580475Y-130607424D01*
X131623183Y-130555383D01*
X131675224Y-130512675D01*
X131734586Y-130480944D01*
X131799007Y-130461403D01*
X131872141Y-130454200D01*
X132797859Y-130454200D01*
X132870993Y-130461403D01*
X132870993Y-130461403D01*
G37*
G36*
X106149193Y-130436003D02*
X106213614Y-130455544D01*
X106272976Y-130487275D01*
X106325017Y-130529983D01*
X106367725Y-130582024D01*
X106399456Y-130641386D01*
X106418997Y-130705807D01*
X106426200Y-130778941D01*
X106426200Y-131704659D01*
X106418997Y-131777793D01*
X106399456Y-131842214D01*
X106367725Y-131901576D01*
X106325017Y-131953617D01*
X106272976Y-131996325D01*
X106213614Y-132028056D01*
X106149193Y-132047597D01*
X106076059Y-132054800D01*
X105150341Y-132054800D01*
X105077207Y-132047597D01*
X105012786Y-132028056D01*
X104953424Y-131996325D01*
X104901383Y-131953617D01*
X104858675Y-131901576D01*
X104826944Y-131842214D01*
X104807403Y-131777793D01*
X104800200Y-131704659D01*
X104800200Y-130778941D01*
X104807403Y-130705807D01*
X104826944Y-130641386D01*
X104858675Y-130582024D01*
X104901383Y-130529983D01*
X104953424Y-130487275D01*
X105012786Y-130455544D01*
X105077207Y-130436003D01*
X105150341Y-130428800D01*
X106076059Y-130428800D01*
X106149193Y-130436003D01*
X106149193Y-130436003D01*
G37*
G36*
X109449193Y-130436003D02*
X109513614Y-130455544D01*
X109572976Y-130487275D01*
X109625017Y-130529983D01*
X109667725Y-130582024D01*
X109699456Y-130641386D01*
X109718997Y-130705807D01*
X109726200Y-130778941D01*
X109726200Y-131704659D01*
X109718997Y-131777793D01*
X109699456Y-131842214D01*
X109667725Y-131901576D01*
X109625017Y-131953617D01*
X109572976Y-131996325D01*
X109513614Y-132028056D01*
X109449193Y-132047597D01*
X109376059Y-132054800D01*
X108450341Y-132054800D01*
X108377207Y-132047597D01*
X108312786Y-132028056D01*
X108253424Y-131996325D01*
X108201383Y-131953617D01*
X108158675Y-131901576D01*
X108126944Y-131842214D01*
X108107403Y-131777793D01*
X108100200Y-131704659D01*
X108100200Y-130778941D01*
X108107403Y-130705807D01*
X108126944Y-130641386D01*
X108158675Y-130582024D01*
X108201383Y-130529983D01*
X108253424Y-130487275D01*
X108312786Y-130455544D01*
X108377207Y-130436003D01*
X108450341Y-130428800D01*
X109376059Y-130428800D01*
X109449193Y-130436003D01*
X109449193Y-130436003D01*
G37*
G36*
X126088193Y-130436003D02*
X126152614Y-130455544D01*
X126211976Y-130487275D01*
X126264017Y-130529983D01*
X126306725Y-130582024D01*
X126338456Y-130641386D01*
X126357997Y-130705807D01*
X126365200Y-130778941D01*
X126365200Y-131704659D01*
X126357997Y-131777793D01*
X126338456Y-131842214D01*
X126306725Y-131901576D01*
X126264017Y-131953617D01*
X126211976Y-131996325D01*
X126152614Y-132028056D01*
X126088193Y-132047597D01*
X126015059Y-132054800D01*
X125089341Y-132054800D01*
X125016207Y-132047597D01*
X124951786Y-132028056D01*
X124892424Y-131996325D01*
X124840383Y-131953617D01*
X124797675Y-131901576D01*
X124765944Y-131842214D01*
X124746403Y-131777793D01*
X124739200Y-131704659D01*
X124739200Y-130778941D01*
X124746403Y-130705807D01*
X124765944Y-130641386D01*
X124797675Y-130582024D01*
X124840383Y-130529983D01*
X124892424Y-130487275D01*
X124951786Y-130455544D01*
X125016207Y-130436003D01*
X125089341Y-130428800D01*
X126015059Y-130428800D01*
X126088193Y-130436003D01*
X126088193Y-130436003D01*
G37*
G36*
X129388193Y-130436003D02*
X129452614Y-130455544D01*
X129511976Y-130487275D01*
X129564017Y-130529983D01*
X129606725Y-130582024D01*
X129638456Y-130641386D01*
X129657997Y-130705807D01*
X129665200Y-130778941D01*
X129665200Y-131704659D01*
X129657997Y-131777793D01*
X129638456Y-131842214D01*
X129606725Y-131901576D01*
X129564017Y-131953617D01*
X129511976Y-131996325D01*
X129452614Y-132028056D01*
X129388193Y-132047597D01*
X129315059Y-132054800D01*
X128389341Y-132054800D01*
X128316207Y-132047597D01*
X128251786Y-132028056D01*
X128192424Y-131996325D01*
X128140383Y-131953617D01*
X128097675Y-131901576D01*
X128065944Y-131842214D01*
X128046403Y-131777793D01*
X128039200Y-131704659D01*
X128039200Y-130778941D01*
X128046403Y-130705807D01*
X128065944Y-130641386D01*
X128097675Y-130582024D01*
X128140383Y-130529983D01*
X128192424Y-130487275D01*
X128251786Y-130455544D01*
X128316207Y-130436003D01*
X128389341Y-130428800D01*
X129315059Y-130428800D01*
X129388193Y-130436003D01*
X129388193Y-130436003D01*
G37*
G36*
X119357193Y-130410603D02*
X119421614Y-130430144D01*
X119480976Y-130461875D01*
X119533017Y-130504583D01*
X119575725Y-130556624D01*
X119607456Y-130615986D01*
X119626996Y-130680405D01*
X119634200Y-130753541D01*
X119634200Y-131679259D01*
X119626997Y-131752393D01*
X119607456Y-131816813D01*
X119575725Y-131876176D01*
X119533017Y-131928217D01*
X119480976Y-131970925D01*
X119421614Y-132002656D01*
X119357193Y-132022197D01*
X119284059Y-132029400D01*
X118358341Y-132029400D01*
X118285207Y-132022197D01*
X118220786Y-132002656D01*
X118161424Y-131970925D01*
X118109383Y-131928217D01*
X118066675Y-131876176D01*
X118034944Y-131816813D01*
X118015403Y-131752393D01*
X118008200Y-131679259D01*
X118008200Y-130753541D01*
X118015404Y-130680405D01*
X118034944Y-130615986D01*
X118066675Y-130556624D01*
X118109383Y-130504583D01*
X118161424Y-130461875D01*
X118220786Y-130430144D01*
X118285207Y-130410603D01*
X118358341Y-130403400D01*
X119284059Y-130403400D01*
X119357193Y-130410603D01*
X119357193Y-130410603D01*
G37*
G36*
X122657193Y-130410603D02*
X122721614Y-130430144D01*
X122780976Y-130461875D01*
X122833017Y-130504583D01*
X122875725Y-130556624D01*
X122907456Y-130615986D01*
X122926996Y-130680405D01*
X122934200Y-130753541D01*
X122934200Y-131679259D01*
X122926997Y-131752393D01*
X122907456Y-131816813D01*
X122875725Y-131876176D01*
X122833017Y-131928217D01*
X122780976Y-131970925D01*
X122721614Y-132002656D01*
X122657193Y-132022197D01*
X122584059Y-132029400D01*
X121658341Y-132029400D01*
X121585207Y-132022197D01*
X121520786Y-132002656D01*
X121461424Y-131970925D01*
X121409383Y-131928217D01*
X121366675Y-131876176D01*
X121334944Y-131816813D01*
X121315403Y-131752393D01*
X121308200Y-131679259D01*
X121308200Y-130753541D01*
X121315404Y-130680405D01*
X121334944Y-130615986D01*
X121366675Y-130556624D01*
X121409383Y-130504583D01*
X121461424Y-130461875D01*
X121520786Y-130430144D01*
X121585207Y-130410603D01*
X121658341Y-130403400D01*
X122584059Y-130403400D01*
X122657193Y-130410603D01*
X122657193Y-130410603D01*
G37*
G36*
X59464993Y-130410603D02*
X59529414Y-130430144D01*
X59588776Y-130461875D01*
X59640817Y-130504583D01*
X59683525Y-130556624D01*
X59715256Y-130615986D01*
X59734796Y-130680405D01*
X59742000Y-130753541D01*
X59742000Y-131679259D01*
X59734797Y-131752393D01*
X59715256Y-131816813D01*
X59683525Y-131876176D01*
X59640817Y-131928217D01*
X59588776Y-131970925D01*
X59529414Y-132002656D01*
X59464993Y-132022197D01*
X59391859Y-132029400D01*
X58466141Y-132029400D01*
X58393007Y-132022197D01*
X58328586Y-132002656D01*
X58269224Y-131970925D01*
X58217183Y-131928217D01*
X58174475Y-131876176D01*
X58142744Y-131816813D01*
X58123203Y-131752393D01*
X58116000Y-131679259D01*
X58116000Y-130753541D01*
X58123204Y-130680405D01*
X58142744Y-130615986D01*
X58174475Y-130556624D01*
X58217183Y-130504583D01*
X58269224Y-130461875D01*
X58328586Y-130430144D01*
X58393007Y-130410603D01*
X58466141Y-130403400D01*
X59391859Y-130403400D01*
X59464993Y-130410603D01*
X59464993Y-130410603D01*
G37*
G36*
X62764993Y-130410603D02*
X62829414Y-130430144D01*
X62888776Y-130461875D01*
X62940817Y-130504583D01*
X62983525Y-130556624D01*
X63015256Y-130615986D01*
X63034796Y-130680405D01*
X63042000Y-130753541D01*
X63042000Y-131679259D01*
X63034797Y-131752393D01*
X63015256Y-131816813D01*
X62983525Y-131876176D01*
X62940817Y-131928217D01*
X62888776Y-131970925D01*
X62829414Y-132002656D01*
X62764993Y-132022197D01*
X62691859Y-132029400D01*
X61766141Y-132029400D01*
X61693007Y-132022197D01*
X61628586Y-132002656D01*
X61569224Y-131970925D01*
X61517183Y-131928217D01*
X61474475Y-131876176D01*
X61442744Y-131816813D01*
X61423203Y-131752393D01*
X61416000Y-131679259D01*
X61416000Y-130753541D01*
X61423204Y-130680405D01*
X61442744Y-130615986D01*
X61474475Y-130556624D01*
X61517183Y-130504583D01*
X61569224Y-130461875D01*
X61628586Y-130430144D01*
X61693007Y-130410603D01*
X61766141Y-130403400D01*
X62691859Y-130403400D01*
X62764993Y-130410603D01*
X62764993Y-130410603D01*
G37*
G36*
X102768993Y-130410603D02*
X102833414Y-130430144D01*
X102892776Y-130461875D01*
X102944817Y-130504583D01*
X102987525Y-130556624D01*
X103019256Y-130615986D01*
X103038796Y-130680405D01*
X103046000Y-130753541D01*
X103046000Y-131679259D01*
X103038797Y-131752393D01*
X103019256Y-131816813D01*
X102987525Y-131876176D01*
X102944817Y-131928217D01*
X102892776Y-131970925D01*
X102833414Y-132002656D01*
X102768993Y-132022197D01*
X102695859Y-132029400D01*
X101770141Y-132029400D01*
X101697007Y-132022197D01*
X101632586Y-132002656D01*
X101573224Y-131970925D01*
X101521183Y-131928217D01*
X101478475Y-131876176D01*
X101446744Y-131816813D01*
X101427203Y-131752393D01*
X101420000Y-131679259D01*
X101420000Y-130753541D01*
X101427204Y-130680405D01*
X101446744Y-130615986D01*
X101478475Y-130556624D01*
X101521183Y-130504583D01*
X101573224Y-130461875D01*
X101632586Y-130430144D01*
X101697007Y-130410603D01*
X101770141Y-130403400D01*
X102695859Y-130403400D01*
X102768993Y-130410603D01*
X102768993Y-130410603D01*
G37*
G36*
X99468993Y-130410603D02*
X99533414Y-130430144D01*
X99592776Y-130461875D01*
X99644817Y-130504583D01*
X99687525Y-130556624D01*
X99719256Y-130615986D01*
X99738796Y-130680405D01*
X99746000Y-130753541D01*
X99746000Y-131679259D01*
X99738797Y-131752393D01*
X99719256Y-131816813D01*
X99687525Y-131876176D01*
X99644817Y-131928217D01*
X99592776Y-131970925D01*
X99533414Y-132002656D01*
X99468993Y-132022197D01*
X99395859Y-132029400D01*
X98470141Y-132029400D01*
X98397007Y-132022197D01*
X98332586Y-132002656D01*
X98273224Y-131970925D01*
X98221183Y-131928217D01*
X98178475Y-131876176D01*
X98146744Y-131816813D01*
X98127203Y-131752393D01*
X98120000Y-131679259D01*
X98120000Y-130753541D01*
X98127204Y-130680405D01*
X98146744Y-130615986D01*
X98178475Y-130556624D01*
X98221183Y-130504583D01*
X98273224Y-130461875D01*
X98332586Y-130430144D01*
X98397007Y-130410603D01*
X98470141Y-130403400D01*
X99395859Y-130403400D01*
X99468993Y-130410603D01*
X99468993Y-130410603D01*
G37*
G36*
X96037993Y-130410603D02*
X96102414Y-130430144D01*
X96161776Y-130461875D01*
X96213817Y-130504583D01*
X96256525Y-130556624D01*
X96288256Y-130615986D01*
X96307796Y-130680405D01*
X96315000Y-130753541D01*
X96315000Y-131679259D01*
X96307797Y-131752393D01*
X96288256Y-131816813D01*
X96256525Y-131876176D01*
X96213817Y-131928217D01*
X96161776Y-131970925D01*
X96102414Y-132002656D01*
X96037993Y-132022197D01*
X95964859Y-132029400D01*
X95039141Y-132029400D01*
X94966007Y-132022197D01*
X94901586Y-132002656D01*
X94842224Y-131970925D01*
X94790183Y-131928217D01*
X94747475Y-131876176D01*
X94715744Y-131816813D01*
X94696203Y-131752393D01*
X94689000Y-131679259D01*
X94689000Y-130753541D01*
X94696204Y-130680405D01*
X94715744Y-130615986D01*
X94747475Y-130556624D01*
X94790183Y-130504583D01*
X94842224Y-130461875D01*
X94901586Y-130430144D01*
X94966007Y-130410603D01*
X95039141Y-130403400D01*
X95964859Y-130403400D01*
X96037993Y-130410603D01*
X96037993Y-130410603D01*
G37*
G36*
X92737993Y-130410603D02*
X92802414Y-130430144D01*
X92861776Y-130461875D01*
X92913817Y-130504583D01*
X92956525Y-130556624D01*
X92988256Y-130615986D01*
X93007796Y-130680405D01*
X93015000Y-130753541D01*
X93015000Y-131679259D01*
X93007797Y-131752393D01*
X92988256Y-131816813D01*
X92956525Y-131876176D01*
X92913817Y-131928217D01*
X92861776Y-131970925D01*
X92802414Y-132002656D01*
X92737993Y-132022197D01*
X92664859Y-132029400D01*
X91739141Y-132029400D01*
X91666007Y-132022197D01*
X91601586Y-132002656D01*
X91542224Y-131970925D01*
X91490183Y-131928217D01*
X91447475Y-131876176D01*
X91415744Y-131816813D01*
X91396203Y-131752393D01*
X91389000Y-131679259D01*
X91389000Y-130753541D01*
X91396204Y-130680405D01*
X91415744Y-130615986D01*
X91447475Y-130556624D01*
X91490183Y-130504583D01*
X91542224Y-130461875D01*
X91601586Y-130430144D01*
X91666007Y-130410603D01*
X91739141Y-130403400D01*
X92664859Y-130403400D01*
X92737993Y-130410603D01*
X92737993Y-130410603D01*
G37*
G36*
X112906593Y-130410603D02*
X112971014Y-130430144D01*
X113030376Y-130461875D01*
X113082417Y-130504583D01*
X113125125Y-130556624D01*
X113156856Y-130615986D01*
X113176396Y-130680405D01*
X113183600Y-130753541D01*
X113183600Y-131679259D01*
X113176397Y-131752393D01*
X113156856Y-131816813D01*
X113125125Y-131876176D01*
X113082417Y-131928217D01*
X113030376Y-131970925D01*
X112971014Y-132002656D01*
X112906593Y-132022197D01*
X112833459Y-132029400D01*
X111907741Y-132029400D01*
X111834607Y-132022197D01*
X111770186Y-132002656D01*
X111710824Y-131970925D01*
X111658783Y-131928217D01*
X111616075Y-131876176D01*
X111584344Y-131816813D01*
X111564803Y-131752393D01*
X111557600Y-131679259D01*
X111557600Y-130753541D01*
X111564804Y-130680405D01*
X111584344Y-130615986D01*
X111616075Y-130556624D01*
X111658783Y-130504583D01*
X111710824Y-130461875D01*
X111770186Y-130430144D01*
X111834607Y-130410603D01*
X111907741Y-130403400D01*
X112833459Y-130403400D01*
X112906593Y-130410603D01*
X112906593Y-130410603D01*
G37*
G36*
X116206593Y-130410603D02*
X116271014Y-130430144D01*
X116330376Y-130461875D01*
X116382417Y-130504583D01*
X116425125Y-130556624D01*
X116456856Y-130615986D01*
X116476396Y-130680405D01*
X116483600Y-130753541D01*
X116483600Y-131679259D01*
X116476397Y-131752393D01*
X116456856Y-131816813D01*
X116425125Y-131876176D01*
X116382417Y-131928217D01*
X116330376Y-131970925D01*
X116271014Y-132002656D01*
X116206593Y-132022197D01*
X116133459Y-132029400D01*
X115207741Y-132029400D01*
X115134607Y-132022197D01*
X115070186Y-132002656D01*
X115010824Y-131970925D01*
X114958783Y-131928217D01*
X114916075Y-131876176D01*
X114884344Y-131816813D01*
X114864803Y-131752393D01*
X114857600Y-131679259D01*
X114857600Y-130753541D01*
X114864804Y-130680405D01*
X114884344Y-130615986D01*
X114916075Y-130556624D01*
X114958783Y-130504583D01*
X115010824Y-130461875D01*
X115070186Y-130430144D01*
X115134607Y-130410603D01*
X115207741Y-130403400D01*
X116133459Y-130403400D01*
X116206593Y-130410603D01*
X116206593Y-130410603D01*
G37*
G36*
X89459393Y-130410603D02*
X89523814Y-130430144D01*
X89583176Y-130461875D01*
X89635217Y-130504583D01*
X89677925Y-130556624D01*
X89709656Y-130615986D01*
X89729196Y-130680405D01*
X89736400Y-130753541D01*
X89736400Y-131679259D01*
X89729197Y-131752393D01*
X89709656Y-131816813D01*
X89677925Y-131876176D01*
X89635217Y-131928217D01*
X89583176Y-131970925D01*
X89523814Y-132002656D01*
X89459393Y-132022197D01*
X89386259Y-132029400D01*
X88460541Y-132029400D01*
X88387407Y-132022197D01*
X88322986Y-132002656D01*
X88263624Y-131970925D01*
X88211583Y-131928217D01*
X88168875Y-131876176D01*
X88137144Y-131816813D01*
X88117603Y-131752393D01*
X88110400Y-131679259D01*
X88110400Y-130753541D01*
X88117604Y-130680405D01*
X88137144Y-130615986D01*
X88168875Y-130556624D01*
X88211583Y-130504583D01*
X88263624Y-130461875D01*
X88322986Y-130430144D01*
X88387407Y-130410603D01*
X88460541Y-130403400D01*
X89386259Y-130403400D01*
X89459393Y-130410603D01*
X89459393Y-130410603D01*
G37*
G36*
X86159393Y-130410603D02*
X86223814Y-130430144D01*
X86283176Y-130461875D01*
X86335217Y-130504583D01*
X86377925Y-130556624D01*
X86409656Y-130615986D01*
X86429196Y-130680405D01*
X86436400Y-130753541D01*
X86436400Y-131679259D01*
X86429197Y-131752393D01*
X86409656Y-131816813D01*
X86377925Y-131876176D01*
X86335217Y-131928217D01*
X86283176Y-131970925D01*
X86223814Y-132002656D01*
X86159393Y-132022197D01*
X86086259Y-132029400D01*
X85160541Y-132029400D01*
X85087407Y-132022197D01*
X85022986Y-132002656D01*
X84963624Y-131970925D01*
X84911583Y-131928217D01*
X84868875Y-131876176D01*
X84837144Y-131816813D01*
X84817603Y-131752393D01*
X84810400Y-131679259D01*
X84810400Y-130753541D01*
X84817604Y-130680405D01*
X84837144Y-130615986D01*
X84868875Y-130556624D01*
X84911583Y-130504583D01*
X84963624Y-130461875D01*
X85022986Y-130430144D01*
X85087407Y-130410603D01*
X85160541Y-130403400D01*
X86086259Y-130403400D01*
X86159393Y-130410603D01*
X86159393Y-130410603D01*
G37*
G36*
X72849793Y-130385203D02*
X72914214Y-130404744D01*
X72973576Y-130436475D01*
X73025617Y-130479183D01*
X73068325Y-130531224D01*
X73100056Y-130590586D01*
X73119596Y-130655005D01*
X73126800Y-130728141D01*
X73126800Y-131653859D01*
X73119597Y-131726993D01*
X73100056Y-131791413D01*
X73068325Y-131850776D01*
X73025617Y-131902817D01*
X72973576Y-131945525D01*
X72914214Y-131977256D01*
X72849793Y-131996797D01*
X72776659Y-132004000D01*
X71850941Y-132004000D01*
X71777807Y-131996797D01*
X71713386Y-131977256D01*
X71654024Y-131945525D01*
X71601983Y-131902817D01*
X71559275Y-131850776D01*
X71527544Y-131791413D01*
X71508003Y-131726993D01*
X71500800Y-131653859D01*
X71500800Y-130728141D01*
X71508004Y-130655005D01*
X71527544Y-130590586D01*
X71559275Y-130531224D01*
X71601983Y-130479183D01*
X71654024Y-130436475D01*
X71713386Y-130404744D01*
X71777807Y-130385203D01*
X71850941Y-130378000D01*
X72776659Y-130378000D01*
X72849793Y-130385203D01*
X72849793Y-130385203D01*
G37*
G36*
X76149793Y-130385203D02*
X76214214Y-130404744D01*
X76273576Y-130436475D01*
X76325617Y-130479183D01*
X76368325Y-130531224D01*
X76400056Y-130590586D01*
X76419596Y-130655005D01*
X76426800Y-130728141D01*
X76426800Y-131653859D01*
X76419597Y-131726993D01*
X76400056Y-131791413D01*
X76368325Y-131850776D01*
X76325617Y-131902817D01*
X76273576Y-131945525D01*
X76214214Y-131977256D01*
X76149793Y-131996797D01*
X76076659Y-132004000D01*
X75150941Y-132004000D01*
X75077807Y-131996797D01*
X75013386Y-131977256D01*
X74954024Y-131945525D01*
X74901983Y-131902817D01*
X74859275Y-131850776D01*
X74827544Y-131791413D01*
X74808003Y-131726993D01*
X74800800Y-131653859D01*
X74800800Y-130728141D01*
X74808004Y-130655005D01*
X74827544Y-130590586D01*
X74859275Y-130531224D01*
X74901983Y-130479183D01*
X74954024Y-130436475D01*
X75013386Y-130404744D01*
X75077807Y-130385203D01*
X75150941Y-130378000D01*
X76076659Y-130378000D01*
X76149793Y-130385203D01*
X76149793Y-130385203D01*
G37*
G36*
X56186393Y-130385203D02*
X56250814Y-130404744D01*
X56310176Y-130436475D01*
X56362217Y-130479183D01*
X56404925Y-130531224D01*
X56436656Y-130590586D01*
X56456196Y-130655005D01*
X56463400Y-130728141D01*
X56463400Y-131653859D01*
X56456197Y-131726993D01*
X56436656Y-131791413D01*
X56404925Y-131850776D01*
X56362217Y-131902817D01*
X56310176Y-131945525D01*
X56250814Y-131977256D01*
X56186393Y-131996797D01*
X56113259Y-132004000D01*
X55187541Y-132004000D01*
X55114407Y-131996797D01*
X55049986Y-131977256D01*
X54990624Y-131945525D01*
X54938583Y-131902817D01*
X54895875Y-131850776D01*
X54864144Y-131791413D01*
X54844603Y-131726993D01*
X54837400Y-131653859D01*
X54837400Y-130728141D01*
X54844604Y-130655005D01*
X54864144Y-130590586D01*
X54895875Y-130531224D01*
X54938583Y-130479183D01*
X54990624Y-130436475D01*
X55049986Y-130404744D01*
X55114407Y-130385203D01*
X55187541Y-130378000D01*
X56113259Y-130378000D01*
X56186393Y-130385203D01*
X56186393Y-130385203D01*
G37*
G36*
X52886393Y-130385203D02*
X52950814Y-130404744D01*
X53010176Y-130436475D01*
X53062217Y-130479183D01*
X53104925Y-130531224D01*
X53136656Y-130590586D01*
X53156196Y-130655005D01*
X53163400Y-130728141D01*
X53163400Y-131653859D01*
X53156197Y-131726993D01*
X53136656Y-131791413D01*
X53104925Y-131850776D01*
X53062217Y-131902817D01*
X53010176Y-131945525D01*
X52950814Y-131977256D01*
X52886393Y-131996797D01*
X52813259Y-132004000D01*
X51887541Y-132004000D01*
X51814407Y-131996797D01*
X51749986Y-131977256D01*
X51690624Y-131945525D01*
X51638583Y-131902817D01*
X51595875Y-131850776D01*
X51564144Y-131791413D01*
X51544603Y-131726993D01*
X51537400Y-131653859D01*
X51537400Y-130728141D01*
X51544604Y-130655005D01*
X51564144Y-130590586D01*
X51595875Y-130531224D01*
X51638583Y-130479183D01*
X51690624Y-130436475D01*
X51749986Y-130404744D01*
X51814407Y-130385203D01*
X51887541Y-130378000D01*
X52813259Y-130378000D01*
X52886393Y-130385203D01*
X52886393Y-130385203D01*
G37*
G36*
X89433993Y-125483003D02*
X89498414Y-125502544D01*
X89557776Y-125534275D01*
X89609817Y-125576983D01*
X89652525Y-125629024D01*
X89684256Y-125688386D01*
X89703797Y-125752807D01*
X89711000Y-125825941D01*
X89711000Y-126751659D01*
X89703797Y-126824793D01*
X89684256Y-126889214D01*
X89652525Y-126948576D01*
X89609817Y-127000617D01*
X89557776Y-127043325D01*
X89498414Y-127075056D01*
X89433993Y-127094597D01*
X89360859Y-127101800D01*
X88435141Y-127101800D01*
X88362007Y-127094597D01*
X88297586Y-127075056D01*
X88238224Y-127043325D01*
X88186183Y-127000617D01*
X88143475Y-126948576D01*
X88111744Y-126889214D01*
X88092203Y-126824793D01*
X88085000Y-126751659D01*
X88085000Y-125825941D01*
X88092203Y-125752807D01*
X88111744Y-125688386D01*
X88143475Y-125629024D01*
X88186183Y-125576983D01*
X88238224Y-125534275D01*
X88297586Y-125502544D01*
X88362007Y-125483003D01*
X88435141Y-125475800D01*
X89360859Y-125475800D01*
X89433993Y-125483003D01*
X89433993Y-125483003D01*
G37*
G36*
X86133993Y-125483003D02*
X86198414Y-125502544D01*
X86257776Y-125534275D01*
X86309817Y-125576983D01*
X86352525Y-125629024D01*
X86384256Y-125688386D01*
X86403797Y-125752807D01*
X86411000Y-125825941D01*
X86411000Y-126751659D01*
X86403797Y-126824793D01*
X86384256Y-126889214D01*
X86352525Y-126948576D01*
X86309817Y-127000617D01*
X86257776Y-127043325D01*
X86198414Y-127075056D01*
X86133993Y-127094597D01*
X86060859Y-127101800D01*
X85135141Y-127101800D01*
X85062007Y-127094597D01*
X84997586Y-127075056D01*
X84938224Y-127043325D01*
X84886183Y-127000617D01*
X84843475Y-126948576D01*
X84811744Y-126889214D01*
X84792203Y-126824793D01*
X84785000Y-126751659D01*
X84785000Y-125825941D01*
X84792203Y-125752807D01*
X84811744Y-125688386D01*
X84843475Y-125629024D01*
X84886183Y-125576983D01*
X84938224Y-125534275D01*
X84997586Y-125502544D01*
X85062007Y-125483003D01*
X85135141Y-125475800D01*
X86060859Y-125475800D01*
X86133993Y-125483003D01*
X86133993Y-125483003D01*
G37*
G36*
X59489393Y-125483003D02*
X59553814Y-125502544D01*
X59613176Y-125534275D01*
X59665217Y-125576983D01*
X59707925Y-125629024D01*
X59739656Y-125688386D01*
X59759197Y-125752807D01*
X59766400Y-125825941D01*
X59766400Y-126751659D01*
X59759197Y-126824793D01*
X59739656Y-126889214D01*
X59707925Y-126948576D01*
X59665217Y-127000617D01*
X59613176Y-127043325D01*
X59553814Y-127075056D01*
X59489393Y-127094597D01*
X59416259Y-127101800D01*
X58490541Y-127101800D01*
X58417407Y-127094597D01*
X58352986Y-127075056D01*
X58293624Y-127043325D01*
X58241583Y-127000617D01*
X58198875Y-126948576D01*
X58167144Y-126889214D01*
X58147603Y-126824793D01*
X58140400Y-126751659D01*
X58140400Y-125825941D01*
X58147603Y-125752807D01*
X58167144Y-125688386D01*
X58198875Y-125629024D01*
X58241583Y-125576983D01*
X58293624Y-125534275D01*
X58352986Y-125502544D01*
X58417407Y-125483003D01*
X58490541Y-125475800D01*
X59416259Y-125475800D01*
X59489393Y-125483003D01*
X59489393Y-125483003D01*
G37*
G36*
X62789393Y-125483003D02*
X62853814Y-125502544D01*
X62913176Y-125534275D01*
X62965217Y-125576983D01*
X63007925Y-125629024D01*
X63039656Y-125688386D01*
X63059197Y-125752807D01*
X63066400Y-125825941D01*
X63066400Y-126751659D01*
X63059197Y-126824793D01*
X63039656Y-126889214D01*
X63007925Y-126948576D01*
X62965217Y-127000617D01*
X62913176Y-127043325D01*
X62853814Y-127075056D01*
X62789393Y-127094597D01*
X62716259Y-127101800D01*
X61790541Y-127101800D01*
X61717407Y-127094597D01*
X61652986Y-127075056D01*
X61593624Y-127043325D01*
X61541583Y-127000617D01*
X61498875Y-126948576D01*
X61467144Y-126889214D01*
X61447603Y-126824793D01*
X61440400Y-126751659D01*
X61440400Y-125825941D01*
X61447603Y-125752807D01*
X61467144Y-125688386D01*
X61498875Y-125629024D01*
X61541583Y-125576983D01*
X61593624Y-125534275D01*
X61652986Y-125502544D01*
X61717407Y-125483003D01*
X61790541Y-125475800D01*
X62716259Y-125475800D01*
X62789393Y-125483003D01*
X62789393Y-125483003D01*
G37*
G36*
X49454393Y-125457603D02*
X49518814Y-125477144D01*
X49578176Y-125508875D01*
X49630217Y-125551583D01*
X49672925Y-125603624D01*
X49704656Y-125662986D01*
X49724197Y-125727407D01*
X49731400Y-125800541D01*
X49731400Y-126726259D01*
X49724197Y-126799393D01*
X49704656Y-126863814D01*
X49672925Y-126923176D01*
X49630217Y-126975217D01*
X49578176Y-127017925D01*
X49518814Y-127049656D01*
X49454393Y-127069197D01*
X49381259Y-127076400D01*
X48455541Y-127076400D01*
X48382407Y-127069197D01*
X48317986Y-127049656D01*
X48258624Y-127017925D01*
X48206583Y-126975217D01*
X48163875Y-126923176D01*
X48132144Y-126863814D01*
X48112603Y-126799393D01*
X48105400Y-126726259D01*
X48105400Y-125800541D01*
X48112603Y-125727407D01*
X48132144Y-125662986D01*
X48163875Y-125603624D01*
X48206583Y-125551583D01*
X48258624Y-125508875D01*
X48317986Y-125477144D01*
X48382407Y-125457603D01*
X48455541Y-125450400D01*
X49381259Y-125450400D01*
X49454393Y-125457603D01*
X49454393Y-125457603D01*
G37*
G36*
X46154393Y-125457603D02*
X46218814Y-125477144D01*
X46278176Y-125508875D01*
X46330217Y-125551583D01*
X46372925Y-125603624D01*
X46404656Y-125662986D01*
X46424197Y-125727407D01*
X46431400Y-125800541D01*
X46431400Y-126726259D01*
X46424197Y-126799393D01*
X46404656Y-126863814D01*
X46372925Y-126923176D01*
X46330217Y-126975217D01*
X46278176Y-127017925D01*
X46218814Y-127049656D01*
X46154393Y-127069197D01*
X46081259Y-127076400D01*
X45155541Y-127076400D01*
X45082407Y-127069197D01*
X45017986Y-127049656D01*
X44958624Y-127017925D01*
X44906583Y-126975217D01*
X44863875Y-126923176D01*
X44832144Y-126863814D01*
X44812603Y-126799393D01*
X44805400Y-126726259D01*
X44805400Y-125800541D01*
X44812603Y-125727407D01*
X44832144Y-125662986D01*
X44863875Y-125603624D01*
X44906583Y-125551583D01*
X44958624Y-125508875D01*
X45017986Y-125477144D01*
X45082407Y-125457603D01*
X45155541Y-125450400D01*
X46081259Y-125450400D01*
X46154393Y-125457603D01*
X46154393Y-125457603D01*
G37*
G36*
X136093793Y-125432203D02*
X136158214Y-125451744D01*
X136217576Y-125483475D01*
X136269617Y-125526183D01*
X136312325Y-125578224D01*
X136344056Y-125637586D01*
X136363597Y-125702007D01*
X136370800Y-125775141D01*
X136370800Y-126700859D01*
X136363597Y-126773993D01*
X136344056Y-126838414D01*
X136312325Y-126897776D01*
X136269617Y-126949817D01*
X136217576Y-126992525D01*
X136158214Y-127024256D01*
X136093793Y-127043797D01*
X136020659Y-127051000D01*
X135094941Y-127051000D01*
X135021807Y-127043797D01*
X134957386Y-127024256D01*
X134898024Y-126992525D01*
X134845983Y-126949817D01*
X134803275Y-126897776D01*
X134771544Y-126838414D01*
X134752003Y-126773993D01*
X134744800Y-126700859D01*
X134744800Y-125775141D01*
X134752003Y-125702007D01*
X134771544Y-125637586D01*
X134803275Y-125578224D01*
X134845983Y-125526183D01*
X134898024Y-125483475D01*
X134957386Y-125451744D01*
X135021807Y-125432203D01*
X135094941Y-125425000D01*
X136020659Y-125425000D01*
X136093793Y-125432203D01*
X136093793Y-125432203D01*
G37*
G36*
X132793793Y-125432203D02*
X132858214Y-125451744D01*
X132917576Y-125483475D01*
X132969617Y-125526183D01*
X133012325Y-125578224D01*
X133044056Y-125637586D01*
X133063597Y-125702007D01*
X133070800Y-125775141D01*
X133070800Y-126700859D01*
X133063597Y-126773993D01*
X133044056Y-126838414D01*
X133012325Y-126897776D01*
X132969617Y-126949817D01*
X132917576Y-126992525D01*
X132858214Y-127024256D01*
X132793793Y-127043797D01*
X132720659Y-127051000D01*
X131794941Y-127051000D01*
X131721807Y-127043797D01*
X131657386Y-127024256D01*
X131598024Y-126992525D01*
X131545983Y-126949817D01*
X131503275Y-126897776D01*
X131471544Y-126838414D01*
X131452003Y-126773993D01*
X131444800Y-126700859D01*
X131444800Y-125775141D01*
X131452003Y-125702007D01*
X131471544Y-125637586D01*
X131503275Y-125578224D01*
X131545983Y-125526183D01*
X131598024Y-125483475D01*
X131657386Y-125451744D01*
X131721807Y-125432203D01*
X131794941Y-125425000D01*
X132720659Y-125425000D01*
X132793793Y-125432203D01*
X132793793Y-125432203D01*
G37*
G36*
X116180193Y-125406803D02*
X116244614Y-125426344D01*
X116303976Y-125458075D01*
X116356017Y-125500783D01*
X116398725Y-125552824D01*
X116430456Y-125612186D01*
X116449996Y-125676605D01*
X116457200Y-125749741D01*
X116457200Y-126675459D01*
X116449997Y-126748593D01*
X116430456Y-126813013D01*
X116398725Y-126872376D01*
X116356017Y-126924417D01*
X116303976Y-126967125D01*
X116244614Y-126998856D01*
X116180193Y-127018397D01*
X116107059Y-127025600D01*
X115181341Y-127025600D01*
X115108207Y-127018397D01*
X115043786Y-126998856D01*
X114984424Y-126967125D01*
X114932383Y-126924417D01*
X114889675Y-126872376D01*
X114857944Y-126813013D01*
X114838403Y-126748593D01*
X114831200Y-126675459D01*
X114831200Y-125749741D01*
X114838404Y-125676605D01*
X114857944Y-125612186D01*
X114889675Y-125552824D01*
X114932383Y-125500783D01*
X114984424Y-125458075D01*
X115043786Y-125426344D01*
X115108207Y-125406803D01*
X115181341Y-125399600D01*
X116107059Y-125399600D01*
X116180193Y-125406803D01*
X116180193Y-125406803D01*
G37*
G36*
X112880193Y-125406803D02*
X112944614Y-125426344D01*
X113003976Y-125458075D01*
X113056017Y-125500783D01*
X113098725Y-125552824D01*
X113130456Y-125612186D01*
X113149996Y-125676605D01*
X113157200Y-125749741D01*
X113157200Y-126675459D01*
X113149997Y-126748593D01*
X113130456Y-126813013D01*
X113098725Y-126872376D01*
X113056017Y-126924417D01*
X113003976Y-126967125D01*
X112944614Y-126998856D01*
X112880193Y-127018397D01*
X112807059Y-127025600D01*
X111881341Y-127025600D01*
X111808207Y-127018397D01*
X111743786Y-126998856D01*
X111684424Y-126967125D01*
X111632383Y-126924417D01*
X111589675Y-126872376D01*
X111557944Y-126813013D01*
X111538403Y-126748593D01*
X111531200Y-126675459D01*
X111531200Y-125749741D01*
X111538404Y-125676605D01*
X111557944Y-125612186D01*
X111589675Y-125552824D01*
X111632383Y-125500783D01*
X111684424Y-125458075D01*
X111743786Y-125426344D01*
X111808207Y-125406803D01*
X111881341Y-125399600D01*
X112807059Y-125399600D01*
X112880193Y-125406803D01*
X112880193Y-125406803D01*
G37*
G36*
X109474593Y-125381403D02*
X109539014Y-125400944D01*
X109598376Y-125432675D01*
X109650417Y-125475383D01*
X109693125Y-125527424D01*
X109724856Y-125586786D01*
X109744396Y-125651205D01*
X109751600Y-125724341D01*
X109751600Y-126650059D01*
X109744397Y-126723193D01*
X109724856Y-126787613D01*
X109693125Y-126846976D01*
X109650417Y-126899017D01*
X109598376Y-126941725D01*
X109539014Y-126973456D01*
X109474593Y-126992997D01*
X109401459Y-127000200D01*
X108475741Y-127000200D01*
X108402607Y-126992997D01*
X108338186Y-126973456D01*
X108278824Y-126941725D01*
X108226783Y-126899017D01*
X108184075Y-126846976D01*
X108152344Y-126787613D01*
X108132803Y-126723193D01*
X108125600Y-126650059D01*
X108125600Y-125724341D01*
X108132804Y-125651205D01*
X108152344Y-125586786D01*
X108184075Y-125527424D01*
X108226783Y-125475383D01*
X108278824Y-125432675D01*
X108338186Y-125400944D01*
X108402607Y-125381403D01*
X108475741Y-125374200D01*
X109401459Y-125374200D01*
X109474593Y-125381403D01*
X109474593Y-125381403D01*
G37*
G36*
X52656793Y-125381403D02*
X52721214Y-125400944D01*
X52780576Y-125432675D01*
X52832617Y-125475383D01*
X52875325Y-125527424D01*
X52907056Y-125586786D01*
X52926596Y-125651205D01*
X52933800Y-125724341D01*
X52933800Y-126650059D01*
X52926597Y-126723193D01*
X52907056Y-126787613D01*
X52875325Y-126846976D01*
X52832617Y-126899017D01*
X52780576Y-126941725D01*
X52721214Y-126973456D01*
X52656793Y-126992997D01*
X52583659Y-127000200D01*
X51657941Y-127000200D01*
X51584807Y-126992997D01*
X51520386Y-126973456D01*
X51461024Y-126941725D01*
X51408983Y-126899017D01*
X51366275Y-126846976D01*
X51334544Y-126787613D01*
X51315003Y-126723193D01*
X51307800Y-126650059D01*
X51307800Y-125724341D01*
X51315004Y-125651205D01*
X51334544Y-125586786D01*
X51366275Y-125527424D01*
X51408983Y-125475383D01*
X51461024Y-125432675D01*
X51520386Y-125400944D01*
X51584807Y-125381403D01*
X51657941Y-125374200D01*
X52583659Y-125374200D01*
X52656793Y-125381403D01*
X52656793Y-125381403D01*
G37*
G36*
X106174593Y-125381403D02*
X106239014Y-125400944D01*
X106298376Y-125432675D01*
X106350417Y-125475383D01*
X106393125Y-125527424D01*
X106424856Y-125586786D01*
X106444396Y-125651205D01*
X106451600Y-125724341D01*
X106451600Y-126650059D01*
X106444397Y-126723193D01*
X106424856Y-126787613D01*
X106393125Y-126846976D01*
X106350417Y-126899017D01*
X106298376Y-126941725D01*
X106239014Y-126973456D01*
X106174593Y-126992997D01*
X106101459Y-127000200D01*
X105175741Y-127000200D01*
X105102607Y-126992997D01*
X105038186Y-126973456D01*
X104978824Y-126941725D01*
X104926783Y-126899017D01*
X104884075Y-126846976D01*
X104852344Y-126787613D01*
X104832803Y-126723193D01*
X104825600Y-126650059D01*
X104825600Y-125724341D01*
X104832804Y-125651205D01*
X104852344Y-125586786D01*
X104884075Y-125527424D01*
X104926783Y-125475383D01*
X104978824Y-125432675D01*
X105038186Y-125400944D01*
X105102607Y-125381403D01*
X105175741Y-125374200D01*
X106101459Y-125374200D01*
X106174593Y-125381403D01*
X106174593Y-125381403D01*
G37*
G36*
X55956793Y-125381403D02*
X56021214Y-125400944D01*
X56080576Y-125432675D01*
X56132617Y-125475383D01*
X56175325Y-125527424D01*
X56207056Y-125586786D01*
X56226596Y-125651205D01*
X56233800Y-125724341D01*
X56233800Y-126650059D01*
X56226597Y-126723193D01*
X56207056Y-126787613D01*
X56175325Y-126846976D01*
X56132617Y-126899017D01*
X56080576Y-126941725D01*
X56021214Y-126973456D01*
X55956793Y-126992997D01*
X55883659Y-127000200D01*
X54957941Y-127000200D01*
X54884807Y-126992997D01*
X54820386Y-126973456D01*
X54761024Y-126941725D01*
X54708983Y-126899017D01*
X54666275Y-126846976D01*
X54634544Y-126787613D01*
X54615003Y-126723193D01*
X54607800Y-126650059D01*
X54607800Y-125724341D01*
X54615004Y-125651205D01*
X54634544Y-125586786D01*
X54666275Y-125527424D01*
X54708983Y-125475383D01*
X54761024Y-125432675D01*
X54820386Y-125400944D01*
X54884807Y-125381403D01*
X54957941Y-125374200D01*
X55883659Y-125374200D01*
X55956793Y-125381403D01*
X55956793Y-125381403D01*
G37*
G36*
X92814193Y-125356003D02*
X92878614Y-125375544D01*
X92937976Y-125407275D01*
X92990017Y-125449983D01*
X93032725Y-125502024D01*
X93064456Y-125561386D01*
X93083996Y-125625805D01*
X93091200Y-125698941D01*
X93091200Y-126624659D01*
X93083997Y-126697793D01*
X93064456Y-126762213D01*
X93032725Y-126821576D01*
X92990017Y-126873617D01*
X92937976Y-126916325D01*
X92878614Y-126948056D01*
X92814193Y-126967597D01*
X92741059Y-126974800D01*
X91815341Y-126974800D01*
X91742207Y-126967597D01*
X91677786Y-126948056D01*
X91618424Y-126916325D01*
X91566383Y-126873617D01*
X91523675Y-126821576D01*
X91491944Y-126762213D01*
X91472403Y-126697793D01*
X91465200Y-126624659D01*
X91465200Y-125698941D01*
X91472404Y-125625805D01*
X91491944Y-125561386D01*
X91523675Y-125502024D01*
X91566383Y-125449983D01*
X91618424Y-125407275D01*
X91677786Y-125375544D01*
X91742207Y-125356003D01*
X91815341Y-125348800D01*
X92741059Y-125348800D01*
X92814193Y-125356003D01*
X92814193Y-125356003D01*
G37*
G36*
X96114193Y-125356003D02*
X96178614Y-125375544D01*
X96237976Y-125407275D01*
X96290017Y-125449983D01*
X96332725Y-125502024D01*
X96364456Y-125561386D01*
X96383996Y-125625805D01*
X96391200Y-125698941D01*
X96391200Y-126624659D01*
X96383997Y-126697793D01*
X96364456Y-126762213D01*
X96332725Y-126821576D01*
X96290017Y-126873617D01*
X96237976Y-126916325D01*
X96178614Y-126948056D01*
X96114193Y-126967597D01*
X96041059Y-126974800D01*
X95115341Y-126974800D01*
X95042207Y-126967597D01*
X94977786Y-126948056D01*
X94918424Y-126916325D01*
X94866383Y-126873617D01*
X94823675Y-126821576D01*
X94791944Y-126762213D01*
X94772403Y-126697793D01*
X94765200Y-126624659D01*
X94765200Y-125698941D01*
X94772404Y-125625805D01*
X94791944Y-125561386D01*
X94823675Y-125502024D01*
X94866383Y-125449983D01*
X94918424Y-125407275D01*
X94977786Y-125375544D01*
X95042207Y-125356003D01*
X95115341Y-125348800D01*
X96041059Y-125348800D01*
X96114193Y-125356003D01*
X96114193Y-125356003D01*
G37*
G36*
X39448793Y-125356003D02*
X39513214Y-125375544D01*
X39572576Y-125407275D01*
X39624617Y-125449983D01*
X39667325Y-125502024D01*
X39699056Y-125561386D01*
X39718596Y-125625805D01*
X39725800Y-125698941D01*
X39725800Y-126624659D01*
X39718597Y-126697793D01*
X39699056Y-126762213D01*
X39667325Y-126821576D01*
X39624617Y-126873617D01*
X39572576Y-126916325D01*
X39513214Y-126948056D01*
X39448793Y-126967597D01*
X39375659Y-126974800D01*
X38449941Y-126974800D01*
X38376807Y-126967597D01*
X38312386Y-126948056D01*
X38253024Y-126916325D01*
X38200983Y-126873617D01*
X38158275Y-126821576D01*
X38126544Y-126762213D01*
X38107003Y-126697793D01*
X38099800Y-126624659D01*
X38099800Y-125698941D01*
X38107004Y-125625805D01*
X38126544Y-125561386D01*
X38158275Y-125502024D01*
X38200983Y-125449983D01*
X38253024Y-125407275D01*
X38312386Y-125375544D01*
X38376807Y-125356003D01*
X38449941Y-125348800D01*
X39375659Y-125348800D01*
X39448793Y-125356003D01*
X39448793Y-125356003D01*
G37*
G36*
X42748793Y-125356003D02*
X42813214Y-125375544D01*
X42872576Y-125407275D01*
X42924617Y-125449983D01*
X42967325Y-125502024D01*
X42999056Y-125561386D01*
X43018596Y-125625805D01*
X43025800Y-125698941D01*
X43025800Y-126624659D01*
X43018597Y-126697793D01*
X42999056Y-126762213D01*
X42967325Y-126821576D01*
X42924617Y-126873617D01*
X42872576Y-126916325D01*
X42813214Y-126948056D01*
X42748793Y-126967597D01*
X42675659Y-126974800D01*
X41749941Y-126974800D01*
X41676807Y-126967597D01*
X41612386Y-126948056D01*
X41553024Y-126916325D01*
X41500983Y-126873617D01*
X41458275Y-126821576D01*
X41426544Y-126762213D01*
X41407003Y-126697793D01*
X41399800Y-126624659D01*
X41399800Y-125698941D01*
X41407004Y-125625805D01*
X41426544Y-125561386D01*
X41458275Y-125502024D01*
X41500983Y-125449983D01*
X41553024Y-125407275D01*
X41612386Y-125375544D01*
X41676807Y-125356003D01*
X41749941Y-125348800D01*
X42675659Y-125348800D01*
X42748793Y-125356003D01*
X42748793Y-125356003D01*
G37*
G36*
X82804593Y-125330603D02*
X82869014Y-125350144D01*
X82928376Y-125381875D01*
X82980417Y-125424583D01*
X83023125Y-125476624D01*
X83054856Y-125535986D01*
X83074396Y-125600405D01*
X83081600Y-125673541D01*
X83081600Y-126599259D01*
X83074397Y-126672393D01*
X83054856Y-126736813D01*
X83023125Y-126796176D01*
X82980417Y-126848217D01*
X82928376Y-126890925D01*
X82869014Y-126922656D01*
X82804593Y-126942197D01*
X82731459Y-126949400D01*
X81805741Y-126949400D01*
X81732607Y-126942197D01*
X81668186Y-126922656D01*
X81608824Y-126890925D01*
X81556783Y-126848217D01*
X81514075Y-126796176D01*
X81482344Y-126736813D01*
X81462803Y-126672393D01*
X81455600Y-126599259D01*
X81455600Y-125673541D01*
X81462804Y-125600405D01*
X81482344Y-125535986D01*
X81514075Y-125476624D01*
X81556783Y-125424583D01*
X81608824Y-125381875D01*
X81668186Y-125350144D01*
X81732607Y-125330603D01*
X81805741Y-125323400D01*
X82731459Y-125323400D01*
X82804593Y-125330603D01*
X82804593Y-125330603D01*
G37*
G36*
X79504593Y-125330603D02*
X79569014Y-125350144D01*
X79628376Y-125381875D01*
X79680417Y-125424583D01*
X79723125Y-125476624D01*
X79754856Y-125535986D01*
X79774396Y-125600405D01*
X79781600Y-125673541D01*
X79781600Y-126599259D01*
X79774397Y-126672393D01*
X79754856Y-126736813D01*
X79723125Y-126796176D01*
X79680417Y-126848217D01*
X79628376Y-126890925D01*
X79569014Y-126922656D01*
X79504593Y-126942197D01*
X79431459Y-126949400D01*
X78505741Y-126949400D01*
X78432607Y-126942197D01*
X78368186Y-126922656D01*
X78308824Y-126890925D01*
X78256783Y-126848217D01*
X78214075Y-126796176D01*
X78182344Y-126736813D01*
X78162803Y-126672393D01*
X78155600Y-126599259D01*
X78155600Y-125673541D01*
X78162804Y-125600405D01*
X78182344Y-125535986D01*
X78214075Y-125476624D01*
X78256783Y-125424583D01*
X78308824Y-125381875D01*
X78368186Y-125350144D01*
X78432607Y-125330603D01*
X78505741Y-125323400D01*
X79431459Y-125323400D01*
X79504593Y-125330603D01*
X79504593Y-125330603D01*
G37*
G36*
X129312993Y-125330603D02*
X129377414Y-125350144D01*
X129436776Y-125381875D01*
X129488817Y-125424583D01*
X129531525Y-125476624D01*
X129563256Y-125535986D01*
X129582796Y-125600405D01*
X129590000Y-125673541D01*
X129590000Y-126599259D01*
X129582797Y-126672393D01*
X129563256Y-126736813D01*
X129531525Y-126796176D01*
X129488817Y-126848217D01*
X129436776Y-126890925D01*
X129377414Y-126922656D01*
X129312993Y-126942197D01*
X129239859Y-126949400D01*
X128314141Y-126949400D01*
X128241007Y-126942197D01*
X128176586Y-126922656D01*
X128117224Y-126890925D01*
X128065183Y-126848217D01*
X128022475Y-126796176D01*
X127990744Y-126736813D01*
X127971203Y-126672393D01*
X127964000Y-126599259D01*
X127964000Y-125673541D01*
X127971204Y-125600405D01*
X127990744Y-125535986D01*
X128022475Y-125476624D01*
X128065183Y-125424583D01*
X128117224Y-125381875D01*
X128176586Y-125350144D01*
X128241007Y-125330603D01*
X128314141Y-125323400D01*
X129239859Y-125323400D01*
X129312993Y-125330603D01*
X129312993Y-125330603D01*
G37*
G36*
X119561393Y-125330603D02*
X119625814Y-125350144D01*
X119685176Y-125381875D01*
X119737217Y-125424583D01*
X119779925Y-125476624D01*
X119811656Y-125535986D01*
X119831196Y-125600405D01*
X119838400Y-125673541D01*
X119838400Y-126599259D01*
X119831197Y-126672393D01*
X119811656Y-126736813D01*
X119779925Y-126796176D01*
X119737217Y-126848217D01*
X119685176Y-126890925D01*
X119625814Y-126922656D01*
X119561393Y-126942197D01*
X119488259Y-126949400D01*
X118562541Y-126949400D01*
X118489407Y-126942197D01*
X118424986Y-126922656D01*
X118365624Y-126890925D01*
X118313583Y-126848217D01*
X118270875Y-126796176D01*
X118239144Y-126736813D01*
X118219603Y-126672393D01*
X118212400Y-126599259D01*
X118212400Y-125673541D01*
X118219604Y-125600405D01*
X118239144Y-125535986D01*
X118270875Y-125476624D01*
X118313583Y-125424583D01*
X118365624Y-125381875D01*
X118424986Y-125350144D01*
X118489407Y-125330603D01*
X118562541Y-125323400D01*
X119488259Y-125323400D01*
X119561393Y-125330603D01*
X119561393Y-125330603D01*
G37*
G36*
X122861393Y-125330603D02*
X122925814Y-125350144D01*
X122985176Y-125381875D01*
X123037217Y-125424583D01*
X123079925Y-125476624D01*
X123111656Y-125535986D01*
X123131196Y-125600405D01*
X123138400Y-125673541D01*
X123138400Y-126599259D01*
X123131197Y-126672393D01*
X123111656Y-126736813D01*
X123079925Y-126796176D01*
X123037217Y-126848217D01*
X122985176Y-126890925D01*
X122925814Y-126922656D01*
X122861393Y-126942197D01*
X122788259Y-126949400D01*
X121862541Y-126949400D01*
X121789407Y-126942197D01*
X121724986Y-126922656D01*
X121665624Y-126890925D01*
X121613583Y-126848217D01*
X121570875Y-126796176D01*
X121539144Y-126736813D01*
X121519603Y-126672393D01*
X121512400Y-126599259D01*
X121512400Y-125673541D01*
X121519604Y-125600405D01*
X121539144Y-125535986D01*
X121570875Y-125476624D01*
X121613583Y-125424583D01*
X121665624Y-125381875D01*
X121724986Y-125350144D01*
X121789407Y-125330603D01*
X121862541Y-125323400D01*
X122788259Y-125323400D01*
X122861393Y-125330603D01*
X122861393Y-125330603D01*
G37*
G36*
X126012993Y-125330603D02*
X126077414Y-125350144D01*
X126136776Y-125381875D01*
X126188817Y-125424583D01*
X126231525Y-125476624D01*
X126263256Y-125535986D01*
X126282796Y-125600405D01*
X126290000Y-125673541D01*
X126290000Y-126599259D01*
X126282797Y-126672393D01*
X126263256Y-126736813D01*
X126231525Y-126796176D01*
X126188817Y-126848217D01*
X126136776Y-126890925D01*
X126077414Y-126922656D01*
X126012993Y-126942197D01*
X125939859Y-126949400D01*
X125014141Y-126949400D01*
X124941007Y-126942197D01*
X124876586Y-126922656D01*
X124817224Y-126890925D01*
X124765183Y-126848217D01*
X124722475Y-126796176D01*
X124690744Y-126736813D01*
X124671203Y-126672393D01*
X124664000Y-126599259D01*
X124664000Y-125673541D01*
X124671204Y-125600405D01*
X124690744Y-125535986D01*
X124722475Y-125476624D01*
X124765183Y-125424583D01*
X124817224Y-125381875D01*
X124876586Y-125350144D01*
X124941007Y-125330603D01*
X125014141Y-125323400D01*
X125939859Y-125323400D01*
X126012993Y-125330603D01*
X126012993Y-125330603D01*
G37*
G36*
X72850793Y-125305203D02*
X72915214Y-125324744D01*
X72974576Y-125356475D01*
X73026617Y-125399183D01*
X73069325Y-125451224D01*
X73101056Y-125510586D01*
X73120596Y-125575005D01*
X73127800Y-125648141D01*
X73127800Y-126573859D01*
X73120597Y-126646993D01*
X73101056Y-126711413D01*
X73069325Y-126770776D01*
X73026617Y-126822817D01*
X72974576Y-126865525D01*
X72915214Y-126897256D01*
X72850793Y-126916797D01*
X72777659Y-126924000D01*
X71851941Y-126924000D01*
X71778807Y-126916797D01*
X71714386Y-126897256D01*
X71655024Y-126865525D01*
X71602983Y-126822817D01*
X71560275Y-126770776D01*
X71528544Y-126711413D01*
X71509003Y-126646993D01*
X71501800Y-126573859D01*
X71501800Y-125648141D01*
X71509004Y-125575005D01*
X71528544Y-125510586D01*
X71560275Y-125451224D01*
X71602983Y-125399183D01*
X71655024Y-125356475D01*
X71714386Y-125324744D01*
X71778807Y-125305203D01*
X71851941Y-125298000D01*
X72777659Y-125298000D01*
X72850793Y-125305203D01*
X72850793Y-125305203D01*
G37*
G36*
X76150793Y-125305203D02*
X76215214Y-125324744D01*
X76274576Y-125356475D01*
X76326617Y-125399183D01*
X76369325Y-125451224D01*
X76401056Y-125510586D01*
X76420596Y-125575005D01*
X76427800Y-125648141D01*
X76427800Y-126573859D01*
X76420597Y-126646993D01*
X76401056Y-126711413D01*
X76369325Y-126770776D01*
X76326617Y-126822817D01*
X76274576Y-126865525D01*
X76215214Y-126897256D01*
X76150793Y-126916797D01*
X76077659Y-126924000D01*
X75151941Y-126924000D01*
X75078807Y-126916797D01*
X75014386Y-126897256D01*
X74955024Y-126865525D01*
X74902983Y-126822817D01*
X74860275Y-126770776D01*
X74828544Y-126711413D01*
X74809003Y-126646993D01*
X74801800Y-126573859D01*
X74801800Y-125648141D01*
X74809004Y-125575005D01*
X74828544Y-125510586D01*
X74860275Y-125451224D01*
X74902983Y-125399183D01*
X74955024Y-125356475D01*
X75014386Y-125324744D01*
X75078807Y-125305203D01*
X75151941Y-125298000D01*
X76077659Y-125298000D01*
X76150793Y-125305203D01*
X76150793Y-125305203D01*
G37*
G36*
X69470593Y-125305203D02*
X69535014Y-125324744D01*
X69594376Y-125356475D01*
X69646417Y-125399183D01*
X69689125Y-125451224D01*
X69720856Y-125510586D01*
X69740396Y-125575005D01*
X69747600Y-125648141D01*
X69747600Y-126573859D01*
X69740397Y-126646993D01*
X69720856Y-126711413D01*
X69689125Y-126770776D01*
X69646417Y-126822817D01*
X69594376Y-126865525D01*
X69535014Y-126897256D01*
X69470593Y-126916797D01*
X69397459Y-126924000D01*
X68471741Y-126924000D01*
X68398607Y-126916797D01*
X68334186Y-126897256D01*
X68274824Y-126865525D01*
X68222783Y-126822817D01*
X68180075Y-126770776D01*
X68148344Y-126711413D01*
X68128803Y-126646993D01*
X68121600Y-126573859D01*
X68121600Y-125648141D01*
X68128804Y-125575005D01*
X68148344Y-125510586D01*
X68180075Y-125451224D01*
X68222783Y-125399183D01*
X68274824Y-125356475D01*
X68334186Y-125324744D01*
X68398607Y-125305203D01*
X68471741Y-125298000D01*
X69397459Y-125298000D01*
X69470593Y-125305203D01*
X69470593Y-125305203D01*
G37*
G36*
X66170593Y-125305203D02*
X66235014Y-125324744D01*
X66294376Y-125356475D01*
X66346417Y-125399183D01*
X66389125Y-125451224D01*
X66420856Y-125510586D01*
X66440396Y-125575005D01*
X66447600Y-125648141D01*
X66447600Y-126573859D01*
X66440397Y-126646993D01*
X66420856Y-126711413D01*
X66389125Y-126770776D01*
X66346417Y-126822817D01*
X66294376Y-126865525D01*
X66235014Y-126897256D01*
X66170593Y-126916797D01*
X66097459Y-126924000D01*
X65171741Y-126924000D01*
X65098607Y-126916797D01*
X65034186Y-126897256D01*
X64974824Y-126865525D01*
X64922783Y-126822817D01*
X64880075Y-126770776D01*
X64848344Y-126711413D01*
X64828803Y-126646993D01*
X64821600Y-126573859D01*
X64821600Y-125648141D01*
X64828804Y-125575005D01*
X64848344Y-125510586D01*
X64880075Y-125451224D01*
X64922783Y-125399183D01*
X64974824Y-125356475D01*
X65034186Y-125324744D01*
X65098607Y-125305203D01*
X65171741Y-125298000D01*
X66097459Y-125298000D01*
X66170593Y-125305203D01*
X66170593Y-125305203D01*
G37*
G36*
X99494393Y-125305203D02*
X99558814Y-125324744D01*
X99618176Y-125356475D01*
X99670217Y-125399183D01*
X99712925Y-125451224D01*
X99744656Y-125510586D01*
X99764196Y-125575005D01*
X99771400Y-125648141D01*
X99771400Y-126573859D01*
X99764197Y-126646993D01*
X99744656Y-126711413D01*
X99712925Y-126770776D01*
X99670217Y-126822817D01*
X99618176Y-126865525D01*
X99558814Y-126897256D01*
X99494393Y-126916797D01*
X99421259Y-126924000D01*
X98495541Y-126924000D01*
X98422407Y-126916797D01*
X98357986Y-126897256D01*
X98298624Y-126865525D01*
X98246583Y-126822817D01*
X98203875Y-126770776D01*
X98172144Y-126711413D01*
X98152603Y-126646993D01*
X98145400Y-126573859D01*
X98145400Y-125648141D01*
X98152604Y-125575005D01*
X98172144Y-125510586D01*
X98203875Y-125451224D01*
X98246583Y-125399183D01*
X98298624Y-125356475D01*
X98357986Y-125324744D01*
X98422407Y-125305203D01*
X98495541Y-125298000D01*
X99421259Y-125298000D01*
X99494393Y-125305203D01*
X99494393Y-125305203D01*
G37*
G36*
X102794393Y-125305203D02*
X102858814Y-125324744D01*
X102918176Y-125356475D01*
X102970217Y-125399183D01*
X103012925Y-125451224D01*
X103044656Y-125510586D01*
X103064196Y-125575005D01*
X103071400Y-125648141D01*
X103071400Y-126573859D01*
X103064197Y-126646993D01*
X103044656Y-126711413D01*
X103012925Y-126770776D01*
X102970217Y-126822817D01*
X102918176Y-126865525D01*
X102858814Y-126897256D01*
X102794393Y-126916797D01*
X102721259Y-126924000D01*
X101795541Y-126924000D01*
X101722407Y-126916797D01*
X101657986Y-126897256D01*
X101598624Y-126865525D01*
X101546583Y-126822817D01*
X101503875Y-126770776D01*
X101472144Y-126711413D01*
X101452603Y-126646993D01*
X101445400Y-126573859D01*
X101445400Y-125648141D01*
X101452604Y-125575005D01*
X101472144Y-125510586D01*
X101503875Y-125451224D01*
X101546583Y-125399183D01*
X101598624Y-125356475D01*
X101657986Y-125324744D01*
X101722407Y-125305203D01*
X101795541Y-125298000D01*
X102721259Y-125298000D01*
X102794393Y-125305203D01*
X102794393Y-125305203D01*
G37*
G36*
X62789393Y-120326803D02*
X62853814Y-120346344D01*
X62913176Y-120378075D01*
X62965217Y-120420783D01*
X63007925Y-120472824D01*
X63039656Y-120532186D01*
X63059197Y-120596607D01*
X63066400Y-120669741D01*
X63066400Y-121595459D01*
X63059197Y-121668593D01*
X63039656Y-121733014D01*
X63007925Y-121792376D01*
X62965217Y-121844417D01*
X62913176Y-121887125D01*
X62853814Y-121918856D01*
X62789393Y-121938397D01*
X62716259Y-121945600D01*
X61790541Y-121945600D01*
X61717407Y-121938397D01*
X61652986Y-121918856D01*
X61593624Y-121887125D01*
X61541583Y-121844417D01*
X61498875Y-121792376D01*
X61467144Y-121733014D01*
X61447603Y-121668593D01*
X61440400Y-121595459D01*
X61440400Y-120669741D01*
X61447603Y-120596607D01*
X61467144Y-120532186D01*
X61498875Y-120472824D01*
X61541583Y-120420783D01*
X61593624Y-120378075D01*
X61652986Y-120346344D01*
X61717407Y-120326803D01*
X61790541Y-120319600D01*
X62716259Y-120319600D01*
X62789393Y-120326803D01*
X62789393Y-120326803D01*
G37*
G36*
X59489393Y-120326803D02*
X59553814Y-120346344D01*
X59613176Y-120378075D01*
X59665217Y-120420783D01*
X59707925Y-120472824D01*
X59739656Y-120532186D01*
X59759197Y-120596607D01*
X59766400Y-120669741D01*
X59766400Y-121595459D01*
X59759197Y-121668593D01*
X59739656Y-121733014D01*
X59707925Y-121792376D01*
X59665217Y-121844417D01*
X59613176Y-121887125D01*
X59553814Y-121918856D01*
X59489393Y-121938397D01*
X59416259Y-121945600D01*
X58490541Y-121945600D01*
X58417407Y-121938397D01*
X58352986Y-121918856D01*
X58293624Y-121887125D01*
X58241583Y-121844417D01*
X58198875Y-121792376D01*
X58167144Y-121733014D01*
X58147603Y-121668593D01*
X58140400Y-121595459D01*
X58140400Y-120669741D01*
X58147603Y-120596607D01*
X58167144Y-120532186D01*
X58198875Y-120472824D01*
X58241583Y-120420783D01*
X58293624Y-120378075D01*
X58352986Y-120346344D01*
X58417407Y-120326803D01*
X58490541Y-120319600D01*
X59416259Y-120319600D01*
X59489393Y-120326803D01*
X59489393Y-120326803D01*
G37*
G36*
X69444193Y-120301403D02*
X69508614Y-120320944D01*
X69567976Y-120352675D01*
X69620017Y-120395383D01*
X69662725Y-120447424D01*
X69694456Y-120506786D01*
X69713997Y-120571207D01*
X69721200Y-120644341D01*
X69721200Y-121570059D01*
X69713997Y-121643193D01*
X69694456Y-121707614D01*
X69662725Y-121766976D01*
X69620017Y-121819017D01*
X69567976Y-121861725D01*
X69508614Y-121893456D01*
X69444193Y-121912997D01*
X69371059Y-121920200D01*
X68445341Y-121920200D01*
X68372207Y-121912997D01*
X68307786Y-121893456D01*
X68248424Y-121861725D01*
X68196383Y-121819017D01*
X68153675Y-121766976D01*
X68121944Y-121707614D01*
X68102403Y-121643193D01*
X68095200Y-121570059D01*
X68095200Y-120644341D01*
X68102403Y-120571207D01*
X68121944Y-120506786D01*
X68153675Y-120447424D01*
X68196383Y-120395383D01*
X68248424Y-120352675D01*
X68307786Y-120320944D01*
X68372207Y-120301403D01*
X68445341Y-120294200D01*
X69371059Y-120294200D01*
X69444193Y-120301403D01*
X69444193Y-120301403D01*
G37*
G36*
X66144193Y-120301403D02*
X66208614Y-120320944D01*
X66267976Y-120352675D01*
X66320017Y-120395383D01*
X66362725Y-120447424D01*
X66394456Y-120506786D01*
X66413997Y-120571207D01*
X66421200Y-120644341D01*
X66421200Y-121570059D01*
X66413997Y-121643193D01*
X66394456Y-121707614D01*
X66362725Y-121766976D01*
X66320017Y-121819017D01*
X66267976Y-121861725D01*
X66208614Y-121893456D01*
X66144193Y-121912997D01*
X66071059Y-121920200D01*
X65145341Y-121920200D01*
X65072207Y-121912997D01*
X65007786Y-121893456D01*
X64948424Y-121861725D01*
X64896383Y-121819017D01*
X64853675Y-121766976D01*
X64821944Y-121707614D01*
X64802403Y-121643193D01*
X64795200Y-121570059D01*
X64795200Y-120644341D01*
X64802403Y-120571207D01*
X64821944Y-120506786D01*
X64853675Y-120447424D01*
X64896383Y-120395383D01*
X64948424Y-120352675D01*
X65007786Y-120320944D01*
X65072207Y-120301403D01*
X65145341Y-120294200D01*
X66071059Y-120294200D01*
X66144193Y-120301403D01*
X66144193Y-120301403D01*
G37*
G36*
X109398393Y-120276003D02*
X109462814Y-120295544D01*
X109522176Y-120327275D01*
X109574217Y-120369983D01*
X109616925Y-120422024D01*
X109648656Y-120481386D01*
X109668197Y-120545807D01*
X109675400Y-120618941D01*
X109675400Y-121544659D01*
X109668197Y-121617793D01*
X109648656Y-121682214D01*
X109616925Y-121741576D01*
X109574217Y-121793617D01*
X109522176Y-121836325D01*
X109462814Y-121868056D01*
X109398393Y-121887597D01*
X109325259Y-121894800D01*
X108399541Y-121894800D01*
X108326407Y-121887597D01*
X108261986Y-121868056D01*
X108202624Y-121836325D01*
X108150583Y-121793617D01*
X108107875Y-121741576D01*
X108076144Y-121682214D01*
X108056603Y-121617793D01*
X108049400Y-121544659D01*
X108049400Y-120618941D01*
X108056603Y-120545807D01*
X108076144Y-120481386D01*
X108107875Y-120422024D01*
X108150583Y-120369983D01*
X108202624Y-120327275D01*
X108261986Y-120295544D01*
X108326407Y-120276003D01*
X108399541Y-120268800D01*
X109325259Y-120268800D01*
X109398393Y-120276003D01*
X109398393Y-120276003D01*
G37*
G36*
X106098393Y-120276003D02*
X106162814Y-120295544D01*
X106222176Y-120327275D01*
X106274217Y-120369983D01*
X106316925Y-120422024D01*
X106348656Y-120481386D01*
X106368197Y-120545807D01*
X106375400Y-120618941D01*
X106375400Y-121544659D01*
X106368197Y-121617793D01*
X106348656Y-121682214D01*
X106316925Y-121741576D01*
X106274217Y-121793617D01*
X106222176Y-121836325D01*
X106162814Y-121868056D01*
X106098393Y-121887597D01*
X106025259Y-121894800D01*
X105099541Y-121894800D01*
X105026407Y-121887597D01*
X104961986Y-121868056D01*
X104902624Y-121836325D01*
X104850583Y-121793617D01*
X104807875Y-121741576D01*
X104776144Y-121682214D01*
X104756603Y-121617793D01*
X104749400Y-121544659D01*
X104749400Y-120618941D01*
X104756603Y-120545807D01*
X104776144Y-120481386D01*
X104807875Y-120422024D01*
X104850583Y-120369983D01*
X104902624Y-120327275D01*
X104961986Y-120295544D01*
X105026407Y-120276003D01*
X105099541Y-120268800D01*
X106025259Y-120268800D01*
X106098393Y-120276003D01*
X106098393Y-120276003D01*
G37*
G36*
X119560393Y-120250603D02*
X119624814Y-120270144D01*
X119684176Y-120301875D01*
X119736217Y-120344583D01*
X119778925Y-120396624D01*
X119810656Y-120455986D01*
X119830196Y-120520405D01*
X119837400Y-120593541D01*
X119837400Y-121519259D01*
X119830197Y-121592393D01*
X119810656Y-121656813D01*
X119778925Y-121716176D01*
X119736217Y-121768217D01*
X119684176Y-121810925D01*
X119624814Y-121842656D01*
X119560393Y-121862197D01*
X119487259Y-121869400D01*
X118561541Y-121869400D01*
X118488407Y-121862197D01*
X118423986Y-121842656D01*
X118364624Y-121810925D01*
X118312583Y-121768217D01*
X118269875Y-121716176D01*
X118238144Y-121656813D01*
X118218603Y-121592393D01*
X118211400Y-121519259D01*
X118211400Y-120593541D01*
X118218604Y-120520405D01*
X118238144Y-120455986D01*
X118269875Y-120396624D01*
X118312583Y-120344583D01*
X118364624Y-120301875D01*
X118423986Y-120270144D01*
X118488407Y-120250603D01*
X118561541Y-120243400D01*
X119487259Y-120243400D01*
X119560393Y-120250603D01*
X119560393Y-120250603D01*
G37*
G36*
X122860393Y-120250603D02*
X122924814Y-120270144D01*
X122984176Y-120301875D01*
X123036217Y-120344583D01*
X123078925Y-120396624D01*
X123110656Y-120455986D01*
X123130196Y-120520405D01*
X123137400Y-120593541D01*
X123137400Y-121519259D01*
X123130197Y-121592393D01*
X123110656Y-121656813D01*
X123078925Y-121716176D01*
X123036217Y-121768217D01*
X122984176Y-121810925D01*
X122924814Y-121842656D01*
X122860393Y-121862197D01*
X122787259Y-121869400D01*
X121861541Y-121869400D01*
X121788407Y-121862197D01*
X121723986Y-121842656D01*
X121664624Y-121810925D01*
X121612583Y-121768217D01*
X121569875Y-121716176D01*
X121538144Y-121656813D01*
X121518603Y-121592393D01*
X121511400Y-121519259D01*
X121511400Y-120593541D01*
X121518604Y-120520405D01*
X121538144Y-120455986D01*
X121569875Y-120396624D01*
X121612583Y-120344583D01*
X121664624Y-120301875D01*
X121723986Y-120270144D01*
X121788407Y-120250603D01*
X121861541Y-120243400D01*
X122787259Y-120243400D01*
X122860393Y-120250603D01*
X122860393Y-120250603D01*
G37*
G36*
X99468993Y-120250603D02*
X99533414Y-120270144D01*
X99592776Y-120301875D01*
X99644817Y-120344583D01*
X99687525Y-120396624D01*
X99719256Y-120455986D01*
X99738796Y-120520405D01*
X99746000Y-120593541D01*
X99746000Y-121519259D01*
X99738797Y-121592393D01*
X99719256Y-121656813D01*
X99687525Y-121716176D01*
X99644817Y-121768217D01*
X99592776Y-121810925D01*
X99533414Y-121842656D01*
X99468993Y-121862197D01*
X99395859Y-121869400D01*
X98470141Y-121869400D01*
X98397007Y-121862197D01*
X98332586Y-121842656D01*
X98273224Y-121810925D01*
X98221183Y-121768217D01*
X98178475Y-121716176D01*
X98146744Y-121656813D01*
X98127203Y-121592393D01*
X98120000Y-121519259D01*
X98120000Y-120593541D01*
X98127204Y-120520405D01*
X98146744Y-120455986D01*
X98178475Y-120396624D01*
X98221183Y-120344583D01*
X98273224Y-120301875D01*
X98332586Y-120270144D01*
X98397007Y-120250603D01*
X98470141Y-120243400D01*
X99395859Y-120243400D01*
X99468993Y-120250603D01*
X99468993Y-120250603D01*
G37*
G36*
X102768993Y-120250603D02*
X102833414Y-120270144D01*
X102892776Y-120301875D01*
X102944817Y-120344583D01*
X102987525Y-120396624D01*
X103019256Y-120455986D01*
X103038796Y-120520405D01*
X103046000Y-120593541D01*
X103046000Y-121519259D01*
X103038797Y-121592393D01*
X103019256Y-121656813D01*
X102987525Y-121716176D01*
X102944817Y-121768217D01*
X102892776Y-121810925D01*
X102833414Y-121842656D01*
X102768993Y-121862197D01*
X102695859Y-121869400D01*
X101770141Y-121869400D01*
X101697007Y-121862197D01*
X101632586Y-121842656D01*
X101573224Y-121810925D01*
X101521183Y-121768217D01*
X101478475Y-121716176D01*
X101446744Y-121656813D01*
X101427203Y-121592393D01*
X101420000Y-121519259D01*
X101420000Y-120593541D01*
X101427204Y-120520405D01*
X101446744Y-120455986D01*
X101478475Y-120396624D01*
X101521183Y-120344583D01*
X101573224Y-120301875D01*
X101632586Y-120270144D01*
X101697007Y-120250603D01*
X101770141Y-120243400D01*
X102695859Y-120243400D01*
X102768993Y-120250603D01*
X102768993Y-120250603D01*
G37*
G36*
X39474193Y-120250603D02*
X39538614Y-120270144D01*
X39597976Y-120301875D01*
X39650017Y-120344583D01*
X39692725Y-120396624D01*
X39724456Y-120455986D01*
X39743996Y-120520405D01*
X39751200Y-120593541D01*
X39751200Y-121519259D01*
X39743997Y-121592393D01*
X39724456Y-121656813D01*
X39692725Y-121716176D01*
X39650017Y-121768217D01*
X39597976Y-121810925D01*
X39538614Y-121842656D01*
X39474193Y-121862197D01*
X39401059Y-121869400D01*
X38475341Y-121869400D01*
X38402207Y-121862197D01*
X38337786Y-121842656D01*
X38278424Y-121810925D01*
X38226383Y-121768217D01*
X38183675Y-121716176D01*
X38151944Y-121656813D01*
X38132403Y-121592393D01*
X38125200Y-121519259D01*
X38125200Y-120593541D01*
X38132404Y-120520405D01*
X38151944Y-120455986D01*
X38183675Y-120396624D01*
X38226383Y-120344583D01*
X38278424Y-120301875D01*
X38337786Y-120270144D01*
X38402207Y-120250603D01*
X38475341Y-120243400D01*
X39401059Y-120243400D01*
X39474193Y-120250603D01*
X39474193Y-120250603D01*
G37*
G36*
X42774193Y-120250603D02*
X42838614Y-120270144D01*
X42897976Y-120301875D01*
X42950017Y-120344583D01*
X42992725Y-120396624D01*
X43024456Y-120455986D01*
X43043996Y-120520405D01*
X43051200Y-120593541D01*
X43051200Y-121519259D01*
X43043997Y-121592393D01*
X43024456Y-121656813D01*
X42992725Y-121716176D01*
X42950017Y-121768217D01*
X42897976Y-121810925D01*
X42838614Y-121842656D01*
X42774193Y-121862197D01*
X42701059Y-121869400D01*
X41775341Y-121869400D01*
X41702207Y-121862197D01*
X41637786Y-121842656D01*
X41578424Y-121810925D01*
X41526383Y-121768217D01*
X41483675Y-121716176D01*
X41451944Y-121656813D01*
X41432403Y-121592393D01*
X41425200Y-121519259D01*
X41425200Y-120593541D01*
X41432404Y-120520405D01*
X41451944Y-120455986D01*
X41483675Y-120396624D01*
X41526383Y-120344583D01*
X41578424Y-120301875D01*
X41637786Y-120270144D01*
X41702207Y-120250603D01*
X41775341Y-120243400D01*
X42701059Y-120243400D01*
X42774193Y-120250603D01*
X42774193Y-120250603D01*
G37*
G36*
X136119193Y-120225203D02*
X136183614Y-120244744D01*
X136242976Y-120276475D01*
X136295017Y-120319183D01*
X136337725Y-120371224D01*
X136369456Y-120430586D01*
X136388996Y-120495005D01*
X136396200Y-120568141D01*
X136396200Y-121493859D01*
X136388997Y-121566993D01*
X136369456Y-121631413D01*
X136337725Y-121690776D01*
X136295017Y-121742817D01*
X136242976Y-121785525D01*
X136183614Y-121817256D01*
X136119193Y-121836797D01*
X136046059Y-121844000D01*
X135120341Y-121844000D01*
X135047207Y-121836797D01*
X134982786Y-121817256D01*
X134923424Y-121785525D01*
X134871383Y-121742817D01*
X134828675Y-121690776D01*
X134796944Y-121631413D01*
X134777403Y-121566993D01*
X134770200Y-121493859D01*
X134770200Y-120568141D01*
X134777404Y-120495005D01*
X134796944Y-120430586D01*
X134828675Y-120371224D01*
X134871383Y-120319183D01*
X134923424Y-120276475D01*
X134982786Y-120244744D01*
X135047207Y-120225203D01*
X135120341Y-120218000D01*
X136046059Y-120218000D01*
X136119193Y-120225203D01*
X136119193Y-120225203D01*
G37*
G36*
X129489793Y-120225203D02*
X129554214Y-120244744D01*
X129613576Y-120276475D01*
X129665617Y-120319183D01*
X129708325Y-120371224D01*
X129740056Y-120430586D01*
X129759596Y-120495005D01*
X129766800Y-120568141D01*
X129766800Y-121493859D01*
X129759597Y-121566993D01*
X129740056Y-121631413D01*
X129708325Y-121690776D01*
X129665617Y-121742817D01*
X129613576Y-121785525D01*
X129554214Y-121817256D01*
X129489793Y-121836797D01*
X129416659Y-121844000D01*
X128490941Y-121844000D01*
X128417807Y-121836797D01*
X128353386Y-121817256D01*
X128294024Y-121785525D01*
X128241983Y-121742817D01*
X128199275Y-121690776D01*
X128167544Y-121631413D01*
X128148003Y-121566993D01*
X128140800Y-121493859D01*
X128140800Y-120568141D01*
X128148004Y-120495005D01*
X128167544Y-120430586D01*
X128199275Y-120371224D01*
X128241983Y-120319183D01*
X128294024Y-120276475D01*
X128353386Y-120244744D01*
X128417807Y-120225203D01*
X128490941Y-120218000D01*
X129416659Y-120218000D01*
X129489793Y-120225203D01*
X129489793Y-120225203D01*
G37*
G36*
X96267593Y-120225203D02*
X96332014Y-120244744D01*
X96391376Y-120276475D01*
X96443417Y-120319183D01*
X96486125Y-120371224D01*
X96517856Y-120430586D01*
X96537396Y-120495005D01*
X96544600Y-120568141D01*
X96544600Y-121493859D01*
X96537397Y-121566993D01*
X96517856Y-121631413D01*
X96486125Y-121690776D01*
X96443417Y-121742817D01*
X96391376Y-121785525D01*
X96332014Y-121817256D01*
X96267593Y-121836797D01*
X96194459Y-121844000D01*
X95268741Y-121844000D01*
X95195607Y-121836797D01*
X95131186Y-121817256D01*
X95071824Y-121785525D01*
X95019783Y-121742817D01*
X94977075Y-121690776D01*
X94945344Y-121631413D01*
X94925803Y-121566993D01*
X94918600Y-121493859D01*
X94918600Y-120568141D01*
X94925804Y-120495005D01*
X94945344Y-120430586D01*
X94977075Y-120371224D01*
X95019783Y-120319183D01*
X95071824Y-120276475D01*
X95131186Y-120244744D01*
X95195607Y-120225203D01*
X95268741Y-120218000D01*
X96194459Y-120218000D01*
X96267593Y-120225203D01*
X96267593Y-120225203D01*
G37*
G36*
X126189793Y-120225203D02*
X126254214Y-120244744D01*
X126313576Y-120276475D01*
X126365617Y-120319183D01*
X126408325Y-120371224D01*
X126440056Y-120430586D01*
X126459596Y-120495005D01*
X126466800Y-120568141D01*
X126466800Y-121493859D01*
X126459597Y-121566993D01*
X126440056Y-121631413D01*
X126408325Y-121690776D01*
X126365617Y-121742817D01*
X126313576Y-121785525D01*
X126254214Y-121817256D01*
X126189793Y-121836797D01*
X126116659Y-121844000D01*
X125190941Y-121844000D01*
X125117807Y-121836797D01*
X125053386Y-121817256D01*
X124994024Y-121785525D01*
X124941983Y-121742817D01*
X124899275Y-121690776D01*
X124867544Y-121631413D01*
X124848003Y-121566993D01*
X124840800Y-121493859D01*
X124840800Y-120568141D01*
X124848004Y-120495005D01*
X124867544Y-120430586D01*
X124899275Y-120371224D01*
X124941983Y-120319183D01*
X124994024Y-120276475D01*
X125053386Y-120244744D01*
X125117807Y-120225203D01*
X125190941Y-120218000D01*
X126116659Y-120218000D01*
X126189793Y-120225203D01*
X126189793Y-120225203D01*
G37*
G36*
X56109193Y-120225203D02*
X56173614Y-120244744D01*
X56232976Y-120276475D01*
X56285017Y-120319183D01*
X56327725Y-120371224D01*
X56359456Y-120430586D01*
X56378996Y-120495005D01*
X56386200Y-120568141D01*
X56386200Y-121493859D01*
X56378997Y-121566993D01*
X56359456Y-121631413D01*
X56327725Y-121690776D01*
X56285017Y-121742817D01*
X56232976Y-121785525D01*
X56173614Y-121817256D01*
X56109193Y-121836797D01*
X56036059Y-121844000D01*
X55110341Y-121844000D01*
X55037207Y-121836797D01*
X54972786Y-121817256D01*
X54913424Y-121785525D01*
X54861383Y-121742817D01*
X54818675Y-121690776D01*
X54786944Y-121631413D01*
X54767403Y-121566993D01*
X54760200Y-121493859D01*
X54760200Y-120568141D01*
X54767404Y-120495005D01*
X54786944Y-120430586D01*
X54818675Y-120371224D01*
X54861383Y-120319183D01*
X54913424Y-120276475D01*
X54972786Y-120244744D01*
X55037207Y-120225203D01*
X55110341Y-120218000D01*
X56036059Y-120218000D01*
X56109193Y-120225203D01*
X56109193Y-120225203D01*
G37*
G36*
X72875193Y-120225203D02*
X72939614Y-120244744D01*
X72998976Y-120276475D01*
X73051017Y-120319183D01*
X73093725Y-120371224D01*
X73125456Y-120430586D01*
X73144996Y-120495005D01*
X73152200Y-120568141D01*
X73152200Y-121493859D01*
X73144997Y-121566993D01*
X73125456Y-121631413D01*
X73093725Y-121690776D01*
X73051017Y-121742817D01*
X72998976Y-121785525D01*
X72939614Y-121817256D01*
X72875193Y-121836797D01*
X72802059Y-121844000D01*
X71876341Y-121844000D01*
X71803207Y-121836797D01*
X71738786Y-121817256D01*
X71679424Y-121785525D01*
X71627383Y-121742817D01*
X71584675Y-121690776D01*
X71552944Y-121631413D01*
X71533403Y-121566993D01*
X71526200Y-121493859D01*
X71526200Y-120568141D01*
X71533404Y-120495005D01*
X71552944Y-120430586D01*
X71584675Y-120371224D01*
X71627383Y-120319183D01*
X71679424Y-120276475D01*
X71738786Y-120244744D01*
X71803207Y-120225203D01*
X71876341Y-120218000D01*
X72802059Y-120218000D01*
X72875193Y-120225203D01*
X72875193Y-120225203D01*
G37*
G36*
X76175193Y-120225203D02*
X76239614Y-120244744D01*
X76298976Y-120276475D01*
X76351017Y-120319183D01*
X76393725Y-120371224D01*
X76425456Y-120430586D01*
X76444996Y-120495005D01*
X76452200Y-120568141D01*
X76452200Y-121493859D01*
X76444997Y-121566993D01*
X76425456Y-121631413D01*
X76393725Y-121690776D01*
X76351017Y-121742817D01*
X76298976Y-121785525D01*
X76239614Y-121817256D01*
X76175193Y-121836797D01*
X76102059Y-121844000D01*
X75176341Y-121844000D01*
X75103207Y-121836797D01*
X75038786Y-121817256D01*
X74979424Y-121785525D01*
X74927383Y-121742817D01*
X74884675Y-121690776D01*
X74852944Y-121631413D01*
X74833403Y-121566993D01*
X74826200Y-121493859D01*
X74826200Y-120568141D01*
X74833404Y-120495005D01*
X74852944Y-120430586D01*
X74884675Y-120371224D01*
X74927383Y-120319183D01*
X74979424Y-120276475D01*
X75038786Y-120244744D01*
X75103207Y-120225203D01*
X75176341Y-120218000D01*
X76102059Y-120218000D01*
X76175193Y-120225203D01*
X76175193Y-120225203D01*
G37*
G36*
X132819193Y-120225203D02*
X132883614Y-120244744D01*
X132942976Y-120276475D01*
X132995017Y-120319183D01*
X133037725Y-120371224D01*
X133069456Y-120430586D01*
X133088996Y-120495005D01*
X133096200Y-120568141D01*
X133096200Y-121493859D01*
X133088997Y-121566993D01*
X133069456Y-121631413D01*
X133037725Y-121690776D01*
X132995017Y-121742817D01*
X132942976Y-121785525D01*
X132883614Y-121817256D01*
X132819193Y-121836797D01*
X132746059Y-121844000D01*
X131820341Y-121844000D01*
X131747207Y-121836797D01*
X131682786Y-121817256D01*
X131623424Y-121785525D01*
X131571383Y-121742817D01*
X131528675Y-121690776D01*
X131496944Y-121631413D01*
X131477403Y-121566993D01*
X131470200Y-121493859D01*
X131470200Y-120568141D01*
X131477404Y-120495005D01*
X131496944Y-120430586D01*
X131528675Y-120371224D01*
X131571383Y-120319183D01*
X131623424Y-120276475D01*
X131682786Y-120244744D01*
X131747207Y-120225203D01*
X131820341Y-120218000D01*
X132746059Y-120218000D01*
X132819193Y-120225203D01*
X132819193Y-120225203D01*
G37*
G36*
X92967593Y-120225203D02*
X93032014Y-120244744D01*
X93091376Y-120276475D01*
X93143417Y-120319183D01*
X93186125Y-120371224D01*
X93217856Y-120430586D01*
X93237396Y-120495005D01*
X93244600Y-120568141D01*
X93244600Y-121493859D01*
X93237397Y-121566993D01*
X93217856Y-121631413D01*
X93186125Y-121690776D01*
X93143417Y-121742817D01*
X93091376Y-121785525D01*
X93032014Y-121817256D01*
X92967593Y-121836797D01*
X92894459Y-121844000D01*
X91968741Y-121844000D01*
X91895607Y-121836797D01*
X91831186Y-121817256D01*
X91771824Y-121785525D01*
X91719783Y-121742817D01*
X91677075Y-121690776D01*
X91645344Y-121631413D01*
X91625803Y-121566993D01*
X91618600Y-121493859D01*
X91618600Y-120568141D01*
X91625804Y-120495005D01*
X91645344Y-120430586D01*
X91677075Y-120371224D01*
X91719783Y-120319183D01*
X91771824Y-120276475D01*
X91831186Y-120244744D01*
X91895607Y-120225203D01*
X91968741Y-120218000D01*
X92894459Y-120218000D01*
X92967593Y-120225203D01*
X92967593Y-120225203D01*
G37*
G36*
X52809193Y-120225203D02*
X52873614Y-120244744D01*
X52932976Y-120276475D01*
X52985017Y-120319183D01*
X53027725Y-120371224D01*
X53059456Y-120430586D01*
X53078996Y-120495005D01*
X53086200Y-120568141D01*
X53086200Y-121493859D01*
X53078997Y-121566993D01*
X53059456Y-121631413D01*
X53027725Y-121690776D01*
X52985017Y-121742817D01*
X52932976Y-121785525D01*
X52873614Y-121817256D01*
X52809193Y-121836797D01*
X52736059Y-121844000D01*
X51810341Y-121844000D01*
X51737207Y-121836797D01*
X51672786Y-121817256D01*
X51613424Y-121785525D01*
X51561383Y-121742817D01*
X51518675Y-121690776D01*
X51486944Y-121631413D01*
X51467403Y-121566993D01*
X51460200Y-121493859D01*
X51460200Y-120568141D01*
X51467404Y-120495005D01*
X51486944Y-120430586D01*
X51518675Y-120371224D01*
X51561383Y-120319183D01*
X51613424Y-120276475D01*
X51672786Y-120244744D01*
X51737207Y-120225203D01*
X51810341Y-120218000D01*
X52736059Y-120218000D01*
X52809193Y-120225203D01*
X52809193Y-120225203D01*
G37*
G36*
X89459393Y-120199803D02*
X89523814Y-120219344D01*
X89583176Y-120251075D01*
X89635217Y-120293783D01*
X89677925Y-120345824D01*
X89709656Y-120405186D01*
X89729196Y-120469605D01*
X89736400Y-120542741D01*
X89736400Y-121468459D01*
X89729197Y-121541593D01*
X89709656Y-121606013D01*
X89677925Y-121665376D01*
X89635217Y-121717417D01*
X89583176Y-121760125D01*
X89523814Y-121791856D01*
X89459393Y-121811397D01*
X89386259Y-121818600D01*
X88460541Y-121818600D01*
X88387407Y-121811397D01*
X88322986Y-121791856D01*
X88263624Y-121760125D01*
X88211583Y-121717417D01*
X88168875Y-121665376D01*
X88137144Y-121606013D01*
X88117603Y-121541593D01*
X88110400Y-121468459D01*
X88110400Y-120542741D01*
X88117604Y-120469605D01*
X88137144Y-120405186D01*
X88168875Y-120345824D01*
X88211583Y-120293783D01*
X88263624Y-120251075D01*
X88322986Y-120219344D01*
X88387407Y-120199803D01*
X88460541Y-120192600D01*
X89386259Y-120192600D01*
X89459393Y-120199803D01*
X89459393Y-120199803D01*
G37*
G36*
X79580793Y-120199803D02*
X79645214Y-120219344D01*
X79704576Y-120251075D01*
X79756617Y-120293783D01*
X79799325Y-120345824D01*
X79831056Y-120405186D01*
X79850596Y-120469605D01*
X79857800Y-120542741D01*
X79857800Y-121468459D01*
X79850597Y-121541593D01*
X79831056Y-121606013D01*
X79799325Y-121665376D01*
X79756617Y-121717417D01*
X79704576Y-121760125D01*
X79645214Y-121791856D01*
X79580793Y-121811397D01*
X79507659Y-121818600D01*
X78581941Y-121818600D01*
X78508807Y-121811397D01*
X78444386Y-121791856D01*
X78385024Y-121760125D01*
X78332983Y-121717417D01*
X78290275Y-121665376D01*
X78258544Y-121606013D01*
X78239003Y-121541593D01*
X78231800Y-121468459D01*
X78231800Y-120542741D01*
X78239004Y-120469605D01*
X78258544Y-120405186D01*
X78290275Y-120345824D01*
X78332983Y-120293783D01*
X78385024Y-120251075D01*
X78444386Y-120219344D01*
X78508807Y-120199803D01*
X78581941Y-120192600D01*
X79507659Y-120192600D01*
X79580793Y-120199803D01*
X79580793Y-120199803D01*
G37*
G36*
X82880793Y-120199803D02*
X82945214Y-120219344D01*
X83004576Y-120251075D01*
X83056617Y-120293783D01*
X83099325Y-120345824D01*
X83131056Y-120405186D01*
X83150596Y-120469605D01*
X83157800Y-120542741D01*
X83157800Y-121468459D01*
X83150597Y-121541593D01*
X83131056Y-121606013D01*
X83099325Y-121665376D01*
X83056617Y-121717417D01*
X83004576Y-121760125D01*
X82945214Y-121791856D01*
X82880793Y-121811397D01*
X82807659Y-121818600D01*
X81881941Y-121818600D01*
X81808807Y-121811397D01*
X81744386Y-121791856D01*
X81685024Y-121760125D01*
X81632983Y-121717417D01*
X81590275Y-121665376D01*
X81558544Y-121606013D01*
X81539003Y-121541593D01*
X81531800Y-121468459D01*
X81531800Y-120542741D01*
X81539004Y-120469605D01*
X81558544Y-120405186D01*
X81590275Y-120345824D01*
X81632983Y-120293783D01*
X81685024Y-120251075D01*
X81744386Y-120219344D01*
X81808807Y-120199803D01*
X81881941Y-120192600D01*
X82807659Y-120192600D01*
X82880793Y-120199803D01*
X82880793Y-120199803D01*
G37*
G36*
X86159393Y-120199803D02*
X86223814Y-120219344D01*
X86283176Y-120251075D01*
X86335217Y-120293783D01*
X86377925Y-120345824D01*
X86409656Y-120405186D01*
X86429196Y-120469605D01*
X86436400Y-120542741D01*
X86436400Y-121468459D01*
X86429197Y-121541593D01*
X86409656Y-121606013D01*
X86377925Y-121665376D01*
X86335217Y-121717417D01*
X86283176Y-121760125D01*
X86223814Y-121791856D01*
X86159393Y-121811397D01*
X86086259Y-121818600D01*
X85160541Y-121818600D01*
X85087407Y-121811397D01*
X85022986Y-121791856D01*
X84963624Y-121760125D01*
X84911583Y-121717417D01*
X84868875Y-121665376D01*
X84837144Y-121606013D01*
X84817603Y-121541593D01*
X84810400Y-121468459D01*
X84810400Y-120542741D01*
X84817604Y-120469605D01*
X84837144Y-120405186D01*
X84868875Y-120345824D01*
X84911583Y-120293783D01*
X84963624Y-120251075D01*
X85022986Y-120219344D01*
X85087407Y-120199803D01*
X85160541Y-120192600D01*
X86086259Y-120192600D01*
X86159393Y-120199803D01*
X86159393Y-120199803D01*
G37*
G36*
X49479793Y-120174403D02*
X49544214Y-120193944D01*
X49603576Y-120225675D01*
X49655617Y-120268383D01*
X49698325Y-120320424D01*
X49730056Y-120379786D01*
X49749596Y-120444205D01*
X49756800Y-120517341D01*
X49756800Y-121443059D01*
X49749597Y-121516193D01*
X49730056Y-121580613D01*
X49698325Y-121639976D01*
X49655617Y-121692017D01*
X49603576Y-121734725D01*
X49544214Y-121766456D01*
X49479793Y-121785997D01*
X49406659Y-121793200D01*
X48480941Y-121793200D01*
X48407807Y-121785997D01*
X48343386Y-121766456D01*
X48284024Y-121734725D01*
X48231983Y-121692017D01*
X48189275Y-121639976D01*
X48157544Y-121580613D01*
X48138003Y-121516193D01*
X48130800Y-121443059D01*
X48130800Y-120517341D01*
X48138004Y-120444205D01*
X48157544Y-120379786D01*
X48189275Y-120320424D01*
X48231983Y-120268383D01*
X48284024Y-120225675D01*
X48343386Y-120193944D01*
X48407807Y-120174403D01*
X48480941Y-120167200D01*
X49406659Y-120167200D01*
X49479793Y-120174403D01*
X49479793Y-120174403D01*
G37*
G36*
X46179793Y-120174403D02*
X46244214Y-120193944D01*
X46303576Y-120225675D01*
X46355617Y-120268383D01*
X46398325Y-120320424D01*
X46430056Y-120379786D01*
X46449596Y-120444205D01*
X46456800Y-120517341D01*
X46456800Y-121443059D01*
X46449597Y-121516193D01*
X46430056Y-121580613D01*
X46398325Y-121639976D01*
X46355617Y-121692017D01*
X46303576Y-121734725D01*
X46244214Y-121766456D01*
X46179793Y-121785997D01*
X46106659Y-121793200D01*
X45180941Y-121793200D01*
X45107807Y-121785997D01*
X45043386Y-121766456D01*
X44984024Y-121734725D01*
X44931983Y-121692017D01*
X44889275Y-121639976D01*
X44857544Y-121580613D01*
X44838003Y-121516193D01*
X44830800Y-121443059D01*
X44830800Y-120517341D01*
X44838004Y-120444205D01*
X44857544Y-120379786D01*
X44889275Y-120320424D01*
X44931983Y-120268383D01*
X44984024Y-120225675D01*
X45043386Y-120193944D01*
X45107807Y-120174403D01*
X45180941Y-120167200D01*
X46106659Y-120167200D01*
X46179793Y-120174403D01*
X46179793Y-120174403D01*
G37*
G36*
X112778593Y-120123603D02*
X112843014Y-120143144D01*
X112902376Y-120174875D01*
X112954417Y-120217583D01*
X112997125Y-120269624D01*
X113028856Y-120328986D01*
X113048396Y-120393405D01*
X113055600Y-120466541D01*
X113055600Y-121392259D01*
X113048397Y-121465393D01*
X113028856Y-121529813D01*
X112997125Y-121589176D01*
X112954417Y-121641217D01*
X112902376Y-121683925D01*
X112843014Y-121715656D01*
X112778593Y-121735197D01*
X112705459Y-121742400D01*
X111779741Y-121742400D01*
X111706607Y-121735197D01*
X111642186Y-121715656D01*
X111582824Y-121683925D01*
X111530783Y-121641217D01*
X111488075Y-121589176D01*
X111456344Y-121529813D01*
X111436803Y-121465393D01*
X111429600Y-121392259D01*
X111429600Y-120466541D01*
X111436804Y-120393405D01*
X111456344Y-120328986D01*
X111488075Y-120269624D01*
X111530783Y-120217583D01*
X111582824Y-120174875D01*
X111642186Y-120143144D01*
X111706607Y-120123603D01*
X111779741Y-120116400D01*
X112705459Y-120116400D01*
X112778593Y-120123603D01*
X112778593Y-120123603D01*
G37*
G36*
X116078593Y-120123603D02*
X116143014Y-120143144D01*
X116202376Y-120174875D01*
X116254417Y-120217583D01*
X116297125Y-120269624D01*
X116328856Y-120328986D01*
X116348396Y-120393405D01*
X116355600Y-120466541D01*
X116355600Y-121392259D01*
X116348397Y-121465393D01*
X116328856Y-121529813D01*
X116297125Y-121589176D01*
X116254417Y-121641217D01*
X116202376Y-121683925D01*
X116143014Y-121715656D01*
X116078593Y-121735197D01*
X116005459Y-121742400D01*
X115079741Y-121742400D01*
X115006607Y-121735197D01*
X114942186Y-121715656D01*
X114882824Y-121683925D01*
X114830783Y-121641217D01*
X114788075Y-121589176D01*
X114756344Y-121529813D01*
X114736803Y-121465393D01*
X114729600Y-121392259D01*
X114729600Y-120466541D01*
X114736804Y-120393405D01*
X114756344Y-120328986D01*
X114788075Y-120269624D01*
X114830783Y-120217583D01*
X114882824Y-120174875D01*
X114942186Y-120143144D01*
X115006607Y-120123603D01*
X115079741Y-120116400D01*
X116005459Y-120116400D01*
X116078593Y-120123603D01*
X116078593Y-120123603D01*
G37*
G36*
X102768993Y-115221403D02*
X102833414Y-115240944D01*
X102892776Y-115272675D01*
X102944817Y-115315383D01*
X102987525Y-115367424D01*
X103019256Y-115426786D01*
X103038797Y-115491207D01*
X103046000Y-115564341D01*
X103046000Y-116490059D01*
X103038797Y-116563193D01*
X103019256Y-116627614D01*
X102987525Y-116686976D01*
X102944817Y-116739017D01*
X102892776Y-116781725D01*
X102833414Y-116813456D01*
X102768993Y-116832997D01*
X102695859Y-116840200D01*
X101770141Y-116840200D01*
X101697007Y-116832997D01*
X101632586Y-116813456D01*
X101573224Y-116781725D01*
X101521183Y-116739017D01*
X101478475Y-116686976D01*
X101446744Y-116627614D01*
X101427203Y-116563193D01*
X101420000Y-116490059D01*
X101420000Y-115564341D01*
X101427203Y-115491207D01*
X101446744Y-115426786D01*
X101478475Y-115367424D01*
X101521183Y-115315383D01*
X101573224Y-115272675D01*
X101632586Y-115240944D01*
X101697007Y-115221403D01*
X101770141Y-115214200D01*
X102695859Y-115214200D01*
X102768993Y-115221403D01*
X102768993Y-115221403D01*
G37*
G36*
X52834593Y-115221403D02*
X52899014Y-115240944D01*
X52958376Y-115272675D01*
X53010417Y-115315383D01*
X53053125Y-115367424D01*
X53084856Y-115426786D01*
X53104397Y-115491207D01*
X53111600Y-115564341D01*
X53111600Y-116490059D01*
X53104397Y-116563193D01*
X53084856Y-116627614D01*
X53053125Y-116686976D01*
X53010417Y-116739017D01*
X52958376Y-116781725D01*
X52899014Y-116813456D01*
X52834593Y-116832997D01*
X52761459Y-116840200D01*
X51835741Y-116840200D01*
X51762607Y-116832997D01*
X51698186Y-116813456D01*
X51638824Y-116781725D01*
X51586783Y-116739017D01*
X51544075Y-116686976D01*
X51512344Y-116627614D01*
X51492803Y-116563193D01*
X51485600Y-116490059D01*
X51485600Y-115564341D01*
X51492803Y-115491207D01*
X51512344Y-115426786D01*
X51544075Y-115367424D01*
X51586783Y-115315383D01*
X51638824Y-115272675D01*
X51698186Y-115240944D01*
X51762607Y-115221403D01*
X51835741Y-115214200D01*
X52761459Y-115214200D01*
X52834593Y-115221403D01*
X52834593Y-115221403D01*
G37*
G36*
X56134593Y-115221403D02*
X56199014Y-115240944D01*
X56258376Y-115272675D01*
X56310417Y-115315383D01*
X56353125Y-115367424D01*
X56384856Y-115426786D01*
X56404397Y-115491207D01*
X56411600Y-115564341D01*
X56411600Y-116490059D01*
X56404397Y-116563193D01*
X56384856Y-116627614D01*
X56353125Y-116686976D01*
X56310417Y-116739017D01*
X56258376Y-116781725D01*
X56199014Y-116813456D01*
X56134593Y-116832997D01*
X56061459Y-116840200D01*
X55135741Y-116840200D01*
X55062607Y-116832997D01*
X54998186Y-116813456D01*
X54938824Y-116781725D01*
X54886783Y-116739017D01*
X54844075Y-116686976D01*
X54812344Y-116627614D01*
X54792803Y-116563193D01*
X54785600Y-116490059D01*
X54785600Y-115564341D01*
X54792803Y-115491207D01*
X54812344Y-115426786D01*
X54844075Y-115367424D01*
X54886783Y-115315383D01*
X54938824Y-115272675D01*
X54998186Y-115240944D01*
X55062607Y-115221403D01*
X55135741Y-115214200D01*
X56061459Y-115214200D01*
X56134593Y-115221403D01*
X56134593Y-115221403D01*
G37*
G36*
X99468993Y-115221403D02*
X99533414Y-115240944D01*
X99592776Y-115272675D01*
X99644817Y-115315383D01*
X99687525Y-115367424D01*
X99719256Y-115426786D01*
X99738797Y-115491207D01*
X99746000Y-115564341D01*
X99746000Y-116490059D01*
X99738797Y-116563193D01*
X99719256Y-116627614D01*
X99687525Y-116686976D01*
X99644817Y-116739017D01*
X99592776Y-116781725D01*
X99533414Y-116813456D01*
X99468993Y-116832997D01*
X99395859Y-116840200D01*
X98470141Y-116840200D01*
X98397007Y-116832997D01*
X98332586Y-116813456D01*
X98273224Y-116781725D01*
X98221183Y-116739017D01*
X98178475Y-116686976D01*
X98146744Y-116627614D01*
X98127203Y-116563193D01*
X98120000Y-116490059D01*
X98120000Y-115564341D01*
X98127203Y-115491207D01*
X98146744Y-115426786D01*
X98178475Y-115367424D01*
X98221183Y-115315383D01*
X98273224Y-115272675D01*
X98332586Y-115240944D01*
X98397007Y-115221403D01*
X98470141Y-115214200D01*
X99395859Y-115214200D01*
X99468993Y-115221403D01*
X99468993Y-115221403D01*
G37*
G36*
X119585793Y-115221403D02*
X119650214Y-115240944D01*
X119709576Y-115272675D01*
X119761617Y-115315383D01*
X119804325Y-115367424D01*
X119836056Y-115426786D01*
X119855597Y-115491207D01*
X119862800Y-115564341D01*
X119862800Y-116490059D01*
X119855597Y-116563193D01*
X119836056Y-116627614D01*
X119804325Y-116686976D01*
X119761617Y-116739017D01*
X119709576Y-116781725D01*
X119650214Y-116813456D01*
X119585793Y-116832997D01*
X119512659Y-116840200D01*
X118586941Y-116840200D01*
X118513807Y-116832997D01*
X118449386Y-116813456D01*
X118390024Y-116781725D01*
X118337983Y-116739017D01*
X118295275Y-116686976D01*
X118263544Y-116627614D01*
X118244003Y-116563193D01*
X118236800Y-116490059D01*
X118236800Y-115564341D01*
X118244003Y-115491207D01*
X118263544Y-115426786D01*
X118295275Y-115367424D01*
X118337983Y-115315383D01*
X118390024Y-115272675D01*
X118449386Y-115240944D01*
X118513807Y-115221403D01*
X118586941Y-115214200D01*
X119512659Y-115214200D01*
X119585793Y-115221403D01*
X119585793Y-115221403D01*
G37*
G36*
X122885793Y-115221403D02*
X122950214Y-115240944D01*
X123009576Y-115272675D01*
X123061617Y-115315383D01*
X123104325Y-115367424D01*
X123136056Y-115426786D01*
X123155597Y-115491207D01*
X123162800Y-115564341D01*
X123162800Y-116490059D01*
X123155597Y-116563193D01*
X123136056Y-116627614D01*
X123104325Y-116686976D01*
X123061617Y-116739017D01*
X123009576Y-116781725D01*
X122950214Y-116813456D01*
X122885793Y-116832997D01*
X122812659Y-116840200D01*
X121886941Y-116840200D01*
X121813807Y-116832997D01*
X121749386Y-116813456D01*
X121690024Y-116781725D01*
X121637983Y-116739017D01*
X121595275Y-116686976D01*
X121563544Y-116627614D01*
X121544003Y-116563193D01*
X121536800Y-116490059D01*
X121536800Y-115564341D01*
X121544003Y-115491207D01*
X121563544Y-115426786D01*
X121595275Y-115367424D01*
X121637983Y-115315383D01*
X121690024Y-115272675D01*
X121749386Y-115240944D01*
X121813807Y-115221403D01*
X121886941Y-115214200D01*
X122812659Y-115214200D01*
X122885793Y-115221403D01*
X122885793Y-115221403D01*
G37*
G36*
X86184793Y-115196003D02*
X86249214Y-115215544D01*
X86308576Y-115247275D01*
X86360617Y-115289983D01*
X86403325Y-115342024D01*
X86435056Y-115401386D01*
X86454597Y-115465807D01*
X86461800Y-115538941D01*
X86461800Y-116464659D01*
X86454597Y-116537793D01*
X86435056Y-116602214D01*
X86403325Y-116661576D01*
X86360617Y-116713617D01*
X86308576Y-116756325D01*
X86249214Y-116788056D01*
X86184793Y-116807597D01*
X86111659Y-116814800D01*
X85185941Y-116814800D01*
X85112807Y-116807597D01*
X85048386Y-116788056D01*
X84989024Y-116756325D01*
X84936983Y-116713617D01*
X84894275Y-116661576D01*
X84862544Y-116602214D01*
X84843003Y-116537793D01*
X84835800Y-116464659D01*
X84835800Y-115538941D01*
X84843003Y-115465807D01*
X84862544Y-115401386D01*
X84894275Y-115342024D01*
X84936983Y-115289983D01*
X84989024Y-115247275D01*
X85048386Y-115215544D01*
X85112807Y-115196003D01*
X85185941Y-115188800D01*
X86111659Y-115188800D01*
X86184793Y-115196003D01*
X86184793Y-115196003D01*
G37*
G36*
X89484793Y-115196003D02*
X89549214Y-115215544D01*
X89608576Y-115247275D01*
X89660617Y-115289983D01*
X89703325Y-115342024D01*
X89735056Y-115401386D01*
X89754597Y-115465807D01*
X89761800Y-115538941D01*
X89761800Y-116464659D01*
X89754597Y-116537793D01*
X89735056Y-116602214D01*
X89703325Y-116661576D01*
X89660617Y-116713617D01*
X89608576Y-116756325D01*
X89549214Y-116788056D01*
X89484793Y-116807597D01*
X89411659Y-116814800D01*
X88485941Y-116814800D01*
X88412807Y-116807597D01*
X88348386Y-116788056D01*
X88289024Y-116756325D01*
X88236983Y-116713617D01*
X88194275Y-116661576D01*
X88162544Y-116602214D01*
X88143003Y-116537793D01*
X88135800Y-116464659D01*
X88135800Y-115538941D01*
X88143003Y-115465807D01*
X88162544Y-115401386D01*
X88194275Y-115342024D01*
X88236983Y-115289983D01*
X88289024Y-115247275D01*
X88348386Y-115215544D01*
X88412807Y-115196003D01*
X88485941Y-115188800D01*
X89411659Y-115188800D01*
X89484793Y-115196003D01*
X89484793Y-115196003D01*
G37*
G36*
X59491393Y-115196003D02*
X59555814Y-115215544D01*
X59615176Y-115247275D01*
X59667217Y-115289983D01*
X59709925Y-115342024D01*
X59741656Y-115401386D01*
X59761197Y-115465807D01*
X59768400Y-115538941D01*
X59768400Y-116464659D01*
X59761197Y-116537793D01*
X59741656Y-116602214D01*
X59709925Y-116661576D01*
X59667217Y-116713617D01*
X59615176Y-116756325D01*
X59555814Y-116788056D01*
X59491393Y-116807597D01*
X59418259Y-116814800D01*
X58492541Y-116814800D01*
X58419407Y-116807597D01*
X58354986Y-116788056D01*
X58295624Y-116756325D01*
X58243583Y-116713617D01*
X58200875Y-116661576D01*
X58169144Y-116602214D01*
X58149603Y-116537793D01*
X58142400Y-116464659D01*
X58142400Y-115538941D01*
X58149603Y-115465807D01*
X58169144Y-115401386D01*
X58200875Y-115342024D01*
X58243583Y-115289983D01*
X58295624Y-115247275D01*
X58354986Y-115215544D01*
X58419407Y-115196003D01*
X58492541Y-115188800D01*
X59418259Y-115188800D01*
X59491393Y-115196003D01*
X59491393Y-115196003D01*
G37*
G36*
X62791393Y-115196003D02*
X62855814Y-115215544D01*
X62915176Y-115247275D01*
X62967217Y-115289983D01*
X63009925Y-115342024D01*
X63041656Y-115401386D01*
X63061197Y-115465807D01*
X63068400Y-115538941D01*
X63068400Y-116464659D01*
X63061197Y-116537793D01*
X63041656Y-116602214D01*
X63009925Y-116661576D01*
X62967217Y-116713617D01*
X62915176Y-116756325D01*
X62855814Y-116788056D01*
X62791393Y-116807597D01*
X62718259Y-116814800D01*
X61792541Y-116814800D01*
X61719407Y-116807597D01*
X61654986Y-116788056D01*
X61595624Y-116756325D01*
X61543583Y-116713617D01*
X61500875Y-116661576D01*
X61469144Y-116602214D01*
X61449603Y-116537793D01*
X61442400Y-116464659D01*
X61442400Y-115538941D01*
X61449603Y-115465807D01*
X61469144Y-115401386D01*
X61500875Y-115342024D01*
X61543583Y-115289983D01*
X61595624Y-115247275D01*
X61654986Y-115215544D01*
X61719407Y-115196003D01*
X61792541Y-115188800D01*
X62718259Y-115188800D01*
X62791393Y-115196003D01*
X62791393Y-115196003D01*
G37*
G36*
X39526993Y-115170603D02*
X39591414Y-115190144D01*
X39650776Y-115221875D01*
X39702817Y-115264583D01*
X39745525Y-115316624D01*
X39777256Y-115375986D01*
X39796797Y-115440407D01*
X39804000Y-115513541D01*
X39804000Y-116439259D01*
X39796797Y-116512393D01*
X39777256Y-116576814D01*
X39745525Y-116636176D01*
X39702817Y-116688217D01*
X39650776Y-116730925D01*
X39591414Y-116762656D01*
X39526993Y-116782197D01*
X39453859Y-116789400D01*
X38528141Y-116789400D01*
X38455007Y-116782197D01*
X38390586Y-116762656D01*
X38331224Y-116730925D01*
X38279183Y-116688217D01*
X38236475Y-116636176D01*
X38204744Y-116576814D01*
X38185203Y-116512393D01*
X38178000Y-116439259D01*
X38178000Y-115513541D01*
X38185203Y-115440407D01*
X38204744Y-115375986D01*
X38236475Y-115316624D01*
X38279183Y-115264583D01*
X38331224Y-115221875D01*
X38390586Y-115190144D01*
X38455007Y-115170603D01*
X38528141Y-115163400D01*
X39453859Y-115163400D01*
X39526993Y-115170603D01*
X39526993Y-115170603D01*
G37*
G36*
X42826993Y-115170603D02*
X42891414Y-115190144D01*
X42950776Y-115221875D01*
X43002817Y-115264583D01*
X43045525Y-115316624D01*
X43077256Y-115375986D01*
X43096797Y-115440407D01*
X43104000Y-115513541D01*
X43104000Y-116439259D01*
X43096797Y-116512393D01*
X43077256Y-116576814D01*
X43045525Y-116636176D01*
X43002817Y-116688217D01*
X42950776Y-116730925D01*
X42891414Y-116762656D01*
X42826993Y-116782197D01*
X42753859Y-116789400D01*
X41828141Y-116789400D01*
X41755007Y-116782197D01*
X41690586Y-116762656D01*
X41631224Y-116730925D01*
X41579183Y-116688217D01*
X41536475Y-116636176D01*
X41504744Y-116576814D01*
X41485203Y-116512393D01*
X41478000Y-116439259D01*
X41478000Y-115513541D01*
X41485203Y-115440407D01*
X41504744Y-115375986D01*
X41536475Y-115316624D01*
X41579183Y-115264583D01*
X41631224Y-115221875D01*
X41690586Y-115190144D01*
X41755007Y-115170603D01*
X41828141Y-115163400D01*
X42753859Y-115163400D01*
X42826993Y-115170603D01*
X42826993Y-115170603D01*
G37*
G36*
X106123793Y-115170603D02*
X106188214Y-115190144D01*
X106247576Y-115221875D01*
X106299617Y-115264583D01*
X106342325Y-115316624D01*
X106374056Y-115375986D01*
X106393597Y-115440407D01*
X106400800Y-115513541D01*
X106400800Y-116439259D01*
X106393597Y-116512393D01*
X106374056Y-116576814D01*
X106342325Y-116636176D01*
X106299617Y-116688217D01*
X106247576Y-116730925D01*
X106188214Y-116762656D01*
X106123793Y-116782197D01*
X106050659Y-116789400D01*
X105124941Y-116789400D01*
X105051807Y-116782197D01*
X104987386Y-116762656D01*
X104928024Y-116730925D01*
X104875983Y-116688217D01*
X104833275Y-116636176D01*
X104801544Y-116576814D01*
X104782003Y-116512393D01*
X104774800Y-116439259D01*
X104774800Y-115513541D01*
X104782003Y-115440407D01*
X104801544Y-115375986D01*
X104833275Y-115316624D01*
X104875983Y-115264583D01*
X104928024Y-115221875D01*
X104987386Y-115190144D01*
X105051807Y-115170603D01*
X105124941Y-115163400D01*
X106050659Y-115163400D01*
X106123793Y-115170603D01*
X106123793Y-115170603D01*
G37*
G36*
X112829393Y-115170603D02*
X112893814Y-115190144D01*
X112953176Y-115221875D01*
X113005217Y-115264583D01*
X113047925Y-115316624D01*
X113079656Y-115375986D01*
X113099197Y-115440407D01*
X113106400Y-115513541D01*
X113106400Y-116439259D01*
X113099197Y-116512393D01*
X113079656Y-116576814D01*
X113047925Y-116636176D01*
X113005217Y-116688217D01*
X112953176Y-116730925D01*
X112893814Y-116762656D01*
X112829393Y-116782197D01*
X112756259Y-116789400D01*
X111830541Y-116789400D01*
X111757407Y-116782197D01*
X111692986Y-116762656D01*
X111633624Y-116730925D01*
X111581583Y-116688217D01*
X111538875Y-116636176D01*
X111507144Y-116576814D01*
X111487603Y-116512393D01*
X111480400Y-116439259D01*
X111480400Y-115513541D01*
X111487603Y-115440407D01*
X111507144Y-115375986D01*
X111538875Y-115316624D01*
X111581583Y-115264583D01*
X111633624Y-115221875D01*
X111692986Y-115190144D01*
X111757407Y-115170603D01*
X111830541Y-115163400D01*
X112756259Y-115163400D01*
X112829393Y-115170603D01*
X112829393Y-115170603D01*
G37*
G36*
X72824393Y-115170603D02*
X72888814Y-115190144D01*
X72948176Y-115221875D01*
X73000217Y-115264583D01*
X73042925Y-115316624D01*
X73074656Y-115375986D01*
X73094197Y-115440407D01*
X73101400Y-115513541D01*
X73101400Y-116439259D01*
X73094197Y-116512393D01*
X73074656Y-116576814D01*
X73042925Y-116636176D01*
X73000217Y-116688217D01*
X72948176Y-116730925D01*
X72888814Y-116762656D01*
X72824393Y-116782197D01*
X72751259Y-116789400D01*
X71825541Y-116789400D01*
X71752407Y-116782197D01*
X71687986Y-116762656D01*
X71628624Y-116730925D01*
X71576583Y-116688217D01*
X71533875Y-116636176D01*
X71502144Y-116576814D01*
X71482603Y-116512393D01*
X71475400Y-116439259D01*
X71475400Y-115513541D01*
X71482603Y-115440407D01*
X71502144Y-115375986D01*
X71533875Y-115316624D01*
X71576583Y-115264583D01*
X71628624Y-115221875D01*
X71687986Y-115190144D01*
X71752407Y-115170603D01*
X71825541Y-115163400D01*
X72751259Y-115163400D01*
X72824393Y-115170603D01*
X72824393Y-115170603D01*
G37*
G36*
X109423793Y-115170603D02*
X109488214Y-115190144D01*
X109547576Y-115221875D01*
X109599617Y-115264583D01*
X109642325Y-115316624D01*
X109674056Y-115375986D01*
X109693597Y-115440407D01*
X109700800Y-115513541D01*
X109700800Y-116439259D01*
X109693597Y-116512393D01*
X109674056Y-116576814D01*
X109642325Y-116636176D01*
X109599617Y-116688217D01*
X109547576Y-116730925D01*
X109488214Y-116762656D01*
X109423793Y-116782197D01*
X109350659Y-116789400D01*
X108424941Y-116789400D01*
X108351807Y-116782197D01*
X108287386Y-116762656D01*
X108228024Y-116730925D01*
X108175983Y-116688217D01*
X108133275Y-116636176D01*
X108101544Y-116576814D01*
X108082003Y-116512393D01*
X108074800Y-116439259D01*
X108074800Y-115513541D01*
X108082003Y-115440407D01*
X108101544Y-115375986D01*
X108133275Y-115316624D01*
X108175983Y-115264583D01*
X108228024Y-115221875D01*
X108287386Y-115190144D01*
X108351807Y-115170603D01*
X108424941Y-115163400D01*
X109350659Y-115163400D01*
X109423793Y-115170603D01*
X109423793Y-115170603D01*
G37*
G36*
X76124393Y-115170603D02*
X76188814Y-115190144D01*
X76248176Y-115221875D01*
X76300217Y-115264583D01*
X76342925Y-115316624D01*
X76374656Y-115375986D01*
X76394197Y-115440407D01*
X76401400Y-115513541D01*
X76401400Y-116439259D01*
X76394197Y-116512393D01*
X76374656Y-116576814D01*
X76342925Y-116636176D01*
X76300217Y-116688217D01*
X76248176Y-116730925D01*
X76188814Y-116762656D01*
X76124393Y-116782197D01*
X76051259Y-116789400D01*
X75125541Y-116789400D01*
X75052407Y-116782197D01*
X74987986Y-116762656D01*
X74928624Y-116730925D01*
X74876583Y-116688217D01*
X74833875Y-116636176D01*
X74802144Y-116576814D01*
X74782603Y-116512393D01*
X74775400Y-116439259D01*
X74775400Y-115513541D01*
X74782603Y-115440407D01*
X74802144Y-115375986D01*
X74833875Y-115316624D01*
X74876583Y-115264583D01*
X74928624Y-115221875D01*
X74987986Y-115190144D01*
X75052407Y-115170603D01*
X75125541Y-115163400D01*
X76051259Y-115163400D01*
X76124393Y-115170603D01*
X76124393Y-115170603D01*
G37*
G36*
X79504593Y-115170603D02*
X79569014Y-115190144D01*
X79628376Y-115221875D01*
X79680417Y-115264583D01*
X79723125Y-115316624D01*
X79754856Y-115375986D01*
X79774397Y-115440407D01*
X79781600Y-115513541D01*
X79781600Y-116439259D01*
X79774397Y-116512393D01*
X79754856Y-116576814D01*
X79723125Y-116636176D01*
X79680417Y-116688217D01*
X79628376Y-116730925D01*
X79569014Y-116762656D01*
X79504593Y-116782197D01*
X79431459Y-116789400D01*
X78505741Y-116789400D01*
X78432607Y-116782197D01*
X78368186Y-116762656D01*
X78308824Y-116730925D01*
X78256783Y-116688217D01*
X78214075Y-116636176D01*
X78182344Y-116576814D01*
X78162803Y-116512393D01*
X78155600Y-116439259D01*
X78155600Y-115513541D01*
X78162803Y-115440407D01*
X78182344Y-115375986D01*
X78214075Y-115316624D01*
X78256783Y-115264583D01*
X78308824Y-115221875D01*
X78368186Y-115190144D01*
X78432607Y-115170603D01*
X78505741Y-115163400D01*
X79431459Y-115163400D01*
X79504593Y-115170603D01*
X79504593Y-115170603D01*
G37*
G36*
X82804593Y-115170603D02*
X82869014Y-115190144D01*
X82928376Y-115221875D01*
X82980417Y-115264583D01*
X83023125Y-115316624D01*
X83054856Y-115375986D01*
X83074397Y-115440407D01*
X83081600Y-115513541D01*
X83081600Y-116439259D01*
X83074397Y-116512393D01*
X83054856Y-116576814D01*
X83023125Y-116636176D01*
X82980417Y-116688217D01*
X82928376Y-116730925D01*
X82869014Y-116762656D01*
X82804593Y-116782197D01*
X82731459Y-116789400D01*
X81805741Y-116789400D01*
X81732607Y-116782197D01*
X81668186Y-116762656D01*
X81608824Y-116730925D01*
X81556783Y-116688217D01*
X81514075Y-116636176D01*
X81482344Y-116576814D01*
X81462803Y-116512393D01*
X81455600Y-116439259D01*
X81455600Y-115513541D01*
X81462803Y-115440407D01*
X81482344Y-115375986D01*
X81514075Y-115316624D01*
X81556783Y-115264583D01*
X81608824Y-115221875D01*
X81668186Y-115190144D01*
X81732607Y-115170603D01*
X81805741Y-115163400D01*
X82731459Y-115163400D01*
X82804593Y-115170603D01*
X82804593Y-115170603D01*
G37*
G36*
X116129393Y-115170603D02*
X116193814Y-115190144D01*
X116253176Y-115221875D01*
X116305217Y-115264583D01*
X116347925Y-115316624D01*
X116379656Y-115375986D01*
X116399197Y-115440407D01*
X116406400Y-115513541D01*
X116406400Y-116439259D01*
X116399197Y-116512393D01*
X116379656Y-116576814D01*
X116347925Y-116636176D01*
X116305217Y-116688217D01*
X116253176Y-116730925D01*
X116193814Y-116762656D01*
X116129393Y-116782197D01*
X116056259Y-116789400D01*
X115130541Y-116789400D01*
X115057407Y-116782197D01*
X114992986Y-116762656D01*
X114933624Y-116730925D01*
X114881583Y-116688217D01*
X114838875Y-116636176D01*
X114807144Y-116576814D01*
X114787603Y-116512393D01*
X114780400Y-116439259D01*
X114780400Y-115513541D01*
X114787603Y-115440407D01*
X114807144Y-115375986D01*
X114838875Y-115316624D01*
X114881583Y-115264583D01*
X114933624Y-115221875D01*
X114992986Y-115190144D01*
X115057407Y-115170603D01*
X115130541Y-115163400D01*
X116056259Y-115163400D01*
X116129393Y-115170603D01*
X116129393Y-115170603D01*
G37*
G36*
X129438993Y-115145203D02*
X129503414Y-115164744D01*
X129562776Y-115196475D01*
X129614817Y-115239183D01*
X129657525Y-115291224D01*
X129689256Y-115350586D01*
X129708796Y-115415005D01*
X129716000Y-115488141D01*
X129716000Y-116413859D01*
X129708797Y-116486993D01*
X129689256Y-116551413D01*
X129657525Y-116610776D01*
X129614817Y-116662817D01*
X129562776Y-116705525D01*
X129503414Y-116737256D01*
X129438993Y-116756797D01*
X129365859Y-116764000D01*
X128440141Y-116764000D01*
X128367007Y-116756797D01*
X128302586Y-116737256D01*
X128243224Y-116705525D01*
X128191183Y-116662817D01*
X128148475Y-116610776D01*
X128116744Y-116551413D01*
X128097203Y-116486993D01*
X128090000Y-116413859D01*
X128090000Y-115488141D01*
X128097204Y-115415005D01*
X128116744Y-115350586D01*
X128148475Y-115291224D01*
X128191183Y-115239183D01*
X128243224Y-115196475D01*
X128302586Y-115164744D01*
X128367007Y-115145203D01*
X128440141Y-115138000D01*
X129365859Y-115138000D01*
X129438993Y-115145203D01*
X129438993Y-115145203D01*
G37*
G36*
X136119193Y-115145203D02*
X136183614Y-115164744D01*
X136242976Y-115196475D01*
X136295017Y-115239183D01*
X136337725Y-115291224D01*
X136369456Y-115350586D01*
X136388996Y-115415005D01*
X136396200Y-115488141D01*
X136396200Y-116413859D01*
X136388997Y-116486993D01*
X136369456Y-116551413D01*
X136337725Y-116610776D01*
X136295017Y-116662817D01*
X136242976Y-116705525D01*
X136183614Y-116737256D01*
X136119193Y-116756797D01*
X136046059Y-116764000D01*
X135120341Y-116764000D01*
X135047207Y-116756797D01*
X134982786Y-116737256D01*
X134923424Y-116705525D01*
X134871383Y-116662817D01*
X134828675Y-116610776D01*
X134796944Y-116551413D01*
X134777403Y-116486993D01*
X134770200Y-116413859D01*
X134770200Y-115488141D01*
X134777404Y-115415005D01*
X134796944Y-115350586D01*
X134828675Y-115291224D01*
X134871383Y-115239183D01*
X134923424Y-115196475D01*
X134982786Y-115164744D01*
X135047207Y-115145203D01*
X135120341Y-115138000D01*
X136046059Y-115138000D01*
X136119193Y-115145203D01*
X136119193Y-115145203D01*
G37*
G36*
X69444193Y-115145203D02*
X69508614Y-115164744D01*
X69567976Y-115196475D01*
X69620017Y-115239183D01*
X69662725Y-115291224D01*
X69694456Y-115350586D01*
X69713996Y-115415005D01*
X69721200Y-115488141D01*
X69721200Y-116413859D01*
X69713997Y-116486993D01*
X69694456Y-116551413D01*
X69662725Y-116610776D01*
X69620017Y-116662817D01*
X69567976Y-116705525D01*
X69508614Y-116737256D01*
X69444193Y-116756797D01*
X69371059Y-116764000D01*
X68445341Y-116764000D01*
X68372207Y-116756797D01*
X68307786Y-116737256D01*
X68248424Y-116705525D01*
X68196383Y-116662817D01*
X68153675Y-116610776D01*
X68121944Y-116551413D01*
X68102403Y-116486993D01*
X68095200Y-116413859D01*
X68095200Y-115488141D01*
X68102404Y-115415005D01*
X68121944Y-115350586D01*
X68153675Y-115291224D01*
X68196383Y-115239183D01*
X68248424Y-115196475D01*
X68307786Y-115164744D01*
X68372207Y-115145203D01*
X68445341Y-115138000D01*
X69371059Y-115138000D01*
X69444193Y-115145203D01*
X69444193Y-115145203D01*
G37*
G36*
X66144193Y-115145203D02*
X66208614Y-115164744D01*
X66267976Y-115196475D01*
X66320017Y-115239183D01*
X66362725Y-115291224D01*
X66394456Y-115350586D01*
X66413996Y-115415005D01*
X66421200Y-115488141D01*
X66421200Y-116413859D01*
X66413997Y-116486993D01*
X66394456Y-116551413D01*
X66362725Y-116610776D01*
X66320017Y-116662817D01*
X66267976Y-116705525D01*
X66208614Y-116737256D01*
X66144193Y-116756797D01*
X66071059Y-116764000D01*
X65145341Y-116764000D01*
X65072207Y-116756797D01*
X65007786Y-116737256D01*
X64948424Y-116705525D01*
X64896383Y-116662817D01*
X64853675Y-116610776D01*
X64821944Y-116551413D01*
X64802403Y-116486993D01*
X64795200Y-116413859D01*
X64795200Y-115488141D01*
X64802404Y-115415005D01*
X64821944Y-115350586D01*
X64853675Y-115291224D01*
X64896383Y-115239183D01*
X64948424Y-115196475D01*
X65007786Y-115164744D01*
X65072207Y-115145203D01*
X65145341Y-115138000D01*
X66071059Y-115138000D01*
X66144193Y-115145203D01*
X66144193Y-115145203D01*
G37*
G36*
X132819193Y-115145203D02*
X132883614Y-115164744D01*
X132942976Y-115196475D01*
X132995017Y-115239183D01*
X133037725Y-115291224D01*
X133069456Y-115350586D01*
X133088996Y-115415005D01*
X133096200Y-115488141D01*
X133096200Y-116413859D01*
X133088997Y-116486993D01*
X133069456Y-116551413D01*
X133037725Y-116610776D01*
X132995017Y-116662817D01*
X132942976Y-116705525D01*
X132883614Y-116737256D01*
X132819193Y-116756797D01*
X132746059Y-116764000D01*
X131820341Y-116764000D01*
X131747207Y-116756797D01*
X131682786Y-116737256D01*
X131623424Y-116705525D01*
X131571383Y-116662817D01*
X131528675Y-116610776D01*
X131496944Y-116551413D01*
X131477403Y-116486993D01*
X131470200Y-116413859D01*
X131470200Y-115488141D01*
X131477404Y-115415005D01*
X131496944Y-115350586D01*
X131528675Y-115291224D01*
X131571383Y-115239183D01*
X131623424Y-115196475D01*
X131682786Y-115164744D01*
X131747207Y-115145203D01*
X131820341Y-115138000D01*
X132746059Y-115138000D01*
X132819193Y-115145203D01*
X132819193Y-115145203D01*
G37*
G36*
X126138993Y-115145203D02*
X126203414Y-115164744D01*
X126262776Y-115196475D01*
X126314817Y-115239183D01*
X126357525Y-115291224D01*
X126389256Y-115350586D01*
X126408796Y-115415005D01*
X126416000Y-115488141D01*
X126416000Y-116413859D01*
X126408797Y-116486993D01*
X126389256Y-116551413D01*
X126357525Y-116610776D01*
X126314817Y-116662817D01*
X126262776Y-116705525D01*
X126203414Y-116737256D01*
X126138993Y-116756797D01*
X126065859Y-116764000D01*
X125140141Y-116764000D01*
X125067007Y-116756797D01*
X125002586Y-116737256D01*
X124943224Y-116705525D01*
X124891183Y-116662817D01*
X124848475Y-116610776D01*
X124816744Y-116551413D01*
X124797203Y-116486993D01*
X124790000Y-116413859D01*
X124790000Y-115488141D01*
X124797204Y-115415005D01*
X124816744Y-115350586D01*
X124848475Y-115291224D01*
X124891183Y-115239183D01*
X124943224Y-115196475D01*
X125002586Y-115164744D01*
X125067007Y-115145203D01*
X125140141Y-115138000D01*
X126065859Y-115138000D01*
X126138993Y-115145203D01*
X126138993Y-115145203D01*
G37*
G36*
X92864993Y-115119803D02*
X92929414Y-115139344D01*
X92988776Y-115171075D01*
X93040817Y-115213783D01*
X93083525Y-115265824D01*
X93115256Y-115325186D01*
X93134796Y-115389605D01*
X93142000Y-115462741D01*
X93142000Y-116388459D01*
X93134797Y-116461593D01*
X93115256Y-116526013D01*
X93083525Y-116585376D01*
X93040817Y-116637417D01*
X92988776Y-116680125D01*
X92929414Y-116711856D01*
X92864993Y-116731397D01*
X92791859Y-116738600D01*
X91866141Y-116738600D01*
X91793007Y-116731397D01*
X91728586Y-116711856D01*
X91669224Y-116680125D01*
X91617183Y-116637417D01*
X91574475Y-116585376D01*
X91542744Y-116526013D01*
X91523203Y-116461593D01*
X91516000Y-116388459D01*
X91516000Y-115462741D01*
X91523204Y-115389605D01*
X91542744Y-115325186D01*
X91574475Y-115265824D01*
X91617183Y-115213783D01*
X91669224Y-115171075D01*
X91728586Y-115139344D01*
X91793007Y-115119803D01*
X91866141Y-115112600D01*
X92791859Y-115112600D01*
X92864993Y-115119803D01*
X92864993Y-115119803D01*
G37*
G36*
X96164993Y-115119803D02*
X96229414Y-115139344D01*
X96288776Y-115171075D01*
X96340817Y-115213783D01*
X96383525Y-115265824D01*
X96415256Y-115325186D01*
X96434796Y-115389605D01*
X96442000Y-115462741D01*
X96442000Y-116388459D01*
X96434797Y-116461593D01*
X96415256Y-116526013D01*
X96383525Y-116585376D01*
X96340817Y-116637417D01*
X96288776Y-116680125D01*
X96229414Y-116711856D01*
X96164993Y-116731397D01*
X96091859Y-116738600D01*
X95166141Y-116738600D01*
X95093007Y-116731397D01*
X95028586Y-116711856D01*
X94969224Y-116680125D01*
X94917183Y-116637417D01*
X94874475Y-116585376D01*
X94842744Y-116526013D01*
X94823203Y-116461593D01*
X94816000Y-116388459D01*
X94816000Y-115462741D01*
X94823204Y-115389605D01*
X94842744Y-115325186D01*
X94874475Y-115265824D01*
X94917183Y-115213783D01*
X94969224Y-115171075D01*
X95028586Y-115139344D01*
X95093007Y-115119803D01*
X95166141Y-115112600D01*
X96091859Y-115112600D01*
X96164993Y-115119803D01*
X96164993Y-115119803D01*
G37*
G36*
X49456393Y-115094403D02*
X49520814Y-115113944D01*
X49580176Y-115145675D01*
X49632217Y-115188383D01*
X49674925Y-115240424D01*
X49706656Y-115299786D01*
X49726196Y-115364205D01*
X49733400Y-115437341D01*
X49733400Y-116363059D01*
X49726197Y-116436193D01*
X49706656Y-116500613D01*
X49674925Y-116559976D01*
X49632217Y-116612017D01*
X49580176Y-116654725D01*
X49520814Y-116686456D01*
X49456393Y-116705997D01*
X49383259Y-116713200D01*
X48457541Y-116713200D01*
X48384407Y-116705997D01*
X48319986Y-116686456D01*
X48260624Y-116654725D01*
X48208583Y-116612017D01*
X48165875Y-116559976D01*
X48134144Y-116500613D01*
X48114603Y-116436193D01*
X48107400Y-116363059D01*
X48107400Y-115437341D01*
X48114604Y-115364205D01*
X48134144Y-115299786D01*
X48165875Y-115240424D01*
X48208583Y-115188383D01*
X48260624Y-115145675D01*
X48319986Y-115113944D01*
X48384407Y-115094403D01*
X48457541Y-115087200D01*
X49383259Y-115087200D01*
X49456393Y-115094403D01*
X49456393Y-115094403D01*
G37*
G36*
X46156393Y-115094403D02*
X46220814Y-115113944D01*
X46280176Y-115145675D01*
X46332217Y-115188383D01*
X46374925Y-115240424D01*
X46406656Y-115299786D01*
X46426196Y-115364205D01*
X46433400Y-115437341D01*
X46433400Y-116363059D01*
X46426197Y-116436193D01*
X46406656Y-116500613D01*
X46374925Y-116559976D01*
X46332217Y-116612017D01*
X46280176Y-116654725D01*
X46220814Y-116686456D01*
X46156393Y-116705997D01*
X46083259Y-116713200D01*
X45157541Y-116713200D01*
X45084407Y-116705997D01*
X45019986Y-116686456D01*
X44960624Y-116654725D01*
X44908583Y-116612017D01*
X44865875Y-116559976D01*
X44834144Y-116500613D01*
X44814603Y-116436193D01*
X44807400Y-116363059D01*
X44807400Y-115437341D01*
X44814604Y-115364205D01*
X44834144Y-115299786D01*
X44865875Y-115240424D01*
X44908583Y-115188383D01*
X44960624Y-115145675D01*
X45019986Y-115113944D01*
X45084407Y-115094403D01*
X45157541Y-115087200D01*
X46083259Y-115087200D01*
X46156393Y-115094403D01*
X46156393Y-115094403D01*
G37*
G36*
X57002193Y-107982403D02*
X57066614Y-108001944D01*
X57125976Y-108033675D01*
X57178017Y-108076383D01*
X57220725Y-108128424D01*
X57252456Y-108187786D01*
X57271997Y-108252207D01*
X57279200Y-108325341D01*
X57279200Y-109251059D01*
X57271997Y-109324193D01*
X57252456Y-109388614D01*
X57220725Y-109447976D01*
X57178017Y-109500017D01*
X57125976Y-109542725D01*
X57066614Y-109574456D01*
X57002193Y-109593997D01*
X56929059Y-109601200D01*
X56003341Y-109601200D01*
X55930207Y-109593997D01*
X55865786Y-109574456D01*
X55806424Y-109542725D01*
X55754383Y-109500017D01*
X55711675Y-109447976D01*
X55679944Y-109388614D01*
X55660403Y-109324193D01*
X55653200Y-109251059D01*
X55653200Y-108325341D01*
X55660403Y-108252207D01*
X55679944Y-108187786D01*
X55711675Y-108128424D01*
X55754383Y-108076383D01*
X55806424Y-108033675D01*
X55865786Y-108001944D01*
X55930207Y-107982403D01*
X56003341Y-107975200D01*
X56929059Y-107975200D01*
X57002193Y-107982403D01*
X57002193Y-107982403D01*
G37*
G36*
X81943993Y-107982403D02*
X82008414Y-108001944D01*
X82067776Y-108033675D01*
X82119817Y-108076383D01*
X82162525Y-108128424D01*
X82194256Y-108187786D01*
X82213797Y-108252207D01*
X82221000Y-108325341D01*
X82221000Y-109251059D01*
X82213797Y-109324193D01*
X82194256Y-109388614D01*
X82162525Y-109447976D01*
X82119817Y-109500017D01*
X82067776Y-109542725D01*
X82008414Y-109574456D01*
X81943993Y-109593997D01*
X81870859Y-109601200D01*
X80945141Y-109601200D01*
X80872007Y-109593997D01*
X80807586Y-109574456D01*
X80748224Y-109542725D01*
X80696183Y-109500017D01*
X80653475Y-109447976D01*
X80621744Y-109388614D01*
X80602203Y-109324193D01*
X80595000Y-109251059D01*
X80595000Y-108325341D01*
X80602203Y-108252207D01*
X80621744Y-108187786D01*
X80653475Y-108128424D01*
X80696183Y-108076383D01*
X80748224Y-108033675D01*
X80807586Y-108001944D01*
X80872007Y-107982403D01*
X80945141Y-107975200D01*
X81870859Y-107975200D01*
X81943993Y-107982403D01*
X81943993Y-107982403D01*
G37*
G36*
X60302193Y-107982403D02*
X60366614Y-108001944D01*
X60425976Y-108033675D01*
X60478017Y-108076383D01*
X60520725Y-108128424D01*
X60552456Y-108187786D01*
X60571997Y-108252207D01*
X60579200Y-108325341D01*
X60579200Y-109251059D01*
X60571997Y-109324193D01*
X60552456Y-109388614D01*
X60520725Y-109447976D01*
X60478017Y-109500017D01*
X60425976Y-109542725D01*
X60366614Y-109574456D01*
X60302193Y-109593997D01*
X60229059Y-109601200D01*
X59303341Y-109601200D01*
X59230207Y-109593997D01*
X59165786Y-109574456D01*
X59106424Y-109542725D01*
X59054383Y-109500017D01*
X59011675Y-109447976D01*
X58979944Y-109388614D01*
X58960403Y-109324193D01*
X58953200Y-109251059D01*
X58953200Y-108325341D01*
X58960403Y-108252207D01*
X58979944Y-108187786D01*
X59011675Y-108128424D01*
X59054383Y-108076383D01*
X59106424Y-108033675D01*
X59165786Y-108001944D01*
X59230207Y-107982403D01*
X59303341Y-107975200D01*
X60229059Y-107975200D01*
X60302193Y-107982403D01*
X60302193Y-107982403D01*
G37*
G36*
X48645593Y-107982403D02*
X48710014Y-108001944D01*
X48769376Y-108033675D01*
X48821417Y-108076383D01*
X48864125Y-108128424D01*
X48895856Y-108187786D01*
X48915397Y-108252207D01*
X48922600Y-108325341D01*
X48922600Y-109251059D01*
X48915397Y-109324193D01*
X48895856Y-109388614D01*
X48864125Y-109447976D01*
X48821417Y-109500017D01*
X48769376Y-109542725D01*
X48710014Y-109574456D01*
X48645593Y-109593997D01*
X48572459Y-109601200D01*
X47646741Y-109601200D01*
X47573607Y-109593997D01*
X47509186Y-109574456D01*
X47449824Y-109542725D01*
X47397783Y-109500017D01*
X47355075Y-109447976D01*
X47323344Y-109388614D01*
X47303803Y-109324193D01*
X47296600Y-109251059D01*
X47296600Y-108325341D01*
X47303803Y-108252207D01*
X47323344Y-108187786D01*
X47355075Y-108128424D01*
X47397783Y-108076383D01*
X47449824Y-108033675D01*
X47509186Y-108001944D01*
X47573607Y-107982403D01*
X47646741Y-107975200D01*
X48572459Y-107975200D01*
X48645593Y-107982403D01*
X48645593Y-107982403D01*
G37*
G36*
X51945593Y-107982403D02*
X52010014Y-108001944D01*
X52069376Y-108033675D01*
X52121417Y-108076383D01*
X52164125Y-108128424D01*
X52195856Y-108187786D01*
X52215397Y-108252207D01*
X52222600Y-108325341D01*
X52222600Y-109251059D01*
X52215397Y-109324193D01*
X52195856Y-109388614D01*
X52164125Y-109447976D01*
X52121417Y-109500017D01*
X52069376Y-109542725D01*
X52010014Y-109574456D01*
X51945593Y-109593997D01*
X51872459Y-109601200D01*
X50946741Y-109601200D01*
X50873607Y-109593997D01*
X50809186Y-109574456D01*
X50749824Y-109542725D01*
X50697783Y-109500017D01*
X50655075Y-109447976D01*
X50623344Y-109388614D01*
X50603803Y-109324193D01*
X50596600Y-109251059D01*
X50596600Y-108325341D01*
X50603803Y-108252207D01*
X50623344Y-108187786D01*
X50655075Y-108128424D01*
X50697783Y-108076383D01*
X50749824Y-108033675D01*
X50809186Y-108001944D01*
X50873607Y-107982403D01*
X50946741Y-107975200D01*
X51872459Y-107975200D01*
X51945593Y-107982403D01*
X51945593Y-107982403D01*
G37*
G36*
X85243993Y-107982403D02*
X85308414Y-108001944D01*
X85367776Y-108033675D01*
X85419817Y-108076383D01*
X85462525Y-108128424D01*
X85494256Y-108187786D01*
X85513797Y-108252207D01*
X85521000Y-108325341D01*
X85521000Y-109251059D01*
X85513797Y-109324193D01*
X85494256Y-109388614D01*
X85462525Y-109447976D01*
X85419817Y-109500017D01*
X85367776Y-109542725D01*
X85308414Y-109574456D01*
X85243993Y-109593997D01*
X85170859Y-109601200D01*
X84245141Y-109601200D01*
X84172007Y-109593997D01*
X84107586Y-109574456D01*
X84048224Y-109542725D01*
X83996183Y-109500017D01*
X83953475Y-109447976D01*
X83921744Y-109388614D01*
X83902203Y-109324193D01*
X83895000Y-109251059D01*
X83895000Y-108325341D01*
X83902203Y-108252207D01*
X83921744Y-108187786D01*
X83953475Y-108128424D01*
X83996183Y-108076383D01*
X84048224Y-108033675D01*
X84107586Y-108001944D01*
X84172007Y-107982403D01*
X84245141Y-107975200D01*
X85170859Y-107975200D01*
X85243993Y-107982403D01*
X85243993Y-107982403D01*
G37*
G36*
X43639793Y-107957003D02*
X43704214Y-107976544D01*
X43763576Y-108008275D01*
X43815617Y-108050983D01*
X43858325Y-108103024D01*
X43890056Y-108162386D01*
X43909597Y-108226807D01*
X43916800Y-108299941D01*
X43916800Y-109225659D01*
X43909597Y-109298793D01*
X43890056Y-109363214D01*
X43858325Y-109422576D01*
X43815617Y-109474617D01*
X43763576Y-109517325D01*
X43704214Y-109549056D01*
X43639793Y-109568597D01*
X43566659Y-109575800D01*
X42640941Y-109575800D01*
X42567807Y-109568597D01*
X42503386Y-109549056D01*
X42444024Y-109517325D01*
X42391983Y-109474617D01*
X42349275Y-109422576D01*
X42317544Y-109363214D01*
X42298003Y-109298793D01*
X42290800Y-109225659D01*
X42290800Y-108299941D01*
X42298003Y-108226807D01*
X42317544Y-108162386D01*
X42349275Y-108103024D01*
X42391983Y-108050983D01*
X42444024Y-108008275D01*
X42503386Y-107976544D01*
X42567807Y-107957003D01*
X42640941Y-107949800D01*
X43566659Y-107949800D01*
X43639793Y-107957003D01*
X43639793Y-107957003D01*
G37*
G36*
X110314793Y-107957003D02*
X110379214Y-107976544D01*
X110438576Y-108008275D01*
X110490617Y-108050983D01*
X110533325Y-108103024D01*
X110565056Y-108162386D01*
X110584597Y-108226807D01*
X110591800Y-108299941D01*
X110591800Y-109225659D01*
X110584597Y-109298793D01*
X110565056Y-109363214D01*
X110533325Y-109422576D01*
X110490617Y-109474617D01*
X110438576Y-109517325D01*
X110379214Y-109549056D01*
X110314793Y-109568597D01*
X110241659Y-109575800D01*
X109315941Y-109575800D01*
X109242807Y-109568597D01*
X109178386Y-109549056D01*
X109119024Y-109517325D01*
X109066983Y-109474617D01*
X109024275Y-109422576D01*
X108992544Y-109363214D01*
X108973003Y-109298793D01*
X108965800Y-109225659D01*
X108965800Y-108299941D01*
X108973003Y-108226807D01*
X108992544Y-108162386D01*
X109024275Y-108103024D01*
X109066983Y-108050983D01*
X109119024Y-108008275D01*
X109178386Y-107976544D01*
X109242807Y-107957003D01*
X109315941Y-107949800D01*
X110241659Y-107949800D01*
X110314793Y-107957003D01*
X110314793Y-107957003D01*
G37*
G36*
X107014793Y-107957003D02*
X107079214Y-107976544D01*
X107138576Y-108008275D01*
X107190617Y-108050983D01*
X107233325Y-108103024D01*
X107265056Y-108162386D01*
X107284597Y-108226807D01*
X107291800Y-108299941D01*
X107291800Y-109225659D01*
X107284597Y-109298793D01*
X107265056Y-109363214D01*
X107233325Y-109422576D01*
X107190617Y-109474617D01*
X107138576Y-109517325D01*
X107079214Y-109549056D01*
X107014793Y-109568597D01*
X106941659Y-109575800D01*
X106015941Y-109575800D01*
X105942807Y-109568597D01*
X105878386Y-109549056D01*
X105819024Y-109517325D01*
X105766983Y-109474617D01*
X105724275Y-109422576D01*
X105692544Y-109363214D01*
X105673003Y-109298793D01*
X105665800Y-109225659D01*
X105665800Y-108299941D01*
X105673003Y-108226807D01*
X105692544Y-108162386D01*
X105724275Y-108103024D01*
X105766983Y-108050983D01*
X105819024Y-108008275D01*
X105878386Y-107976544D01*
X105942807Y-107957003D01*
X106015941Y-107949800D01*
X106941659Y-107949800D01*
X107014793Y-107957003D01*
X107014793Y-107957003D01*
G37*
G36*
X115320593Y-107957003D02*
X115385014Y-107976544D01*
X115444376Y-108008275D01*
X115496417Y-108050983D01*
X115539125Y-108103024D01*
X115570856Y-108162386D01*
X115590397Y-108226807D01*
X115597600Y-108299941D01*
X115597600Y-109225659D01*
X115590397Y-109298793D01*
X115570856Y-109363214D01*
X115539125Y-109422576D01*
X115496417Y-109474617D01*
X115444376Y-109517325D01*
X115385014Y-109549056D01*
X115320593Y-109568597D01*
X115247459Y-109575800D01*
X114321741Y-109575800D01*
X114248607Y-109568597D01*
X114184186Y-109549056D01*
X114124824Y-109517325D01*
X114072783Y-109474617D01*
X114030075Y-109422576D01*
X113998344Y-109363214D01*
X113978803Y-109298793D01*
X113971600Y-109225659D01*
X113971600Y-108299941D01*
X113978803Y-108226807D01*
X113998344Y-108162386D01*
X114030075Y-108103024D01*
X114072783Y-108050983D01*
X114124824Y-108008275D01*
X114184186Y-107976544D01*
X114248607Y-107957003D01*
X114321741Y-107949800D01*
X115247459Y-107949800D01*
X115320593Y-107957003D01*
X115320593Y-107957003D01*
G37*
G36*
X118620593Y-107957003D02*
X118685014Y-107976544D01*
X118744376Y-108008275D01*
X118796417Y-108050983D01*
X118839125Y-108103024D01*
X118870856Y-108162386D01*
X118890397Y-108226807D01*
X118897600Y-108299941D01*
X118897600Y-109225659D01*
X118890397Y-109298793D01*
X118870856Y-109363214D01*
X118839125Y-109422576D01*
X118796417Y-109474617D01*
X118744376Y-109517325D01*
X118685014Y-109549056D01*
X118620593Y-109568597D01*
X118547459Y-109575800D01*
X117621741Y-109575800D01*
X117548607Y-109568597D01*
X117484186Y-109549056D01*
X117424824Y-109517325D01*
X117372783Y-109474617D01*
X117330075Y-109422576D01*
X117298344Y-109363214D01*
X117278803Y-109298793D01*
X117271600Y-109225659D01*
X117271600Y-108299941D01*
X117278803Y-108226807D01*
X117298344Y-108162386D01*
X117330075Y-108103024D01*
X117372783Y-108050983D01*
X117424824Y-108008275D01*
X117484186Y-107976544D01*
X117548607Y-107957003D01*
X117621741Y-107949800D01*
X118547459Y-107949800D01*
X118620593Y-107957003D01*
X118620593Y-107957003D01*
G37*
G36*
X40339793Y-107957003D02*
X40404214Y-107976544D01*
X40463576Y-108008275D01*
X40515617Y-108050983D01*
X40558325Y-108103024D01*
X40590056Y-108162386D01*
X40609597Y-108226807D01*
X40616800Y-108299941D01*
X40616800Y-109225659D01*
X40609597Y-109298793D01*
X40590056Y-109363214D01*
X40558325Y-109422576D01*
X40515617Y-109474617D01*
X40463576Y-109517325D01*
X40404214Y-109549056D01*
X40339793Y-109568597D01*
X40266659Y-109575800D01*
X39340941Y-109575800D01*
X39267807Y-109568597D01*
X39203386Y-109549056D01*
X39144024Y-109517325D01*
X39091983Y-109474617D01*
X39049275Y-109422576D01*
X39017544Y-109363214D01*
X38998003Y-109298793D01*
X38990800Y-109225659D01*
X38990800Y-108299941D01*
X38998003Y-108226807D01*
X39017544Y-108162386D01*
X39049275Y-108103024D01*
X39091983Y-108050983D01*
X39144024Y-108008275D01*
X39203386Y-107976544D01*
X39267807Y-107957003D01*
X39340941Y-107949800D01*
X40266659Y-107949800D01*
X40339793Y-107957003D01*
X40339793Y-107957003D01*
G37*
G36*
X65333393Y-107957003D02*
X65397814Y-107976544D01*
X65457176Y-108008275D01*
X65509217Y-108050983D01*
X65551925Y-108103024D01*
X65583656Y-108162386D01*
X65603197Y-108226807D01*
X65610400Y-108299941D01*
X65610400Y-109225659D01*
X65603197Y-109298793D01*
X65583656Y-109363214D01*
X65551925Y-109422576D01*
X65509217Y-109474617D01*
X65457176Y-109517325D01*
X65397814Y-109549056D01*
X65333393Y-109568597D01*
X65260259Y-109575800D01*
X64334541Y-109575800D01*
X64261407Y-109568597D01*
X64196986Y-109549056D01*
X64137624Y-109517325D01*
X64085583Y-109474617D01*
X64042875Y-109422576D01*
X64011144Y-109363214D01*
X63991603Y-109298793D01*
X63984400Y-109225659D01*
X63984400Y-108299941D01*
X63991603Y-108226807D01*
X64011144Y-108162386D01*
X64042875Y-108103024D01*
X64085583Y-108050983D01*
X64137624Y-108008275D01*
X64196986Y-107976544D01*
X64261407Y-107957003D01*
X64334541Y-107949800D01*
X65260259Y-107949800D01*
X65333393Y-107957003D01*
X65333393Y-107957003D01*
G37*
G36*
X68633393Y-107957003D02*
X68697814Y-107976544D01*
X68757176Y-108008275D01*
X68809217Y-108050983D01*
X68851925Y-108103024D01*
X68883656Y-108162386D01*
X68903197Y-108226807D01*
X68910400Y-108299941D01*
X68910400Y-109225659D01*
X68903197Y-109298793D01*
X68883656Y-109363214D01*
X68851925Y-109422576D01*
X68809217Y-109474617D01*
X68757176Y-109517325D01*
X68697814Y-109549056D01*
X68633393Y-109568597D01*
X68560259Y-109575800D01*
X67634541Y-109575800D01*
X67561407Y-109568597D01*
X67496986Y-109549056D01*
X67437624Y-109517325D01*
X67385583Y-109474617D01*
X67342875Y-109422576D01*
X67311144Y-109363214D01*
X67291603Y-109298793D01*
X67284400Y-109225659D01*
X67284400Y-108299941D01*
X67291603Y-108226807D01*
X67311144Y-108162386D01*
X67342875Y-108103024D01*
X67385583Y-108050983D01*
X67437624Y-108008275D01*
X67496986Y-107976544D01*
X67561407Y-107957003D01*
X67634541Y-107949800D01*
X68560259Y-107949800D01*
X68633393Y-107957003D01*
X68633393Y-107957003D01*
G37*
G36*
X127025993Y-107931603D02*
X127090414Y-107951144D01*
X127149776Y-107982875D01*
X127201817Y-108025583D01*
X127244525Y-108077624D01*
X127276256Y-108136986D01*
X127295797Y-108201407D01*
X127303000Y-108274541D01*
X127303000Y-109200259D01*
X127295797Y-109273393D01*
X127276256Y-109337814D01*
X127244525Y-109397176D01*
X127201817Y-109449217D01*
X127149776Y-109491925D01*
X127090414Y-109523656D01*
X127025993Y-109543197D01*
X126952859Y-109550400D01*
X126027141Y-109550400D01*
X125954007Y-109543197D01*
X125889586Y-109523656D01*
X125830224Y-109491925D01*
X125778183Y-109449217D01*
X125735475Y-109397176D01*
X125703744Y-109337814D01*
X125684203Y-109273393D01*
X125677000Y-109200259D01*
X125677000Y-108274541D01*
X125684203Y-108201407D01*
X125703744Y-108136986D01*
X125735475Y-108077624D01*
X125778183Y-108025583D01*
X125830224Y-107982875D01*
X125889586Y-107951144D01*
X125954007Y-107931603D01*
X126027141Y-107924400D01*
X126952859Y-107924400D01*
X127025993Y-107931603D01*
X127025993Y-107931603D01*
G37*
G36*
X101906593Y-107931603D02*
X101971014Y-107951144D01*
X102030376Y-107982875D01*
X102082417Y-108025583D01*
X102125125Y-108077624D01*
X102156856Y-108136986D01*
X102176397Y-108201407D01*
X102183600Y-108274541D01*
X102183600Y-109200259D01*
X102176397Y-109273393D01*
X102156856Y-109337814D01*
X102125125Y-109397176D01*
X102082417Y-109449217D01*
X102030376Y-109491925D01*
X101971014Y-109523656D01*
X101906593Y-109543197D01*
X101833459Y-109550400D01*
X100907741Y-109550400D01*
X100834607Y-109543197D01*
X100770186Y-109523656D01*
X100710824Y-109491925D01*
X100658783Y-109449217D01*
X100616075Y-109397176D01*
X100584344Y-109337814D01*
X100564803Y-109273393D01*
X100557600Y-109200259D01*
X100557600Y-108274541D01*
X100564803Y-108201407D01*
X100584344Y-108136986D01*
X100616075Y-108077624D01*
X100658783Y-108025583D01*
X100710824Y-107982875D01*
X100770186Y-107951144D01*
X100834607Y-107931603D01*
X100907741Y-107924400D01*
X101833459Y-107924400D01*
X101906593Y-107931603D01*
X101906593Y-107931603D01*
G37*
G36*
X98606593Y-107931603D02*
X98671014Y-107951144D01*
X98730376Y-107982875D01*
X98782417Y-108025583D01*
X98825125Y-108077624D01*
X98856856Y-108136986D01*
X98876397Y-108201407D01*
X98883600Y-108274541D01*
X98883600Y-109200259D01*
X98876397Y-109273393D01*
X98856856Y-109337814D01*
X98825125Y-109397176D01*
X98782417Y-109449217D01*
X98730376Y-109491925D01*
X98671014Y-109523656D01*
X98606593Y-109543197D01*
X98533459Y-109550400D01*
X97607741Y-109550400D01*
X97534607Y-109543197D01*
X97470186Y-109523656D01*
X97410824Y-109491925D01*
X97358783Y-109449217D01*
X97316075Y-109397176D01*
X97284344Y-109337814D01*
X97264803Y-109273393D01*
X97257600Y-109200259D01*
X97257600Y-108274541D01*
X97264803Y-108201407D01*
X97284344Y-108136986D01*
X97316075Y-108077624D01*
X97358783Y-108025583D01*
X97410824Y-107982875D01*
X97470186Y-107951144D01*
X97534607Y-107931603D01*
X97607741Y-107924400D01*
X98533459Y-107924400D01*
X98606593Y-107931603D01*
X98606593Y-107931603D01*
G37*
G36*
X77015393Y-107931603D02*
X77079814Y-107951144D01*
X77139176Y-107982875D01*
X77191217Y-108025583D01*
X77233925Y-108077624D01*
X77265656Y-108136986D01*
X77285197Y-108201407D01*
X77292400Y-108274541D01*
X77292400Y-109200259D01*
X77285197Y-109273393D01*
X77265656Y-109337814D01*
X77233925Y-109397176D01*
X77191217Y-109449217D01*
X77139176Y-109491925D01*
X77079814Y-109523656D01*
X77015393Y-109543197D01*
X76942259Y-109550400D01*
X76016541Y-109550400D01*
X75943407Y-109543197D01*
X75878986Y-109523656D01*
X75819624Y-109491925D01*
X75767583Y-109449217D01*
X75724875Y-109397176D01*
X75693144Y-109337814D01*
X75673603Y-109273393D01*
X75666400Y-109200259D01*
X75666400Y-108274541D01*
X75673603Y-108201407D01*
X75693144Y-108136986D01*
X75724875Y-108077624D01*
X75767583Y-108025583D01*
X75819624Y-107982875D01*
X75878986Y-107951144D01*
X75943407Y-107931603D01*
X76016541Y-107924400D01*
X76942259Y-107924400D01*
X77015393Y-107931603D01*
X77015393Y-107931603D01*
G37*
G36*
X123725993Y-107931603D02*
X123790414Y-107951144D01*
X123849776Y-107982875D01*
X123901817Y-108025583D01*
X123944525Y-108077624D01*
X123976256Y-108136986D01*
X123995797Y-108201407D01*
X124003000Y-108274541D01*
X124003000Y-109200259D01*
X123995797Y-109273393D01*
X123976256Y-109337814D01*
X123944525Y-109397176D01*
X123901817Y-109449217D01*
X123849776Y-109491925D01*
X123790414Y-109523656D01*
X123725993Y-109543197D01*
X123652859Y-109550400D01*
X122727141Y-109550400D01*
X122654007Y-109543197D01*
X122589586Y-109523656D01*
X122530224Y-109491925D01*
X122478183Y-109449217D01*
X122435475Y-109397176D01*
X122403744Y-109337814D01*
X122384203Y-109273393D01*
X122377000Y-109200259D01*
X122377000Y-108274541D01*
X122384203Y-108201407D01*
X122403744Y-108136986D01*
X122435475Y-108077624D01*
X122478183Y-108025583D01*
X122530224Y-107982875D01*
X122589586Y-107951144D01*
X122654007Y-107931603D01*
X122727141Y-107924400D01*
X123652859Y-107924400D01*
X123725993Y-107931603D01*
X123725993Y-107931603D01*
G37*
G36*
X73715393Y-107931603D02*
X73779814Y-107951144D01*
X73839176Y-107982875D01*
X73891217Y-108025583D01*
X73933925Y-108077624D01*
X73965656Y-108136986D01*
X73985197Y-108201407D01*
X73992400Y-108274541D01*
X73992400Y-109200259D01*
X73985197Y-109273393D01*
X73965656Y-109337814D01*
X73933925Y-109397176D01*
X73891217Y-109449217D01*
X73839176Y-109491925D01*
X73779814Y-109523656D01*
X73715393Y-109543197D01*
X73642259Y-109550400D01*
X72716541Y-109550400D01*
X72643407Y-109543197D01*
X72578986Y-109523656D01*
X72519624Y-109491925D01*
X72467583Y-109449217D01*
X72424875Y-109397176D01*
X72393144Y-109337814D01*
X72373603Y-109273393D01*
X72366400Y-109200259D01*
X72366400Y-108274541D01*
X72373603Y-108201407D01*
X72393144Y-108136986D01*
X72424875Y-108077624D01*
X72467583Y-108025583D01*
X72519624Y-107982875D01*
X72578986Y-107951144D01*
X72643407Y-107931603D01*
X72716541Y-107924400D01*
X73642259Y-107924400D01*
X73715393Y-107931603D01*
X73715393Y-107931603D01*
G37*
G36*
X135280993Y-107906203D02*
X135345414Y-107925744D01*
X135404776Y-107957475D01*
X135456817Y-108000183D01*
X135499525Y-108052224D01*
X135531256Y-108111586D01*
X135550796Y-108176005D01*
X135558000Y-108249141D01*
X135558000Y-109174859D01*
X135550797Y-109247993D01*
X135531256Y-109312413D01*
X135499525Y-109371776D01*
X135456817Y-109423817D01*
X135404776Y-109466525D01*
X135345414Y-109498256D01*
X135280993Y-109517797D01*
X135207859Y-109525000D01*
X134282141Y-109525000D01*
X134209007Y-109517797D01*
X134144586Y-109498256D01*
X134085224Y-109466525D01*
X134033183Y-109423817D01*
X133990475Y-109371776D01*
X133958744Y-109312413D01*
X133939203Y-109247993D01*
X133932000Y-109174859D01*
X133932000Y-108249141D01*
X133939204Y-108176005D01*
X133958744Y-108111586D01*
X133990475Y-108052224D01*
X134033183Y-108000183D01*
X134085224Y-107957475D01*
X134144586Y-107925744D01*
X134209007Y-107906203D01*
X134282141Y-107899000D01*
X135207859Y-107899000D01*
X135280993Y-107906203D01*
X135280993Y-107906203D01*
G37*
G36*
X131980993Y-107906203D02*
X132045414Y-107925744D01*
X132104776Y-107957475D01*
X132156817Y-108000183D01*
X132199525Y-108052224D01*
X132231256Y-108111586D01*
X132250796Y-108176005D01*
X132258000Y-108249141D01*
X132258000Y-109174859D01*
X132250797Y-109247993D01*
X132231256Y-109312413D01*
X132199525Y-109371776D01*
X132156817Y-109423817D01*
X132104776Y-109466525D01*
X132045414Y-109498256D01*
X131980993Y-109517797D01*
X131907859Y-109525000D01*
X130982141Y-109525000D01*
X130909007Y-109517797D01*
X130844586Y-109498256D01*
X130785224Y-109466525D01*
X130733183Y-109423817D01*
X130690475Y-109371776D01*
X130658744Y-109312413D01*
X130639203Y-109247993D01*
X130632000Y-109174859D01*
X130632000Y-108249141D01*
X130639204Y-108176005D01*
X130658744Y-108111586D01*
X130690475Y-108052224D01*
X130733183Y-108000183D01*
X130785224Y-107957475D01*
X130844586Y-107925744D01*
X130909007Y-107906203D01*
X130982141Y-107899000D01*
X131907859Y-107899000D01*
X131980993Y-107906203D01*
X131980993Y-107906203D01*
G37*
G36*
X90326993Y-107906203D02*
X90391414Y-107925744D01*
X90450776Y-107957475D01*
X90502817Y-108000183D01*
X90545525Y-108052224D01*
X90577256Y-108111586D01*
X90596796Y-108176005D01*
X90604000Y-108249141D01*
X90604000Y-109174859D01*
X90596797Y-109247993D01*
X90577256Y-109312413D01*
X90545525Y-109371776D01*
X90502817Y-109423817D01*
X90450776Y-109466525D01*
X90391414Y-109498256D01*
X90326993Y-109517797D01*
X90253859Y-109525000D01*
X89328141Y-109525000D01*
X89255007Y-109517797D01*
X89190586Y-109498256D01*
X89131224Y-109466525D01*
X89079183Y-109423817D01*
X89036475Y-109371776D01*
X89004744Y-109312413D01*
X88985203Y-109247993D01*
X88978000Y-109174859D01*
X88978000Y-108249141D01*
X88985204Y-108176005D01*
X89004744Y-108111586D01*
X89036475Y-108052224D01*
X89079183Y-108000183D01*
X89131224Y-107957475D01*
X89190586Y-107925744D01*
X89255007Y-107906203D01*
X89328141Y-107899000D01*
X90253859Y-107899000D01*
X90326993Y-107906203D01*
X90326993Y-107906203D01*
G37*
G36*
X93626993Y-107906203D02*
X93691414Y-107925744D01*
X93750776Y-107957475D01*
X93802817Y-108000183D01*
X93845525Y-108052224D01*
X93877256Y-108111586D01*
X93896796Y-108176005D01*
X93904000Y-108249141D01*
X93904000Y-109174859D01*
X93896797Y-109247993D01*
X93877256Y-109312413D01*
X93845525Y-109371776D01*
X93802817Y-109423817D01*
X93750776Y-109466525D01*
X93691414Y-109498256D01*
X93626993Y-109517797D01*
X93553859Y-109525000D01*
X92628141Y-109525000D01*
X92555007Y-109517797D01*
X92490586Y-109498256D01*
X92431224Y-109466525D01*
X92379183Y-109423817D01*
X92336475Y-109371776D01*
X92304744Y-109312413D01*
X92285203Y-109247993D01*
X92278000Y-109174859D01*
X92278000Y-108249141D01*
X92285204Y-108176005D01*
X92304744Y-108111586D01*
X92336475Y-108052224D01*
X92379183Y-108000183D01*
X92431224Y-107957475D01*
X92490586Y-107925744D01*
X92555007Y-107906203D01*
X92628141Y-107899000D01*
X93553859Y-107899000D01*
X93626993Y-107906203D01*
X93626993Y-107906203D01*
G37*
G36*
X134120200Y-103641000D02*
X125468200Y-103641000D01*
X125468200Y-102039000D01*
X134120200Y-102039000D01*
X134120200Y-103641000D01*
X134120200Y-103641000D01*
G37*
G36*
X124895200Y-101466000D02*
X123293200Y-101466000D01*
X123293200Y-92814000D01*
X124895200Y-92814000D01*
X124895200Y-101466000D01*
X124895200Y-101466000D01*
G37*
G36*
X136295200Y-101466000D02*
X134693200Y-101466000D01*
X134693200Y-92814000D01*
X136295200Y-92814000D01*
X136295200Y-101466000D01*
X136295200Y-101466000D01*
G37*
G36*
X95941800Y-94250800D02*
X90839800Y-94250800D01*
X90839800Y-92648800D01*
X95941800Y-92648800D01*
X95941800Y-94250800D01*
X95941800Y-94250800D01*
G37*
G36*
X82312000Y-94226200D02*
X77210000Y-94226200D01*
X77210000Y-92624200D01*
X82312000Y-92624200D01*
X82312000Y-94226200D01*
X82312000Y-94226200D01*
G37*
G36*
X109998000Y-94225400D02*
X104896000Y-94225400D01*
X104896000Y-92623400D01*
X109998000Y-92623400D01*
X109998000Y-94225400D01*
X109998000Y-94225400D01*
G37*
G36*
X67244200Y-93841200D02*
X62142200Y-93841200D01*
X62142200Y-92239200D01*
X67244200Y-92239200D01*
X67244200Y-93841200D01*
X67244200Y-93841200D01*
G37*
G36*
X54519400Y-93692400D02*
X49417400Y-93692400D01*
X49417400Y-92090400D01*
X54519400Y-92090400D01*
X54519400Y-93692400D01*
X54519400Y-93692400D01*
G37*
G36*
X41678327Y-90360536D02*
X41778210Y-90380404D01*
X42060474Y-90497321D01*
X42314505Y-90667059D01*
X42530541Y-90883095D01*
X42700279Y-91137126D01*
X42817196Y-91419390D01*
X42876800Y-91719040D01*
X42876800Y-92024560D01*
X42817196Y-92324210D01*
X42700279Y-92606474D01*
X42530541Y-92860505D01*
X42314505Y-93076541D01*
X42060474Y-93246279D01*
X41778210Y-93363196D01*
X41678327Y-93383064D01*
X41478562Y-93422800D01*
X41173038Y-93422800D01*
X40973273Y-93383064D01*
X40873390Y-93363196D01*
X40591126Y-93246279D01*
X40337095Y-93076541D01*
X40121059Y-92860505D01*
X39951321Y-92606474D01*
X39834404Y-92324210D01*
X39774800Y-92024560D01*
X39774800Y-91719040D01*
X39834404Y-91419390D01*
X39951321Y-91137126D01*
X40121059Y-90883095D01*
X40337095Y-90667059D01*
X40591126Y-90497321D01*
X40873390Y-90380404D01*
X40973273Y-90360536D01*
X41173038Y-90320800D01*
X41478562Y-90320800D01*
X41678327Y-90360536D01*
X41678327Y-90360536D01*
G37*
G36*
X134120200Y-92241000D02*
X125468200Y-92241000D01*
X125468200Y-90639000D01*
X134120200Y-90639000D01*
X134120200Y-92241000D01*
X134120200Y-92241000D01*
G37*
G36*
X126309766Y-88661565D02*
X126348437Y-88673296D01*
X126384079Y-88692348D01*
X126415317Y-88717983D01*
X126440952Y-88749221D01*
X126460004Y-88784863D01*
X126471735Y-88823534D01*
X126476300Y-88869888D01*
X126476300Y-89946112D01*
X126471735Y-89992466D01*
X126460004Y-90031137D01*
X126440952Y-90066779D01*
X126415317Y-90098017D01*
X126384079Y-90123652D01*
X126348437Y-90142704D01*
X126309766Y-90154435D01*
X126263412Y-90159000D01*
X125612188Y-90159000D01*
X125565834Y-90154435D01*
X125527163Y-90142704D01*
X125491521Y-90123652D01*
X125460283Y-90098017D01*
X125434648Y-90066779D01*
X125415596Y-90031137D01*
X125403865Y-89992466D01*
X125399300Y-89946112D01*
X125399300Y-88869888D01*
X125403865Y-88823534D01*
X125415596Y-88784863D01*
X125434648Y-88749221D01*
X125460283Y-88717983D01*
X125491521Y-88692348D01*
X125527163Y-88673296D01*
X125565834Y-88661565D01*
X125612188Y-88657000D01*
X126263412Y-88657000D01*
X126309766Y-88661565D01*
X126309766Y-88661565D01*
G37*
G36*
X132576666Y-88661565D02*
X132615337Y-88673296D01*
X132650979Y-88692348D01*
X132682217Y-88717983D01*
X132707852Y-88749221D01*
X132726904Y-88784863D01*
X132738635Y-88823534D01*
X132743200Y-88869888D01*
X132743200Y-89946112D01*
X132738635Y-89992466D01*
X132726904Y-90031137D01*
X132707852Y-90066779D01*
X132682217Y-90098017D01*
X132650979Y-90123652D01*
X132615337Y-90142704D01*
X132576666Y-90154435D01*
X132530312Y-90159000D01*
X131879088Y-90159000D01*
X131832734Y-90154435D01*
X131794063Y-90142704D01*
X131758421Y-90123652D01*
X131727183Y-90098017D01*
X131701548Y-90066779D01*
X131682496Y-90031137D01*
X131670765Y-89992466D01*
X131666200Y-89946112D01*
X131666200Y-88869888D01*
X131670765Y-88823534D01*
X131682496Y-88784863D01*
X131701548Y-88749221D01*
X131727183Y-88717983D01*
X131758421Y-88692348D01*
X131794063Y-88673296D01*
X131832734Y-88661565D01*
X131879088Y-88657000D01*
X132530312Y-88657000D01*
X132576666Y-88661565D01*
X132576666Y-88661565D01*
G37*
G36*
X128184766Y-88661565D02*
X128223437Y-88673296D01*
X128259079Y-88692348D01*
X128290317Y-88717983D01*
X128315952Y-88749221D01*
X128335004Y-88784863D01*
X128346735Y-88823534D01*
X128351300Y-88869888D01*
X128351300Y-89946112D01*
X128346735Y-89992466D01*
X128335004Y-90031137D01*
X128315952Y-90066779D01*
X128290317Y-90098017D01*
X128259079Y-90123652D01*
X128223437Y-90142704D01*
X128184766Y-90154435D01*
X128138412Y-90159000D01*
X127487188Y-90159000D01*
X127440834Y-90154435D01*
X127402163Y-90142704D01*
X127366521Y-90123652D01*
X127335283Y-90098017D01*
X127309648Y-90066779D01*
X127290596Y-90031137D01*
X127278865Y-89992466D01*
X127274300Y-89946112D01*
X127274300Y-88869888D01*
X127278865Y-88823534D01*
X127290596Y-88784863D01*
X127309648Y-88749221D01*
X127335283Y-88717983D01*
X127366521Y-88692348D01*
X127402163Y-88673296D01*
X127440834Y-88661565D01*
X127487188Y-88657000D01*
X128138412Y-88657000D01*
X128184766Y-88661565D01*
X128184766Y-88661565D01*
G37*
G36*
X123280266Y-88661565D02*
X123318937Y-88673296D01*
X123354579Y-88692348D01*
X123385817Y-88717983D01*
X123411452Y-88749221D01*
X123430504Y-88784863D01*
X123442235Y-88823534D01*
X123446800Y-88869888D01*
X123446800Y-89946112D01*
X123442235Y-89992466D01*
X123430504Y-90031137D01*
X123411452Y-90066779D01*
X123385817Y-90098017D01*
X123354579Y-90123652D01*
X123318937Y-90142704D01*
X123280266Y-90154435D01*
X123233912Y-90159000D01*
X122582688Y-90159000D01*
X122536334Y-90154435D01*
X122497663Y-90142704D01*
X122462021Y-90123652D01*
X122430783Y-90098017D01*
X122405148Y-90066779D01*
X122386096Y-90031137D01*
X122374365Y-89992466D01*
X122369800Y-89946112D01*
X122369800Y-88869888D01*
X122374365Y-88823534D01*
X122386096Y-88784863D01*
X122405148Y-88749221D01*
X122430783Y-88717983D01*
X122462021Y-88692348D01*
X122497663Y-88673296D01*
X122536334Y-88661565D01*
X122582688Y-88657000D01*
X123233912Y-88657000D01*
X123280266Y-88661565D01*
X123280266Y-88661565D01*
G37*
G36*
X121405266Y-88661565D02*
X121443937Y-88673296D01*
X121479579Y-88692348D01*
X121510817Y-88717983D01*
X121536452Y-88749221D01*
X121555504Y-88784863D01*
X121567235Y-88823534D01*
X121571800Y-88869888D01*
X121571800Y-89946112D01*
X121567235Y-89992466D01*
X121555504Y-90031137D01*
X121536452Y-90066779D01*
X121510817Y-90098017D01*
X121479579Y-90123652D01*
X121443937Y-90142704D01*
X121405266Y-90154435D01*
X121358912Y-90159000D01*
X120707688Y-90159000D01*
X120661334Y-90154435D01*
X120622663Y-90142704D01*
X120587021Y-90123652D01*
X120555783Y-90098017D01*
X120530148Y-90066779D01*
X120511096Y-90031137D01*
X120499365Y-89992466D01*
X120494800Y-89946112D01*
X120494800Y-88869888D01*
X120499365Y-88823534D01*
X120511096Y-88784863D01*
X120530148Y-88749221D01*
X120555783Y-88717983D01*
X120587021Y-88692348D01*
X120622663Y-88673296D01*
X120661334Y-88661565D01*
X120707688Y-88657000D01*
X121358912Y-88657000D01*
X121405266Y-88661565D01*
X121405266Y-88661565D01*
G37*
G36*
X130701666Y-88661565D02*
X130740337Y-88673296D01*
X130775979Y-88692348D01*
X130807217Y-88717983D01*
X130832852Y-88749221D01*
X130851904Y-88784863D01*
X130863635Y-88823534D01*
X130868200Y-88869888D01*
X130868200Y-89946112D01*
X130863635Y-89992466D01*
X130851904Y-90031137D01*
X130832852Y-90066779D01*
X130807217Y-90098017D01*
X130775979Y-90123652D01*
X130740337Y-90142704D01*
X130701666Y-90154435D01*
X130655312Y-90159000D01*
X130004088Y-90159000D01*
X129957734Y-90154435D01*
X129919063Y-90142704D01*
X129883421Y-90123652D01*
X129852183Y-90098017D01*
X129826548Y-90066779D01*
X129807496Y-90031137D01*
X129795765Y-89992466D01*
X129791200Y-89946112D01*
X129791200Y-88869888D01*
X129795765Y-88823534D01*
X129807496Y-88784863D01*
X129826548Y-88749221D01*
X129852183Y-88717983D01*
X129883421Y-88692348D01*
X129919063Y-88673296D01*
X129957734Y-88661565D01*
X130004088Y-88657000D01*
X130655312Y-88657000D01*
X130701666Y-88661565D01*
X130701666Y-88661565D01*
G37*
G36*
X95941800Y-88350800D02*
X90839800Y-88350800D01*
X90839800Y-86748800D01*
X95941800Y-86748800D01*
X95941800Y-88350800D01*
X95941800Y-88350800D01*
G37*
G36*
X42876800Y-88342800D02*
X39774800Y-88342800D01*
X39774800Y-85240800D01*
X42876800Y-85240800D01*
X42876800Y-88342800D01*
X42876800Y-88342800D01*
G37*
G36*
X82312000Y-88326200D02*
X77210000Y-88326200D01*
X77210000Y-86724200D01*
X82312000Y-86724200D01*
X82312000Y-88326200D01*
X82312000Y-88326200D01*
G37*
G36*
X109998000Y-88325400D02*
X104896000Y-88325400D01*
X104896000Y-86723400D01*
X109998000Y-86723400D01*
X109998000Y-88325400D01*
X109998000Y-88325400D01*
G37*
G36*
X67244200Y-87941200D02*
X62142200Y-87941200D01*
X62142200Y-86339200D01*
X67244200Y-86339200D01*
X67244200Y-87941200D01*
X67244200Y-87941200D01*
G37*
G36*
X54519400Y-87792400D02*
X49417400Y-87792400D01*
X49417400Y-86190400D01*
X54519400Y-86190400D01*
X54519400Y-87792400D01*
X54519400Y-87792400D01*
G37*
G36*
X135467043Y-85313119D02*
X135533227Y-85319637D01*
X135646453Y-85353984D01*
X135703067Y-85371157D01*
X135841687Y-85445252D01*
X135859591Y-85454822D01*
X135895329Y-85484152D01*
X135996786Y-85567414D01*
X136080048Y-85668871D01*
X136109378Y-85704609D01*
X136109379Y-85704611D01*
X136193043Y-85861133D01*
X136193043Y-85861134D01*
X136244563Y-86030973D01*
X136261959Y-86207600D01*
X136244563Y-86384227D01*
X136210216Y-86497453D01*
X136193043Y-86554067D01*
X136118948Y-86692687D01*
X136109378Y-86710591D01*
X136098209Y-86724200D01*
X135996786Y-86847786D01*
X135895329Y-86931048D01*
X135859591Y-86960378D01*
X135859589Y-86960379D01*
X135703067Y-87044043D01*
X135646453Y-87061216D01*
X135533227Y-87095563D01*
X135467043Y-87102081D01*
X135400860Y-87108600D01*
X135312340Y-87108600D01*
X135246157Y-87102081D01*
X135179973Y-87095563D01*
X135066747Y-87061216D01*
X135010133Y-87044043D01*
X134853611Y-86960379D01*
X134853609Y-86960378D01*
X134817871Y-86931048D01*
X134716414Y-86847786D01*
X134614991Y-86724200D01*
X134603822Y-86710591D01*
X134594252Y-86692687D01*
X134520157Y-86554067D01*
X134502984Y-86497453D01*
X134468637Y-86384227D01*
X134451241Y-86207600D01*
X134468637Y-86030973D01*
X134520157Y-85861134D01*
X134520157Y-85861133D01*
X134603821Y-85704611D01*
X134603822Y-85704609D01*
X134633152Y-85668871D01*
X134716414Y-85567414D01*
X134817871Y-85484152D01*
X134853609Y-85454822D01*
X134871513Y-85445252D01*
X135010133Y-85371157D01*
X135066747Y-85353984D01*
X135179973Y-85319637D01*
X135246157Y-85313119D01*
X135312340Y-85306600D01*
X135400860Y-85306600D01*
X135467043Y-85313119D01*
X135467043Y-85313119D01*
G37*
G36*
X123557600Y-87108600D02*
X121755600Y-87108600D01*
X121755600Y-85306600D01*
X123557600Y-85306600D01*
X123557600Y-87108600D01*
X123557600Y-87108600D01*
G37*
G36*
X132927043Y-85313119D02*
X132993227Y-85319637D01*
X133106453Y-85353984D01*
X133163067Y-85371157D01*
X133301687Y-85445252D01*
X133319591Y-85454822D01*
X133355329Y-85484152D01*
X133456786Y-85567414D01*
X133540048Y-85668871D01*
X133569378Y-85704609D01*
X133569379Y-85704611D01*
X133653043Y-85861133D01*
X133653043Y-85861134D01*
X133704563Y-86030973D01*
X133721959Y-86207600D01*
X133704563Y-86384227D01*
X133670216Y-86497453D01*
X133653043Y-86554067D01*
X133578948Y-86692687D01*
X133569378Y-86710591D01*
X133558209Y-86724200D01*
X133456786Y-86847786D01*
X133355329Y-86931048D01*
X133319591Y-86960378D01*
X133319589Y-86960379D01*
X133163067Y-87044043D01*
X133106453Y-87061216D01*
X132993227Y-87095563D01*
X132927043Y-87102081D01*
X132860860Y-87108600D01*
X132772340Y-87108600D01*
X132706157Y-87102081D01*
X132639973Y-87095563D01*
X132526747Y-87061216D01*
X132470133Y-87044043D01*
X132313611Y-86960379D01*
X132313609Y-86960378D01*
X132277871Y-86931048D01*
X132176414Y-86847786D01*
X132074991Y-86724200D01*
X132063822Y-86710591D01*
X132054252Y-86692687D01*
X131980157Y-86554067D01*
X131962984Y-86497453D01*
X131928637Y-86384227D01*
X131911241Y-86207600D01*
X131928637Y-86030973D01*
X131980157Y-85861134D01*
X131980157Y-85861133D01*
X132063821Y-85704611D01*
X132063822Y-85704609D01*
X132093152Y-85668871D01*
X132176414Y-85567414D01*
X132277871Y-85484152D01*
X132313609Y-85454822D01*
X132331513Y-85445252D01*
X132470133Y-85371157D01*
X132526747Y-85353984D01*
X132639973Y-85319637D01*
X132706157Y-85313119D01*
X132772340Y-85306600D01*
X132860860Y-85306600D01*
X132927043Y-85313119D01*
X132927043Y-85313119D01*
G37*
G36*
X127847043Y-85313119D02*
X127913227Y-85319637D01*
X128026453Y-85353984D01*
X128083067Y-85371157D01*
X128221687Y-85445252D01*
X128239591Y-85454822D01*
X128275329Y-85484152D01*
X128376786Y-85567414D01*
X128460048Y-85668871D01*
X128489378Y-85704609D01*
X128489379Y-85704611D01*
X128573043Y-85861133D01*
X128573043Y-85861134D01*
X128624563Y-86030973D01*
X128641959Y-86207600D01*
X128624563Y-86384227D01*
X128590216Y-86497453D01*
X128573043Y-86554067D01*
X128498948Y-86692687D01*
X128489378Y-86710591D01*
X128478209Y-86724200D01*
X128376786Y-86847786D01*
X128275329Y-86931048D01*
X128239591Y-86960378D01*
X128239589Y-86960379D01*
X128083067Y-87044043D01*
X128026453Y-87061216D01*
X127913227Y-87095563D01*
X127847043Y-87102081D01*
X127780860Y-87108600D01*
X127692340Y-87108600D01*
X127626157Y-87102081D01*
X127559973Y-87095563D01*
X127446747Y-87061216D01*
X127390133Y-87044043D01*
X127233611Y-86960379D01*
X127233609Y-86960378D01*
X127197871Y-86931048D01*
X127096414Y-86847786D01*
X126994991Y-86724200D01*
X126983822Y-86710591D01*
X126974252Y-86692687D01*
X126900157Y-86554067D01*
X126882984Y-86497453D01*
X126848637Y-86384227D01*
X126831241Y-86207600D01*
X126848637Y-86030973D01*
X126900157Y-85861134D01*
X126900157Y-85861133D01*
X126983821Y-85704611D01*
X126983822Y-85704609D01*
X127013152Y-85668871D01*
X127096414Y-85567414D01*
X127197871Y-85484152D01*
X127233609Y-85454822D01*
X127251513Y-85445252D01*
X127390133Y-85371157D01*
X127446747Y-85353984D01*
X127559973Y-85319637D01*
X127626157Y-85313119D01*
X127692340Y-85306600D01*
X127780860Y-85306600D01*
X127847043Y-85313119D01*
X127847043Y-85313119D01*
G37*
G36*
X125307043Y-85313119D02*
X125373227Y-85319637D01*
X125486453Y-85353984D01*
X125543067Y-85371157D01*
X125681687Y-85445252D01*
X125699591Y-85454822D01*
X125735329Y-85484152D01*
X125836786Y-85567414D01*
X125920048Y-85668871D01*
X125949378Y-85704609D01*
X125949379Y-85704611D01*
X126033043Y-85861133D01*
X126033043Y-85861134D01*
X126084563Y-86030973D01*
X126101959Y-86207600D01*
X126084563Y-86384227D01*
X126050216Y-86497453D01*
X126033043Y-86554067D01*
X125958948Y-86692687D01*
X125949378Y-86710591D01*
X125938209Y-86724200D01*
X125836786Y-86847786D01*
X125735329Y-86931048D01*
X125699591Y-86960378D01*
X125699589Y-86960379D01*
X125543067Y-87044043D01*
X125486453Y-87061216D01*
X125373227Y-87095563D01*
X125307043Y-87102081D01*
X125240860Y-87108600D01*
X125152340Y-87108600D01*
X125086157Y-87102081D01*
X125019973Y-87095563D01*
X124906747Y-87061216D01*
X124850133Y-87044043D01*
X124693611Y-86960379D01*
X124693609Y-86960378D01*
X124657871Y-86931048D01*
X124556414Y-86847786D01*
X124454991Y-86724200D01*
X124443822Y-86710591D01*
X124434252Y-86692687D01*
X124360157Y-86554067D01*
X124342984Y-86497453D01*
X124308637Y-86384227D01*
X124291241Y-86207600D01*
X124308637Y-86030973D01*
X124360157Y-85861134D01*
X124360157Y-85861133D01*
X124443821Y-85704611D01*
X124443822Y-85704609D01*
X124473152Y-85668871D01*
X124556414Y-85567414D01*
X124657871Y-85484152D01*
X124693609Y-85454822D01*
X124711513Y-85445252D01*
X124850133Y-85371157D01*
X124906747Y-85353984D01*
X125019973Y-85319637D01*
X125086157Y-85313119D01*
X125152340Y-85306600D01*
X125240860Y-85306600D01*
X125307043Y-85313119D01*
X125307043Y-85313119D01*
G37*
G36*
X130387043Y-85313119D02*
X130453227Y-85319637D01*
X130566453Y-85353984D01*
X130623067Y-85371157D01*
X130761687Y-85445252D01*
X130779591Y-85454822D01*
X130815329Y-85484152D01*
X130916786Y-85567414D01*
X131000048Y-85668871D01*
X131029378Y-85704609D01*
X131029379Y-85704611D01*
X131113043Y-85861133D01*
X131113043Y-85861134D01*
X131164563Y-86030973D01*
X131181959Y-86207600D01*
X131164563Y-86384227D01*
X131130216Y-86497453D01*
X131113043Y-86554067D01*
X131038948Y-86692687D01*
X131029378Y-86710591D01*
X131018209Y-86724200D01*
X130916786Y-86847786D01*
X130815329Y-86931048D01*
X130779591Y-86960378D01*
X130779589Y-86960379D01*
X130623067Y-87044043D01*
X130566453Y-87061216D01*
X130453227Y-87095563D01*
X130387043Y-87102081D01*
X130320860Y-87108600D01*
X130232340Y-87108600D01*
X130166157Y-87102081D01*
X130099973Y-87095563D01*
X129986747Y-87061216D01*
X129930133Y-87044043D01*
X129773611Y-86960379D01*
X129773609Y-86960378D01*
X129737871Y-86931048D01*
X129636414Y-86847786D01*
X129534991Y-86724200D01*
X129523822Y-86710591D01*
X129514252Y-86692687D01*
X129440157Y-86554067D01*
X129422984Y-86497453D01*
X129388637Y-86384227D01*
X129371241Y-86207600D01*
X129388637Y-86030973D01*
X129440157Y-85861134D01*
X129440157Y-85861133D01*
X129523821Y-85704611D01*
X129523822Y-85704609D01*
X129553152Y-85668871D01*
X129636414Y-85567414D01*
X129737871Y-85484152D01*
X129773609Y-85454822D01*
X129791513Y-85445252D01*
X129930133Y-85371157D01*
X129986747Y-85353984D01*
X130099973Y-85319637D01*
X130166157Y-85313119D01*
X130232340Y-85306600D01*
X130320860Y-85306600D01*
X130387043Y-85313119D01*
X130387043Y-85313119D01*
G37*
G36*
X46686800Y-81911467D02*
X46777259Y-81929460D01*
X46913932Y-81986072D01*
X46970915Y-82024147D01*
X47036938Y-82068262D01*
X47141538Y-82172862D01*
X47141540Y-82172865D01*
X47223728Y-82295868D01*
X47280340Y-82432541D01*
X47309200Y-82577633D01*
X47309200Y-82725567D01*
X47280340Y-82870659D01*
X47223728Y-83007332D01*
X47142646Y-83128679D01*
X47141538Y-83130338D01*
X47036938Y-83234938D01*
X47036935Y-83234940D01*
X46913932Y-83317128D01*
X46777259Y-83373740D01*
X46690204Y-83391056D01*
X46632169Y-83402600D01*
X46484231Y-83402600D01*
X46426196Y-83391056D01*
X46339141Y-83373740D01*
X46202468Y-83317128D01*
X46079465Y-83234940D01*
X46079462Y-83234938D01*
X45974862Y-83130338D01*
X45973754Y-83128679D01*
X45892672Y-83007332D01*
X45836060Y-82870659D01*
X45807200Y-82725567D01*
X45807200Y-82577633D01*
X45836060Y-82432541D01*
X45892672Y-82295868D01*
X45974860Y-82172865D01*
X45974862Y-82172862D01*
X46079462Y-82068262D01*
X46145485Y-82024147D01*
X46202468Y-81986072D01*
X46339141Y-81929460D01*
X46429600Y-81911467D01*
X46484231Y-81900600D01*
X46632169Y-81900600D01*
X46686800Y-81911467D01*
X46686800Y-81911467D01*
G37*
G36*
X54251865Y-81904222D02*
X54325422Y-81911467D01*
X54466986Y-81954410D01*
X54597452Y-82024146D01*
X54711806Y-82117994D01*
X54805654Y-82232348D01*
X54875390Y-82362814D01*
X54918333Y-82504378D01*
X54932833Y-82651600D01*
X54918333Y-82798822D01*
X54875390Y-82940386D01*
X54805654Y-83070852D01*
X54711806Y-83185206D01*
X54597452Y-83279054D01*
X54466986Y-83348790D01*
X54325422Y-83391733D01*
X54251865Y-83398978D01*
X54215088Y-83402600D01*
X54141312Y-83402600D01*
X54104535Y-83398978D01*
X54030978Y-83391733D01*
X53889414Y-83348790D01*
X53758948Y-83279054D01*
X53644594Y-83185206D01*
X53550746Y-83070852D01*
X53481010Y-82940386D01*
X53438067Y-82798822D01*
X53423567Y-82651600D01*
X53438067Y-82504378D01*
X53481010Y-82362814D01*
X53550746Y-82232348D01*
X53644594Y-82117994D01*
X53758948Y-82024146D01*
X53889414Y-81954410D01*
X54030978Y-81911467D01*
X54104535Y-81904222D01*
X54141312Y-81900600D01*
X54215088Y-81900600D01*
X54251865Y-81904222D01*
X54251865Y-81904222D01*
G37*
G36*
X113647250Y-81154400D02*
X111449750Y-81154400D01*
X111449750Y-80341200D01*
X113647250Y-80341200D01*
X113647250Y-81154400D01*
X113647250Y-81154400D01*
G37*
G36*
X107651750Y-81154400D02*
X105454250Y-81154400D01*
X105454250Y-80341200D01*
X107651750Y-80341200D01*
X107651750Y-81154400D01*
X107651750Y-81154400D01*
G37*
G36*
X102520950Y-81154400D02*
X100323450Y-81154400D01*
X100323450Y-80341200D01*
X102520950Y-80341200D01*
X102520950Y-81154400D01*
X102520950Y-81154400D01*
G37*
G36*
X96525450Y-81154400D02*
X94327950Y-81154400D01*
X94327950Y-80341200D01*
X96525450Y-80341200D01*
X96525450Y-81154400D01*
X96525450Y-81154400D01*
G37*
G36*
X119157950Y-81103600D02*
X116960450Y-81103600D01*
X116960450Y-80290400D01*
X119157950Y-80290400D01*
X119157950Y-81103600D01*
X119157950Y-81103600D01*
G37*
G36*
X125153450Y-81103600D02*
X122955950Y-81103600D01*
X122955950Y-80290400D01*
X125153450Y-80290400D01*
X125153450Y-81103600D01*
X125153450Y-81103600D01*
G37*
G36*
X85934800Y-80445000D02*
X84932800Y-80445000D01*
X84932800Y-79943000D01*
X85934800Y-79943000D01*
X85934800Y-80445000D01*
X85934800Y-80445000D01*
G37*
G36*
X87634800Y-80445000D02*
X86632800Y-80445000D01*
X86632800Y-79943000D01*
X87634800Y-79943000D01*
X87634800Y-80445000D01*
X87634800Y-80445000D01*
G37*
G36*
X85934800Y-79645000D02*
X84932800Y-79645000D01*
X84932800Y-79143000D01*
X85934800Y-79143000D01*
X85934800Y-79645000D01*
X85934800Y-79645000D01*
G37*
G36*
X87634800Y-79645000D02*
X86632800Y-79645000D01*
X86632800Y-79143000D01*
X87634800Y-79143000D01*
X87634800Y-79645000D01*
X87634800Y-79645000D01*
G37*
G36*
X54404265Y-77738622D02*
X54477822Y-77745867D01*
X54619386Y-77788810D01*
X54749852Y-77858546D01*
X54864206Y-77952394D01*
X54958054Y-78066748D01*
X55027790Y-78197214D01*
X55070733Y-78338778D01*
X55085233Y-78486000D01*
X55070733Y-78633222D01*
X55027790Y-78774786D01*
X54958054Y-78905252D01*
X54864206Y-79019606D01*
X54749852Y-79113454D01*
X54619386Y-79183190D01*
X54477822Y-79226133D01*
X54404265Y-79233378D01*
X54367488Y-79237000D01*
X54293712Y-79237000D01*
X54256935Y-79233378D01*
X54183378Y-79226133D01*
X54041814Y-79183190D01*
X53911348Y-79113454D01*
X53796994Y-79019606D01*
X53703146Y-78905252D01*
X53633410Y-78774786D01*
X53590467Y-78633222D01*
X53575967Y-78486000D01*
X53590467Y-78338778D01*
X53633410Y-78197214D01*
X53703146Y-78066748D01*
X53796994Y-77952394D01*
X53911348Y-77858546D01*
X54041814Y-77788810D01*
X54183378Y-77745867D01*
X54256935Y-77738622D01*
X54293712Y-77735000D01*
X54367488Y-77735000D01*
X54404265Y-77738622D01*
X54404265Y-77738622D01*
G37*
G36*
X46839200Y-77745867D02*
X46929659Y-77763860D01*
X47066332Y-77820472D01*
X47123315Y-77858547D01*
X47189338Y-77902662D01*
X47293938Y-78007262D01*
X47293940Y-78007265D01*
X47376128Y-78130268D01*
X47432740Y-78266941D01*
X47461600Y-78412033D01*
X47461600Y-78559967D01*
X47432740Y-78705059D01*
X47376128Y-78841732D01*
X47295046Y-78963079D01*
X47293938Y-78964738D01*
X47189338Y-79069338D01*
X47189335Y-79069340D01*
X47066332Y-79151528D01*
X46929659Y-79208140D01*
X46842604Y-79225456D01*
X46784569Y-79237000D01*
X46636631Y-79237000D01*
X46578596Y-79225456D01*
X46491541Y-79208140D01*
X46354868Y-79151528D01*
X46231865Y-79069340D01*
X46231862Y-79069338D01*
X46127262Y-78964738D01*
X46126154Y-78963079D01*
X46045072Y-78841732D01*
X45988460Y-78705059D01*
X45959600Y-78559967D01*
X45959600Y-78412033D01*
X45988460Y-78266941D01*
X46045072Y-78130268D01*
X46127260Y-78007265D01*
X46127262Y-78007262D01*
X46231862Y-77902662D01*
X46297885Y-77858547D01*
X46354868Y-77820472D01*
X46491541Y-77763860D01*
X46582000Y-77745867D01*
X46636631Y-77735000D01*
X46784569Y-77735000D01*
X46839200Y-77745867D01*
X46839200Y-77745867D01*
G37*
G36*
X85934800Y-78845000D02*
X84932800Y-78845000D01*
X84932800Y-78343000D01*
X85934800Y-78343000D01*
X85934800Y-78845000D01*
X85934800Y-78845000D01*
G37*
G36*
X87634800Y-78845000D02*
X86632800Y-78845000D01*
X86632800Y-78343000D01*
X87634800Y-78343000D01*
X87634800Y-78845000D01*
X87634800Y-78845000D01*
G37*
G36*
X85934800Y-78045000D02*
X84932800Y-78045000D01*
X84932800Y-77543000D01*
X85934800Y-77543000D01*
X85934800Y-78045000D01*
X85934800Y-78045000D01*
G37*
G36*
X87634800Y-78045000D02*
X86632800Y-78045000D01*
X86632800Y-77543000D01*
X87634800Y-77543000D01*
X87634800Y-78045000D01*
X87634800Y-78045000D01*
G37*
G36*
X96525450Y-77343200D02*
X94327950Y-77343200D01*
X94327950Y-76530000D01*
X96525450Y-76530000D01*
X96525450Y-77343200D01*
X96525450Y-77343200D01*
G37*
G36*
X102520950Y-77343200D02*
X100323450Y-77343200D01*
X100323450Y-76530000D01*
X102520950Y-76530000D01*
X102520950Y-77343200D01*
X102520950Y-77343200D01*
G37*
G36*
X113647250Y-77343200D02*
X111449750Y-77343200D01*
X111449750Y-76530000D01*
X113647250Y-76530000D01*
X113647250Y-77343200D01*
X113647250Y-77343200D01*
G37*
G36*
X107651750Y-77343200D02*
X105454250Y-77343200D01*
X105454250Y-76530000D01*
X107651750Y-76530000D01*
X107651750Y-77343200D01*
X107651750Y-77343200D01*
G37*
G36*
X119157950Y-77292400D02*
X116960450Y-77292400D01*
X116960450Y-76479200D01*
X119157950Y-76479200D01*
X119157950Y-77292400D01*
X119157950Y-77292400D01*
G37*
G36*
X125153450Y-77292400D02*
X122955950Y-77292400D01*
X122955950Y-76479200D01*
X125153450Y-76479200D01*
X125153450Y-77292400D01*
X125153450Y-77292400D01*
G37*
M02*
