G04 #@! TF.GenerationSoftware,KiCad,Pcbnew,5.0.2-bee76a0~70~ubuntu16.04.1*
G04 #@! TF.CreationDate,2020-01-20T17:48:56-08:00*
G04 #@! TF.ProjectId,clock,636c6f63-6b2e-46b6-9963-61645f706362,rev?*
G04 #@! TF.SameCoordinates,Original*
G04 #@! TF.FileFunction,Profile,NP*
%FSLAX46Y46*%
G04 Gerber Fmt 4.6, Leading zero omitted, Abs format (unit mm)*
G04 Created by KiCad (PCBNEW 5.0.2-bee76a0~70~ubuntu16.04.1) date Mon 20 Jan 2020 17:48:56 PST*
%MOMM*%
%LPD*%
G01*
G04 APERTURE LIST*
%ADD10C,0.100000*%
G04 APERTURE END LIST*
D10*
X37261800Y-75162400D02*
X37261800Y-84175600D01*
X137261600Y-75162400D02*
X37261800Y-75162400D01*
X137261600Y-84150200D02*
X137261600Y-75162400D01*
X75573535Y-129046600D02*
X72273535Y-129046600D01*
X75573535Y-131146600D02*
X75573535Y-129046600D01*
X78940202Y-123946600D02*
X78940202Y-126046600D01*
X82240202Y-123946600D02*
X78940202Y-123946600D01*
X112273537Y-120946600D02*
X115573537Y-120946600D01*
X68906868Y-131146600D02*
X68906868Y-129046600D01*
X112273537Y-131146600D02*
X115573537Y-131146600D01*
X85606869Y-129046600D02*
X85606869Y-131146600D01*
X55573534Y-113746600D02*
X52273534Y-113746600D01*
X55573534Y-115846600D02*
X55573534Y-113746600D01*
X52273534Y-115846600D02*
X55573534Y-115846600D01*
X45606867Y-113746600D02*
X45606867Y-115846600D01*
X48906867Y-113746600D02*
X45606867Y-113746600D01*
X48906867Y-115846600D02*
X48906867Y-113746600D01*
X45606867Y-115846600D02*
X48906867Y-115846600D01*
X125606871Y-123946600D02*
X125606871Y-126046600D01*
X128906871Y-123946600D02*
X125606871Y-123946600D01*
X102240203Y-129046600D02*
X98940203Y-129046600D01*
X102240203Y-131146600D02*
X102240203Y-129046600D01*
X72273535Y-126046600D02*
X75573535Y-126046600D01*
X68906868Y-123946600D02*
X65606868Y-123946600D01*
X68906868Y-126046600D02*
X68906868Y-123946600D01*
X65606868Y-126046600D02*
X68906868Y-126046600D01*
X38940200Y-131146600D02*
X42240200Y-131146600D01*
X58940201Y-123946600D02*
X58940201Y-126046600D01*
X62240201Y-123946600D02*
X58940201Y-123946600D01*
X42240200Y-126046600D02*
X42240200Y-123946600D01*
X38940200Y-126046600D02*
X42240200Y-126046600D01*
X43073534Y-106546600D02*
X39773534Y-106546600D01*
X43073534Y-108646600D02*
X43073534Y-106546600D01*
X39773534Y-108646600D02*
X43073534Y-108646600D01*
X123106867Y-106546600D02*
X123106867Y-108646600D01*
X126406867Y-106546600D02*
X123106867Y-106546600D01*
X126406867Y-108646600D02*
X126406867Y-106546600D01*
X123106867Y-108646600D02*
X126406867Y-108646600D01*
X114773534Y-106546600D02*
X114773534Y-108646600D01*
X118073534Y-106546600D02*
X114773534Y-106546600D01*
X118073534Y-108646600D02*
X118073534Y-106546600D01*
X114773534Y-108646600D02*
X118073534Y-108646600D01*
X106440201Y-106546600D02*
X106440201Y-108646600D01*
X109740201Y-106546600D02*
X106440201Y-106546600D01*
X109740201Y-108646600D02*
X109740201Y-106546600D01*
X106440201Y-108646600D02*
X109740201Y-108646600D01*
X98940203Y-118846600D02*
X98940203Y-120946600D01*
X102240203Y-118846600D02*
X98940203Y-118846600D01*
X52273534Y-129046600D02*
X52273534Y-131146600D01*
X72273535Y-118846600D02*
X72273535Y-120946600D01*
X75573535Y-118846600D02*
X72273535Y-118846600D01*
X75573535Y-120946600D02*
X75573535Y-118846600D01*
X72273535Y-120946600D02*
X75573535Y-120946600D01*
X78940202Y-129046600D02*
X78940202Y-131146600D01*
X55573534Y-120946600D02*
X55573534Y-118846600D01*
X52273534Y-120946600D02*
X55573534Y-120946600D01*
X48906867Y-129046600D02*
X45606867Y-129046600D01*
X112273537Y-123946600D02*
X112273537Y-126046600D01*
X115573537Y-123946600D02*
X112273537Y-123946600D01*
X98106868Y-106546600D02*
X98106868Y-108646600D01*
X101406868Y-106546600D02*
X98106868Y-106546600D01*
X101406868Y-108646600D02*
X101406868Y-106546600D01*
X98106868Y-108646600D02*
X101406868Y-108646600D01*
X89773535Y-106546600D02*
X89773535Y-108646600D01*
X65606868Y-123946600D02*
X65606868Y-126046600D01*
X93073535Y-106546600D02*
X89773535Y-106546600D01*
X93073535Y-108646600D02*
X93073535Y-106546600D01*
X89773535Y-108646600D02*
X93073535Y-108646600D01*
X81440202Y-106546600D02*
X81440202Y-108646600D01*
X84740202Y-106546600D02*
X81440202Y-106546600D01*
X84740202Y-108646600D02*
X84740202Y-106546600D01*
X81440202Y-108646600D02*
X84740202Y-108646600D01*
X88906869Y-123946600D02*
X85606869Y-123946600D01*
X88906869Y-126046600D02*
X88906869Y-123946600D01*
X85606869Y-126046600D02*
X88906869Y-126046600D01*
X52273534Y-123946600D02*
X52273534Y-126046600D01*
X55573534Y-123946600D02*
X52273534Y-123946600D01*
X55573534Y-126046600D02*
X55573534Y-123946600D01*
X65606868Y-118846600D02*
X65606868Y-120946600D01*
X68906868Y-118846600D02*
X65606868Y-118846600D01*
X68906868Y-120946600D02*
X68906868Y-118846600D01*
X65606868Y-120946600D02*
X68906868Y-120946600D01*
X118940204Y-129046600D02*
X118940204Y-131146600D01*
X95573536Y-129046600D02*
X92273536Y-129046600D01*
X95573536Y-131146600D02*
X95573536Y-129046600D01*
X42240200Y-131146600D02*
X42240200Y-129046600D01*
X98940203Y-131146600D02*
X102240203Y-131146600D01*
X132273538Y-118846600D02*
X132273538Y-120946600D01*
X135573538Y-118846600D02*
X132273538Y-118846600D01*
X135573538Y-120946600D02*
X135573538Y-118846600D01*
X132273538Y-120946600D02*
X135573538Y-120946600D01*
X102240203Y-120946600D02*
X102240203Y-118846600D01*
X98940203Y-120946600D02*
X102240203Y-120946600D01*
X112273537Y-113746600D02*
X112273537Y-115846600D01*
X115573537Y-113746600D02*
X112273537Y-113746600D01*
X115573537Y-115846600D02*
X115573537Y-113746600D01*
X112273537Y-115846600D02*
X115573537Y-115846600D01*
X105606870Y-113746600D02*
X105606870Y-115846600D01*
X108906870Y-113746600D02*
X105606870Y-113746600D01*
X108906870Y-115846600D02*
X108906870Y-113746600D01*
X105606870Y-115846600D02*
X108906870Y-115846600D01*
X98940203Y-113746600D02*
X98940203Y-115846600D01*
X102240203Y-113746600D02*
X98940203Y-113746600D01*
X102240203Y-115846600D02*
X102240203Y-113746600D01*
X98940203Y-115846600D02*
X102240203Y-115846600D01*
X64773536Y-106546600D02*
X64773536Y-108646600D01*
X68073536Y-106546600D02*
X64773536Y-106546600D01*
X68073536Y-108646600D02*
X68073536Y-106546600D01*
X64773536Y-108646600D02*
X68073536Y-108646600D01*
X38940200Y-123946600D02*
X38940200Y-126046600D01*
X42240200Y-123946600D02*
X38940200Y-123946600D01*
X45606867Y-126046600D02*
X48906867Y-126046600D01*
X85606869Y-131146600D02*
X88906869Y-131146600D01*
X137256867Y-134146600D02*
X137256867Y-84146600D01*
X38940200Y-113746600D02*
X38940200Y-115846600D01*
X42240200Y-113746600D02*
X38940200Y-113746600D01*
X42240200Y-115846600D02*
X42240200Y-113746600D01*
X38940200Y-115846600D02*
X42240200Y-115846600D01*
X131440200Y-106546600D02*
X131440200Y-108646600D01*
X134740200Y-106546600D02*
X131440200Y-106546600D01*
X134740200Y-108646600D02*
X134740200Y-106546600D01*
X131440200Y-108646600D02*
X134740200Y-108646600D01*
X88906869Y-118846600D02*
X85606869Y-118846600D01*
X88906869Y-120946600D02*
X88906869Y-118846600D01*
X85606869Y-120946600D02*
X88906869Y-120946600D01*
X132273538Y-113746600D02*
X132273538Y-115846600D01*
X135573538Y-113746600D02*
X132273538Y-113746600D01*
X135573538Y-115846600D02*
X135573538Y-113746600D01*
X132273538Y-115846600D02*
X135573538Y-115846600D01*
X125606871Y-113746600D02*
X125606871Y-115846600D01*
X128906871Y-113746600D02*
X125606871Y-113746600D01*
X128906871Y-115846600D02*
X128906871Y-113746600D01*
X125606871Y-115846600D02*
X128906871Y-115846600D01*
X118940204Y-113746600D02*
X118940204Y-115846600D01*
X122240204Y-113746600D02*
X118940204Y-113746600D01*
X122240204Y-115846600D02*
X122240204Y-113746600D01*
X118940204Y-115846600D02*
X122240204Y-115846600D01*
X102240203Y-123946600D02*
X98940203Y-123946600D01*
X102240203Y-126046600D02*
X102240203Y-123946600D01*
X98940203Y-126046600D02*
X102240203Y-126046600D01*
X73106869Y-106546600D02*
X73106869Y-108646600D01*
X76406869Y-106546600D02*
X73106869Y-106546600D01*
X76406869Y-108646600D02*
X76406869Y-106546600D01*
X73106869Y-108646600D02*
X76406869Y-108646600D01*
X78940202Y-118846600D02*
X78940202Y-120946600D01*
X82240202Y-118846600D02*
X78940202Y-118846600D01*
X78940202Y-113746600D02*
X78940202Y-115846600D01*
X82240202Y-113746600D02*
X78940202Y-113746600D01*
X82240202Y-115846600D02*
X82240202Y-113746600D01*
X78940202Y-115846600D02*
X82240202Y-115846600D01*
X72273535Y-113746600D02*
X72273535Y-115846600D01*
X75573535Y-113746600D02*
X72273535Y-113746600D01*
X75573535Y-115846600D02*
X75573535Y-113746600D01*
X72273535Y-115846600D02*
X75573535Y-115846600D01*
X125606871Y-131146600D02*
X128906871Y-131146600D01*
X98940203Y-123946600D02*
X98940203Y-126046600D01*
X72273535Y-131146600D02*
X75573535Y-131146600D01*
X135573538Y-129046600D02*
X132273538Y-129046600D01*
X135573538Y-131146600D02*
X135573538Y-129046600D01*
X132273538Y-131146600D02*
X135573538Y-131146600D01*
X37256867Y-84146600D02*
X37256867Y-134146600D01*
X92273536Y-113746600D02*
X92273536Y-115846600D01*
X95573536Y-113746600D02*
X92273536Y-113746600D01*
X95573536Y-115846600D02*
X95573536Y-113746600D01*
X92273536Y-115846600D02*
X95573536Y-115846600D01*
X85606869Y-113746600D02*
X85606869Y-115846600D01*
X88906869Y-113746600D02*
X85606869Y-113746600D01*
X88906869Y-115846600D02*
X88906869Y-113746600D01*
X85606869Y-115846600D02*
X88906869Y-115846600D01*
X112273537Y-129046600D02*
X112273537Y-131146600D01*
X78940202Y-131146600D02*
X82240202Y-131146600D01*
X82240202Y-120946600D02*
X82240202Y-118846600D01*
X78940202Y-120946600D02*
X82240202Y-120946600D01*
X55573534Y-129046600D02*
X52273534Y-129046600D01*
X132273538Y-129046600D02*
X132273538Y-131146600D01*
X92273536Y-131146600D02*
X95573536Y-131146600D01*
X58940201Y-129046600D02*
X58940201Y-131146600D01*
X42240200Y-120946600D02*
X42240200Y-118846600D01*
X38940200Y-120946600D02*
X42240200Y-120946600D01*
X115573537Y-129046600D02*
X112273537Y-129046600D01*
X115573537Y-131146600D02*
X115573537Y-129046600D01*
X122240204Y-126046600D02*
X122240204Y-123946600D01*
X118940204Y-126046600D02*
X122240204Y-126046600D01*
X42240200Y-129046600D02*
X38940200Y-129046600D01*
X118940204Y-131146600D02*
X122240204Y-131146600D01*
X52273534Y-126046600D02*
X55573534Y-126046600D01*
X55573534Y-131146600D02*
X55573534Y-129046600D01*
X65606868Y-131146600D02*
X68906868Y-131146600D01*
X92273536Y-123946600D02*
X92273536Y-126046600D01*
X95573536Y-123946600D02*
X92273536Y-123946600D01*
X95573536Y-126046600D02*
X95573536Y-123946600D01*
X51406867Y-108646600D02*
X51406867Y-106546600D01*
X48106867Y-108646600D02*
X51406867Y-108646600D01*
X39773534Y-106546600D02*
X39773534Y-108646600D01*
X92273536Y-126046600D02*
X95573536Y-126046600D01*
X45606867Y-129046600D02*
X45606867Y-131146600D01*
X82240202Y-126046600D02*
X82240202Y-123946600D01*
X78940202Y-126046600D02*
X82240202Y-126046600D01*
X115573537Y-126046600D02*
X115573537Y-123946600D01*
X82240202Y-129046600D02*
X78940202Y-129046600D01*
X82240202Y-131146600D02*
X82240202Y-129046600D01*
X125606871Y-118846600D02*
X125606871Y-120946600D01*
X128906871Y-118846600D02*
X125606871Y-118846600D01*
X128906871Y-120946600D02*
X128906871Y-118846600D01*
X85606869Y-123946600D02*
X85606869Y-126046600D01*
X48906867Y-120946600D02*
X48906867Y-118846600D01*
X45606867Y-120946600D02*
X48906867Y-120946600D01*
X45606867Y-131146600D02*
X48906867Y-131146600D01*
X105606870Y-131146600D02*
X108906870Y-131146600D01*
X72273535Y-123946600D02*
X72273535Y-126046600D01*
X75573535Y-123946600D02*
X72273535Y-123946600D01*
X75573535Y-126046600D02*
X75573535Y-123946600D01*
X85606869Y-118846600D02*
X85606869Y-120946600D01*
X48906867Y-131146600D02*
X48906867Y-129046600D01*
X62240201Y-118846600D02*
X58940201Y-118846600D01*
X62240201Y-120946600D02*
X62240201Y-118846600D01*
X58940201Y-120946600D02*
X62240201Y-120946600D01*
X92273536Y-118846600D02*
X92273536Y-120946600D01*
X95573536Y-118846600D02*
X92273536Y-118846600D01*
X95573536Y-120946600D02*
X95573536Y-118846600D01*
X92273536Y-120946600D02*
X95573536Y-120946600D01*
X128906871Y-126046600D02*
X128906871Y-123946600D01*
X125606871Y-126046600D02*
X128906871Y-126046600D01*
X45606867Y-123946600D02*
X45606867Y-126046600D01*
X65606868Y-113746600D02*
X65606868Y-115846600D01*
X68906868Y-113746600D02*
X65606868Y-113746600D01*
X68906868Y-115846600D02*
X68906868Y-113746600D01*
X65606868Y-115846600D02*
X68906868Y-115846600D01*
X58940201Y-113746600D02*
X58940201Y-115846600D01*
X62240201Y-113746600D02*
X58940201Y-113746600D01*
X62240201Y-115846600D02*
X62240201Y-113746600D01*
X58940201Y-115846600D02*
X62240201Y-115846600D01*
X52273534Y-113746600D02*
X52273534Y-115846600D01*
X132273538Y-123946600D02*
X132273538Y-126046600D01*
X135573538Y-123946600D02*
X132273538Y-123946600D01*
X135573538Y-126046600D02*
X135573538Y-123946600D01*
X132273538Y-126046600D02*
X135573538Y-126046600D01*
X48906867Y-123946600D02*
X45606867Y-123946600D01*
X48906867Y-126046600D02*
X48906867Y-123946600D01*
X58940201Y-131146600D02*
X62240201Y-131146600D01*
X62240201Y-131146600D02*
X62240201Y-129046600D01*
X112273537Y-126046600D02*
X115573537Y-126046600D01*
X105606870Y-123946600D02*
X105606870Y-126046600D01*
X108906870Y-123946600D02*
X105606870Y-123946600D01*
X122240204Y-129046600D02*
X118940204Y-129046600D01*
X122240204Y-131146600D02*
X122240204Y-129046600D01*
X92273536Y-129046600D02*
X92273536Y-131146600D01*
X52273534Y-118846600D02*
X52273534Y-120946600D01*
X55573534Y-118846600D02*
X52273534Y-118846600D01*
X125606871Y-120946600D02*
X128906871Y-120946600D01*
X118940204Y-118846600D02*
X118940204Y-120946600D01*
X122240204Y-118846600D02*
X118940204Y-118846600D01*
X122240204Y-120946600D02*
X122240204Y-118846600D01*
X118940204Y-120946600D02*
X122240204Y-120946600D01*
X112273537Y-118846600D02*
X112273537Y-120946600D01*
X115573537Y-118846600D02*
X112273537Y-118846600D01*
X115573537Y-120946600D02*
X115573537Y-118846600D01*
X105606870Y-118846600D02*
X105606870Y-120946600D01*
X108906870Y-118846600D02*
X105606870Y-118846600D01*
X108906870Y-120946600D02*
X108906870Y-118846600D01*
X105606870Y-120946600D02*
X108906870Y-120946600D01*
X108906870Y-126046600D02*
X108906870Y-123946600D01*
X105606870Y-126046600D02*
X108906870Y-126046600D01*
X125606871Y-129046600D02*
X125606871Y-131146600D01*
X128906871Y-129046600D02*
X125606871Y-129046600D01*
X128906871Y-131146600D02*
X128906871Y-129046600D01*
X105606870Y-129046600D02*
X105606870Y-131146600D01*
X72273535Y-129046600D02*
X72273535Y-131146600D01*
X118940204Y-123946600D02*
X118940204Y-126046600D01*
X122240204Y-123946600D02*
X118940204Y-123946600D01*
X62240201Y-129046600D02*
X58940201Y-129046600D01*
X56440200Y-106546600D02*
X56440200Y-108646600D01*
X59740200Y-106546600D02*
X56440200Y-106546600D01*
X59740200Y-108646600D02*
X59740200Y-106546600D01*
X56440200Y-108646600D02*
X59740200Y-108646600D01*
X48106867Y-106546600D02*
X48106867Y-108646600D01*
X51406867Y-106546600D02*
X48106867Y-106546600D01*
X58940201Y-118846600D02*
X58940201Y-120946600D01*
X88906869Y-129046600D02*
X85606869Y-129046600D01*
X88906869Y-131146600D02*
X88906869Y-129046600D01*
X62240201Y-126046600D02*
X62240201Y-123946600D01*
X58940201Y-126046600D02*
X62240201Y-126046600D01*
X65606868Y-129046600D02*
X65606868Y-131146600D01*
X68906868Y-129046600D02*
X65606868Y-129046600D01*
X38940200Y-129046600D02*
X38940200Y-131146600D01*
X98940203Y-129046600D02*
X98940203Y-131146600D01*
X108906870Y-129046600D02*
X105606870Y-129046600D01*
X108906870Y-131146600D02*
X108906870Y-129046600D01*
X37256867Y-134146600D02*
X137256867Y-134146600D01*
X45606867Y-118846600D02*
X45606867Y-120946600D01*
X48906867Y-118846600D02*
X45606867Y-118846600D01*
X52273534Y-131146600D02*
X55573534Y-131146600D01*
X38940200Y-118846600D02*
X38940200Y-120946600D01*
X42240200Y-118846600D02*
X38940200Y-118846600D01*
M02*
