G04 #@! TF.GenerationSoftware,KiCad,Pcbnew,5.0.2-bee76a0~70~ubuntu16.04.1*
G04 #@! TF.CreationDate,2020-01-03T14:39:20-08:00*
G04 #@! TF.ProjectId,Cap_touch_test,4361705f-746f-4756-9368-5f746573742e,rev?*
G04 #@! TF.SameCoordinates,Original*
G04 #@! TF.FileFunction,Copper,L1,Top*
G04 #@! TF.FilePolarity,Positive*
%FSLAX46Y46*%
G04 Gerber Fmt 4.6, Leading zero omitted, Abs format (unit mm)*
G04 Created by KiCad (PCBNEW 5.0.2-bee76a0~70~ubuntu16.04.1) date Fri 03 Jan 2020 14:39:20 PST*
%MOMM*%
%LPD*%
G01*
G04 APERTURE LIST*
G04 #@! TA.AperFunction,NonConductor*
%ADD10C,0.300000*%
G04 #@! TD*
G04 #@! TA.AperFunction,EtchedComponent*
%ADD11C,0.150000*%
G04 #@! TD*
G04 #@! TA.AperFunction,Conductor*
%ADD12C,0.100000*%
G04 #@! TD*
G04 #@! TA.AperFunction,SMDPad,CuDef*
%ADD13C,0.975000*%
G04 #@! TD*
G04 #@! TA.AperFunction,ComponentPad*
%ADD14R,1.000000X1.000000*%
G04 #@! TD*
G04 #@! TA.AperFunction,ComponentPad*
%ADD15O,1.000000X1.000000*%
G04 #@! TD*
G04 #@! TA.AperFunction,ComponentPad*
%ADD16R,3.000000X3.000000*%
G04 #@! TD*
G04 #@! TA.AperFunction,ComponentPad*
%ADD17C,3.000000*%
G04 #@! TD*
G04 #@! TA.AperFunction,SMDPad,CuDef*
%ADD18R,0.400000X0.900000*%
G04 #@! TD*
G04 #@! TA.AperFunction,SMDPad,CuDef*
%ADD19R,0.400000X1.100000*%
G04 #@! TD*
G04 #@! TA.AperFunction,SMDPad,CuDef*
%ADD20R,1.524000X1.524000*%
G04 #@! TD*
G04 #@! TA.AperFunction,ViaPad*
%ADD21C,0.800000*%
G04 #@! TD*
G04 #@! TA.AperFunction,Conductor*
%ADD22C,0.250000*%
G04 #@! TD*
G04 APERTURE END LIST*
D10*
X85543857Y-53240714D02*
X85472428Y-53312142D01*
X85258142Y-53383571D01*
X85115285Y-53383571D01*
X84901000Y-53312142D01*
X84758142Y-53169285D01*
X84686714Y-53026428D01*
X84615285Y-52740714D01*
X84615285Y-52526428D01*
X84686714Y-52240714D01*
X84758142Y-52097857D01*
X84901000Y-51955000D01*
X85115285Y-51883571D01*
X85258142Y-51883571D01*
X85472428Y-51955000D01*
X85543857Y-52026428D01*
X86829571Y-53383571D02*
X86829571Y-52597857D01*
X86758142Y-52455000D01*
X86615285Y-52383571D01*
X86329571Y-52383571D01*
X86186714Y-52455000D01*
X86829571Y-53312142D02*
X86686714Y-53383571D01*
X86329571Y-53383571D01*
X86186714Y-53312142D01*
X86115285Y-53169285D01*
X86115285Y-53026428D01*
X86186714Y-52883571D01*
X86329571Y-52812142D01*
X86686714Y-52812142D01*
X86829571Y-52740714D01*
X87543857Y-52383571D02*
X87543857Y-53883571D01*
X87543857Y-52455000D02*
X87686714Y-52383571D01*
X87972428Y-52383571D01*
X88115285Y-52455000D01*
X88186714Y-52526428D01*
X88258142Y-52669285D01*
X88258142Y-53097857D01*
X88186714Y-53240714D01*
X88115285Y-53312142D01*
X87972428Y-53383571D01*
X87686714Y-53383571D01*
X87543857Y-53312142D01*
X89829571Y-51883571D02*
X90686714Y-51883571D01*
X90258142Y-53383571D02*
X90258142Y-51883571D01*
X91401000Y-53383571D02*
X91258142Y-53312142D01*
X91186714Y-53240714D01*
X91115285Y-53097857D01*
X91115285Y-52669285D01*
X91186714Y-52526428D01*
X91258142Y-52455000D01*
X91401000Y-52383571D01*
X91615285Y-52383571D01*
X91758142Y-52455000D01*
X91829571Y-52526428D01*
X91901000Y-52669285D01*
X91901000Y-53097857D01*
X91829571Y-53240714D01*
X91758142Y-53312142D01*
X91615285Y-53383571D01*
X91401000Y-53383571D01*
X93186714Y-52383571D02*
X93186714Y-53383571D01*
X92543857Y-52383571D02*
X92543857Y-53169285D01*
X92615285Y-53312142D01*
X92758142Y-53383571D01*
X92972428Y-53383571D01*
X93115285Y-53312142D01*
X93186714Y-53240714D01*
X94543857Y-53312142D02*
X94401000Y-53383571D01*
X94115285Y-53383571D01*
X93972428Y-53312142D01*
X93901000Y-53240714D01*
X93829571Y-53097857D01*
X93829571Y-52669285D01*
X93901000Y-52526428D01*
X93972428Y-52455000D01*
X94115285Y-52383571D01*
X94401000Y-52383571D01*
X94543857Y-52455000D01*
X95186714Y-53383571D02*
X95186714Y-51883571D01*
X95829571Y-53383571D02*
X95829571Y-52597857D01*
X95758142Y-52455000D01*
X95615285Y-52383571D01*
X95401000Y-52383571D01*
X95258142Y-52455000D01*
X95186714Y-52526428D01*
X97472428Y-51883571D02*
X98329571Y-51883571D01*
X97901000Y-53383571D02*
X97901000Y-51883571D01*
X99401000Y-53312142D02*
X99258142Y-53383571D01*
X98972428Y-53383571D01*
X98829571Y-53312142D01*
X98758142Y-53169285D01*
X98758142Y-52597857D01*
X98829571Y-52455000D01*
X98972428Y-52383571D01*
X99258142Y-52383571D01*
X99401000Y-52455000D01*
X99472428Y-52597857D01*
X99472428Y-52740714D01*
X98758142Y-52883571D01*
X100043857Y-53312142D02*
X100186714Y-53383571D01*
X100472428Y-53383571D01*
X100615285Y-53312142D01*
X100686714Y-53169285D01*
X100686714Y-53097857D01*
X100615285Y-52955000D01*
X100472428Y-52883571D01*
X100258142Y-52883571D01*
X100115285Y-52812142D01*
X100043857Y-52669285D01*
X100043857Y-52597857D01*
X100115285Y-52455000D01*
X100258142Y-52383571D01*
X100472428Y-52383571D01*
X100615285Y-52455000D01*
X101115285Y-52383571D02*
X101686714Y-52383571D01*
X101329571Y-51883571D02*
X101329571Y-53169285D01*
X101401000Y-53312142D01*
X101543857Y-53383571D01*
X101686714Y-53383571D01*
X103829571Y-52597857D02*
X104043857Y-52669285D01*
X104115285Y-52740714D01*
X104186714Y-52883571D01*
X104186714Y-53097857D01*
X104115285Y-53240714D01*
X104043857Y-53312142D01*
X103901000Y-53383571D01*
X103329571Y-53383571D01*
X103329571Y-51883571D01*
X103829571Y-51883571D01*
X103972428Y-51955000D01*
X104043857Y-52026428D01*
X104115285Y-52169285D01*
X104115285Y-52312142D01*
X104043857Y-52455000D01*
X103972428Y-52526428D01*
X103829571Y-52597857D01*
X103329571Y-52597857D01*
X105043857Y-53383571D02*
X104901000Y-53312142D01*
X104829571Y-53240714D01*
X104758142Y-53097857D01*
X104758142Y-52669285D01*
X104829571Y-52526428D01*
X104901000Y-52455000D01*
X105043857Y-52383571D01*
X105258142Y-52383571D01*
X105401000Y-52455000D01*
X105472428Y-52526428D01*
X105543857Y-52669285D01*
X105543857Y-53097857D01*
X105472428Y-53240714D01*
X105401000Y-53312142D01*
X105258142Y-53383571D01*
X105043857Y-53383571D01*
X106829571Y-53383571D02*
X106829571Y-52597857D01*
X106758142Y-52455000D01*
X106615285Y-52383571D01*
X106329571Y-52383571D01*
X106186714Y-52455000D01*
X106829571Y-53312142D02*
X106686714Y-53383571D01*
X106329571Y-53383571D01*
X106186714Y-53312142D01*
X106115285Y-53169285D01*
X106115285Y-53026428D01*
X106186714Y-52883571D01*
X106329571Y-52812142D01*
X106686714Y-52812142D01*
X106829571Y-52740714D01*
X107543857Y-53383571D02*
X107543857Y-52383571D01*
X107543857Y-52669285D02*
X107615285Y-52526428D01*
X107686714Y-52455000D01*
X107829571Y-52383571D01*
X107972428Y-52383571D01*
X109115285Y-53383571D02*
X109115285Y-51883571D01*
X109115285Y-53312142D02*
X108972428Y-53383571D01*
X108686714Y-53383571D01*
X108543857Y-53312142D01*
X108472428Y-53240714D01*
X108401000Y-53097857D01*
X108401000Y-52669285D01*
X108472428Y-52526428D01*
X108543857Y-52455000D01*
X108686714Y-52383571D01*
X108972428Y-52383571D01*
X109115285Y-52455000D01*
D11*
G04 #@! TO.C,C2*
G36*
X65455800Y-47828200D02*
X76123800Y-47828200D01*
X76123800Y-58496200D01*
X65455800Y-58496200D01*
X65455800Y-57988200D01*
X75615800Y-57988200D01*
X75615800Y-56718200D01*
X65455800Y-56718200D01*
X65455800Y-56210200D01*
X75615800Y-56210200D01*
X75615800Y-54940200D01*
X65455800Y-54940200D01*
X65455800Y-54432200D01*
X75615800Y-54432200D01*
X75615800Y-53162200D01*
X65455800Y-53162200D01*
X65455800Y-52654200D01*
X75615800Y-52654200D01*
X75615800Y-51384200D01*
X65455800Y-51384200D01*
X65455800Y-50876200D01*
X75615800Y-50876200D01*
X75615800Y-49606200D01*
X65455800Y-49606200D01*
X65455800Y-49098200D01*
X75615800Y-49098200D01*
X75615800Y-47828200D01*
X65455800Y-47828200D01*
G37*
X65455800Y-47828200D02*
X76123800Y-47828200D01*
X76123800Y-58496200D01*
X65455800Y-58496200D01*
X65455800Y-57988200D01*
X75615800Y-57988200D01*
X75615800Y-56718200D01*
X65455800Y-56718200D01*
X65455800Y-56210200D01*
X75615800Y-56210200D01*
X75615800Y-54940200D01*
X65455800Y-54940200D01*
X65455800Y-54432200D01*
X75615800Y-54432200D01*
X75615800Y-53162200D01*
X65455800Y-53162200D01*
X65455800Y-52654200D01*
X75615800Y-52654200D01*
X75615800Y-51384200D01*
X65455800Y-51384200D01*
X65455800Y-50876200D01*
X75615800Y-50876200D01*
X75615800Y-49606200D01*
X65455800Y-49606200D01*
X65455800Y-49098200D01*
X75615800Y-49098200D01*
X75615800Y-47828200D01*
X65455800Y-47828200D01*
G36*
X65455800Y-47828200D02*
X65455800Y-47574200D01*
X76123800Y-47574200D01*
X76123800Y-47828200D01*
X74599800Y-47828200D01*
X65455800Y-47828200D01*
G37*
X65455800Y-47828200D02*
X65455800Y-47574200D01*
X76123800Y-47574200D01*
X76123800Y-47828200D01*
X74599800Y-47828200D01*
X65455800Y-47828200D01*
G36*
X65455800Y-57988200D02*
X65455800Y-58496200D01*
X64947800Y-58496200D01*
X64947800Y-57988200D01*
X65455800Y-57988200D01*
G37*
X65455800Y-57988200D02*
X65455800Y-58496200D01*
X64947800Y-58496200D01*
X64947800Y-57988200D01*
X65455800Y-57988200D01*
G36*
X64947800Y-47828200D02*
X64947800Y-48336200D01*
X75107800Y-48336200D01*
X75107800Y-48590200D01*
X64947800Y-48590200D01*
X64947800Y-50114200D01*
X75107800Y-50114200D01*
X75107800Y-50368200D01*
X64947800Y-50368200D01*
X64947800Y-51892200D01*
X75107800Y-51892200D01*
X75107800Y-52146200D01*
X64947800Y-52146200D01*
X64947800Y-53670200D01*
X75107800Y-53670200D01*
X75107800Y-53924200D01*
X64947800Y-53924200D01*
X64947800Y-55448200D01*
X75107800Y-55448200D01*
X75107800Y-55702200D01*
X64947800Y-55702200D01*
X64947800Y-57226200D01*
X75107800Y-57226200D01*
X75107800Y-57480200D01*
X64947800Y-57480200D01*
X64693800Y-57480200D01*
X64693800Y-47828200D01*
X64947800Y-47828200D01*
G37*
X64947800Y-47828200D02*
X64947800Y-48336200D01*
X75107800Y-48336200D01*
X75107800Y-48590200D01*
X64947800Y-48590200D01*
X64947800Y-50114200D01*
X75107800Y-50114200D01*
X75107800Y-50368200D01*
X64947800Y-50368200D01*
X64947800Y-51892200D01*
X75107800Y-51892200D01*
X75107800Y-52146200D01*
X64947800Y-52146200D01*
X64947800Y-53670200D01*
X75107800Y-53670200D01*
X75107800Y-53924200D01*
X64947800Y-53924200D01*
X64947800Y-55448200D01*
X75107800Y-55448200D01*
X75107800Y-55702200D01*
X64947800Y-55702200D01*
X64947800Y-57226200D01*
X75107800Y-57226200D01*
X75107800Y-57480200D01*
X64947800Y-57480200D01*
X64693800Y-57480200D01*
X64693800Y-47828200D01*
X64947800Y-47828200D01*
G36*
X64947800Y-57988200D02*
X64947800Y-58496200D01*
X64693800Y-58496200D01*
X64693800Y-57988200D01*
X64947800Y-57988200D01*
G37*
X64947800Y-57988200D02*
X64947800Y-58496200D01*
X64693800Y-58496200D01*
X64693800Y-57988200D01*
X64947800Y-57988200D01*
G04 #@! TO.C,C3*
G36*
X46278800Y-47599600D02*
X45770800Y-47599600D01*
X45770800Y-47345600D01*
X46278800Y-47345600D01*
X46278800Y-47599600D01*
G37*
X46278800Y-47599600D02*
X45770800Y-47599600D01*
X45770800Y-47345600D01*
X46278800Y-47345600D01*
X46278800Y-47599600D01*
G36*
X56438800Y-47599600D02*
X55930800Y-47599600D01*
X55930800Y-57759600D01*
X55676800Y-57759600D01*
X55676800Y-47599600D01*
X54152800Y-47599600D01*
X54152800Y-57759600D01*
X53898800Y-57759600D01*
X53898800Y-47599600D01*
X52374800Y-47599600D01*
X52374800Y-57759600D01*
X52120800Y-57759600D01*
X52120800Y-47599600D01*
X50596800Y-47599600D01*
X50596800Y-57759600D01*
X50342800Y-57759600D01*
X50342800Y-47599600D01*
X48818800Y-47599600D01*
X48818800Y-57759600D01*
X48564800Y-57759600D01*
X48564800Y-47599600D01*
X47040800Y-47599600D01*
X47040800Y-57759600D01*
X46786800Y-57759600D01*
X46786800Y-47599600D01*
X46786800Y-47345600D01*
X56438800Y-47345600D01*
X56438800Y-47599600D01*
G37*
X56438800Y-47599600D02*
X55930800Y-47599600D01*
X55930800Y-57759600D01*
X55676800Y-57759600D01*
X55676800Y-47599600D01*
X54152800Y-47599600D01*
X54152800Y-57759600D01*
X53898800Y-57759600D01*
X53898800Y-47599600D01*
X52374800Y-47599600D01*
X52374800Y-57759600D01*
X52120800Y-57759600D01*
X52120800Y-47599600D01*
X50596800Y-47599600D01*
X50596800Y-57759600D01*
X50342800Y-57759600D01*
X50342800Y-47599600D01*
X48818800Y-47599600D01*
X48818800Y-57759600D01*
X48564800Y-57759600D01*
X48564800Y-47599600D01*
X47040800Y-47599600D01*
X47040800Y-57759600D01*
X46786800Y-57759600D01*
X46786800Y-47599600D01*
X46786800Y-47345600D01*
X56438800Y-47345600D01*
X56438800Y-47599600D01*
G36*
X46278800Y-48107600D02*
X45770800Y-48107600D01*
X45770800Y-47599600D01*
X46278800Y-47599600D01*
X46278800Y-48107600D01*
G37*
X46278800Y-48107600D02*
X45770800Y-48107600D01*
X45770800Y-47599600D01*
X46278800Y-47599600D01*
X46278800Y-48107600D01*
G36*
X56438800Y-48107600D02*
X56692800Y-48107600D01*
X56692800Y-58775600D01*
X56438800Y-58775600D01*
X56438800Y-57251600D01*
X56438800Y-48107600D01*
G37*
X56438800Y-48107600D02*
X56692800Y-48107600D01*
X56692800Y-58775600D01*
X56438800Y-58775600D01*
X56438800Y-57251600D01*
X56438800Y-48107600D01*
G36*
X56438800Y-48107600D02*
X56438800Y-58775600D01*
X45770800Y-58775600D01*
X45770800Y-48107600D01*
X46278800Y-48107600D01*
X46278800Y-58267600D01*
X47548800Y-58267600D01*
X47548800Y-48107600D01*
X48056800Y-48107600D01*
X48056800Y-58267600D01*
X49326800Y-58267600D01*
X49326800Y-48107600D01*
X49834800Y-48107600D01*
X49834800Y-58267600D01*
X51104800Y-58267600D01*
X51104800Y-48107600D01*
X51612800Y-48107600D01*
X51612800Y-58267600D01*
X52882800Y-58267600D01*
X52882800Y-48107600D01*
X53390800Y-48107600D01*
X53390800Y-58267600D01*
X54660800Y-58267600D01*
X54660800Y-48107600D01*
X55168800Y-48107600D01*
X55168800Y-58267600D01*
X56438800Y-58267600D01*
X56438800Y-48107600D01*
G37*
X56438800Y-48107600D02*
X56438800Y-58775600D01*
X45770800Y-58775600D01*
X45770800Y-48107600D01*
X46278800Y-48107600D01*
X46278800Y-58267600D01*
X47548800Y-58267600D01*
X47548800Y-48107600D01*
X48056800Y-48107600D01*
X48056800Y-58267600D01*
X49326800Y-58267600D01*
X49326800Y-48107600D01*
X49834800Y-48107600D01*
X49834800Y-58267600D01*
X51104800Y-58267600D01*
X51104800Y-48107600D01*
X51612800Y-48107600D01*
X51612800Y-58267600D01*
X52882800Y-58267600D01*
X52882800Y-48107600D01*
X53390800Y-48107600D01*
X53390800Y-58267600D01*
X54660800Y-58267600D01*
X54660800Y-48107600D01*
X55168800Y-48107600D01*
X55168800Y-58267600D01*
X56438800Y-58267600D01*
X56438800Y-48107600D01*
G04 #@! TO.C,C4*
G36*
X56057800Y-40690800D02*
X45389800Y-40690800D01*
X45389800Y-30022800D01*
X56057800Y-30022800D01*
X56057800Y-30530800D01*
X45897800Y-30530800D01*
X45897800Y-31800800D01*
X56057800Y-31800800D01*
X56057800Y-32308800D01*
X45897800Y-32308800D01*
X45897800Y-33578800D01*
X56057800Y-33578800D01*
X56057800Y-34086800D01*
X45897800Y-34086800D01*
X45897800Y-35356800D01*
X56057800Y-35356800D01*
X56057800Y-35864800D01*
X45897800Y-35864800D01*
X45897800Y-37134800D01*
X56057800Y-37134800D01*
X56057800Y-37642800D01*
X45897800Y-37642800D01*
X45897800Y-38912800D01*
X56057800Y-38912800D01*
X56057800Y-39420800D01*
X45897800Y-39420800D01*
X45897800Y-40690800D01*
X56057800Y-40690800D01*
G37*
X56057800Y-40690800D02*
X45389800Y-40690800D01*
X45389800Y-30022800D01*
X56057800Y-30022800D01*
X56057800Y-30530800D01*
X45897800Y-30530800D01*
X45897800Y-31800800D01*
X56057800Y-31800800D01*
X56057800Y-32308800D01*
X45897800Y-32308800D01*
X45897800Y-33578800D01*
X56057800Y-33578800D01*
X56057800Y-34086800D01*
X45897800Y-34086800D01*
X45897800Y-35356800D01*
X56057800Y-35356800D01*
X56057800Y-35864800D01*
X45897800Y-35864800D01*
X45897800Y-37134800D01*
X56057800Y-37134800D01*
X56057800Y-37642800D01*
X45897800Y-37642800D01*
X45897800Y-38912800D01*
X56057800Y-38912800D01*
X56057800Y-39420800D01*
X45897800Y-39420800D01*
X45897800Y-40690800D01*
X56057800Y-40690800D01*
G36*
X56057800Y-40690800D02*
X56057800Y-40944800D01*
X45389800Y-40944800D01*
X45389800Y-40690800D01*
X46913800Y-40690800D01*
X56057800Y-40690800D01*
G37*
X56057800Y-40690800D02*
X56057800Y-40944800D01*
X45389800Y-40944800D01*
X45389800Y-40690800D01*
X46913800Y-40690800D01*
X56057800Y-40690800D01*
G36*
X56057800Y-30530800D02*
X56057800Y-30022800D01*
X56565800Y-30022800D01*
X56565800Y-30530800D01*
X56057800Y-30530800D01*
G37*
X56057800Y-30530800D02*
X56057800Y-30022800D01*
X56565800Y-30022800D01*
X56565800Y-30530800D01*
X56057800Y-30530800D01*
G36*
X56565800Y-40690800D02*
X56565800Y-40182800D01*
X46405800Y-40182800D01*
X46405800Y-39928800D01*
X56565800Y-39928800D01*
X56565800Y-38404800D01*
X46405800Y-38404800D01*
X46405800Y-38150800D01*
X56565800Y-38150800D01*
X56565800Y-36626800D01*
X46405800Y-36626800D01*
X46405800Y-36372800D01*
X56565800Y-36372800D01*
X56565800Y-34848800D01*
X46405800Y-34848800D01*
X46405800Y-34594800D01*
X56565800Y-34594800D01*
X56565800Y-33070800D01*
X46405800Y-33070800D01*
X46405800Y-32816800D01*
X56565800Y-32816800D01*
X56565800Y-31292800D01*
X46405800Y-31292800D01*
X46405800Y-31038800D01*
X56565800Y-31038800D01*
X56819800Y-31038800D01*
X56819800Y-40690800D01*
X56565800Y-40690800D01*
G37*
X56565800Y-40690800D02*
X56565800Y-40182800D01*
X46405800Y-40182800D01*
X46405800Y-39928800D01*
X56565800Y-39928800D01*
X56565800Y-38404800D01*
X46405800Y-38404800D01*
X46405800Y-38150800D01*
X56565800Y-38150800D01*
X56565800Y-36626800D01*
X46405800Y-36626800D01*
X46405800Y-36372800D01*
X56565800Y-36372800D01*
X56565800Y-34848800D01*
X46405800Y-34848800D01*
X46405800Y-34594800D01*
X56565800Y-34594800D01*
X56565800Y-33070800D01*
X46405800Y-33070800D01*
X46405800Y-32816800D01*
X56565800Y-32816800D01*
X56565800Y-31292800D01*
X46405800Y-31292800D01*
X46405800Y-31038800D01*
X56565800Y-31038800D01*
X56819800Y-31038800D01*
X56819800Y-40690800D01*
X56565800Y-40690800D01*
G36*
X56565800Y-30530800D02*
X56565800Y-30022800D01*
X56819800Y-30022800D01*
X56819800Y-30530800D01*
X56565800Y-30530800D01*
G37*
X56565800Y-30530800D02*
X56565800Y-30022800D01*
X56819800Y-30022800D01*
X56819800Y-30530800D01*
X56565800Y-30530800D01*
G04 #@! TO.C,C5*
G36*
X75031600Y-40309800D02*
X75539600Y-40309800D01*
X75539600Y-40563800D01*
X75031600Y-40563800D01*
X75031600Y-40309800D01*
G37*
X75031600Y-40309800D02*
X75539600Y-40309800D01*
X75539600Y-40563800D01*
X75031600Y-40563800D01*
X75031600Y-40309800D01*
G36*
X64871600Y-40309800D02*
X65379600Y-40309800D01*
X65379600Y-30149800D01*
X65633600Y-30149800D01*
X65633600Y-40309800D01*
X67157600Y-40309800D01*
X67157600Y-30149800D01*
X67411600Y-30149800D01*
X67411600Y-40309800D01*
X68935600Y-40309800D01*
X68935600Y-30149800D01*
X69189600Y-30149800D01*
X69189600Y-40309800D01*
X70713600Y-40309800D01*
X70713600Y-30149800D01*
X70967600Y-30149800D01*
X70967600Y-40309800D01*
X72491600Y-40309800D01*
X72491600Y-30149800D01*
X72745600Y-30149800D01*
X72745600Y-40309800D01*
X74269600Y-40309800D01*
X74269600Y-30149800D01*
X74523600Y-30149800D01*
X74523600Y-40309800D01*
X74523600Y-40563800D01*
X64871600Y-40563800D01*
X64871600Y-40309800D01*
G37*
X64871600Y-40309800D02*
X65379600Y-40309800D01*
X65379600Y-30149800D01*
X65633600Y-30149800D01*
X65633600Y-40309800D01*
X67157600Y-40309800D01*
X67157600Y-30149800D01*
X67411600Y-30149800D01*
X67411600Y-40309800D01*
X68935600Y-40309800D01*
X68935600Y-30149800D01*
X69189600Y-30149800D01*
X69189600Y-40309800D01*
X70713600Y-40309800D01*
X70713600Y-30149800D01*
X70967600Y-30149800D01*
X70967600Y-40309800D01*
X72491600Y-40309800D01*
X72491600Y-30149800D01*
X72745600Y-30149800D01*
X72745600Y-40309800D01*
X74269600Y-40309800D01*
X74269600Y-30149800D01*
X74523600Y-30149800D01*
X74523600Y-40309800D01*
X74523600Y-40563800D01*
X64871600Y-40563800D01*
X64871600Y-40309800D01*
G36*
X75031600Y-39801800D02*
X75539600Y-39801800D01*
X75539600Y-40309800D01*
X75031600Y-40309800D01*
X75031600Y-39801800D01*
G37*
X75031600Y-39801800D02*
X75539600Y-39801800D01*
X75539600Y-40309800D01*
X75031600Y-40309800D01*
X75031600Y-39801800D01*
G36*
X64871600Y-39801800D02*
X64617600Y-39801800D01*
X64617600Y-29133800D01*
X64871600Y-29133800D01*
X64871600Y-30657800D01*
X64871600Y-39801800D01*
G37*
X64871600Y-39801800D02*
X64617600Y-39801800D01*
X64617600Y-29133800D01*
X64871600Y-29133800D01*
X64871600Y-30657800D01*
X64871600Y-39801800D01*
G36*
X64871600Y-39801800D02*
X64871600Y-29133800D01*
X75539600Y-29133800D01*
X75539600Y-39801800D01*
X75031600Y-39801800D01*
X75031600Y-29641800D01*
X73761600Y-29641800D01*
X73761600Y-39801800D01*
X73253600Y-39801800D01*
X73253600Y-29641800D01*
X71983600Y-29641800D01*
X71983600Y-39801800D01*
X71475600Y-39801800D01*
X71475600Y-29641800D01*
X70205600Y-29641800D01*
X70205600Y-39801800D01*
X69697600Y-39801800D01*
X69697600Y-29641800D01*
X68427600Y-29641800D01*
X68427600Y-39801800D01*
X67919600Y-39801800D01*
X67919600Y-29641800D01*
X66649600Y-29641800D01*
X66649600Y-39801800D01*
X66141600Y-39801800D01*
X66141600Y-29641800D01*
X64871600Y-29641800D01*
X64871600Y-39801800D01*
G37*
X64871600Y-39801800D02*
X64871600Y-29133800D01*
X75539600Y-29133800D01*
X75539600Y-39801800D01*
X75031600Y-39801800D01*
X75031600Y-29641800D01*
X73761600Y-29641800D01*
X73761600Y-39801800D01*
X73253600Y-39801800D01*
X73253600Y-29641800D01*
X71983600Y-29641800D01*
X71983600Y-39801800D01*
X71475600Y-39801800D01*
X71475600Y-29641800D01*
X70205600Y-29641800D01*
X70205600Y-39801800D01*
X69697600Y-39801800D01*
X69697600Y-29641800D01*
X68427600Y-29641800D01*
X68427600Y-39801800D01*
X67919600Y-39801800D01*
X67919600Y-29641800D01*
X66649600Y-29641800D01*
X66649600Y-39801800D01*
X66141600Y-39801800D01*
X66141600Y-29641800D01*
X64871600Y-29641800D01*
X64871600Y-39801800D01*
G04 #@! TD*
D12*
G04 #@! TO.N,ACMP*
G04 #@! TO.C,C1*
G36*
X92301142Y-34819674D02*
X92324803Y-34823184D01*
X92348007Y-34828996D01*
X92370529Y-34837054D01*
X92392153Y-34847282D01*
X92412670Y-34859579D01*
X92431883Y-34873829D01*
X92449607Y-34889893D01*
X92465671Y-34907617D01*
X92479921Y-34926830D01*
X92492218Y-34947347D01*
X92502446Y-34968971D01*
X92510504Y-34991493D01*
X92516316Y-35014697D01*
X92519826Y-35038358D01*
X92521000Y-35062250D01*
X92521000Y-35549750D01*
X92519826Y-35573642D01*
X92516316Y-35597303D01*
X92510504Y-35620507D01*
X92502446Y-35643029D01*
X92492218Y-35664653D01*
X92479921Y-35685170D01*
X92465671Y-35704383D01*
X92449607Y-35722107D01*
X92431883Y-35738171D01*
X92412670Y-35752421D01*
X92392153Y-35764718D01*
X92370529Y-35774946D01*
X92348007Y-35783004D01*
X92324803Y-35788816D01*
X92301142Y-35792326D01*
X92277250Y-35793500D01*
X91364750Y-35793500D01*
X91340858Y-35792326D01*
X91317197Y-35788816D01*
X91293993Y-35783004D01*
X91271471Y-35774946D01*
X91249847Y-35764718D01*
X91229330Y-35752421D01*
X91210117Y-35738171D01*
X91192393Y-35722107D01*
X91176329Y-35704383D01*
X91162079Y-35685170D01*
X91149782Y-35664653D01*
X91139554Y-35643029D01*
X91131496Y-35620507D01*
X91125684Y-35597303D01*
X91122174Y-35573642D01*
X91121000Y-35549750D01*
X91121000Y-35062250D01*
X91122174Y-35038358D01*
X91125684Y-35014697D01*
X91131496Y-34991493D01*
X91139554Y-34968971D01*
X91149782Y-34947347D01*
X91162079Y-34926830D01*
X91176329Y-34907617D01*
X91192393Y-34889893D01*
X91210117Y-34873829D01*
X91229330Y-34859579D01*
X91249847Y-34847282D01*
X91271471Y-34837054D01*
X91293993Y-34828996D01*
X91317197Y-34823184D01*
X91340858Y-34819674D01*
X91364750Y-34818500D01*
X92277250Y-34818500D01*
X92301142Y-34819674D01*
X92301142Y-34819674D01*
G37*
D13*
G04 #@! TD*
G04 #@! TO.P,C1,1*
G04 #@! TO.N,ACMP*
X91821000Y-35306000D03*
D12*
G04 #@! TO.N,CAPT_YL*
G04 #@! TO.C,C1*
G36*
X92301142Y-32944674D02*
X92324803Y-32948184D01*
X92348007Y-32953996D01*
X92370529Y-32962054D01*
X92392153Y-32972282D01*
X92412670Y-32984579D01*
X92431883Y-32998829D01*
X92449607Y-33014893D01*
X92465671Y-33032617D01*
X92479921Y-33051830D01*
X92492218Y-33072347D01*
X92502446Y-33093971D01*
X92510504Y-33116493D01*
X92516316Y-33139697D01*
X92519826Y-33163358D01*
X92521000Y-33187250D01*
X92521000Y-33674750D01*
X92519826Y-33698642D01*
X92516316Y-33722303D01*
X92510504Y-33745507D01*
X92502446Y-33768029D01*
X92492218Y-33789653D01*
X92479921Y-33810170D01*
X92465671Y-33829383D01*
X92449607Y-33847107D01*
X92431883Y-33863171D01*
X92412670Y-33877421D01*
X92392153Y-33889718D01*
X92370529Y-33899946D01*
X92348007Y-33908004D01*
X92324803Y-33913816D01*
X92301142Y-33917326D01*
X92277250Y-33918500D01*
X91364750Y-33918500D01*
X91340858Y-33917326D01*
X91317197Y-33913816D01*
X91293993Y-33908004D01*
X91271471Y-33899946D01*
X91249847Y-33889718D01*
X91229330Y-33877421D01*
X91210117Y-33863171D01*
X91192393Y-33847107D01*
X91176329Y-33829383D01*
X91162079Y-33810170D01*
X91149782Y-33789653D01*
X91139554Y-33768029D01*
X91131496Y-33745507D01*
X91125684Y-33722303D01*
X91122174Y-33698642D01*
X91121000Y-33674750D01*
X91121000Y-33187250D01*
X91122174Y-33163358D01*
X91125684Y-33139697D01*
X91131496Y-33116493D01*
X91139554Y-33093971D01*
X91149782Y-33072347D01*
X91162079Y-33051830D01*
X91176329Y-33032617D01*
X91192393Y-33014893D01*
X91210117Y-32998829D01*
X91229330Y-32984579D01*
X91249847Y-32972282D01*
X91271471Y-32962054D01*
X91293993Y-32953996D01*
X91317197Y-32948184D01*
X91340858Y-32944674D01*
X91364750Y-32943500D01*
X92277250Y-32943500D01*
X92301142Y-32944674D01*
X92301142Y-32944674D01*
G37*
D13*
G04 #@! TD*
G04 #@! TO.P,C1,2*
G04 #@! TO.N,CAPT_YL*
X91821000Y-33431000D03*
D12*
G04 #@! TO.N,3v3*
G04 #@! TO.C,C6*
G36*
X86276642Y-37401174D02*
X86300303Y-37404684D01*
X86323507Y-37410496D01*
X86346029Y-37418554D01*
X86367653Y-37428782D01*
X86388170Y-37441079D01*
X86407383Y-37455329D01*
X86425107Y-37471393D01*
X86441171Y-37489117D01*
X86455421Y-37508330D01*
X86467718Y-37528847D01*
X86477946Y-37550471D01*
X86486004Y-37572993D01*
X86491816Y-37596197D01*
X86495326Y-37619858D01*
X86496500Y-37643750D01*
X86496500Y-38556250D01*
X86495326Y-38580142D01*
X86491816Y-38603803D01*
X86486004Y-38627007D01*
X86477946Y-38649529D01*
X86467718Y-38671153D01*
X86455421Y-38691670D01*
X86441171Y-38710883D01*
X86425107Y-38728607D01*
X86407383Y-38744671D01*
X86388170Y-38758921D01*
X86367653Y-38771218D01*
X86346029Y-38781446D01*
X86323507Y-38789504D01*
X86300303Y-38795316D01*
X86276642Y-38798826D01*
X86252750Y-38800000D01*
X85765250Y-38800000D01*
X85741358Y-38798826D01*
X85717697Y-38795316D01*
X85694493Y-38789504D01*
X85671971Y-38781446D01*
X85650347Y-38771218D01*
X85629830Y-38758921D01*
X85610617Y-38744671D01*
X85592893Y-38728607D01*
X85576829Y-38710883D01*
X85562579Y-38691670D01*
X85550282Y-38671153D01*
X85540054Y-38649529D01*
X85531996Y-38627007D01*
X85526184Y-38603803D01*
X85522674Y-38580142D01*
X85521500Y-38556250D01*
X85521500Y-37643750D01*
X85522674Y-37619858D01*
X85526184Y-37596197D01*
X85531996Y-37572993D01*
X85540054Y-37550471D01*
X85550282Y-37528847D01*
X85562579Y-37508330D01*
X85576829Y-37489117D01*
X85592893Y-37471393D01*
X85610617Y-37455329D01*
X85629830Y-37441079D01*
X85650347Y-37428782D01*
X85671971Y-37418554D01*
X85694493Y-37410496D01*
X85717697Y-37404684D01*
X85741358Y-37401174D01*
X85765250Y-37400000D01*
X86252750Y-37400000D01*
X86276642Y-37401174D01*
X86276642Y-37401174D01*
G37*
D13*
G04 #@! TD*
G04 #@! TO.P,C6,1*
G04 #@! TO.N,3v3*
X86009000Y-38100000D03*
D12*
G04 #@! TO.N,GND*
G04 #@! TO.C,C6*
G36*
X88151642Y-37401174D02*
X88175303Y-37404684D01*
X88198507Y-37410496D01*
X88221029Y-37418554D01*
X88242653Y-37428782D01*
X88263170Y-37441079D01*
X88282383Y-37455329D01*
X88300107Y-37471393D01*
X88316171Y-37489117D01*
X88330421Y-37508330D01*
X88342718Y-37528847D01*
X88352946Y-37550471D01*
X88361004Y-37572993D01*
X88366816Y-37596197D01*
X88370326Y-37619858D01*
X88371500Y-37643750D01*
X88371500Y-38556250D01*
X88370326Y-38580142D01*
X88366816Y-38603803D01*
X88361004Y-38627007D01*
X88352946Y-38649529D01*
X88342718Y-38671153D01*
X88330421Y-38691670D01*
X88316171Y-38710883D01*
X88300107Y-38728607D01*
X88282383Y-38744671D01*
X88263170Y-38758921D01*
X88242653Y-38771218D01*
X88221029Y-38781446D01*
X88198507Y-38789504D01*
X88175303Y-38795316D01*
X88151642Y-38798826D01*
X88127750Y-38800000D01*
X87640250Y-38800000D01*
X87616358Y-38798826D01*
X87592697Y-38795316D01*
X87569493Y-38789504D01*
X87546971Y-38781446D01*
X87525347Y-38771218D01*
X87504830Y-38758921D01*
X87485617Y-38744671D01*
X87467893Y-38728607D01*
X87451829Y-38710883D01*
X87437579Y-38691670D01*
X87425282Y-38671153D01*
X87415054Y-38649529D01*
X87406996Y-38627007D01*
X87401184Y-38603803D01*
X87397674Y-38580142D01*
X87396500Y-38556250D01*
X87396500Y-37643750D01*
X87397674Y-37619858D01*
X87401184Y-37596197D01*
X87406996Y-37572993D01*
X87415054Y-37550471D01*
X87425282Y-37528847D01*
X87437579Y-37508330D01*
X87451829Y-37489117D01*
X87467893Y-37471393D01*
X87485617Y-37455329D01*
X87504830Y-37441079D01*
X87525347Y-37428782D01*
X87546971Y-37418554D01*
X87569493Y-37410496D01*
X87592697Y-37404684D01*
X87616358Y-37401174D01*
X87640250Y-37400000D01*
X88127750Y-37400000D01*
X88151642Y-37401174D01*
X88151642Y-37401174D01*
G37*
D13*
G04 #@! TD*
G04 #@! TO.P,C6,2*
G04 #@! TO.N,GND*
X87884000Y-38100000D03*
D12*
G04 #@! TO.N,GND*
G04 #@! TO.C,C7*
G36*
X88151642Y-34099174D02*
X88175303Y-34102684D01*
X88198507Y-34108496D01*
X88221029Y-34116554D01*
X88242653Y-34126782D01*
X88263170Y-34139079D01*
X88282383Y-34153329D01*
X88300107Y-34169393D01*
X88316171Y-34187117D01*
X88330421Y-34206330D01*
X88342718Y-34226847D01*
X88352946Y-34248471D01*
X88361004Y-34270993D01*
X88366816Y-34294197D01*
X88370326Y-34317858D01*
X88371500Y-34341750D01*
X88371500Y-35254250D01*
X88370326Y-35278142D01*
X88366816Y-35301803D01*
X88361004Y-35325007D01*
X88352946Y-35347529D01*
X88342718Y-35369153D01*
X88330421Y-35389670D01*
X88316171Y-35408883D01*
X88300107Y-35426607D01*
X88282383Y-35442671D01*
X88263170Y-35456921D01*
X88242653Y-35469218D01*
X88221029Y-35479446D01*
X88198507Y-35487504D01*
X88175303Y-35493316D01*
X88151642Y-35496826D01*
X88127750Y-35498000D01*
X87640250Y-35498000D01*
X87616358Y-35496826D01*
X87592697Y-35493316D01*
X87569493Y-35487504D01*
X87546971Y-35479446D01*
X87525347Y-35469218D01*
X87504830Y-35456921D01*
X87485617Y-35442671D01*
X87467893Y-35426607D01*
X87451829Y-35408883D01*
X87437579Y-35389670D01*
X87425282Y-35369153D01*
X87415054Y-35347529D01*
X87406996Y-35325007D01*
X87401184Y-35301803D01*
X87397674Y-35278142D01*
X87396500Y-35254250D01*
X87396500Y-34341750D01*
X87397674Y-34317858D01*
X87401184Y-34294197D01*
X87406996Y-34270993D01*
X87415054Y-34248471D01*
X87425282Y-34226847D01*
X87437579Y-34206330D01*
X87451829Y-34187117D01*
X87467893Y-34169393D01*
X87485617Y-34153329D01*
X87504830Y-34139079D01*
X87525347Y-34126782D01*
X87546971Y-34116554D01*
X87569493Y-34108496D01*
X87592697Y-34102684D01*
X87616358Y-34099174D01*
X87640250Y-34098000D01*
X88127750Y-34098000D01*
X88151642Y-34099174D01*
X88151642Y-34099174D01*
G37*
D13*
G04 #@! TD*
G04 #@! TO.P,C7,2*
G04 #@! TO.N,GND*
X87884000Y-34798000D03*
D12*
G04 #@! TO.N,3v3*
G04 #@! TO.C,C7*
G36*
X86276642Y-34099174D02*
X86300303Y-34102684D01*
X86323507Y-34108496D01*
X86346029Y-34116554D01*
X86367653Y-34126782D01*
X86388170Y-34139079D01*
X86407383Y-34153329D01*
X86425107Y-34169393D01*
X86441171Y-34187117D01*
X86455421Y-34206330D01*
X86467718Y-34226847D01*
X86477946Y-34248471D01*
X86486004Y-34270993D01*
X86491816Y-34294197D01*
X86495326Y-34317858D01*
X86496500Y-34341750D01*
X86496500Y-35254250D01*
X86495326Y-35278142D01*
X86491816Y-35301803D01*
X86486004Y-35325007D01*
X86477946Y-35347529D01*
X86467718Y-35369153D01*
X86455421Y-35389670D01*
X86441171Y-35408883D01*
X86425107Y-35426607D01*
X86407383Y-35442671D01*
X86388170Y-35456921D01*
X86367653Y-35469218D01*
X86346029Y-35479446D01*
X86323507Y-35487504D01*
X86300303Y-35493316D01*
X86276642Y-35496826D01*
X86252750Y-35498000D01*
X85765250Y-35498000D01*
X85741358Y-35496826D01*
X85717697Y-35493316D01*
X85694493Y-35487504D01*
X85671971Y-35479446D01*
X85650347Y-35469218D01*
X85629830Y-35456921D01*
X85610617Y-35442671D01*
X85592893Y-35426607D01*
X85576829Y-35408883D01*
X85562579Y-35389670D01*
X85550282Y-35369153D01*
X85540054Y-35347529D01*
X85531996Y-35325007D01*
X85526184Y-35301803D01*
X85522674Y-35278142D01*
X85521500Y-35254250D01*
X85521500Y-34341750D01*
X85522674Y-34317858D01*
X85526184Y-34294197D01*
X85531996Y-34270993D01*
X85540054Y-34248471D01*
X85550282Y-34226847D01*
X85562579Y-34206330D01*
X85576829Y-34187117D01*
X85592893Y-34169393D01*
X85610617Y-34153329D01*
X85629830Y-34139079D01*
X85650347Y-34126782D01*
X85671971Y-34116554D01*
X85694493Y-34108496D01*
X85717697Y-34102684D01*
X85741358Y-34099174D01*
X85765250Y-34098000D01*
X86252750Y-34098000D01*
X86276642Y-34099174D01*
X86276642Y-34099174D01*
G37*
D13*
G04 #@! TD*
G04 #@! TO.P,C7,1*
G04 #@! TO.N,3v3*
X86009000Y-34798000D03*
D12*
G04 #@! TO.N,LED0*
G04 #@! TO.C,D1*
G36*
X96365142Y-24278674D02*
X96388803Y-24282184D01*
X96412007Y-24287996D01*
X96434529Y-24296054D01*
X96456153Y-24306282D01*
X96476670Y-24318579D01*
X96495883Y-24332829D01*
X96513607Y-24348893D01*
X96529671Y-24366617D01*
X96543921Y-24385830D01*
X96556218Y-24406347D01*
X96566446Y-24427971D01*
X96574504Y-24450493D01*
X96580316Y-24473697D01*
X96583826Y-24497358D01*
X96585000Y-24521250D01*
X96585000Y-25008750D01*
X96583826Y-25032642D01*
X96580316Y-25056303D01*
X96574504Y-25079507D01*
X96566446Y-25102029D01*
X96556218Y-25123653D01*
X96543921Y-25144170D01*
X96529671Y-25163383D01*
X96513607Y-25181107D01*
X96495883Y-25197171D01*
X96476670Y-25211421D01*
X96456153Y-25223718D01*
X96434529Y-25233946D01*
X96412007Y-25242004D01*
X96388803Y-25247816D01*
X96365142Y-25251326D01*
X96341250Y-25252500D01*
X95428750Y-25252500D01*
X95404858Y-25251326D01*
X95381197Y-25247816D01*
X95357993Y-25242004D01*
X95335471Y-25233946D01*
X95313847Y-25223718D01*
X95293330Y-25211421D01*
X95274117Y-25197171D01*
X95256393Y-25181107D01*
X95240329Y-25163383D01*
X95226079Y-25144170D01*
X95213782Y-25123653D01*
X95203554Y-25102029D01*
X95195496Y-25079507D01*
X95189684Y-25056303D01*
X95186174Y-25032642D01*
X95185000Y-25008750D01*
X95185000Y-24521250D01*
X95186174Y-24497358D01*
X95189684Y-24473697D01*
X95195496Y-24450493D01*
X95203554Y-24427971D01*
X95213782Y-24406347D01*
X95226079Y-24385830D01*
X95240329Y-24366617D01*
X95256393Y-24348893D01*
X95274117Y-24332829D01*
X95293330Y-24318579D01*
X95313847Y-24306282D01*
X95335471Y-24296054D01*
X95357993Y-24287996D01*
X95381197Y-24282184D01*
X95404858Y-24278674D01*
X95428750Y-24277500D01*
X96341250Y-24277500D01*
X96365142Y-24278674D01*
X96365142Y-24278674D01*
G37*
D13*
G04 #@! TD*
G04 #@! TO.P,D1,1*
G04 #@! TO.N,LED0*
X95885000Y-24765000D03*
D12*
G04 #@! TO.N,Net-(D1-Pad2)*
G04 #@! TO.C,D1*
G36*
X96365142Y-22403674D02*
X96388803Y-22407184D01*
X96412007Y-22412996D01*
X96434529Y-22421054D01*
X96456153Y-22431282D01*
X96476670Y-22443579D01*
X96495883Y-22457829D01*
X96513607Y-22473893D01*
X96529671Y-22491617D01*
X96543921Y-22510830D01*
X96556218Y-22531347D01*
X96566446Y-22552971D01*
X96574504Y-22575493D01*
X96580316Y-22598697D01*
X96583826Y-22622358D01*
X96585000Y-22646250D01*
X96585000Y-23133750D01*
X96583826Y-23157642D01*
X96580316Y-23181303D01*
X96574504Y-23204507D01*
X96566446Y-23227029D01*
X96556218Y-23248653D01*
X96543921Y-23269170D01*
X96529671Y-23288383D01*
X96513607Y-23306107D01*
X96495883Y-23322171D01*
X96476670Y-23336421D01*
X96456153Y-23348718D01*
X96434529Y-23358946D01*
X96412007Y-23367004D01*
X96388803Y-23372816D01*
X96365142Y-23376326D01*
X96341250Y-23377500D01*
X95428750Y-23377500D01*
X95404858Y-23376326D01*
X95381197Y-23372816D01*
X95357993Y-23367004D01*
X95335471Y-23358946D01*
X95313847Y-23348718D01*
X95293330Y-23336421D01*
X95274117Y-23322171D01*
X95256393Y-23306107D01*
X95240329Y-23288383D01*
X95226079Y-23269170D01*
X95213782Y-23248653D01*
X95203554Y-23227029D01*
X95195496Y-23204507D01*
X95189684Y-23181303D01*
X95186174Y-23157642D01*
X95185000Y-23133750D01*
X95185000Y-22646250D01*
X95186174Y-22622358D01*
X95189684Y-22598697D01*
X95195496Y-22575493D01*
X95203554Y-22552971D01*
X95213782Y-22531347D01*
X95226079Y-22510830D01*
X95240329Y-22491617D01*
X95256393Y-22473893D01*
X95274117Y-22457829D01*
X95293330Y-22443579D01*
X95313847Y-22431282D01*
X95335471Y-22421054D01*
X95357993Y-22412996D01*
X95381197Y-22407184D01*
X95404858Y-22403674D01*
X95428750Y-22402500D01*
X96341250Y-22402500D01*
X96365142Y-22403674D01*
X96365142Y-22403674D01*
G37*
D13*
G04 #@! TD*
G04 #@! TO.P,D1,2*
G04 #@! TO.N,Net-(D1-Pad2)*
X95885000Y-22890000D03*
D12*
G04 #@! TO.N,Net-(D2-Pad2)*
G04 #@! TO.C,D2*
G36*
X99540142Y-22403674D02*
X99563803Y-22407184D01*
X99587007Y-22412996D01*
X99609529Y-22421054D01*
X99631153Y-22431282D01*
X99651670Y-22443579D01*
X99670883Y-22457829D01*
X99688607Y-22473893D01*
X99704671Y-22491617D01*
X99718921Y-22510830D01*
X99731218Y-22531347D01*
X99741446Y-22552971D01*
X99749504Y-22575493D01*
X99755316Y-22598697D01*
X99758826Y-22622358D01*
X99760000Y-22646250D01*
X99760000Y-23133750D01*
X99758826Y-23157642D01*
X99755316Y-23181303D01*
X99749504Y-23204507D01*
X99741446Y-23227029D01*
X99731218Y-23248653D01*
X99718921Y-23269170D01*
X99704671Y-23288383D01*
X99688607Y-23306107D01*
X99670883Y-23322171D01*
X99651670Y-23336421D01*
X99631153Y-23348718D01*
X99609529Y-23358946D01*
X99587007Y-23367004D01*
X99563803Y-23372816D01*
X99540142Y-23376326D01*
X99516250Y-23377500D01*
X98603750Y-23377500D01*
X98579858Y-23376326D01*
X98556197Y-23372816D01*
X98532993Y-23367004D01*
X98510471Y-23358946D01*
X98488847Y-23348718D01*
X98468330Y-23336421D01*
X98449117Y-23322171D01*
X98431393Y-23306107D01*
X98415329Y-23288383D01*
X98401079Y-23269170D01*
X98388782Y-23248653D01*
X98378554Y-23227029D01*
X98370496Y-23204507D01*
X98364684Y-23181303D01*
X98361174Y-23157642D01*
X98360000Y-23133750D01*
X98360000Y-22646250D01*
X98361174Y-22622358D01*
X98364684Y-22598697D01*
X98370496Y-22575493D01*
X98378554Y-22552971D01*
X98388782Y-22531347D01*
X98401079Y-22510830D01*
X98415329Y-22491617D01*
X98431393Y-22473893D01*
X98449117Y-22457829D01*
X98468330Y-22443579D01*
X98488847Y-22431282D01*
X98510471Y-22421054D01*
X98532993Y-22412996D01*
X98556197Y-22407184D01*
X98579858Y-22403674D01*
X98603750Y-22402500D01*
X99516250Y-22402500D01*
X99540142Y-22403674D01*
X99540142Y-22403674D01*
G37*
D13*
G04 #@! TD*
G04 #@! TO.P,D2,2*
G04 #@! TO.N,Net-(D2-Pad2)*
X99060000Y-22890000D03*
D12*
G04 #@! TO.N,LED1*
G04 #@! TO.C,D2*
G36*
X99540142Y-24278674D02*
X99563803Y-24282184D01*
X99587007Y-24287996D01*
X99609529Y-24296054D01*
X99631153Y-24306282D01*
X99651670Y-24318579D01*
X99670883Y-24332829D01*
X99688607Y-24348893D01*
X99704671Y-24366617D01*
X99718921Y-24385830D01*
X99731218Y-24406347D01*
X99741446Y-24427971D01*
X99749504Y-24450493D01*
X99755316Y-24473697D01*
X99758826Y-24497358D01*
X99760000Y-24521250D01*
X99760000Y-25008750D01*
X99758826Y-25032642D01*
X99755316Y-25056303D01*
X99749504Y-25079507D01*
X99741446Y-25102029D01*
X99731218Y-25123653D01*
X99718921Y-25144170D01*
X99704671Y-25163383D01*
X99688607Y-25181107D01*
X99670883Y-25197171D01*
X99651670Y-25211421D01*
X99631153Y-25223718D01*
X99609529Y-25233946D01*
X99587007Y-25242004D01*
X99563803Y-25247816D01*
X99540142Y-25251326D01*
X99516250Y-25252500D01*
X98603750Y-25252500D01*
X98579858Y-25251326D01*
X98556197Y-25247816D01*
X98532993Y-25242004D01*
X98510471Y-25233946D01*
X98488847Y-25223718D01*
X98468330Y-25211421D01*
X98449117Y-25197171D01*
X98431393Y-25181107D01*
X98415329Y-25163383D01*
X98401079Y-25144170D01*
X98388782Y-25123653D01*
X98378554Y-25102029D01*
X98370496Y-25079507D01*
X98364684Y-25056303D01*
X98361174Y-25032642D01*
X98360000Y-25008750D01*
X98360000Y-24521250D01*
X98361174Y-24497358D01*
X98364684Y-24473697D01*
X98370496Y-24450493D01*
X98378554Y-24427971D01*
X98388782Y-24406347D01*
X98401079Y-24385830D01*
X98415329Y-24366617D01*
X98431393Y-24348893D01*
X98449117Y-24332829D01*
X98468330Y-24318579D01*
X98488847Y-24306282D01*
X98510471Y-24296054D01*
X98532993Y-24287996D01*
X98556197Y-24282184D01*
X98579858Y-24278674D01*
X98603750Y-24277500D01*
X99516250Y-24277500D01*
X99540142Y-24278674D01*
X99540142Y-24278674D01*
G37*
D13*
G04 #@! TD*
G04 #@! TO.P,D2,1*
G04 #@! TO.N,LED1*
X99060000Y-24765000D03*
D12*
G04 #@! TO.N,LED2*
G04 #@! TO.C,D3*
G36*
X102842142Y-24278674D02*
X102865803Y-24282184D01*
X102889007Y-24287996D01*
X102911529Y-24296054D01*
X102933153Y-24306282D01*
X102953670Y-24318579D01*
X102972883Y-24332829D01*
X102990607Y-24348893D01*
X103006671Y-24366617D01*
X103020921Y-24385830D01*
X103033218Y-24406347D01*
X103043446Y-24427971D01*
X103051504Y-24450493D01*
X103057316Y-24473697D01*
X103060826Y-24497358D01*
X103062000Y-24521250D01*
X103062000Y-25008750D01*
X103060826Y-25032642D01*
X103057316Y-25056303D01*
X103051504Y-25079507D01*
X103043446Y-25102029D01*
X103033218Y-25123653D01*
X103020921Y-25144170D01*
X103006671Y-25163383D01*
X102990607Y-25181107D01*
X102972883Y-25197171D01*
X102953670Y-25211421D01*
X102933153Y-25223718D01*
X102911529Y-25233946D01*
X102889007Y-25242004D01*
X102865803Y-25247816D01*
X102842142Y-25251326D01*
X102818250Y-25252500D01*
X101905750Y-25252500D01*
X101881858Y-25251326D01*
X101858197Y-25247816D01*
X101834993Y-25242004D01*
X101812471Y-25233946D01*
X101790847Y-25223718D01*
X101770330Y-25211421D01*
X101751117Y-25197171D01*
X101733393Y-25181107D01*
X101717329Y-25163383D01*
X101703079Y-25144170D01*
X101690782Y-25123653D01*
X101680554Y-25102029D01*
X101672496Y-25079507D01*
X101666684Y-25056303D01*
X101663174Y-25032642D01*
X101662000Y-25008750D01*
X101662000Y-24521250D01*
X101663174Y-24497358D01*
X101666684Y-24473697D01*
X101672496Y-24450493D01*
X101680554Y-24427971D01*
X101690782Y-24406347D01*
X101703079Y-24385830D01*
X101717329Y-24366617D01*
X101733393Y-24348893D01*
X101751117Y-24332829D01*
X101770330Y-24318579D01*
X101790847Y-24306282D01*
X101812471Y-24296054D01*
X101834993Y-24287996D01*
X101858197Y-24282184D01*
X101881858Y-24278674D01*
X101905750Y-24277500D01*
X102818250Y-24277500D01*
X102842142Y-24278674D01*
X102842142Y-24278674D01*
G37*
D13*
G04 #@! TD*
G04 #@! TO.P,D3,1*
G04 #@! TO.N,LED2*
X102362000Y-24765000D03*
D12*
G04 #@! TO.N,Net-(D3-Pad2)*
G04 #@! TO.C,D3*
G36*
X102842142Y-22403674D02*
X102865803Y-22407184D01*
X102889007Y-22412996D01*
X102911529Y-22421054D01*
X102933153Y-22431282D01*
X102953670Y-22443579D01*
X102972883Y-22457829D01*
X102990607Y-22473893D01*
X103006671Y-22491617D01*
X103020921Y-22510830D01*
X103033218Y-22531347D01*
X103043446Y-22552971D01*
X103051504Y-22575493D01*
X103057316Y-22598697D01*
X103060826Y-22622358D01*
X103062000Y-22646250D01*
X103062000Y-23133750D01*
X103060826Y-23157642D01*
X103057316Y-23181303D01*
X103051504Y-23204507D01*
X103043446Y-23227029D01*
X103033218Y-23248653D01*
X103020921Y-23269170D01*
X103006671Y-23288383D01*
X102990607Y-23306107D01*
X102972883Y-23322171D01*
X102953670Y-23336421D01*
X102933153Y-23348718D01*
X102911529Y-23358946D01*
X102889007Y-23367004D01*
X102865803Y-23372816D01*
X102842142Y-23376326D01*
X102818250Y-23377500D01*
X101905750Y-23377500D01*
X101881858Y-23376326D01*
X101858197Y-23372816D01*
X101834993Y-23367004D01*
X101812471Y-23358946D01*
X101790847Y-23348718D01*
X101770330Y-23336421D01*
X101751117Y-23322171D01*
X101733393Y-23306107D01*
X101717329Y-23288383D01*
X101703079Y-23269170D01*
X101690782Y-23248653D01*
X101680554Y-23227029D01*
X101672496Y-23204507D01*
X101666684Y-23181303D01*
X101663174Y-23157642D01*
X101662000Y-23133750D01*
X101662000Y-22646250D01*
X101663174Y-22622358D01*
X101666684Y-22598697D01*
X101672496Y-22575493D01*
X101680554Y-22552971D01*
X101690782Y-22531347D01*
X101703079Y-22510830D01*
X101717329Y-22491617D01*
X101733393Y-22473893D01*
X101751117Y-22457829D01*
X101770330Y-22443579D01*
X101790847Y-22431282D01*
X101812471Y-22421054D01*
X101834993Y-22412996D01*
X101858197Y-22407184D01*
X101881858Y-22403674D01*
X101905750Y-22402500D01*
X102818250Y-22402500D01*
X102842142Y-22403674D01*
X102842142Y-22403674D01*
G37*
D13*
G04 #@! TD*
G04 #@! TO.P,D3,2*
G04 #@! TO.N,Net-(D3-Pad2)*
X102362000Y-22890000D03*
D12*
G04 #@! TO.N,Net-(D4-Pad2)*
G04 #@! TO.C,D4*
G36*
X106144142Y-22373674D02*
X106167803Y-22377184D01*
X106191007Y-22382996D01*
X106213529Y-22391054D01*
X106235153Y-22401282D01*
X106255670Y-22413579D01*
X106274883Y-22427829D01*
X106292607Y-22443893D01*
X106308671Y-22461617D01*
X106322921Y-22480830D01*
X106335218Y-22501347D01*
X106345446Y-22522971D01*
X106353504Y-22545493D01*
X106359316Y-22568697D01*
X106362826Y-22592358D01*
X106364000Y-22616250D01*
X106364000Y-23103750D01*
X106362826Y-23127642D01*
X106359316Y-23151303D01*
X106353504Y-23174507D01*
X106345446Y-23197029D01*
X106335218Y-23218653D01*
X106322921Y-23239170D01*
X106308671Y-23258383D01*
X106292607Y-23276107D01*
X106274883Y-23292171D01*
X106255670Y-23306421D01*
X106235153Y-23318718D01*
X106213529Y-23328946D01*
X106191007Y-23337004D01*
X106167803Y-23342816D01*
X106144142Y-23346326D01*
X106120250Y-23347500D01*
X105207750Y-23347500D01*
X105183858Y-23346326D01*
X105160197Y-23342816D01*
X105136993Y-23337004D01*
X105114471Y-23328946D01*
X105092847Y-23318718D01*
X105072330Y-23306421D01*
X105053117Y-23292171D01*
X105035393Y-23276107D01*
X105019329Y-23258383D01*
X105005079Y-23239170D01*
X104992782Y-23218653D01*
X104982554Y-23197029D01*
X104974496Y-23174507D01*
X104968684Y-23151303D01*
X104965174Y-23127642D01*
X104964000Y-23103750D01*
X104964000Y-22616250D01*
X104965174Y-22592358D01*
X104968684Y-22568697D01*
X104974496Y-22545493D01*
X104982554Y-22522971D01*
X104992782Y-22501347D01*
X105005079Y-22480830D01*
X105019329Y-22461617D01*
X105035393Y-22443893D01*
X105053117Y-22427829D01*
X105072330Y-22413579D01*
X105092847Y-22401282D01*
X105114471Y-22391054D01*
X105136993Y-22382996D01*
X105160197Y-22377184D01*
X105183858Y-22373674D01*
X105207750Y-22372500D01*
X106120250Y-22372500D01*
X106144142Y-22373674D01*
X106144142Y-22373674D01*
G37*
D13*
G04 #@! TD*
G04 #@! TO.P,D4,2*
G04 #@! TO.N,Net-(D4-Pad2)*
X105664000Y-22860000D03*
D12*
G04 #@! TO.N,LED3*
G04 #@! TO.C,D4*
G36*
X106144142Y-24248674D02*
X106167803Y-24252184D01*
X106191007Y-24257996D01*
X106213529Y-24266054D01*
X106235153Y-24276282D01*
X106255670Y-24288579D01*
X106274883Y-24302829D01*
X106292607Y-24318893D01*
X106308671Y-24336617D01*
X106322921Y-24355830D01*
X106335218Y-24376347D01*
X106345446Y-24397971D01*
X106353504Y-24420493D01*
X106359316Y-24443697D01*
X106362826Y-24467358D01*
X106364000Y-24491250D01*
X106364000Y-24978750D01*
X106362826Y-25002642D01*
X106359316Y-25026303D01*
X106353504Y-25049507D01*
X106345446Y-25072029D01*
X106335218Y-25093653D01*
X106322921Y-25114170D01*
X106308671Y-25133383D01*
X106292607Y-25151107D01*
X106274883Y-25167171D01*
X106255670Y-25181421D01*
X106235153Y-25193718D01*
X106213529Y-25203946D01*
X106191007Y-25212004D01*
X106167803Y-25217816D01*
X106144142Y-25221326D01*
X106120250Y-25222500D01*
X105207750Y-25222500D01*
X105183858Y-25221326D01*
X105160197Y-25217816D01*
X105136993Y-25212004D01*
X105114471Y-25203946D01*
X105092847Y-25193718D01*
X105072330Y-25181421D01*
X105053117Y-25167171D01*
X105035393Y-25151107D01*
X105019329Y-25133383D01*
X105005079Y-25114170D01*
X104992782Y-25093653D01*
X104982554Y-25072029D01*
X104974496Y-25049507D01*
X104968684Y-25026303D01*
X104965174Y-25002642D01*
X104964000Y-24978750D01*
X104964000Y-24491250D01*
X104965174Y-24467358D01*
X104968684Y-24443697D01*
X104974496Y-24420493D01*
X104982554Y-24397971D01*
X104992782Y-24376347D01*
X105005079Y-24355830D01*
X105019329Y-24336617D01*
X105035393Y-24318893D01*
X105053117Y-24302829D01*
X105072330Y-24288579D01*
X105092847Y-24276282D01*
X105114471Y-24266054D01*
X105136993Y-24257996D01*
X105160197Y-24252184D01*
X105183858Y-24248674D01*
X105207750Y-24247500D01*
X106120250Y-24247500D01*
X106144142Y-24248674D01*
X106144142Y-24248674D01*
G37*
D13*
G04 #@! TD*
G04 #@! TO.P,D4,1*
G04 #@! TO.N,LED3*
X105664000Y-24735000D03*
D14*
G04 #@! TO.P,J1,1*
G04 #@! TO.N,3v3*
X85344000Y-18542000D03*
D15*
G04 #@! TO.P,J1,2*
G04 #@! TO.N,Net-(J1-Pad2)*
X85344000Y-17272000D03*
G04 #@! TO.P,J1,3*
G04 #@! TO.N,GND*
X86614000Y-18542000D03*
G04 #@! TO.P,J1,4*
G04 #@! TO.N,Net-(J1-Pad4)*
X86614000Y-17272000D03*
G04 #@! TO.P,J1,5*
G04 #@! TO.N,GND*
X87884000Y-18542000D03*
G04 #@! TO.P,J1,6*
G04 #@! TO.N,Net-(J1-Pad6)*
X87884000Y-17272000D03*
G04 #@! TO.P,J1,7*
G04 #@! TO.N,Net-(J1-Pad7)*
X89154000Y-18542000D03*
G04 #@! TO.P,J1,8*
G04 #@! TO.N,Net-(J1-Pad8)*
X89154000Y-17272000D03*
G04 #@! TO.P,J1,9*
G04 #@! TO.N,GND*
X90424000Y-18542000D03*
G04 #@! TO.P,J1,10*
G04 #@! TO.N,Net-(J1-Pad10)*
X90424000Y-17272000D03*
G04 #@! TD*
D16*
G04 #@! TO.P,J2,1*
G04 #@! TO.N,3v3*
X72644000Y-18973800D03*
D17*
G04 #@! TO.P,J2,2*
G04 #@! TO.N,GND*
X67564000Y-18973800D03*
G04 #@! TD*
D18*
G04 #@! TO.P,RN1,2*
G04 #@! TO.N,Net-(D2-Pad2)*
X98971000Y-17907000D03*
G04 #@! TO.P,RN1,3*
G04 #@! TO.N,Net-(D3-Pad2)*
X99771000Y-17907000D03*
G04 #@! TO.P,RN1,1*
G04 #@! TO.N,Net-(D1-Pad2)*
X98171000Y-17907000D03*
G04 #@! TO.P,RN1,4*
G04 #@! TO.N,Net-(D4-Pad2)*
X100571000Y-17907000D03*
G04 #@! TO.P,RN1,8*
G04 #@! TO.N,3v3*
X98171000Y-16207000D03*
G04 #@! TO.P,RN1,7*
X98971000Y-16207000D03*
G04 #@! TO.P,RN1,6*
X99771000Y-16207000D03*
G04 #@! TO.P,RN1,5*
X100571000Y-16207000D03*
G04 #@! TD*
D19*
G04 #@! TO.P,U1,1*
G04 #@! TO.N,LED3*
X90932000Y-24892000D03*
G04 #@! TO.P,U1,2*
G04 #@! TO.N,LED2*
X90282000Y-24892000D03*
G04 #@! TO.P,U1,3*
G04 #@! TO.N,LED1*
X89632000Y-24892000D03*
G04 #@! TO.P,U1,4*
G04 #@! TO.N,LED0*
X88982000Y-24892000D03*
G04 #@! TO.P,U1,5*
G04 #@! TO.N,Net-(U1-Pad5)*
X88332000Y-24892000D03*
G04 #@! TO.P,U1,6*
G04 #@! TO.N,Net-(J1-Pad10)*
X87682000Y-24892000D03*
G04 #@! TO.P,U1,7*
G04 #@! TO.N,Net-(U1-Pad7)*
X87032000Y-24892000D03*
G04 #@! TO.P,U1,8*
G04 #@! TO.N,Net-(J1-Pad4)*
X86382000Y-24892000D03*
G04 #@! TO.P,U1,9*
G04 #@! TO.N,Net-(J1-Pad2)*
X85732000Y-24892000D03*
G04 #@! TO.P,U1,10*
G04 #@! TO.N,Net-(U1-Pad10)*
X85082000Y-24892000D03*
G04 #@! TO.P,U1,11*
G04 #@! TO.N,Net-(U1-Pad11)*
X84432000Y-24892000D03*
G04 #@! TO.P,U1,12*
G04 #@! TO.N,ACMP*
X83782000Y-24892000D03*
G04 #@! TO.P,U1,13*
G04 #@! TO.N,Net-(U1-Pad13)*
X83782000Y-30592000D03*
G04 #@! TO.P,U1,14*
G04 #@! TO.N,Net-(U1-Pad14)*
X84432000Y-30592000D03*
G04 #@! TO.P,U1,15*
G04 #@! TO.N,CAPT_X3*
X85082000Y-30592000D03*
G04 #@! TO.P,U1,16*
G04 #@! TO.N,CAPT_X2*
X85732000Y-30592000D03*
G04 #@! TO.P,U1,17*
G04 #@! TO.N,CAPT_X1*
X86382000Y-30592000D03*
G04 #@! TO.P,U1,18*
G04 #@! TO.N,3v3*
X87032000Y-30592000D03*
G04 #@! TO.P,U1,19*
G04 #@! TO.N,GND*
X87682000Y-30592000D03*
G04 #@! TO.P,U1,20*
G04 #@! TO.N,CAPT_X0*
X88332000Y-30592000D03*
G04 #@! TO.P,U1,21*
G04 #@! TO.N,Net-(U1-Pad21)*
X88982000Y-30592000D03*
G04 #@! TO.P,U1,22*
G04 #@! TO.N,Net-(U1-Pad22)*
X89632000Y-30592000D03*
G04 #@! TO.P,U1,23*
G04 #@! TO.N,ACMP*
X90282000Y-30592000D03*
G04 #@! TO.P,U1,24*
G04 #@! TO.N,CAPT_YL*
X90932000Y-30592000D03*
G04 #@! TD*
D20*
G04 #@! TO.P,C2,1*
G04 #@! TO.N,CAPT_X0*
X66217800Y-47066200D03*
G04 #@! TO.P,C2,2*
G04 #@! TO.N,ACMP*
X63931800Y-48590200D03*
G04 #@! TD*
G04 #@! TO.P,C3,2*
G04 #@! TO.N,ACMP*
X55676800Y-46583600D03*
G04 #@! TO.P,C3,1*
G04 #@! TO.N,CAPT_X1*
X57200800Y-48869600D03*
G04 #@! TD*
G04 #@! TO.P,C4,1*
G04 #@! TO.N,CAPT_X2*
X55295800Y-41452800D03*
G04 #@! TO.P,C4,2*
G04 #@! TO.N,ACMP*
X57581800Y-39928800D03*
G04 #@! TD*
G04 #@! TO.P,C5,2*
G04 #@! TO.N,ACMP*
X65633600Y-41325800D03*
G04 #@! TO.P,C5,1*
G04 #@! TO.N,CAPT_X3*
X64109600Y-39039800D03*
G04 #@! TD*
D21*
G04 #@! TO.N,ACMP*
X60604400Y-43713400D03*
X90805000Y-37084000D03*
G04 #@! TO.N,3v3*
X86995000Y-27813000D03*
G04 #@! TO.N,GND*
X87757000Y-28702000D03*
G04 #@! TO.N,Net-(J1-Pad4)*
X86487000Y-21717000D03*
X86540153Y-23578153D03*
G04 #@! TO.N,Net-(J1-Pad10)*
X87757000Y-23368000D03*
G04 #@! TD*
D22*
G04 #@! TO.N,ACMP*
X91821000Y-36957000D02*
X91821000Y-35306000D01*
X90805000Y-37084000D02*
X91694000Y-37084000D01*
X90282000Y-30592000D02*
X90282000Y-31392000D01*
X91694000Y-37084000D02*
X91821000Y-36957000D01*
X90282000Y-31392000D02*
X90297000Y-31407000D01*
X90297000Y-31407000D02*
X90297000Y-36576000D01*
X90297000Y-36576000D02*
X90805000Y-37084000D01*
X90282000Y-28687000D02*
X90282000Y-30592000D01*
X83782000Y-24892000D02*
X83782000Y-26251000D01*
X88138000Y-26543000D02*
X90282000Y-28687000D01*
X83782000Y-26251000D02*
X84074000Y-26543000D01*
X84074000Y-26543000D02*
X88138000Y-26543000D01*
X64791400Y-43713400D02*
X65633600Y-42871200D01*
X65633600Y-42871200D02*
X65633600Y-41859200D01*
X60604400Y-43713400D02*
X64791400Y-43713400D01*
X60604400Y-43713400D02*
X57099200Y-43713400D01*
X55676800Y-45135800D02*
X55676800Y-46583600D01*
X57099200Y-43713400D02*
X55676800Y-45135800D01*
X60604400Y-41021000D02*
X59639200Y-40055800D01*
X59639200Y-40055800D02*
X57937400Y-40055800D01*
X60604400Y-43713400D02*
X60604400Y-41021000D01*
X61417200Y-48514000D02*
X63728600Y-48514000D01*
X60604400Y-47701200D02*
X61417200Y-48514000D01*
X60604400Y-43713400D02*
X60604400Y-47701200D01*
G04 #@! TO.N,CAPT_YL*
X91821000Y-32843500D02*
X90932000Y-31954500D01*
X91821000Y-33431000D02*
X91821000Y-32843500D01*
X90932000Y-31242000D02*
X90932000Y-30592000D01*
X90932000Y-31954500D02*
X90932000Y-31242000D01*
G04 #@! TO.N,3v3*
X87032000Y-31459000D02*
X87032000Y-30592000D01*
X86009000Y-34798000D02*
X84709000Y-34798000D01*
X84328000Y-34163000D02*
X87032000Y-31459000D01*
X84709000Y-34798000D02*
X84328000Y-34417000D01*
X84328000Y-34417000D02*
X84328000Y-34163000D01*
X85090000Y-38100000D02*
X86009000Y-38100000D01*
X84328000Y-37338000D02*
X85090000Y-38100000D01*
X84328000Y-34163000D02*
X84328000Y-37338000D01*
X86995000Y-30555000D02*
X87032000Y-30592000D01*
X86995000Y-27813000D02*
X86995000Y-30555000D01*
X92202000Y-14732000D02*
X93677000Y-16207000D01*
X85344000Y-18542000D02*
X84594000Y-18542000D01*
X84963000Y-14732000D02*
X92202000Y-14732000D01*
X83693000Y-17641000D02*
X83693000Y-16002000D01*
X93677000Y-16207000D02*
X100571000Y-16207000D01*
X84594000Y-18542000D02*
X83693000Y-17641000D01*
X83693000Y-16002000D02*
X84963000Y-14732000D01*
G04 #@! TO.N,GND*
X87682000Y-30592000D02*
X87682000Y-32183000D01*
X87682000Y-32183000D02*
X89154000Y-33655000D01*
X89154000Y-33655000D02*
X89154000Y-34671000D01*
X89027000Y-34798000D02*
X87884000Y-34798000D01*
X89154000Y-34671000D02*
X89027000Y-34798000D01*
X89154000Y-34671000D02*
X89154000Y-37846000D01*
X88900000Y-38100000D02*
X87884000Y-38100000D01*
X89154000Y-37846000D02*
X88900000Y-38100000D01*
X86614000Y-18542000D02*
X87884000Y-18542000D01*
X88383999Y-19041999D02*
X87884000Y-18542000D01*
X88709001Y-19367001D02*
X88383999Y-19041999D01*
X89598999Y-19367001D02*
X88709001Y-19367001D01*
X90424000Y-18542000D02*
X89598999Y-19367001D01*
X67564000Y-18973800D02*
X72466200Y-23876000D01*
X81987106Y-23876000D02*
X75057000Y-23876000D01*
X72466200Y-23876000D02*
X75057000Y-23876000D01*
X81987106Y-23876000D02*
X86614000Y-19249106D01*
X86614000Y-19249106D02*
X86614000Y-18542000D01*
X87682000Y-30592000D02*
X87682000Y-28777000D01*
X87682000Y-28777000D02*
X87757000Y-28702000D01*
G04 #@! TO.N,LED0*
X95885000Y-24765000D02*
X95885000Y-25654000D01*
X95885000Y-25654000D02*
X95631000Y-25908000D01*
X95631000Y-25908000D02*
X94615000Y-25908000D01*
X94615000Y-25908000D02*
X94488000Y-25781000D01*
X94488000Y-25781000D02*
X94488000Y-21590000D01*
X94488000Y-21590000D02*
X93599000Y-20701000D01*
X93599000Y-20701000D02*
X90678000Y-20701000D01*
X88982000Y-22397000D02*
X88982000Y-24892000D01*
X90678000Y-20701000D02*
X88982000Y-22397000D01*
G04 #@! TO.N,Net-(D1-Pad2)*
X95885000Y-21590000D02*
X98171000Y-19304000D01*
X98171000Y-19304000D02*
X98171000Y-17907000D01*
X95885000Y-22890000D02*
X95885000Y-21590000D01*
G04 #@! TO.N,Net-(D2-Pad2)*
X98971000Y-22801000D02*
X99060000Y-22890000D01*
X98971000Y-17907000D02*
X98971000Y-22801000D01*
G04 #@! TO.N,LED1*
X99060000Y-26416000D02*
X99060000Y-24765000D01*
X98806000Y-26670000D02*
X99060000Y-26416000D01*
X93980000Y-26162000D02*
X94488000Y-26670000D01*
X93980000Y-21844000D02*
X93980000Y-26162000D01*
X89632000Y-24892000D02*
X89632000Y-22383410D01*
X90864400Y-21151010D02*
X93287010Y-21151010D01*
X94488000Y-26670000D02*
X98806000Y-26670000D01*
X89632000Y-22383410D02*
X90864400Y-21151010D01*
X93287010Y-21151010D02*
X93980000Y-21844000D01*
G04 #@! TO.N,LED2*
X90282000Y-22369820D02*
X90282000Y-24892000D01*
X91050800Y-21601020D02*
X90282000Y-22369820D01*
X92848020Y-21601020D02*
X91050800Y-21601020D01*
X93472000Y-26416000D02*
X93472000Y-22225000D01*
X101911990Y-27120010D02*
X94176010Y-27120010D01*
X102362000Y-26670000D02*
X101911990Y-27120010D01*
X93472000Y-22225000D02*
X92848020Y-21601020D01*
X102362000Y-24765000D02*
X102362000Y-26670000D01*
X94176010Y-27120010D02*
X93472000Y-26416000D01*
G04 #@! TO.N,Net-(D3-Pad2)*
X102362000Y-21717000D02*
X102362000Y-22890000D01*
X99771000Y-19126000D02*
X102362000Y-21717000D01*
X99771000Y-17907000D02*
X99771000Y-19126000D01*
G04 #@! TO.N,Net-(D4-Pad2)*
X105664000Y-21717000D02*
X105664000Y-22860000D01*
X100571000Y-17907000D02*
X100571000Y-18607000D01*
X100571000Y-18607000D02*
X103046000Y-21082000D01*
X103046000Y-21082000D02*
X105029000Y-21082000D01*
X105029000Y-21082000D02*
X105664000Y-21717000D01*
G04 #@! TO.N,LED3*
X92964000Y-22479000D02*
X92536030Y-22051030D01*
X92964000Y-26544410D02*
X92964000Y-22479000D01*
X92536030Y-22051030D02*
X91237200Y-22051030D01*
X105664000Y-24735000D02*
X105664000Y-27051000D01*
X105664000Y-27051000D02*
X105144980Y-27570020D01*
X91237200Y-22051030D02*
X90932000Y-22356230D01*
X105144980Y-27570020D02*
X93989610Y-27570020D01*
X90932000Y-22356230D02*
X90932000Y-24892000D01*
X93989610Y-27570020D02*
X92964000Y-26544410D01*
G04 #@! TO.N,Net-(J1-Pad2)*
X85344000Y-17272000D02*
X85344000Y-15563010D01*
X85344000Y-15563010D02*
X85725000Y-15182010D01*
X85725000Y-15182010D02*
X91890010Y-15182010D01*
X91890010Y-15182010D02*
X93345000Y-16637000D01*
X93345000Y-16637000D02*
X93345000Y-19685000D01*
X93345000Y-19685000D02*
X92837000Y-20193000D01*
X90549590Y-20193000D02*
X88263590Y-22479000D01*
X92837000Y-20193000D02*
X90549590Y-20193000D01*
X88263590Y-22479000D02*
X86614000Y-22479000D01*
X85732000Y-23361000D02*
X85732000Y-24892000D01*
X86614000Y-22479000D02*
X85732000Y-23361000D01*
G04 #@! TO.N,Net-(J1-Pad4)*
X86614000Y-17272000D02*
X86614000Y-16129000D01*
X86614000Y-16002000D02*
X86983980Y-15632020D01*
X86614000Y-16129000D02*
X86614000Y-16002000D01*
X86983980Y-15632020D02*
X91578020Y-15632020D01*
X91578020Y-15632020D02*
X92837000Y-16891000D01*
X92837000Y-16891000D02*
X92837000Y-19431000D01*
X92837000Y-19431000D02*
X92583000Y-19685000D01*
X89917410Y-19685000D02*
X87885410Y-21717000D01*
X87885410Y-21717000D02*
X86487000Y-21717000D01*
X92583000Y-19685000D02*
X89917410Y-19685000D01*
X86382000Y-23736306D02*
X86382000Y-24892000D01*
X86540153Y-23578153D02*
X86382000Y-23736306D01*
G04 #@! TO.N,Net-(J1-Pad10)*
X87682000Y-23443000D02*
X87757000Y-23368000D01*
X87682000Y-24892000D02*
X87682000Y-23443000D01*
G04 #@! TO.N,CAPT_X3*
X85082000Y-31392000D02*
X85082000Y-30592000D01*
X84343000Y-32131000D02*
X85082000Y-31392000D01*
X79908400Y-32131000D02*
X84343000Y-32131000D01*
X64109600Y-39039800D02*
X64109600Y-28778200D01*
X64312800Y-28575000D02*
X76352400Y-28575000D01*
X64109600Y-28778200D02*
X64312800Y-28575000D01*
X76352400Y-28575000D02*
X79908400Y-32131000D01*
G04 #@! TO.N,CAPT_X2*
X83626000Y-27686000D02*
X85732000Y-29792000D01*
X44627800Y-27686000D02*
X83626000Y-27686000D01*
X44297600Y-28016200D02*
X44627800Y-27686000D01*
X44297600Y-40868600D02*
X44297600Y-28016200D01*
X85732000Y-29792000D02*
X85732000Y-30592000D01*
X44881800Y-41452800D02*
X44297600Y-40868600D01*
X55295800Y-41452800D02*
X44881800Y-41452800D01*
G04 #@! TO.N,CAPT_X1*
X86382000Y-28774800D02*
X86382000Y-30592000D01*
X44473990Y-27203400D02*
X84810600Y-27203400D01*
X41376600Y-30300790D02*
X44473990Y-27203400D01*
X41376600Y-57505600D02*
X41376600Y-30300790D01*
X57200800Y-48869600D02*
X57200800Y-59258200D01*
X57200800Y-59258200D02*
X56286400Y-60172600D01*
X56286400Y-60172600D02*
X44043600Y-60172600D01*
X84810600Y-27203400D02*
X86382000Y-28774800D01*
X44043600Y-60172600D02*
X41376600Y-57505600D01*
G04 #@! TO.N,CAPT_X0*
X88332000Y-31392000D02*
X89763600Y-32823600D01*
X88332000Y-30592000D02*
X88332000Y-31392000D01*
X89763600Y-32823600D02*
X89763600Y-40589200D01*
X83286600Y-47066200D02*
X66217800Y-47066200D01*
X89763600Y-40589200D02*
X83286600Y-47066200D01*
G04 #@! TD*
M02*
