G04 #@! TF.GenerationSoftware,KiCad,Pcbnew,5.0.2-bee76a0~70~ubuntu16.04.1*
G04 #@! TF.CreationDate,2020-01-03T14:39:20-08:00*
G04 #@! TF.ProjectId,Cap_touch_test,4361705f-746f-4756-9368-5f746573742e,rev?*
G04 #@! TF.SameCoordinates,Original*
G04 #@! TF.FileFunction,Soldermask,Bot*
G04 #@! TF.FilePolarity,Negative*
%FSLAX46Y46*%
G04 Gerber Fmt 4.6, Leading zero omitted, Abs format (unit mm)*
G04 Created by KiCad (PCBNEW 5.0.2-bee76a0~70~ubuntu16.04.1) date Fri 03 Jan 2020 14:39:20 PST*
%MOMM*%
%LPD*%
G01*
G04 APERTURE LIST*
%ADD10C,0.100000*%
G04 APERTURE END LIST*
D10*
G36*
X67916527Y-17462536D02*
X68016410Y-17482404D01*
X68298674Y-17599321D01*
X68552705Y-17769059D01*
X68768741Y-17985095D01*
X68938479Y-18239126D01*
X69055396Y-18521390D01*
X69075264Y-18621273D01*
X69111972Y-18805814D01*
X69115000Y-18821040D01*
X69115000Y-19126560D01*
X69055396Y-19426210D01*
X68938479Y-19708474D01*
X68768741Y-19962505D01*
X68552705Y-20178541D01*
X68298674Y-20348279D01*
X68016410Y-20465196D01*
X67916527Y-20485064D01*
X67716762Y-20524800D01*
X67411238Y-20524800D01*
X67211473Y-20485064D01*
X67111590Y-20465196D01*
X66829326Y-20348279D01*
X66575295Y-20178541D01*
X66359259Y-19962505D01*
X66189521Y-19708474D01*
X66072604Y-19426210D01*
X66013000Y-19126560D01*
X66013000Y-18821040D01*
X66016029Y-18805814D01*
X66052736Y-18621273D01*
X66072604Y-18521390D01*
X66189521Y-18239126D01*
X66359259Y-17985095D01*
X66575295Y-17769059D01*
X66829326Y-17599321D01*
X67111590Y-17482404D01*
X67211473Y-17462536D01*
X67411238Y-17422800D01*
X67716762Y-17422800D01*
X67916527Y-17462536D01*
X67916527Y-17462536D01*
G37*
G36*
X74195000Y-20524800D02*
X71093000Y-20524800D01*
X71093000Y-17422800D01*
X74195000Y-17422800D01*
X74195000Y-20524800D01*
X74195000Y-20524800D01*
G37*
G36*
X85452015Y-16728973D02*
X85555879Y-16760479D01*
X85651600Y-16811644D01*
X85735501Y-16880499D01*
X85804356Y-16964400D01*
X85855521Y-17060121D01*
X85859383Y-17072854D01*
X85868760Y-17095493D01*
X85882374Y-17115867D01*
X85899701Y-17133194D01*
X85920076Y-17146808D01*
X85942715Y-17156186D01*
X85966748Y-17160966D01*
X85991252Y-17160966D01*
X86015286Y-17156185D01*
X86037925Y-17146808D01*
X86058299Y-17133194D01*
X86075626Y-17115867D01*
X86089240Y-17095492D01*
X86098617Y-17072854D01*
X86102479Y-17060121D01*
X86153644Y-16964400D01*
X86222499Y-16880499D01*
X86306400Y-16811644D01*
X86402121Y-16760479D01*
X86505985Y-16728973D01*
X86586933Y-16721000D01*
X86641067Y-16721000D01*
X86722015Y-16728973D01*
X86825879Y-16760479D01*
X86921600Y-16811644D01*
X87005501Y-16880499D01*
X87074356Y-16964400D01*
X87125521Y-17060121D01*
X87129383Y-17072854D01*
X87138760Y-17095493D01*
X87152374Y-17115867D01*
X87169701Y-17133194D01*
X87190076Y-17146808D01*
X87212715Y-17156186D01*
X87236748Y-17160966D01*
X87261252Y-17160966D01*
X87285286Y-17156185D01*
X87307925Y-17146808D01*
X87328299Y-17133194D01*
X87345626Y-17115867D01*
X87359240Y-17095492D01*
X87368617Y-17072854D01*
X87372479Y-17060121D01*
X87423644Y-16964400D01*
X87492499Y-16880499D01*
X87576400Y-16811644D01*
X87672121Y-16760479D01*
X87775985Y-16728973D01*
X87856933Y-16721000D01*
X87911067Y-16721000D01*
X87992015Y-16728973D01*
X88095879Y-16760479D01*
X88191600Y-16811644D01*
X88275501Y-16880499D01*
X88344356Y-16964400D01*
X88395521Y-17060121D01*
X88399383Y-17072854D01*
X88408760Y-17095493D01*
X88422374Y-17115867D01*
X88439701Y-17133194D01*
X88460076Y-17146808D01*
X88482715Y-17156186D01*
X88506748Y-17160966D01*
X88531252Y-17160966D01*
X88555286Y-17156185D01*
X88577925Y-17146808D01*
X88598299Y-17133194D01*
X88615626Y-17115867D01*
X88629240Y-17095492D01*
X88638617Y-17072854D01*
X88642479Y-17060121D01*
X88693644Y-16964400D01*
X88762499Y-16880499D01*
X88846400Y-16811644D01*
X88942121Y-16760479D01*
X89045985Y-16728973D01*
X89126933Y-16721000D01*
X89181067Y-16721000D01*
X89262015Y-16728973D01*
X89365879Y-16760479D01*
X89461600Y-16811644D01*
X89545501Y-16880499D01*
X89614356Y-16964400D01*
X89665521Y-17060121D01*
X89669383Y-17072854D01*
X89678760Y-17095493D01*
X89692374Y-17115867D01*
X89709701Y-17133194D01*
X89730076Y-17146808D01*
X89752715Y-17156186D01*
X89776748Y-17160966D01*
X89801252Y-17160966D01*
X89825286Y-17156185D01*
X89847925Y-17146808D01*
X89868299Y-17133194D01*
X89885626Y-17115867D01*
X89899240Y-17095492D01*
X89908617Y-17072854D01*
X89912479Y-17060121D01*
X89963644Y-16964400D01*
X90032499Y-16880499D01*
X90116400Y-16811644D01*
X90212121Y-16760479D01*
X90315985Y-16728973D01*
X90396933Y-16721000D01*
X90451067Y-16721000D01*
X90532015Y-16728973D01*
X90635879Y-16760479D01*
X90731600Y-16811644D01*
X90815501Y-16880499D01*
X90884356Y-16964400D01*
X90935521Y-17060121D01*
X90967027Y-17163985D01*
X90977666Y-17272000D01*
X90967027Y-17380015D01*
X90935521Y-17483879D01*
X90884356Y-17579600D01*
X90815501Y-17663501D01*
X90731600Y-17732356D01*
X90635879Y-17783521D01*
X90623142Y-17787385D01*
X90600507Y-17796760D01*
X90580133Y-17810374D01*
X90562806Y-17827701D01*
X90549192Y-17848076D01*
X90539814Y-17870715D01*
X90535034Y-17894748D01*
X90535034Y-17919252D01*
X90539815Y-17943286D01*
X90549192Y-17965925D01*
X90562806Y-17986299D01*
X90580133Y-18003626D01*
X90600508Y-18017240D01*
X90623142Y-18026615D01*
X90635879Y-18030479D01*
X90731600Y-18081644D01*
X90815501Y-18150499D01*
X90884356Y-18234400D01*
X90935521Y-18330121D01*
X90967027Y-18433985D01*
X90977666Y-18542000D01*
X90967027Y-18650015D01*
X90935521Y-18753879D01*
X90884356Y-18849600D01*
X90815501Y-18933501D01*
X90731600Y-19002356D01*
X90635879Y-19053521D01*
X90532015Y-19085027D01*
X90451067Y-19093000D01*
X90396933Y-19093000D01*
X90315985Y-19085027D01*
X90212121Y-19053521D01*
X90116400Y-19002356D01*
X90032499Y-18933501D01*
X89963644Y-18849600D01*
X89912479Y-18753879D01*
X89908615Y-18741142D01*
X89899240Y-18718507D01*
X89885626Y-18698133D01*
X89868299Y-18680806D01*
X89847924Y-18667192D01*
X89825285Y-18657814D01*
X89801252Y-18653034D01*
X89776748Y-18653034D01*
X89752714Y-18657815D01*
X89730075Y-18667192D01*
X89709701Y-18680806D01*
X89692374Y-18698133D01*
X89678760Y-18718508D01*
X89669385Y-18741142D01*
X89665521Y-18753879D01*
X89614356Y-18849600D01*
X89545501Y-18933501D01*
X89461600Y-19002356D01*
X89365879Y-19053521D01*
X89262015Y-19085027D01*
X89181067Y-19093000D01*
X89126933Y-19093000D01*
X89045985Y-19085027D01*
X88942121Y-19053521D01*
X88846400Y-19002356D01*
X88762499Y-18933501D01*
X88693644Y-18849600D01*
X88642479Y-18753879D01*
X88638615Y-18741142D01*
X88629240Y-18718507D01*
X88615626Y-18698133D01*
X88598299Y-18680806D01*
X88577924Y-18667192D01*
X88555285Y-18657814D01*
X88531252Y-18653034D01*
X88506748Y-18653034D01*
X88482714Y-18657815D01*
X88460075Y-18667192D01*
X88439701Y-18680806D01*
X88422374Y-18698133D01*
X88408760Y-18718508D01*
X88399385Y-18741142D01*
X88395521Y-18753879D01*
X88344356Y-18849600D01*
X88275501Y-18933501D01*
X88191600Y-19002356D01*
X88095879Y-19053521D01*
X87992015Y-19085027D01*
X87911067Y-19093000D01*
X87856933Y-19093000D01*
X87775985Y-19085027D01*
X87672121Y-19053521D01*
X87576400Y-19002356D01*
X87492499Y-18933501D01*
X87423644Y-18849600D01*
X87372479Y-18753879D01*
X87368615Y-18741142D01*
X87359240Y-18718507D01*
X87345626Y-18698133D01*
X87328299Y-18680806D01*
X87307924Y-18667192D01*
X87285285Y-18657814D01*
X87261252Y-18653034D01*
X87236748Y-18653034D01*
X87212714Y-18657815D01*
X87190075Y-18667192D01*
X87169701Y-18680806D01*
X87152374Y-18698133D01*
X87138760Y-18718508D01*
X87129385Y-18741142D01*
X87125521Y-18753879D01*
X87074356Y-18849600D01*
X87005501Y-18933501D01*
X86921600Y-19002356D01*
X86825879Y-19053521D01*
X86722015Y-19085027D01*
X86641067Y-19093000D01*
X86586933Y-19093000D01*
X86505985Y-19085027D01*
X86402121Y-19053521D01*
X86306400Y-19002356D01*
X86222499Y-18933501D01*
X86153644Y-18849600D01*
X86130234Y-18805805D01*
X86116626Y-18785439D01*
X86099299Y-18768111D01*
X86078924Y-18754498D01*
X86056285Y-18745120D01*
X86032252Y-18740340D01*
X86007748Y-18740340D01*
X85983714Y-18745121D01*
X85961075Y-18754498D01*
X85940701Y-18768112D01*
X85923373Y-18785439D01*
X85909760Y-18805814D01*
X85900382Y-18828453D01*
X85895000Y-18864738D01*
X85895000Y-19093000D01*
X84793000Y-19093000D01*
X84793000Y-17991000D01*
X85021262Y-17991000D01*
X85045648Y-17988598D01*
X85069097Y-17981485D01*
X85090708Y-17969934D01*
X85109650Y-17954388D01*
X85125196Y-17935446D01*
X85136747Y-17913835D01*
X85143860Y-17890386D01*
X85146262Y-17866000D01*
X85145056Y-17853748D01*
X85542340Y-17853748D01*
X85542340Y-17878252D01*
X85547121Y-17902286D01*
X85556498Y-17924925D01*
X85570112Y-17945299D01*
X85587439Y-17962627D01*
X85607814Y-17976240D01*
X85630453Y-17985618D01*
X85666738Y-17991000D01*
X85895000Y-17991000D01*
X85895000Y-18219262D01*
X85897402Y-18243648D01*
X85904515Y-18267097D01*
X85916066Y-18288708D01*
X85931612Y-18307650D01*
X85950554Y-18323196D01*
X85972165Y-18334747D01*
X85995614Y-18341860D01*
X86020000Y-18344262D01*
X86044386Y-18341860D01*
X86067835Y-18334747D01*
X86089446Y-18323196D01*
X86108388Y-18307650D01*
X86130236Y-18278192D01*
X86153644Y-18234400D01*
X86222499Y-18150499D01*
X86306400Y-18081644D01*
X86402121Y-18030479D01*
X86414858Y-18026615D01*
X86437493Y-18017240D01*
X86457867Y-18003626D01*
X86475194Y-17986299D01*
X86488808Y-17965924D01*
X86498186Y-17943285D01*
X86502966Y-17919252D01*
X86502966Y-17894748D01*
X86725034Y-17894748D01*
X86725034Y-17919252D01*
X86729815Y-17943286D01*
X86739192Y-17965925D01*
X86752806Y-17986299D01*
X86770133Y-18003626D01*
X86790508Y-18017240D01*
X86813142Y-18026615D01*
X86825879Y-18030479D01*
X86921600Y-18081644D01*
X87005501Y-18150499D01*
X87074356Y-18234400D01*
X87125521Y-18330121D01*
X87129383Y-18342854D01*
X87138760Y-18365493D01*
X87152374Y-18385867D01*
X87169701Y-18403194D01*
X87190076Y-18416808D01*
X87212715Y-18426186D01*
X87236748Y-18430966D01*
X87261252Y-18430966D01*
X87285286Y-18426185D01*
X87307925Y-18416808D01*
X87328299Y-18403194D01*
X87345626Y-18385867D01*
X87359240Y-18365492D01*
X87368617Y-18342854D01*
X87372479Y-18330121D01*
X87423644Y-18234400D01*
X87492499Y-18150499D01*
X87576400Y-18081644D01*
X87672121Y-18030479D01*
X87684858Y-18026615D01*
X87707493Y-18017240D01*
X87727867Y-18003626D01*
X87745194Y-17986299D01*
X87758808Y-17965924D01*
X87768186Y-17943285D01*
X87772966Y-17919252D01*
X87772966Y-17894748D01*
X87995034Y-17894748D01*
X87995034Y-17919252D01*
X87999815Y-17943286D01*
X88009192Y-17965925D01*
X88022806Y-17986299D01*
X88040133Y-18003626D01*
X88060508Y-18017240D01*
X88083142Y-18026615D01*
X88095879Y-18030479D01*
X88191600Y-18081644D01*
X88275501Y-18150499D01*
X88344356Y-18234400D01*
X88395521Y-18330121D01*
X88399383Y-18342854D01*
X88408760Y-18365493D01*
X88422374Y-18385867D01*
X88439701Y-18403194D01*
X88460076Y-18416808D01*
X88482715Y-18426186D01*
X88506748Y-18430966D01*
X88531252Y-18430966D01*
X88555286Y-18426185D01*
X88577925Y-18416808D01*
X88598299Y-18403194D01*
X88615626Y-18385867D01*
X88629240Y-18365492D01*
X88638617Y-18342854D01*
X88642479Y-18330121D01*
X88693644Y-18234400D01*
X88762499Y-18150499D01*
X88846400Y-18081644D01*
X88942121Y-18030479D01*
X88954858Y-18026615D01*
X88977493Y-18017240D01*
X88997867Y-18003626D01*
X89015194Y-17986299D01*
X89028808Y-17965924D01*
X89038186Y-17943285D01*
X89042966Y-17919252D01*
X89042966Y-17894748D01*
X89265034Y-17894748D01*
X89265034Y-17919252D01*
X89269815Y-17943286D01*
X89279192Y-17965925D01*
X89292806Y-17986299D01*
X89310133Y-18003626D01*
X89330508Y-18017240D01*
X89353142Y-18026615D01*
X89365879Y-18030479D01*
X89461600Y-18081644D01*
X89545501Y-18150499D01*
X89614356Y-18234400D01*
X89665521Y-18330121D01*
X89669383Y-18342854D01*
X89678760Y-18365493D01*
X89692374Y-18385867D01*
X89709701Y-18403194D01*
X89730076Y-18416808D01*
X89752715Y-18426186D01*
X89776748Y-18430966D01*
X89801252Y-18430966D01*
X89825286Y-18426185D01*
X89847925Y-18416808D01*
X89868299Y-18403194D01*
X89885626Y-18385867D01*
X89899240Y-18365492D01*
X89908617Y-18342854D01*
X89912479Y-18330121D01*
X89963644Y-18234400D01*
X90032499Y-18150499D01*
X90116400Y-18081644D01*
X90212121Y-18030479D01*
X90224858Y-18026615D01*
X90247493Y-18017240D01*
X90267867Y-18003626D01*
X90285194Y-17986299D01*
X90298808Y-17965924D01*
X90308186Y-17943285D01*
X90312966Y-17919252D01*
X90312966Y-17894748D01*
X90308185Y-17870714D01*
X90298808Y-17848075D01*
X90285194Y-17827701D01*
X90267867Y-17810374D01*
X90247492Y-17796760D01*
X90224858Y-17787385D01*
X90212121Y-17783521D01*
X90116400Y-17732356D01*
X90032499Y-17663501D01*
X89963644Y-17579600D01*
X89912479Y-17483879D01*
X89908615Y-17471142D01*
X89899240Y-17448507D01*
X89885626Y-17428133D01*
X89868299Y-17410806D01*
X89847924Y-17397192D01*
X89825285Y-17387814D01*
X89801252Y-17383034D01*
X89776748Y-17383034D01*
X89752714Y-17387815D01*
X89730075Y-17397192D01*
X89709701Y-17410806D01*
X89692374Y-17428133D01*
X89678760Y-17448508D01*
X89669385Y-17471142D01*
X89665521Y-17483879D01*
X89614356Y-17579600D01*
X89545501Y-17663501D01*
X89461600Y-17732356D01*
X89365879Y-17783521D01*
X89353142Y-17787385D01*
X89330507Y-17796760D01*
X89310133Y-17810374D01*
X89292806Y-17827701D01*
X89279192Y-17848076D01*
X89269814Y-17870715D01*
X89265034Y-17894748D01*
X89042966Y-17894748D01*
X89038185Y-17870714D01*
X89028808Y-17848075D01*
X89015194Y-17827701D01*
X88997867Y-17810374D01*
X88977492Y-17796760D01*
X88954858Y-17787385D01*
X88942121Y-17783521D01*
X88846400Y-17732356D01*
X88762499Y-17663501D01*
X88693644Y-17579600D01*
X88642479Y-17483879D01*
X88638615Y-17471142D01*
X88629240Y-17448507D01*
X88615626Y-17428133D01*
X88598299Y-17410806D01*
X88577924Y-17397192D01*
X88555285Y-17387814D01*
X88531252Y-17383034D01*
X88506748Y-17383034D01*
X88482714Y-17387815D01*
X88460075Y-17397192D01*
X88439701Y-17410806D01*
X88422374Y-17428133D01*
X88408760Y-17448508D01*
X88399385Y-17471142D01*
X88395521Y-17483879D01*
X88344356Y-17579600D01*
X88275501Y-17663501D01*
X88191600Y-17732356D01*
X88095879Y-17783521D01*
X88083142Y-17787385D01*
X88060507Y-17796760D01*
X88040133Y-17810374D01*
X88022806Y-17827701D01*
X88009192Y-17848076D01*
X87999814Y-17870715D01*
X87995034Y-17894748D01*
X87772966Y-17894748D01*
X87768185Y-17870714D01*
X87758808Y-17848075D01*
X87745194Y-17827701D01*
X87727867Y-17810374D01*
X87707492Y-17796760D01*
X87684858Y-17787385D01*
X87672121Y-17783521D01*
X87576400Y-17732356D01*
X87492499Y-17663501D01*
X87423644Y-17579600D01*
X87372479Y-17483879D01*
X87368615Y-17471142D01*
X87359240Y-17448507D01*
X87345626Y-17428133D01*
X87328299Y-17410806D01*
X87307924Y-17397192D01*
X87285285Y-17387814D01*
X87261252Y-17383034D01*
X87236748Y-17383034D01*
X87212714Y-17387815D01*
X87190075Y-17397192D01*
X87169701Y-17410806D01*
X87152374Y-17428133D01*
X87138760Y-17448508D01*
X87129385Y-17471142D01*
X87125521Y-17483879D01*
X87074356Y-17579600D01*
X87005501Y-17663501D01*
X86921600Y-17732356D01*
X86825879Y-17783521D01*
X86813142Y-17787385D01*
X86790507Y-17796760D01*
X86770133Y-17810374D01*
X86752806Y-17827701D01*
X86739192Y-17848076D01*
X86729814Y-17870715D01*
X86725034Y-17894748D01*
X86502966Y-17894748D01*
X86498185Y-17870714D01*
X86488808Y-17848075D01*
X86475194Y-17827701D01*
X86457867Y-17810374D01*
X86437492Y-17796760D01*
X86414858Y-17787385D01*
X86402121Y-17783521D01*
X86306400Y-17732356D01*
X86222499Y-17663501D01*
X86153644Y-17579600D01*
X86102479Y-17483879D01*
X86098615Y-17471142D01*
X86089240Y-17448507D01*
X86075626Y-17428133D01*
X86058299Y-17410806D01*
X86037924Y-17397192D01*
X86015285Y-17387814D01*
X85991252Y-17383034D01*
X85966748Y-17383034D01*
X85942714Y-17387815D01*
X85920075Y-17397192D01*
X85899701Y-17410806D01*
X85882374Y-17428133D01*
X85868760Y-17448508D01*
X85859385Y-17471142D01*
X85855521Y-17483879D01*
X85804356Y-17579600D01*
X85735501Y-17663501D01*
X85651600Y-17732356D01*
X85607805Y-17755766D01*
X85587439Y-17769374D01*
X85570111Y-17786701D01*
X85556498Y-17807076D01*
X85547120Y-17829715D01*
X85542340Y-17853748D01*
X85145056Y-17853748D01*
X85143860Y-17841614D01*
X85136747Y-17818165D01*
X85125196Y-17796554D01*
X85109650Y-17777612D01*
X85080192Y-17755764D01*
X85036400Y-17732356D01*
X84952499Y-17663501D01*
X84883644Y-17579600D01*
X84832479Y-17483879D01*
X84800973Y-17380015D01*
X84790334Y-17272000D01*
X84800973Y-17163985D01*
X84832479Y-17060121D01*
X84883644Y-16964400D01*
X84952499Y-16880499D01*
X85036400Y-16811644D01*
X85132121Y-16760479D01*
X85235985Y-16728973D01*
X85316933Y-16721000D01*
X85371067Y-16721000D01*
X85452015Y-16728973D01*
X85452015Y-16728973D01*
G37*
M02*
