G04 #@! TF.GenerationSoftware,KiCad,Pcbnew,5.0.2-bee76a0~70~ubuntu16.04.1*
G04 #@! TF.CreationDate,2020-01-03T14:39:20-08:00*
G04 #@! TF.ProjectId,Cap_touch_test,4361705f-746f-4756-9368-5f746573742e,rev?*
G04 #@! TF.SameCoordinates,Original*
G04 #@! TF.FileFunction,Copper,L2,Bot*
G04 #@! TF.FilePolarity,Positive*
%FSLAX46Y46*%
G04 Gerber Fmt 4.6, Leading zero omitted, Abs format (unit mm)*
G04 Created by KiCad (PCBNEW 5.0.2-bee76a0~70~ubuntu16.04.1) date Fri 03 Jan 2020 14:39:20 PST*
%MOMM*%
%LPD*%
G01*
G04 APERTURE LIST*
G04 #@! TA.AperFunction,ComponentPad*
%ADD10R,1.000000X1.000000*%
G04 #@! TD*
G04 #@! TA.AperFunction,ComponentPad*
%ADD11O,1.000000X1.000000*%
G04 #@! TD*
G04 #@! TA.AperFunction,ComponentPad*
%ADD12R,3.000000X3.000000*%
G04 #@! TD*
G04 #@! TA.AperFunction,ComponentPad*
%ADD13C,3.000000*%
G04 #@! TD*
G04 #@! TA.AperFunction,ViaPad*
%ADD14C,0.800000*%
G04 #@! TD*
G04 #@! TA.AperFunction,Conductor*
%ADD15C,0.250000*%
G04 #@! TD*
G04 #@! TA.AperFunction,Conductor*
%ADD16C,0.254000*%
G04 #@! TD*
G04 APERTURE END LIST*
D10*
G04 #@! TO.P,J1,1*
G04 #@! TO.N,3v3*
X85344000Y-18542000D03*
D11*
G04 #@! TO.P,J1,2*
G04 #@! TO.N,Net-(J1-Pad2)*
X85344000Y-17272000D03*
G04 #@! TO.P,J1,3*
G04 #@! TO.N,GND*
X86614000Y-18542000D03*
G04 #@! TO.P,J1,4*
G04 #@! TO.N,Net-(J1-Pad4)*
X86614000Y-17272000D03*
G04 #@! TO.P,J1,5*
G04 #@! TO.N,GND*
X87884000Y-18542000D03*
G04 #@! TO.P,J1,6*
G04 #@! TO.N,Net-(J1-Pad6)*
X87884000Y-17272000D03*
G04 #@! TO.P,J1,7*
G04 #@! TO.N,Net-(J1-Pad7)*
X89154000Y-18542000D03*
G04 #@! TO.P,J1,8*
G04 #@! TO.N,Net-(J1-Pad8)*
X89154000Y-17272000D03*
G04 #@! TO.P,J1,9*
G04 #@! TO.N,GND*
X90424000Y-18542000D03*
G04 #@! TO.P,J1,10*
G04 #@! TO.N,Net-(J1-Pad10)*
X90424000Y-17272000D03*
G04 #@! TD*
D12*
G04 #@! TO.P,J2,1*
G04 #@! TO.N,3v3*
X72644000Y-18973800D03*
D13*
G04 #@! TO.P,J2,2*
G04 #@! TO.N,GND*
X67564000Y-18973800D03*
G04 #@! TD*
D14*
G04 #@! TO.N,ACMP*
X60604400Y-43713400D03*
X90805000Y-37084000D03*
G04 #@! TO.N,3v3*
X86995000Y-27813000D03*
G04 #@! TO.N,GND*
X87757000Y-28702000D03*
G04 #@! TO.N,Net-(J1-Pad4)*
X86487000Y-21717000D03*
X86540153Y-23578153D03*
G04 #@! TO.N,Net-(J1-Pad10)*
X87757000Y-23368000D03*
G04 #@! TD*
D15*
G04 #@! TO.N,ACMP*
X60604400Y-43713400D02*
X61417200Y-44526200D01*
X61417200Y-44526200D02*
X87909400Y-44526200D01*
X90805000Y-41630600D02*
X90805000Y-37084000D01*
X87909400Y-44526200D02*
X90805000Y-41630600D01*
G04 #@! TO.N,3v3*
X85090000Y-18796000D02*
X85344000Y-18542000D01*
X72136000Y-18796000D02*
X85090000Y-18796000D01*
X85344000Y-26162000D02*
X86995000Y-27813000D01*
X85344000Y-18542000D02*
X85344000Y-26162000D01*
G04 #@! TO.N,GND*
X85852000Y-28306579D02*
X86247421Y-28702000D01*
X86247421Y-28702000D02*
X86810998Y-28702000D01*
X86810998Y-28702000D02*
X87757000Y-28702000D01*
X81987106Y-23876000D02*
X81987106Y-24441685D01*
X81987106Y-24441685D02*
X85852000Y-28306579D01*
G04 #@! TO.N,Net-(J1-Pad4)*
X86487000Y-23525000D02*
X86540153Y-23578153D01*
X86487000Y-21717000D02*
X86487000Y-23525000D01*
G04 #@! TO.N,Net-(J1-Pad10)*
X90424000Y-17272000D02*
X91440000Y-17272000D01*
X91059000Y-20066000D02*
X87757000Y-23368000D01*
X91440000Y-17272000D02*
X92202000Y-18034000D01*
X92202000Y-18034000D02*
X92202000Y-18923000D01*
X92202000Y-18923000D02*
X91059000Y-20066000D01*
G04 #@! TD*
D16*
G04 #@! TO.N,GND*
G36*
X110389600Y-61062800D02*
X36828800Y-61062800D01*
X36828800Y-43507526D01*
X59569400Y-43507526D01*
X59569400Y-43919274D01*
X59726969Y-44299680D01*
X60018120Y-44590831D01*
X60398526Y-44748400D01*
X60564598Y-44748400D01*
X60826871Y-45010673D01*
X60869271Y-45074129D01*
X60932727Y-45116529D01*
X61120662Y-45242104D01*
X61168805Y-45251680D01*
X61342348Y-45286200D01*
X61342352Y-45286200D01*
X61417200Y-45301088D01*
X61492048Y-45286200D01*
X87834553Y-45286200D01*
X87909400Y-45301088D01*
X87984247Y-45286200D01*
X87984252Y-45286200D01*
X88205937Y-45242104D01*
X88457329Y-45074129D01*
X88499731Y-45010670D01*
X91289473Y-42220929D01*
X91352929Y-42178529D01*
X91395924Y-42114182D01*
X91520904Y-41927138D01*
X91530480Y-41878995D01*
X91565000Y-41705452D01*
X91565000Y-41705448D01*
X91579888Y-41630600D01*
X91565000Y-41555752D01*
X91565000Y-37787711D01*
X91682431Y-37670280D01*
X91840000Y-37289874D01*
X91840000Y-36878126D01*
X91682431Y-36497720D01*
X91391280Y-36206569D01*
X91010874Y-36049000D01*
X90599126Y-36049000D01*
X90218720Y-36206569D01*
X89927569Y-36497720D01*
X89770000Y-36878126D01*
X89770000Y-37289874D01*
X89927569Y-37670280D01*
X90045001Y-37787712D01*
X90045000Y-41315798D01*
X87594599Y-43766200D01*
X61732002Y-43766200D01*
X61639400Y-43673598D01*
X61639400Y-43507526D01*
X61481831Y-43127120D01*
X61190680Y-42835969D01*
X60810274Y-42678400D01*
X60398526Y-42678400D01*
X60018120Y-42835969D01*
X59726969Y-43127120D01*
X59569400Y-43507526D01*
X36828800Y-43507526D01*
X36828800Y-20487770D01*
X66229635Y-20487770D01*
X66389418Y-20806539D01*
X67180187Y-21116523D01*
X68029387Y-21100297D01*
X68738582Y-20806539D01*
X68898365Y-20487770D01*
X67564000Y-19153405D01*
X66229635Y-20487770D01*
X36828800Y-20487770D01*
X36828800Y-18589987D01*
X65421277Y-18589987D01*
X65437503Y-19439187D01*
X65731261Y-20148382D01*
X66050030Y-20308165D01*
X67384395Y-18973800D01*
X67743605Y-18973800D01*
X69077970Y-20308165D01*
X69396739Y-20148382D01*
X69706723Y-19357613D01*
X69690497Y-18508413D01*
X69396739Y-17799218D01*
X69077970Y-17639435D01*
X67743605Y-18973800D01*
X67384395Y-18973800D01*
X66050030Y-17639435D01*
X65731261Y-17799218D01*
X65421277Y-18589987D01*
X36828800Y-18589987D01*
X36828800Y-17459830D01*
X66229635Y-17459830D01*
X67564000Y-18794195D01*
X68884395Y-17473800D01*
X70496560Y-17473800D01*
X70496560Y-20473800D01*
X70545843Y-20721565D01*
X70686191Y-20931609D01*
X70896235Y-21071957D01*
X71144000Y-21121240D01*
X74144000Y-21121240D01*
X74391765Y-21071957D01*
X74601809Y-20931609D01*
X74742157Y-20721565D01*
X74791440Y-20473800D01*
X74791440Y-19556000D01*
X84470286Y-19556000D01*
X84584000Y-19631982D01*
X84584001Y-26087148D01*
X84569112Y-26162000D01*
X84584001Y-26236852D01*
X84628097Y-26458537D01*
X84796072Y-26709929D01*
X84859528Y-26752329D01*
X85960000Y-27852802D01*
X85960000Y-28018874D01*
X86117569Y-28399280D01*
X86408720Y-28690431D01*
X86789126Y-28848000D01*
X87200874Y-28848000D01*
X87581280Y-28690431D01*
X87872431Y-28399280D01*
X88030000Y-28018874D01*
X88030000Y-27607126D01*
X87872431Y-27226720D01*
X87581280Y-26935569D01*
X87200874Y-26778000D01*
X87034802Y-26778000D01*
X86104000Y-25847199D01*
X86104000Y-24517769D01*
X86334279Y-24613153D01*
X86746027Y-24613153D01*
X87126433Y-24455584D01*
X87288005Y-24294012D01*
X87551126Y-24403000D01*
X87962874Y-24403000D01*
X88343280Y-24245431D01*
X88634431Y-23954280D01*
X88792000Y-23573874D01*
X88792000Y-23407801D01*
X91649329Y-20550473D01*
X91649331Y-20550470D01*
X92686473Y-19513329D01*
X92749929Y-19470929D01*
X92917904Y-19219537D01*
X92962000Y-18997852D01*
X92962000Y-18997848D01*
X92976888Y-18923001D01*
X92962000Y-18848154D01*
X92962000Y-18108848D01*
X92976888Y-18034000D01*
X92962000Y-17959152D01*
X92962000Y-17959148D01*
X92917904Y-17737463D01*
X92917904Y-17737462D01*
X92792329Y-17549527D01*
X92749929Y-17486071D01*
X92686473Y-17443671D01*
X92030331Y-16787530D01*
X91987929Y-16724071D01*
X91736537Y-16556096D01*
X91514852Y-16512000D01*
X91514847Y-16512000D01*
X91440000Y-16497112D01*
X91365153Y-16512000D01*
X91281236Y-16512000D01*
X91242289Y-16453711D01*
X90866855Y-16202854D01*
X90535783Y-16137000D01*
X90312217Y-16137000D01*
X89981145Y-16202854D01*
X89789000Y-16331241D01*
X89596855Y-16202854D01*
X89265783Y-16137000D01*
X89042217Y-16137000D01*
X88711145Y-16202854D01*
X88519000Y-16331241D01*
X88326855Y-16202854D01*
X87995783Y-16137000D01*
X87772217Y-16137000D01*
X87441145Y-16202854D01*
X87249000Y-16331241D01*
X87056855Y-16202854D01*
X86725783Y-16137000D01*
X86502217Y-16137000D01*
X86171145Y-16202854D01*
X85979000Y-16331241D01*
X85786855Y-16202854D01*
X85455783Y-16137000D01*
X85232217Y-16137000D01*
X84901145Y-16202854D01*
X84525711Y-16453711D01*
X84274854Y-16829145D01*
X84186765Y-17272000D01*
X84274854Y-17714855D01*
X84286869Y-17732836D01*
X84245843Y-17794235D01*
X84197753Y-18036000D01*
X74791440Y-18036000D01*
X74791440Y-17473800D01*
X74742157Y-17226035D01*
X74601809Y-17015991D01*
X74391765Y-16875643D01*
X74144000Y-16826360D01*
X71144000Y-16826360D01*
X70896235Y-16875643D01*
X70686191Y-17015991D01*
X70545843Y-17226035D01*
X70496560Y-17473800D01*
X68884395Y-17473800D01*
X68898365Y-17459830D01*
X68738582Y-17141061D01*
X67947813Y-16831077D01*
X67098613Y-16847303D01*
X66389418Y-17141061D01*
X66229635Y-17459830D01*
X36828800Y-17459830D01*
X36828800Y-14705400D01*
X110389601Y-14705400D01*
X110389600Y-61062800D01*
X110389600Y-61062800D01*
G37*
X110389600Y-61062800D02*
X36828800Y-61062800D01*
X36828800Y-43507526D01*
X59569400Y-43507526D01*
X59569400Y-43919274D01*
X59726969Y-44299680D01*
X60018120Y-44590831D01*
X60398526Y-44748400D01*
X60564598Y-44748400D01*
X60826871Y-45010673D01*
X60869271Y-45074129D01*
X60932727Y-45116529D01*
X61120662Y-45242104D01*
X61168805Y-45251680D01*
X61342348Y-45286200D01*
X61342352Y-45286200D01*
X61417200Y-45301088D01*
X61492048Y-45286200D01*
X87834553Y-45286200D01*
X87909400Y-45301088D01*
X87984247Y-45286200D01*
X87984252Y-45286200D01*
X88205937Y-45242104D01*
X88457329Y-45074129D01*
X88499731Y-45010670D01*
X91289473Y-42220929D01*
X91352929Y-42178529D01*
X91395924Y-42114182D01*
X91520904Y-41927138D01*
X91530480Y-41878995D01*
X91565000Y-41705452D01*
X91565000Y-41705448D01*
X91579888Y-41630600D01*
X91565000Y-41555752D01*
X91565000Y-37787711D01*
X91682431Y-37670280D01*
X91840000Y-37289874D01*
X91840000Y-36878126D01*
X91682431Y-36497720D01*
X91391280Y-36206569D01*
X91010874Y-36049000D01*
X90599126Y-36049000D01*
X90218720Y-36206569D01*
X89927569Y-36497720D01*
X89770000Y-36878126D01*
X89770000Y-37289874D01*
X89927569Y-37670280D01*
X90045001Y-37787712D01*
X90045000Y-41315798D01*
X87594599Y-43766200D01*
X61732002Y-43766200D01*
X61639400Y-43673598D01*
X61639400Y-43507526D01*
X61481831Y-43127120D01*
X61190680Y-42835969D01*
X60810274Y-42678400D01*
X60398526Y-42678400D01*
X60018120Y-42835969D01*
X59726969Y-43127120D01*
X59569400Y-43507526D01*
X36828800Y-43507526D01*
X36828800Y-20487770D01*
X66229635Y-20487770D01*
X66389418Y-20806539D01*
X67180187Y-21116523D01*
X68029387Y-21100297D01*
X68738582Y-20806539D01*
X68898365Y-20487770D01*
X67564000Y-19153405D01*
X66229635Y-20487770D01*
X36828800Y-20487770D01*
X36828800Y-18589987D01*
X65421277Y-18589987D01*
X65437503Y-19439187D01*
X65731261Y-20148382D01*
X66050030Y-20308165D01*
X67384395Y-18973800D01*
X67743605Y-18973800D01*
X69077970Y-20308165D01*
X69396739Y-20148382D01*
X69706723Y-19357613D01*
X69690497Y-18508413D01*
X69396739Y-17799218D01*
X69077970Y-17639435D01*
X67743605Y-18973800D01*
X67384395Y-18973800D01*
X66050030Y-17639435D01*
X65731261Y-17799218D01*
X65421277Y-18589987D01*
X36828800Y-18589987D01*
X36828800Y-17459830D01*
X66229635Y-17459830D01*
X67564000Y-18794195D01*
X68884395Y-17473800D01*
X70496560Y-17473800D01*
X70496560Y-20473800D01*
X70545843Y-20721565D01*
X70686191Y-20931609D01*
X70896235Y-21071957D01*
X71144000Y-21121240D01*
X74144000Y-21121240D01*
X74391765Y-21071957D01*
X74601809Y-20931609D01*
X74742157Y-20721565D01*
X74791440Y-20473800D01*
X74791440Y-19556000D01*
X84470286Y-19556000D01*
X84584000Y-19631982D01*
X84584001Y-26087148D01*
X84569112Y-26162000D01*
X84584001Y-26236852D01*
X84628097Y-26458537D01*
X84796072Y-26709929D01*
X84859528Y-26752329D01*
X85960000Y-27852802D01*
X85960000Y-28018874D01*
X86117569Y-28399280D01*
X86408720Y-28690431D01*
X86789126Y-28848000D01*
X87200874Y-28848000D01*
X87581280Y-28690431D01*
X87872431Y-28399280D01*
X88030000Y-28018874D01*
X88030000Y-27607126D01*
X87872431Y-27226720D01*
X87581280Y-26935569D01*
X87200874Y-26778000D01*
X87034802Y-26778000D01*
X86104000Y-25847199D01*
X86104000Y-24517769D01*
X86334279Y-24613153D01*
X86746027Y-24613153D01*
X87126433Y-24455584D01*
X87288005Y-24294012D01*
X87551126Y-24403000D01*
X87962874Y-24403000D01*
X88343280Y-24245431D01*
X88634431Y-23954280D01*
X88792000Y-23573874D01*
X88792000Y-23407801D01*
X91649329Y-20550473D01*
X91649331Y-20550470D01*
X92686473Y-19513329D01*
X92749929Y-19470929D01*
X92917904Y-19219537D01*
X92962000Y-18997852D01*
X92962000Y-18997848D01*
X92976888Y-18923001D01*
X92962000Y-18848154D01*
X92962000Y-18108848D01*
X92976888Y-18034000D01*
X92962000Y-17959152D01*
X92962000Y-17959148D01*
X92917904Y-17737463D01*
X92917904Y-17737462D01*
X92792329Y-17549527D01*
X92749929Y-17486071D01*
X92686473Y-17443671D01*
X92030331Y-16787530D01*
X91987929Y-16724071D01*
X91736537Y-16556096D01*
X91514852Y-16512000D01*
X91514847Y-16512000D01*
X91440000Y-16497112D01*
X91365153Y-16512000D01*
X91281236Y-16512000D01*
X91242289Y-16453711D01*
X90866855Y-16202854D01*
X90535783Y-16137000D01*
X90312217Y-16137000D01*
X89981145Y-16202854D01*
X89789000Y-16331241D01*
X89596855Y-16202854D01*
X89265783Y-16137000D01*
X89042217Y-16137000D01*
X88711145Y-16202854D01*
X88519000Y-16331241D01*
X88326855Y-16202854D01*
X87995783Y-16137000D01*
X87772217Y-16137000D01*
X87441145Y-16202854D01*
X87249000Y-16331241D01*
X87056855Y-16202854D01*
X86725783Y-16137000D01*
X86502217Y-16137000D01*
X86171145Y-16202854D01*
X85979000Y-16331241D01*
X85786855Y-16202854D01*
X85455783Y-16137000D01*
X85232217Y-16137000D01*
X84901145Y-16202854D01*
X84525711Y-16453711D01*
X84274854Y-16829145D01*
X84186765Y-17272000D01*
X84274854Y-17714855D01*
X84286869Y-17732836D01*
X84245843Y-17794235D01*
X84197753Y-18036000D01*
X74791440Y-18036000D01*
X74791440Y-17473800D01*
X74742157Y-17226035D01*
X74601809Y-17015991D01*
X74391765Y-16875643D01*
X74144000Y-16826360D01*
X71144000Y-16826360D01*
X70896235Y-16875643D01*
X70686191Y-17015991D01*
X70545843Y-17226035D01*
X70496560Y-17473800D01*
X68884395Y-17473800D01*
X68898365Y-17459830D01*
X68738582Y-17141061D01*
X67947813Y-16831077D01*
X67098613Y-16847303D01*
X66389418Y-17141061D01*
X66229635Y-17459830D01*
X36828800Y-17459830D01*
X36828800Y-14705400D01*
X110389601Y-14705400D01*
X110389600Y-61062800D01*
G36*
X88011000Y-18415000D02*
X88022027Y-18415000D01*
X87996765Y-18542000D01*
X88022027Y-18669000D01*
X88011000Y-18669000D01*
X88011000Y-19509954D01*
X88185874Y-19636119D01*
X88444209Y-19529127D01*
X88507090Y-19474801D01*
X88711145Y-19611146D01*
X89042217Y-19677000D01*
X89265783Y-19677000D01*
X89596855Y-19611146D01*
X89800910Y-19474801D01*
X89863791Y-19529127D01*
X90122126Y-19636119D01*
X90296998Y-19509955D01*
X90296998Y-19677000D01*
X90373198Y-19677000D01*
X87717199Y-22333000D01*
X87551126Y-22333000D01*
X87247000Y-22458973D01*
X87247000Y-22420711D01*
X87364431Y-22303280D01*
X87522000Y-21922874D01*
X87522000Y-21511126D01*
X87364431Y-21130720D01*
X87073280Y-20839569D01*
X86692874Y-20682000D01*
X86281126Y-20682000D01*
X86104000Y-20755368D01*
X86104000Y-19631982D01*
X86179817Y-19581322D01*
X86312126Y-19636119D01*
X86487000Y-19509954D01*
X86487000Y-19064322D01*
X86491440Y-19042000D01*
X86491440Y-18669000D01*
X86741000Y-18669000D01*
X86741000Y-19509954D01*
X86915874Y-19636119D01*
X87174209Y-19529127D01*
X87249000Y-19464511D01*
X87323791Y-19529127D01*
X87582126Y-19636119D01*
X87757000Y-19509954D01*
X87757000Y-18669000D01*
X86741000Y-18669000D01*
X86491440Y-18669000D01*
X86491440Y-18404856D01*
X86502217Y-18407000D01*
X86725783Y-18407000D01*
X86741000Y-18403973D01*
X86741000Y-18415000D01*
X87757000Y-18415000D01*
X87757000Y-18403973D01*
X87772217Y-18407000D01*
X87995783Y-18407000D01*
X88011000Y-18403973D01*
X88011000Y-18415000D01*
X88011000Y-18415000D01*
G37*
X88011000Y-18415000D02*
X88022027Y-18415000D01*
X87996765Y-18542000D01*
X88022027Y-18669000D01*
X88011000Y-18669000D01*
X88011000Y-19509954D01*
X88185874Y-19636119D01*
X88444209Y-19529127D01*
X88507090Y-19474801D01*
X88711145Y-19611146D01*
X89042217Y-19677000D01*
X89265783Y-19677000D01*
X89596855Y-19611146D01*
X89800910Y-19474801D01*
X89863791Y-19529127D01*
X90122126Y-19636119D01*
X90296998Y-19509955D01*
X90296998Y-19677000D01*
X90373198Y-19677000D01*
X87717199Y-22333000D01*
X87551126Y-22333000D01*
X87247000Y-22458973D01*
X87247000Y-22420711D01*
X87364431Y-22303280D01*
X87522000Y-21922874D01*
X87522000Y-21511126D01*
X87364431Y-21130720D01*
X87073280Y-20839569D01*
X86692874Y-20682000D01*
X86281126Y-20682000D01*
X86104000Y-20755368D01*
X86104000Y-19631982D01*
X86179817Y-19581322D01*
X86312126Y-19636119D01*
X86487000Y-19509954D01*
X86487000Y-19064322D01*
X86491440Y-19042000D01*
X86491440Y-18669000D01*
X86741000Y-18669000D01*
X86741000Y-19509954D01*
X86915874Y-19636119D01*
X87174209Y-19529127D01*
X87249000Y-19464511D01*
X87323791Y-19529127D01*
X87582126Y-19636119D01*
X87757000Y-19509954D01*
X87757000Y-18669000D01*
X86741000Y-18669000D01*
X86491440Y-18669000D01*
X86491440Y-18404856D01*
X86502217Y-18407000D01*
X86725783Y-18407000D01*
X86741000Y-18403973D01*
X86741000Y-18415000D01*
X87757000Y-18415000D01*
X87757000Y-18403973D01*
X87772217Y-18407000D01*
X87995783Y-18407000D01*
X88011000Y-18403973D01*
X88011000Y-18415000D01*
G36*
X90551000Y-18415000D02*
X90571000Y-18415000D01*
X90571000Y-18669000D01*
X90551000Y-18669000D01*
X90551000Y-18689000D01*
X90297000Y-18689000D01*
X90297000Y-18669000D01*
X90285973Y-18669000D01*
X90311235Y-18542000D01*
X90285973Y-18415000D01*
X90297000Y-18415000D01*
X90297000Y-18403973D01*
X90312217Y-18407000D01*
X90535783Y-18407000D01*
X90551000Y-18403973D01*
X90551000Y-18415000D01*
X90551000Y-18415000D01*
G37*
X90551000Y-18415000D02*
X90571000Y-18415000D01*
X90571000Y-18669000D01*
X90551000Y-18669000D01*
X90551000Y-18689000D01*
X90297000Y-18689000D01*
X90297000Y-18669000D01*
X90285973Y-18669000D01*
X90311235Y-18542000D01*
X90285973Y-18415000D01*
X90297000Y-18415000D01*
X90297000Y-18403973D01*
X90312217Y-18407000D01*
X90535783Y-18407000D01*
X90551000Y-18403973D01*
X90551000Y-18415000D01*
G04 #@! TD*
M02*
