G04 #@! TF.GenerationSoftware,KiCad,Pcbnew,5.0.2-bee76a0~70~ubuntu16.04.1*
G04 #@! TF.CreationDate,2020-01-03T14:39:20-08:00*
G04 #@! TF.ProjectId,Cap_touch_test,4361705f-746f-4756-9368-5f746573742e,rev?*
G04 #@! TF.SameCoordinates,Original*
G04 #@! TF.FileFunction,Legend,Top*
G04 #@! TF.FilePolarity,Positive*
%FSLAX46Y46*%
G04 Gerber Fmt 4.6, Leading zero omitted, Abs format (unit mm)*
G04 Created by KiCad (PCBNEW 5.0.2-bee76a0~70~ubuntu16.04.1) date Fri 03 Jan 2020 14:39:20 PST*
%MOMM*%
%LPD*%
G01*
G04 APERTURE LIST*
%ADD10C,0.120000*%
%ADD11C,0.150000*%
G04 APERTURE END LIST*
D10*
G04 #@! TO.C,C1*
X91111000Y-34627078D02*
X91111000Y-34109922D01*
X92531000Y-34627078D02*
X92531000Y-34109922D01*
G04 #@! TO.C,C6*
X86687922Y-37390000D02*
X87205078Y-37390000D01*
X86687922Y-38810000D02*
X87205078Y-38810000D01*
G04 #@! TO.C,C7*
X86687922Y-35508000D02*
X87205078Y-35508000D01*
X86687922Y-34088000D02*
X87205078Y-34088000D01*
G04 #@! TO.C,D1*
X94925000Y-22827500D02*
X94925000Y-25512500D01*
X94925000Y-25512500D02*
X96845000Y-25512500D01*
X96845000Y-25512500D02*
X96845000Y-22827500D01*
G04 #@! TO.C,D2*
X100020000Y-25512500D02*
X100020000Y-22827500D01*
X98100000Y-25512500D02*
X100020000Y-25512500D01*
X98100000Y-22827500D02*
X98100000Y-25512500D01*
G04 #@! TO.C,D3*
X101402000Y-22827500D02*
X101402000Y-25512500D01*
X101402000Y-25512500D02*
X103322000Y-25512500D01*
X103322000Y-25512500D02*
X103322000Y-22827500D01*
G04 #@! TO.C,D4*
X106624000Y-25482500D02*
X106624000Y-22797500D01*
X104704000Y-25482500D02*
X106624000Y-25482500D01*
X104704000Y-22797500D02*
X104704000Y-25482500D01*
G04 #@! TO.C,J1*
X91119000Y-19672000D02*
X91119000Y-18849530D01*
X91119000Y-16964470D02*
X91119000Y-16142000D01*
X91119000Y-18234470D02*
X91119000Y-17579530D01*
X86104000Y-19672000D02*
X91119000Y-19672000D01*
X84649000Y-16142000D02*
X91119000Y-16142000D01*
X86104000Y-19672000D02*
X86104000Y-19105471D01*
X86104000Y-17978529D02*
X86104000Y-17835471D01*
X86050529Y-17782000D02*
X85907471Y-17782000D01*
X84780529Y-17782000D02*
X84649000Y-17782000D01*
X84649000Y-17782000D02*
X84649000Y-17579530D01*
X84649000Y-16964470D02*
X84649000Y-16142000D01*
X85344000Y-19672000D02*
X84584000Y-19672000D01*
X84584000Y-19672000D02*
X84584000Y-18542000D01*
G04 #@! TO.C,J2*
X65024000Y-16433800D02*
X75184000Y-16433800D01*
X65024000Y-15163800D02*
X65024000Y-22783800D01*
X65024000Y-22783800D02*
X75184000Y-22783800D01*
X75184000Y-22783800D02*
X75184000Y-15163800D01*
X75184000Y-15163800D02*
X65024000Y-15163800D01*
G04 #@! TO.C,RN1*
X101091000Y-16657000D02*
X101091000Y-17457000D01*
X97651000Y-16657000D02*
X97651000Y-17457000D01*
D11*
G04 #@! TO.C,U1*
X91382000Y-30067000D02*
X91357000Y-30067000D01*
X83332000Y-30067000D02*
X83357000Y-30067000D01*
X83332000Y-25417000D02*
X83357000Y-25417000D01*
X91432000Y-24342000D02*
X91432000Y-30067000D01*
X83332000Y-25417000D02*
X83332000Y-30067000D01*
G04 #@! TO.C,C1*
X90528142Y-34535166D02*
X90575761Y-34582785D01*
X90623380Y-34725642D01*
X90623380Y-34820880D01*
X90575761Y-34963738D01*
X90480523Y-35058976D01*
X90385285Y-35106595D01*
X90194809Y-35154214D01*
X90051952Y-35154214D01*
X89861476Y-35106595D01*
X89766238Y-35058976D01*
X89671000Y-34963738D01*
X89623380Y-34820880D01*
X89623380Y-34725642D01*
X89671000Y-34582785D01*
X89718619Y-34535166D01*
X90623380Y-33582785D02*
X90623380Y-34154214D01*
X90623380Y-33868500D02*
X89623380Y-33868500D01*
X89766238Y-33963738D01*
X89861476Y-34058976D01*
X89909095Y-34154214D01*
G04 #@! TO.C,C6*
X86779833Y-36807142D02*
X86732214Y-36854761D01*
X86589357Y-36902380D01*
X86494119Y-36902380D01*
X86351261Y-36854761D01*
X86256023Y-36759523D01*
X86208404Y-36664285D01*
X86160785Y-36473809D01*
X86160785Y-36330952D01*
X86208404Y-36140476D01*
X86256023Y-36045238D01*
X86351261Y-35950000D01*
X86494119Y-35902380D01*
X86589357Y-35902380D01*
X86732214Y-35950000D01*
X86779833Y-35997619D01*
X87636976Y-35902380D02*
X87446500Y-35902380D01*
X87351261Y-35950000D01*
X87303642Y-35997619D01*
X87208404Y-36140476D01*
X87160785Y-36330952D01*
X87160785Y-36711904D01*
X87208404Y-36807142D01*
X87256023Y-36854761D01*
X87351261Y-36902380D01*
X87541738Y-36902380D01*
X87636976Y-36854761D01*
X87684595Y-36807142D01*
X87732214Y-36711904D01*
X87732214Y-36473809D01*
X87684595Y-36378571D01*
X87636976Y-36330952D01*
X87541738Y-36283333D01*
X87351261Y-36283333D01*
X87256023Y-36330952D01*
X87208404Y-36378571D01*
X87160785Y-36473809D01*
G04 #@! TO.C,C7*
X86779833Y-33505142D02*
X86732214Y-33552761D01*
X86589357Y-33600380D01*
X86494119Y-33600380D01*
X86351261Y-33552761D01*
X86256023Y-33457523D01*
X86208404Y-33362285D01*
X86160785Y-33171809D01*
X86160785Y-33028952D01*
X86208404Y-32838476D01*
X86256023Y-32743238D01*
X86351261Y-32648000D01*
X86494119Y-32600380D01*
X86589357Y-32600380D01*
X86732214Y-32648000D01*
X86779833Y-32695619D01*
X87113166Y-32600380D02*
X87779833Y-32600380D01*
X87351261Y-33600380D01*
G04 #@! TO.C,D1*
X94687380Y-24565595D02*
X93687380Y-24565595D01*
X93687380Y-24327500D01*
X93735000Y-24184642D01*
X93830238Y-24089404D01*
X93925476Y-24041785D01*
X94115952Y-23994166D01*
X94258809Y-23994166D01*
X94449285Y-24041785D01*
X94544523Y-24089404D01*
X94639761Y-24184642D01*
X94687380Y-24327500D01*
X94687380Y-24565595D01*
X94687380Y-23041785D02*
X94687380Y-23613214D01*
X94687380Y-23327500D02*
X93687380Y-23327500D01*
X93830238Y-23422738D01*
X93925476Y-23517976D01*
X93973095Y-23613214D01*
G04 #@! TO.C,D2*
X97862380Y-24565595D02*
X96862380Y-24565595D01*
X96862380Y-24327500D01*
X96910000Y-24184642D01*
X97005238Y-24089404D01*
X97100476Y-24041785D01*
X97290952Y-23994166D01*
X97433809Y-23994166D01*
X97624285Y-24041785D01*
X97719523Y-24089404D01*
X97814761Y-24184642D01*
X97862380Y-24327500D01*
X97862380Y-24565595D01*
X96957619Y-23613214D02*
X96910000Y-23565595D01*
X96862380Y-23470357D01*
X96862380Y-23232261D01*
X96910000Y-23137023D01*
X96957619Y-23089404D01*
X97052857Y-23041785D01*
X97148095Y-23041785D01*
X97290952Y-23089404D01*
X97862380Y-23660833D01*
X97862380Y-23041785D01*
G04 #@! TO.C,D3*
X101164380Y-24565595D02*
X100164380Y-24565595D01*
X100164380Y-24327500D01*
X100212000Y-24184642D01*
X100307238Y-24089404D01*
X100402476Y-24041785D01*
X100592952Y-23994166D01*
X100735809Y-23994166D01*
X100926285Y-24041785D01*
X101021523Y-24089404D01*
X101116761Y-24184642D01*
X101164380Y-24327500D01*
X101164380Y-24565595D01*
X100164380Y-23660833D02*
X100164380Y-23041785D01*
X100545333Y-23375119D01*
X100545333Y-23232261D01*
X100592952Y-23137023D01*
X100640571Y-23089404D01*
X100735809Y-23041785D01*
X100973904Y-23041785D01*
X101069142Y-23089404D01*
X101116761Y-23137023D01*
X101164380Y-23232261D01*
X101164380Y-23517976D01*
X101116761Y-23613214D01*
X101069142Y-23660833D01*
G04 #@! TO.C,D4*
X104466380Y-24535595D02*
X103466380Y-24535595D01*
X103466380Y-24297500D01*
X103514000Y-24154642D01*
X103609238Y-24059404D01*
X103704476Y-24011785D01*
X103894952Y-23964166D01*
X104037809Y-23964166D01*
X104228285Y-24011785D01*
X104323523Y-24059404D01*
X104418761Y-24154642D01*
X104466380Y-24297500D01*
X104466380Y-24535595D01*
X103799714Y-23107023D02*
X104466380Y-23107023D01*
X103418761Y-23345119D02*
X104133047Y-23583214D01*
X104133047Y-22964166D01*
G04 #@! TO.C,J1*
X83101380Y-18240333D02*
X83815666Y-18240333D01*
X83958523Y-18287952D01*
X84053761Y-18383190D01*
X84101380Y-18526047D01*
X84101380Y-18621285D01*
X84101380Y-17240333D02*
X84101380Y-17811761D01*
X84101380Y-17526047D02*
X83101380Y-17526047D01*
X83244238Y-17621285D01*
X83339476Y-17716523D01*
X83387095Y-17811761D01*
G04 #@! TO.C,J2*
X69770666Y-23506180D02*
X69770666Y-24220466D01*
X69723047Y-24363323D01*
X69627809Y-24458561D01*
X69484952Y-24506180D01*
X69389714Y-24506180D01*
X70199238Y-23601419D02*
X70246857Y-23553800D01*
X70342095Y-23506180D01*
X70580190Y-23506180D01*
X70675428Y-23553800D01*
X70723047Y-23601419D01*
X70770666Y-23696657D01*
X70770666Y-23791895D01*
X70723047Y-23934752D01*
X70151619Y-24506180D01*
X70770666Y-24506180D01*
G04 #@! TO.C,RN1*
X97223380Y-17747476D02*
X96747190Y-18080809D01*
X97223380Y-18318904D02*
X96223380Y-18318904D01*
X96223380Y-17937952D01*
X96271000Y-17842714D01*
X96318619Y-17795095D01*
X96413857Y-17747476D01*
X96556714Y-17747476D01*
X96651952Y-17795095D01*
X96699571Y-17842714D01*
X96747190Y-17937952D01*
X96747190Y-18318904D01*
X97223380Y-17318904D02*
X96223380Y-17318904D01*
X97223380Y-16747476D01*
X96223380Y-16747476D01*
X97223380Y-15747476D02*
X97223380Y-16318904D01*
X97223380Y-16033190D02*
X96223380Y-16033190D01*
X96366238Y-16128428D01*
X96461476Y-16223666D01*
X96509095Y-16318904D01*
G04 #@! TO.C,U1*
X91759380Y-28503904D02*
X92568904Y-28503904D01*
X92664142Y-28456285D01*
X92711761Y-28408666D01*
X92759380Y-28313428D01*
X92759380Y-28122952D01*
X92711761Y-28027714D01*
X92664142Y-27980095D01*
X92568904Y-27932476D01*
X91759380Y-27932476D01*
X92759380Y-26932476D02*
X92759380Y-27503904D01*
X92759380Y-27218190D02*
X91759380Y-27218190D01*
X91902238Y-27313428D01*
X91997476Y-27408666D01*
X92045095Y-27503904D01*
G04 #@! TO.C,C2*
X62256942Y-47994866D02*
X62304561Y-48042485D01*
X62352180Y-48185342D01*
X62352180Y-48280580D01*
X62304561Y-48423438D01*
X62209323Y-48518676D01*
X62114085Y-48566295D01*
X61923609Y-48613914D01*
X61780752Y-48613914D01*
X61590276Y-48566295D01*
X61495038Y-48518676D01*
X61399800Y-48423438D01*
X61352180Y-48280580D01*
X61352180Y-48185342D01*
X61399800Y-48042485D01*
X61447419Y-47994866D01*
X61447419Y-47613914D02*
X61399800Y-47566295D01*
X61352180Y-47471057D01*
X61352180Y-47232961D01*
X61399800Y-47137723D01*
X61447419Y-47090104D01*
X61542657Y-47042485D01*
X61637895Y-47042485D01*
X61780752Y-47090104D01*
X62352180Y-47661533D01*
X62352180Y-47042485D01*
G04 #@! TO.C,C3*
X56272133Y-44908742D02*
X56224514Y-44956361D01*
X56081657Y-45003980D01*
X55986419Y-45003980D01*
X55843561Y-44956361D01*
X55748323Y-44861123D01*
X55700704Y-44765885D01*
X55653085Y-44575409D01*
X55653085Y-44432552D01*
X55700704Y-44242076D01*
X55748323Y-44146838D01*
X55843561Y-44051600D01*
X55986419Y-44003980D01*
X56081657Y-44003980D01*
X56224514Y-44051600D01*
X56272133Y-44099219D01*
X56605466Y-44003980D02*
X57224514Y-44003980D01*
X56891180Y-44384933D01*
X57034038Y-44384933D01*
X57129276Y-44432552D01*
X57176895Y-44480171D01*
X57224514Y-44575409D01*
X57224514Y-44813504D01*
X57176895Y-44908742D01*
X57129276Y-44956361D01*
X57034038Y-45003980D01*
X56748323Y-45003980D01*
X56653085Y-44956361D01*
X56605466Y-44908742D01*
G04 #@! TO.C,C4*
X59970942Y-40857466D02*
X60018561Y-40905085D01*
X60066180Y-41047942D01*
X60066180Y-41143180D01*
X60018561Y-41286038D01*
X59923323Y-41381276D01*
X59828085Y-41428895D01*
X59637609Y-41476514D01*
X59494752Y-41476514D01*
X59304276Y-41428895D01*
X59209038Y-41381276D01*
X59113800Y-41286038D01*
X59066180Y-41143180D01*
X59066180Y-41047942D01*
X59113800Y-40905085D01*
X59161419Y-40857466D01*
X59399514Y-40000323D02*
X60066180Y-40000323D01*
X59018561Y-40238419D02*
X59732847Y-40476514D01*
X59732847Y-39857466D01*
G04 #@! TO.C,C5*
X64704933Y-43714942D02*
X64657314Y-43762561D01*
X64514457Y-43810180D01*
X64419219Y-43810180D01*
X64276361Y-43762561D01*
X64181123Y-43667323D01*
X64133504Y-43572085D01*
X64085885Y-43381609D01*
X64085885Y-43238752D01*
X64133504Y-43048276D01*
X64181123Y-42953038D01*
X64276361Y-42857800D01*
X64419219Y-42810180D01*
X64514457Y-42810180D01*
X64657314Y-42857800D01*
X64704933Y-42905419D01*
X65609695Y-42810180D02*
X65133504Y-42810180D01*
X65085885Y-43286371D01*
X65133504Y-43238752D01*
X65228742Y-43191133D01*
X65466838Y-43191133D01*
X65562076Y-43238752D01*
X65609695Y-43286371D01*
X65657314Y-43381609D01*
X65657314Y-43619704D01*
X65609695Y-43714942D01*
X65562076Y-43762561D01*
X65466838Y-43810180D01*
X65228742Y-43810180D01*
X65133504Y-43762561D01*
X65085885Y-43714942D01*
G04 #@! TD*
M02*
