G04 #@! TF.GenerationSoftware,KiCad,Pcbnew,(5.1.4)-1*
G04 #@! TF.CreationDate,2020-01-03T19:08:14-08:00*
G04 #@! TF.ProjectId,Led_tests,4c65645f-7465-4737-9473-2e6b69636164,rev?*
G04 #@! TF.SameCoordinates,Original*
G04 #@! TF.FileFunction,Soldermask,Top*
G04 #@! TF.FilePolarity,Negative*
%FSLAX46Y46*%
G04 Gerber Fmt 4.6, Leading zero omitted, Abs format (unit mm)*
G04 Created by KiCad (PCBNEW (5.1.4)-1) date 2020-01-03 19:08:14*
%MOMM*%
%LPD*%
G04 APERTURE LIST*
%ADD10C,0.100000*%
G04 APERTURE END LIST*
D10*
G36*
X45468593Y-36710003D02*
G01*
X45533011Y-36729544D01*
X45592381Y-36761278D01*
X45644417Y-36803983D01*
X45687122Y-36856019D01*
X45718856Y-36915389D01*
X45738397Y-36979807D01*
X45745600Y-37052940D01*
X45745600Y-37978660D01*
X45738397Y-38051793D01*
X45718856Y-38116211D01*
X45687122Y-38175581D01*
X45644417Y-38227617D01*
X45592381Y-38270322D01*
X45533011Y-38302056D01*
X45468593Y-38321597D01*
X45395460Y-38328800D01*
X44469740Y-38328800D01*
X44396607Y-38321597D01*
X44332189Y-38302056D01*
X44272819Y-38270322D01*
X44220783Y-38227617D01*
X44178078Y-38175581D01*
X44146344Y-38116211D01*
X44126803Y-38051793D01*
X44119600Y-37978660D01*
X44119600Y-37052940D01*
X44126803Y-36979807D01*
X44146344Y-36915389D01*
X44178078Y-36856019D01*
X44220783Y-36803983D01*
X44272819Y-36761278D01*
X44332189Y-36729544D01*
X44396607Y-36710003D01*
X44469740Y-36702800D01*
X45395460Y-36702800D01*
X45468593Y-36710003D01*
X45468593Y-36710003D01*
G37*
G36*
X41480793Y-36710003D02*
G01*
X41545211Y-36729544D01*
X41604581Y-36761278D01*
X41656617Y-36803983D01*
X41699322Y-36856019D01*
X41731056Y-36915389D01*
X41750597Y-36979807D01*
X41757800Y-37052940D01*
X41757800Y-37978660D01*
X41750597Y-38051793D01*
X41731056Y-38116211D01*
X41699322Y-38175581D01*
X41656617Y-38227617D01*
X41604581Y-38270322D01*
X41545211Y-38302056D01*
X41480793Y-38321597D01*
X41407660Y-38328800D01*
X40481940Y-38328800D01*
X40408807Y-38321597D01*
X40344389Y-38302056D01*
X40285019Y-38270322D01*
X40232983Y-38227617D01*
X40190278Y-38175581D01*
X40158544Y-38116211D01*
X40139003Y-38051793D01*
X40131800Y-37978660D01*
X40131800Y-37052940D01*
X40139003Y-36979807D01*
X40158544Y-36915389D01*
X40190278Y-36856019D01*
X40232983Y-36803983D01*
X40285019Y-36761278D01*
X40344389Y-36729544D01*
X40408807Y-36710003D01*
X40481940Y-36702800D01*
X41407660Y-36702800D01*
X41480793Y-36710003D01*
X41480793Y-36710003D01*
G37*
G36*
X38180793Y-36710003D02*
G01*
X38245211Y-36729544D01*
X38304581Y-36761278D01*
X38356617Y-36803983D01*
X38399322Y-36856019D01*
X38431056Y-36915389D01*
X38450597Y-36979807D01*
X38457800Y-37052940D01*
X38457800Y-37978660D01*
X38450597Y-38051793D01*
X38431056Y-38116211D01*
X38399322Y-38175581D01*
X38356617Y-38227617D01*
X38304581Y-38270322D01*
X38245211Y-38302056D01*
X38180793Y-38321597D01*
X38107660Y-38328800D01*
X37181940Y-38328800D01*
X37108807Y-38321597D01*
X37044389Y-38302056D01*
X36985019Y-38270322D01*
X36932983Y-38227617D01*
X36890278Y-38175581D01*
X36858544Y-38116211D01*
X36839003Y-38051793D01*
X36831800Y-37978660D01*
X36831800Y-37052940D01*
X36839003Y-36979807D01*
X36858544Y-36915389D01*
X36890278Y-36856019D01*
X36932983Y-36803983D01*
X36985019Y-36761278D01*
X37044389Y-36729544D01*
X37108807Y-36710003D01*
X37181940Y-36702800D01*
X38107660Y-36702800D01*
X38180793Y-36710003D01*
X38180793Y-36710003D01*
G37*
G36*
X48868593Y-36710003D02*
G01*
X48933011Y-36729544D01*
X48992381Y-36761278D01*
X49044417Y-36803983D01*
X49087122Y-36856019D01*
X49118856Y-36915389D01*
X49138397Y-36979807D01*
X49145600Y-37052940D01*
X49145600Y-37978660D01*
X49138397Y-38051793D01*
X49118856Y-38116211D01*
X49087122Y-38175581D01*
X49044417Y-38227617D01*
X48992381Y-38270322D01*
X48933011Y-38302056D01*
X48868593Y-38321597D01*
X48795460Y-38328800D01*
X47869740Y-38328800D01*
X47796607Y-38321597D01*
X47732189Y-38302056D01*
X47672819Y-38270322D01*
X47620783Y-38227617D01*
X47578078Y-38175581D01*
X47546344Y-38116211D01*
X47526803Y-38051793D01*
X47519600Y-37978660D01*
X47519600Y-37052940D01*
X47526803Y-36979807D01*
X47546344Y-36915389D01*
X47578078Y-36856019D01*
X47620783Y-36803983D01*
X47672819Y-36761278D01*
X47732189Y-36729544D01*
X47796607Y-36710003D01*
X47869740Y-36702800D01*
X48795460Y-36702800D01*
X48868593Y-36710003D01*
X48868593Y-36710003D01*
G37*
G36*
X30939793Y-36659203D02*
G01*
X31004211Y-36678744D01*
X31063581Y-36710478D01*
X31115617Y-36753183D01*
X31158322Y-36805219D01*
X31190056Y-36864589D01*
X31209597Y-36929007D01*
X31216800Y-37002140D01*
X31216800Y-37927860D01*
X31209597Y-38000993D01*
X31190056Y-38065411D01*
X31158322Y-38124781D01*
X31115617Y-38176817D01*
X31063581Y-38219522D01*
X31004211Y-38251256D01*
X30939793Y-38270797D01*
X30866660Y-38278000D01*
X29940940Y-38278000D01*
X29867807Y-38270797D01*
X29803389Y-38251256D01*
X29744019Y-38219522D01*
X29691983Y-38176817D01*
X29649278Y-38124781D01*
X29617544Y-38065411D01*
X29598003Y-38000993D01*
X29590800Y-37927860D01*
X29590800Y-37002140D01*
X29598003Y-36929007D01*
X29617544Y-36864589D01*
X29649278Y-36805219D01*
X29691983Y-36753183D01*
X29744019Y-36710478D01*
X29803389Y-36678744D01*
X29867807Y-36659203D01*
X29940940Y-36652000D01*
X30866660Y-36652000D01*
X30939793Y-36659203D01*
X30939793Y-36659203D01*
G37*
G36*
X34139793Y-36659203D02*
G01*
X34204211Y-36678744D01*
X34263581Y-36710478D01*
X34315617Y-36753183D01*
X34358322Y-36805219D01*
X34390056Y-36864589D01*
X34409597Y-36929007D01*
X34416800Y-37002140D01*
X34416800Y-37927860D01*
X34409597Y-38000993D01*
X34390056Y-38065411D01*
X34358322Y-38124781D01*
X34315617Y-38176817D01*
X34263581Y-38219522D01*
X34204211Y-38251256D01*
X34139793Y-38270797D01*
X34066660Y-38278000D01*
X33140940Y-38278000D01*
X33067807Y-38270797D01*
X33003389Y-38251256D01*
X32944019Y-38219522D01*
X32891983Y-38176817D01*
X32849278Y-38124781D01*
X32817544Y-38065411D01*
X32798003Y-38000993D01*
X32790800Y-37927860D01*
X32790800Y-37002140D01*
X32798003Y-36929007D01*
X32817544Y-36864589D01*
X32849278Y-36805219D01*
X32891983Y-36753183D01*
X32944019Y-36710478D01*
X33003389Y-36678744D01*
X33067807Y-36659203D01*
X33140940Y-36652000D01*
X34066660Y-36652000D01*
X34139793Y-36659203D01*
X34139793Y-36659203D01*
G37*
G36*
X45062193Y-30715603D02*
G01*
X45126611Y-30735144D01*
X45185981Y-30766878D01*
X45238017Y-30809583D01*
X45280722Y-30861619D01*
X45312456Y-30920989D01*
X45331997Y-30985407D01*
X45339200Y-31058540D01*
X45339200Y-31984260D01*
X45331997Y-32057393D01*
X45312456Y-32121811D01*
X45280722Y-32181181D01*
X45238017Y-32233217D01*
X45185981Y-32275922D01*
X45126611Y-32307656D01*
X45062193Y-32327197D01*
X44989060Y-32334400D01*
X44063340Y-32334400D01*
X43990207Y-32327197D01*
X43925789Y-32307656D01*
X43866419Y-32275922D01*
X43814383Y-32233217D01*
X43771678Y-32181181D01*
X43739944Y-32121811D01*
X43720403Y-32057393D01*
X43713200Y-31984260D01*
X43713200Y-31058540D01*
X43720403Y-30985407D01*
X43739944Y-30920989D01*
X43771678Y-30861619D01*
X43814383Y-30809583D01*
X43866419Y-30766878D01*
X43925789Y-30735144D01*
X43990207Y-30715603D01*
X44063340Y-30708400D01*
X44989060Y-30708400D01*
X45062193Y-30715603D01*
X45062193Y-30715603D01*
G37*
G36*
X48562193Y-30715603D02*
G01*
X48626611Y-30735144D01*
X48685981Y-30766878D01*
X48738017Y-30809583D01*
X48780722Y-30861619D01*
X48812456Y-30920989D01*
X48831997Y-30985407D01*
X48839200Y-31058540D01*
X48839200Y-31984260D01*
X48831997Y-32057393D01*
X48812456Y-32121811D01*
X48780722Y-32181181D01*
X48738017Y-32233217D01*
X48685981Y-32275922D01*
X48626611Y-32307656D01*
X48562193Y-32327197D01*
X48489060Y-32334400D01*
X47563340Y-32334400D01*
X47490207Y-32327197D01*
X47425789Y-32307656D01*
X47366419Y-32275922D01*
X47314383Y-32233217D01*
X47271678Y-32181181D01*
X47239944Y-32121811D01*
X47220403Y-32057393D01*
X47213200Y-31984260D01*
X47213200Y-31058540D01*
X47220403Y-30985407D01*
X47239944Y-30920989D01*
X47271678Y-30861619D01*
X47314383Y-30809583D01*
X47366419Y-30766878D01*
X47425789Y-30735144D01*
X47490207Y-30715603D01*
X47563340Y-30708400D01*
X48489060Y-30708400D01*
X48562193Y-30715603D01*
X48562193Y-30715603D01*
G37*
G36*
X38075793Y-30690203D02*
G01*
X38140211Y-30709744D01*
X38199581Y-30741478D01*
X38251617Y-30784183D01*
X38294322Y-30836219D01*
X38326056Y-30895589D01*
X38345597Y-30960007D01*
X38352800Y-31033140D01*
X38352800Y-31958860D01*
X38345597Y-32031993D01*
X38326056Y-32096411D01*
X38294322Y-32155781D01*
X38251617Y-32207817D01*
X38199581Y-32250522D01*
X38140211Y-32282256D01*
X38075793Y-32301797D01*
X38002660Y-32309000D01*
X37076940Y-32309000D01*
X37003807Y-32301797D01*
X36939389Y-32282256D01*
X36880019Y-32250522D01*
X36827983Y-32207817D01*
X36785278Y-32155781D01*
X36753544Y-32096411D01*
X36734003Y-32031993D01*
X36726800Y-31958860D01*
X36726800Y-31033140D01*
X36734003Y-30960007D01*
X36753544Y-30895589D01*
X36785278Y-30836219D01*
X36827983Y-30784183D01*
X36880019Y-30741478D01*
X36939389Y-30709744D01*
X37003807Y-30690203D01*
X37076940Y-30683000D01*
X38002660Y-30683000D01*
X38075793Y-30690203D01*
X38075793Y-30690203D01*
G37*
G36*
X34065193Y-30690203D02*
G01*
X34129611Y-30709744D01*
X34188981Y-30741478D01*
X34241017Y-30784183D01*
X34283722Y-30836219D01*
X34315456Y-30895589D01*
X34334997Y-30960007D01*
X34342200Y-31033140D01*
X34342200Y-31958860D01*
X34334997Y-32031993D01*
X34315456Y-32096411D01*
X34283722Y-32155781D01*
X34241017Y-32207817D01*
X34188981Y-32250522D01*
X34129611Y-32282256D01*
X34065193Y-32301797D01*
X33992060Y-32309000D01*
X33066340Y-32309000D01*
X32993207Y-32301797D01*
X32928789Y-32282256D01*
X32869419Y-32250522D01*
X32817383Y-32207817D01*
X32774678Y-32155781D01*
X32742944Y-32096411D01*
X32723403Y-32031993D01*
X32716200Y-31958860D01*
X32716200Y-31033140D01*
X32723403Y-30960007D01*
X32742944Y-30895589D01*
X32774678Y-30836219D01*
X32817383Y-30784183D01*
X32869419Y-30741478D01*
X32928789Y-30709744D01*
X32993207Y-30690203D01*
X33066340Y-30683000D01*
X33992060Y-30683000D01*
X34065193Y-30690203D01*
X34065193Y-30690203D01*
G37*
G36*
X30965193Y-30690203D02*
G01*
X31029611Y-30709744D01*
X31088981Y-30741478D01*
X31141017Y-30784183D01*
X31183722Y-30836219D01*
X31215456Y-30895589D01*
X31234997Y-30960007D01*
X31242200Y-31033140D01*
X31242200Y-31958860D01*
X31234997Y-32031993D01*
X31215456Y-32096411D01*
X31183722Y-32155781D01*
X31141017Y-32207817D01*
X31088981Y-32250522D01*
X31029611Y-32282256D01*
X30965193Y-32301797D01*
X30892060Y-32309000D01*
X29966340Y-32309000D01*
X29893207Y-32301797D01*
X29828789Y-32282256D01*
X29769419Y-32250522D01*
X29717383Y-32207817D01*
X29674678Y-32155781D01*
X29642944Y-32096411D01*
X29623403Y-32031993D01*
X29616200Y-31958860D01*
X29616200Y-31033140D01*
X29623403Y-30960007D01*
X29642944Y-30895589D01*
X29674678Y-30836219D01*
X29717383Y-30784183D01*
X29769419Y-30741478D01*
X29828789Y-30709744D01*
X29893207Y-30690203D01*
X29966340Y-30683000D01*
X30892060Y-30683000D01*
X30965193Y-30690203D01*
X30965193Y-30690203D01*
G37*
G36*
X41075793Y-30690203D02*
G01*
X41140211Y-30709744D01*
X41199581Y-30741478D01*
X41251617Y-30784183D01*
X41294322Y-30836219D01*
X41326056Y-30895589D01*
X41345597Y-30960007D01*
X41352800Y-31033140D01*
X41352800Y-31958860D01*
X41345597Y-32031993D01*
X41326056Y-32096411D01*
X41294322Y-32155781D01*
X41251617Y-32207817D01*
X41199581Y-32250522D01*
X41140211Y-32282256D01*
X41075793Y-32301797D01*
X41002660Y-32309000D01*
X40076940Y-32309000D01*
X40003807Y-32301797D01*
X39939389Y-32282256D01*
X39880019Y-32250522D01*
X39827983Y-32207817D01*
X39785278Y-32155781D01*
X39753544Y-32096411D01*
X39734003Y-32031993D01*
X39726800Y-31958860D01*
X39726800Y-31033140D01*
X39734003Y-30960007D01*
X39753544Y-30895589D01*
X39785278Y-30836219D01*
X39827983Y-30784183D01*
X39880019Y-30741478D01*
X39939389Y-30709744D01*
X40003807Y-30690203D01*
X40076940Y-30683000D01*
X41002660Y-30683000D01*
X41075793Y-30690203D01*
X41075793Y-30690203D01*
G37*
G36*
X37538985Y-14049002D02*
G01*
X37688810Y-14078804D01*
X37971074Y-14195721D01*
X38225105Y-14365459D01*
X38441141Y-14581495D01*
X38610879Y-14835526D01*
X38727796Y-15117790D01*
X38787400Y-15417440D01*
X38787400Y-15722960D01*
X38727796Y-16022610D01*
X38610879Y-16304874D01*
X38441141Y-16558905D01*
X38225105Y-16774941D01*
X37971074Y-16944679D01*
X37688810Y-17061596D01*
X37538985Y-17091398D01*
X37389161Y-17121200D01*
X37083639Y-17121200D01*
X36933815Y-17091398D01*
X36783990Y-17061596D01*
X36501726Y-16944679D01*
X36247695Y-16774941D01*
X36031659Y-16558905D01*
X35861921Y-16304874D01*
X35745004Y-16022610D01*
X35685400Y-15722960D01*
X35685400Y-15417440D01*
X35745004Y-15117790D01*
X35861921Y-14835526D01*
X36031659Y-14581495D01*
X36247695Y-14365459D01*
X36501726Y-14195721D01*
X36783990Y-14078804D01*
X36933815Y-14049002D01*
X37083639Y-14019200D01*
X37389161Y-14019200D01*
X37538985Y-14049002D01*
X37538985Y-14049002D01*
G37*
G36*
X43867400Y-17121200D02*
G01*
X40765400Y-17121200D01*
X40765400Y-14019200D01*
X43867400Y-14019200D01*
X43867400Y-17121200D01*
X43867400Y-17121200D01*
G37*
M02*
