G04 #@! TF.GenerationSoftware,KiCad,Pcbnew,5.0.2-bee76a0~70~ubuntu16.04.1*
G04 #@! TF.CreationDate,2019-12-27T08:03:31-08:00*
G04 #@! TF.ProjectId,Led_tests,4c65645f-7465-4737-9473-2e6b69636164,rev?*
G04 #@! TF.SameCoordinates,Original*
G04 #@! TF.FileFunction,Soldermask,Top*
G04 #@! TF.FilePolarity,Negative*
%FSLAX46Y46*%
G04 Gerber Fmt 4.6, Leading zero omitted, Abs format (unit mm)*
G04 Created by KiCad (PCBNEW 5.0.2-bee76a0~70~ubuntu16.04.1) date Fri 27 Dec 2019 08:03:31 PST*
%MOMM*%
%LPD*%
G01*
G04 APERTURE LIST*
%ADD10C,0.100000*%
G04 APERTURE END LIST*
D10*
G36*
X45468593Y-36710003D02*
X45533014Y-36729544D01*
X45592376Y-36761275D01*
X45644417Y-36803983D01*
X45687125Y-36856024D01*
X45718856Y-36915386D01*
X45738397Y-36979807D01*
X45745600Y-37052941D01*
X45745600Y-37978659D01*
X45738397Y-38051793D01*
X45718856Y-38116214D01*
X45687125Y-38175576D01*
X45644417Y-38227617D01*
X45592376Y-38270325D01*
X45533014Y-38302056D01*
X45468593Y-38321597D01*
X45395459Y-38328800D01*
X44469741Y-38328800D01*
X44396607Y-38321597D01*
X44332186Y-38302056D01*
X44272824Y-38270325D01*
X44220783Y-38227617D01*
X44178075Y-38175576D01*
X44146344Y-38116214D01*
X44126803Y-38051793D01*
X44119600Y-37978659D01*
X44119600Y-37052941D01*
X44126803Y-36979807D01*
X44146344Y-36915386D01*
X44178075Y-36856024D01*
X44220783Y-36803983D01*
X44272824Y-36761275D01*
X44332186Y-36729544D01*
X44396607Y-36710003D01*
X44469741Y-36702800D01*
X45395459Y-36702800D01*
X45468593Y-36710003D01*
X45468593Y-36710003D01*
G37*
G36*
X41480793Y-36710003D02*
X41545214Y-36729544D01*
X41604576Y-36761275D01*
X41656617Y-36803983D01*
X41699325Y-36856024D01*
X41731056Y-36915386D01*
X41750597Y-36979807D01*
X41757800Y-37052941D01*
X41757800Y-37978659D01*
X41750597Y-38051793D01*
X41731056Y-38116214D01*
X41699325Y-38175576D01*
X41656617Y-38227617D01*
X41604576Y-38270325D01*
X41545214Y-38302056D01*
X41480793Y-38321597D01*
X41407659Y-38328800D01*
X40481941Y-38328800D01*
X40408807Y-38321597D01*
X40344386Y-38302056D01*
X40285024Y-38270325D01*
X40232983Y-38227617D01*
X40190275Y-38175576D01*
X40158544Y-38116214D01*
X40139003Y-38051793D01*
X40131800Y-37978659D01*
X40131800Y-37052941D01*
X40139003Y-36979807D01*
X40158544Y-36915386D01*
X40190275Y-36856024D01*
X40232983Y-36803983D01*
X40285024Y-36761275D01*
X40344386Y-36729544D01*
X40408807Y-36710003D01*
X40481941Y-36702800D01*
X41407659Y-36702800D01*
X41480793Y-36710003D01*
X41480793Y-36710003D01*
G37*
G36*
X38180793Y-36710003D02*
X38245214Y-36729544D01*
X38304576Y-36761275D01*
X38356617Y-36803983D01*
X38399325Y-36856024D01*
X38431056Y-36915386D01*
X38450597Y-36979807D01*
X38457800Y-37052941D01*
X38457800Y-37978659D01*
X38450597Y-38051793D01*
X38431056Y-38116214D01*
X38399325Y-38175576D01*
X38356617Y-38227617D01*
X38304576Y-38270325D01*
X38245214Y-38302056D01*
X38180793Y-38321597D01*
X38107659Y-38328800D01*
X37181941Y-38328800D01*
X37108807Y-38321597D01*
X37044386Y-38302056D01*
X36985024Y-38270325D01*
X36932983Y-38227617D01*
X36890275Y-38175576D01*
X36858544Y-38116214D01*
X36839003Y-38051793D01*
X36831800Y-37978659D01*
X36831800Y-37052941D01*
X36839003Y-36979807D01*
X36858544Y-36915386D01*
X36890275Y-36856024D01*
X36932983Y-36803983D01*
X36985024Y-36761275D01*
X37044386Y-36729544D01*
X37108807Y-36710003D01*
X37181941Y-36702800D01*
X38107659Y-36702800D01*
X38180793Y-36710003D01*
X38180793Y-36710003D01*
G37*
G36*
X48868593Y-36710003D02*
X48933014Y-36729544D01*
X48992376Y-36761275D01*
X49044417Y-36803983D01*
X49087125Y-36856024D01*
X49118856Y-36915386D01*
X49138397Y-36979807D01*
X49145600Y-37052941D01*
X49145600Y-37978659D01*
X49138397Y-38051793D01*
X49118856Y-38116214D01*
X49087125Y-38175576D01*
X49044417Y-38227617D01*
X48992376Y-38270325D01*
X48933014Y-38302056D01*
X48868593Y-38321597D01*
X48795459Y-38328800D01*
X47869741Y-38328800D01*
X47796607Y-38321597D01*
X47732186Y-38302056D01*
X47672824Y-38270325D01*
X47620783Y-38227617D01*
X47578075Y-38175576D01*
X47546344Y-38116214D01*
X47526803Y-38051793D01*
X47519600Y-37978659D01*
X47519600Y-37052941D01*
X47526803Y-36979807D01*
X47546344Y-36915386D01*
X47578075Y-36856024D01*
X47620783Y-36803983D01*
X47672824Y-36761275D01*
X47732186Y-36729544D01*
X47796607Y-36710003D01*
X47869741Y-36702800D01*
X48795459Y-36702800D01*
X48868593Y-36710003D01*
X48868593Y-36710003D01*
G37*
G36*
X30939793Y-36659203D02*
X31004214Y-36678744D01*
X31063576Y-36710475D01*
X31115617Y-36753183D01*
X31158325Y-36805224D01*
X31190056Y-36864586D01*
X31209597Y-36929007D01*
X31216800Y-37002141D01*
X31216800Y-37927859D01*
X31209597Y-38000993D01*
X31190056Y-38065414D01*
X31158325Y-38124776D01*
X31115617Y-38176817D01*
X31063576Y-38219525D01*
X31004214Y-38251256D01*
X30939793Y-38270797D01*
X30866659Y-38278000D01*
X29940941Y-38278000D01*
X29867807Y-38270797D01*
X29803386Y-38251256D01*
X29744024Y-38219525D01*
X29691983Y-38176817D01*
X29649275Y-38124776D01*
X29617544Y-38065414D01*
X29598003Y-38000993D01*
X29590800Y-37927859D01*
X29590800Y-37002141D01*
X29598003Y-36929007D01*
X29617544Y-36864586D01*
X29649275Y-36805224D01*
X29691983Y-36753183D01*
X29744024Y-36710475D01*
X29803386Y-36678744D01*
X29867807Y-36659203D01*
X29940941Y-36652000D01*
X30866659Y-36652000D01*
X30939793Y-36659203D01*
X30939793Y-36659203D01*
G37*
G36*
X34139793Y-36659203D02*
X34204214Y-36678744D01*
X34263576Y-36710475D01*
X34315617Y-36753183D01*
X34358325Y-36805224D01*
X34390056Y-36864586D01*
X34409597Y-36929007D01*
X34416800Y-37002141D01*
X34416800Y-37927859D01*
X34409597Y-38000993D01*
X34390056Y-38065414D01*
X34358325Y-38124776D01*
X34315617Y-38176817D01*
X34263576Y-38219525D01*
X34204214Y-38251256D01*
X34139793Y-38270797D01*
X34066659Y-38278000D01*
X33140941Y-38278000D01*
X33067807Y-38270797D01*
X33003386Y-38251256D01*
X32944024Y-38219525D01*
X32891983Y-38176817D01*
X32849275Y-38124776D01*
X32817544Y-38065414D01*
X32798003Y-38000993D01*
X32790800Y-37927859D01*
X32790800Y-37002141D01*
X32798003Y-36929007D01*
X32817544Y-36864586D01*
X32849275Y-36805224D01*
X32891983Y-36753183D01*
X32944024Y-36710475D01*
X33003386Y-36678744D01*
X33067807Y-36659203D01*
X33140941Y-36652000D01*
X34066659Y-36652000D01*
X34139793Y-36659203D01*
X34139793Y-36659203D01*
G37*
G36*
X45062193Y-30715603D02*
X45126614Y-30735144D01*
X45185976Y-30766875D01*
X45238017Y-30809583D01*
X45280725Y-30861624D01*
X45312456Y-30920986D01*
X45331997Y-30985407D01*
X45339200Y-31058541D01*
X45339200Y-31984259D01*
X45331997Y-32057393D01*
X45312456Y-32121814D01*
X45280725Y-32181176D01*
X45238017Y-32233217D01*
X45185976Y-32275925D01*
X45126614Y-32307656D01*
X45062193Y-32327197D01*
X44989059Y-32334400D01*
X44063341Y-32334400D01*
X43990207Y-32327197D01*
X43925786Y-32307656D01*
X43866424Y-32275925D01*
X43814383Y-32233217D01*
X43771675Y-32181176D01*
X43739944Y-32121814D01*
X43720403Y-32057393D01*
X43713200Y-31984259D01*
X43713200Y-31058541D01*
X43720403Y-30985407D01*
X43739944Y-30920986D01*
X43771675Y-30861624D01*
X43814383Y-30809583D01*
X43866424Y-30766875D01*
X43925786Y-30735144D01*
X43990207Y-30715603D01*
X44063341Y-30708400D01*
X44989059Y-30708400D01*
X45062193Y-30715603D01*
X45062193Y-30715603D01*
G37*
G36*
X48562193Y-30715603D02*
X48626614Y-30735144D01*
X48685976Y-30766875D01*
X48738017Y-30809583D01*
X48780725Y-30861624D01*
X48812456Y-30920986D01*
X48831997Y-30985407D01*
X48839200Y-31058541D01*
X48839200Y-31984259D01*
X48831997Y-32057393D01*
X48812456Y-32121814D01*
X48780725Y-32181176D01*
X48738017Y-32233217D01*
X48685976Y-32275925D01*
X48626614Y-32307656D01*
X48562193Y-32327197D01*
X48489059Y-32334400D01*
X47563341Y-32334400D01*
X47490207Y-32327197D01*
X47425786Y-32307656D01*
X47366424Y-32275925D01*
X47314383Y-32233217D01*
X47271675Y-32181176D01*
X47239944Y-32121814D01*
X47220403Y-32057393D01*
X47213200Y-31984259D01*
X47213200Y-31058541D01*
X47220403Y-30985407D01*
X47239944Y-30920986D01*
X47271675Y-30861624D01*
X47314383Y-30809583D01*
X47366424Y-30766875D01*
X47425786Y-30735144D01*
X47490207Y-30715603D01*
X47563341Y-30708400D01*
X48489059Y-30708400D01*
X48562193Y-30715603D01*
X48562193Y-30715603D01*
G37*
G36*
X38075793Y-30690203D02*
X38140214Y-30709744D01*
X38199576Y-30741475D01*
X38251617Y-30784183D01*
X38294325Y-30836224D01*
X38326056Y-30895586D01*
X38345597Y-30960007D01*
X38352800Y-31033141D01*
X38352800Y-31958859D01*
X38345597Y-32031993D01*
X38326056Y-32096414D01*
X38294325Y-32155776D01*
X38251617Y-32207817D01*
X38199576Y-32250525D01*
X38140214Y-32282256D01*
X38075793Y-32301797D01*
X38002659Y-32309000D01*
X37076941Y-32309000D01*
X37003807Y-32301797D01*
X36939386Y-32282256D01*
X36880024Y-32250525D01*
X36827983Y-32207817D01*
X36785275Y-32155776D01*
X36753544Y-32096414D01*
X36734003Y-32031993D01*
X36726800Y-31958859D01*
X36726800Y-31033141D01*
X36734003Y-30960007D01*
X36753544Y-30895586D01*
X36785275Y-30836224D01*
X36827983Y-30784183D01*
X36880024Y-30741475D01*
X36939386Y-30709744D01*
X37003807Y-30690203D01*
X37076941Y-30683000D01*
X38002659Y-30683000D01*
X38075793Y-30690203D01*
X38075793Y-30690203D01*
G37*
G36*
X34065193Y-30690203D02*
X34129614Y-30709744D01*
X34188976Y-30741475D01*
X34241017Y-30784183D01*
X34283725Y-30836224D01*
X34315456Y-30895586D01*
X34334997Y-30960007D01*
X34342200Y-31033141D01*
X34342200Y-31958859D01*
X34334997Y-32031993D01*
X34315456Y-32096414D01*
X34283725Y-32155776D01*
X34241017Y-32207817D01*
X34188976Y-32250525D01*
X34129614Y-32282256D01*
X34065193Y-32301797D01*
X33992059Y-32309000D01*
X33066341Y-32309000D01*
X32993207Y-32301797D01*
X32928786Y-32282256D01*
X32869424Y-32250525D01*
X32817383Y-32207817D01*
X32774675Y-32155776D01*
X32742944Y-32096414D01*
X32723403Y-32031993D01*
X32716200Y-31958859D01*
X32716200Y-31033141D01*
X32723403Y-30960007D01*
X32742944Y-30895586D01*
X32774675Y-30836224D01*
X32817383Y-30784183D01*
X32869424Y-30741475D01*
X32928786Y-30709744D01*
X32993207Y-30690203D01*
X33066341Y-30683000D01*
X33992059Y-30683000D01*
X34065193Y-30690203D01*
X34065193Y-30690203D01*
G37*
G36*
X30965193Y-30690203D02*
X31029614Y-30709744D01*
X31088976Y-30741475D01*
X31141017Y-30784183D01*
X31183725Y-30836224D01*
X31215456Y-30895586D01*
X31234997Y-30960007D01*
X31242200Y-31033141D01*
X31242200Y-31958859D01*
X31234997Y-32031993D01*
X31215456Y-32096414D01*
X31183725Y-32155776D01*
X31141017Y-32207817D01*
X31088976Y-32250525D01*
X31029614Y-32282256D01*
X30965193Y-32301797D01*
X30892059Y-32309000D01*
X29966341Y-32309000D01*
X29893207Y-32301797D01*
X29828786Y-32282256D01*
X29769424Y-32250525D01*
X29717383Y-32207817D01*
X29674675Y-32155776D01*
X29642944Y-32096414D01*
X29623403Y-32031993D01*
X29616200Y-31958859D01*
X29616200Y-31033141D01*
X29623403Y-30960007D01*
X29642944Y-30895586D01*
X29674675Y-30836224D01*
X29717383Y-30784183D01*
X29769424Y-30741475D01*
X29828786Y-30709744D01*
X29893207Y-30690203D01*
X29966341Y-30683000D01*
X30892059Y-30683000D01*
X30965193Y-30690203D01*
X30965193Y-30690203D01*
G37*
G36*
X41075793Y-30690203D02*
X41140214Y-30709744D01*
X41199576Y-30741475D01*
X41251617Y-30784183D01*
X41294325Y-30836224D01*
X41326056Y-30895586D01*
X41345597Y-30960007D01*
X41352800Y-31033141D01*
X41352800Y-31958859D01*
X41345597Y-32031993D01*
X41326056Y-32096414D01*
X41294325Y-32155776D01*
X41251617Y-32207817D01*
X41199576Y-32250525D01*
X41140214Y-32282256D01*
X41075793Y-32301797D01*
X41002659Y-32309000D01*
X40076941Y-32309000D01*
X40003807Y-32301797D01*
X39939386Y-32282256D01*
X39880024Y-32250525D01*
X39827983Y-32207817D01*
X39785275Y-32155776D01*
X39753544Y-32096414D01*
X39734003Y-32031993D01*
X39726800Y-31958859D01*
X39726800Y-31033141D01*
X39734003Y-30960007D01*
X39753544Y-30895586D01*
X39785275Y-30836224D01*
X39827983Y-30784183D01*
X39880024Y-30741475D01*
X39939386Y-30709744D01*
X40003807Y-30690203D01*
X40076941Y-30683000D01*
X41002659Y-30683000D01*
X41075793Y-30690203D01*
X41075793Y-30690203D01*
G37*
G36*
X37588927Y-14058936D02*
X37688810Y-14078804D01*
X37971074Y-14195721D01*
X38225105Y-14365459D01*
X38441141Y-14581495D01*
X38610879Y-14835526D01*
X38727796Y-15117790D01*
X38787400Y-15417440D01*
X38787400Y-15722960D01*
X38727796Y-16022610D01*
X38610879Y-16304874D01*
X38441141Y-16558905D01*
X38225105Y-16774941D01*
X37971074Y-16944679D01*
X37688810Y-17061596D01*
X37588927Y-17081464D01*
X37389162Y-17121200D01*
X37083638Y-17121200D01*
X36883873Y-17081464D01*
X36783990Y-17061596D01*
X36501726Y-16944679D01*
X36247695Y-16774941D01*
X36031659Y-16558905D01*
X35861921Y-16304874D01*
X35745004Y-16022610D01*
X35685400Y-15722960D01*
X35685400Y-15417440D01*
X35745004Y-15117790D01*
X35861921Y-14835526D01*
X36031659Y-14581495D01*
X36247695Y-14365459D01*
X36501726Y-14195721D01*
X36783990Y-14078804D01*
X36883873Y-14058936D01*
X37083638Y-14019200D01*
X37389162Y-14019200D01*
X37588927Y-14058936D01*
X37588927Y-14058936D01*
G37*
G36*
X43867400Y-17121200D02*
X40765400Y-17121200D01*
X40765400Y-14019200D01*
X43867400Y-14019200D01*
X43867400Y-17121200D01*
X43867400Y-17121200D01*
G37*
M02*
