G04 #@! TF.GenerationSoftware,KiCad,Pcbnew,5.0.2-bee76a0~70~ubuntu16.04.1*
G04 #@! TF.CreationDate,2019-12-27T08:03:31-08:00*
G04 #@! TF.ProjectId,Led_tests,4c65645f-7465-4737-9473-2e6b69636164,rev?*
G04 #@! TF.SameCoordinates,Original*
G04 #@! TF.FileFunction,Legend,Bot*
G04 #@! TF.FilePolarity,Positive*
%FSLAX46Y46*%
G04 Gerber Fmt 4.6, Leading zero omitted, Abs format (unit mm)*
G04 Created by KiCad (PCBNEW 5.0.2-bee76a0~70~ubuntu16.04.1) date Fri 27 Dec 2019 08:03:31 PST*
%MOMM*%
%LPD*%
G01*
G04 APERTURE LIST*
%ADD10C,0.120000*%
%ADD11C,0.150000*%
G04 APERTURE END LIST*
D10*
G04 #@! TO.C,RN1*
X39104000Y-20441600D02*
X39104000Y-21241600D01*
X42544000Y-20441600D02*
X42544000Y-21241600D01*
G04 #@! TO.C,RN2*
X34847800Y-20340000D02*
X34847800Y-21140000D01*
X31407800Y-20340000D02*
X31407800Y-21140000D01*
G04 #@! TO.C,RN3*
X31319000Y-24912000D02*
X31319000Y-25712000D01*
X34759000Y-24912000D02*
X34759000Y-25712000D01*
G04 #@! TO.C,RN4*
X42512400Y-24873000D02*
X42512400Y-25673000D01*
X39072400Y-24873000D02*
X39072400Y-25673000D01*
G04 #@! TO.C,RN5*
X46381400Y-24884800D02*
X46381400Y-25684800D01*
X49821400Y-24884800D02*
X49821400Y-25684800D01*
G04 #@! TO.C,RN6*
X49827600Y-20478800D02*
X49827600Y-21278800D01*
X46387600Y-20478800D02*
X46387600Y-21278800D01*
G04 #@! TO.C,RN1*
D11*
X43876380Y-20151123D02*
X43400190Y-19817790D01*
X43876380Y-19579695D02*
X42876380Y-19579695D01*
X42876380Y-19960647D01*
X42924000Y-20055885D01*
X42971619Y-20103504D01*
X43066857Y-20151123D01*
X43209714Y-20151123D01*
X43304952Y-20103504D01*
X43352571Y-20055885D01*
X43400190Y-19960647D01*
X43400190Y-19579695D01*
X43876380Y-20579695D02*
X42876380Y-20579695D01*
X43876380Y-21151123D01*
X42876380Y-21151123D01*
X43876380Y-22151123D02*
X43876380Y-21579695D01*
X43876380Y-21865409D02*
X42876380Y-21865409D01*
X43019238Y-21770171D01*
X43114476Y-21674933D01*
X43162095Y-21579695D01*
G04 #@! TO.C,RN2*
X36180180Y-20049523D02*
X35703990Y-19716190D01*
X36180180Y-19478095D02*
X35180180Y-19478095D01*
X35180180Y-19859047D01*
X35227800Y-19954285D01*
X35275419Y-20001904D01*
X35370657Y-20049523D01*
X35513514Y-20049523D01*
X35608752Y-20001904D01*
X35656371Y-19954285D01*
X35703990Y-19859047D01*
X35703990Y-19478095D01*
X36180180Y-20478095D02*
X35180180Y-20478095D01*
X36180180Y-21049523D01*
X35180180Y-21049523D01*
X35275419Y-21478095D02*
X35227800Y-21525714D01*
X35180180Y-21620952D01*
X35180180Y-21859047D01*
X35227800Y-21954285D01*
X35275419Y-22001904D01*
X35370657Y-22049523D01*
X35465895Y-22049523D01*
X35608752Y-22001904D01*
X36180180Y-21430476D01*
X36180180Y-22049523D01*
G04 #@! TO.C,RN3*
X36091380Y-24621523D02*
X35615190Y-24288190D01*
X36091380Y-24050095D02*
X35091380Y-24050095D01*
X35091380Y-24431047D01*
X35139000Y-24526285D01*
X35186619Y-24573904D01*
X35281857Y-24621523D01*
X35424714Y-24621523D01*
X35519952Y-24573904D01*
X35567571Y-24526285D01*
X35615190Y-24431047D01*
X35615190Y-24050095D01*
X36091380Y-25050095D02*
X35091380Y-25050095D01*
X36091380Y-25621523D01*
X35091380Y-25621523D01*
X35091380Y-26002476D02*
X35091380Y-26621523D01*
X35472333Y-26288190D01*
X35472333Y-26431047D01*
X35519952Y-26526285D01*
X35567571Y-26573904D01*
X35662809Y-26621523D01*
X35900904Y-26621523D01*
X35996142Y-26573904D01*
X36043761Y-26526285D01*
X36091380Y-26431047D01*
X36091380Y-26145333D01*
X36043761Y-26050095D01*
X35996142Y-26002476D01*
G04 #@! TO.C,RN4*
X43844780Y-24582523D02*
X43368590Y-24249190D01*
X43844780Y-24011095D02*
X42844780Y-24011095D01*
X42844780Y-24392047D01*
X42892400Y-24487285D01*
X42940019Y-24534904D01*
X43035257Y-24582523D01*
X43178114Y-24582523D01*
X43273352Y-24534904D01*
X43320971Y-24487285D01*
X43368590Y-24392047D01*
X43368590Y-24011095D01*
X43844780Y-25011095D02*
X42844780Y-25011095D01*
X43844780Y-25582523D01*
X42844780Y-25582523D01*
X43178114Y-26487285D02*
X43844780Y-26487285D01*
X42797161Y-26249190D02*
X43511447Y-26011095D01*
X43511447Y-26630142D01*
G04 #@! TO.C,RN5*
X51153780Y-24594323D02*
X50677590Y-24260990D01*
X51153780Y-24022895D02*
X50153780Y-24022895D01*
X50153780Y-24403847D01*
X50201400Y-24499085D01*
X50249019Y-24546704D01*
X50344257Y-24594323D01*
X50487114Y-24594323D01*
X50582352Y-24546704D01*
X50629971Y-24499085D01*
X50677590Y-24403847D01*
X50677590Y-24022895D01*
X51153780Y-25022895D02*
X50153780Y-25022895D01*
X51153780Y-25594323D01*
X50153780Y-25594323D01*
X50153780Y-26546704D02*
X50153780Y-26070514D01*
X50629971Y-26022895D01*
X50582352Y-26070514D01*
X50534733Y-26165752D01*
X50534733Y-26403847D01*
X50582352Y-26499085D01*
X50629971Y-26546704D01*
X50725209Y-26594323D01*
X50963304Y-26594323D01*
X51058542Y-26546704D01*
X51106161Y-26499085D01*
X51153780Y-26403847D01*
X51153780Y-26165752D01*
X51106161Y-26070514D01*
X51058542Y-26022895D01*
G04 #@! TO.C,RN6*
X51159980Y-20188323D02*
X50683790Y-19854990D01*
X51159980Y-19616895D02*
X50159980Y-19616895D01*
X50159980Y-19997847D01*
X50207600Y-20093085D01*
X50255219Y-20140704D01*
X50350457Y-20188323D01*
X50493314Y-20188323D01*
X50588552Y-20140704D01*
X50636171Y-20093085D01*
X50683790Y-19997847D01*
X50683790Y-19616895D01*
X51159980Y-20616895D02*
X50159980Y-20616895D01*
X51159980Y-21188323D01*
X50159980Y-21188323D01*
X50159980Y-22093085D02*
X50159980Y-21902609D01*
X50207600Y-21807371D01*
X50255219Y-21759752D01*
X50398076Y-21664514D01*
X50588552Y-21616895D01*
X50969504Y-21616895D01*
X51064742Y-21664514D01*
X51112361Y-21712133D01*
X51159980Y-21807371D01*
X51159980Y-21997847D01*
X51112361Y-22093085D01*
X51064742Y-22140704D01*
X50969504Y-22188323D01*
X50731409Y-22188323D01*
X50636171Y-22140704D01*
X50588552Y-22093085D01*
X50540933Y-21997847D01*
X50540933Y-21807371D01*
X50588552Y-21712133D01*
X50636171Y-21664514D01*
X50731409Y-21616895D01*
G04 #@! TD*
M02*
