G04 #@! TF.GenerationSoftware,KiCad,Pcbnew,(5.1.4)-1*
G04 #@! TF.CreationDate,2020-01-03T19:08:14-08:00*
G04 #@! TF.ProjectId,Led_tests,4c65645f-7465-4737-9473-2e6b69636164,rev?*
G04 #@! TF.SameCoordinates,Original*
G04 #@! TF.FileFunction,Legend,Top*
G04 #@! TF.FilePolarity,Positive*
%FSLAX46Y46*%
G04 Gerber Fmt 4.6, Leading zero omitted, Abs format (unit mm)*
G04 Created by KiCad (PCBNEW (5.1.4)-1) date 2020-01-03 19:08:14*
%MOMM*%
%LPD*%
G04 APERTURE LIST*
%ADD10C,0.300000*%
%ADD11C,0.120000*%
%ADD12C,0.150000*%
G04 APERTURE END LIST*
D10*
X44732771Y-26026371D02*
X45661342Y-26026371D01*
X45161342Y-26597800D01*
X45375628Y-26597800D01*
X45518485Y-26669228D01*
X45589914Y-26740657D01*
X45661342Y-26883514D01*
X45661342Y-27240657D01*
X45589914Y-27383514D01*
X45518485Y-27454942D01*
X45375628Y-27526371D01*
X44947057Y-27526371D01*
X44804200Y-27454942D01*
X44732771Y-27383514D01*
X46304200Y-27383514D02*
X46375628Y-27454942D01*
X46304200Y-27526371D01*
X46232771Y-27454942D01*
X46304200Y-27383514D01*
X46304200Y-27526371D01*
X47732771Y-26026371D02*
X47018485Y-26026371D01*
X46947057Y-26740657D01*
X47018485Y-26669228D01*
X47161342Y-26597800D01*
X47518485Y-26597800D01*
X47661342Y-26669228D01*
X47732771Y-26740657D01*
X47804200Y-26883514D01*
X47804200Y-27240657D01*
X47732771Y-27383514D01*
X47661342Y-27454942D01*
X47518485Y-27526371D01*
X47161342Y-27526371D01*
X47018485Y-27454942D01*
X46947057Y-27383514D01*
X37442971Y-26432771D02*
X38371542Y-26432771D01*
X37871542Y-27004200D01*
X38085828Y-27004200D01*
X38228685Y-27075628D01*
X38300114Y-27147057D01*
X38371542Y-27289914D01*
X38371542Y-27647057D01*
X38300114Y-27789914D01*
X38228685Y-27861342D01*
X38085828Y-27932771D01*
X37657257Y-27932771D01*
X37514400Y-27861342D01*
X37442971Y-27789914D01*
X39014400Y-27789914D02*
X39085828Y-27861342D01*
X39014400Y-27932771D01*
X38942971Y-27861342D01*
X39014400Y-27789914D01*
X39014400Y-27932771D01*
X40014400Y-26432771D02*
X40157257Y-26432771D01*
X40300114Y-26504200D01*
X40371542Y-26575628D01*
X40442971Y-26718485D01*
X40514400Y-27004200D01*
X40514400Y-27361342D01*
X40442971Y-27647057D01*
X40371542Y-27789914D01*
X40300114Y-27861342D01*
X40157257Y-27932771D01*
X40014400Y-27932771D01*
X39871542Y-27861342D01*
X39800114Y-27789914D01*
X39728685Y-27647057D01*
X39657257Y-27361342D01*
X39657257Y-27004200D01*
X39728685Y-26718485D01*
X39800114Y-26575628D01*
X39871542Y-26504200D01*
X40014400Y-26432771D01*
X30483371Y-26381971D02*
X31411942Y-26381971D01*
X30911942Y-26953400D01*
X31126228Y-26953400D01*
X31269085Y-27024828D01*
X31340514Y-27096257D01*
X31411942Y-27239114D01*
X31411942Y-27596257D01*
X31340514Y-27739114D01*
X31269085Y-27810542D01*
X31126228Y-27881971D01*
X30697657Y-27881971D01*
X30554800Y-27810542D01*
X30483371Y-27739114D01*
X32054800Y-27739114D02*
X32126228Y-27810542D01*
X32054800Y-27881971D01*
X31983371Y-27810542D01*
X32054800Y-27739114D01*
X32054800Y-27881971D01*
X33554800Y-27881971D02*
X32697657Y-27881971D01*
X33126228Y-27881971D02*
X33126228Y-26381971D01*
X32983371Y-26596257D01*
X32840514Y-26739114D01*
X32697657Y-26810542D01*
X45164571Y-38269171D02*
X46093142Y-38269171D01*
X45593142Y-38840600D01*
X45807428Y-38840600D01*
X45950285Y-38912028D01*
X46021714Y-38983457D01*
X46093142Y-39126314D01*
X46093142Y-39483457D01*
X46021714Y-39626314D01*
X45950285Y-39697742D01*
X45807428Y-39769171D01*
X45378857Y-39769171D01*
X45236000Y-39697742D01*
X45164571Y-39626314D01*
X46736000Y-39626314D02*
X46807428Y-39697742D01*
X46736000Y-39769171D01*
X46664571Y-39697742D01*
X46736000Y-39626314D01*
X46736000Y-39769171D01*
X48093142Y-38769171D02*
X48093142Y-39769171D01*
X47736000Y-38197742D02*
X47378857Y-39269171D01*
X48307428Y-39269171D01*
X37671571Y-38243771D02*
X38600142Y-38243771D01*
X38100142Y-38815200D01*
X38314428Y-38815200D01*
X38457285Y-38886628D01*
X38528714Y-38958057D01*
X38600142Y-39100914D01*
X38600142Y-39458057D01*
X38528714Y-39600914D01*
X38457285Y-39672342D01*
X38314428Y-39743771D01*
X37885857Y-39743771D01*
X37743000Y-39672342D01*
X37671571Y-39600914D01*
X39243000Y-39600914D02*
X39314428Y-39672342D01*
X39243000Y-39743771D01*
X39171571Y-39672342D01*
X39243000Y-39600914D01*
X39243000Y-39743771D01*
X39814428Y-38243771D02*
X40743000Y-38243771D01*
X40243000Y-38815200D01*
X40457285Y-38815200D01*
X40600142Y-38886628D01*
X40671571Y-38958057D01*
X40743000Y-39100914D01*
X40743000Y-39458057D01*
X40671571Y-39600914D01*
X40600142Y-39672342D01*
X40457285Y-39743771D01*
X40028714Y-39743771D01*
X39885857Y-39672342D01*
X39814428Y-39600914D01*
X30559571Y-38091371D02*
X31488142Y-38091371D01*
X30988142Y-38662800D01*
X31202428Y-38662800D01*
X31345285Y-38734228D01*
X31416714Y-38805657D01*
X31488142Y-38948514D01*
X31488142Y-39305657D01*
X31416714Y-39448514D01*
X31345285Y-39519942D01*
X31202428Y-39591371D01*
X30773857Y-39591371D01*
X30631000Y-39519942D01*
X30559571Y-39448514D01*
X32131000Y-39448514D02*
X32202428Y-39519942D01*
X32131000Y-39591371D01*
X32059571Y-39519942D01*
X32131000Y-39448514D01*
X32131000Y-39591371D01*
X32773857Y-38234228D02*
X32845285Y-38162800D01*
X32988142Y-38091371D01*
X33345285Y-38091371D01*
X33488142Y-38162800D01*
X33559571Y-38234228D01*
X33631000Y-38377085D01*
X33631000Y-38519942D01*
X33559571Y-38734228D01*
X32702428Y-39591371D01*
X33631000Y-39591371D01*
D11*
X34696400Y-13030200D02*
X44856400Y-13030200D01*
X34696400Y-11760200D02*
X34696400Y-19380200D01*
X34696400Y-19380200D02*
X44856400Y-19380200D01*
X44856400Y-19380200D02*
X44856400Y-11760200D01*
X44856400Y-11760200D02*
X34696400Y-11760200D01*
D12*
X39443066Y-20102580D02*
X39443066Y-20816866D01*
X39395447Y-20959723D01*
X39300209Y-21054961D01*
X39157352Y-21102580D01*
X39062114Y-21102580D01*
X40443066Y-21102580D02*
X39871638Y-21102580D01*
X40157352Y-21102580D02*
X40157352Y-20102580D01*
X40062114Y-20245438D01*
X39966876Y-20340676D01*
X39871638Y-20388295D01*
M02*
