G04 #@! TF.GenerationSoftware,KiCad,Pcbnew,5.0.2-bee76a0~70~ubuntu16.04.1*
G04 #@! TF.CreationDate,2019-12-27T08:03:31-08:00*
G04 #@! TF.ProjectId,Led_tests,4c65645f-7465-4737-9473-2e6b69636164,rev?*
G04 #@! TF.SameCoordinates,Original*
G04 #@! TF.FileFunction,Copper,L1,Top*
G04 #@! TF.FilePolarity,Positive*
%FSLAX46Y46*%
G04 Gerber Fmt 4.6, Leading zero omitted, Abs format (unit mm)*
G04 Created by KiCad (PCBNEW 5.0.2-bee76a0~70~ubuntu16.04.1) date Fri 27 Dec 2019 08:03:31 PST*
%MOMM*%
%LPD*%
G01*
G04 APERTURE LIST*
G04 #@! TA.AperFunction,Conductor*
%ADD10C,0.100000*%
G04 #@! TD*
G04 #@! TA.AperFunction,ComponentPad*
%ADD11C,1.524000*%
G04 #@! TD*
G04 #@! TA.AperFunction,ComponentPad*
%ADD12R,3.000000X3.000000*%
G04 #@! TD*
G04 #@! TA.AperFunction,ComponentPad*
%ADD13C,3.000000*%
G04 #@! TD*
G04 #@! TA.AperFunction,Conductor*
%ADD14C,0.254000*%
G04 #@! TD*
G04 APERTURE END LIST*
D10*
G04 #@! TO.N,GND*
G04 #@! TO.C,D1*
G36*
X37958145Y-30735835D02*
X37995129Y-30741321D01*
X38031398Y-30750406D01*
X38066602Y-30763002D01*
X38100402Y-30778988D01*
X38132472Y-30798210D01*
X38162504Y-30820483D01*
X38190208Y-30845592D01*
X38215317Y-30873296D01*
X38237590Y-30903328D01*
X38256812Y-30935398D01*
X38272798Y-30969198D01*
X38285394Y-31004402D01*
X38294479Y-31040671D01*
X38299965Y-31077655D01*
X38301800Y-31115000D01*
X38301800Y-31877000D01*
X38299965Y-31914345D01*
X38294479Y-31951329D01*
X38285394Y-31987598D01*
X38272798Y-32022802D01*
X38256812Y-32056602D01*
X38237590Y-32088672D01*
X38215317Y-32118704D01*
X38190208Y-32146408D01*
X38162504Y-32171517D01*
X38132472Y-32193790D01*
X38100402Y-32213012D01*
X38066602Y-32228998D01*
X38031398Y-32241594D01*
X37995129Y-32250679D01*
X37958145Y-32256165D01*
X37920800Y-32258000D01*
X37158800Y-32258000D01*
X37121455Y-32256165D01*
X37084471Y-32250679D01*
X37048202Y-32241594D01*
X37012998Y-32228998D01*
X36979198Y-32213012D01*
X36947128Y-32193790D01*
X36917096Y-32171517D01*
X36889392Y-32146408D01*
X36864283Y-32118704D01*
X36842010Y-32088672D01*
X36822788Y-32056602D01*
X36806802Y-32022802D01*
X36794206Y-31987598D01*
X36785121Y-31951329D01*
X36779635Y-31914345D01*
X36777800Y-31877000D01*
X36777800Y-31115000D01*
X36779635Y-31077655D01*
X36785121Y-31040671D01*
X36794206Y-31004402D01*
X36806802Y-30969198D01*
X36822788Y-30935398D01*
X36842010Y-30903328D01*
X36864283Y-30873296D01*
X36889392Y-30845592D01*
X36917096Y-30820483D01*
X36947128Y-30798210D01*
X36979198Y-30778988D01*
X37012998Y-30763002D01*
X37048202Y-30750406D01*
X37084471Y-30741321D01*
X37121455Y-30735835D01*
X37158800Y-30734000D01*
X37920800Y-30734000D01*
X37958145Y-30735835D01*
X37958145Y-30735835D01*
G37*
D11*
G04 #@! TD*
G04 #@! TO.P,D1,1*
G04 #@! TO.N,GND*
X37539800Y-31496000D03*
D10*
G04 #@! TO.N,Net-(D1-Pad2)*
G04 #@! TO.C,D1*
G36*
X40958145Y-30735835D02*
X40995129Y-30741321D01*
X41031398Y-30750406D01*
X41066602Y-30763002D01*
X41100402Y-30778988D01*
X41132472Y-30798210D01*
X41162504Y-30820483D01*
X41190208Y-30845592D01*
X41215317Y-30873296D01*
X41237590Y-30903328D01*
X41256812Y-30935398D01*
X41272798Y-30969198D01*
X41285394Y-31004402D01*
X41294479Y-31040671D01*
X41299965Y-31077655D01*
X41301800Y-31115000D01*
X41301800Y-31877000D01*
X41299965Y-31914345D01*
X41294479Y-31951329D01*
X41285394Y-31987598D01*
X41272798Y-32022802D01*
X41256812Y-32056602D01*
X41237590Y-32088672D01*
X41215317Y-32118704D01*
X41190208Y-32146408D01*
X41162504Y-32171517D01*
X41132472Y-32193790D01*
X41100402Y-32213012D01*
X41066602Y-32228998D01*
X41031398Y-32241594D01*
X40995129Y-32250679D01*
X40958145Y-32256165D01*
X40920800Y-32258000D01*
X40158800Y-32258000D01*
X40121455Y-32256165D01*
X40084471Y-32250679D01*
X40048202Y-32241594D01*
X40012998Y-32228998D01*
X39979198Y-32213012D01*
X39947128Y-32193790D01*
X39917096Y-32171517D01*
X39889392Y-32146408D01*
X39864283Y-32118704D01*
X39842010Y-32088672D01*
X39822788Y-32056602D01*
X39806802Y-32022802D01*
X39794206Y-31987598D01*
X39785121Y-31951329D01*
X39779635Y-31914345D01*
X39777800Y-31877000D01*
X39777800Y-31115000D01*
X39779635Y-31077655D01*
X39785121Y-31040671D01*
X39794206Y-31004402D01*
X39806802Y-30969198D01*
X39822788Y-30935398D01*
X39842010Y-30903328D01*
X39864283Y-30873296D01*
X39889392Y-30845592D01*
X39917096Y-30820483D01*
X39947128Y-30798210D01*
X39979198Y-30778988D01*
X40012998Y-30763002D01*
X40048202Y-30750406D01*
X40084471Y-30741321D01*
X40121455Y-30735835D01*
X40158800Y-30734000D01*
X40920800Y-30734000D01*
X40958145Y-30735835D01*
X40958145Y-30735835D01*
G37*
D11*
G04 #@! TD*
G04 #@! TO.P,D1,2*
G04 #@! TO.N,Net-(D1-Pad2)*
X40539800Y-31496000D03*
D10*
G04 #@! TO.N,GND*
G04 #@! TO.C,D2*
G36*
X30847545Y-30735835D02*
X30884529Y-30741321D01*
X30920798Y-30750406D01*
X30956002Y-30763002D01*
X30989802Y-30778988D01*
X31021872Y-30798210D01*
X31051904Y-30820483D01*
X31079608Y-30845592D01*
X31104717Y-30873296D01*
X31126990Y-30903328D01*
X31146212Y-30935398D01*
X31162198Y-30969198D01*
X31174794Y-31004402D01*
X31183879Y-31040671D01*
X31189365Y-31077655D01*
X31191200Y-31115000D01*
X31191200Y-31877000D01*
X31189365Y-31914345D01*
X31183879Y-31951329D01*
X31174794Y-31987598D01*
X31162198Y-32022802D01*
X31146212Y-32056602D01*
X31126990Y-32088672D01*
X31104717Y-32118704D01*
X31079608Y-32146408D01*
X31051904Y-32171517D01*
X31021872Y-32193790D01*
X30989802Y-32213012D01*
X30956002Y-32228998D01*
X30920798Y-32241594D01*
X30884529Y-32250679D01*
X30847545Y-32256165D01*
X30810200Y-32258000D01*
X30048200Y-32258000D01*
X30010855Y-32256165D01*
X29973871Y-32250679D01*
X29937602Y-32241594D01*
X29902398Y-32228998D01*
X29868598Y-32213012D01*
X29836528Y-32193790D01*
X29806496Y-32171517D01*
X29778792Y-32146408D01*
X29753683Y-32118704D01*
X29731410Y-32088672D01*
X29712188Y-32056602D01*
X29696202Y-32022802D01*
X29683606Y-31987598D01*
X29674521Y-31951329D01*
X29669035Y-31914345D01*
X29667200Y-31877000D01*
X29667200Y-31115000D01*
X29669035Y-31077655D01*
X29674521Y-31040671D01*
X29683606Y-31004402D01*
X29696202Y-30969198D01*
X29712188Y-30935398D01*
X29731410Y-30903328D01*
X29753683Y-30873296D01*
X29778792Y-30845592D01*
X29806496Y-30820483D01*
X29836528Y-30798210D01*
X29868598Y-30778988D01*
X29902398Y-30763002D01*
X29937602Y-30750406D01*
X29973871Y-30741321D01*
X30010855Y-30735835D01*
X30048200Y-30734000D01*
X30810200Y-30734000D01*
X30847545Y-30735835D01*
X30847545Y-30735835D01*
G37*
D11*
G04 #@! TD*
G04 #@! TO.P,D2,1*
G04 #@! TO.N,GND*
X30429200Y-31496000D03*
D10*
G04 #@! TO.N,Net-(D2-Pad2)*
G04 #@! TO.C,D2*
G36*
X33947545Y-30735835D02*
X33984529Y-30741321D01*
X34020798Y-30750406D01*
X34056002Y-30763002D01*
X34089802Y-30778988D01*
X34121872Y-30798210D01*
X34151904Y-30820483D01*
X34179608Y-30845592D01*
X34204717Y-30873296D01*
X34226990Y-30903328D01*
X34246212Y-30935398D01*
X34262198Y-30969198D01*
X34274794Y-31004402D01*
X34283879Y-31040671D01*
X34289365Y-31077655D01*
X34291200Y-31115000D01*
X34291200Y-31877000D01*
X34289365Y-31914345D01*
X34283879Y-31951329D01*
X34274794Y-31987598D01*
X34262198Y-32022802D01*
X34246212Y-32056602D01*
X34226990Y-32088672D01*
X34204717Y-32118704D01*
X34179608Y-32146408D01*
X34151904Y-32171517D01*
X34121872Y-32193790D01*
X34089802Y-32213012D01*
X34056002Y-32228998D01*
X34020798Y-32241594D01*
X33984529Y-32250679D01*
X33947545Y-32256165D01*
X33910200Y-32258000D01*
X33148200Y-32258000D01*
X33110855Y-32256165D01*
X33073871Y-32250679D01*
X33037602Y-32241594D01*
X33002398Y-32228998D01*
X32968598Y-32213012D01*
X32936528Y-32193790D01*
X32906496Y-32171517D01*
X32878792Y-32146408D01*
X32853683Y-32118704D01*
X32831410Y-32088672D01*
X32812188Y-32056602D01*
X32796202Y-32022802D01*
X32783606Y-31987598D01*
X32774521Y-31951329D01*
X32769035Y-31914345D01*
X32767200Y-31877000D01*
X32767200Y-31115000D01*
X32769035Y-31077655D01*
X32774521Y-31040671D01*
X32783606Y-31004402D01*
X32796202Y-30969198D01*
X32812188Y-30935398D01*
X32831410Y-30903328D01*
X32853683Y-30873296D01*
X32878792Y-30845592D01*
X32906496Y-30820483D01*
X32936528Y-30798210D01*
X32968598Y-30778988D01*
X33002398Y-30763002D01*
X33037602Y-30750406D01*
X33073871Y-30741321D01*
X33110855Y-30735835D01*
X33148200Y-30734000D01*
X33910200Y-30734000D01*
X33947545Y-30735835D01*
X33947545Y-30735835D01*
G37*
D11*
G04 #@! TD*
G04 #@! TO.P,D2,2*
G04 #@! TO.N,Net-(D2-Pad2)*
X33529200Y-31496000D03*
D10*
G04 #@! TO.N,GND*
G04 #@! TO.C,D3*
G36*
X30822145Y-36704835D02*
X30859129Y-36710321D01*
X30895398Y-36719406D01*
X30930602Y-36732002D01*
X30964402Y-36747988D01*
X30996472Y-36767210D01*
X31026504Y-36789483D01*
X31054208Y-36814592D01*
X31079317Y-36842296D01*
X31101590Y-36872328D01*
X31120812Y-36904398D01*
X31136798Y-36938198D01*
X31149394Y-36973402D01*
X31158479Y-37009671D01*
X31163965Y-37046655D01*
X31165800Y-37084000D01*
X31165800Y-37846000D01*
X31163965Y-37883345D01*
X31158479Y-37920329D01*
X31149394Y-37956598D01*
X31136798Y-37991802D01*
X31120812Y-38025602D01*
X31101590Y-38057672D01*
X31079317Y-38087704D01*
X31054208Y-38115408D01*
X31026504Y-38140517D01*
X30996472Y-38162790D01*
X30964402Y-38182012D01*
X30930602Y-38197998D01*
X30895398Y-38210594D01*
X30859129Y-38219679D01*
X30822145Y-38225165D01*
X30784800Y-38227000D01*
X30022800Y-38227000D01*
X29985455Y-38225165D01*
X29948471Y-38219679D01*
X29912202Y-38210594D01*
X29876998Y-38197998D01*
X29843198Y-38182012D01*
X29811128Y-38162790D01*
X29781096Y-38140517D01*
X29753392Y-38115408D01*
X29728283Y-38087704D01*
X29706010Y-38057672D01*
X29686788Y-38025602D01*
X29670802Y-37991802D01*
X29658206Y-37956598D01*
X29649121Y-37920329D01*
X29643635Y-37883345D01*
X29641800Y-37846000D01*
X29641800Y-37084000D01*
X29643635Y-37046655D01*
X29649121Y-37009671D01*
X29658206Y-36973402D01*
X29670802Y-36938198D01*
X29686788Y-36904398D01*
X29706010Y-36872328D01*
X29728283Y-36842296D01*
X29753392Y-36814592D01*
X29781096Y-36789483D01*
X29811128Y-36767210D01*
X29843198Y-36747988D01*
X29876998Y-36732002D01*
X29912202Y-36719406D01*
X29948471Y-36710321D01*
X29985455Y-36704835D01*
X30022800Y-36703000D01*
X30784800Y-36703000D01*
X30822145Y-36704835D01*
X30822145Y-36704835D01*
G37*
D11*
G04 #@! TD*
G04 #@! TO.P,D3,1*
G04 #@! TO.N,GND*
X30403800Y-37465000D03*
D10*
G04 #@! TO.N,Net-(D3-Pad2)*
G04 #@! TO.C,D3*
G36*
X34022145Y-36704835D02*
X34059129Y-36710321D01*
X34095398Y-36719406D01*
X34130602Y-36732002D01*
X34164402Y-36747988D01*
X34196472Y-36767210D01*
X34226504Y-36789483D01*
X34254208Y-36814592D01*
X34279317Y-36842296D01*
X34301590Y-36872328D01*
X34320812Y-36904398D01*
X34336798Y-36938198D01*
X34349394Y-36973402D01*
X34358479Y-37009671D01*
X34363965Y-37046655D01*
X34365800Y-37084000D01*
X34365800Y-37846000D01*
X34363965Y-37883345D01*
X34358479Y-37920329D01*
X34349394Y-37956598D01*
X34336798Y-37991802D01*
X34320812Y-38025602D01*
X34301590Y-38057672D01*
X34279317Y-38087704D01*
X34254208Y-38115408D01*
X34226504Y-38140517D01*
X34196472Y-38162790D01*
X34164402Y-38182012D01*
X34130602Y-38197998D01*
X34095398Y-38210594D01*
X34059129Y-38219679D01*
X34022145Y-38225165D01*
X33984800Y-38227000D01*
X33222800Y-38227000D01*
X33185455Y-38225165D01*
X33148471Y-38219679D01*
X33112202Y-38210594D01*
X33076998Y-38197998D01*
X33043198Y-38182012D01*
X33011128Y-38162790D01*
X32981096Y-38140517D01*
X32953392Y-38115408D01*
X32928283Y-38087704D01*
X32906010Y-38057672D01*
X32886788Y-38025602D01*
X32870802Y-37991802D01*
X32858206Y-37956598D01*
X32849121Y-37920329D01*
X32843635Y-37883345D01*
X32841800Y-37846000D01*
X32841800Y-37084000D01*
X32843635Y-37046655D01*
X32849121Y-37009671D01*
X32858206Y-36973402D01*
X32870802Y-36938198D01*
X32886788Y-36904398D01*
X32906010Y-36872328D01*
X32928283Y-36842296D01*
X32953392Y-36814592D01*
X32981096Y-36789483D01*
X33011128Y-36767210D01*
X33043198Y-36747988D01*
X33076998Y-36732002D01*
X33112202Y-36719406D01*
X33148471Y-36710321D01*
X33185455Y-36704835D01*
X33222800Y-36703000D01*
X33984800Y-36703000D01*
X34022145Y-36704835D01*
X34022145Y-36704835D01*
G37*
D11*
G04 #@! TD*
G04 #@! TO.P,D3,2*
G04 #@! TO.N,Net-(D3-Pad2)*
X33603800Y-37465000D03*
D10*
G04 #@! TO.N,GND*
G04 #@! TO.C,D4*
G36*
X38063145Y-36755635D02*
X38100129Y-36761121D01*
X38136398Y-36770206D01*
X38171602Y-36782802D01*
X38205402Y-36798788D01*
X38237472Y-36818010D01*
X38267504Y-36840283D01*
X38295208Y-36865392D01*
X38320317Y-36893096D01*
X38342590Y-36923128D01*
X38361812Y-36955198D01*
X38377798Y-36988998D01*
X38390394Y-37024202D01*
X38399479Y-37060471D01*
X38404965Y-37097455D01*
X38406800Y-37134800D01*
X38406800Y-37896800D01*
X38404965Y-37934145D01*
X38399479Y-37971129D01*
X38390394Y-38007398D01*
X38377798Y-38042602D01*
X38361812Y-38076402D01*
X38342590Y-38108472D01*
X38320317Y-38138504D01*
X38295208Y-38166208D01*
X38267504Y-38191317D01*
X38237472Y-38213590D01*
X38205402Y-38232812D01*
X38171602Y-38248798D01*
X38136398Y-38261394D01*
X38100129Y-38270479D01*
X38063145Y-38275965D01*
X38025800Y-38277800D01*
X37263800Y-38277800D01*
X37226455Y-38275965D01*
X37189471Y-38270479D01*
X37153202Y-38261394D01*
X37117998Y-38248798D01*
X37084198Y-38232812D01*
X37052128Y-38213590D01*
X37022096Y-38191317D01*
X36994392Y-38166208D01*
X36969283Y-38138504D01*
X36947010Y-38108472D01*
X36927788Y-38076402D01*
X36911802Y-38042602D01*
X36899206Y-38007398D01*
X36890121Y-37971129D01*
X36884635Y-37934145D01*
X36882800Y-37896800D01*
X36882800Y-37134800D01*
X36884635Y-37097455D01*
X36890121Y-37060471D01*
X36899206Y-37024202D01*
X36911802Y-36988998D01*
X36927788Y-36955198D01*
X36947010Y-36923128D01*
X36969283Y-36893096D01*
X36994392Y-36865392D01*
X37022096Y-36840283D01*
X37052128Y-36818010D01*
X37084198Y-36798788D01*
X37117998Y-36782802D01*
X37153202Y-36770206D01*
X37189471Y-36761121D01*
X37226455Y-36755635D01*
X37263800Y-36753800D01*
X38025800Y-36753800D01*
X38063145Y-36755635D01*
X38063145Y-36755635D01*
G37*
D11*
G04 #@! TD*
G04 #@! TO.P,D4,1*
G04 #@! TO.N,GND*
X37644800Y-37515800D03*
D10*
G04 #@! TO.N,Net-(D4-Pad2)*
G04 #@! TO.C,D4*
G36*
X41363145Y-36755635D02*
X41400129Y-36761121D01*
X41436398Y-36770206D01*
X41471602Y-36782802D01*
X41505402Y-36798788D01*
X41537472Y-36818010D01*
X41567504Y-36840283D01*
X41595208Y-36865392D01*
X41620317Y-36893096D01*
X41642590Y-36923128D01*
X41661812Y-36955198D01*
X41677798Y-36988998D01*
X41690394Y-37024202D01*
X41699479Y-37060471D01*
X41704965Y-37097455D01*
X41706800Y-37134800D01*
X41706800Y-37896800D01*
X41704965Y-37934145D01*
X41699479Y-37971129D01*
X41690394Y-38007398D01*
X41677798Y-38042602D01*
X41661812Y-38076402D01*
X41642590Y-38108472D01*
X41620317Y-38138504D01*
X41595208Y-38166208D01*
X41567504Y-38191317D01*
X41537472Y-38213590D01*
X41505402Y-38232812D01*
X41471602Y-38248798D01*
X41436398Y-38261394D01*
X41400129Y-38270479D01*
X41363145Y-38275965D01*
X41325800Y-38277800D01*
X40563800Y-38277800D01*
X40526455Y-38275965D01*
X40489471Y-38270479D01*
X40453202Y-38261394D01*
X40417998Y-38248798D01*
X40384198Y-38232812D01*
X40352128Y-38213590D01*
X40322096Y-38191317D01*
X40294392Y-38166208D01*
X40269283Y-38138504D01*
X40247010Y-38108472D01*
X40227788Y-38076402D01*
X40211802Y-38042602D01*
X40199206Y-38007398D01*
X40190121Y-37971129D01*
X40184635Y-37934145D01*
X40182800Y-37896800D01*
X40182800Y-37134800D01*
X40184635Y-37097455D01*
X40190121Y-37060471D01*
X40199206Y-37024202D01*
X40211802Y-36988998D01*
X40227788Y-36955198D01*
X40247010Y-36923128D01*
X40269283Y-36893096D01*
X40294392Y-36865392D01*
X40322096Y-36840283D01*
X40352128Y-36818010D01*
X40384198Y-36798788D01*
X40417998Y-36782802D01*
X40453202Y-36770206D01*
X40489471Y-36761121D01*
X40526455Y-36755635D01*
X40563800Y-36753800D01*
X41325800Y-36753800D01*
X41363145Y-36755635D01*
X41363145Y-36755635D01*
G37*
D11*
G04 #@! TD*
G04 #@! TO.P,D4,2*
G04 #@! TO.N,Net-(D4-Pad2)*
X40944800Y-37515800D03*
D10*
G04 #@! TO.N,GND*
G04 #@! TO.C,D5*
G36*
X45350945Y-36755635D02*
X45387929Y-36761121D01*
X45424198Y-36770206D01*
X45459402Y-36782802D01*
X45493202Y-36798788D01*
X45525272Y-36818010D01*
X45555304Y-36840283D01*
X45583008Y-36865392D01*
X45608117Y-36893096D01*
X45630390Y-36923128D01*
X45649612Y-36955198D01*
X45665598Y-36988998D01*
X45678194Y-37024202D01*
X45687279Y-37060471D01*
X45692765Y-37097455D01*
X45694600Y-37134800D01*
X45694600Y-37896800D01*
X45692765Y-37934145D01*
X45687279Y-37971129D01*
X45678194Y-38007398D01*
X45665598Y-38042602D01*
X45649612Y-38076402D01*
X45630390Y-38108472D01*
X45608117Y-38138504D01*
X45583008Y-38166208D01*
X45555304Y-38191317D01*
X45525272Y-38213590D01*
X45493202Y-38232812D01*
X45459402Y-38248798D01*
X45424198Y-38261394D01*
X45387929Y-38270479D01*
X45350945Y-38275965D01*
X45313600Y-38277800D01*
X44551600Y-38277800D01*
X44514255Y-38275965D01*
X44477271Y-38270479D01*
X44441002Y-38261394D01*
X44405798Y-38248798D01*
X44371998Y-38232812D01*
X44339928Y-38213590D01*
X44309896Y-38191317D01*
X44282192Y-38166208D01*
X44257083Y-38138504D01*
X44234810Y-38108472D01*
X44215588Y-38076402D01*
X44199602Y-38042602D01*
X44187006Y-38007398D01*
X44177921Y-37971129D01*
X44172435Y-37934145D01*
X44170600Y-37896800D01*
X44170600Y-37134800D01*
X44172435Y-37097455D01*
X44177921Y-37060471D01*
X44187006Y-37024202D01*
X44199602Y-36988998D01*
X44215588Y-36955198D01*
X44234810Y-36923128D01*
X44257083Y-36893096D01*
X44282192Y-36865392D01*
X44309896Y-36840283D01*
X44339928Y-36818010D01*
X44371998Y-36798788D01*
X44405798Y-36782802D01*
X44441002Y-36770206D01*
X44477271Y-36761121D01*
X44514255Y-36755635D01*
X44551600Y-36753800D01*
X45313600Y-36753800D01*
X45350945Y-36755635D01*
X45350945Y-36755635D01*
G37*
D11*
G04 #@! TD*
G04 #@! TO.P,D5,1*
G04 #@! TO.N,GND*
X44932600Y-37515800D03*
D10*
G04 #@! TO.N,Net-(D5-Pad2)*
G04 #@! TO.C,D5*
G36*
X48750945Y-36755635D02*
X48787929Y-36761121D01*
X48824198Y-36770206D01*
X48859402Y-36782802D01*
X48893202Y-36798788D01*
X48925272Y-36818010D01*
X48955304Y-36840283D01*
X48983008Y-36865392D01*
X49008117Y-36893096D01*
X49030390Y-36923128D01*
X49049612Y-36955198D01*
X49065598Y-36988998D01*
X49078194Y-37024202D01*
X49087279Y-37060471D01*
X49092765Y-37097455D01*
X49094600Y-37134800D01*
X49094600Y-37896800D01*
X49092765Y-37934145D01*
X49087279Y-37971129D01*
X49078194Y-38007398D01*
X49065598Y-38042602D01*
X49049612Y-38076402D01*
X49030390Y-38108472D01*
X49008117Y-38138504D01*
X48983008Y-38166208D01*
X48955304Y-38191317D01*
X48925272Y-38213590D01*
X48893202Y-38232812D01*
X48859402Y-38248798D01*
X48824198Y-38261394D01*
X48787929Y-38270479D01*
X48750945Y-38275965D01*
X48713600Y-38277800D01*
X47951600Y-38277800D01*
X47914255Y-38275965D01*
X47877271Y-38270479D01*
X47841002Y-38261394D01*
X47805798Y-38248798D01*
X47771998Y-38232812D01*
X47739928Y-38213590D01*
X47709896Y-38191317D01*
X47682192Y-38166208D01*
X47657083Y-38138504D01*
X47634810Y-38108472D01*
X47615588Y-38076402D01*
X47599602Y-38042602D01*
X47587006Y-38007398D01*
X47577921Y-37971129D01*
X47572435Y-37934145D01*
X47570600Y-37896800D01*
X47570600Y-37134800D01*
X47572435Y-37097455D01*
X47577921Y-37060471D01*
X47587006Y-37024202D01*
X47599602Y-36988998D01*
X47615588Y-36955198D01*
X47634810Y-36923128D01*
X47657083Y-36893096D01*
X47682192Y-36865392D01*
X47709896Y-36840283D01*
X47739928Y-36818010D01*
X47771998Y-36798788D01*
X47805798Y-36782802D01*
X47841002Y-36770206D01*
X47877271Y-36761121D01*
X47914255Y-36755635D01*
X47951600Y-36753800D01*
X48713600Y-36753800D01*
X48750945Y-36755635D01*
X48750945Y-36755635D01*
G37*
D11*
G04 #@! TD*
G04 #@! TO.P,D5,2*
G04 #@! TO.N,Net-(D5-Pad2)*
X48332600Y-37515800D03*
D10*
G04 #@! TO.N,GND*
G04 #@! TO.C,D6*
G36*
X44944545Y-30761235D02*
X44981529Y-30766721D01*
X45017798Y-30775806D01*
X45053002Y-30788402D01*
X45086802Y-30804388D01*
X45118872Y-30823610D01*
X45148904Y-30845883D01*
X45176608Y-30870992D01*
X45201717Y-30898696D01*
X45223990Y-30928728D01*
X45243212Y-30960798D01*
X45259198Y-30994598D01*
X45271794Y-31029802D01*
X45280879Y-31066071D01*
X45286365Y-31103055D01*
X45288200Y-31140400D01*
X45288200Y-31902400D01*
X45286365Y-31939745D01*
X45280879Y-31976729D01*
X45271794Y-32012998D01*
X45259198Y-32048202D01*
X45243212Y-32082002D01*
X45223990Y-32114072D01*
X45201717Y-32144104D01*
X45176608Y-32171808D01*
X45148904Y-32196917D01*
X45118872Y-32219190D01*
X45086802Y-32238412D01*
X45053002Y-32254398D01*
X45017798Y-32266994D01*
X44981529Y-32276079D01*
X44944545Y-32281565D01*
X44907200Y-32283400D01*
X44145200Y-32283400D01*
X44107855Y-32281565D01*
X44070871Y-32276079D01*
X44034602Y-32266994D01*
X43999398Y-32254398D01*
X43965598Y-32238412D01*
X43933528Y-32219190D01*
X43903496Y-32196917D01*
X43875792Y-32171808D01*
X43850683Y-32144104D01*
X43828410Y-32114072D01*
X43809188Y-32082002D01*
X43793202Y-32048202D01*
X43780606Y-32012998D01*
X43771521Y-31976729D01*
X43766035Y-31939745D01*
X43764200Y-31902400D01*
X43764200Y-31140400D01*
X43766035Y-31103055D01*
X43771521Y-31066071D01*
X43780606Y-31029802D01*
X43793202Y-30994598D01*
X43809188Y-30960798D01*
X43828410Y-30928728D01*
X43850683Y-30898696D01*
X43875792Y-30870992D01*
X43903496Y-30845883D01*
X43933528Y-30823610D01*
X43965598Y-30804388D01*
X43999398Y-30788402D01*
X44034602Y-30775806D01*
X44070871Y-30766721D01*
X44107855Y-30761235D01*
X44145200Y-30759400D01*
X44907200Y-30759400D01*
X44944545Y-30761235D01*
X44944545Y-30761235D01*
G37*
D11*
G04 #@! TD*
G04 #@! TO.P,D6,1*
G04 #@! TO.N,GND*
X44526200Y-31521400D03*
D10*
G04 #@! TO.N,Net-(D6-Pad2)*
G04 #@! TO.C,D6*
G36*
X48444545Y-30761235D02*
X48481529Y-30766721D01*
X48517798Y-30775806D01*
X48553002Y-30788402D01*
X48586802Y-30804388D01*
X48618872Y-30823610D01*
X48648904Y-30845883D01*
X48676608Y-30870992D01*
X48701717Y-30898696D01*
X48723990Y-30928728D01*
X48743212Y-30960798D01*
X48759198Y-30994598D01*
X48771794Y-31029802D01*
X48780879Y-31066071D01*
X48786365Y-31103055D01*
X48788200Y-31140400D01*
X48788200Y-31902400D01*
X48786365Y-31939745D01*
X48780879Y-31976729D01*
X48771794Y-32012998D01*
X48759198Y-32048202D01*
X48743212Y-32082002D01*
X48723990Y-32114072D01*
X48701717Y-32144104D01*
X48676608Y-32171808D01*
X48648904Y-32196917D01*
X48618872Y-32219190D01*
X48586802Y-32238412D01*
X48553002Y-32254398D01*
X48517798Y-32266994D01*
X48481529Y-32276079D01*
X48444545Y-32281565D01*
X48407200Y-32283400D01*
X47645200Y-32283400D01*
X47607855Y-32281565D01*
X47570871Y-32276079D01*
X47534602Y-32266994D01*
X47499398Y-32254398D01*
X47465598Y-32238412D01*
X47433528Y-32219190D01*
X47403496Y-32196917D01*
X47375792Y-32171808D01*
X47350683Y-32144104D01*
X47328410Y-32114072D01*
X47309188Y-32082002D01*
X47293202Y-32048202D01*
X47280606Y-32012998D01*
X47271521Y-31976729D01*
X47266035Y-31939745D01*
X47264200Y-31902400D01*
X47264200Y-31140400D01*
X47266035Y-31103055D01*
X47271521Y-31066071D01*
X47280606Y-31029802D01*
X47293202Y-30994598D01*
X47309188Y-30960798D01*
X47328410Y-30928728D01*
X47350683Y-30898696D01*
X47375792Y-30870992D01*
X47403496Y-30845883D01*
X47433528Y-30823610D01*
X47465598Y-30804388D01*
X47499398Y-30788402D01*
X47534602Y-30775806D01*
X47570871Y-30766721D01*
X47607855Y-30761235D01*
X47645200Y-30759400D01*
X48407200Y-30759400D01*
X48444545Y-30761235D01*
X48444545Y-30761235D01*
G37*
D11*
G04 #@! TD*
G04 #@! TO.P,D6,2*
G04 #@! TO.N,Net-(D6-Pad2)*
X48026200Y-31521400D03*
D12*
G04 #@! TO.P,J1,1*
G04 #@! TO.N,GND*
X42316400Y-15570200D03*
D13*
G04 #@! TO.P,J1,2*
G04 #@! TO.N,Net-(J1-Pad2)*
X37236400Y-15570200D03*
G04 #@! TD*
D14*
G04 #@! TO.N,GND*
G36*
X50756400Y-40836400D02*
X27126400Y-40836400D01*
X27126400Y-36576691D01*
X29006800Y-36576691D01*
X29006800Y-37179250D01*
X29165550Y-37338000D01*
X29756201Y-37338000D01*
X29756201Y-37453933D01*
X29742781Y-37521400D01*
X29756824Y-37592000D01*
X29165550Y-37592000D01*
X29006800Y-37750750D01*
X29006800Y-38353309D01*
X29103473Y-38586698D01*
X29282101Y-38765327D01*
X29515490Y-38862000D01*
X30118050Y-38862000D01*
X30276800Y-38703250D01*
X30276800Y-38187118D01*
X30373738Y-38206400D01*
X30373739Y-38206400D01*
X30441200Y-38219819D01*
X30508662Y-38206400D01*
X30530800Y-38206400D01*
X30530800Y-38703250D01*
X30689550Y-38862000D01*
X31292110Y-38862000D01*
X31525499Y-38765327D01*
X31704127Y-38586698D01*
X31800800Y-38353309D01*
X31800800Y-38206400D01*
X32266048Y-38206400D01*
X32272645Y-38239567D01*
X32495583Y-38573217D01*
X32829233Y-38796155D01*
X33222800Y-38874440D01*
X33984800Y-38874440D01*
X34378367Y-38796155D01*
X34712017Y-38573217D01*
X34934955Y-38239567D01*
X35013240Y-37846000D01*
X35013240Y-37084000D01*
X34934955Y-36690433D01*
X34892899Y-36627491D01*
X36247800Y-36627491D01*
X36247800Y-37230050D01*
X36406550Y-37388800D01*
X36956201Y-37388800D01*
X36956201Y-37453933D01*
X36942781Y-37521400D01*
X36966929Y-37642800D01*
X36406550Y-37642800D01*
X36247800Y-37801550D01*
X36247800Y-38404109D01*
X36344473Y-38637498D01*
X36523101Y-38816127D01*
X36756490Y-38912800D01*
X37359050Y-38912800D01*
X37517800Y-38754050D01*
X37517800Y-38195273D01*
X37573738Y-38206400D01*
X37573739Y-38206400D01*
X37641200Y-38219819D01*
X37708662Y-38206400D01*
X37771800Y-38206400D01*
X37771800Y-38754050D01*
X37930550Y-38912800D01*
X38533110Y-38912800D01*
X38766499Y-38816127D01*
X38945127Y-38637498D01*
X39041800Y-38404109D01*
X39041800Y-38206400D01*
X39596943Y-38206400D01*
X39613645Y-38290367D01*
X39836583Y-38624017D01*
X40170233Y-38846955D01*
X40563800Y-38925240D01*
X41325800Y-38925240D01*
X41719367Y-38846955D01*
X42053017Y-38624017D01*
X42275955Y-38290367D01*
X42354240Y-37896800D01*
X42354240Y-37134800D01*
X42275955Y-36741233D01*
X42199955Y-36627491D01*
X43535600Y-36627491D01*
X43535600Y-37230050D01*
X43694350Y-37388800D01*
X44256201Y-37388800D01*
X44256201Y-37453933D01*
X44242781Y-37521400D01*
X44266929Y-37642800D01*
X43694350Y-37642800D01*
X43535600Y-37801550D01*
X43535600Y-38404109D01*
X43632273Y-38637498D01*
X43810901Y-38816127D01*
X44044290Y-38912800D01*
X44646850Y-38912800D01*
X44805600Y-38754050D01*
X44805600Y-38192846D01*
X44873738Y-38206400D01*
X44873739Y-38206400D01*
X44941200Y-38219819D01*
X45008662Y-38206400D01*
X45059600Y-38206400D01*
X45059600Y-38754050D01*
X45218350Y-38912800D01*
X45820910Y-38912800D01*
X46054299Y-38816127D01*
X46232927Y-38637498D01*
X46329600Y-38404109D01*
X46329600Y-38206400D01*
X46984743Y-38206400D01*
X47001445Y-38290367D01*
X47224383Y-38624017D01*
X47558033Y-38846955D01*
X47951600Y-38925240D01*
X48713600Y-38925240D01*
X49107167Y-38846955D01*
X49440817Y-38624017D01*
X49663755Y-38290367D01*
X49742040Y-37896800D01*
X49742040Y-37134800D01*
X49663755Y-36741233D01*
X49440817Y-36407583D01*
X49107167Y-36184645D01*
X49026200Y-36168540D01*
X49026200Y-34188862D01*
X49039619Y-34121400D01*
X48986455Y-33854127D01*
X48835057Y-33627543D01*
X48608473Y-33476145D01*
X48408662Y-33436400D01*
X48341200Y-33422981D01*
X48273739Y-33436400D01*
X45008661Y-33436400D01*
X44941200Y-33422981D01*
X44873738Y-33436400D01*
X44673927Y-33476145D01*
X44447343Y-33627543D01*
X44295945Y-33854127D01*
X44242781Y-34121400D01*
X44256200Y-34188862D01*
X44256201Y-36118800D01*
X44044290Y-36118800D01*
X43810901Y-36215473D01*
X43632273Y-36394102D01*
X43535600Y-36627491D01*
X42199955Y-36627491D01*
X42053017Y-36407583D01*
X41719367Y-36184645D01*
X41626200Y-36166113D01*
X41626200Y-34288862D01*
X41639619Y-34221400D01*
X41586455Y-33954127D01*
X41435057Y-33727543D01*
X41208473Y-33576145D01*
X41008662Y-33536400D01*
X40941200Y-33522981D01*
X40873739Y-33536400D01*
X37708661Y-33536400D01*
X37641200Y-33522981D01*
X37573738Y-33536400D01*
X37373927Y-33576145D01*
X37147343Y-33727543D01*
X36995945Y-33954127D01*
X36942781Y-34221400D01*
X36956200Y-34288862D01*
X36956201Y-36118800D01*
X36756490Y-36118800D01*
X36523101Y-36215473D01*
X36344473Y-36394102D01*
X36247800Y-36627491D01*
X34892899Y-36627491D01*
X34712017Y-36356783D01*
X34378367Y-36133845D01*
X34326200Y-36123468D01*
X34326200Y-34388862D01*
X34339619Y-34321400D01*
X34286455Y-34054127D01*
X34135057Y-33827543D01*
X33908473Y-33676145D01*
X33708662Y-33636400D01*
X33641200Y-33622981D01*
X33573739Y-33636400D01*
X30508661Y-33636400D01*
X30441200Y-33622981D01*
X30373738Y-33636400D01*
X30173927Y-33676145D01*
X29947343Y-33827543D01*
X29795945Y-34054127D01*
X29742781Y-34321400D01*
X29756200Y-34388862D01*
X29756201Y-36068000D01*
X29515490Y-36068000D01*
X29282101Y-36164673D01*
X29103473Y-36343302D01*
X29006800Y-36576691D01*
X27126400Y-36576691D01*
X27126400Y-30607691D01*
X29032200Y-30607691D01*
X29032200Y-31210250D01*
X29190950Y-31369000D01*
X29756201Y-31369000D01*
X29756201Y-31453933D01*
X29742781Y-31521400D01*
X29762991Y-31623000D01*
X29190950Y-31623000D01*
X29032200Y-31781750D01*
X29032200Y-32384309D01*
X29128873Y-32617698D01*
X29307501Y-32796327D01*
X29540890Y-32893000D01*
X30143450Y-32893000D01*
X30302200Y-32734250D01*
X30302200Y-32192170D01*
X30373738Y-32206400D01*
X30373739Y-32206400D01*
X30441200Y-32219819D01*
X30508662Y-32206400D01*
X30556200Y-32206400D01*
X30556200Y-32734250D01*
X30714950Y-32893000D01*
X31317510Y-32893000D01*
X31550899Y-32796327D01*
X31729527Y-32617698D01*
X31826200Y-32384309D01*
X31826200Y-32206400D01*
X32185281Y-32206400D01*
X32198045Y-32270567D01*
X32420983Y-32604217D01*
X32754633Y-32827155D01*
X33148200Y-32905440D01*
X33910200Y-32905440D01*
X34303767Y-32827155D01*
X34637417Y-32604217D01*
X34860355Y-32270567D01*
X34938640Y-31877000D01*
X34938640Y-31115000D01*
X34860355Y-30721433D01*
X34784355Y-30607691D01*
X36142800Y-30607691D01*
X36142800Y-31210250D01*
X36301550Y-31369000D01*
X36856201Y-31369000D01*
X36856201Y-31453933D01*
X36842781Y-31521400D01*
X36862991Y-31623000D01*
X36301550Y-31623000D01*
X36142800Y-31781750D01*
X36142800Y-32384309D01*
X36239473Y-32617698D01*
X36418101Y-32796327D01*
X36651490Y-32893000D01*
X37254050Y-32893000D01*
X37412800Y-32734250D01*
X37412800Y-32194279D01*
X37473738Y-32206400D01*
X37473739Y-32206400D01*
X37541200Y-32219819D01*
X37608662Y-32206400D01*
X37666800Y-32206400D01*
X37666800Y-32734250D01*
X37825550Y-32893000D01*
X38428110Y-32893000D01*
X38661499Y-32796327D01*
X38840127Y-32617698D01*
X38936800Y-32384309D01*
X38936800Y-32206400D01*
X39195881Y-32206400D01*
X39208645Y-32270567D01*
X39431583Y-32604217D01*
X39765233Y-32827155D01*
X40158800Y-32905440D01*
X40920800Y-32905440D01*
X41314367Y-32827155D01*
X41648017Y-32604217D01*
X41870955Y-32270567D01*
X41949240Y-31877000D01*
X41949240Y-31115000D01*
X41870955Y-30721433D01*
X41811927Y-30633091D01*
X43129200Y-30633091D01*
X43129200Y-31235650D01*
X43287950Y-31394400D01*
X43856201Y-31394400D01*
X43856201Y-31453933D01*
X43842781Y-31521400D01*
X43868043Y-31648400D01*
X43287950Y-31648400D01*
X43129200Y-31807150D01*
X43129200Y-32409709D01*
X43225873Y-32643098D01*
X43404501Y-32821727D01*
X43637890Y-32918400D01*
X44240450Y-32918400D01*
X44399200Y-32759650D01*
X44399200Y-32191573D01*
X44473738Y-32206400D01*
X44473739Y-32206400D01*
X44541200Y-32219819D01*
X44608662Y-32206400D01*
X44653200Y-32206400D01*
X44653200Y-32759650D01*
X44811950Y-32918400D01*
X45414510Y-32918400D01*
X45647899Y-32821727D01*
X45826527Y-32643098D01*
X45923200Y-32409709D01*
X45923200Y-32206400D01*
X46677229Y-32206400D01*
X46695045Y-32295967D01*
X46917983Y-32629617D01*
X47251633Y-32852555D01*
X47645200Y-32930840D01*
X48407200Y-32930840D01*
X48800767Y-32852555D01*
X49134417Y-32629617D01*
X49357355Y-32295967D01*
X49435640Y-31902400D01*
X49435640Y-31140400D01*
X49357355Y-30746833D01*
X49134417Y-30413183D01*
X48800767Y-30190245D01*
X48726200Y-30175413D01*
X48726200Y-28088862D01*
X48739619Y-28021400D01*
X48686455Y-27754127D01*
X48535057Y-27527543D01*
X48308473Y-27376145D01*
X48108662Y-27336400D01*
X48041200Y-27322981D01*
X47973739Y-27336400D01*
X44608661Y-27336400D01*
X44541200Y-27322981D01*
X44473738Y-27336400D01*
X44273927Y-27376145D01*
X44047343Y-27527543D01*
X43895945Y-27754127D01*
X43842781Y-28021400D01*
X43856200Y-28088862D01*
X43856201Y-30124400D01*
X43637890Y-30124400D01*
X43404501Y-30221073D01*
X43225873Y-30399702D01*
X43129200Y-30633091D01*
X41811927Y-30633091D01*
X41648017Y-30387783D01*
X41314367Y-30164845D01*
X41226200Y-30147308D01*
X41226200Y-28588862D01*
X41239619Y-28521400D01*
X41186455Y-28254127D01*
X41035057Y-28027543D01*
X40808473Y-27876145D01*
X40608662Y-27836400D01*
X40541200Y-27822981D01*
X40473739Y-27836400D01*
X37608661Y-27836400D01*
X37541200Y-27822981D01*
X37473738Y-27836400D01*
X37273927Y-27876145D01*
X37047343Y-28027543D01*
X36895945Y-28254127D01*
X36842781Y-28521400D01*
X36856200Y-28588862D01*
X36856201Y-30099000D01*
X36651490Y-30099000D01*
X36418101Y-30195673D01*
X36239473Y-30374302D01*
X36142800Y-30607691D01*
X34784355Y-30607691D01*
X34637417Y-30387783D01*
X34303767Y-30164845D01*
X34226200Y-30149416D01*
X34226200Y-28488862D01*
X34239619Y-28421400D01*
X34186455Y-28154127D01*
X34035057Y-27927543D01*
X33808473Y-27776145D01*
X33608662Y-27736400D01*
X33541200Y-27722981D01*
X33473739Y-27736400D01*
X30508661Y-27736400D01*
X30441200Y-27722981D01*
X30373738Y-27736400D01*
X30173927Y-27776145D01*
X29947343Y-27927543D01*
X29795945Y-28154127D01*
X29742781Y-28421400D01*
X29756200Y-28488862D01*
X29756201Y-30099000D01*
X29540890Y-30099000D01*
X29307501Y-30195673D01*
X29128873Y-30374302D01*
X29032200Y-30607691D01*
X27126400Y-30607691D01*
X27126400Y-15145522D01*
X35101400Y-15145522D01*
X35101400Y-15994878D01*
X35426434Y-16779580D01*
X36027020Y-17380166D01*
X36811722Y-17705200D01*
X37661078Y-17705200D01*
X38445780Y-17380166D01*
X39046366Y-16779580D01*
X39371400Y-15994878D01*
X39371400Y-15855950D01*
X40181400Y-15855950D01*
X40181400Y-17196510D01*
X40278073Y-17429899D01*
X40456702Y-17608527D01*
X40690091Y-17705200D01*
X42030650Y-17705200D01*
X42189400Y-17546450D01*
X42189400Y-15697200D01*
X42443400Y-15697200D01*
X42443400Y-17546450D01*
X42602150Y-17705200D01*
X43942709Y-17705200D01*
X44176098Y-17608527D01*
X44354727Y-17429899D01*
X44451400Y-17196510D01*
X44451400Y-15855950D01*
X44292650Y-15697200D01*
X42443400Y-15697200D01*
X42189400Y-15697200D01*
X40340150Y-15697200D01*
X40181400Y-15855950D01*
X39371400Y-15855950D01*
X39371400Y-15145522D01*
X39046366Y-14360820D01*
X38629436Y-13943890D01*
X40181400Y-13943890D01*
X40181400Y-15284450D01*
X40340150Y-15443200D01*
X42189400Y-15443200D01*
X42189400Y-13593950D01*
X42443400Y-13593950D01*
X42443400Y-15443200D01*
X44292650Y-15443200D01*
X44451400Y-15284450D01*
X44451400Y-13943890D01*
X44354727Y-13710501D01*
X44176098Y-13531873D01*
X43942709Y-13435200D01*
X42602150Y-13435200D01*
X42443400Y-13593950D01*
X42189400Y-13593950D01*
X42030650Y-13435200D01*
X40690091Y-13435200D01*
X40456702Y-13531873D01*
X40278073Y-13710501D01*
X40181400Y-13943890D01*
X38629436Y-13943890D01*
X38445780Y-13760234D01*
X37661078Y-13435200D01*
X36811722Y-13435200D01*
X36027020Y-13760234D01*
X35426434Y-14360820D01*
X35101400Y-15145522D01*
X27126400Y-15145522D01*
X27126400Y-12214000D01*
X50756401Y-12214000D01*
X50756400Y-40836400D01*
X50756400Y-40836400D01*
G37*
X50756400Y-40836400D02*
X27126400Y-40836400D01*
X27126400Y-36576691D01*
X29006800Y-36576691D01*
X29006800Y-37179250D01*
X29165550Y-37338000D01*
X29756201Y-37338000D01*
X29756201Y-37453933D01*
X29742781Y-37521400D01*
X29756824Y-37592000D01*
X29165550Y-37592000D01*
X29006800Y-37750750D01*
X29006800Y-38353309D01*
X29103473Y-38586698D01*
X29282101Y-38765327D01*
X29515490Y-38862000D01*
X30118050Y-38862000D01*
X30276800Y-38703250D01*
X30276800Y-38187118D01*
X30373738Y-38206400D01*
X30373739Y-38206400D01*
X30441200Y-38219819D01*
X30508662Y-38206400D01*
X30530800Y-38206400D01*
X30530800Y-38703250D01*
X30689550Y-38862000D01*
X31292110Y-38862000D01*
X31525499Y-38765327D01*
X31704127Y-38586698D01*
X31800800Y-38353309D01*
X31800800Y-38206400D01*
X32266048Y-38206400D01*
X32272645Y-38239567D01*
X32495583Y-38573217D01*
X32829233Y-38796155D01*
X33222800Y-38874440D01*
X33984800Y-38874440D01*
X34378367Y-38796155D01*
X34712017Y-38573217D01*
X34934955Y-38239567D01*
X35013240Y-37846000D01*
X35013240Y-37084000D01*
X34934955Y-36690433D01*
X34892899Y-36627491D01*
X36247800Y-36627491D01*
X36247800Y-37230050D01*
X36406550Y-37388800D01*
X36956201Y-37388800D01*
X36956201Y-37453933D01*
X36942781Y-37521400D01*
X36966929Y-37642800D01*
X36406550Y-37642800D01*
X36247800Y-37801550D01*
X36247800Y-38404109D01*
X36344473Y-38637498D01*
X36523101Y-38816127D01*
X36756490Y-38912800D01*
X37359050Y-38912800D01*
X37517800Y-38754050D01*
X37517800Y-38195273D01*
X37573738Y-38206400D01*
X37573739Y-38206400D01*
X37641200Y-38219819D01*
X37708662Y-38206400D01*
X37771800Y-38206400D01*
X37771800Y-38754050D01*
X37930550Y-38912800D01*
X38533110Y-38912800D01*
X38766499Y-38816127D01*
X38945127Y-38637498D01*
X39041800Y-38404109D01*
X39041800Y-38206400D01*
X39596943Y-38206400D01*
X39613645Y-38290367D01*
X39836583Y-38624017D01*
X40170233Y-38846955D01*
X40563800Y-38925240D01*
X41325800Y-38925240D01*
X41719367Y-38846955D01*
X42053017Y-38624017D01*
X42275955Y-38290367D01*
X42354240Y-37896800D01*
X42354240Y-37134800D01*
X42275955Y-36741233D01*
X42199955Y-36627491D01*
X43535600Y-36627491D01*
X43535600Y-37230050D01*
X43694350Y-37388800D01*
X44256201Y-37388800D01*
X44256201Y-37453933D01*
X44242781Y-37521400D01*
X44266929Y-37642800D01*
X43694350Y-37642800D01*
X43535600Y-37801550D01*
X43535600Y-38404109D01*
X43632273Y-38637498D01*
X43810901Y-38816127D01*
X44044290Y-38912800D01*
X44646850Y-38912800D01*
X44805600Y-38754050D01*
X44805600Y-38192846D01*
X44873738Y-38206400D01*
X44873739Y-38206400D01*
X44941200Y-38219819D01*
X45008662Y-38206400D01*
X45059600Y-38206400D01*
X45059600Y-38754050D01*
X45218350Y-38912800D01*
X45820910Y-38912800D01*
X46054299Y-38816127D01*
X46232927Y-38637498D01*
X46329600Y-38404109D01*
X46329600Y-38206400D01*
X46984743Y-38206400D01*
X47001445Y-38290367D01*
X47224383Y-38624017D01*
X47558033Y-38846955D01*
X47951600Y-38925240D01*
X48713600Y-38925240D01*
X49107167Y-38846955D01*
X49440817Y-38624017D01*
X49663755Y-38290367D01*
X49742040Y-37896800D01*
X49742040Y-37134800D01*
X49663755Y-36741233D01*
X49440817Y-36407583D01*
X49107167Y-36184645D01*
X49026200Y-36168540D01*
X49026200Y-34188862D01*
X49039619Y-34121400D01*
X48986455Y-33854127D01*
X48835057Y-33627543D01*
X48608473Y-33476145D01*
X48408662Y-33436400D01*
X48341200Y-33422981D01*
X48273739Y-33436400D01*
X45008661Y-33436400D01*
X44941200Y-33422981D01*
X44873738Y-33436400D01*
X44673927Y-33476145D01*
X44447343Y-33627543D01*
X44295945Y-33854127D01*
X44242781Y-34121400D01*
X44256200Y-34188862D01*
X44256201Y-36118800D01*
X44044290Y-36118800D01*
X43810901Y-36215473D01*
X43632273Y-36394102D01*
X43535600Y-36627491D01*
X42199955Y-36627491D01*
X42053017Y-36407583D01*
X41719367Y-36184645D01*
X41626200Y-36166113D01*
X41626200Y-34288862D01*
X41639619Y-34221400D01*
X41586455Y-33954127D01*
X41435057Y-33727543D01*
X41208473Y-33576145D01*
X41008662Y-33536400D01*
X40941200Y-33522981D01*
X40873739Y-33536400D01*
X37708661Y-33536400D01*
X37641200Y-33522981D01*
X37573738Y-33536400D01*
X37373927Y-33576145D01*
X37147343Y-33727543D01*
X36995945Y-33954127D01*
X36942781Y-34221400D01*
X36956200Y-34288862D01*
X36956201Y-36118800D01*
X36756490Y-36118800D01*
X36523101Y-36215473D01*
X36344473Y-36394102D01*
X36247800Y-36627491D01*
X34892899Y-36627491D01*
X34712017Y-36356783D01*
X34378367Y-36133845D01*
X34326200Y-36123468D01*
X34326200Y-34388862D01*
X34339619Y-34321400D01*
X34286455Y-34054127D01*
X34135057Y-33827543D01*
X33908473Y-33676145D01*
X33708662Y-33636400D01*
X33641200Y-33622981D01*
X33573739Y-33636400D01*
X30508661Y-33636400D01*
X30441200Y-33622981D01*
X30373738Y-33636400D01*
X30173927Y-33676145D01*
X29947343Y-33827543D01*
X29795945Y-34054127D01*
X29742781Y-34321400D01*
X29756200Y-34388862D01*
X29756201Y-36068000D01*
X29515490Y-36068000D01*
X29282101Y-36164673D01*
X29103473Y-36343302D01*
X29006800Y-36576691D01*
X27126400Y-36576691D01*
X27126400Y-30607691D01*
X29032200Y-30607691D01*
X29032200Y-31210250D01*
X29190950Y-31369000D01*
X29756201Y-31369000D01*
X29756201Y-31453933D01*
X29742781Y-31521400D01*
X29762991Y-31623000D01*
X29190950Y-31623000D01*
X29032200Y-31781750D01*
X29032200Y-32384309D01*
X29128873Y-32617698D01*
X29307501Y-32796327D01*
X29540890Y-32893000D01*
X30143450Y-32893000D01*
X30302200Y-32734250D01*
X30302200Y-32192170D01*
X30373738Y-32206400D01*
X30373739Y-32206400D01*
X30441200Y-32219819D01*
X30508662Y-32206400D01*
X30556200Y-32206400D01*
X30556200Y-32734250D01*
X30714950Y-32893000D01*
X31317510Y-32893000D01*
X31550899Y-32796327D01*
X31729527Y-32617698D01*
X31826200Y-32384309D01*
X31826200Y-32206400D01*
X32185281Y-32206400D01*
X32198045Y-32270567D01*
X32420983Y-32604217D01*
X32754633Y-32827155D01*
X33148200Y-32905440D01*
X33910200Y-32905440D01*
X34303767Y-32827155D01*
X34637417Y-32604217D01*
X34860355Y-32270567D01*
X34938640Y-31877000D01*
X34938640Y-31115000D01*
X34860355Y-30721433D01*
X34784355Y-30607691D01*
X36142800Y-30607691D01*
X36142800Y-31210250D01*
X36301550Y-31369000D01*
X36856201Y-31369000D01*
X36856201Y-31453933D01*
X36842781Y-31521400D01*
X36862991Y-31623000D01*
X36301550Y-31623000D01*
X36142800Y-31781750D01*
X36142800Y-32384309D01*
X36239473Y-32617698D01*
X36418101Y-32796327D01*
X36651490Y-32893000D01*
X37254050Y-32893000D01*
X37412800Y-32734250D01*
X37412800Y-32194279D01*
X37473738Y-32206400D01*
X37473739Y-32206400D01*
X37541200Y-32219819D01*
X37608662Y-32206400D01*
X37666800Y-32206400D01*
X37666800Y-32734250D01*
X37825550Y-32893000D01*
X38428110Y-32893000D01*
X38661499Y-32796327D01*
X38840127Y-32617698D01*
X38936800Y-32384309D01*
X38936800Y-32206400D01*
X39195881Y-32206400D01*
X39208645Y-32270567D01*
X39431583Y-32604217D01*
X39765233Y-32827155D01*
X40158800Y-32905440D01*
X40920800Y-32905440D01*
X41314367Y-32827155D01*
X41648017Y-32604217D01*
X41870955Y-32270567D01*
X41949240Y-31877000D01*
X41949240Y-31115000D01*
X41870955Y-30721433D01*
X41811927Y-30633091D01*
X43129200Y-30633091D01*
X43129200Y-31235650D01*
X43287950Y-31394400D01*
X43856201Y-31394400D01*
X43856201Y-31453933D01*
X43842781Y-31521400D01*
X43868043Y-31648400D01*
X43287950Y-31648400D01*
X43129200Y-31807150D01*
X43129200Y-32409709D01*
X43225873Y-32643098D01*
X43404501Y-32821727D01*
X43637890Y-32918400D01*
X44240450Y-32918400D01*
X44399200Y-32759650D01*
X44399200Y-32191573D01*
X44473738Y-32206400D01*
X44473739Y-32206400D01*
X44541200Y-32219819D01*
X44608662Y-32206400D01*
X44653200Y-32206400D01*
X44653200Y-32759650D01*
X44811950Y-32918400D01*
X45414510Y-32918400D01*
X45647899Y-32821727D01*
X45826527Y-32643098D01*
X45923200Y-32409709D01*
X45923200Y-32206400D01*
X46677229Y-32206400D01*
X46695045Y-32295967D01*
X46917983Y-32629617D01*
X47251633Y-32852555D01*
X47645200Y-32930840D01*
X48407200Y-32930840D01*
X48800767Y-32852555D01*
X49134417Y-32629617D01*
X49357355Y-32295967D01*
X49435640Y-31902400D01*
X49435640Y-31140400D01*
X49357355Y-30746833D01*
X49134417Y-30413183D01*
X48800767Y-30190245D01*
X48726200Y-30175413D01*
X48726200Y-28088862D01*
X48739619Y-28021400D01*
X48686455Y-27754127D01*
X48535057Y-27527543D01*
X48308473Y-27376145D01*
X48108662Y-27336400D01*
X48041200Y-27322981D01*
X47973739Y-27336400D01*
X44608661Y-27336400D01*
X44541200Y-27322981D01*
X44473738Y-27336400D01*
X44273927Y-27376145D01*
X44047343Y-27527543D01*
X43895945Y-27754127D01*
X43842781Y-28021400D01*
X43856200Y-28088862D01*
X43856201Y-30124400D01*
X43637890Y-30124400D01*
X43404501Y-30221073D01*
X43225873Y-30399702D01*
X43129200Y-30633091D01*
X41811927Y-30633091D01*
X41648017Y-30387783D01*
X41314367Y-30164845D01*
X41226200Y-30147308D01*
X41226200Y-28588862D01*
X41239619Y-28521400D01*
X41186455Y-28254127D01*
X41035057Y-28027543D01*
X40808473Y-27876145D01*
X40608662Y-27836400D01*
X40541200Y-27822981D01*
X40473739Y-27836400D01*
X37608661Y-27836400D01*
X37541200Y-27822981D01*
X37473738Y-27836400D01*
X37273927Y-27876145D01*
X37047343Y-28027543D01*
X36895945Y-28254127D01*
X36842781Y-28521400D01*
X36856200Y-28588862D01*
X36856201Y-30099000D01*
X36651490Y-30099000D01*
X36418101Y-30195673D01*
X36239473Y-30374302D01*
X36142800Y-30607691D01*
X34784355Y-30607691D01*
X34637417Y-30387783D01*
X34303767Y-30164845D01*
X34226200Y-30149416D01*
X34226200Y-28488862D01*
X34239619Y-28421400D01*
X34186455Y-28154127D01*
X34035057Y-27927543D01*
X33808473Y-27776145D01*
X33608662Y-27736400D01*
X33541200Y-27722981D01*
X33473739Y-27736400D01*
X30508661Y-27736400D01*
X30441200Y-27722981D01*
X30373738Y-27736400D01*
X30173927Y-27776145D01*
X29947343Y-27927543D01*
X29795945Y-28154127D01*
X29742781Y-28421400D01*
X29756200Y-28488862D01*
X29756201Y-30099000D01*
X29540890Y-30099000D01*
X29307501Y-30195673D01*
X29128873Y-30374302D01*
X29032200Y-30607691D01*
X27126400Y-30607691D01*
X27126400Y-15145522D01*
X35101400Y-15145522D01*
X35101400Y-15994878D01*
X35426434Y-16779580D01*
X36027020Y-17380166D01*
X36811722Y-17705200D01*
X37661078Y-17705200D01*
X38445780Y-17380166D01*
X39046366Y-16779580D01*
X39371400Y-15994878D01*
X39371400Y-15855950D01*
X40181400Y-15855950D01*
X40181400Y-17196510D01*
X40278073Y-17429899D01*
X40456702Y-17608527D01*
X40690091Y-17705200D01*
X42030650Y-17705200D01*
X42189400Y-17546450D01*
X42189400Y-15697200D01*
X42443400Y-15697200D01*
X42443400Y-17546450D01*
X42602150Y-17705200D01*
X43942709Y-17705200D01*
X44176098Y-17608527D01*
X44354727Y-17429899D01*
X44451400Y-17196510D01*
X44451400Y-15855950D01*
X44292650Y-15697200D01*
X42443400Y-15697200D01*
X42189400Y-15697200D01*
X40340150Y-15697200D01*
X40181400Y-15855950D01*
X39371400Y-15855950D01*
X39371400Y-15145522D01*
X39046366Y-14360820D01*
X38629436Y-13943890D01*
X40181400Y-13943890D01*
X40181400Y-15284450D01*
X40340150Y-15443200D01*
X42189400Y-15443200D01*
X42189400Y-13593950D01*
X42443400Y-13593950D01*
X42443400Y-15443200D01*
X44292650Y-15443200D01*
X44451400Y-15284450D01*
X44451400Y-13943890D01*
X44354727Y-13710501D01*
X44176098Y-13531873D01*
X43942709Y-13435200D01*
X42602150Y-13435200D01*
X42443400Y-13593950D01*
X42189400Y-13593950D01*
X42030650Y-13435200D01*
X40690091Y-13435200D01*
X40456702Y-13531873D01*
X40278073Y-13710501D01*
X40181400Y-13943890D01*
X38629436Y-13943890D01*
X38445780Y-13760234D01*
X37661078Y-13435200D01*
X36811722Y-13435200D01*
X36027020Y-13760234D01*
X35426434Y-14360820D01*
X35101400Y-15145522D01*
X27126400Y-15145522D01*
X27126400Y-12214000D01*
X50756401Y-12214000D01*
X50756400Y-40836400D01*
G04 #@! TD*
M02*
