  0
SECTION
  2
HEADER
  9
$ACADVER
  1
AC1009
  9
$INSBASE
 10
0.0
 20
0.0
 30
0.0
  9
$EXTMIN
 10
0.0
 20
0.0
 30
0.0
  9
$EXTMAX
 10
0.0
 20
0.0
 30
0.0
  0
ENDSEC
  0
SECTION
  2
TABLES
  0
TABLE
  2
VPORT
 70
0
  0
ENDTAB
  0
TABLE
  2
LTYPE
 70
1
  0
LTYPE
  2
CONTINUOUS
 70
0
  3
Solid line
 72
65
 73
0
 40
0.0
  0
ENDTAB
  0
TABLE
  2
LAYER
 70
1
  0
LAYER
  2
0
 70
64
 62
7
  6
continuous
  0
ENDTAB
  0
TABLE
  2
STYLE
 70
1
  0
STYLE
  2
STANDARD
 70
0
 40
0
 41
1.0
 50
0.0
 71
0
 42
1
 3
ARIAL.TTF
 4

  0
ENDTAB
  0
TABLE
  2
VIEW
 70
0
  0
ENDTAB
  0
ENDSEC
  0
SECTION
  2
BLOCKS
  0
BLOCK
  8
0
  2
SKETCH
 70
0
 10
0.0
 20
0.0
 30
0.0
  3
SKETCH
  0
POLYLINE
  8
0
 62
7
 70
1
 66
1
 10
0.0
 20
0.0
 30
0.0
  0
VERTEX
  8
0
 10
0.0
 20
1.21811772015e-31
 30
0.0
  0
VERTEX
  8
0
 10
100.0
 20
1.21811772015e-31
 30
0.0
  0
VERTEX
  8
0
 10
100.0
 20
50.0
 30
0.0
  0
VERTEX
  8
0
 10
0.0
 20
50.0
 30
0.0
  0
SEQEND
  8
0
  0
POLYLINE
  8
0
 62
7
 70
1
 66
1
 10
0.0
 20
0.0
 30
0.0
  0
VERTEX
  8
0
 10
1.683333
 20
3.0
 30
0.0
  0
VERTEX
  8
0
 10
4.983333
 20
3.0
 30
0.0
  0
VERTEX
  8
0
 10
4.983333
 20
5.1
 30
0.0
  0
VERTEX
  8
0
 10
1.683333
 20
5.1
 30
0.0
  0
SEQEND
  8
0
  0
POLYLINE
  8
0
 62
7
 70
1
 66
1
 10
0.0
 20
0.0
 30
0.0
  0
VERTEX
  8
0
 10
8.35
 20
3.0
 30
0.0
  0
VERTEX
  8
0
 10
11.65
 20
3.0
 30
0.0
  0
VERTEX
  8
0
 10
11.65
 20
5.1
 30
0.0
  0
VERTEX
  8
0
 10
8.35
 20
5.1
 30
0.0
  0
SEQEND
  8
0
  0
POLYLINE
  8
0
 62
7
 70
1
 66
1
 10
0.0
 20
0.0
 30
0.0
  0
VERTEX
  8
0
 10
15.016667
 20
3.0
 30
0.0
  0
VERTEX
  8
0
 10
18.316667
 20
3.0
 30
0.0
  0
VERTEX
  8
0
 10
18.316667
 20
5.1
 30
0.0
  0
VERTEX
  8
0
 10
15.016667
 20
5.1
 30
0.0
  0
SEQEND
  8
0
  0
POLYLINE
  8
0
 62
7
 70
1
 66
1
 10
0.0
 20
0.0
 30
0.0
  0
VERTEX
  8
0
 10
21.683334
 20
3.0
 30
0.0
  0
VERTEX
  8
0
 10
24.983334
 20
3.0
 30
0.0
  0
VERTEX
  8
0
 10
24.983334
 20
5.1
 30
0.0
  0
VERTEX
  8
0
 10
21.683334
 20
5.1
 30
0.0
  0
SEQEND
  8
0
  0
POLYLINE
  8
0
 62
7
 70
1
 66
1
 10
0.0
 20
0.0
 30
0.0
  0
VERTEX
  8
0
 10
28.350001
 20
3.0
 30
0.0
  0
VERTEX
  8
0
 10
31.650001
 20
3.0
 30
0.0
  0
VERTEX
  8
0
 10
31.650001
 20
5.1
 30
0.0
  0
VERTEX
  8
0
 10
28.350001
 20
5.1
 30
0.0
  0
SEQEND
  8
0
  0
POLYLINE
  8
0
 62
7
 70
1
 66
1
 10
0.0
 20
0.0
 30
0.0
  0
VERTEX
  8
0
 10
35.016668
 20
3.0
 30
0.0
  0
VERTEX
  8
0
 10
38.316668
 20
3.0
 30
0.0
  0
VERTEX
  8
0
 10
38.316668
 20
5.1
 30
0.0
  0
VERTEX
  8
0
 10
35.016668
 20
5.1
 30
0.0
  0
SEQEND
  8
0
  0
POLYLINE
  8
0
 62
7
 70
1
 66
1
 10
0.0
 20
0.0
 30
0.0
  0
VERTEX
  8
0
 10
41.683335
 20
3.0
 30
0.0
  0
VERTEX
  8
0
 10
44.983335
 20
3.0
 30
0.0
  0
VERTEX
  8
0
 10
44.983335
 20
5.1
 30
0.0
  0
VERTEX
  8
0
 10
41.683335
 20
5.1
 30
0.0
  0
SEQEND
  8
0
  0
POLYLINE
  8
0
 62
7
 70
1
 66
1
 10
0.0
 20
0.0
 30
0.0
  0
VERTEX
  8
0
 10
48.350002
 20
3.0
 30
0.0
  0
VERTEX
  8
0
 10
51.650002
 20
3.0
 30
0.0
  0
VERTEX
  8
0
 10
51.650002
 20
5.1
 30
0.0
  0
VERTEX
  8
0
 10
48.350002
 20
5.1
 30
0.0
  0
SEQEND
  8
0
  0
POLYLINE
  8
0
 62
7
 70
1
 66
1
 10
0.0
 20
0.0
 30
0.0
  0
VERTEX
  8
0
 10
55.016669
 20
3.0
 30
0.0
  0
VERTEX
  8
0
 10
58.316669
 20
3.0
 30
0.0
  0
VERTEX
  8
0
 10
58.316669
 20
5.1
 30
0.0
  0
VERTEX
  8
0
 10
55.016669
 20
5.1
 30
0.0
  0
SEQEND
  8
0
  0
POLYLINE
  8
0
 62
7
 70
1
 66
1
 10
0.0
 20
0.0
 30
0.0
  0
VERTEX
  8
0
 10
61.683336
 20
3.0
 30
0.0
  0
VERTEX
  8
0
 10
64.983336
 20
3.0
 30
0.0
  0
VERTEX
  8
0
 10
64.983336
 20
5.1
 30
0.0
  0
VERTEX
  8
0
 10
61.683336
 20
5.1
 30
0.0
  0
SEQEND
  8
0
  0
POLYLINE
  8
0
 62
7
 70
1
 66
1
 10
0.0
 20
0.0
 30
0.0
  0
VERTEX
  8
0
 10
68.350003
 20
3.0
 30
0.0
  0
VERTEX
  8
0
 10
71.650003
 20
3.0
 30
0.0
  0
VERTEX
  8
0
 10
71.650003
 20
5.1
 30
0.0
  0
VERTEX
  8
0
 10
68.350003
 20
5.1
 30
0.0
  0
SEQEND
  8
0
  0
POLYLINE
  8
0
 62
7
 70
1
 66
1
 10
0.0
 20
0.0
 30
0.0
  0
VERTEX
  8
0
 10
75.01667
 20
3.0
 30
0.0
  0
VERTEX
  8
0
 10
78.31667
 20
3.0
 30
0.0
  0
VERTEX
  8
0
 10
78.31667
 20
5.1
 30
0.0
  0
VERTEX
  8
0
 10
75.01667
 20
5.1
 30
0.0
  0
SEQEND
  8
0
  0
POLYLINE
  8
0
 62
7
 70
1
 66
1
 10
0.0
 20
0.0
 30
0.0
  0
VERTEX
  8
0
 10
81.683337
 20
3.0
 30
0.0
  0
VERTEX
  8
0
 10
84.983337
 20
3.0
 30
0.0
  0
VERTEX
  8
0
 10
84.983337
 20
5.1
 30
0.0
  0
VERTEX
  8
0
 10
81.683337
 20
5.1
 30
0.0
  0
SEQEND
  8
0
  0
POLYLINE
  8
0
 62
7
 70
1
 66
1
 10
0.0
 20
0.0
 30
0.0
  0
VERTEX
  8
0
 10
88.350004
 20
3.0
 30
0.0
  0
VERTEX
  8
0
 10
91.650004
 20
3.0
 30
0.0
  0
VERTEX
  8
0
 10
91.650004
 20
5.1
 30
0.0
  0
VERTEX
  8
0
 10
88.350004
 20
5.1
 30
0.0
  0
SEQEND
  8
0
  0
POLYLINE
  8
0
 62
7
 70
1
 66
1
 10
0.0
 20
0.0
 30
0.0
  0
VERTEX
  8
0
 10
95.016671
 20
3.0
 30
0.0
  0
VERTEX
  8
0
 10
98.316671
 20
3.0
 30
0.0
  0
VERTEX
  8
0
 10
98.316671
 20
5.1
 30
0.0
  0
VERTEX
  8
0
 10
95.016671
 20
5.1
 30
0.0
  0
SEQEND
  8
0
  0
POLYLINE
  8
0
 62
7
 70
1
 66
1
 10
0.0
 20
0.0
 30
0.0
  0
VERTEX
  8
0
 10
1.683333
 20
8.1
 30
0.0
  0
VERTEX
  8
0
 10
4.983333
 20
8.1
 30
0.0
  0
VERTEX
  8
0
 10
4.983333
 20
10.2
 30
0.0
  0
VERTEX
  8
0
 10
1.683333
 20
10.2
 30
0.0
  0
SEQEND
  8
0
  0
POLYLINE
  8
0
 62
7
 70
1
 66
1
 10
0.0
 20
0.0
 30
0.0
  0
VERTEX
  8
0
 10
8.35
 20
8.1
 30
0.0
  0
VERTEX
  8
0
 10
11.65
 20
8.1
 30
0.0
  0
VERTEX
  8
0
 10
11.65
 20
10.2
 30
0.0
  0
VERTEX
  8
0
 10
8.35
 20
10.2
 30
0.0
  0
SEQEND
  8
0
  0
POLYLINE
  8
0
 62
7
 70
1
 66
1
 10
0.0
 20
0.0
 30
0.0
  0
VERTEX
  8
0
 10
15.016667
 20
8.1
 30
0.0
  0
VERTEX
  8
0
 10
18.316667
 20
8.1
 30
0.0
  0
VERTEX
  8
0
 10
18.316667
 20
10.2
 30
0.0
  0
VERTEX
  8
0
 10
15.016667
 20
10.2
 30
0.0
  0
SEQEND
  8
0
  0
POLYLINE
  8
0
 62
7
 70
1
 66
1
 10
0.0
 20
0.0
 30
0.0
  0
VERTEX
  8
0
 10
21.683334
 20
8.1
 30
0.0
  0
VERTEX
  8
0
 10
24.983334
 20
8.1
 30
0.0
  0
VERTEX
  8
0
 10
24.983334
 20
10.2
 30
0.0
  0
VERTEX
  8
0
 10
21.683334
 20
10.2
 30
0.0
  0
SEQEND
  8
0
  0
POLYLINE
  8
0
 62
7
 70
1
 66
1
 10
0.0
 20
0.0
 30
0.0
  0
VERTEX
  8
0
 10
28.350001
 20
8.1
 30
0.0
  0
VERTEX
  8
0
 10
31.650001
 20
8.1
 30
0.0
  0
VERTEX
  8
0
 10
31.650001
 20
10.2
 30
0.0
  0
VERTEX
  8
0
 10
28.350001
 20
10.2
 30
0.0
  0
SEQEND
  8
0
  0
POLYLINE
  8
0
 62
7
 70
1
 66
1
 10
0.0
 20
0.0
 30
0.0
  0
VERTEX
  8
0
 10
35.016668
 20
8.1
 30
0.0
  0
VERTEX
  8
0
 10
38.316668
 20
8.1
 30
0.0
  0
VERTEX
  8
0
 10
38.316668
 20
10.2
 30
0.0
  0
VERTEX
  8
0
 10
35.016668
 20
10.2
 30
0.0
  0
SEQEND
  8
0
  0
POLYLINE
  8
0
 62
7
 70
1
 66
1
 10
0.0
 20
0.0
 30
0.0
  0
VERTEX
  8
0
 10
41.683335
 20
8.1
 30
0.0
  0
VERTEX
  8
0
 10
44.983335
 20
8.1
 30
0.0
  0
VERTEX
  8
0
 10
44.983335
 20
10.2
 30
0.0
  0
VERTEX
  8
0
 10
41.683335
 20
10.2
 30
0.0
  0
SEQEND
  8
0
  0
POLYLINE
  8
0
 62
7
 70
1
 66
1
 10
0.0
 20
0.0
 30
0.0
  0
VERTEX
  8
0
 10
48.350002
 20
8.1
 30
0.0
  0
VERTEX
  8
0
 10
51.650002
 20
8.1
 30
0.0
  0
VERTEX
  8
0
 10
51.650002
 20
10.2
 30
0.0
  0
VERTEX
  8
0
 10
48.350002
 20
10.2
 30
0.0
  0
SEQEND
  8
0
  0
POLYLINE
  8
0
 62
7
 70
1
 66
1
 10
0.0
 20
0.0
 30
0.0
  0
VERTEX
  8
0
 10
55.016669
 20
8.1
 30
0.0
  0
VERTEX
  8
0
 10
58.316669
 20
8.1
 30
0.0
  0
VERTEX
  8
0
 10
58.316669
 20
10.2
 30
0.0
  0
VERTEX
  8
0
 10
55.016669
 20
10.2
 30
0.0
  0
SEQEND
  8
0
  0
POLYLINE
  8
0
 62
7
 70
1
 66
1
 10
0.0
 20
0.0
 30
0.0
  0
VERTEX
  8
0
 10
61.683336
 20
8.1
 30
0.0
  0
VERTEX
  8
0
 10
64.983336
 20
8.1
 30
0.0
  0
VERTEX
  8
0
 10
64.983336
 20
10.2
 30
0.0
  0
VERTEX
  8
0
 10
61.683336
 20
10.2
 30
0.0
  0
SEQEND
  8
0
  0
POLYLINE
  8
0
 62
7
 70
1
 66
1
 10
0.0
 20
0.0
 30
0.0
  0
VERTEX
  8
0
 10
68.350003
 20
8.1
 30
0.0
  0
VERTEX
  8
0
 10
71.650003
 20
8.1
 30
0.0
  0
VERTEX
  8
0
 10
71.650003
 20
10.2
 30
0.0
  0
VERTEX
  8
0
 10
68.350003
 20
10.2
 30
0.0
  0
SEQEND
  8
0
  0
POLYLINE
  8
0
 62
7
 70
1
 66
1
 10
0.0
 20
0.0
 30
0.0
  0
VERTEX
  8
0
 10
75.01667
 20
8.1
 30
0.0
  0
VERTEX
  8
0
 10
78.31667
 20
8.1
 30
0.0
  0
VERTEX
  8
0
 10
78.31667
 20
10.2
 30
0.0
  0
VERTEX
  8
0
 10
75.01667
 20
10.2
 30
0.0
  0
SEQEND
  8
0
  0
POLYLINE
  8
0
 62
7
 70
1
 66
1
 10
0.0
 20
0.0
 30
0.0
  0
VERTEX
  8
0
 10
81.683337
 20
8.1
 30
0.0
  0
VERTEX
  8
0
 10
84.983337
 20
8.1
 30
0.0
  0
VERTEX
  8
0
 10
84.983337
 20
10.2
 30
0.0
  0
VERTEX
  8
0
 10
81.683337
 20
10.2
 30
0.0
  0
SEQEND
  8
0
  0
POLYLINE
  8
0
 62
7
 70
1
 66
1
 10
0.0
 20
0.0
 30
0.0
  0
VERTEX
  8
0
 10
88.350004
 20
8.1
 30
0.0
  0
VERTEX
  8
0
 10
91.650004
 20
8.1
 30
0.0
  0
VERTEX
  8
0
 10
91.650004
 20
10.2
 30
0.0
  0
VERTEX
  8
0
 10
88.350004
 20
10.2
 30
0.0
  0
SEQEND
  8
0
  0
POLYLINE
  8
0
 62
7
 70
1
 66
1
 10
0.0
 20
0.0
 30
0.0
  0
VERTEX
  8
0
 10
95.016671
 20
8.1
 30
0.0
  0
VERTEX
  8
0
 10
98.316671
 20
8.1
 30
0.0
  0
VERTEX
  8
0
 10
98.316671
 20
10.2
 30
0.0
  0
VERTEX
  8
0
 10
95.016671
 20
10.2
 30
0.0
  0
SEQEND
  8
0
  0
POLYLINE
  8
0
 62
7
 70
1
 66
1
 10
0.0
 20
0.0
 30
0.0
  0
VERTEX
  8
0
 10
1.683333
 20
13.2
 30
0.0
  0
VERTEX
  8
0
 10
4.983333
 20
13.2
 30
0.0
  0
VERTEX
  8
0
 10
4.983333
 20
15.3
 30
0.0
  0
VERTEX
  8
0
 10
1.683333
 20
15.3
 30
0.0
  0
SEQEND
  8
0
  0
POLYLINE
  8
0
 62
7
 70
1
 66
1
 10
0.0
 20
0.0
 30
0.0
  0
VERTEX
  8
0
 10
8.35
 20
13.2
 30
0.0
  0
VERTEX
  8
0
 10
11.65
 20
13.2
 30
0.0
  0
VERTEX
  8
0
 10
11.65
 20
15.3
 30
0.0
  0
VERTEX
  8
0
 10
8.35
 20
15.3
 30
0.0
  0
SEQEND
  8
0
  0
POLYLINE
  8
0
 62
7
 70
1
 66
1
 10
0.0
 20
0.0
 30
0.0
  0
VERTEX
  8
0
 10
15.016667
 20
13.2
 30
0.0
  0
VERTEX
  8
0
 10
18.316667
 20
13.2
 30
0.0
  0
VERTEX
  8
0
 10
18.316667
 20
15.3
 30
0.0
  0
VERTEX
  8
0
 10
15.016667
 20
15.3
 30
0.0
  0
SEQEND
  8
0
  0
POLYLINE
  8
0
 62
7
 70
1
 66
1
 10
0.0
 20
0.0
 30
0.0
  0
VERTEX
  8
0
 10
21.683334
 20
13.2
 30
0.0
  0
VERTEX
  8
0
 10
24.983334
 20
13.2
 30
0.0
  0
VERTEX
  8
0
 10
24.983334
 20
15.3
 30
0.0
  0
VERTEX
  8
0
 10
21.683334
 20
15.3
 30
0.0
  0
SEQEND
  8
0
  0
POLYLINE
  8
0
 62
7
 70
1
 66
1
 10
0.0
 20
0.0
 30
0.0
  0
VERTEX
  8
0
 10
28.350001
 20
13.2
 30
0.0
  0
VERTEX
  8
0
 10
31.650001
 20
13.2
 30
0.0
  0
VERTEX
  8
0
 10
31.650001
 20
15.3
 30
0.0
  0
VERTEX
  8
0
 10
28.350001
 20
15.3
 30
0.0
  0
SEQEND
  8
0
  0
POLYLINE
  8
0
 62
7
 70
1
 66
1
 10
0.0
 20
0.0
 30
0.0
  0
VERTEX
  8
0
 10
35.016668
 20
13.2
 30
0.0
  0
VERTEX
  8
0
 10
38.316668
 20
13.2
 30
0.0
  0
VERTEX
  8
0
 10
38.316668
 20
15.3
 30
0.0
  0
VERTEX
  8
0
 10
35.016668
 20
15.3
 30
0.0
  0
SEQEND
  8
0
  0
POLYLINE
  8
0
 62
7
 70
1
 66
1
 10
0.0
 20
0.0
 30
0.0
  0
VERTEX
  8
0
 10
41.683335
 20
13.2
 30
0.0
  0
VERTEX
  8
0
 10
44.983335
 20
13.2
 30
0.0
  0
VERTEX
  8
0
 10
44.983335
 20
15.3
 30
0.0
  0
VERTEX
  8
0
 10
41.683335
 20
15.3
 30
0.0
  0
SEQEND
  8
0
  0
POLYLINE
  8
0
 62
7
 70
1
 66
1
 10
0.0
 20
0.0
 30
0.0
  0
VERTEX
  8
0
 10
48.350002
 20
13.2
 30
0.0
  0
VERTEX
  8
0
 10
51.650002
 20
13.2
 30
0.0
  0
VERTEX
  8
0
 10
51.650002
 20
15.3
 30
0.0
  0
VERTEX
  8
0
 10
48.350002
 20
15.3
 30
0.0
  0
SEQEND
  8
0
  0
POLYLINE
  8
0
 62
7
 70
1
 66
1
 10
0.0
 20
0.0
 30
0.0
  0
VERTEX
  8
0
 10
55.016669
 20
13.2
 30
0.0
  0
VERTEX
  8
0
 10
58.316669
 20
13.2
 30
0.0
  0
VERTEX
  8
0
 10
58.316669
 20
15.3
 30
0.0
  0
VERTEX
  8
0
 10
55.016669
 20
15.3
 30
0.0
  0
SEQEND
  8
0
  0
POLYLINE
  8
0
 62
7
 70
1
 66
1
 10
0.0
 20
0.0
 30
0.0
  0
VERTEX
  8
0
 10
61.683336
 20
13.2
 30
0.0
  0
VERTEX
  8
0
 10
64.983336
 20
13.2
 30
0.0
  0
VERTEX
  8
0
 10
64.983336
 20
15.3
 30
0.0
  0
VERTEX
  8
0
 10
61.683336
 20
15.3
 30
0.0
  0
SEQEND
  8
0
  0
POLYLINE
  8
0
 62
7
 70
1
 66
1
 10
0.0
 20
0.0
 30
0.0
  0
VERTEX
  8
0
 10
68.350003
 20
13.2
 30
0.0
  0
VERTEX
  8
0
 10
71.650003
 20
13.2
 30
0.0
  0
VERTEX
  8
0
 10
71.650003
 20
15.3
 30
0.0
  0
VERTEX
  8
0
 10
68.350003
 20
15.3
 30
0.0
  0
SEQEND
  8
0
  0
POLYLINE
  8
0
 62
7
 70
1
 66
1
 10
0.0
 20
0.0
 30
0.0
  0
VERTEX
  8
0
 10
75.01667
 20
13.2
 30
0.0
  0
VERTEX
  8
0
 10
78.31667
 20
13.2
 30
0.0
  0
VERTEX
  8
0
 10
78.31667
 20
15.3
 30
0.0
  0
VERTEX
  8
0
 10
75.01667
 20
15.3
 30
0.0
  0
SEQEND
  8
0
  0
POLYLINE
  8
0
 62
7
 70
1
 66
1
 10
0.0
 20
0.0
 30
0.0
  0
VERTEX
  8
0
 10
81.683337
 20
13.2
 30
0.0
  0
VERTEX
  8
0
 10
84.983337
 20
13.2
 30
0.0
  0
VERTEX
  8
0
 10
84.983337
 20
15.3
 30
0.0
  0
VERTEX
  8
0
 10
81.683337
 20
15.3
 30
0.0
  0
SEQEND
  8
0
  0
POLYLINE
  8
0
 62
7
 70
1
 66
1
 10
0.0
 20
0.0
 30
0.0
  0
VERTEX
  8
0
 10
88.350004
 20
13.2
 30
0.0
  0
VERTEX
  8
0
 10
91.650004
 20
13.2
 30
0.0
  0
VERTEX
  8
0
 10
91.650004
 20
15.3
 30
0.0
  0
VERTEX
  8
0
 10
88.350004
 20
15.3
 30
0.0
  0
SEQEND
  8
0
  0
POLYLINE
  8
0
 62
7
 70
1
 66
1
 10
0.0
 20
0.0
 30
0.0
  0
VERTEX
  8
0
 10
95.016671
 20
13.2
 30
0.0
  0
VERTEX
  8
0
 10
98.316671
 20
13.2
 30
0.0
  0
VERTEX
  8
0
 10
98.316671
 20
15.3
 30
0.0
  0
VERTEX
  8
0
 10
95.016671
 20
15.3
 30
0.0
  0
SEQEND
  8
0
  0
POLYLINE
  8
0
 62
7
 70
1
 66
1
 10
0.0
 20
0.0
 30
0.0
  0
VERTEX
  8
0
 10
2.516667
 20
25.5
 30
0.0
  0
VERTEX
  8
0
 10
5.816667
 20
25.5
 30
0.0
  0
VERTEX
  8
0
 10
5.816667
 20
27.6
 30
0.0
  0
VERTEX
  8
0
 10
2.516667
 20
27.6
 30
0.0
  0
SEQEND
  8
0
  0
POLYLINE
  8
0
 62
7
 70
1
 66
1
 10
0.0
 20
0.0
 30
0.0
  0
VERTEX
  8
0
 10
10.85
 20
25.5
 30
0.0
  0
VERTEX
  8
0
 10
14.15
 20
25.5
 30
0.0
  0
VERTEX
  8
0
 10
14.15
 20
27.6
 30
0.0
  0
VERTEX
  8
0
 10
10.85
 20
27.6
 30
0.0
  0
SEQEND
  8
0
  0
POLYLINE
  8
0
 62
7
 70
1
 66
1
 10
0.0
 20
0.0
 30
0.0
  0
VERTEX
  8
0
 10
19.183333
 20
25.5
 30
0.0
  0
VERTEX
  8
0
 10
22.483333
 20
25.5
 30
0.0
  0
VERTEX
  8
0
 10
22.483333
 20
27.6
 30
0.0
  0
VERTEX
  8
0
 10
19.183333
 20
27.6
 30
0.0
  0
SEQEND
  8
0
  0
POLYLINE
  8
0
 62
7
 70
1
 66
1
 10
0.0
 20
0.0
 30
0.0
  0
VERTEX
  8
0
 10
27.516669
 20
25.5
 30
0.0
  0
VERTEX
  8
0
 10
30.816669
 20
25.5
 30
0.0
  0
VERTEX
  8
0
 10
30.816669
 20
27.6
 30
0.0
  0
VERTEX
  8
0
 10
27.516669
 20
27.6
 30
0.0
  0
SEQEND
  8
0
  0
POLYLINE
  8
0
 62
7
 70
1
 66
1
 10
0.0
 20
0.0
 30
0.0
  0
VERTEX
  8
0
 10
35.850002
 20
25.5
 30
0.0
  0
VERTEX
  8
0
 10
39.150002
 20
25.5
 30
0.0
  0
VERTEX
  8
0
 10
39.150002
 20
27.6
 30
0.0
  0
VERTEX
  8
0
 10
35.850002
 20
27.6
 30
0.0
  0
SEQEND
  8
0
  0
POLYLINE
  8
0
 62
7
 70
1
 66
1
 10
0.0
 20
0.0
 30
0.0
  0
VERTEX
  8
0
 10
44.183335
 20
25.5
 30
0.0
  0
VERTEX
  8
0
 10
47.483335
 20
25.5
 30
0.0
  0
VERTEX
  8
0
 10
47.483335
 20
27.6
 30
0.0
  0
VERTEX
  8
0
 10
44.183335
 20
27.6
 30
0.0
  0
SEQEND
  8
0
  0
POLYLINE
  8
0
 62
7
 70
1
 66
1
 10
0.0
 20
0.0
 30
0.0
  0
VERTEX
  8
0
 10
52.516668
 20
25.5
 30
0.0
  0
VERTEX
  8
0
 10
55.816668
 20
25.5
 30
0.0
  0
VERTEX
  8
0
 10
55.816668
 20
27.6
 30
0.0
  0
VERTEX
  8
0
 10
52.516668
 20
27.6
 30
0.0
  0
SEQEND
  8
0
  0
POLYLINE
  8
0
 62
7
 70
1
 66
1
 10
0.0
 20
0.0
 30
0.0
  0
VERTEX
  8
0
 10
60.850001
 20
25.5
 30
0.0
  0
VERTEX
  8
0
 10
64.150001
 20
25.5
 30
0.0
  0
VERTEX
  8
0
 10
64.150001
 20
27.6
 30
0.0
  0
VERTEX
  8
0
 10
60.850001
 20
27.6
 30
0.0
  0
SEQEND
  8
0
  0
POLYLINE
  8
0
 62
7
 70
1
 66
1
 10
0.0
 20
0.0
 30
0.0
  0
VERTEX
  8
0
 10
69.183334
 20
25.5
 30
0.0
  0
VERTEX
  8
0
 10
72.483334
 20
25.5
 30
0.0
  0
VERTEX
  8
0
 10
72.483334
 20
27.6
 30
0.0
  0
VERTEX
  8
0
 10
69.183334
 20
27.6
 30
0.0
  0
SEQEND
  8
0
  0
POLYLINE
  8
0
 62
7
 70
1
 66
1
 10
0.0
 20
0.0
 30
0.0
  0
VERTEX
  8
0
 10
77.516667
 20
25.5
 30
0.0
  0
VERTEX
  8
0
 10
80.816667
 20
25.5
 30
0.0
  0
VERTEX
  8
0
 10
80.816667
 20
27.6
 30
0.0
  0
VERTEX
  8
0
 10
77.516667
 20
27.6
 30
0.0
  0
SEQEND
  8
0
  0
POLYLINE
  8
0
 62
7
 70
1
 66
1
 10
0.0
 20
0.0
 30
0.0
  0
VERTEX
  8
0
 10
85.85
 20
25.5
 30
0.0
  0
VERTEX
  8
0
 10
89.15
 20
25.5
 30
0.0
  0
VERTEX
  8
0
 10
89.15
 20
27.6
 30
0.0
  0
VERTEX
  8
0
 10
85.85
 20
27.6
 30
0.0
  0
SEQEND
  8
0
  0
POLYLINE
  8
0
 62
7
 70
1
 66
1
 10
0.0
 20
0.0
 30
0.0
  0
VERTEX
  8
0
 10
94.183333
 20
25.5
 30
0.0
  0
VERTEX
  8
0
 10
97.483333
 20
25.5
 30
0.0
  0
VERTEX
  8
0
 10
97.483333
 20
27.6
 30
0.0
  0
VERTEX
  8
0
 10
94.183333
 20
27.6
 30
0.0
  0
SEQEND
  8
0
  0
POLYLINE
  8
0
 62
7
 70
1
 66
1
 10
0.0
 20
0.0
 30
0.0
  0
VERTEX
  8
0
 10
1.683333
 20
18.3
 30
0.0
  0
VERTEX
  8
0
 10
4.983333
 20
18.3
 30
0.0
  0
VERTEX
  8
0
 10
4.983333
 20
20.4
 30
0.0
  0
VERTEX
  8
0
 10
1.683333
 20
20.4
 30
0.0
  0
SEQEND
  8
0
  0
POLYLINE
  8
0
 62
7
 70
1
 66
1
 10
0.0
 20
0.0
 30
0.0
  0
VERTEX
  8
0
 10
8.35
 20
18.3
 30
0.0
  0
VERTEX
  8
0
 10
11.65
 20
18.3
 30
0.0
  0
VERTEX
  8
0
 10
11.65
 20
20.4
 30
0.0
  0
VERTEX
  8
0
 10
8.35
 20
20.4
 30
0.0
  0
SEQEND
  8
0
  0
POLYLINE
  8
0
 62
7
 70
1
 66
1
 10
0.0
 20
0.0
 30
0.0
  0
VERTEX
  8
0
 10
15.016667
 20
18.3
 30
0.0
  0
VERTEX
  8
0
 10
18.316667
 20
18.3
 30
0.0
  0
VERTEX
  8
0
 10
18.316667
 20
20.4
 30
0.0
  0
VERTEX
  8
0
 10
15.016667
 20
20.4
 30
0.0
  0
SEQEND
  8
0
  0
POLYLINE
  8
0
 62
7
 70
1
 66
1
 10
0.0
 20
0.0
 30
0.0
  0
VERTEX
  8
0
 10
21.683334
 20
18.3
 30
0.0
  0
VERTEX
  8
0
 10
24.983334
 20
18.3
 30
0.0
  0
VERTEX
  8
0
 10
24.983334
 20
20.4
 30
0.0
  0
VERTEX
  8
0
 10
21.683334
 20
20.4
 30
0.0
  0
SEQEND
  8
0
  0
POLYLINE
  8
0
 62
7
 70
1
 66
1
 10
0.0
 20
0.0
 30
0.0
  0
VERTEX
  8
0
 10
28.350001
 20
18.3
 30
0.0
  0
VERTEX
  8
0
 10
31.650001
 20
18.3
 30
0.0
  0
VERTEX
  8
0
 10
31.650001
 20
20.4
 30
0.0
  0
VERTEX
  8
0
 10
28.350001
 20
20.4
 30
0.0
  0
SEQEND
  8
0
  0
POLYLINE
  8
0
 62
7
 70
1
 66
1
 10
0.0
 20
0.0
 30
0.0
  0
VERTEX
  8
0
 10
35.016668
 20
18.3
 30
0.0
  0
VERTEX
  8
0
 10
38.316668
 20
18.3
 30
0.0
  0
VERTEX
  8
0
 10
38.316668
 20
20.4
 30
0.0
  0
VERTEX
  8
0
 10
35.016668
 20
20.4
 30
0.0
  0
SEQEND
  8
0
  0
POLYLINE
  8
0
 62
7
 70
1
 66
1
 10
0.0
 20
0.0
 30
0.0
  0
VERTEX
  8
0
 10
41.683335
 20
18.3
 30
0.0
  0
VERTEX
  8
0
 10
44.983335
 20
18.3
 30
0.0
  0
VERTEX
  8
0
 10
44.983335
 20
20.4
 30
0.0
  0
VERTEX
  8
0
 10
41.683335
 20
20.4
 30
0.0
  0
SEQEND
  8
0
  0
POLYLINE
  8
0
 62
7
 70
1
 66
1
 10
0.0
 20
0.0
 30
0.0
  0
VERTEX
  8
0
 10
48.350002
 20
18.3
 30
0.0
  0
VERTEX
  8
0
 10
51.650002
 20
18.3
 30
0.0
  0
VERTEX
  8
0
 10
51.650002
 20
20.4
 30
0.0
  0
VERTEX
  8
0
 10
48.350002
 20
20.4
 30
0.0
  0
SEQEND
  8
0
  0
POLYLINE
  8
0
 62
7
 70
1
 66
1
 10
0.0
 20
0.0
 30
0.0
  0
VERTEX
  8
0
 10
55.016669
 20
18.3
 30
0.0
  0
VERTEX
  8
0
 10
58.316669
 20
18.3
 30
0.0
  0
VERTEX
  8
0
 10
58.316669
 20
20.4
 30
0.0
  0
VERTEX
  8
0
 10
55.016669
 20
20.4
 30
0.0
  0
SEQEND
  8
0
  0
POLYLINE
  8
0
 62
7
 70
1
 66
1
 10
0.0
 20
0.0
 30
0.0
  0
VERTEX
  8
0
 10
61.683336
 20
18.3
 30
0.0
  0
VERTEX
  8
0
 10
64.983336
 20
18.3
 30
0.0
  0
VERTEX
  8
0
 10
64.983336
 20
20.4
 30
0.0
  0
VERTEX
  8
0
 10
61.683336
 20
20.4
 30
0.0
  0
SEQEND
  8
0
  0
POLYLINE
  8
0
 62
7
 70
1
 66
1
 10
0.0
 20
0.0
 30
0.0
  0
VERTEX
  8
0
 10
68.350003
 20
18.3
 30
0.0
  0
VERTEX
  8
0
 10
71.650003
 20
18.3
 30
0.0
  0
VERTEX
  8
0
 10
71.650003
 20
20.4
 30
0.0
  0
VERTEX
  8
0
 10
68.350003
 20
20.4
 30
0.0
  0
SEQEND
  8
0
  0
POLYLINE
  8
0
 62
7
 70
1
 66
1
 10
0.0
 20
0.0
 30
0.0
  0
VERTEX
  8
0
 10
75.01667
 20
18.3
 30
0.0
  0
VERTEX
  8
0
 10
78.31667
 20
18.3
 30
0.0
  0
VERTEX
  8
0
 10
78.31667
 20
20.4
 30
0.0
  0
VERTEX
  8
0
 10
75.01667
 20
20.4
 30
0.0
  0
SEQEND
  8
0
  0
POLYLINE
  8
0
 62
7
 70
1
 66
1
 10
0.0
 20
0.0
 30
0.0
  0
VERTEX
  8
0
 10
81.683337
 20
18.3
 30
0.0
  0
VERTEX
  8
0
 10
84.983337
 20
18.3
 30
0.0
  0
VERTEX
  8
0
 10
84.983337
 20
20.4
 30
0.0
  0
VERTEX
  8
0
 10
81.683337
 20
20.4
 30
0.0
  0
SEQEND
  8
0
  0
POLYLINE
  8
0
 62
7
 70
1
 66
1
 10
0.0
 20
0.0
 30
0.0
  0
VERTEX
  8
0
 10
88.350004
 20
18.3
 30
0.0
  0
VERTEX
  8
0
 10
91.650004
 20
18.3
 30
0.0
  0
VERTEX
  8
0
 10
91.650004
 20
20.4
 30
0.0
  0
VERTEX
  8
0
 10
88.350004
 20
20.4
 30
0.0
  0
SEQEND
  8
0
  0
POLYLINE
  8
0
 62
7
 70
1
 66
1
 10
0.0
 20
0.0
 30
0.0
  0
VERTEX
  8
0
 10
95.016671
 20
18.3
 30
0.0
  0
VERTEX
  8
0
 10
98.316671
 20
18.3
 30
0.0
  0
VERTEX
  8
0
 10
98.316671
 20
20.4
 30
0.0
  0
VERTEX
  8
0
 10
95.016671
 20
20.4
 30
0.0
  0
SEQEND
  8
0
  0
ENDBLK
  0
ENDSEC
  0
SECTION
  2
ENTITIES
  0
INSERT
  2
SKETCH
  8
0
 62
7
 10
0.0
 20
0.0
 30
0.0
  0
ENDSEC
  0
EOF
