  0
SECTION
  2
HEADER
  9
$ACADVER
  1
AC1009
  9
$INSBASE
 10
0.0
 20
0.0
 30
0.0
  9
$EXTMIN
 10
0.0
 20
0.0
 30
0.0
  9
$EXTMAX
 10
0.0
 20
0.0
 30
0.0
  0
ENDSEC
  0
SECTION
  2
TABLES
  0
TABLE
  2
VPORT
 70
0
  0
ENDTAB
  0
TABLE
  2
LTYPE
 70
1
  0
LTYPE
  2
CONTINUOUS
 70
0
  3
Solid line
 72
65
 73
0
 40
0.0
  0
ENDTAB
  0
TABLE
  2
LAYER
 70
1
  0
LAYER
  2
0
 70
64
 62
7
  6
continuous
  0
ENDTAB
  0
TABLE
  2
STYLE
 70
1
  0
STYLE
  2
STANDARD
 70
0
 40
0
 41
1.0
 50
0.0
 71
0
 42
1
 3
ARIAL.TTF
 4

  0
ENDTAB
  0
TABLE
  2
VIEW
 70
0
  0
ENDTAB
  0
ENDSEC
  0
SECTION
  2
BLOCKS
  0
BLOCK
  8
0
  2
SKETCH
 70
0
 10
0.0
 20
0.0
 30
0.0
  3
SKETCH
  0
POLYLINE
  8
0
 62
7
 70
1
 66
1
 10
0.0
 20
0.0
 30
0.0
  0
VERTEX
  8
0
 10
0.0
 20
0.0
 30
0.0
  0
VERTEX
  8
0
 10
100.0
 20
0.0
 30
0.0
  0
VERTEX
  8
0
 10
100.0
 20
50.0
 30
0.0
  0
VERTEX
  8
0
 10
0.0
 20
50.0
 30
0.0
  0
SEQEND
  8
0
  0
POLYLINE
  8
0
 62
7
 70
1
 66
1
 10
0.0
 20
0.0
 30
0.0
  0
VERTEX
  8
0
 10
0.85
 20
3.0
 30
0.0
  0
VERTEX
  8
0
 10
4.15
 20
3.0
 30
0.0
  0
VERTEX
  8
0
 10
4.15
 20
5.1
 30
0.0
  0
VERTEX
  8
0
 10
0.85
 20
5.1
 30
0.0
  0
SEQEND
  8
0
  0
POLYLINE
  8
0
 62
7
 70
1
 66
1
 10
0.0
 20
0.0
 30
0.0
  0
VERTEX
  8
0
 10
5.85
 20
3.0
 30
0.0
  0
VERTEX
  8
0
 10
9.15
 20
3.0
 30
0.0
  0
VERTEX
  8
0
 10
9.15
 20
5.1
 30
0.0
  0
VERTEX
  8
0
 10
5.85
 20
5.1
 30
0.0
  0
SEQEND
  8
0
  0
POLYLINE
  8
0
 62
7
 70
1
 66
1
 10
0.0
 20
0.0
 30
0.0
  0
VERTEX
  8
0
 10
10.85
 20
3.0
 30
0.0
  0
VERTEX
  8
0
 10
14.15
 20
3.0
 30
0.0
  0
VERTEX
  8
0
 10
14.15
 20
5.1
 30
0.0
  0
VERTEX
  8
0
 10
10.85
 20
5.1
 30
0.0
  0
SEQEND
  8
0
  0
POLYLINE
  8
0
 62
7
 70
1
 66
1
 10
0.0
 20
0.0
 30
0.0
  0
VERTEX
  8
0
 10
15.85
 20
3.0
 30
0.0
  0
VERTEX
  8
0
 10
19.15
 20
3.0
 30
0.0
  0
VERTEX
  8
0
 10
19.15
 20
5.1
 30
0.0
  0
VERTEX
  8
0
 10
15.85
 20
5.1
 30
0.0
  0
SEQEND
  8
0
  0
POLYLINE
  8
0
 62
7
 70
1
 66
1
 10
0.0
 20
0.0
 30
0.0
  0
VERTEX
  8
0
 10
20.85
 20
3.0
 30
0.0
  0
VERTEX
  8
0
 10
24.15
 20
3.0
 30
0.0
  0
VERTEX
  8
0
 10
24.15
 20
5.1
 30
0.0
  0
VERTEX
  8
0
 10
20.85
 20
5.1
 30
0.0
  0
SEQEND
  8
0
  0
POLYLINE
  8
0
 62
7
 70
1
 66
1
 10
0.0
 20
0.0
 30
0.0
  0
VERTEX
  8
0
 10
25.85
 20
3.0
 30
0.0
  0
VERTEX
  8
0
 10
29.15
 20
3.0
 30
0.0
  0
VERTEX
  8
0
 10
29.15
 20
5.1
 30
0.0
  0
VERTEX
  8
0
 10
25.85
 20
5.1
 30
0.0
  0
SEQEND
  8
0
  0
POLYLINE
  8
0
 62
7
 70
1
 66
1
 10
0.0
 20
0.0
 30
0.0
  0
VERTEX
  8
0
 10
30.85
 20
3.0
 30
0.0
  0
VERTEX
  8
0
 10
34.15
 20
3.0
 30
0.0
  0
VERTEX
  8
0
 10
34.15
 20
5.1
 30
0.0
  0
VERTEX
  8
0
 10
30.85
 20
5.1
 30
0.0
  0
SEQEND
  8
0
  0
POLYLINE
  8
0
 62
7
 70
1
 66
1
 10
0.0
 20
0.0
 30
0.0
  0
VERTEX
  8
0
 10
35.85
 20
3.0
 30
0.0
  0
VERTEX
  8
0
 10
39.15
 20
3.0
 30
0.0
  0
VERTEX
  8
0
 10
39.15
 20
5.1
 30
0.0
  0
VERTEX
  8
0
 10
35.85
 20
5.1
 30
0.0
  0
SEQEND
  8
0
  0
POLYLINE
  8
0
 62
7
 70
1
 66
1
 10
0.0
 20
0.0
 30
0.0
  0
VERTEX
  8
0
 10
40.85
 20
3.0
 30
0.0
  0
VERTEX
  8
0
 10
44.15
 20
3.0
 30
0.0
  0
VERTEX
  8
0
 10
44.15
 20
5.1
 30
0.0
  0
VERTEX
  8
0
 10
40.85
 20
5.1
 30
0.0
  0
SEQEND
  8
0
  0
POLYLINE
  8
0
 62
7
 70
1
 66
1
 10
0.0
 20
0.0
 30
0.0
  0
VERTEX
  8
0
 10
45.85
 20
3.0
 30
0.0
  0
VERTEX
  8
0
 10
49.15
 20
3.0
 30
0.0
  0
VERTEX
  8
0
 10
49.15
 20
5.1
 30
0.0
  0
VERTEX
  8
0
 10
45.85
 20
5.1
 30
0.0
  0
SEQEND
  8
0
  0
POLYLINE
  8
0
 62
7
 70
1
 66
1
 10
0.0
 20
0.0
 30
0.0
  0
VERTEX
  8
0
 10
50.85
 20
3.0
 30
0.0
  0
VERTEX
  8
0
 10
54.15
 20
3.0
 30
0.0
  0
VERTEX
  8
0
 10
54.15
 20
5.1
 30
0.0
  0
VERTEX
  8
0
 10
50.85
 20
5.1
 30
0.0
  0
SEQEND
  8
0
  0
POLYLINE
  8
0
 62
7
 70
1
 66
1
 10
0.0
 20
0.0
 30
0.0
  0
VERTEX
  8
0
 10
55.85
 20
3.0
 30
0.0
  0
VERTEX
  8
0
 10
59.15
 20
3.0
 30
0.0
  0
VERTEX
  8
0
 10
59.15
 20
5.1
 30
0.0
  0
VERTEX
  8
0
 10
55.85
 20
5.1
 30
0.0
  0
SEQEND
  8
0
  0
POLYLINE
  8
0
 62
7
 70
1
 66
1
 10
0.0
 20
0.0
 30
0.0
  0
VERTEX
  8
0
 10
60.85
 20
3.0
 30
0.0
  0
VERTEX
  8
0
 10
64.15
 20
3.0
 30
0.0
  0
VERTEX
  8
0
 10
64.15
 20
5.1
 30
0.0
  0
VERTEX
  8
0
 10
60.85
 20
5.1
 30
0.0
  0
SEQEND
  8
0
  0
POLYLINE
  8
0
 62
7
 70
1
 66
1
 10
0.0
 20
0.0
 30
0.0
  0
VERTEX
  8
0
 10
65.85
 20
3.0
 30
0.0
  0
VERTEX
  8
0
 10
69.15
 20
3.0
 30
0.0
  0
VERTEX
  8
0
 10
69.15
 20
5.1
 30
0.0
  0
VERTEX
  8
0
 10
65.85
 20
5.1
 30
0.0
  0
SEQEND
  8
0
  0
POLYLINE
  8
0
 62
7
 70
1
 66
1
 10
0.0
 20
0.0
 30
0.0
  0
VERTEX
  8
0
 10
70.85
 20
3.0
 30
0.0
  0
VERTEX
  8
0
 10
74.15
 20
3.0
 30
0.0
  0
VERTEX
  8
0
 10
74.15
 20
5.1
 30
0.0
  0
VERTEX
  8
0
 10
70.85
 20
5.1
 30
0.0
  0
SEQEND
  8
0
  0
POLYLINE
  8
0
 62
7
 70
1
 66
1
 10
0.0
 20
0.0
 30
0.0
  0
VERTEX
  8
0
 10
75.85
 20
3.0
 30
0.0
  0
VERTEX
  8
0
 10
79.15
 20
3.0
 30
0.0
  0
VERTEX
  8
0
 10
79.15
 20
5.1
 30
0.0
  0
VERTEX
  8
0
 10
75.85
 20
5.1
 30
0.0
  0
SEQEND
  8
0
  0
POLYLINE
  8
0
 62
7
 70
1
 66
1
 10
0.0
 20
0.0
 30
0.0
  0
VERTEX
  8
0
 10
80.85
 20
3.0
 30
0.0
  0
VERTEX
  8
0
 10
84.15
 20
3.0
 30
0.0
  0
VERTEX
  8
0
 10
84.15
 20
5.1
 30
0.0
  0
VERTEX
  8
0
 10
80.85
 20
5.1
 30
0.0
  0
SEQEND
  8
0
  0
POLYLINE
  8
0
 62
7
 70
1
 66
1
 10
0.0
 20
0.0
 30
0.0
  0
VERTEX
  8
0
 10
85.85
 20
3.0
 30
0.0
  0
VERTEX
  8
0
 10
89.15
 20
3.0
 30
0.0
  0
VERTEX
  8
0
 10
89.15
 20
5.1
 30
0.0
  0
VERTEX
  8
0
 10
85.85
 20
5.1
 30
0.0
  0
SEQEND
  8
0
  0
POLYLINE
  8
0
 62
7
 70
1
 66
1
 10
0.0
 20
0.0
 30
0.0
  0
VERTEX
  8
0
 10
90.85
 20
3.0
 30
0.0
  0
VERTEX
  8
0
 10
94.15
 20
3.0
 30
0.0
  0
VERTEX
  8
0
 10
94.15
 20
5.1
 30
0.0
  0
VERTEX
  8
0
 10
90.85
 20
5.1
 30
0.0
  0
SEQEND
  8
0
  0
POLYLINE
  8
0
 62
7
 70
1
 66
1
 10
0.0
 20
0.0
 30
0.0
  0
VERTEX
  8
0
 10
95.85
 20
3.0
 30
0.0
  0
VERTEX
  8
0
 10
99.15
 20
3.0
 30
0.0
  0
VERTEX
  8
0
 10
99.15
 20
5.1
 30
0.0
  0
VERTEX
  8
0
 10
95.85
 20
5.1
 30
0.0
  0
SEQEND
  8
0
  0
POLYLINE
  8
0
 62
7
 70
1
 66
1
 10
0.0
 20
0.0
 30
0.0
  0
VERTEX
  8
0
 10
0.85
 20
8.1
 30
0.0
  0
VERTEX
  8
0
 10
4.15
 20
8.1
 30
0.0
  0
VERTEX
  8
0
 10
4.15
 20
10.2
 30
0.0
  0
VERTEX
  8
0
 10
0.85
 20
10.2
 30
0.0
  0
SEQEND
  8
0
  0
POLYLINE
  8
0
 62
7
 70
1
 66
1
 10
0.0
 20
0.0
 30
0.0
  0
VERTEX
  8
0
 10
5.85
 20
8.1
 30
0.0
  0
VERTEX
  8
0
 10
9.15
 20
8.1
 30
0.0
  0
VERTEX
  8
0
 10
9.15
 20
10.2
 30
0.0
  0
VERTEX
  8
0
 10
5.85
 20
10.2
 30
0.0
  0
SEQEND
  8
0
  0
POLYLINE
  8
0
 62
7
 70
1
 66
1
 10
0.0
 20
0.0
 30
0.0
  0
VERTEX
  8
0
 10
10.85
 20
8.1
 30
0.0
  0
VERTEX
  8
0
 10
14.15
 20
8.1
 30
0.0
  0
VERTEX
  8
0
 10
14.15
 20
10.2
 30
0.0
  0
VERTEX
  8
0
 10
10.85
 20
10.2
 30
0.0
  0
SEQEND
  8
0
  0
POLYLINE
  8
0
 62
7
 70
1
 66
1
 10
0.0
 20
0.0
 30
0.0
  0
VERTEX
  8
0
 10
15.85
 20
8.1
 30
0.0
  0
VERTEX
  8
0
 10
19.15
 20
8.1
 30
0.0
  0
VERTEX
  8
0
 10
19.15
 20
10.2
 30
0.0
  0
VERTEX
  8
0
 10
15.85
 20
10.2
 30
0.0
  0
SEQEND
  8
0
  0
POLYLINE
  8
0
 62
7
 70
1
 66
1
 10
0.0
 20
0.0
 30
0.0
  0
VERTEX
  8
0
 10
20.85
 20
8.1
 30
0.0
  0
VERTEX
  8
0
 10
24.15
 20
8.1
 30
0.0
  0
VERTEX
  8
0
 10
24.15
 20
10.2
 30
0.0
  0
VERTEX
  8
0
 10
20.85
 20
10.2
 30
0.0
  0
SEQEND
  8
0
  0
POLYLINE
  8
0
 62
7
 70
1
 66
1
 10
0.0
 20
0.0
 30
0.0
  0
VERTEX
  8
0
 10
25.85
 20
8.1
 30
0.0
  0
VERTEX
  8
0
 10
29.15
 20
8.1
 30
0.0
  0
VERTEX
  8
0
 10
29.15
 20
10.2
 30
0.0
  0
VERTEX
  8
0
 10
25.85
 20
10.2
 30
0.0
  0
SEQEND
  8
0
  0
POLYLINE
  8
0
 62
7
 70
1
 66
1
 10
0.0
 20
0.0
 30
0.0
  0
VERTEX
  8
0
 10
30.85
 20
8.1
 30
0.0
  0
VERTEX
  8
0
 10
34.15
 20
8.1
 30
0.0
  0
VERTEX
  8
0
 10
34.15
 20
10.2
 30
0.0
  0
VERTEX
  8
0
 10
30.85
 20
10.2
 30
0.0
  0
SEQEND
  8
0
  0
POLYLINE
  8
0
 62
7
 70
1
 66
1
 10
0.0
 20
0.0
 30
0.0
  0
VERTEX
  8
0
 10
35.85
 20
8.1
 30
0.0
  0
VERTEX
  8
0
 10
39.15
 20
8.1
 30
0.0
  0
VERTEX
  8
0
 10
39.15
 20
10.2
 30
0.0
  0
VERTEX
  8
0
 10
35.85
 20
10.2
 30
0.0
  0
SEQEND
  8
0
  0
POLYLINE
  8
0
 62
7
 70
1
 66
1
 10
0.0
 20
0.0
 30
0.0
  0
VERTEX
  8
0
 10
40.85
 20
8.1
 30
0.0
  0
VERTEX
  8
0
 10
44.15
 20
8.1
 30
0.0
  0
VERTEX
  8
0
 10
44.15
 20
10.2
 30
0.0
  0
VERTEX
  8
0
 10
40.85
 20
10.2
 30
0.0
  0
SEQEND
  8
0
  0
POLYLINE
  8
0
 62
7
 70
1
 66
1
 10
0.0
 20
0.0
 30
0.0
  0
VERTEX
  8
0
 10
45.85
 20
8.1
 30
0.0
  0
VERTEX
  8
0
 10
49.15
 20
8.1
 30
0.0
  0
VERTEX
  8
0
 10
49.15
 20
10.2
 30
0.0
  0
VERTEX
  8
0
 10
45.85
 20
10.2
 30
0.0
  0
SEQEND
  8
0
  0
POLYLINE
  8
0
 62
7
 70
1
 66
1
 10
0.0
 20
0.0
 30
0.0
  0
VERTEX
  8
0
 10
50.85
 20
8.1
 30
0.0
  0
VERTEX
  8
0
 10
54.15
 20
8.1
 30
0.0
  0
VERTEX
  8
0
 10
54.15
 20
10.2
 30
0.0
  0
VERTEX
  8
0
 10
50.85
 20
10.2
 30
0.0
  0
SEQEND
  8
0
  0
POLYLINE
  8
0
 62
7
 70
1
 66
1
 10
0.0
 20
0.0
 30
0.0
  0
VERTEX
  8
0
 10
55.85
 20
8.1
 30
0.0
  0
VERTEX
  8
0
 10
59.15
 20
8.1
 30
0.0
  0
VERTEX
  8
0
 10
59.15
 20
10.2
 30
0.0
  0
VERTEX
  8
0
 10
55.85
 20
10.2
 30
0.0
  0
SEQEND
  8
0
  0
POLYLINE
  8
0
 62
7
 70
1
 66
1
 10
0.0
 20
0.0
 30
0.0
  0
VERTEX
  8
0
 10
60.85
 20
8.1
 30
0.0
  0
VERTEX
  8
0
 10
64.15
 20
8.1
 30
0.0
  0
VERTEX
  8
0
 10
64.15
 20
10.2
 30
0.0
  0
VERTEX
  8
0
 10
60.85
 20
10.2
 30
0.0
  0
SEQEND
  8
0
  0
POLYLINE
  8
0
 62
7
 70
1
 66
1
 10
0.0
 20
0.0
 30
0.0
  0
VERTEX
  8
0
 10
65.85
 20
8.1
 30
0.0
  0
VERTEX
  8
0
 10
69.15
 20
8.1
 30
0.0
  0
VERTEX
  8
0
 10
69.15
 20
10.2
 30
0.0
  0
VERTEX
  8
0
 10
65.85
 20
10.2
 30
0.0
  0
SEQEND
  8
0
  0
POLYLINE
  8
0
 62
7
 70
1
 66
1
 10
0.0
 20
0.0
 30
0.0
  0
VERTEX
  8
0
 10
70.85
 20
8.1
 30
0.0
  0
VERTEX
  8
0
 10
74.15
 20
8.1
 30
0.0
  0
VERTEX
  8
0
 10
74.15
 20
10.2
 30
0.0
  0
VERTEX
  8
0
 10
70.85
 20
10.2
 30
0.0
  0
SEQEND
  8
0
  0
POLYLINE
  8
0
 62
7
 70
1
 66
1
 10
0.0
 20
0.0
 30
0.0
  0
VERTEX
  8
0
 10
75.85
 20
8.1
 30
0.0
  0
VERTEX
  8
0
 10
79.15
 20
8.1
 30
0.0
  0
VERTEX
  8
0
 10
79.15
 20
10.2
 30
0.0
  0
VERTEX
  8
0
 10
75.85
 20
10.2
 30
0.0
  0
SEQEND
  8
0
  0
POLYLINE
  8
0
 62
7
 70
1
 66
1
 10
0.0
 20
0.0
 30
0.0
  0
VERTEX
  8
0
 10
80.85
 20
8.1
 30
0.0
  0
VERTEX
  8
0
 10
84.15
 20
8.1
 30
0.0
  0
VERTEX
  8
0
 10
84.15
 20
10.2
 30
0.0
  0
VERTEX
  8
0
 10
80.85
 20
10.2
 30
0.0
  0
SEQEND
  8
0
  0
POLYLINE
  8
0
 62
7
 70
1
 66
1
 10
0.0
 20
0.0
 30
0.0
  0
VERTEX
  8
0
 10
85.85
 20
8.1
 30
0.0
  0
VERTEX
  8
0
 10
89.15
 20
8.1
 30
0.0
  0
VERTEX
  8
0
 10
89.15
 20
10.2
 30
0.0
  0
VERTEX
  8
0
 10
85.85
 20
10.2
 30
0.0
  0
SEQEND
  8
0
  0
POLYLINE
  8
0
 62
7
 70
1
 66
1
 10
0.0
 20
0.0
 30
0.0
  0
VERTEX
  8
0
 10
90.85
 20
8.1
 30
0.0
  0
VERTEX
  8
0
 10
94.15
 20
8.1
 30
0.0
  0
VERTEX
  8
0
 10
94.15
 20
10.2
 30
0.0
  0
VERTEX
  8
0
 10
90.85
 20
10.2
 30
0.0
  0
SEQEND
  8
0
  0
POLYLINE
  8
0
 62
7
 70
1
 66
1
 10
0.0
 20
0.0
 30
0.0
  0
VERTEX
  8
0
 10
95.85
 20
8.1
 30
0.0
  0
VERTEX
  8
0
 10
99.15
 20
8.1
 30
0.0
  0
VERTEX
  8
0
 10
99.15
 20
10.2
 30
0.0
  0
VERTEX
  8
0
 10
95.85
 20
10.2
 30
0.0
  0
SEQEND
  8
0
  0
POLYLINE
  8
0
 62
7
 70
1
 66
1
 10
0.0
 20
0.0
 30
0.0
  0
VERTEX
  8
0
 10
0.85
 20
13.2
 30
0.0
  0
VERTEX
  8
0
 10
4.15
 20
13.2
 30
0.0
  0
VERTEX
  8
0
 10
4.15
 20
15.3
 30
0.0
  0
VERTEX
  8
0
 10
0.85
 20
15.3
 30
0.0
  0
SEQEND
  8
0
  0
POLYLINE
  8
0
 62
7
 70
1
 66
1
 10
0.0
 20
0.0
 30
0.0
  0
VERTEX
  8
0
 10
5.85
 20
13.2
 30
0.0
  0
VERTEX
  8
0
 10
9.15
 20
13.2
 30
0.0
  0
VERTEX
  8
0
 10
9.15
 20
15.3
 30
0.0
  0
VERTEX
  8
0
 10
5.85
 20
15.3
 30
0.0
  0
SEQEND
  8
0
  0
POLYLINE
  8
0
 62
7
 70
1
 66
1
 10
0.0
 20
0.0
 30
0.0
  0
VERTEX
  8
0
 10
10.85
 20
13.2
 30
0.0
  0
VERTEX
  8
0
 10
14.15
 20
13.2
 30
0.0
  0
VERTEX
  8
0
 10
14.15
 20
15.3
 30
0.0
  0
VERTEX
  8
0
 10
10.85
 20
15.3
 30
0.0
  0
SEQEND
  8
0
  0
POLYLINE
  8
0
 62
7
 70
1
 66
1
 10
0.0
 20
0.0
 30
0.0
  0
VERTEX
  8
0
 10
15.85
 20
13.2
 30
0.0
  0
VERTEX
  8
0
 10
19.15
 20
13.2
 30
0.0
  0
VERTEX
  8
0
 10
19.15
 20
15.3
 30
0.0
  0
VERTEX
  8
0
 10
15.85
 20
15.3
 30
0.0
  0
SEQEND
  8
0
  0
POLYLINE
  8
0
 62
7
 70
1
 66
1
 10
0.0
 20
0.0
 30
0.0
  0
VERTEX
  8
0
 10
20.85
 20
13.2
 30
0.0
  0
VERTEX
  8
0
 10
24.15
 20
13.2
 30
0.0
  0
VERTEX
  8
0
 10
24.15
 20
15.3
 30
0.0
  0
VERTEX
  8
0
 10
20.85
 20
15.3
 30
0.0
  0
SEQEND
  8
0
  0
POLYLINE
  8
0
 62
7
 70
1
 66
1
 10
0.0
 20
0.0
 30
0.0
  0
VERTEX
  8
0
 10
25.85
 20
13.2
 30
0.0
  0
VERTEX
  8
0
 10
29.15
 20
13.2
 30
0.0
  0
VERTEX
  8
0
 10
29.15
 20
15.3
 30
0.0
  0
VERTEX
  8
0
 10
25.85
 20
15.3
 30
0.0
  0
SEQEND
  8
0
  0
POLYLINE
  8
0
 62
7
 70
1
 66
1
 10
0.0
 20
0.0
 30
0.0
  0
VERTEX
  8
0
 10
30.85
 20
13.2
 30
0.0
  0
VERTEX
  8
0
 10
34.15
 20
13.2
 30
0.0
  0
VERTEX
  8
0
 10
34.15
 20
15.3
 30
0.0
  0
VERTEX
  8
0
 10
30.85
 20
15.3
 30
0.0
  0
SEQEND
  8
0
  0
POLYLINE
  8
0
 62
7
 70
1
 66
1
 10
0.0
 20
0.0
 30
0.0
  0
VERTEX
  8
0
 10
35.85
 20
13.2
 30
0.0
  0
VERTEX
  8
0
 10
39.15
 20
13.2
 30
0.0
  0
VERTEX
  8
0
 10
39.15
 20
15.3
 30
0.0
  0
VERTEX
  8
0
 10
35.85
 20
15.3
 30
0.0
  0
SEQEND
  8
0
  0
POLYLINE
  8
0
 62
7
 70
1
 66
1
 10
0.0
 20
0.0
 30
0.0
  0
VERTEX
  8
0
 10
40.85
 20
13.2
 30
0.0
  0
VERTEX
  8
0
 10
44.15
 20
13.2
 30
0.0
  0
VERTEX
  8
0
 10
44.15
 20
15.3
 30
0.0
  0
VERTEX
  8
0
 10
40.85
 20
15.3
 30
0.0
  0
SEQEND
  8
0
  0
POLYLINE
  8
0
 62
7
 70
1
 66
1
 10
0.0
 20
0.0
 30
0.0
  0
VERTEX
  8
0
 10
45.85
 20
13.2
 30
0.0
  0
VERTEX
  8
0
 10
49.15
 20
13.2
 30
0.0
  0
VERTEX
  8
0
 10
49.15
 20
15.3
 30
0.0
  0
VERTEX
  8
0
 10
45.85
 20
15.3
 30
0.0
  0
SEQEND
  8
0
  0
POLYLINE
  8
0
 62
7
 70
1
 66
1
 10
0.0
 20
0.0
 30
0.0
  0
VERTEX
  8
0
 10
50.85
 20
13.2
 30
0.0
  0
VERTEX
  8
0
 10
54.15
 20
13.2
 30
0.0
  0
VERTEX
  8
0
 10
54.15
 20
15.3
 30
0.0
  0
VERTEX
  8
0
 10
50.85
 20
15.3
 30
0.0
  0
SEQEND
  8
0
  0
POLYLINE
  8
0
 62
7
 70
1
 66
1
 10
0.0
 20
0.0
 30
0.0
  0
VERTEX
  8
0
 10
55.85
 20
13.2
 30
0.0
  0
VERTEX
  8
0
 10
59.15
 20
13.2
 30
0.0
  0
VERTEX
  8
0
 10
59.15
 20
15.3
 30
0.0
  0
VERTEX
  8
0
 10
55.85
 20
15.3
 30
0.0
  0
SEQEND
  8
0
  0
POLYLINE
  8
0
 62
7
 70
1
 66
1
 10
0.0
 20
0.0
 30
0.0
  0
VERTEX
  8
0
 10
60.85
 20
13.2
 30
0.0
  0
VERTEX
  8
0
 10
64.15
 20
13.2
 30
0.0
  0
VERTEX
  8
0
 10
64.15
 20
15.3
 30
0.0
  0
VERTEX
  8
0
 10
60.85
 20
15.3
 30
0.0
  0
SEQEND
  8
0
  0
POLYLINE
  8
0
 62
7
 70
1
 66
1
 10
0.0
 20
0.0
 30
0.0
  0
VERTEX
  8
0
 10
65.85
 20
13.2
 30
0.0
  0
VERTEX
  8
0
 10
69.15
 20
13.2
 30
0.0
  0
VERTEX
  8
0
 10
69.15
 20
15.3
 30
0.0
  0
VERTEX
  8
0
 10
65.85
 20
15.3
 30
0.0
  0
SEQEND
  8
0
  0
POLYLINE
  8
0
 62
7
 70
1
 66
1
 10
0.0
 20
0.0
 30
0.0
  0
VERTEX
  8
0
 10
70.85
 20
13.2
 30
0.0
  0
VERTEX
  8
0
 10
74.15
 20
13.2
 30
0.0
  0
VERTEX
  8
0
 10
74.15
 20
15.3
 30
0.0
  0
VERTEX
  8
0
 10
70.85
 20
15.3
 30
0.0
  0
SEQEND
  8
0
  0
POLYLINE
  8
0
 62
7
 70
1
 66
1
 10
0.0
 20
0.0
 30
0.0
  0
VERTEX
  8
0
 10
75.85
 20
13.2
 30
0.0
  0
VERTEX
  8
0
 10
79.15
 20
13.2
 30
0.0
  0
VERTEX
  8
0
 10
79.15
 20
15.3
 30
0.0
  0
VERTEX
  8
0
 10
75.85
 20
15.3
 30
0.0
  0
SEQEND
  8
0
  0
POLYLINE
  8
0
 62
7
 70
1
 66
1
 10
0.0
 20
0.0
 30
0.0
  0
VERTEX
  8
0
 10
80.85
 20
13.2
 30
0.0
  0
VERTEX
  8
0
 10
84.15
 20
13.2
 30
0.0
  0
VERTEX
  8
0
 10
84.15
 20
15.3
 30
0.0
  0
VERTEX
  8
0
 10
80.85
 20
15.3
 30
0.0
  0
SEQEND
  8
0
  0
POLYLINE
  8
0
 62
7
 70
1
 66
1
 10
0.0
 20
0.0
 30
0.0
  0
VERTEX
  8
0
 10
85.85
 20
13.2
 30
0.0
  0
VERTEX
  8
0
 10
89.15
 20
13.2
 30
0.0
  0
VERTEX
  8
0
 10
89.15
 20
15.3
 30
0.0
  0
VERTEX
  8
0
 10
85.85
 20
15.3
 30
0.0
  0
SEQEND
  8
0
  0
POLYLINE
  8
0
 62
7
 70
1
 66
1
 10
0.0
 20
0.0
 30
0.0
  0
VERTEX
  8
0
 10
90.85
 20
13.2
 30
0.0
  0
VERTEX
  8
0
 10
94.15
 20
13.2
 30
0.0
  0
VERTEX
  8
0
 10
94.15
 20
15.3
 30
0.0
  0
VERTEX
  8
0
 10
90.85
 20
15.3
 30
0.0
  0
SEQEND
  8
0
  0
POLYLINE
  8
0
 62
7
 70
1
 66
1
 10
0.0
 20
0.0
 30
0.0
  0
VERTEX
  8
0
 10
95.85
 20
13.2
 30
0.0
  0
VERTEX
  8
0
 10
99.15
 20
13.2
 30
0.0
  0
VERTEX
  8
0
 10
99.15
 20
15.3
 30
0.0
  0
VERTEX
  8
0
 10
95.85
 20
15.3
 30
0.0
  0
SEQEND
  8
0
  0
POLYLINE
  8
0
 62
7
 70
1
 66
1
 10
0.0
 20
0.0
 30
0.0
  0
VERTEX
  8
0
 10
2.516667
 20
20.3
 30
0.0
  0
VERTEX
  8
0
 10
5.816667
 20
20.3
 30
0.0
  0
VERTEX
  8
0
 10
5.816667
 20
22.4
 30
0.0
  0
VERTEX
  8
0
 10
2.516667
 20
22.4
 30
0.0
  0
SEQEND
  8
0
  0
POLYLINE
  8
0
 62
7
 70
1
 66
1
 10
0.0
 20
0.0
 30
0.0
  0
VERTEX
  8
0
 10
10.85
 20
20.3
 30
0.0
  0
VERTEX
  8
0
 10
14.15
 20
20.3
 30
0.0
  0
VERTEX
  8
0
 10
14.15
 20
22.4
 30
0.0
  0
VERTEX
  8
0
 10
10.85
 20
22.4
 30
0.0
  0
SEQEND
  8
0
  0
POLYLINE
  8
0
 62
7
 70
1
 66
1
 10
0.0
 20
0.0
 30
0.0
  0
VERTEX
  8
0
 10
19.183333
 20
20.3
 30
0.0
  0
VERTEX
  8
0
 10
22.483333
 20
20.3
 30
0.0
  0
VERTEX
  8
0
 10
22.483333
 20
22.4
 30
0.0
  0
VERTEX
  8
0
 10
19.183333
 20
22.4
 30
0.0
  0
SEQEND
  8
0
  0
POLYLINE
  8
0
 62
7
 70
1
 66
1
 10
0.0
 20
0.0
 30
0.0
  0
VERTEX
  8
0
 10
27.516669
 20
20.3
 30
0.0
  0
VERTEX
  8
0
 10
30.816669
 20
20.3
 30
0.0
  0
VERTEX
  8
0
 10
30.816669
 20
22.4
 30
0.0
  0
VERTEX
  8
0
 10
27.516669
 20
22.4
 30
0.0
  0
SEQEND
  8
0
  0
POLYLINE
  8
0
 62
7
 70
1
 66
1
 10
0.0
 20
0.0
 30
0.0
  0
VERTEX
  8
0
 10
35.850002
 20
20.3
 30
0.0
  0
VERTEX
  8
0
 10
39.150002
 20
20.3
 30
0.0
  0
VERTEX
  8
0
 10
39.150002
 20
22.4
 30
0.0
  0
VERTEX
  8
0
 10
35.850002
 20
22.4
 30
0.0
  0
SEQEND
  8
0
  0
POLYLINE
  8
0
 62
7
 70
1
 66
1
 10
0.0
 20
0.0
 30
0.0
  0
VERTEX
  8
0
 10
44.183335
 20
20.3
 30
0.0
  0
VERTEX
  8
0
 10
47.483335
 20
20.3
 30
0.0
  0
VERTEX
  8
0
 10
47.483335
 20
22.4
 30
0.0
  0
VERTEX
  8
0
 10
44.183335
 20
22.4
 30
0.0
  0
SEQEND
  8
0
  0
POLYLINE
  8
0
 62
7
 70
1
 66
1
 10
0.0
 20
0.0
 30
0.0
  0
VERTEX
  8
0
 10
52.516668
 20
20.3
 30
0.0
  0
VERTEX
  8
0
 10
55.816668
 20
20.3
 30
0.0
  0
VERTEX
  8
0
 10
55.816668
 20
22.4
 30
0.0
  0
VERTEX
  8
0
 10
52.516668
 20
22.4
 30
0.0
  0
SEQEND
  8
0
  0
POLYLINE
  8
0
 62
7
 70
1
 66
1
 10
0.0
 20
0.0
 30
0.0
  0
VERTEX
  8
0
 10
60.850001
 20
20.3
 30
0.0
  0
VERTEX
  8
0
 10
64.150001
 20
20.3
 30
0.0
  0
VERTEX
  8
0
 10
64.150001
 20
22.4
 30
0.0
  0
VERTEX
  8
0
 10
60.850001
 20
22.4
 30
0.0
  0
SEQEND
  8
0
  0
POLYLINE
  8
0
 62
7
 70
1
 66
1
 10
0.0
 20
0.0
 30
0.0
  0
VERTEX
  8
0
 10
69.183334
 20
20.3
 30
0.0
  0
VERTEX
  8
0
 10
72.483334
 20
20.3
 30
0.0
  0
VERTEX
  8
0
 10
72.483334
 20
22.4
 30
0.0
  0
VERTEX
  8
0
 10
69.183334
 20
22.4
 30
0.0
  0
SEQEND
  8
0
  0
POLYLINE
  8
0
 62
7
 70
1
 66
1
 10
0.0
 20
0.0
 30
0.0
  0
VERTEX
  8
0
 10
77.516667
 20
20.3
 30
0.0
  0
VERTEX
  8
0
 10
80.816667
 20
20.3
 30
0.0
  0
VERTEX
  8
0
 10
80.816667
 20
22.4
 30
0.0
  0
VERTEX
  8
0
 10
77.516667
 20
22.4
 30
0.0
  0
SEQEND
  8
0
  0
POLYLINE
  8
0
 62
7
 70
1
 66
1
 10
0.0
 20
0.0
 30
0.0
  0
VERTEX
  8
0
 10
85.85
 20
20.3
 30
0.0
  0
VERTEX
  8
0
 10
89.15
 20
20.3
 30
0.0
  0
VERTEX
  8
0
 10
89.15
 20
22.4
 30
0.0
  0
VERTEX
  8
0
 10
85.85
 20
22.4
 30
0.0
  0
SEQEND
  8
0
  0
POLYLINE
  8
0
 62
7
 70
1
 66
1
 10
0.0
 20
0.0
 30
0.0
  0
VERTEX
  8
0
 10
94.183333
 20
20.3
 30
0.0
  0
VERTEX
  8
0
 10
97.483333
 20
20.3
 30
0.0
  0
VERTEX
  8
0
 10
97.483333
 20
22.4
 30
0.0
  0
VERTEX
  8
0
 10
94.183333
 20
22.4
 30
0.0
  0
SEQEND
  8
0
  0
ENDBLK
  0
ENDSEC
  0
SECTION
  2
ENTITIES
  0
INSERT
  2
SKETCH
  8
0
 62
7
 10
0.0
 20
0.0
 30
0.0
  0
ENDSEC
  0
EOF
